M48
;DRILL file {KiCad (5.0.0)} date 02/02/19 21:10:19
;FORMAT={-:-/ absolute / inch / decimal}
FMAT,2
INCH,TZ
T1C0.0150
T2C0.0200
T3C0.0335
T4C0.0394
T5C0.0402
T6C0.0630
T7C0.0394
T8C0.0500
T9C0.1181
%
G90
G05
M72
T1
X4.4732Y-3.4906
X4.5055Y-3.6142
X4.5189Y-3.3126
X4.6332Y-3.615
X4.7663Y-3.615
X4.8181Y-5.2331
X4.8276Y-4.2248
X4.874Y-4.9016
X4.939Y-3.1957
X4.9528Y-4.6614
X5.0276Y-5.061
X5.0285Y-5.125
X5.0472Y-4.6614
X5.0787Y-3.6417
X5.0787Y-3.7323
X5.1299Y-3.9898
X5.1307Y-4.0472
X5.1417Y-4.6614
X5.1756Y-3.2484
X5.186Y-3.43
X5.2192Y-3.3135
X5.2226Y-3.5726
X5.2228Y-3.6512
X5.2362Y-4.6614
X5.3075Y-3.2091
X5.3307Y-4.6614
X5.4134Y-4.0748
X5.4134Y-4.128
X5.4252Y-4.6614
X5.4299Y-3.8181
X5.4492Y-3.2374
X5.4823Y-4.4
X5.5463Y-5.3839
X5.5567Y-4.3382
X5.5591Y-4.7972
X5.6Y-4.3016
X5.6189Y-3.9102
X5.7244Y-4.6878
X5.7244Y-4.7598
X5.7295Y-3.402
X5.7386Y-3.9126
X5.7406Y-3.1748
X5.7652Y-4.1888
X5.7728Y-4.7264
X5.8114Y-4.1884
X5.813Y-4.8138
X5.8244Y-4.9303
X5.8268Y-4.4016
X5.8295Y-3.9126
X5.8682Y-4.1478
X5.8862Y-4.0732
X5.8921Y-4.6508
X5.9148Y-4.1478
X5.924Y-3.7752
X5.9287Y-4.3953
X5.9323Y-4.6094
X5.9713Y-4.572
X5.9799Y-4.8625
X5.9799Y-4.9673
X5.9811Y-4.7579
X5.9898Y-3.7232
X6.0031Y-3.9217
X6.0118Y-4.1142
X6.0157Y-4.189
X6.0319Y-4.9303
X6.057Y-5.065
X6.0717Y-4.5575
X6.0717Y-4.6819
X6.0772Y-3.9213
X6.0984Y-3.7835
X6.0984Y-3.8268
X6.0984Y-3.8701
X6.1181Y-3.5827
X6.1591Y-4.7941
X6.2038Y-4.3797
X6.2096Y-5.1417
X6.248Y-3.685
X6.3126Y-4.9465
X6.3185Y-4.898
X6.3346Y-3.5
X6.336Y-4.8331
X6.337Y-4.7165
X6.3587Y-4.6646
X6.3908Y-4.0292
X6.3908Y-4.0744
X6.4596Y-5.1476
X6.4626Y-4.5614
X6.4822Y-4.6466
X6.5193Y-4.7961
X6.534Y-4.5914
X6.567Y-4.5622
X6.5965Y-3.3563
X6.607Y-4.4568
X6.615Y-4.5579
X6.617Y-5.0646
X6.6232Y-4.2929
X6.6339Y-4.0354
X6.6772Y-4.9587
X6.6834Y-4.5252
X6.7Y-4.0722
X6.713Y-4.5579
X6.7795Y-4.
X6.8176Y-4.1038
X6.8206Y-4.6064
X6.8208Y-4.6466
X6.8299Y-3.3559
X6.8469Y-4.7689
X6.8504Y-3.5276
X6.8504Y-3.8189
X6.857Y-4.3221
X6.9228Y-3.1591
X6.9449Y-4.9874
X6.9449Y-5.2209
X6.9803Y-3.3701
X6.9961Y-3.4921
X7.005Y-4.925
X7.0948Y-4.4878
X7.4006Y-5.185
X7.4557Y-5.1575
X7.6063Y-4.9656
T2
X4.3252Y-4.6504
X5.1602Y-4.4
T3
X4.4911Y-3.7624
X4.4911Y-3.8624
X4.4911Y-3.9624
X4.4911Y-4.0624
X4.5Y-5.0331
X4.5Y-5.1331
X4.5Y-5.2331
X4.5Y-5.3331
T4
X4.0945Y-5.
X4.0945Y-5.1181
X4.0945Y-5.2362
X4.0945Y-5.3543
X4.2126Y-5.
X4.2126Y-5.1181
X4.2126Y-5.2362
X4.2126Y-5.3543
X5.0248Y-4.2678
X5.1248Y-4.2678
X5.528Y-4.6004
X5.628Y-4.6004
X5.728Y-4.6004
X7.3488Y-5.6693
X7.4488Y-5.6693
X6.959Y-4.2698
X6.959Y-4.3698
X7.059Y-4.2698
X7.059Y-4.3698
X7.159Y-4.2698
X7.159Y-4.3698
X7.259Y-4.2698
X7.259Y-4.3698
X7.359Y-4.2698
X7.359Y-4.3698
X4.0945Y-4.1732
X4.0945Y-4.2913
X4.0945Y-4.4094
X4.0945Y-4.5276
X4.2126Y-4.1732
X4.2126Y-4.2913
X4.2126Y-4.4094
X4.2126Y-4.5276
X5.7077Y-5.0409
X5.7077Y-5.1409
X5.7077Y-5.2409
X5.8077Y-5.0409
X5.8077Y-5.1409
X5.8077Y-5.2409
X4.7638Y-5.6299
X4.7638Y-5.748
X4.8819Y-5.6299
X4.8819Y-5.748
X5.Y-5.6299
X5.Y-5.748
X5.1181Y-5.6299
X5.1181Y-5.748
X5.2362Y-5.6299
X5.2362Y-5.748
X5.3543Y-5.6299
X5.3543Y-5.748
T5
X4.7441Y-3.1142
X4.8622Y-3.1142
X5.4488Y-3.1142
X5.5669Y-3.1142
X5.685Y-3.1142
X5.8031Y-3.1142
X7.7165Y-4.9213
X7.7165Y-5.0394
X7.7165Y-5.1575
X7.7165Y-5.2756
X4.0945Y-3.5433
X4.0945Y-3.6614
X5.8661Y-5.748
X5.9843Y-5.748
X6.1024Y-5.748
X6.2205Y-5.748
X6.4173Y-3.1102
X6.5354Y-3.1102
X6.6535Y-3.1102
X6.7717Y-3.1102
X6.7717Y-5.748
X6.8898Y-5.748
T6
X7.6142Y-5.5551
X7.185Y-5.5551
X4.5906Y-4.6535
X7.1418Y-4.6299
X5.8937Y-3.2933
X7.3622Y-4.6299
X4.8709Y-4.5311
X4.2953Y-3.7933
X4.4Y-3.1878
X4.8622Y-3.685
X7.5337Y-4.6298
X7.027Y-5.4692
X4.2953Y-3.4134
T7
X4.2496Y-4.0551
X4.2496Y-4.6457
X4.6457Y-5.5929
X5.4724Y-5.5929
X4.2496Y-4.8819
X4.2496Y-5.4724
T8
X4.626Y-3.037
X4.9803Y-3.037
X5.3307Y-3.037
X5.9213Y-3.037
X7.7937Y-4.8031
X7.7937Y-5.3937
X4.0173Y-3.4252
X4.0173Y-3.7795
X5.748Y-5.8252
X6.3386Y-5.8252
X6.2992Y-3.0331
X6.8898Y-3.0331
X6.6535Y-5.8252
X7.0079Y-5.8252
T9
X7.7559Y-3.0709
X4.0551Y-3.0709
X7.7559Y-5.7874
X4.0551Y-5.7874
T0
M30
