%TF.GenerationSoftware,KiCad,Pcbnew,(5.0.0)*%
%TF.CreationDate,2019-02-02T21:10:16-06:00*%
%TF.ProjectId,BPSMaster,4250534D61737465722E6B696361645F,rev?*%
%TF.SameCoordinates,Original*%
%TF.FileFunction,Legend,Top*%
%TF.FilePolarity,Positive*%
%FSLAX46Y46*%
G04 Gerber Fmt 4.6, Leading zero omitted, Abs format (unit mm)*
G04 Created by KiCad (PCBNEW (5.0.0)) date 02/02/19 21:10:16*
%MOMM*%
%LPD*%
G01*
G04 APERTURE LIST*
%ADD10C,0.150000*%
%ADD11C,0.250000*%
%ADD12C,0.200000*%
%ADD13C,0.127000*%
%ADD14C,0.120000*%
%ADD15C,0.152400*%
%ADD16C,0.010000*%
G04 APERTURE END LIST*
D10*
X184147619Y-85252380D02*
X183814285Y-84776190D01*
X183576190Y-85252380D02*
X183576190Y-84252380D01*
X183957142Y-84252380D01*
X184052380Y-84300000D01*
X184100000Y-84347619D01*
X184147619Y-84442857D01*
X184147619Y-84585714D01*
X184100000Y-84680952D01*
X184052380Y-84728571D01*
X183957142Y-84776190D01*
X183576190Y-84776190D01*
X184576190Y-84728571D02*
X184909523Y-84728571D01*
X185052380Y-85252380D02*
X184576190Y-85252380D01*
X184576190Y-84252380D01*
X185052380Y-84252380D01*
X185433333Y-85204761D02*
X185576190Y-85252380D01*
X185814285Y-85252380D01*
X185909523Y-85204761D01*
X185957142Y-85157142D01*
X186004761Y-85061904D01*
X186004761Y-84966666D01*
X185957142Y-84871428D01*
X185909523Y-84823809D01*
X185814285Y-84776190D01*
X185623809Y-84728571D01*
X185528571Y-84680952D01*
X185480952Y-84633333D01*
X185433333Y-84538095D01*
X185433333Y-84442857D01*
X185480952Y-84347619D01*
X185528571Y-84300000D01*
X185623809Y-84252380D01*
X185861904Y-84252380D01*
X186004761Y-84300000D01*
X186433333Y-84728571D02*
X186766666Y-84728571D01*
X186909523Y-85252380D02*
X186433333Y-85252380D01*
X186433333Y-84252380D01*
X186909523Y-84252380D01*
X187195238Y-84252380D02*
X187766666Y-84252380D01*
X187480952Y-85252380D02*
X187480952Y-84252380D01*
X152345238Y-83250000D02*
X152250000Y-83202380D01*
X152107142Y-83202380D01*
X151964285Y-83250000D01*
X151869047Y-83345238D01*
X151821428Y-83440476D01*
X151773809Y-83630952D01*
X151773809Y-83773809D01*
X151821428Y-83964285D01*
X151869047Y-84059523D01*
X151964285Y-84154761D01*
X152107142Y-84202380D01*
X152202380Y-84202380D01*
X152345238Y-84154761D01*
X152392857Y-84107142D01*
X152392857Y-83773809D01*
X152202380Y-83773809D01*
X153250000Y-84202380D02*
X153250000Y-83678571D01*
X153202380Y-83583333D01*
X153107142Y-83535714D01*
X152916666Y-83535714D01*
X152821428Y-83583333D01*
X153250000Y-84154761D02*
X153154761Y-84202380D01*
X152916666Y-84202380D01*
X152821428Y-84154761D01*
X152773809Y-84059523D01*
X152773809Y-83964285D01*
X152821428Y-83869047D01*
X152916666Y-83821428D01*
X153154761Y-83821428D01*
X153250000Y-83773809D01*
X153583333Y-83535714D02*
X153964285Y-83535714D01*
X153726190Y-83202380D02*
X153726190Y-84059523D01*
X153773809Y-84154761D01*
X153869047Y-84202380D01*
X153964285Y-84202380D01*
X154678571Y-84154761D02*
X154583333Y-84202380D01*
X154392857Y-84202380D01*
X154297619Y-84154761D01*
X154250000Y-84059523D01*
X154250000Y-83678571D01*
X154297619Y-83583333D01*
X154392857Y-83535714D01*
X154583333Y-83535714D01*
X154678571Y-83583333D01*
X154726190Y-83678571D01*
X154726190Y-83773809D01*
X154250000Y-83869047D01*
X110845238Y-78000000D02*
X110750000Y-77952380D01*
X110607142Y-77952380D01*
X110464285Y-78000000D01*
X110369047Y-78095238D01*
X110321428Y-78190476D01*
X110273809Y-78380952D01*
X110273809Y-78523809D01*
X110321428Y-78714285D01*
X110369047Y-78809523D01*
X110464285Y-78904761D01*
X110607142Y-78952380D01*
X110702380Y-78952380D01*
X110845238Y-78904761D01*
X110892857Y-78857142D01*
X110892857Y-78523809D01*
X110702380Y-78523809D01*
X111750000Y-78952380D02*
X111750000Y-78428571D01*
X111702380Y-78333333D01*
X111607142Y-78285714D01*
X111416666Y-78285714D01*
X111321428Y-78333333D01*
X111750000Y-78904761D02*
X111654761Y-78952380D01*
X111416666Y-78952380D01*
X111321428Y-78904761D01*
X111273809Y-78809523D01*
X111273809Y-78714285D01*
X111321428Y-78619047D01*
X111416666Y-78571428D01*
X111654761Y-78571428D01*
X111750000Y-78523809D01*
X112083333Y-78285714D02*
X112464285Y-78285714D01*
X112226190Y-77952380D02*
X112226190Y-78809523D01*
X112273809Y-78904761D01*
X112369047Y-78952380D01*
X112464285Y-78952380D01*
X113178571Y-78904761D02*
X113083333Y-78952380D01*
X112892857Y-78952380D01*
X112797619Y-78904761D01*
X112750000Y-78809523D01*
X112750000Y-78428571D01*
X112797619Y-78333333D01*
X112892857Y-78285714D01*
X113083333Y-78285714D01*
X113178571Y-78333333D01*
X113226190Y-78428571D01*
X113226190Y-78523809D01*
X112750000Y-78619047D01*
X118777000Y-118181428D02*
X119538904Y-118181428D01*
X119157952Y-118562380D02*
X119157952Y-117800476D01*
X119919857Y-117562380D02*
X120538904Y-117562380D01*
X120205571Y-117943333D01*
X120348428Y-117943333D01*
X120443666Y-117990952D01*
X120491285Y-118038571D01*
X120538904Y-118133809D01*
X120538904Y-118371904D01*
X120491285Y-118467142D01*
X120443666Y-118514761D01*
X120348428Y-118562380D01*
X120062714Y-118562380D01*
X119967476Y-118514761D01*
X119919857Y-118467142D01*
X120967476Y-118467142D02*
X121015095Y-118514761D01*
X120967476Y-118562380D01*
X120919857Y-118514761D01*
X120967476Y-118467142D01*
X120967476Y-118562380D01*
X121348428Y-117562380D02*
X121967476Y-117562380D01*
X121634142Y-117943333D01*
X121777000Y-117943333D01*
X121872238Y-117990952D01*
X121919857Y-118038571D01*
X121967476Y-118133809D01*
X121967476Y-118371904D01*
X121919857Y-118467142D01*
X121872238Y-118514761D01*
X121777000Y-118562380D01*
X121491285Y-118562380D01*
X121396047Y-118514761D01*
X121348428Y-118467142D01*
X122253190Y-117562380D02*
X122586523Y-118562380D01*
X122919857Y-117562380D01*
X193381380Y-118625809D02*
X194381380Y-118292476D01*
X193381380Y-117959142D01*
X194381380Y-117625809D02*
X193714714Y-117625809D01*
X193381380Y-117625809D02*
X193429000Y-117673428D01*
X193476619Y-117625809D01*
X193429000Y-117578190D01*
X193381380Y-117625809D01*
X193476619Y-117625809D01*
X193714714Y-117149619D02*
X194381380Y-117149619D01*
X193809952Y-117149619D02*
X193762333Y-117102000D01*
X193714714Y-117006761D01*
X193714714Y-116863904D01*
X193762333Y-116768666D01*
X193857571Y-116721047D01*
X194381380Y-116721047D01*
X183983380Y-119125809D02*
X184983380Y-118792476D01*
X183983380Y-118459142D01*
X184983380Y-117982952D02*
X184935761Y-118078190D01*
X184888142Y-118125809D01*
X184792904Y-118173428D01*
X184507190Y-118173428D01*
X184411952Y-118125809D01*
X184364333Y-118078190D01*
X184316714Y-117982952D01*
X184316714Y-117840095D01*
X184364333Y-117744857D01*
X184411952Y-117697238D01*
X184507190Y-117649619D01*
X184792904Y-117649619D01*
X184888142Y-117697238D01*
X184935761Y-117744857D01*
X184983380Y-117840095D01*
X184983380Y-117982952D01*
X184316714Y-116792476D02*
X184983380Y-116792476D01*
X184316714Y-117221047D02*
X184840523Y-117221047D01*
X184935761Y-117173428D01*
X184983380Y-117078190D01*
X184983380Y-116935333D01*
X184935761Y-116840095D01*
X184888142Y-116792476D01*
X184316714Y-116459142D02*
X184316714Y-116078190D01*
X183983380Y-116316285D02*
X184840523Y-116316285D01*
X184935761Y-116268666D01*
X184983380Y-116173428D01*
X184983380Y-116078190D01*
X178316000Y-118911571D02*
X178268380Y-119006809D01*
X178268380Y-119149666D01*
X178316000Y-119292523D01*
X178411238Y-119387761D01*
X178506476Y-119435380D01*
X178696952Y-119483000D01*
X178839809Y-119483000D01*
X179030285Y-119435380D01*
X179125523Y-119387761D01*
X179220761Y-119292523D01*
X179268380Y-119149666D01*
X179268380Y-119054428D01*
X179220761Y-118911571D01*
X179173142Y-118863952D01*
X178839809Y-118863952D01*
X178839809Y-119054428D01*
X179268380Y-118292523D02*
X179220761Y-118387761D01*
X179173142Y-118435380D01*
X179077904Y-118483000D01*
X178792190Y-118483000D01*
X178696952Y-118435380D01*
X178649333Y-118387761D01*
X178601714Y-118292523D01*
X178601714Y-118149666D01*
X178649333Y-118054428D01*
X178696952Y-118006809D01*
X178792190Y-117959190D01*
X179077904Y-117959190D01*
X179173142Y-118006809D01*
X179220761Y-118054428D01*
X179268380Y-118149666D01*
X179268380Y-118292523D01*
X178601714Y-117102047D02*
X179268380Y-117102047D01*
X178601714Y-117530619D02*
X179125523Y-117530619D01*
X179220761Y-117483000D01*
X179268380Y-117387761D01*
X179268380Y-117244904D01*
X179220761Y-117149666D01*
X179173142Y-117102047D01*
X178601714Y-116768714D02*
X178601714Y-116387761D01*
X178268380Y-116625857D02*
X179125523Y-116625857D01*
X179220761Y-116578238D01*
X179268380Y-116483000D01*
X179268380Y-116387761D01*
X175395000Y-139366571D02*
X175347380Y-139461809D01*
X175347380Y-139604666D01*
X175395000Y-139747523D01*
X175490238Y-139842761D01*
X175585476Y-139890380D01*
X175775952Y-139938000D01*
X175918809Y-139938000D01*
X176109285Y-139890380D01*
X176204523Y-139842761D01*
X176299761Y-139747523D01*
X176347380Y-139604666D01*
X176347380Y-139509428D01*
X176299761Y-139366571D01*
X176252142Y-139318952D01*
X175918809Y-139318952D01*
X175918809Y-139509428D01*
X176347380Y-138890380D02*
X175680714Y-138890380D01*
X175347380Y-138890380D02*
X175395000Y-138938000D01*
X175442619Y-138890380D01*
X175395000Y-138842761D01*
X175347380Y-138890380D01*
X175442619Y-138890380D01*
X175680714Y-138414190D02*
X176347380Y-138414190D01*
X175775952Y-138414190D02*
X175728333Y-138366571D01*
X175680714Y-138271333D01*
X175680714Y-138128476D01*
X175728333Y-138033238D01*
X175823571Y-137985619D01*
X176347380Y-137985619D01*
D11*
X192008476Y-114215904D02*
X193020380Y-114215904D01*
X193139428Y-114156380D01*
X193198952Y-114096857D01*
X193258476Y-113977809D01*
X193258476Y-113739714D01*
X193198952Y-113620666D01*
X193139428Y-113561142D01*
X193020380Y-113501619D01*
X192008476Y-113501619D01*
X192008476Y-113084952D02*
X192008476Y-112370666D01*
X193258476Y-112727809D02*
X192008476Y-112727809D01*
X193198952Y-112013523D02*
X193258476Y-111834952D01*
X193258476Y-111537333D01*
X193198952Y-111418285D01*
X193139428Y-111358761D01*
X193020380Y-111299238D01*
X192901333Y-111299238D01*
X192782285Y-111358761D01*
X192722761Y-111418285D01*
X192663238Y-111537333D01*
X192603714Y-111775428D01*
X192544190Y-111894476D01*
X192484666Y-111954000D01*
X192365619Y-112013523D01*
X192246571Y-112013523D01*
X192127523Y-111954000D01*
X192068000Y-111894476D01*
X192008476Y-111775428D01*
X192008476Y-111477809D01*
X192068000Y-111299238D01*
X192008476Y-110942095D02*
X193258476Y-110525428D01*
X192008476Y-110108761D01*
X192008476Y-109870666D02*
X192008476Y-109156380D01*
X193258476Y-109513523D02*
X192008476Y-109513523D01*
X192782285Y-107787333D02*
X192782285Y-106834952D01*
X192603714Y-104870666D02*
X192663238Y-104692095D01*
X192722761Y-104632571D01*
X192841809Y-104573047D01*
X193020380Y-104573047D01*
X193139428Y-104632571D01*
X193198952Y-104692095D01*
X193258476Y-104811142D01*
X193258476Y-105287333D01*
X192008476Y-105287333D01*
X192008476Y-104870666D01*
X192068000Y-104751619D01*
X192127523Y-104692095D01*
X192246571Y-104632571D01*
X192365619Y-104632571D01*
X192484666Y-104692095D01*
X192544190Y-104751619D01*
X192603714Y-104870666D01*
X192603714Y-105287333D01*
X193258476Y-104037333D02*
X192008476Y-104037333D01*
X192008476Y-103561142D01*
X192068000Y-103442095D01*
X192127523Y-103382571D01*
X192246571Y-103323047D01*
X192425142Y-103323047D01*
X192544190Y-103382571D01*
X192603714Y-103442095D01*
X192663238Y-103561142D01*
X192663238Y-104037333D01*
X193198952Y-102846857D02*
X193258476Y-102668285D01*
X193258476Y-102370666D01*
X193198952Y-102251619D01*
X193139428Y-102192095D01*
X193020380Y-102132571D01*
X192901333Y-102132571D01*
X192782285Y-102192095D01*
X192722761Y-102251619D01*
X192663238Y-102370666D01*
X192603714Y-102608761D01*
X192544190Y-102727809D01*
X192484666Y-102787333D01*
X192365619Y-102846857D01*
X192246571Y-102846857D01*
X192127523Y-102787333D01*
X192068000Y-102727809D01*
X192008476Y-102608761D01*
X192008476Y-102311142D01*
X192068000Y-102132571D01*
X195383476Y-113412333D02*
X194133476Y-113412333D01*
X195026333Y-112995666D01*
X194133476Y-112579000D01*
X195383476Y-112579000D01*
X195383476Y-111448047D02*
X194728714Y-111448047D01*
X194609666Y-111507571D01*
X194550142Y-111626619D01*
X194550142Y-111864714D01*
X194609666Y-111983761D01*
X195323952Y-111448047D02*
X195383476Y-111567095D01*
X195383476Y-111864714D01*
X195323952Y-111983761D01*
X195204904Y-112043285D01*
X195085857Y-112043285D01*
X194966809Y-111983761D01*
X194907285Y-111864714D01*
X194907285Y-111567095D01*
X194847761Y-111448047D01*
X195323952Y-110912333D02*
X195383476Y-110793285D01*
X195383476Y-110555190D01*
X195323952Y-110436142D01*
X195204904Y-110376619D01*
X195145380Y-110376619D01*
X195026333Y-110436142D01*
X194966809Y-110555190D01*
X194966809Y-110733761D01*
X194907285Y-110852809D01*
X194788238Y-110912333D01*
X194728714Y-110912333D01*
X194609666Y-110852809D01*
X194550142Y-110733761D01*
X194550142Y-110555190D01*
X194609666Y-110436142D01*
X194550142Y-110019476D02*
X194550142Y-109543285D01*
X194133476Y-109840904D02*
X195204904Y-109840904D01*
X195323952Y-109781380D01*
X195383476Y-109662333D01*
X195383476Y-109543285D01*
X195323952Y-108650428D02*
X195383476Y-108769476D01*
X195383476Y-109007571D01*
X195323952Y-109126619D01*
X195204904Y-109186142D01*
X194728714Y-109186142D01*
X194609666Y-109126619D01*
X194550142Y-109007571D01*
X194550142Y-108769476D01*
X194609666Y-108650428D01*
X194728714Y-108590904D01*
X194847761Y-108590904D01*
X194966809Y-109186142D01*
X195383476Y-108055190D02*
X194550142Y-108055190D01*
X194788238Y-108055190D02*
X194669190Y-107995666D01*
X194609666Y-107936142D01*
X194550142Y-107817095D01*
X194550142Y-107698047D01*
X194550142Y-106448047D02*
X195383476Y-106150428D01*
X194550142Y-105852809D01*
X195383476Y-104721857D02*
X195383476Y-105436142D01*
X195383476Y-105079000D02*
X194133476Y-105079000D01*
X194312047Y-105198047D01*
X194431095Y-105317095D01*
X194490619Y-105436142D01*
X195264428Y-104186142D02*
X195323952Y-104126619D01*
X195383476Y-104186142D01*
X195323952Y-104245666D01*
X195264428Y-104186142D01*
X195383476Y-104186142D01*
X194133476Y-103352809D02*
X194133476Y-103233761D01*
X194193000Y-103114714D01*
X194252523Y-103055190D01*
X194371571Y-102995666D01*
X194609666Y-102936142D01*
X194907285Y-102936142D01*
X195145380Y-102995666D01*
X195264428Y-103055190D01*
X195323952Y-103114714D01*
X195383476Y-103233761D01*
X195383476Y-103352809D01*
X195323952Y-103471857D01*
X195264428Y-103531380D01*
X195145380Y-103590904D01*
X194907285Y-103650428D01*
X194609666Y-103650428D01*
X194371571Y-103590904D01*
X194252523Y-103531380D01*
X194193000Y-103471857D01*
X194133476Y-103352809D01*
X197448952Y-113799238D02*
X197508476Y-113620666D01*
X197508476Y-113323047D01*
X197448952Y-113204000D01*
X197389428Y-113144476D01*
X197270380Y-113084952D01*
X197151333Y-113084952D01*
X197032285Y-113144476D01*
X196972761Y-113204000D01*
X196913238Y-113323047D01*
X196853714Y-113561142D01*
X196794190Y-113680190D01*
X196734666Y-113739714D01*
X196615619Y-113799238D01*
X196496571Y-113799238D01*
X196377523Y-113739714D01*
X196318000Y-113680190D01*
X196258476Y-113561142D01*
X196258476Y-113263523D01*
X196318000Y-113084952D01*
X196675142Y-112549238D02*
X197925142Y-112549238D01*
X196734666Y-112549238D02*
X196675142Y-112430190D01*
X196675142Y-112192095D01*
X196734666Y-112073047D01*
X196794190Y-112013523D01*
X196913238Y-111954000D01*
X197270380Y-111954000D01*
X197389428Y-112013523D01*
X197448952Y-112073047D01*
X197508476Y-112192095D01*
X197508476Y-112430190D01*
X197448952Y-112549238D01*
X197508476Y-111418285D02*
X196675142Y-111418285D01*
X196913238Y-111418285D02*
X196794190Y-111358761D01*
X196734666Y-111299238D01*
X196675142Y-111180190D01*
X196675142Y-111061142D01*
X197508476Y-110644476D02*
X196675142Y-110644476D01*
X196258476Y-110644476D02*
X196318000Y-110704000D01*
X196377523Y-110644476D01*
X196318000Y-110584952D01*
X196258476Y-110644476D01*
X196377523Y-110644476D01*
X196675142Y-110049238D02*
X197508476Y-110049238D01*
X196794190Y-110049238D02*
X196734666Y-109989714D01*
X196675142Y-109870666D01*
X196675142Y-109692095D01*
X196734666Y-109573047D01*
X196853714Y-109513523D01*
X197508476Y-109513523D01*
X196675142Y-108382571D02*
X197687047Y-108382571D01*
X197806095Y-108442095D01*
X197865619Y-108501619D01*
X197925142Y-108620666D01*
X197925142Y-108799238D01*
X197865619Y-108918285D01*
X197448952Y-108382571D02*
X197508476Y-108501619D01*
X197508476Y-108739714D01*
X197448952Y-108858761D01*
X197389428Y-108918285D01*
X197270380Y-108977809D01*
X196913238Y-108977809D01*
X196794190Y-108918285D01*
X196734666Y-108858761D01*
X196675142Y-108739714D01*
X196675142Y-108501619D01*
X196734666Y-108382571D01*
X196377523Y-106894476D02*
X196318000Y-106834952D01*
X196258476Y-106715904D01*
X196258476Y-106418285D01*
X196318000Y-106299238D01*
X196377523Y-106239714D01*
X196496571Y-106180190D01*
X196615619Y-106180190D01*
X196794190Y-106239714D01*
X197508476Y-106954000D01*
X197508476Y-106180190D01*
X196258476Y-105406380D02*
X196258476Y-105287333D01*
X196318000Y-105168285D01*
X196377523Y-105108761D01*
X196496571Y-105049238D01*
X196734666Y-104989714D01*
X197032285Y-104989714D01*
X197270380Y-105049238D01*
X197389428Y-105108761D01*
X197448952Y-105168285D01*
X197508476Y-105287333D01*
X197508476Y-105406380D01*
X197448952Y-105525428D01*
X197389428Y-105584952D01*
X197270380Y-105644476D01*
X197032285Y-105704000D01*
X196734666Y-105704000D01*
X196496571Y-105644476D01*
X196377523Y-105584952D01*
X196318000Y-105525428D01*
X196258476Y-105406380D01*
X197508476Y-103799238D02*
X197508476Y-104513523D01*
X197508476Y-104156380D02*
X196258476Y-104156380D01*
X196437047Y-104275428D01*
X196556095Y-104394476D01*
X196615619Y-104513523D01*
X197508476Y-103204000D02*
X197508476Y-102965904D01*
X197448952Y-102846857D01*
X197389428Y-102787333D01*
X197210857Y-102668285D01*
X196972761Y-102608761D01*
X196496571Y-102608761D01*
X196377523Y-102668285D01*
X196318000Y-102727809D01*
X196258476Y-102846857D01*
X196258476Y-103084952D01*
X196318000Y-103204000D01*
X196377523Y-103263523D01*
X196496571Y-103323047D01*
X196794190Y-103323047D01*
X196913238Y-103263523D01*
X196972761Y-103204000D01*
X197032285Y-103084952D01*
X197032285Y-102846857D01*
X196972761Y-102727809D01*
X196913238Y-102668285D01*
X196794190Y-102608761D01*
D10*
X192373380Y-143994142D02*
X192325761Y-144041761D01*
X192182904Y-144089380D01*
X192087666Y-144089380D01*
X191944809Y-144041761D01*
X191849571Y-143946523D01*
X191801952Y-143851285D01*
X191754333Y-143660809D01*
X191754333Y-143517952D01*
X191801952Y-143327476D01*
X191849571Y-143232238D01*
X191944809Y-143137000D01*
X192087666Y-143089380D01*
X192182904Y-143089380D01*
X192325761Y-143137000D01*
X192373380Y-143184619D01*
X192754333Y-143803666D02*
X193230523Y-143803666D01*
X192659095Y-144089380D02*
X192992428Y-143089380D01*
X193325761Y-144089380D01*
X193659095Y-144089380D02*
X193659095Y-143089380D01*
X194230523Y-144089380D01*
X194230523Y-143089380D01*
X195182904Y-144089380D02*
X194706714Y-144089380D01*
X194706714Y-143089380D01*
X181332333Y-143994142D02*
X181284714Y-144041761D01*
X181141857Y-144089380D01*
X181046619Y-144089380D01*
X180903761Y-144041761D01*
X180808523Y-143946523D01*
X180760904Y-143851285D01*
X180713285Y-143660809D01*
X180713285Y-143517952D01*
X180760904Y-143327476D01*
X180808523Y-143232238D01*
X180903761Y-143137000D01*
X181046619Y-143089380D01*
X181141857Y-143089380D01*
X181284714Y-143137000D01*
X181332333Y-143184619D01*
X181713285Y-143803666D02*
X182189476Y-143803666D01*
X181618047Y-144089380D02*
X181951380Y-143089380D01*
X182284714Y-144089380D01*
X182618047Y-144089380D02*
X182618047Y-143089380D01*
X183189476Y-144089380D01*
X183189476Y-143089380D01*
X183665666Y-144089380D02*
X183665666Y-143089380D01*
X183665666Y-143565571D02*
X184237095Y-143565571D01*
X184237095Y-144089380D02*
X184237095Y-143089380D01*
X106759666Y-83701000D02*
X106664428Y-83653380D01*
X106521571Y-83653380D01*
X106378714Y-83701000D01*
X106283476Y-83796238D01*
X106235857Y-83891476D01*
X106188238Y-84081952D01*
X106188238Y-84224809D01*
X106235857Y-84415285D01*
X106283476Y-84510523D01*
X106378714Y-84605761D01*
X106521571Y-84653380D01*
X106616809Y-84653380D01*
X106759666Y-84605761D01*
X106807285Y-84558142D01*
X106807285Y-84224809D01*
X106616809Y-84224809D01*
X107235857Y-84653380D02*
X107235857Y-83653380D01*
X107807285Y-84653380D01*
X107807285Y-83653380D01*
X108283476Y-84653380D02*
X108283476Y-83653380D01*
X108521571Y-83653380D01*
X108664428Y-83701000D01*
X108759666Y-83796238D01*
X108807285Y-83891476D01*
X108854904Y-84081952D01*
X108854904Y-84224809D01*
X108807285Y-84415285D01*
X108759666Y-84510523D01*
X108664428Y-84605761D01*
X108521571Y-84653380D01*
X108283476Y-84653380D01*
X109283476Y-84653380D02*
X109283476Y-83653380D01*
X109664428Y-83653380D01*
X109759666Y-83701000D01*
X109807285Y-83748619D01*
X109854904Y-83843857D01*
X109854904Y-83986714D01*
X109807285Y-84081952D01*
X109759666Y-84129571D01*
X109664428Y-84177190D01*
X109283476Y-84177190D01*
X110188238Y-83653380D02*
X110426333Y-84653380D01*
X110616809Y-83939095D01*
X110807285Y-84653380D01*
X111045380Y-83653380D01*
X111997761Y-84653380D02*
X111664428Y-84177190D01*
X111426333Y-84653380D02*
X111426333Y-83653380D01*
X111807285Y-83653380D01*
X111902523Y-83701000D01*
X111950142Y-83748619D01*
X111997761Y-83843857D01*
X111997761Y-83986714D01*
X111950142Y-84081952D01*
X111902523Y-84129571D01*
X111807285Y-84177190D01*
X111426333Y-84177190D01*
X107458095Y-99131428D02*
X108220000Y-99131428D01*
X107839047Y-99512380D02*
X107839047Y-98750476D01*
X109220000Y-99512380D02*
X108648571Y-99512380D01*
X108934285Y-99512380D02*
X108934285Y-98512380D01*
X108839047Y-98655238D01*
X108743809Y-98750476D01*
X108648571Y-98798095D01*
X109600952Y-98607619D02*
X109648571Y-98560000D01*
X109743809Y-98512380D01*
X109981904Y-98512380D01*
X110077142Y-98560000D01*
X110124761Y-98607619D01*
X110172380Y-98702857D01*
X110172380Y-98798095D01*
X110124761Y-98940952D01*
X109553333Y-99512380D01*
X110172380Y-99512380D01*
X110458095Y-98512380D02*
X110791428Y-99512380D01*
X111124761Y-98512380D01*
X142256380Y-135898380D02*
X142256380Y-134898380D01*
X142494476Y-134898380D01*
X142637333Y-134946000D01*
X142732571Y-135041238D01*
X142780190Y-135136476D01*
X142827809Y-135326952D01*
X142827809Y-135469809D01*
X142780190Y-135660285D01*
X142732571Y-135755523D01*
X142637333Y-135850761D01*
X142494476Y-135898380D01*
X142256380Y-135898380D01*
X143256380Y-135898380D02*
X143256380Y-135231714D01*
X143256380Y-134898380D02*
X143208761Y-134946000D01*
X143256380Y-134993619D01*
X143304000Y-134946000D01*
X143256380Y-134898380D01*
X143256380Y-134993619D01*
X143684952Y-135850761D02*
X143780190Y-135898380D01*
X143970666Y-135898380D01*
X144065904Y-135850761D01*
X144113523Y-135755523D01*
X144113523Y-135707904D01*
X144065904Y-135612666D01*
X143970666Y-135565047D01*
X143827809Y-135565047D01*
X143732571Y-135517428D01*
X143684952Y-135422190D01*
X143684952Y-135374571D01*
X143732571Y-135279333D01*
X143827809Y-135231714D01*
X143970666Y-135231714D01*
X144065904Y-135279333D01*
X144542095Y-135231714D02*
X144542095Y-136231714D01*
X144542095Y-135279333D02*
X144637333Y-135231714D01*
X144827809Y-135231714D01*
X144923047Y-135279333D01*
X144970666Y-135326952D01*
X145018285Y-135422190D01*
X145018285Y-135707904D01*
X144970666Y-135803142D01*
X144923047Y-135850761D01*
X144827809Y-135898380D01*
X144637333Y-135898380D01*
X144542095Y-135850761D01*
X145589714Y-135898380D02*
X145494476Y-135850761D01*
X145446857Y-135755523D01*
X145446857Y-134898380D01*
X146399238Y-135898380D02*
X146399238Y-135374571D01*
X146351619Y-135279333D01*
X146256380Y-135231714D01*
X146065904Y-135231714D01*
X145970666Y-135279333D01*
X146399238Y-135850761D02*
X146304000Y-135898380D01*
X146065904Y-135898380D01*
X145970666Y-135850761D01*
X145923047Y-135755523D01*
X145923047Y-135660285D01*
X145970666Y-135565047D01*
X146065904Y-135517428D01*
X146304000Y-135517428D01*
X146399238Y-135469809D01*
X146780190Y-135231714D02*
X147018285Y-135898380D01*
X147256380Y-135231714D02*
X147018285Y-135898380D01*
X146923047Y-136136476D01*
X146875428Y-136184095D01*
X146780190Y-136231714D01*
X148351619Y-135850761D02*
X148494476Y-135898380D01*
X148732571Y-135898380D01*
X148827809Y-135850761D01*
X148875428Y-135803142D01*
X148923047Y-135707904D01*
X148923047Y-135612666D01*
X148875428Y-135517428D01*
X148827809Y-135469809D01*
X148732571Y-135422190D01*
X148542095Y-135374571D01*
X148446857Y-135326952D01*
X148399238Y-135279333D01*
X148351619Y-135184095D01*
X148351619Y-135088857D01*
X148399238Y-134993619D01*
X148446857Y-134946000D01*
X148542095Y-134898380D01*
X148780190Y-134898380D01*
X148923047Y-134946000D01*
X149351619Y-135898380D02*
X149351619Y-134898380D01*
X149732571Y-134898380D01*
X149827809Y-134946000D01*
X149875428Y-134993619D01*
X149923047Y-135088857D01*
X149923047Y-135231714D01*
X149875428Y-135326952D01*
X149827809Y-135374571D01*
X149732571Y-135422190D01*
X149351619Y-135422190D01*
X150351619Y-135898380D02*
X150351619Y-134898380D01*
X143542095Y-137500761D02*
X143637333Y-137548380D01*
X143827809Y-137548380D01*
X143923047Y-137500761D01*
X143970666Y-137405523D01*
X143970666Y-137357904D01*
X143923047Y-137262666D01*
X143827809Y-137215047D01*
X143684952Y-137215047D01*
X143589714Y-137167428D01*
X143542095Y-137072190D01*
X143542095Y-137024571D01*
X143589714Y-136929333D01*
X143684952Y-136881714D01*
X143827809Y-136881714D01*
X143923047Y-136929333D01*
X144780190Y-137500761D02*
X144684952Y-137548380D01*
X144494476Y-137548380D01*
X144399238Y-137500761D01*
X144351619Y-137405523D01*
X144351619Y-137024571D01*
X144399238Y-136929333D01*
X144494476Y-136881714D01*
X144684952Y-136881714D01*
X144780190Y-136929333D01*
X144827809Y-137024571D01*
X144827809Y-137119809D01*
X144351619Y-137215047D01*
X145113523Y-136881714D02*
X145494476Y-136881714D01*
X145256380Y-136548380D02*
X145256380Y-137405523D01*
X145304000Y-137500761D01*
X145399238Y-137548380D01*
X145494476Y-137548380D01*
X145684952Y-136881714D02*
X146065904Y-136881714D01*
X145827809Y-136548380D02*
X145827809Y-137405523D01*
X145875428Y-137500761D01*
X145970666Y-137548380D01*
X146065904Y-137548380D01*
X146399238Y-137548380D02*
X146399238Y-136881714D01*
X146399238Y-136548380D02*
X146351619Y-136596000D01*
X146399238Y-136643619D01*
X146446857Y-136596000D01*
X146399238Y-136548380D01*
X146399238Y-136643619D01*
X146875428Y-136881714D02*
X146875428Y-137548380D01*
X146875428Y-136976952D02*
X146923047Y-136929333D01*
X147018285Y-136881714D01*
X147161142Y-136881714D01*
X147256380Y-136929333D01*
X147304000Y-137024571D01*
X147304000Y-137548380D01*
X148208761Y-136881714D02*
X148208761Y-137691238D01*
X148161142Y-137786476D01*
X148113523Y-137834095D01*
X148018285Y-137881714D01*
X147875428Y-137881714D01*
X147780190Y-137834095D01*
X148208761Y-137500761D02*
X148113523Y-137548380D01*
X147923047Y-137548380D01*
X147827809Y-137500761D01*
X147780190Y-137453142D01*
X147732571Y-137357904D01*
X147732571Y-137072190D01*
X147780190Y-136976952D01*
X147827809Y-136929333D01*
X147923047Y-136881714D01*
X148113523Y-136881714D01*
X148208761Y-136929333D01*
X148637333Y-137500761D02*
X148732571Y-137548380D01*
X148923047Y-137548380D01*
X149018285Y-137500761D01*
X149065904Y-137405523D01*
X149065904Y-137357904D01*
X149018285Y-137262666D01*
X148923047Y-137215047D01*
X148780190Y-137215047D01*
X148684952Y-137167428D01*
X148637333Y-137072190D01*
X148637333Y-137024571D01*
X148684952Y-136929333D01*
X148780190Y-136881714D01*
X148923047Y-136881714D01*
X149018285Y-136929333D01*
X150312380Y-131770285D02*
X149312380Y-131770285D01*
X149312380Y-131389333D01*
X149360000Y-131294095D01*
X149407619Y-131246476D01*
X149502857Y-131198857D01*
X149645714Y-131198857D01*
X149740952Y-131246476D01*
X149788571Y-131294095D01*
X149836190Y-131389333D01*
X149836190Y-131770285D01*
X150312380Y-130770285D02*
X149312380Y-130770285D01*
X149788571Y-130770285D02*
X149788571Y-130198857D01*
X150312380Y-130198857D02*
X149312380Y-130198857D01*
X150026666Y-129770285D02*
X150026666Y-129294095D01*
X150312380Y-129865523D02*
X149312380Y-129532190D01*
X150312380Y-129198857D01*
X143200380Y-131746476D02*
X142200380Y-131746476D01*
X142200380Y-131365523D01*
X142248000Y-131270285D01*
X142295619Y-131222666D01*
X142390857Y-131175047D01*
X142533714Y-131175047D01*
X142628952Y-131222666D01*
X142676571Y-131270285D01*
X142724190Y-131365523D01*
X142724190Y-131746476D01*
X142200380Y-130556000D02*
X142200380Y-130365523D01*
X142248000Y-130270285D01*
X142343238Y-130175047D01*
X142533714Y-130127428D01*
X142867047Y-130127428D01*
X143057523Y-130175047D01*
X143152761Y-130270285D01*
X143200380Y-130365523D01*
X143200380Y-130556000D01*
X143152761Y-130651238D01*
X143057523Y-130746476D01*
X142867047Y-130794095D01*
X142533714Y-130794095D01*
X142343238Y-130746476D01*
X142248000Y-130651238D01*
X142200380Y-130556000D01*
X143200380Y-129222666D02*
X143200380Y-129698857D01*
X142200380Y-129698857D01*
X149685380Y-132675380D02*
X149780619Y-132675380D01*
X149875857Y-132723000D01*
X149923476Y-132770619D01*
X149971095Y-132865857D01*
X150018714Y-133056333D01*
X150018714Y-133294428D01*
X149971095Y-133484904D01*
X149923476Y-133580142D01*
X149875857Y-133627761D01*
X149780619Y-133675380D01*
X149685380Y-133675380D01*
X149590142Y-133627761D01*
X149542523Y-133580142D01*
X149494904Y-133484904D01*
X149447285Y-133294428D01*
X149447285Y-133056333D01*
X149494904Y-132865857D01*
X149542523Y-132770619D01*
X149590142Y-132723000D01*
X149685380Y-132675380D01*
X142700380Y-132675380D02*
X142795619Y-132675380D01*
X142890857Y-132723000D01*
X142938476Y-132770619D01*
X142986095Y-132865857D01*
X143033714Y-133056333D01*
X143033714Y-133294428D01*
X142986095Y-133484904D01*
X142938476Y-133580142D01*
X142890857Y-133627761D01*
X142795619Y-133675380D01*
X142700380Y-133675380D01*
X142605142Y-133627761D01*
X142557523Y-133580142D01*
X142509904Y-133484904D01*
X142462285Y-133294428D01*
X142462285Y-133056333D01*
X142509904Y-132865857D01*
X142557523Y-132770619D01*
X142605142Y-132723000D01*
X142700380Y-132675380D01*
X150018714Y-128468380D02*
X149447285Y-128468380D01*
X149733000Y-128468380D02*
X149733000Y-127468380D01*
X149637761Y-127611238D01*
X149542523Y-127706476D01*
X149447285Y-127754095D01*
X143033714Y-128468380D02*
X142462285Y-128468380D01*
X142748000Y-128468380D02*
X142748000Y-127468380D01*
X142652761Y-127611238D01*
X142557523Y-127706476D01*
X142462285Y-127754095D01*
X130655961Y-112537405D02*
X130703580Y-112394548D01*
X130703580Y-112156453D01*
X130655961Y-112061215D01*
X130608342Y-112013596D01*
X130513104Y-111965977D01*
X130417866Y-111965977D01*
X130322628Y-112013596D01*
X130275009Y-112061215D01*
X130227390Y-112156453D01*
X130179771Y-112346929D01*
X130132152Y-112442167D01*
X130084533Y-112489786D01*
X129989295Y-112537405D01*
X129894057Y-112537405D01*
X129798819Y-112489786D01*
X129751200Y-112442167D01*
X129703580Y-112346929D01*
X129703580Y-112108834D01*
X129751200Y-111965977D01*
X130703580Y-111537405D02*
X129703580Y-111537405D01*
X129703580Y-111299310D01*
X129751200Y-111156453D01*
X129846438Y-111061215D01*
X129941676Y-111013596D01*
X130132152Y-110965977D01*
X130275009Y-110965977D01*
X130465485Y-111013596D01*
X130560723Y-111061215D01*
X130655961Y-111156453D01*
X130703580Y-111299310D01*
X130703580Y-111537405D01*
X130417866Y-110585024D02*
X130417866Y-110108834D01*
X130703580Y-110680262D02*
X129703580Y-110346929D01*
X130703580Y-110013596D01*
X128024521Y-112533916D02*
X128072140Y-112391059D01*
X128072140Y-112152963D01*
X128024521Y-112057725D01*
X127976902Y-112010106D01*
X127881664Y-111962487D01*
X127786426Y-111962487D01*
X127691188Y-112010106D01*
X127643569Y-112057725D01*
X127595950Y-112152963D01*
X127548331Y-112343440D01*
X127500712Y-112438678D01*
X127453093Y-112486297D01*
X127357855Y-112533916D01*
X127262617Y-112533916D01*
X127167379Y-112486297D01*
X127119760Y-112438678D01*
X127072140Y-112343440D01*
X127072140Y-112105344D01*
X127119760Y-111962487D01*
X127976902Y-110962487D02*
X128024521Y-111010106D01*
X128072140Y-111152963D01*
X128072140Y-111248201D01*
X128024521Y-111391059D01*
X127929283Y-111486297D01*
X127834045Y-111533916D01*
X127643569Y-111581535D01*
X127500712Y-111581535D01*
X127310236Y-111533916D01*
X127214998Y-111486297D01*
X127119760Y-111391059D01*
X127072140Y-111248201D01*
X127072140Y-111152963D01*
X127119760Y-111010106D01*
X127167379Y-110962487D01*
X128072140Y-110057725D02*
X128072140Y-110533916D01*
X127072140Y-110533916D01*
X181306220Y-106783664D02*
X182115744Y-106783664D01*
X182210982Y-106736045D01*
X182258601Y-106688426D01*
X182306220Y-106593188D01*
X182306220Y-106402712D01*
X182258601Y-106307474D01*
X182210982Y-106259855D01*
X182115744Y-106212236D01*
X181306220Y-106212236D01*
X182306220Y-105164617D02*
X181830030Y-105497950D01*
X182306220Y-105736045D02*
X181306220Y-105736045D01*
X181306220Y-105355093D01*
X181353840Y-105259855D01*
X181401459Y-105212236D01*
X181496697Y-105164617D01*
X181639554Y-105164617D01*
X181734792Y-105212236D01*
X181782411Y-105259855D01*
X181830030Y-105355093D01*
X181830030Y-105736045D01*
X181306220Y-104831283D02*
X182306220Y-104164617D01*
X181306220Y-104164617D02*
X182306220Y-104831283D01*
X186428760Y-106212544D02*
X186381140Y-106307782D01*
X186381140Y-106450640D01*
X186428760Y-106593497D01*
X186523998Y-106688735D01*
X186619236Y-106736354D01*
X186809712Y-106783973D01*
X186952569Y-106783973D01*
X187143045Y-106736354D01*
X187238283Y-106688735D01*
X187333521Y-106593497D01*
X187381140Y-106450640D01*
X187381140Y-106355401D01*
X187333521Y-106212544D01*
X187285902Y-106164925D01*
X186952569Y-106164925D01*
X186952569Y-106355401D01*
X187381140Y-105736354D02*
X186381140Y-105736354D01*
X187381140Y-105164925D01*
X186381140Y-105164925D01*
X187381140Y-104688735D02*
X186381140Y-104688735D01*
X186381140Y-104450640D01*
X186428760Y-104307782D01*
X186523998Y-104212544D01*
X186619236Y-104164925D01*
X186809712Y-104117306D01*
X186952569Y-104117306D01*
X187143045Y-104164925D01*
X187238283Y-104212544D01*
X187333521Y-104307782D01*
X187381140Y-104450640D01*
X187381140Y-104688735D01*
X183866540Y-106781457D02*
X184676064Y-106781457D01*
X184771302Y-106733838D01*
X184818921Y-106686219D01*
X184866540Y-106590980D01*
X184866540Y-106400504D01*
X184818921Y-106305266D01*
X184771302Y-106257647D01*
X184676064Y-106210028D01*
X183866540Y-106210028D01*
X183866540Y-105876695D02*
X183866540Y-105305266D01*
X184866540Y-105590980D02*
X183866540Y-105590980D01*
X183866540Y-105067171D02*
X184866540Y-104400504D01*
X183866540Y-104400504D02*
X184866540Y-105067171D01*
X177271940Y-115815548D02*
X176271940Y-115815548D01*
X176986226Y-115482215D01*
X176271940Y-115148881D01*
X177271940Y-115148881D01*
X176271940Y-114482215D02*
X176271940Y-114291739D01*
X176319560Y-114196500D01*
X176414798Y-114101262D01*
X176605274Y-114053643D01*
X176938607Y-114053643D01*
X177129083Y-114101262D01*
X177224321Y-114196500D01*
X177271940Y-114291739D01*
X177271940Y-114482215D01*
X177224321Y-114577453D01*
X177129083Y-114672691D01*
X176938607Y-114720310D01*
X176605274Y-114720310D01*
X176414798Y-114672691D01*
X176319560Y-114577453D01*
X176271940Y-114482215D01*
X177224321Y-113672691D02*
X177271940Y-113529834D01*
X177271940Y-113291739D01*
X177224321Y-113196500D01*
X177176702Y-113148881D01*
X177081464Y-113101262D01*
X176986226Y-113101262D01*
X176890988Y-113148881D01*
X176843369Y-113196500D01*
X176795750Y-113291739D01*
X176748131Y-113482215D01*
X176700512Y-113577453D01*
X176652893Y-113625072D01*
X176557655Y-113672691D01*
X176462417Y-113672691D01*
X176367179Y-113625072D01*
X176319560Y-113577453D01*
X176271940Y-113482215D01*
X176271940Y-113244120D01*
X176319560Y-113101262D01*
X177271940Y-112672691D02*
X176271940Y-112672691D01*
X179745900Y-115815548D02*
X178745900Y-115815548D01*
X179460186Y-115482215D01*
X178745900Y-115148881D01*
X179745900Y-115148881D01*
X179745900Y-114672691D02*
X178745900Y-114672691D01*
X179698281Y-114244120D02*
X179745900Y-114101262D01*
X179745900Y-113863167D01*
X179698281Y-113767929D01*
X179650662Y-113720310D01*
X179555424Y-113672691D01*
X179460186Y-113672691D01*
X179364948Y-113720310D01*
X179317329Y-113767929D01*
X179269710Y-113863167D01*
X179222091Y-114053643D01*
X179174472Y-114148881D01*
X179126853Y-114196500D01*
X179031615Y-114244120D01*
X178936377Y-114244120D01*
X178841139Y-114196500D01*
X178793520Y-114148881D01*
X178745900Y-114053643D01*
X178745900Y-113815548D01*
X178793520Y-113672691D01*
X178745900Y-113053643D02*
X178745900Y-112863167D01*
X178793520Y-112767929D01*
X178888758Y-112672691D01*
X179079234Y-112625072D01*
X179412567Y-112625072D01*
X179603043Y-112672691D01*
X179698281Y-112767929D01*
X179745900Y-112863167D01*
X179745900Y-113053643D01*
X179698281Y-113148881D01*
X179603043Y-113244120D01*
X179412567Y-113291739D01*
X179079234Y-113291739D01*
X178888758Y-113244120D01*
X178793520Y-113148881D01*
X178745900Y-113053643D01*
X182210982Y-114463438D02*
X182258601Y-114511057D01*
X182306220Y-114653914D01*
X182306220Y-114749152D01*
X182258601Y-114892009D01*
X182163363Y-114987247D01*
X182068125Y-115034866D01*
X181877649Y-115082485D01*
X181734792Y-115082485D01*
X181544316Y-115034866D01*
X181449078Y-114987247D01*
X181353840Y-114892009D01*
X181306220Y-114749152D01*
X181306220Y-114653914D01*
X181353840Y-114511057D01*
X181401459Y-114463438D01*
X182306220Y-113558676D02*
X182306220Y-114034866D01*
X181306220Y-114034866D01*
X182306220Y-113225342D02*
X181306220Y-113225342D01*
X182306220Y-112653914D02*
X181734792Y-113082485D01*
X181306220Y-112653914D02*
X181877649Y-113225342D01*
X184776382Y-114555186D02*
X184824001Y-114602805D01*
X184871620Y-114745662D01*
X184871620Y-114840900D01*
X184824001Y-114983758D01*
X184728763Y-115078996D01*
X184633525Y-115126615D01*
X184443049Y-115174234D01*
X184300192Y-115174234D01*
X184109716Y-115126615D01*
X184014478Y-115078996D01*
X183919240Y-114983758D01*
X183871620Y-114840900D01*
X183871620Y-114745662D01*
X183919240Y-114602805D01*
X183966859Y-114555186D01*
X184871620Y-113555186D02*
X184395430Y-113888520D01*
X184871620Y-114126615D02*
X183871620Y-114126615D01*
X183871620Y-113745662D01*
X183919240Y-113650424D01*
X183966859Y-113602805D01*
X184062097Y-113555186D01*
X184204954Y-113555186D01*
X184300192Y-113602805D01*
X184347811Y-113650424D01*
X184395430Y-113745662D01*
X184395430Y-114126615D01*
X183871620Y-113221853D02*
X184871620Y-112555186D01*
X183871620Y-112555186D02*
X184871620Y-113221853D01*
X187265582Y-114314219D02*
X187313201Y-114361838D01*
X187360820Y-114504695D01*
X187360820Y-114599933D01*
X187313201Y-114742790D01*
X187217963Y-114838028D01*
X187122725Y-114885647D01*
X186932249Y-114933266D01*
X186789392Y-114933266D01*
X186598916Y-114885647D01*
X186503678Y-114838028D01*
X186408440Y-114742790D01*
X186360820Y-114599933D01*
X186360820Y-114504695D01*
X186408440Y-114361838D01*
X186456059Y-114314219D01*
X186360820Y-114028504D02*
X186360820Y-113457076D01*
X187360820Y-113742790D02*
X186360820Y-113742790D01*
X186360820Y-113218980D02*
X187360820Y-112552314D01*
X186360820Y-112552314D02*
X187360820Y-113218980D01*
D12*
X163500000Y-93500000D02*
X162900000Y-94100000D01*
X162900000Y-93500000D02*
X163500000Y-94100000D01*
X162900000Y-93800000D02*
X163500000Y-93800000D01*
X163200000Y-93500000D02*
X163200000Y-94100000D01*
X195828571Y-119878571D02*
X195771428Y-119935714D01*
X195600000Y-119992857D01*
X195485714Y-119992857D01*
X195314285Y-119935714D01*
X195200000Y-119821428D01*
X195142857Y-119707142D01*
X195085714Y-119478571D01*
X195085714Y-119307142D01*
X195142857Y-119078571D01*
X195200000Y-118964285D01*
X195314285Y-118850000D01*
X195485714Y-118792857D01*
X195600000Y-118792857D01*
X195771428Y-118850000D01*
X195828571Y-118907142D01*
X196285714Y-119650000D02*
X196857142Y-119650000D01*
X196171428Y-119992857D02*
X196571428Y-118792857D01*
X196971428Y-119992857D01*
X197371428Y-119992857D02*
X197371428Y-118792857D01*
X198057142Y-119992857D01*
X198057142Y-118792857D01*
X170500000Y-141442857D02*
X170900000Y-142642857D01*
X171300000Y-141442857D01*
X171871428Y-142642857D02*
X171757142Y-142585714D01*
X171700000Y-142528571D01*
X171642857Y-142414285D01*
X171642857Y-142071428D01*
X171700000Y-141957142D01*
X171757142Y-141900000D01*
X171871428Y-141842857D01*
X172042857Y-141842857D01*
X172157142Y-141900000D01*
X172214285Y-141957142D01*
X172271428Y-142071428D01*
X172271428Y-142414285D01*
X172214285Y-142528571D01*
X172157142Y-142585714D01*
X172042857Y-142642857D01*
X171871428Y-142642857D01*
X172957142Y-142642857D02*
X172842857Y-142585714D01*
X172785714Y-142471428D01*
X172785714Y-141442857D01*
X173242857Y-141842857D02*
X173700000Y-141842857D01*
X173414285Y-141442857D02*
X173414285Y-142471428D01*
X173471428Y-142585714D01*
X173585714Y-142642857D01*
X173700000Y-142642857D01*
X174614285Y-142642857D02*
X174614285Y-142014285D01*
X174557142Y-141900000D01*
X174442857Y-141842857D01*
X174214285Y-141842857D01*
X174100000Y-141900000D01*
X174614285Y-142585714D02*
X174500000Y-142642857D01*
X174214285Y-142642857D01*
X174100000Y-142585714D01*
X174042857Y-142471428D01*
X174042857Y-142357142D01*
X174100000Y-142242857D01*
X174214285Y-142185714D01*
X174500000Y-142185714D01*
X174614285Y-142128571D01*
X175700000Y-141842857D02*
X175700000Y-142814285D01*
X175642857Y-142928571D01*
X175585714Y-142985714D01*
X175471428Y-143042857D01*
X175300000Y-143042857D01*
X175185714Y-142985714D01*
X175700000Y-142585714D02*
X175585714Y-142642857D01*
X175357142Y-142642857D01*
X175242857Y-142585714D01*
X175185714Y-142528571D01*
X175128571Y-142414285D01*
X175128571Y-142071428D01*
X175185714Y-141957142D01*
X175242857Y-141900000D01*
X175357142Y-141842857D01*
X175585714Y-141842857D01*
X175700000Y-141900000D01*
X176728571Y-142585714D02*
X176614285Y-142642857D01*
X176385714Y-142642857D01*
X176271428Y-142585714D01*
X176214285Y-142471428D01*
X176214285Y-142014285D01*
X176271428Y-141900000D01*
X176385714Y-141842857D01*
X176614285Y-141842857D01*
X176728571Y-141900000D01*
X176785714Y-142014285D01*
X176785714Y-142128571D01*
X176214285Y-142242857D01*
X144907142Y-143292857D02*
X144907142Y-142092857D01*
X145192857Y-142092857D01*
X145364285Y-142150000D01*
X145478571Y-142264285D01*
X145535714Y-142378571D01*
X145592857Y-142607142D01*
X145592857Y-142778571D01*
X145535714Y-143007142D01*
X145478571Y-143121428D01*
X145364285Y-143235714D01*
X145192857Y-143292857D01*
X144907142Y-143292857D01*
X146107142Y-143292857D02*
X146107142Y-142492857D01*
X146107142Y-142092857D02*
X146050000Y-142150000D01*
X146107142Y-142207142D01*
X146164285Y-142150000D01*
X146107142Y-142092857D01*
X146107142Y-142207142D01*
X146621428Y-143235714D02*
X146735714Y-143292857D01*
X146964285Y-143292857D01*
X147078571Y-143235714D01*
X147135714Y-143121428D01*
X147135714Y-143064285D01*
X147078571Y-142950000D01*
X146964285Y-142892857D01*
X146792857Y-142892857D01*
X146678571Y-142835714D01*
X146621428Y-142721428D01*
X146621428Y-142664285D01*
X146678571Y-142550000D01*
X146792857Y-142492857D01*
X146964285Y-142492857D01*
X147078571Y-142550000D01*
X147650000Y-142492857D02*
X147650000Y-143692857D01*
X147650000Y-142550000D02*
X147764285Y-142492857D01*
X147992857Y-142492857D01*
X148107142Y-142550000D01*
X148164285Y-142607142D01*
X148221428Y-142721428D01*
X148221428Y-143064285D01*
X148164285Y-143178571D01*
X148107142Y-143235714D01*
X147992857Y-143292857D01*
X147764285Y-143292857D01*
X147650000Y-143235714D01*
X148907142Y-143292857D02*
X148792857Y-143235714D01*
X148735714Y-143121428D01*
X148735714Y-142092857D01*
X149878571Y-143292857D02*
X149878571Y-142664285D01*
X149821428Y-142550000D01*
X149707142Y-142492857D01*
X149478571Y-142492857D01*
X149364285Y-142550000D01*
X149878571Y-143235714D02*
X149764285Y-143292857D01*
X149478571Y-143292857D01*
X149364285Y-143235714D01*
X149307142Y-143121428D01*
X149307142Y-143007142D01*
X149364285Y-142892857D01*
X149478571Y-142835714D01*
X149764285Y-142835714D01*
X149878571Y-142778571D01*
X150335714Y-142492857D02*
X150621428Y-143292857D01*
X150907142Y-142492857D02*
X150621428Y-143292857D01*
X150507142Y-143578571D01*
X150450000Y-143635714D01*
X150335714Y-143692857D01*
X129800000Y-139142857D02*
X130485714Y-139142857D01*
X130142857Y-140342857D02*
X130142857Y-139142857D01*
X131342857Y-140285714D02*
X131228571Y-140342857D01*
X131000000Y-140342857D01*
X130885714Y-140285714D01*
X130828571Y-140171428D01*
X130828571Y-139714285D01*
X130885714Y-139600000D01*
X131000000Y-139542857D01*
X131228571Y-139542857D01*
X131342857Y-139600000D01*
X131400000Y-139714285D01*
X131400000Y-139828571D01*
X130828571Y-139942857D01*
X131914285Y-140342857D02*
X131914285Y-139542857D01*
X131914285Y-139657142D02*
X131971428Y-139600000D01*
X132085714Y-139542857D01*
X132257142Y-139542857D01*
X132371428Y-139600000D01*
X132428571Y-139714285D01*
X132428571Y-140342857D01*
X132428571Y-139714285D02*
X132485714Y-139600000D01*
X132600000Y-139542857D01*
X132771428Y-139542857D01*
X132885714Y-139600000D01*
X132942857Y-139714285D01*
X132942857Y-140342857D01*
X133514285Y-139542857D02*
X133514285Y-140742857D01*
X133514285Y-139600000D02*
X133628571Y-139542857D01*
X133857142Y-139542857D01*
X133971428Y-139600000D01*
X134028571Y-139657142D01*
X134085714Y-139771428D01*
X134085714Y-140114285D01*
X134028571Y-140228571D01*
X133971428Y-140285714D01*
X133857142Y-140342857D01*
X133628571Y-140342857D01*
X133514285Y-140285714D01*
X135057142Y-140285714D02*
X134942857Y-140342857D01*
X134714285Y-140342857D01*
X134600000Y-140285714D01*
X134542857Y-140171428D01*
X134542857Y-139714285D01*
X134600000Y-139600000D01*
X134714285Y-139542857D01*
X134942857Y-139542857D01*
X135057142Y-139600000D01*
X135114285Y-139714285D01*
X135114285Y-139828571D01*
X134542857Y-139942857D01*
X135628571Y-140342857D02*
X135628571Y-139542857D01*
X135628571Y-139771428D02*
X135685714Y-139657142D01*
X135742857Y-139600000D01*
X135857142Y-139542857D01*
X135971428Y-139542857D01*
X136885714Y-140342857D02*
X136885714Y-139714285D01*
X136828571Y-139600000D01*
X136714285Y-139542857D01*
X136485714Y-139542857D01*
X136371428Y-139600000D01*
X136885714Y-140285714D02*
X136771428Y-140342857D01*
X136485714Y-140342857D01*
X136371428Y-140285714D01*
X136314285Y-140171428D01*
X136314285Y-140057142D01*
X136371428Y-139942857D01*
X136485714Y-139885714D01*
X136771428Y-139885714D01*
X136885714Y-139828571D01*
X137285714Y-139542857D02*
X137742857Y-139542857D01*
X137457142Y-139142857D02*
X137457142Y-140171428D01*
X137514285Y-140285714D01*
X137628571Y-140342857D01*
X137742857Y-140342857D01*
X138657142Y-139542857D02*
X138657142Y-140342857D01*
X138142857Y-139542857D02*
X138142857Y-140171428D01*
X138200000Y-140285714D01*
X138314285Y-140342857D01*
X138485714Y-140342857D01*
X138600000Y-140285714D01*
X138657142Y-140228571D01*
X139228571Y-140342857D02*
X139228571Y-139542857D01*
X139228571Y-139771428D02*
X139285714Y-139657142D01*
X139342857Y-139600000D01*
X139457142Y-139542857D01*
X139571428Y-139542857D01*
X140428571Y-140285714D02*
X140314285Y-140342857D01*
X140085714Y-140342857D01*
X139971428Y-140285714D01*
X139914285Y-140171428D01*
X139914285Y-139714285D01*
X139971428Y-139600000D01*
X140085714Y-139542857D01*
X140314285Y-139542857D01*
X140428571Y-139600000D01*
X140485714Y-139714285D01*
X140485714Y-139828571D01*
X139914285Y-139942857D01*
X170735714Y-82228571D02*
X170678571Y-82285714D01*
X170507142Y-82342857D01*
X170392857Y-82342857D01*
X170221428Y-82285714D01*
X170107142Y-82171428D01*
X170050000Y-82057142D01*
X169992857Y-81828571D01*
X169992857Y-81657142D01*
X170050000Y-81428571D01*
X170107142Y-81314285D01*
X170221428Y-81200000D01*
X170392857Y-81142857D01*
X170507142Y-81142857D01*
X170678571Y-81200000D01*
X170735714Y-81257142D01*
X171764285Y-81542857D02*
X171764285Y-82342857D01*
X171250000Y-81542857D02*
X171250000Y-82171428D01*
X171307142Y-82285714D01*
X171421428Y-82342857D01*
X171592857Y-82342857D01*
X171707142Y-82285714D01*
X171764285Y-82228571D01*
X172335714Y-82342857D02*
X172335714Y-81542857D01*
X172335714Y-81771428D02*
X172392857Y-81657142D01*
X172450000Y-81600000D01*
X172564285Y-81542857D01*
X172678571Y-81542857D01*
X173078571Y-82342857D02*
X173078571Y-81542857D01*
X173078571Y-81771428D02*
X173135714Y-81657142D01*
X173192857Y-81600000D01*
X173307142Y-81542857D01*
X173421428Y-81542857D01*
X174278571Y-82285714D02*
X174164285Y-82342857D01*
X173935714Y-82342857D01*
X173821428Y-82285714D01*
X173764285Y-82171428D01*
X173764285Y-81714285D01*
X173821428Y-81600000D01*
X173935714Y-81542857D01*
X174164285Y-81542857D01*
X174278571Y-81600000D01*
X174335714Y-81714285D01*
X174335714Y-81828571D01*
X173764285Y-81942857D01*
X174850000Y-81542857D02*
X174850000Y-82342857D01*
X174850000Y-81657142D02*
X174907142Y-81600000D01*
X175021428Y-81542857D01*
X175192857Y-81542857D01*
X175307142Y-81600000D01*
X175364285Y-81714285D01*
X175364285Y-82342857D01*
X175764285Y-81542857D02*
X176221428Y-81542857D01*
X175935714Y-81142857D02*
X175935714Y-82171428D01*
X175992857Y-82285714D01*
X176107142Y-82342857D01*
X176221428Y-82342857D01*
X139528571Y-83078571D02*
X139471428Y-83135714D01*
X139300000Y-83192857D01*
X139185714Y-83192857D01*
X139014285Y-83135714D01*
X138900000Y-83021428D01*
X138842857Y-82907142D01*
X138785714Y-82678571D01*
X138785714Y-82507142D01*
X138842857Y-82278571D01*
X138900000Y-82164285D01*
X139014285Y-82050000D01*
X139185714Y-81992857D01*
X139300000Y-81992857D01*
X139471428Y-82050000D01*
X139528571Y-82107142D01*
X140214285Y-83192857D02*
X140100000Y-83135714D01*
X140042857Y-83078571D01*
X139985714Y-82964285D01*
X139985714Y-82621428D01*
X140042857Y-82507142D01*
X140100000Y-82450000D01*
X140214285Y-82392857D01*
X140385714Y-82392857D01*
X140500000Y-82450000D01*
X140557142Y-82507142D01*
X140614285Y-82621428D01*
X140614285Y-82964285D01*
X140557142Y-83078571D01*
X140500000Y-83135714D01*
X140385714Y-83192857D01*
X140214285Y-83192857D01*
X141128571Y-82392857D02*
X141128571Y-83192857D01*
X141128571Y-82507142D02*
X141185714Y-82450000D01*
X141300000Y-82392857D01*
X141471428Y-82392857D01*
X141585714Y-82450000D01*
X141642857Y-82564285D01*
X141642857Y-83192857D01*
X142042857Y-82392857D02*
X142500000Y-82392857D01*
X142214285Y-81992857D02*
X142214285Y-83021428D01*
X142271428Y-83135714D01*
X142385714Y-83192857D01*
X142500000Y-83192857D01*
X143414285Y-83192857D02*
X143414285Y-82564285D01*
X143357142Y-82450000D01*
X143242857Y-82392857D01*
X143014285Y-82392857D01*
X142900000Y-82450000D01*
X143414285Y-83135714D02*
X143300000Y-83192857D01*
X143014285Y-83192857D01*
X142900000Y-83135714D01*
X142842857Y-83021428D01*
X142842857Y-82907142D01*
X142900000Y-82792857D01*
X143014285Y-82735714D01*
X143300000Y-82735714D01*
X143414285Y-82678571D01*
X144500000Y-83135714D02*
X144385714Y-83192857D01*
X144157142Y-83192857D01*
X144042857Y-83135714D01*
X143985714Y-83078571D01*
X143928571Y-82964285D01*
X143928571Y-82621428D01*
X143985714Y-82507142D01*
X144042857Y-82450000D01*
X144157142Y-82392857D01*
X144385714Y-82392857D01*
X144500000Y-82450000D01*
X144842857Y-82392857D02*
X145300000Y-82392857D01*
X145014285Y-81992857D02*
X145014285Y-83021428D01*
X145071428Y-83135714D01*
X145185714Y-83192857D01*
X145300000Y-83192857D01*
X145871428Y-83192857D02*
X145757142Y-83135714D01*
X145700000Y-83078571D01*
X145642857Y-82964285D01*
X145642857Y-82621428D01*
X145700000Y-82507142D01*
X145757142Y-82450000D01*
X145871428Y-82392857D01*
X146042857Y-82392857D01*
X146157142Y-82450000D01*
X146214285Y-82507142D01*
X146271428Y-82621428D01*
X146271428Y-82964285D01*
X146214285Y-83078571D01*
X146157142Y-83135714D01*
X146042857Y-83192857D01*
X145871428Y-83192857D01*
X146785714Y-83192857D02*
X146785714Y-82392857D01*
X146785714Y-82621428D02*
X146842857Y-82507142D01*
X146900000Y-82450000D01*
X147014285Y-82392857D01*
X147128571Y-82392857D01*
X129642857Y-79792857D02*
X129642857Y-80364285D01*
X128442857Y-80364285D01*
X129642857Y-79392857D02*
X128842857Y-79392857D01*
X128442857Y-79392857D02*
X128500000Y-79450000D01*
X128557142Y-79392857D01*
X128500000Y-79335714D01*
X128442857Y-79392857D01*
X128557142Y-79392857D01*
X128842857Y-78307142D02*
X129814285Y-78307142D01*
X129928571Y-78364285D01*
X129985714Y-78421428D01*
X130042857Y-78535714D01*
X130042857Y-78707142D01*
X129985714Y-78821428D01*
X129585714Y-78307142D02*
X129642857Y-78421428D01*
X129642857Y-78650000D01*
X129585714Y-78764285D01*
X129528571Y-78821428D01*
X129414285Y-78878571D01*
X129071428Y-78878571D01*
X128957142Y-78821428D01*
X128900000Y-78764285D01*
X128842857Y-78650000D01*
X128842857Y-78421428D01*
X128900000Y-78307142D01*
X129642857Y-77735714D02*
X128442857Y-77735714D01*
X129642857Y-77221428D02*
X129014285Y-77221428D01*
X128900000Y-77278571D01*
X128842857Y-77392857D01*
X128842857Y-77564285D01*
X128900000Y-77678571D01*
X128957142Y-77735714D01*
X128842857Y-76821428D02*
X128842857Y-76364285D01*
X128442857Y-76650000D02*
X129471428Y-76650000D01*
X129585714Y-76592857D01*
X129642857Y-76478571D01*
X129642857Y-76364285D01*
X114914285Y-80414285D02*
X114914285Y-80014285D01*
X115542857Y-79842857D02*
X115542857Y-80414285D01*
X114342857Y-80414285D01*
X114342857Y-79842857D01*
X115542857Y-79328571D02*
X114742857Y-79328571D01*
X114971428Y-79328571D02*
X114857142Y-79271428D01*
X114800000Y-79214285D01*
X114742857Y-79100000D01*
X114742857Y-78985714D01*
X115542857Y-78585714D02*
X114742857Y-78585714D01*
X114971428Y-78585714D02*
X114857142Y-78528571D01*
X114800000Y-78471428D01*
X114742857Y-78357142D01*
X114742857Y-78242857D01*
X115542857Y-77671428D02*
X115485714Y-77785714D01*
X115428571Y-77842857D01*
X115314285Y-77900000D01*
X114971428Y-77900000D01*
X114857142Y-77842857D01*
X114800000Y-77785714D01*
X114742857Y-77671428D01*
X114742857Y-77500000D01*
X114800000Y-77385714D01*
X114857142Y-77328571D01*
X114971428Y-77271428D01*
X115314285Y-77271428D01*
X115428571Y-77328571D01*
X115485714Y-77385714D01*
X115542857Y-77500000D01*
X115542857Y-77671428D01*
X115542857Y-76757142D02*
X114742857Y-76757142D01*
X114971428Y-76757142D02*
X114857142Y-76700000D01*
X114800000Y-76642857D01*
X114742857Y-76528571D01*
X114742857Y-76414285D01*
X101028571Y-99242857D02*
X101028571Y-98042857D01*
X101485714Y-98042857D01*
X101600000Y-98100000D01*
X101657142Y-98157142D01*
X101714285Y-98271428D01*
X101714285Y-98442857D01*
X101657142Y-98557142D01*
X101600000Y-98614285D01*
X101485714Y-98671428D01*
X101028571Y-98671428D01*
X102400000Y-99242857D02*
X102285714Y-99185714D01*
X102228571Y-99128571D01*
X102171428Y-99014285D01*
X102171428Y-98671428D01*
X102228571Y-98557142D01*
X102285714Y-98500000D01*
X102400000Y-98442857D01*
X102571428Y-98442857D01*
X102685714Y-98500000D01*
X102742857Y-98557142D01*
X102800000Y-98671428D01*
X102800000Y-99014285D01*
X102742857Y-99128571D01*
X102685714Y-99185714D01*
X102571428Y-99242857D01*
X102400000Y-99242857D01*
X103200000Y-98442857D02*
X103428571Y-99242857D01*
X103657142Y-98671428D01*
X103885714Y-99242857D01*
X104114285Y-98442857D01*
X105028571Y-99185714D02*
X104914285Y-99242857D01*
X104685714Y-99242857D01*
X104571428Y-99185714D01*
X104514285Y-99071428D01*
X104514285Y-98614285D01*
X104571428Y-98500000D01*
X104685714Y-98442857D01*
X104914285Y-98442857D01*
X105028571Y-98500000D01*
X105085714Y-98614285D01*
X105085714Y-98728571D01*
X104514285Y-98842857D01*
X105600000Y-99242857D02*
X105600000Y-98442857D01*
X105600000Y-98671428D02*
X105657142Y-98557142D01*
X105714285Y-98500000D01*
X105828571Y-98442857D01*
X105942857Y-98442857D01*
X101500000Y-119664285D02*
X101671428Y-119721428D01*
X101728571Y-119778571D01*
X101785714Y-119892857D01*
X101785714Y-120064285D01*
X101728571Y-120178571D01*
X101671428Y-120235714D01*
X101557142Y-120292857D01*
X101100000Y-120292857D01*
X101100000Y-119092857D01*
X101500000Y-119092857D01*
X101614285Y-119150000D01*
X101671428Y-119207142D01*
X101728571Y-119321428D01*
X101728571Y-119435714D01*
X101671428Y-119550000D01*
X101614285Y-119607142D01*
X101500000Y-119664285D01*
X101100000Y-119664285D01*
X102814285Y-120292857D02*
X102814285Y-119664285D01*
X102757142Y-119550000D01*
X102642857Y-119492857D01*
X102414285Y-119492857D01*
X102300000Y-119550000D01*
X102814285Y-120235714D02*
X102700000Y-120292857D01*
X102414285Y-120292857D01*
X102300000Y-120235714D01*
X102242857Y-120121428D01*
X102242857Y-120007142D01*
X102300000Y-119892857D01*
X102414285Y-119835714D01*
X102700000Y-119835714D01*
X102814285Y-119778571D01*
X103900000Y-120235714D02*
X103785714Y-120292857D01*
X103557142Y-120292857D01*
X103442857Y-120235714D01*
X103385714Y-120178571D01*
X103328571Y-120064285D01*
X103328571Y-119721428D01*
X103385714Y-119607142D01*
X103442857Y-119550000D01*
X103557142Y-119492857D01*
X103785714Y-119492857D01*
X103900000Y-119550000D01*
X104414285Y-120292857D02*
X104414285Y-119092857D01*
X104528571Y-119835714D02*
X104871428Y-120292857D01*
X104871428Y-119492857D02*
X104414285Y-119950000D01*
X106700000Y-119664285D02*
X106300000Y-119664285D01*
X106300000Y-120292857D02*
X106300000Y-119092857D01*
X106871428Y-119092857D01*
X107842857Y-120292857D02*
X107842857Y-119664285D01*
X107785714Y-119550000D01*
X107671428Y-119492857D01*
X107442857Y-119492857D01*
X107328571Y-119550000D01*
X107842857Y-120235714D02*
X107728571Y-120292857D01*
X107442857Y-120292857D01*
X107328571Y-120235714D01*
X107271428Y-120121428D01*
X107271428Y-120007142D01*
X107328571Y-119892857D01*
X107442857Y-119835714D01*
X107728571Y-119835714D01*
X107842857Y-119778571D01*
X108414285Y-119492857D02*
X108414285Y-120292857D01*
X108414285Y-119607142D02*
X108471428Y-119550000D01*
X108585714Y-119492857D01*
X108757142Y-119492857D01*
X108871428Y-119550000D01*
X108928571Y-119664285D01*
X108928571Y-120292857D01*
X109442857Y-120235714D02*
X109557142Y-120292857D01*
X109785714Y-120292857D01*
X109900000Y-120235714D01*
X109957142Y-120121428D01*
X109957142Y-120064285D01*
X109900000Y-119950000D01*
X109785714Y-119892857D01*
X109614285Y-119892857D01*
X109500000Y-119835714D01*
X109442857Y-119721428D01*
X109442857Y-119664285D01*
X109500000Y-119550000D01*
X109614285Y-119492857D01*
X109785714Y-119492857D01*
X109900000Y-119550000D01*
X101478571Y-122214285D02*
X101078571Y-122214285D01*
X101078571Y-122842857D02*
X101078571Y-121642857D01*
X101650000Y-121642857D01*
X102107142Y-122842857D02*
X102107142Y-122042857D01*
X102107142Y-122271428D02*
X102164285Y-122157142D01*
X102221428Y-122100000D01*
X102335714Y-122042857D01*
X102450000Y-122042857D01*
X103021428Y-122842857D02*
X102907142Y-122785714D01*
X102850000Y-122728571D01*
X102792857Y-122614285D01*
X102792857Y-122271428D01*
X102850000Y-122157142D01*
X102907142Y-122100000D01*
X103021428Y-122042857D01*
X103192857Y-122042857D01*
X103307142Y-122100000D01*
X103364285Y-122157142D01*
X103421428Y-122271428D01*
X103421428Y-122614285D01*
X103364285Y-122728571D01*
X103307142Y-122785714D01*
X103192857Y-122842857D01*
X103021428Y-122842857D01*
X103935714Y-122042857D02*
X103935714Y-122842857D01*
X103935714Y-122157142D02*
X103992857Y-122100000D01*
X104107142Y-122042857D01*
X104278571Y-122042857D01*
X104392857Y-122100000D01*
X104450000Y-122214285D01*
X104450000Y-122842857D01*
X104850000Y-122042857D02*
X105307142Y-122042857D01*
X105021428Y-121642857D02*
X105021428Y-122671428D01*
X105078571Y-122785714D01*
X105192857Y-122842857D01*
X105307142Y-122842857D01*
X107021428Y-122214285D02*
X106621428Y-122214285D01*
X106621428Y-122842857D02*
X106621428Y-121642857D01*
X107192857Y-121642857D01*
X108164285Y-122842857D02*
X108164285Y-122214285D01*
X108107142Y-122100000D01*
X107992857Y-122042857D01*
X107764285Y-122042857D01*
X107650000Y-122100000D01*
X108164285Y-122785714D02*
X108050000Y-122842857D01*
X107764285Y-122842857D01*
X107650000Y-122785714D01*
X107592857Y-122671428D01*
X107592857Y-122557142D01*
X107650000Y-122442857D01*
X107764285Y-122385714D01*
X108050000Y-122385714D01*
X108164285Y-122328571D01*
X108735714Y-122042857D02*
X108735714Y-122842857D01*
X108735714Y-122157142D02*
X108792857Y-122100000D01*
X108907142Y-122042857D01*
X109078571Y-122042857D01*
X109192857Y-122100000D01*
X109250000Y-122214285D01*
X109250000Y-122842857D01*
X109764285Y-122785714D02*
X109878571Y-122842857D01*
X110107142Y-122842857D01*
X110221428Y-122785714D01*
X110278571Y-122671428D01*
X110278571Y-122614285D01*
X110221428Y-122500000D01*
X110107142Y-122442857D01*
X109935714Y-122442857D01*
X109821428Y-122385714D01*
X109764285Y-122271428D01*
X109764285Y-122214285D01*
X109821428Y-122100000D01*
X109935714Y-122042857D01*
X110107142Y-122042857D01*
X110221428Y-122100000D01*
X188600000Y-100264285D02*
X189000000Y-100264285D01*
X189171428Y-100892857D02*
X188600000Y-100892857D01*
X188600000Y-99692857D01*
X189171428Y-99692857D01*
X189571428Y-100892857D02*
X190200000Y-100092857D01*
X189571428Y-100092857D02*
X190200000Y-100892857D01*
X190485714Y-100092857D02*
X190942857Y-100092857D01*
X190657142Y-99692857D02*
X190657142Y-100721428D01*
X190714285Y-100835714D01*
X190828571Y-100892857D01*
X190942857Y-100892857D01*
X191342857Y-100892857D02*
X191342857Y-100092857D01*
X191342857Y-100321428D02*
X191400000Y-100207142D01*
X191457142Y-100150000D01*
X191571428Y-100092857D01*
X191685714Y-100092857D01*
X192600000Y-100892857D02*
X192600000Y-100264285D01*
X192542857Y-100150000D01*
X192428571Y-100092857D01*
X192200000Y-100092857D01*
X192085714Y-100150000D01*
X192600000Y-100835714D02*
X192485714Y-100892857D01*
X192200000Y-100892857D01*
X192085714Y-100835714D01*
X192028571Y-100721428D01*
X192028571Y-100607142D01*
X192085714Y-100492857D01*
X192200000Y-100435714D01*
X192485714Y-100435714D01*
X192600000Y-100378571D01*
X190600000Y-97550000D02*
X190600000Y-99200000D01*
X171789022Y-103372217D02*
X171389022Y-102800788D01*
X171103308Y-103372217D02*
X171103308Y-102172217D01*
X171560451Y-102172217D01*
X171674737Y-102229360D01*
X171731880Y-102286502D01*
X171789022Y-102400788D01*
X171789022Y-102572217D01*
X171731880Y-102686502D01*
X171674737Y-102743645D01*
X171560451Y-102800788D01*
X171103308Y-102800788D01*
X172760451Y-103315074D02*
X172646165Y-103372217D01*
X172417594Y-103372217D01*
X172303308Y-103315074D01*
X172246165Y-103200788D01*
X172246165Y-102743645D01*
X172303308Y-102629360D01*
X172417594Y-102572217D01*
X172646165Y-102572217D01*
X172760451Y-102629360D01*
X172817594Y-102743645D01*
X172817594Y-102857931D01*
X172246165Y-102972217D01*
X173846165Y-103372217D02*
X173846165Y-102172217D01*
X173846165Y-103315074D02*
X173731880Y-103372217D01*
X173503308Y-103372217D01*
X173389022Y-103315074D01*
X173331880Y-103257931D01*
X173274737Y-103143645D01*
X173274737Y-102800788D01*
X173331880Y-102686502D01*
X173389022Y-102629360D01*
X173503308Y-102572217D01*
X173731880Y-102572217D01*
X173846165Y-102629360D01*
X175331880Y-102743645D02*
X176246165Y-102743645D01*
X176246165Y-103086502D02*
X175331880Y-103086502D01*
X177731880Y-103372217D02*
X177731880Y-102172217D01*
X178017594Y-102172217D01*
X178189022Y-102229360D01*
X178303308Y-102343645D01*
X178360451Y-102457931D01*
X178417594Y-102686502D01*
X178417594Y-102857931D01*
X178360451Y-103086502D01*
X178303308Y-103200788D01*
X178189022Y-103315074D01*
X178017594Y-103372217D01*
X177731880Y-103372217D01*
X179389022Y-103315074D02*
X179274737Y-103372217D01*
X179046165Y-103372217D01*
X178931880Y-103315074D01*
X178874737Y-103200788D01*
X178874737Y-102743645D01*
X178931880Y-102629360D01*
X179046165Y-102572217D01*
X179274737Y-102572217D01*
X179389022Y-102629360D01*
X179446165Y-102743645D01*
X179446165Y-102857931D01*
X178874737Y-102972217D01*
X180474737Y-103372217D02*
X180474737Y-102743645D01*
X180417594Y-102629360D01*
X180303308Y-102572217D01*
X180074737Y-102572217D01*
X179960451Y-102629360D01*
X180474737Y-103315074D02*
X180360451Y-103372217D01*
X180074737Y-103372217D01*
X179960451Y-103315074D01*
X179903308Y-103200788D01*
X179903308Y-103086502D01*
X179960451Y-102972217D01*
X180074737Y-102915074D01*
X180360451Y-102915074D01*
X180474737Y-102857931D01*
X181560451Y-103372217D02*
X181560451Y-102172217D01*
X181560451Y-103315074D02*
X181446165Y-103372217D01*
X181217594Y-103372217D01*
X181103308Y-103315074D01*
X181046165Y-103257931D01*
X180989022Y-103143645D01*
X180989022Y-102800788D01*
X181046165Y-102686502D01*
X181103308Y-102629360D01*
X181217594Y-102572217D01*
X181446165Y-102572217D01*
X181560451Y-102629360D01*
X159328571Y-100214285D02*
X158928571Y-100214285D01*
X158928571Y-100842857D02*
X158928571Y-99642857D01*
X159500000Y-99642857D01*
X160471428Y-100842857D02*
X160471428Y-100214285D01*
X160414285Y-100100000D01*
X160300000Y-100042857D01*
X160071428Y-100042857D01*
X159957142Y-100100000D01*
X160471428Y-100785714D02*
X160357142Y-100842857D01*
X160071428Y-100842857D01*
X159957142Y-100785714D01*
X159900000Y-100671428D01*
X159900000Y-100557142D01*
X159957142Y-100442857D01*
X160071428Y-100385714D01*
X160357142Y-100385714D01*
X160471428Y-100328571D01*
X161557142Y-100042857D02*
X161557142Y-100842857D01*
X161042857Y-100042857D02*
X161042857Y-100671428D01*
X161100000Y-100785714D01*
X161214285Y-100842857D01*
X161385714Y-100842857D01*
X161500000Y-100785714D01*
X161557142Y-100728571D01*
X162300000Y-100842857D02*
X162185714Y-100785714D01*
X162128571Y-100671428D01*
X162128571Y-99642857D01*
X162585714Y-100042857D02*
X163042857Y-100042857D01*
X162757142Y-99642857D02*
X162757142Y-100671428D01*
X162814285Y-100785714D01*
X162928571Y-100842857D01*
X163042857Y-100842857D01*
X160900000Y-97600000D02*
X160900000Y-99250000D01*
X163985714Y-98892857D02*
X163585714Y-98321428D01*
X163300000Y-98892857D02*
X163300000Y-97692857D01*
X163757142Y-97692857D01*
X163871428Y-97750000D01*
X163928571Y-97807142D01*
X163985714Y-97921428D01*
X163985714Y-98092857D01*
X163928571Y-98207142D01*
X163871428Y-98264285D01*
X163757142Y-98321428D01*
X163300000Y-98321428D01*
X165014285Y-98092857D02*
X165014285Y-98892857D01*
X164500000Y-98092857D02*
X164500000Y-98721428D01*
X164557142Y-98835714D01*
X164671428Y-98892857D01*
X164842857Y-98892857D01*
X164957142Y-98835714D01*
X165014285Y-98778571D01*
X165585714Y-98092857D02*
X165585714Y-98892857D01*
X165585714Y-98207142D02*
X165642857Y-98150000D01*
X165757142Y-98092857D01*
X165928571Y-98092857D01*
X166042857Y-98150000D01*
X166100000Y-98264285D01*
X166100000Y-98892857D01*
X166292857Y-99642857D02*
X166292857Y-100614285D01*
X166350000Y-100728571D01*
X166407142Y-100785714D01*
X166521428Y-100842857D01*
X166750000Y-100842857D01*
X166864285Y-100785714D01*
X166921428Y-100728571D01*
X166978571Y-100614285D01*
X166978571Y-99642857D01*
X167378571Y-99642857D02*
X167778571Y-100842857D01*
X168178571Y-99642857D01*
X168750000Y-100842857D02*
X168635714Y-100785714D01*
X168578571Y-100728571D01*
X168521428Y-100614285D01*
X168521428Y-100271428D01*
X168578571Y-100157142D01*
X168635714Y-100100000D01*
X168750000Y-100042857D01*
X168921428Y-100042857D01*
X169035714Y-100100000D01*
X169092857Y-100157142D01*
X169150000Y-100271428D01*
X169150000Y-100614285D01*
X169092857Y-100728571D01*
X169035714Y-100785714D01*
X168921428Y-100842857D01*
X168750000Y-100842857D01*
X169835714Y-100842857D02*
X169721428Y-100785714D01*
X169664285Y-100671428D01*
X169664285Y-99642857D01*
X170121428Y-100042857D02*
X170578571Y-100042857D01*
X170292857Y-99642857D02*
X170292857Y-100671428D01*
X170350000Y-100785714D01*
X170464285Y-100842857D01*
X170578571Y-100842857D01*
X168350000Y-97550000D02*
X168350000Y-99200000D01*
X170271428Y-97742857D02*
X170500000Y-97742857D01*
X170614285Y-97800000D01*
X170728571Y-97914285D01*
X170785714Y-98142857D01*
X170785714Y-98542857D01*
X170728571Y-98771428D01*
X170614285Y-98885714D01*
X170500000Y-98942857D01*
X170271428Y-98942857D01*
X170157142Y-98885714D01*
X170042857Y-98771428D01*
X169985714Y-98542857D01*
X169985714Y-98142857D01*
X170042857Y-97914285D01*
X170157142Y-97800000D01*
X170271428Y-97742857D01*
X171128571Y-97742857D02*
X171528571Y-98942857D01*
X171928571Y-97742857D01*
X172500000Y-98942857D02*
X172385714Y-98885714D01*
X172328571Y-98828571D01*
X172271428Y-98714285D01*
X172271428Y-98371428D01*
X172328571Y-98257142D01*
X172385714Y-98200000D01*
X172500000Y-98142857D01*
X172671428Y-98142857D01*
X172785714Y-98200000D01*
X172842857Y-98257142D01*
X172900000Y-98371428D01*
X172900000Y-98714285D01*
X172842857Y-98828571D01*
X172785714Y-98885714D01*
X172671428Y-98942857D01*
X172500000Y-98942857D01*
X173585714Y-98942857D02*
X173471428Y-98885714D01*
X173414285Y-98771428D01*
X173414285Y-97742857D01*
X173871428Y-98142857D02*
X174328571Y-98142857D01*
X174042857Y-97742857D02*
X174042857Y-98771428D01*
X174100000Y-98885714D01*
X174214285Y-98942857D01*
X174328571Y-98942857D01*
X173371428Y-99692857D02*
X173600000Y-99692857D01*
X173714285Y-99750000D01*
X173828571Y-99864285D01*
X173885714Y-100092857D01*
X173885714Y-100492857D01*
X173828571Y-100721428D01*
X173714285Y-100835714D01*
X173600000Y-100892857D01*
X173371428Y-100892857D01*
X173257142Y-100835714D01*
X173142857Y-100721428D01*
X173085714Y-100492857D01*
X173085714Y-100092857D01*
X173142857Y-99864285D01*
X173257142Y-99750000D01*
X173371428Y-99692857D01*
X174228571Y-99692857D02*
X174914285Y-99692857D01*
X174571428Y-100892857D02*
X174571428Y-99692857D01*
X175771428Y-100835714D02*
X175657142Y-100892857D01*
X175428571Y-100892857D01*
X175314285Y-100835714D01*
X175257142Y-100721428D01*
X175257142Y-100264285D01*
X175314285Y-100150000D01*
X175428571Y-100092857D01*
X175657142Y-100092857D01*
X175771428Y-100150000D01*
X175828571Y-100264285D01*
X175828571Y-100378571D01*
X175257142Y-100492857D01*
X176342857Y-100892857D02*
X176342857Y-100092857D01*
X176342857Y-100207142D02*
X176400000Y-100150000D01*
X176514285Y-100092857D01*
X176685714Y-100092857D01*
X176800000Y-100150000D01*
X176857142Y-100264285D01*
X176857142Y-100892857D01*
X176857142Y-100264285D02*
X176914285Y-100150000D01*
X177028571Y-100092857D01*
X177200000Y-100092857D01*
X177314285Y-100150000D01*
X177371428Y-100264285D01*
X177371428Y-100892857D01*
X177942857Y-100092857D02*
X177942857Y-101292857D01*
X177942857Y-100150000D02*
X178057142Y-100092857D01*
X178285714Y-100092857D01*
X178400000Y-100150000D01*
X178457142Y-100207142D01*
X178514285Y-100321428D01*
X178514285Y-100664285D01*
X178457142Y-100778571D01*
X178400000Y-100835714D01*
X178285714Y-100892857D01*
X178057142Y-100892857D01*
X177942857Y-100835714D01*
X175800000Y-97550000D02*
X175800000Y-99200000D01*
X183200000Y-97550000D02*
X183200000Y-99200000D01*
X177500000Y-97742857D02*
X177728571Y-97742857D01*
X177842857Y-97800000D01*
X177957142Y-97914285D01*
X178014285Y-98142857D01*
X178014285Y-98542857D01*
X177957142Y-98771428D01*
X177842857Y-98885714D01*
X177728571Y-98942857D01*
X177500000Y-98942857D01*
X177385714Y-98885714D01*
X177271428Y-98771428D01*
X177214285Y-98542857D01*
X177214285Y-98142857D01*
X177271428Y-97914285D01*
X177385714Y-97800000D01*
X177500000Y-97742857D01*
X179214285Y-98828571D02*
X179157142Y-98885714D01*
X178985714Y-98942857D01*
X178871428Y-98942857D01*
X178700000Y-98885714D01*
X178585714Y-98771428D01*
X178528571Y-98657142D01*
X178471428Y-98428571D01*
X178471428Y-98257142D01*
X178528571Y-98028571D01*
X178585714Y-97914285D01*
X178700000Y-97800000D01*
X178871428Y-97742857D01*
X178985714Y-97742857D01*
X179157142Y-97800000D01*
X179214285Y-97857142D01*
X180242857Y-98142857D02*
X180242857Y-98942857D01*
X179728571Y-98142857D02*
X179728571Y-98771428D01*
X179785714Y-98885714D01*
X179900000Y-98942857D01*
X180071428Y-98942857D01*
X180185714Y-98885714D01*
X180242857Y-98828571D01*
X180814285Y-98942857D02*
X180814285Y-98142857D01*
X180814285Y-98371428D02*
X180871428Y-98257142D01*
X180928571Y-98200000D01*
X181042857Y-98142857D01*
X181157142Y-98142857D01*
X181557142Y-98942857D02*
X181557142Y-98142857D01*
X181557142Y-98371428D02*
X181614285Y-98257142D01*
X181671428Y-98200000D01*
X181785714Y-98142857D01*
X181900000Y-98142857D01*
X181000000Y-99742857D02*
X181285714Y-100942857D01*
X181514285Y-100085714D01*
X181742857Y-100942857D01*
X182028571Y-99742857D01*
X182485714Y-100942857D02*
X182485714Y-99742857D01*
X182771428Y-99742857D01*
X182942857Y-99800000D01*
X183057142Y-99914285D01*
X183114285Y-100028571D01*
X183171428Y-100257142D01*
X183171428Y-100428571D01*
X183114285Y-100657142D01*
X183057142Y-100771428D01*
X182942857Y-100885714D01*
X182771428Y-100942857D01*
X182485714Y-100942857D01*
X183857142Y-100942857D02*
X183742857Y-100885714D01*
X183685714Y-100828571D01*
X183628571Y-100714285D01*
X183628571Y-100371428D01*
X183685714Y-100257142D01*
X183742857Y-100200000D01*
X183857142Y-100142857D01*
X184028571Y-100142857D01*
X184142857Y-100200000D01*
X184200000Y-100257142D01*
X184257142Y-100371428D01*
X184257142Y-100714285D01*
X184200000Y-100828571D01*
X184142857Y-100885714D01*
X184028571Y-100942857D01*
X183857142Y-100942857D01*
X185285714Y-100142857D02*
X185285714Y-101114285D01*
X185228571Y-101228571D01*
X185171428Y-101285714D01*
X185057142Y-101342857D01*
X184885714Y-101342857D01*
X184771428Y-101285714D01*
X185285714Y-100885714D02*
X185171428Y-100942857D01*
X184942857Y-100942857D01*
X184828571Y-100885714D01*
X184771428Y-100828571D01*
X184714285Y-100714285D01*
X184714285Y-100371428D01*
X184771428Y-100257142D01*
X184828571Y-100200000D01*
X184942857Y-100142857D01*
X185171428Y-100142857D01*
X185285714Y-100200000D01*
X186128571Y-98828571D02*
X186071428Y-98885714D01*
X185900000Y-98942857D01*
X185785714Y-98942857D01*
X185614285Y-98885714D01*
X185500000Y-98771428D01*
X185442857Y-98657142D01*
X185385714Y-98428571D01*
X185385714Y-98257142D01*
X185442857Y-98028571D01*
X185500000Y-97914285D01*
X185614285Y-97800000D01*
X185785714Y-97742857D01*
X185900000Y-97742857D01*
X186071428Y-97800000D01*
X186128571Y-97857142D01*
X186585714Y-98600000D02*
X187157142Y-98600000D01*
X186471428Y-98942857D02*
X186871428Y-97742857D01*
X187271428Y-98942857D01*
X187671428Y-98942857D02*
X187671428Y-97742857D01*
X188357142Y-98942857D01*
X188357142Y-97742857D01*
D13*
X166615000Y-134460000D02*
G75*
G03X166615000Y-134460000I-317500J0D01*
G01*
D14*
X175428600Y-107122920D02*
X175428600Y-112322920D01*
X185648600Y-107122920D02*
X175428600Y-107122920D01*
X188248600Y-112322920D02*
X175428600Y-112322920D01*
X185648600Y-107122920D02*
X185648600Y-109722920D01*
X185648600Y-109722920D02*
X188248600Y-109722920D01*
X188248600Y-109722920D02*
X188248600Y-112322920D01*
X186918600Y-107122920D02*
X188248600Y-107122920D01*
X188248600Y-107122920D02*
X188248600Y-108452920D01*
X131499920Y-109732120D02*
X131499920Y-107072120D01*
X128899920Y-109732120D02*
X131499920Y-109732120D01*
X128899920Y-107072120D02*
X131499920Y-107072120D01*
X128899920Y-109732120D02*
X128899920Y-107072120D01*
X127629920Y-109732120D02*
X126299920Y-109732120D01*
X126299920Y-109732120D02*
X126299920Y-108402120D01*
X124840000Y-83520000D02*
X126300000Y-83520000D01*
X124840000Y-86680000D02*
X127000000Y-86680000D01*
X124840000Y-86680000D02*
X124840000Y-85750000D01*
X124840000Y-83520000D02*
X124840000Y-84450000D01*
D10*
X151450000Y-83650000D02*
G75*
G03X151450000Y-83650000I-1750000J0D01*
G01*
X113510000Y-80970000D02*
G75*
G03X113510000Y-80970000I-1750000J0D01*
G01*
X110850000Y-86700000D02*
G75*
G03X110850000Y-86700000I-1750000J0D01*
G01*
X110850000Y-96350000D02*
G75*
G03X110850000Y-96350000I-1750000J0D01*
G01*
D14*
X191560000Y-96550000D02*
X191560000Y-93865000D01*
X191560000Y-93865000D02*
X189640000Y-93865000D01*
X189640000Y-93865000D02*
X189640000Y-96550000D01*
X166710000Y-84608578D02*
X166710000Y-84091422D01*
X165290000Y-84608578D02*
X165290000Y-84091422D01*
X174290000Y-84608578D02*
X174290000Y-84091422D01*
X175710000Y-84608578D02*
X175710000Y-84091422D01*
X168290000Y-85341422D02*
X168290000Y-85858578D01*
X169710000Y-85341422D02*
X169710000Y-85858578D01*
X172710000Y-85333922D02*
X172710000Y-85851078D01*
X171290000Y-85333922D02*
X171290000Y-85851078D01*
X178290000Y-80758578D02*
X178290000Y-80241422D01*
X179710000Y-80758578D02*
X179710000Y-80241422D01*
X165548736Y-106948073D02*
X165548736Y-107465229D01*
X166968736Y-106948073D02*
X166968736Y-107465229D01*
X165548736Y-111194633D02*
X165548736Y-110677477D01*
X166968736Y-111194633D02*
X166968736Y-110677477D01*
X122585000Y-111083578D02*
X122585000Y-110566422D01*
X121165000Y-111083578D02*
X121165000Y-110566422D01*
X186810000Y-122741422D02*
X186810000Y-123258578D01*
X185390000Y-122741422D02*
X185390000Y-123258578D01*
X191590000Y-122741422D02*
X191590000Y-123258578D01*
X193010000Y-122741422D02*
X193010000Y-123258578D01*
X187760000Y-127841422D02*
X187760000Y-128358578D01*
X186340000Y-127841422D02*
X186340000Y-128358578D01*
X190590000Y-127841422D02*
X190590000Y-128358578D01*
X192010000Y-127841422D02*
X192010000Y-128358578D01*
X147610000Y-92691422D02*
X147610000Y-93208578D01*
X146190000Y-92691422D02*
X146190000Y-93208578D01*
X155646078Y-127910000D02*
X155128922Y-127910000D01*
X155646078Y-126490000D02*
X155128922Y-126490000D01*
X166241422Y-126490000D02*
X166758578Y-126490000D01*
X166241422Y-127910000D02*
X166758578Y-127910000D01*
X139058578Y-124410000D02*
X138541422Y-124410000D01*
X139058578Y-122990000D02*
X138541422Y-122990000D01*
X138958578Y-134190000D02*
X138441422Y-134190000D01*
X138958578Y-135610000D02*
X138441422Y-135610000D01*
X112716422Y-122585000D02*
X113233578Y-122585000D01*
X112716422Y-121165000D02*
X113233578Y-121165000D01*
X124390000Y-105475000D02*
X124390000Y-102790000D01*
X122470000Y-105475000D02*
X124390000Y-105475000D01*
X122470000Y-102790000D02*
X122470000Y-105475000D01*
X134616480Y-85560000D02*
X137301480Y-85560000D01*
X134616480Y-83640000D02*
X134616480Y-85560000D01*
X137301480Y-83640000D02*
X134616480Y-83640000D01*
X159935000Y-93915000D02*
X159935000Y-96600000D01*
X161855000Y-93915000D02*
X159935000Y-93915000D01*
X161855000Y-96600000D02*
X161855000Y-93915000D01*
X163740000Y-93865000D02*
X163740000Y-96550000D01*
X165660000Y-93865000D02*
X163740000Y-93865000D01*
X165660000Y-96550000D02*
X165660000Y-93865000D01*
X169360000Y-96562500D02*
X169360000Y-93877500D01*
X169360000Y-93877500D02*
X167440000Y-93877500D01*
X167440000Y-93877500D02*
X167440000Y-96562500D01*
X171140000Y-93865000D02*
X171140000Y-96550000D01*
X173060000Y-93865000D02*
X171140000Y-93865000D01*
X173060000Y-96550000D02*
X173060000Y-93865000D01*
X176760000Y-96550000D02*
X176760000Y-93865000D01*
X176760000Y-93865000D02*
X174840000Y-93865000D01*
X174840000Y-93865000D02*
X174840000Y-96550000D01*
X178540000Y-93865000D02*
X178540000Y-96550000D01*
X180460000Y-93865000D02*
X178540000Y-93865000D01*
X180460000Y-96550000D02*
X180460000Y-93865000D01*
X184160000Y-96550000D02*
X184160000Y-93865000D01*
X184160000Y-93865000D02*
X182240000Y-93865000D01*
X182240000Y-93865000D02*
X182240000Y-96550000D01*
X187860000Y-96550000D02*
X187860000Y-93865000D01*
X187860000Y-93865000D02*
X185940000Y-93865000D01*
X185940000Y-93865000D02*
X185940000Y-96550000D01*
X146820000Y-118180000D02*
X146820000Y-115520000D01*
X141680000Y-118180000D02*
X146820000Y-118180000D01*
X141680000Y-115520000D02*
X146820000Y-115520000D01*
X141680000Y-118180000D02*
X141680000Y-115520000D01*
X140410000Y-118180000D02*
X139080000Y-118180000D01*
X139080000Y-118180000D02*
X139080000Y-116850000D01*
D10*
X158500000Y-80900000D02*
X158500000Y-76000000D01*
X176500000Y-80900000D02*
X158500000Y-80900000D01*
X176500000Y-76000000D02*
X176500000Y-80900000D01*
X173500000Y-76000000D02*
X176500000Y-76000000D01*
X173500000Y-77000000D02*
X173500000Y-76000000D01*
X161500000Y-77000000D02*
X173500000Y-77000000D01*
X161500000Y-76000000D02*
X161500000Y-77000000D01*
X158500000Y-76000000D02*
X161500000Y-76000000D01*
X101000000Y-97500000D02*
X101000000Y-94500000D01*
X101000000Y-94500000D02*
X102000000Y-94500000D01*
X102000000Y-94500000D02*
X102000000Y-88500000D01*
X102000000Y-88500000D02*
X101000000Y-88500000D01*
X101000000Y-88500000D02*
X101000000Y-85500000D01*
X101000000Y-85500000D02*
X105900000Y-85500000D01*
X105900000Y-85500000D02*
X105900000Y-97500000D01*
X105900000Y-97500000D02*
X101000000Y-97500000D01*
X199000000Y-120500000D02*
X199000000Y-123500000D01*
X199000000Y-123500000D02*
X198000000Y-123500000D01*
X198000000Y-123500000D02*
X198000000Y-135500000D01*
X198000000Y-135500000D02*
X199000000Y-135500000D01*
X199000000Y-135500000D02*
X199000000Y-138500000D01*
X199000000Y-138500000D02*
X194100000Y-138500000D01*
X194100000Y-138500000D02*
X194100000Y-120500000D01*
X194100000Y-120500000D02*
X199000000Y-120500000D01*
X133900000Y-81000000D02*
X133900000Y-76100000D01*
X151900000Y-81000000D02*
X133900000Y-81000000D01*
X151900000Y-76100000D02*
X151900000Y-81000000D01*
X148900000Y-76100000D02*
X151900000Y-76100000D01*
X148900000Y-77100000D02*
X148900000Y-76100000D01*
X136900000Y-77100000D02*
X148900000Y-77100000D01*
X136900000Y-76100000D02*
X136900000Y-77100000D01*
X133900000Y-76100000D02*
X136900000Y-76100000D01*
X179500000Y-149000000D02*
X176500000Y-149000000D01*
X176500000Y-149000000D02*
X176500000Y-148000000D01*
X176500000Y-148000000D02*
X170500000Y-148000000D01*
X170500000Y-148000000D02*
X170500000Y-149000000D01*
X170500000Y-149000000D02*
X167500000Y-149000000D01*
X167500000Y-149000000D02*
X167500000Y-144100000D01*
X167500000Y-144100000D02*
X179500000Y-144100000D01*
X179500000Y-144100000D02*
X179500000Y-149000000D01*
X162500000Y-149000000D02*
X159500000Y-149000000D01*
X159500000Y-149000000D02*
X159500000Y-148000000D01*
X159500000Y-148000000D02*
X147500000Y-148000000D01*
X147500000Y-148000000D02*
X147500000Y-149000000D01*
X147500000Y-149000000D02*
X144500000Y-149000000D01*
X144500000Y-149000000D02*
X144500000Y-144100000D01*
X144500000Y-144100000D02*
X162500000Y-144100000D01*
X162500000Y-144100000D02*
X162500000Y-149000000D01*
D14*
X117565000Y-148580000D02*
X117565000Y-142820000D01*
X118985000Y-148580000D02*
X117565000Y-148580000D01*
X118985000Y-148080000D02*
X118985000Y-148580000D01*
X138015000Y-148080000D02*
X118985000Y-148080000D01*
X138015000Y-148580000D02*
X138015000Y-148080000D01*
X139435000Y-148580000D02*
X138015000Y-148580000D01*
X139435000Y-142820000D02*
X139435000Y-148580000D01*
X117565000Y-140990000D02*
X117565000Y-141300000D01*
X139435000Y-140990000D02*
X117565000Y-140990000D01*
X139435000Y-141300000D02*
X139435000Y-140990000D01*
X143645000Y-134450000D02*
X148845000Y-134450000D01*
X143645000Y-129310000D02*
X143645000Y-134450000D01*
X148845000Y-126710000D02*
X148845000Y-134450000D01*
X143645000Y-129310000D02*
X146245000Y-129310000D01*
X146245000Y-129310000D02*
X146245000Y-126710000D01*
X146245000Y-126710000D02*
X148845000Y-126710000D01*
X143645000Y-128040000D02*
X143645000Y-126710000D01*
X143645000Y-126710000D02*
X144975000Y-126710000D01*
D10*
X116000000Y-81000000D02*
X116000000Y-76100000D01*
X128000000Y-81000000D02*
X116000000Y-81000000D01*
X128000000Y-76100000D02*
X128000000Y-81000000D01*
X125000000Y-76100000D02*
X128000000Y-76100000D01*
X125000000Y-77100000D02*
X125000000Y-76100000D01*
X119000000Y-77100000D02*
X125000000Y-77100000D01*
X119000000Y-76100000D02*
X119000000Y-77100000D01*
X116000000Y-76100000D02*
X119000000Y-76100000D01*
D14*
X110871422Y-91060000D02*
X111388578Y-91060000D01*
X110871422Y-92480000D02*
X111388578Y-92480000D01*
X189458578Y-122410000D02*
X188941422Y-122410000D01*
X189458578Y-120990000D02*
X188941422Y-120990000D01*
X189458578Y-123490000D02*
X188941422Y-123490000D01*
X189458578Y-124910000D02*
X188941422Y-124910000D01*
X112716422Y-125260000D02*
X113233578Y-125260000D01*
X112716422Y-123840000D02*
X113233578Y-123840000D01*
X144080000Y-93440000D02*
X144080000Y-94900000D01*
X140920000Y-93440000D02*
X140920000Y-95600000D01*
X140920000Y-93440000D02*
X141850000Y-93440000D01*
X144080000Y-93440000D02*
X143150000Y-93440000D01*
X122720000Y-98831422D02*
X122720000Y-99348578D01*
X124140000Y-98831422D02*
X124140000Y-99348578D01*
X187310000Y-140158578D02*
X187310000Y-139641422D01*
X185890000Y-140158578D02*
X185890000Y-139641422D01*
X190010000Y-140158578D02*
X190010000Y-139641422D01*
X188590000Y-140158578D02*
X188590000Y-139641422D01*
X185490000Y-132966422D02*
X185490000Y-133483578D01*
X186910000Y-132966422D02*
X186910000Y-133483578D01*
X136041422Y-88910000D02*
X136558578Y-88910000D01*
X136041422Y-87490000D02*
X136558578Y-87490000D01*
X149991422Y-87640000D02*
X150508578Y-87640000D01*
X149991422Y-89060000D02*
X150508578Y-89060000D01*
X136558578Y-91090000D02*
X136041422Y-91090000D01*
X136558578Y-92510000D02*
X136041422Y-92510000D01*
X147610000Y-89308578D02*
X147610000Y-88791422D01*
X146190000Y-89308578D02*
X146190000Y-88791422D01*
X136558578Y-94590000D02*
X136041422Y-94590000D01*
X136558578Y-96010000D02*
X136041422Y-96010000D01*
X142241422Y-96890000D02*
X142758578Y-96890000D01*
X142241422Y-98310000D02*
X142758578Y-98310000D01*
X134840000Y-101291422D02*
X134840000Y-101808578D01*
X136260000Y-101291422D02*
X136260000Y-101808578D01*
X136260000Y-106008578D02*
X136260000Y-105491422D01*
X134840000Y-106008578D02*
X134840000Y-105491422D01*
X158490000Y-129658578D02*
X158490000Y-129141422D01*
X159910000Y-129658578D02*
X159910000Y-129141422D01*
X168890000Y-119968578D02*
X168890000Y-119451422D01*
X170310000Y-119968578D02*
X170310000Y-119451422D01*
X170310000Y-123968578D02*
X170310000Y-123451422D01*
X168890000Y-123968578D02*
X168890000Y-123451422D01*
X155658578Y-129390000D02*
X155141422Y-129390000D01*
X155658578Y-130810000D02*
X155141422Y-130810000D01*
X166241422Y-129390000D02*
X166758578Y-129390000D01*
X166241422Y-130810000D02*
X166758578Y-130810000D01*
X163310000Y-129658578D02*
X163310000Y-129141422D01*
X161890000Y-129658578D02*
X161890000Y-129141422D01*
X157380000Y-119898578D02*
X157380000Y-119381422D01*
X158800000Y-119898578D02*
X158800000Y-119381422D01*
X158800000Y-123998578D02*
X158800000Y-123481422D01*
X157380000Y-123998578D02*
X157380000Y-123481422D01*
X134790000Y-123258578D02*
X134790000Y-122741422D01*
X136210000Y-123258578D02*
X136210000Y-122741422D01*
X136210000Y-135341422D02*
X136210000Y-135858578D01*
X134790000Y-135341422D02*
X134790000Y-135858578D01*
X133410000Y-123258578D02*
X133410000Y-122741422D01*
X131990000Y-123258578D02*
X131990000Y-122741422D01*
X133410000Y-135341422D02*
X133410000Y-135858578D01*
X131990000Y-135341422D02*
X131990000Y-135858578D01*
X129190000Y-123258578D02*
X129190000Y-122741422D01*
X130610000Y-123258578D02*
X130610000Y-122741422D01*
X130610000Y-135341422D02*
X130610000Y-135858578D01*
X129190000Y-135341422D02*
X129190000Y-135858578D01*
X161610000Y-91808578D02*
X161610000Y-91291422D01*
X160190000Y-91808578D02*
X160190000Y-91291422D01*
X125341422Y-87890000D02*
X125858578Y-87890000D01*
X125341422Y-89310000D02*
X125858578Y-89310000D01*
X112910000Y-86758578D02*
X112910000Y-86241422D01*
X114330000Y-86758578D02*
X114330000Y-86241422D01*
X129710000Y-88641422D02*
X129710000Y-89158578D01*
X128290000Y-88641422D02*
X128290000Y-89158578D01*
X128290000Y-84858578D02*
X128290000Y-84341422D01*
X129710000Y-84858578D02*
X129710000Y-84341422D01*
X163990000Y-91758578D02*
X163990000Y-91241422D01*
X165410000Y-91758578D02*
X165410000Y-91241422D01*
X167690000Y-91758578D02*
X167690000Y-91241422D01*
X169110000Y-91758578D02*
X169110000Y-91241422D01*
X171390000Y-91758578D02*
X171390000Y-91241422D01*
X172810000Y-91758578D02*
X172810000Y-91241422D01*
X175090000Y-91758578D02*
X175090000Y-91241422D01*
X176510000Y-91758578D02*
X176510000Y-91241422D01*
X180210000Y-91758578D02*
X180210000Y-91241422D01*
X178790000Y-91758578D02*
X178790000Y-91241422D01*
X183910000Y-91758578D02*
X183910000Y-91241422D01*
X182490000Y-91758578D02*
X182490000Y-91241422D01*
X186190000Y-91758578D02*
X186190000Y-91241422D01*
X187610000Y-91758578D02*
X187610000Y-91241422D01*
X191310000Y-91758578D02*
X191310000Y-91241422D01*
X189890000Y-91758578D02*
X189890000Y-91241422D01*
X182350000Y-77750000D02*
X182350000Y-77100000D01*
X182350000Y-77100000D02*
X188850000Y-77100000D01*
X188850000Y-77100000D02*
X188850000Y-77750000D01*
X182350000Y-83250000D02*
X182350000Y-83900000D01*
X182350000Y-83900000D02*
X188850000Y-83900000D01*
X188850000Y-83900000D02*
X188850000Y-83250000D01*
X182350000Y-81750000D02*
X182350000Y-79250000D01*
X188850000Y-81750000D02*
X188850000Y-79250000D01*
D10*
X125250000Y-93600000D02*
G75*
G03X125250000Y-93600000I-1750000J0D01*
G01*
X125470000Y-115090000D02*
G75*
G03X125470000Y-115090000I-1750000J0D01*
G01*
X118350000Y-118200000D02*
G75*
G03X118350000Y-118200000I-1750000J0D01*
G01*
X188750000Y-117600000D02*
G75*
G03X188750000Y-117600000I-1750000J0D01*
G01*
X193105980Y-117596920D02*
G75*
G03X193105980Y-117596920I-1750000J0D01*
G01*
X180235800Y-138917680D02*
G75*
G03X180235800Y-138917680I-1750000J0D01*
G01*
X183151720Y-117599460D02*
G75*
G03X183151720Y-117599460I-1750000J0D01*
G01*
X184250000Y-141100000D02*
G75*
G03X184250000Y-141100000I-1750000J0D01*
G01*
X195150000Y-141100000D02*
G75*
G03X195150000Y-141100000I-1750000J0D01*
G01*
X155587936Y-112668588D02*
X155587936Y-111668588D01*
X145237936Y-112668588D02*
X145237936Y-111593588D01*
X145237936Y-102318588D02*
X145237936Y-103393588D01*
X155587936Y-102318588D02*
X155587936Y-103393588D01*
X155587936Y-112668588D02*
X154512936Y-112668588D01*
X155587936Y-102318588D02*
X154512936Y-102318588D01*
X145237936Y-102318588D02*
X146312936Y-102318588D01*
X145237936Y-112668588D02*
X146312936Y-112668588D01*
X155587936Y-111668588D02*
X156612936Y-111668588D01*
X120535000Y-93625000D02*
X120535000Y-105125000D01*
X120535000Y-105125000D02*
X112675000Y-105125000D01*
X112675000Y-105125000D02*
X112675000Y-93625000D01*
X112675000Y-93625000D02*
X120535000Y-93625000D01*
D14*
X113190000Y-112735000D02*
X114450000Y-112735000D01*
X120010000Y-112735000D02*
X118750000Y-112735000D01*
X113190000Y-108975000D02*
X113190000Y-112735000D01*
X120010000Y-106725000D02*
X120010000Y-112735000D01*
D10*
X174850000Y-121400000D02*
X175850000Y-120400000D01*
X174850000Y-135800000D02*
X174850000Y-121400000D01*
X182350000Y-135800000D02*
X174850000Y-135800000D01*
X182350000Y-120400000D02*
X182350000Y-135800000D01*
X175850000Y-120400000D02*
X182350000Y-120400000D01*
D14*
X149540000Y-90370000D02*
X149540000Y-91300000D01*
X149540000Y-93530000D02*
X149540000Y-92600000D01*
X149540000Y-93530000D02*
X151700000Y-93530000D01*
X149540000Y-90370000D02*
X151000000Y-90370000D01*
D10*
X139375000Y-89975000D02*
X139375000Y-91375000D01*
X144475000Y-89975000D02*
X144475000Y-85825000D01*
X139325000Y-89975000D02*
X139325000Y-85825000D01*
X144475000Y-89975000D02*
X144330000Y-89975000D01*
X144475000Y-85825000D02*
X144330000Y-85825000D01*
X139325000Y-85825000D02*
X139470000Y-85825000D01*
X139325000Y-89975000D02*
X139375000Y-89975000D01*
D15*
X127516400Y-105478900D02*
X131783600Y-105478900D01*
X131783600Y-100221100D02*
X127516400Y-100221100D01*
D10*
X166825000Y-120325000D02*
X166600000Y-120325000D01*
X166825000Y-123675000D02*
X166525000Y-123675000D01*
X161975000Y-123675000D02*
X162275000Y-123675000D01*
X161975000Y-120325000D02*
X162275000Y-120325000D01*
X166825000Y-120325000D02*
X166825000Y-123675000D01*
X161975000Y-120325000D02*
X161975000Y-123675000D01*
X166600000Y-120325000D02*
X166600000Y-119100000D01*
X150775000Y-119820000D02*
X149550000Y-119820000D01*
X150775000Y-124445000D02*
X154125000Y-124445000D01*
X150775000Y-119595000D02*
X154125000Y-119595000D01*
X150775000Y-124445000D02*
X150775000Y-124145000D01*
X154125000Y-124445000D02*
X154125000Y-124145000D01*
X154125000Y-119595000D02*
X154125000Y-119895000D01*
X150775000Y-119595000D02*
X150775000Y-119820000D01*
X137875000Y-127225000D02*
X137850000Y-127225000D01*
X137875000Y-131375000D02*
X137770000Y-131375000D01*
X127725000Y-131375000D02*
X127830000Y-131375000D01*
X127725000Y-127225000D02*
X127830000Y-127225000D01*
X137875000Y-127225000D02*
X137875000Y-131375000D01*
X127725000Y-127225000D02*
X127725000Y-131375000D01*
X137850000Y-127225000D02*
X137850000Y-125850000D01*
X112900000Y-125900000D02*
X120760000Y-125900000D01*
X112900000Y-137400000D02*
X112900000Y-125900000D01*
X120760000Y-137400000D02*
X112900000Y-137400000D01*
X120760000Y-125900000D02*
X120760000Y-137400000D01*
X121375000Y-89275000D02*
X121375000Y-89225000D01*
X117225000Y-89275000D02*
X117225000Y-89130000D01*
X117225000Y-84125000D02*
X117225000Y-84270000D01*
X121375000Y-84125000D02*
X121375000Y-84270000D01*
X121375000Y-89275000D02*
X117225000Y-89275000D01*
X121375000Y-84125000D02*
X117225000Y-84125000D01*
X121375000Y-89225000D02*
X122775000Y-89225000D01*
X164649867Y-105055288D02*
X164649867Y-113055290D01*
X160649867Y-105055288D02*
X160649867Y-113055290D01*
X160649867Y-105055288D02*
X161049867Y-105055289D01*
X160649867Y-113055290D02*
X161049867Y-113055289D01*
X164649867Y-113055290D02*
X164249867Y-113055289D01*
X164649867Y-105055288D02*
X164249867Y-105055289D01*
D14*
X108700000Y-118435000D02*
X109010000Y-118435000D01*
X109010000Y-118435000D02*
X109010000Y-102565000D01*
X109010000Y-102565000D02*
X108700000Y-102565000D01*
X107180000Y-118435000D02*
X101420000Y-118435000D01*
X101420000Y-118435000D02*
X101420000Y-117015000D01*
X101420000Y-117015000D02*
X101920000Y-117015000D01*
X101920000Y-117015000D02*
X101920000Y-103985000D01*
X101920000Y-103985000D02*
X101420000Y-103985000D01*
X101420000Y-103985000D02*
X101420000Y-102565000D01*
X101420000Y-102565000D02*
X107180000Y-102565000D01*
X101420000Y-123565000D02*
X107180000Y-123565000D01*
X101420000Y-124985000D02*
X101420000Y-123565000D01*
X101920000Y-124985000D02*
X101420000Y-124985000D01*
X101920000Y-138015000D02*
X101920000Y-124985000D01*
X101420000Y-138015000D02*
X101920000Y-138015000D01*
X101420000Y-139435000D02*
X101420000Y-138015000D01*
X107180000Y-139435000D02*
X101420000Y-139435000D01*
X109010000Y-123565000D02*
X108700000Y-123565000D01*
X109010000Y-139435000D02*
X109010000Y-123565000D01*
X108700000Y-139435000D02*
X109010000Y-139435000D01*
X188990000Y-132625000D02*
X189900000Y-132625000D01*
X191300000Y-132625000D02*
X192210000Y-132625000D01*
X188990000Y-135200000D02*
X188990000Y-132625000D01*
X192210000Y-134775000D02*
X192210000Y-132625000D01*
X185330000Y-142670000D02*
X185330000Y-145330000D01*
X187930000Y-142670000D02*
X185330000Y-142670000D01*
X187930000Y-145330000D02*
X185330000Y-145330000D01*
X187930000Y-142670000D02*
X187930000Y-145330000D01*
X189200000Y-142670000D02*
X190530000Y-142670000D01*
X190530000Y-142670000D02*
X190530000Y-144000000D01*
D16*
G36*
X191817039Y-87524978D02*
X191899318Y-87217332D01*
X192173482Y-86590758D01*
X192593275Y-85986490D01*
X193135341Y-85437655D01*
X193181975Y-85398230D01*
X193447321Y-85185568D01*
X193679225Y-85015188D01*
X193847853Y-84907457D01*
X193923370Y-84882740D01*
X193924302Y-84891521D01*
X193870987Y-84962702D01*
X193734039Y-85131084D01*
X193539479Y-85364831D01*
X193467442Y-85450441D01*
X192938873Y-86162867D01*
X192558433Y-86880105D01*
X192324838Y-87616574D01*
X192236807Y-88386691D01*
X192293057Y-89204873D01*
X192492308Y-90085537D01*
X192833276Y-91043103D01*
X192946400Y-91309686D01*
X193101373Y-91678483D01*
X193182557Y-91903585D01*
X193195023Y-91991145D01*
X193143842Y-91947317D01*
X193034085Y-91778254D01*
X192870824Y-91490110D01*
X192659130Y-91089038D01*
X192491458Y-90757666D01*
X192134603Y-89978536D01*
X191893189Y-89292342D01*
X191762760Y-88672445D01*
X191738863Y-88092203D01*
X191817039Y-87524978D01*
X191817039Y-87524978D01*
G37*
X191817039Y-87524978D02*
X191899318Y-87217332D01*
X192173482Y-86590758D01*
X192593275Y-85986490D01*
X193135341Y-85437655D01*
X193181975Y-85398230D01*
X193447321Y-85185568D01*
X193679225Y-85015188D01*
X193847853Y-84907457D01*
X193923370Y-84882740D01*
X193924302Y-84891521D01*
X193870987Y-84962702D01*
X193734039Y-85131084D01*
X193539479Y-85364831D01*
X193467442Y-85450441D01*
X192938873Y-86162867D01*
X192558433Y-86880105D01*
X192324838Y-87616574D01*
X192236807Y-88386691D01*
X192293057Y-89204873D01*
X192492308Y-90085537D01*
X192833276Y-91043103D01*
X192946400Y-91309686D01*
X193101373Y-91678483D01*
X193182557Y-91903585D01*
X193195023Y-91991145D01*
X193143842Y-91947317D01*
X193034085Y-91778254D01*
X192870824Y-91490110D01*
X192659130Y-91089038D01*
X192491458Y-90757666D01*
X192134603Y-89978536D01*
X191893189Y-89292342D01*
X191762760Y-88672445D01*
X191738863Y-88092203D01*
X191817039Y-87524978D01*
G36*
X195208171Y-91412000D02*
X195235224Y-91221456D01*
X195284973Y-91157025D01*
X195305834Y-91159409D01*
X195401847Y-91262111D01*
X195438722Y-91378132D01*
X195510816Y-91521636D01*
X195692722Y-91563156D01*
X196007587Y-91592487D01*
X196221292Y-91668927D01*
X196300663Y-91780568D01*
X196300667Y-91781425D01*
X196275620Y-91841787D01*
X196180418Y-91863041D01*
X195984973Y-91844963D01*
X195659193Y-91787327D01*
X195602167Y-91776225D01*
X195477742Y-91808456D01*
X195454000Y-91901537D01*
X195408815Y-92047642D01*
X195358517Y-92087716D01*
X195378527Y-92138831D01*
X195520276Y-92243855D01*
X195753984Y-92381098D01*
X195781851Y-92396070D01*
X196040806Y-92549682D01*
X196226760Y-92689732D01*
X196300593Y-92786620D01*
X196300667Y-92788624D01*
X196223915Y-92878170D01*
X196019296Y-92978572D01*
X195843136Y-93037659D01*
X195520851Y-93126341D01*
X195327502Y-93161640D01*
X195231449Y-93143933D01*
X195201054Y-93073594D01*
X195200000Y-93045280D01*
X195272943Y-92938358D01*
X195432834Y-92868875D01*
X195702998Y-92802079D01*
X195814036Y-92742903D01*
X195773914Y-92671520D01*
X195590599Y-92568103D01*
X195559834Y-92552833D01*
X195200000Y-92375306D01*
X195200000Y-91749931D01*
X195208171Y-91412000D01*
X195208171Y-91412000D01*
G37*
X195208171Y-91412000D02*
X195235224Y-91221456D01*
X195284973Y-91157025D01*
X195305834Y-91159409D01*
X195401847Y-91262111D01*
X195438722Y-91378132D01*
X195510816Y-91521636D01*
X195692722Y-91563156D01*
X196007587Y-91592487D01*
X196221292Y-91668927D01*
X196300663Y-91780568D01*
X196300667Y-91781425D01*
X196275620Y-91841787D01*
X196180418Y-91863041D01*
X195984973Y-91844963D01*
X195659193Y-91787327D01*
X195602167Y-91776225D01*
X195477742Y-91808456D01*
X195454000Y-91901537D01*
X195408815Y-92047642D01*
X195358517Y-92087716D01*
X195378527Y-92138831D01*
X195520276Y-92243855D01*
X195753984Y-92381098D01*
X195781851Y-92396070D01*
X196040806Y-92549682D01*
X196226760Y-92689732D01*
X196300593Y-92786620D01*
X196300667Y-92788624D01*
X196223915Y-92878170D01*
X196019296Y-92978572D01*
X195843136Y-93037659D01*
X195520851Y-93126341D01*
X195327502Y-93161640D01*
X195231449Y-93143933D01*
X195201054Y-93073594D01*
X195200000Y-93045280D01*
X195272943Y-92938358D01*
X195432834Y-92868875D01*
X195702998Y-92802079D01*
X195814036Y-92742903D01*
X195773914Y-92671520D01*
X195590599Y-92568103D01*
X195559834Y-92552833D01*
X195200000Y-92375306D01*
X195200000Y-91749931D01*
X195208171Y-91412000D01*
G36*
X195213596Y-94343781D02*
X195260668Y-94213756D01*
X195327000Y-94186666D01*
X195430509Y-94256950D01*
X195454000Y-94353084D01*
X195485175Y-94458805D01*
X195604676Y-94525004D01*
X195851465Y-94572166D01*
X195877334Y-94575658D01*
X196163175Y-94635134D01*
X196291210Y-94718818D01*
X196300667Y-94755852D01*
X196268698Y-94826747D01*
X196148218Y-94847907D01*
X195902366Y-94825064D01*
X195877334Y-94821666D01*
X195623201Y-94795050D01*
X195495507Y-94810819D01*
X195455076Y-94876074D01*
X195454000Y-94898388D01*
X195389644Y-95015657D01*
X195327000Y-95033333D01*
X195247135Y-94988014D01*
X195208127Y-94831106D01*
X195200000Y-94610000D01*
X195213596Y-94343781D01*
X195213596Y-94343781D01*
G37*
X195213596Y-94343781D02*
X195260668Y-94213756D01*
X195327000Y-94186666D01*
X195430509Y-94256950D01*
X195454000Y-94353084D01*
X195485175Y-94458805D01*
X195604676Y-94525004D01*
X195851465Y-94572166D01*
X195877334Y-94575658D01*
X196163175Y-94635134D01*
X196291210Y-94718818D01*
X196300667Y-94755852D01*
X196268698Y-94826747D01*
X196148218Y-94847907D01*
X195902366Y-94825064D01*
X195877334Y-94821666D01*
X195623201Y-94795050D01*
X195495507Y-94810819D01*
X195455076Y-94876074D01*
X195454000Y-94898388D01*
X195389644Y-95015657D01*
X195327000Y-95033333D01*
X195247135Y-94988014D01*
X195208127Y-94831106D01*
X195200000Y-94610000D01*
X195213596Y-94343781D01*
G36*
X195243696Y-93382865D02*
X195305834Y-93361588D01*
X195388619Y-93464029D01*
X195411667Y-93594000D01*
X195451982Y-93776081D01*
X195548427Y-93810729D01*
X195664247Y-93692099D01*
X195691596Y-93638526D01*
X195839319Y-93464391D01*
X196028490Y-93439657D01*
X196217372Y-93566231D01*
X196253533Y-93612839D01*
X196367544Y-93823917D01*
X196359270Y-93995081D01*
X196308836Y-94091680D01*
X196207447Y-94172317D01*
X196127410Y-94117074D01*
X196101665Y-93959008D01*
X196110225Y-93892354D01*
X196100631Y-93724282D01*
X196015169Y-93678118D01*
X195899420Y-93757770D01*
X195833910Y-93868672D01*
X195684940Y-94044951D01*
X195484311Y-94087567D01*
X195322933Y-94013958D01*
X195244772Y-93885162D01*
X195204491Y-93698073D01*
X195203621Y-93511153D01*
X195243696Y-93382865D01*
X195243696Y-93382865D01*
G37*
X195243696Y-93382865D02*
X195305834Y-93361588D01*
X195388619Y-93464029D01*
X195411667Y-93594000D01*
X195451982Y-93776081D01*
X195548427Y-93810729D01*
X195664247Y-93692099D01*
X195691596Y-93638526D01*
X195839319Y-93464391D01*
X196028490Y-93439657D01*
X196217372Y-93566231D01*
X196253533Y-93612839D01*
X196367544Y-93823917D01*
X196359270Y-93995081D01*
X196308836Y-94091680D01*
X196207447Y-94172317D01*
X196127410Y-94117074D01*
X196101665Y-93959008D01*
X196110225Y-93892354D01*
X196100631Y-93724282D01*
X196015169Y-93678118D01*
X195899420Y-93757770D01*
X195833910Y-93868672D01*
X195684940Y-94044951D01*
X195484311Y-94087567D01*
X195322933Y-94013958D01*
X195244772Y-93885162D01*
X195204491Y-93698073D01*
X195203621Y-93511153D01*
X195243696Y-93382865D01*
G36*
X195269315Y-95221383D02*
X195348167Y-95204686D01*
X195562794Y-95228444D01*
X195822471Y-95283594D01*
X196060123Y-95352892D01*
X196208676Y-95419093D01*
X196220361Y-95428918D01*
X196315001Y-95618991D01*
X196343677Y-95867669D01*
X196295932Y-96070500D01*
X196160585Y-96169141D01*
X195936812Y-96219599D01*
X195676811Y-96224653D01*
X195432782Y-96187081D01*
X195256923Y-96109665D01*
X195200000Y-96012142D01*
X195258109Y-95952474D01*
X195446093Y-95935290D01*
X195673009Y-95947627D01*
X195940789Y-95965826D01*
X196078448Y-95953735D01*
X196124415Y-95897317D01*
X196117509Y-95785260D01*
X196075283Y-95661007D01*
X195963762Y-95582779D01*
X195739613Y-95525202D01*
X195644500Y-95508259D01*
X195358155Y-95438605D01*
X195213690Y-95354235D01*
X195200000Y-95317759D01*
X195269315Y-95221383D01*
X195269315Y-95221383D01*
G37*
X195269315Y-95221383D02*
X195348167Y-95204686D01*
X195562794Y-95228444D01*
X195822471Y-95283594D01*
X196060123Y-95352892D01*
X196208676Y-95419093D01*
X196220361Y-95428918D01*
X196315001Y-95618991D01*
X196343677Y-95867669D01*
X196295932Y-96070500D01*
X196160585Y-96169141D01*
X195936812Y-96219599D01*
X195676811Y-96224653D01*
X195432782Y-96187081D01*
X195256923Y-96109665D01*
X195200000Y-96012142D01*
X195258109Y-95952474D01*
X195446093Y-95935290D01*
X195673009Y-95947627D01*
X195940789Y-95965826D01*
X196078448Y-95953735D01*
X196124415Y-95897317D01*
X196117509Y-95785260D01*
X196075283Y-95661007D01*
X195963762Y-95582779D01*
X195739613Y-95525202D01*
X195644500Y-95508259D01*
X195358155Y-95438605D01*
X195213690Y-95354235D01*
X195200000Y-95317759D01*
X195269315Y-95221383D01*
G36*
X193955662Y-91796057D02*
X194009837Y-90181699D01*
X194095813Y-88413779D01*
X194213673Y-86493471D01*
X194231663Y-86228000D01*
X194277680Y-85575054D01*
X194328602Y-84884444D01*
X194380553Y-84206667D01*
X194429655Y-83592222D01*
X194472030Y-83091607D01*
X194475458Y-83053000D01*
X194588801Y-81783000D01*
X194534567Y-83688000D01*
X194514732Y-84504920D01*
X194499324Y-85390947D01*
X194488234Y-86326118D01*
X194481357Y-87290473D01*
X194478585Y-88264050D01*
X194479811Y-89226887D01*
X194484927Y-90159022D01*
X194493828Y-91040493D01*
X194506404Y-91851340D01*
X194522551Y-92571599D01*
X194542159Y-93181310D01*
X194565123Y-93660511D01*
X194589767Y-93975000D01*
X194709425Y-94949560D01*
X194842204Y-95762254D01*
X194990644Y-96420220D01*
X195157283Y-96930594D01*
X195344661Y-97300513D01*
X195555318Y-97537114D01*
X195791793Y-97647533D01*
X195900189Y-97658000D01*
X196142824Y-97608075D01*
X196386887Y-97487500D01*
X196393430Y-97482901D01*
X196545554Y-97384737D01*
X196613634Y-97374275D01*
X196595003Y-97464724D01*
X196486997Y-97669295D01*
X196289745Y-97996666D01*
X195999938Y-98425374D01*
X195705182Y-98789208D01*
X195429932Y-99061715D01*
X195198643Y-99216441D01*
X195144878Y-99235108D01*
X194885570Y-99221021D01*
X194657240Y-99041618D01*
X194459968Y-98698074D01*
X194293839Y-98191565D01*
X194158934Y-97523266D01*
X194055336Y-96694353D01*
X193983127Y-95706000D01*
X193942390Y-94559382D01*
X193933208Y-93255677D01*
X193955662Y-91796057D01*
X193955662Y-91796057D01*
G37*
X193955662Y-91796057D02*
X194009837Y-90181699D01*
X194095813Y-88413779D01*
X194213673Y-86493471D01*
X194231663Y-86228000D01*
X194277680Y-85575054D01*
X194328602Y-84884444D01*
X194380553Y-84206667D01*
X194429655Y-83592222D01*
X194472030Y-83091607D01*
X194475458Y-83053000D01*
X194588801Y-81783000D01*
X194534567Y-83688000D01*
X194514732Y-84504920D01*
X194499324Y-85390947D01*
X194488234Y-86326118D01*
X194481357Y-87290473D01*
X194478585Y-88264050D01*
X194479811Y-89226887D01*
X194484927Y-90159022D01*
X194493828Y-91040493D01*
X194506404Y-91851340D01*
X194522551Y-92571599D01*
X194542159Y-93181310D01*
X194565123Y-93660511D01*
X194589767Y-93975000D01*
X194709425Y-94949560D01*
X194842204Y-95762254D01*
X194990644Y-96420220D01*
X195157283Y-96930594D01*
X195344661Y-97300513D01*
X195555318Y-97537114D01*
X195791793Y-97647533D01*
X195900189Y-97658000D01*
X196142824Y-97608075D01*
X196386887Y-97487500D01*
X196393430Y-97482901D01*
X196545554Y-97384737D01*
X196613634Y-97374275D01*
X196595003Y-97464724D01*
X196486997Y-97669295D01*
X196289745Y-97996666D01*
X195999938Y-98425374D01*
X195705182Y-98789208D01*
X195429932Y-99061715D01*
X195198643Y-99216441D01*
X195144878Y-99235108D01*
X194885570Y-99221021D01*
X194657240Y-99041618D01*
X194459968Y-98698074D01*
X194293839Y-98191565D01*
X194158934Y-97523266D01*
X194055336Y-96694353D01*
X193983127Y-95706000D01*
X193942390Y-94559382D01*
X193933208Y-93255677D01*
X193955662Y-91796057D01*
G36*
X194794884Y-86573384D02*
X194876699Y-85806905D01*
X195021139Y-85135679D01*
X195062989Y-85000333D01*
X195319973Y-84363721D01*
X195617975Y-83868334D01*
X195948364Y-83518625D01*
X196302511Y-83319048D01*
X196671786Y-83274056D01*
X197047560Y-83388103D01*
X197421203Y-83665643D01*
X197497501Y-83743941D01*
X197819800Y-84203294D01*
X198061745Y-84785672D01*
X198216518Y-85461566D01*
X198277305Y-86201469D01*
X198239577Y-86956278D01*
X198175619Y-87348741D01*
X198080150Y-87754886D01*
X197994726Y-88026958D01*
X197830908Y-88395756D01*
X197611585Y-88797258D01*
X197368294Y-89180836D01*
X197132570Y-89495862D01*
X196979358Y-89657000D01*
X196785501Y-89826333D01*
X196914686Y-89572333D01*
X197177412Y-88917245D01*
X197357303Y-88173870D01*
X197452579Y-87384552D01*
X197461459Y-86591634D01*
X197382163Y-85837458D01*
X197212909Y-85164368D01*
X197110870Y-84907861D01*
X196868059Y-84481482D01*
X196608225Y-84219786D01*
X196339425Y-84119991D01*
X196069717Y-84179314D01*
X195807160Y-84394973D01*
X195559810Y-84764185D01*
X195335726Y-85284169D01*
X195249350Y-85550666D01*
X195075229Y-86366797D01*
X195002743Y-87269602D01*
X195030587Y-88211306D01*
X195157453Y-89144134D01*
X195370601Y-89985111D01*
X195473953Y-90317390D01*
X195549913Y-90582869D01*
X195588382Y-90745026D01*
X195589647Y-90777242D01*
X195535450Y-90734995D01*
X195448737Y-90561425D01*
X195340844Y-90288765D01*
X195223111Y-89949248D01*
X195106876Y-89575106D01*
X195003478Y-89198572D01*
X194941034Y-88933343D01*
X194825467Y-88187703D01*
X194777279Y-87384017D01*
X194794884Y-86573384D01*
X194794884Y-86573384D01*
G37*
X194794884Y-86573384D02*
X194876699Y-85806905D01*
X195021139Y-85135679D01*
X195062989Y-85000333D01*
X195319973Y-84363721D01*
X195617975Y-83868334D01*
X195948364Y-83518625D01*
X196302511Y-83319048D01*
X196671786Y-83274056D01*
X197047560Y-83388103D01*
X197421203Y-83665643D01*
X197497501Y-83743941D01*
X197819800Y-84203294D01*
X198061745Y-84785672D01*
X198216518Y-85461566D01*
X198277305Y-86201469D01*
X198239577Y-86956278D01*
X198175619Y-87348741D01*
X198080150Y-87754886D01*
X197994726Y-88026958D01*
X197830908Y-88395756D01*
X197611585Y-88797258D01*
X197368294Y-89180836D01*
X197132570Y-89495862D01*
X196979358Y-89657000D01*
X196785501Y-89826333D01*
X196914686Y-89572333D01*
X197177412Y-88917245D01*
X197357303Y-88173870D01*
X197452579Y-87384552D01*
X197461459Y-86591634D01*
X197382163Y-85837458D01*
X197212909Y-85164368D01*
X197110870Y-84907861D01*
X196868059Y-84481482D01*
X196608225Y-84219786D01*
X196339425Y-84119991D01*
X196069717Y-84179314D01*
X195807160Y-84394973D01*
X195559810Y-84764185D01*
X195335726Y-85284169D01*
X195249350Y-85550666D01*
X195075229Y-86366797D01*
X195002743Y-87269602D01*
X195030587Y-88211306D01*
X195157453Y-89144134D01*
X195370601Y-89985111D01*
X195473953Y-90317390D01*
X195549913Y-90582869D01*
X195588382Y-90745026D01*
X195589647Y-90777242D01*
X195535450Y-90734995D01*
X195448737Y-90561425D01*
X195340844Y-90288765D01*
X195223111Y-89949248D01*
X195106876Y-89575106D01*
X195003478Y-89198572D01*
X194941034Y-88933343D01*
X194825467Y-88187703D01*
X194777279Y-87384017D01*
X194794884Y-86573384D01*
G36*
X196159313Y-89851583D02*
X196293627Y-90035010D01*
X196478048Y-90305292D01*
X196693760Y-90633442D01*
X196921948Y-90990474D01*
X197143795Y-91347401D01*
X197340486Y-91675235D01*
X197475489Y-91912379D01*
X197842640Y-92659592D01*
X198121038Y-93389034D01*
X198305144Y-94077050D01*
X198389424Y-94699988D01*
X198368339Y-95234193D01*
X198310469Y-95479657D01*
X198064277Y-95963131D01*
X197672205Y-96364541D01*
X197200429Y-96650449D01*
X196933420Y-96765497D01*
X196697845Y-96848173D01*
X196518973Y-96894075D01*
X196422074Y-96898801D01*
X196432418Y-96857950D01*
X196575274Y-96767121D01*
X196597000Y-96755551D01*
X197060842Y-96422360D01*
X197434930Y-95973612D01*
X197514921Y-95837666D01*
X197596448Y-95664575D01*
X197649418Y-95479985D01*
X197679376Y-95242995D01*
X197691869Y-94912704D01*
X197692887Y-94525333D01*
X197685070Y-94063087D01*
X197660514Y-93707723D01*
X197609661Y-93396941D01*
X197522955Y-93068442D01*
X197420125Y-92747333D01*
X197274784Y-92354308D01*
X197074941Y-91872265D01*
X196846511Y-91361207D01*
X196615408Y-90881137D01*
X196606512Y-90863500D01*
X196414671Y-90479660D01*
X196257028Y-90155966D01*
X196146240Y-89919073D01*
X196094964Y-89795636D01*
X196093923Y-89784000D01*
X196159313Y-89851583D01*
X196159313Y-89851583D01*
G37*
X196159313Y-89851583D02*
X196293627Y-90035010D01*
X196478048Y-90305292D01*
X196693760Y-90633442D01*
X196921948Y-90990474D01*
X197143795Y-91347401D01*
X197340486Y-91675235D01*
X197475489Y-91912379D01*
X197842640Y-92659592D01*
X198121038Y-93389034D01*
X198305144Y-94077050D01*
X198389424Y-94699988D01*
X198368339Y-95234193D01*
X198310469Y-95479657D01*
X198064277Y-95963131D01*
X197672205Y-96364541D01*
X197200429Y-96650449D01*
X196933420Y-96765497D01*
X196697845Y-96848173D01*
X196518973Y-96894075D01*
X196422074Y-96898801D01*
X196432418Y-96857950D01*
X196575274Y-96767121D01*
X196597000Y-96755551D01*
X197060842Y-96422360D01*
X197434930Y-95973612D01*
X197514921Y-95837666D01*
X197596448Y-95664575D01*
X197649418Y-95479985D01*
X197679376Y-95242995D01*
X197691869Y-94912704D01*
X197692887Y-94525333D01*
X197685070Y-94063087D01*
X197660514Y-93707723D01*
X197609661Y-93396941D01*
X197522955Y-93068442D01*
X197420125Y-92747333D01*
X197274784Y-92354308D01*
X197074941Y-91872265D01*
X196846511Y-91361207D01*
X196615408Y-90881137D01*
X196606512Y-90863500D01*
X196414671Y-90479660D01*
X196257028Y-90155966D01*
X196146240Y-89919073D01*
X196094964Y-89795636D01*
X196093923Y-89784000D01*
X196159313Y-89851583D01*
D10*
X167808660Y-140691715D02*
X168618184Y-140691715D01*
X168713422Y-140644096D01*
X168761041Y-140596477D01*
X168808660Y-140501239D01*
X168808660Y-140310762D01*
X168761041Y-140215524D01*
X168713422Y-140167905D01*
X168618184Y-140120286D01*
X167808660Y-140120286D01*
X168808660Y-139120286D02*
X168808660Y-139691715D01*
X168808660Y-139406000D02*
X167808660Y-139406000D01*
X167951518Y-139501239D01*
X168046756Y-139596477D01*
X168094375Y-139691715D01*
X168808660Y-138167905D02*
X168808660Y-138739334D01*
X168808660Y-138453620D02*
X167808660Y-138453620D01*
X167951518Y-138548858D01*
X168046756Y-138644096D01*
X168094375Y-138739334D01*
X156857250Y-135676900D02*
X156857250Y-134676900D01*
X156857250Y-135153091D02*
X157428679Y-135153091D01*
X157428679Y-135676900D02*
X157428679Y-134676900D01*
X157809631Y-134676900D02*
X158476298Y-135676900D01*
X158476298Y-134676900D02*
X157809631Y-135676900D01*
X159381060Y-135676900D02*
X158809631Y-135676900D01*
X159095345Y-135676900D02*
X159095345Y-134676900D01*
X159000107Y-134819758D01*
X158904869Y-134914996D01*
X158809631Y-134962615D01*
X160333440Y-135676900D02*
X159762012Y-135676900D01*
X160047726Y-135676900D02*
X160047726Y-134676900D01*
X159952488Y-134819758D01*
X159857250Y-134914996D01*
X159762012Y-134962615D01*
X160904869Y-135105472D02*
X160809631Y-135057853D01*
X160762012Y-135010234D01*
X160714393Y-134914996D01*
X160714393Y-134867377D01*
X160762012Y-134772139D01*
X160809631Y-134724520D01*
X160904869Y-134676900D01*
X161095345Y-134676900D01*
X161190583Y-134724520D01*
X161238202Y-134772139D01*
X161285821Y-134867377D01*
X161285821Y-134914996D01*
X161238202Y-135010234D01*
X161190583Y-135057853D01*
X161095345Y-135105472D01*
X160904869Y-135105472D01*
X160809631Y-135153091D01*
X160762012Y-135200710D01*
X160714393Y-135295948D01*
X160714393Y-135486424D01*
X160762012Y-135581662D01*
X160809631Y-135629281D01*
X160904869Y-135676900D01*
X161095345Y-135676900D01*
X161190583Y-135629281D01*
X161238202Y-135581662D01*
X161285821Y-135486424D01*
X161285821Y-135295948D01*
X161238202Y-135200710D01*
X161190583Y-135153091D01*
X161095345Y-135105472D01*
X161857250Y-135105472D02*
X161762012Y-135057853D01*
X161714393Y-135010234D01*
X161666774Y-134914996D01*
X161666774Y-134867377D01*
X161714393Y-134772139D01*
X161762012Y-134724520D01*
X161857250Y-134676900D01*
X162047726Y-134676900D01*
X162142964Y-134724520D01*
X162190583Y-134772139D01*
X162238202Y-134867377D01*
X162238202Y-134914996D01*
X162190583Y-135010234D01*
X162142964Y-135057853D01*
X162047726Y-135105472D01*
X161857250Y-135105472D01*
X161762012Y-135153091D01*
X161714393Y-135200710D01*
X161666774Y-135295948D01*
X161666774Y-135486424D01*
X161714393Y-135581662D01*
X161762012Y-135629281D01*
X161857250Y-135676900D01*
X162047726Y-135676900D01*
X162142964Y-135629281D01*
X162190583Y-135581662D01*
X162238202Y-135486424D01*
X162238202Y-135295948D01*
X162190583Y-135200710D01*
X162142964Y-135153091D01*
X162047726Y-135105472D01*
X163000107Y-135153091D02*
X162666774Y-135153091D01*
X162666774Y-135676900D02*
X162666774Y-134676900D01*
X163142964Y-134676900D01*
X163523917Y-135676900D02*
X163523917Y-134676900D01*
X164095345Y-135676900D01*
X164095345Y-134676900D01*
X165047726Y-135676900D02*
X164571536Y-135676900D01*
X164571536Y-134676900D01*
X188700980Y-110056253D02*
X189415266Y-110056253D01*
X189558123Y-110103872D01*
X189653361Y-110199110D01*
X189700980Y-110341967D01*
X189700980Y-110437205D01*
X188796219Y-109627681D02*
X188748600Y-109580062D01*
X188700980Y-109484824D01*
X188700980Y-109246729D01*
X188748600Y-109151491D01*
X188796219Y-109103872D01*
X188891457Y-109056253D01*
X188986695Y-109056253D01*
X189129552Y-109103872D01*
X189700980Y-109675300D01*
X189700980Y-109056253D01*
X124781060Y-109216723D02*
X125495346Y-109216723D01*
X125638203Y-109264342D01*
X125733441Y-109359580D01*
X125781060Y-109502438D01*
X125781060Y-109597676D01*
X125781060Y-108216723D02*
X125781060Y-108788152D01*
X125781060Y-108502438D02*
X124781060Y-108502438D01*
X124923918Y-108597676D01*
X125019156Y-108692914D01*
X125066775Y-108788152D01*
X125114394Y-107359580D02*
X125781060Y-107359580D01*
X124733441Y-107597676D02*
X125447727Y-107835771D01*
X125447727Y-107216723D01*
X125504761Y-83147619D02*
X125409523Y-83100000D01*
X125314285Y-83004761D01*
X125171428Y-82861904D01*
X125076190Y-82814285D01*
X124980952Y-82814285D01*
X125028571Y-83052380D02*
X124933333Y-83004761D01*
X124838095Y-82909523D01*
X124790476Y-82719047D01*
X124790476Y-82385714D01*
X124838095Y-82195238D01*
X124933333Y-82100000D01*
X125028571Y-82052380D01*
X125219047Y-82052380D01*
X125314285Y-82100000D01*
X125409523Y-82195238D01*
X125457142Y-82385714D01*
X125457142Y-82719047D01*
X125409523Y-82909523D01*
X125314285Y-83004761D01*
X125219047Y-83052380D01*
X125028571Y-83052380D01*
X126314285Y-82385714D02*
X126314285Y-83052380D01*
X126076190Y-82004761D02*
X125838095Y-82719047D01*
X126457142Y-82719047D01*
X189402380Y-96764285D02*
X188402380Y-96764285D01*
X188402380Y-96526190D01*
X188450000Y-96383333D01*
X188545238Y-96288095D01*
X188640476Y-96240476D01*
X188830952Y-96192857D01*
X188973809Y-96192857D01*
X189164285Y-96240476D01*
X189259523Y-96288095D01*
X189354761Y-96383333D01*
X189402380Y-96526190D01*
X189402380Y-96764285D01*
X189402380Y-95240476D02*
X189402380Y-95811904D01*
X189402380Y-95526190D02*
X188402380Y-95526190D01*
X188545238Y-95621428D01*
X188640476Y-95716666D01*
X188688095Y-95811904D01*
X188402380Y-94907142D02*
X188402380Y-94288095D01*
X188783333Y-94621428D01*
X188783333Y-94478571D01*
X188830952Y-94383333D01*
X188878571Y-94335714D01*
X188973809Y-94288095D01*
X189211904Y-94288095D01*
X189307142Y-94335714D01*
X189354761Y-94383333D01*
X189402380Y-94478571D01*
X189402380Y-94764285D01*
X189354761Y-94859523D01*
X189307142Y-94907142D01*
X165357142Y-87207142D02*
X165309523Y-87254761D01*
X165166666Y-87302380D01*
X165071428Y-87302380D01*
X164928571Y-87254761D01*
X164833333Y-87159523D01*
X164785714Y-87064285D01*
X164738095Y-86873809D01*
X164738095Y-86730952D01*
X164785714Y-86540476D01*
X164833333Y-86445238D01*
X164928571Y-86350000D01*
X165071428Y-86302380D01*
X165166666Y-86302380D01*
X165309523Y-86350000D01*
X165357142Y-86397619D01*
X166261904Y-86302380D02*
X165785714Y-86302380D01*
X165738095Y-86778571D01*
X165785714Y-86730952D01*
X165880952Y-86683333D01*
X166119047Y-86683333D01*
X166214285Y-86730952D01*
X166261904Y-86778571D01*
X166309523Y-86873809D01*
X166309523Y-87111904D01*
X166261904Y-87207142D01*
X166214285Y-87254761D01*
X166119047Y-87302380D01*
X165880952Y-87302380D01*
X165785714Y-87254761D01*
X165738095Y-87207142D01*
X166642857Y-86302380D02*
X167261904Y-86302380D01*
X166928571Y-86683333D01*
X167071428Y-86683333D01*
X167166666Y-86730952D01*
X167214285Y-86778571D01*
X167261904Y-86873809D01*
X167261904Y-87111904D01*
X167214285Y-87207142D01*
X167166666Y-87254761D01*
X167071428Y-87302380D01*
X166785714Y-87302380D01*
X166690476Y-87254761D01*
X166642857Y-87207142D01*
X174357142Y-87207142D02*
X174309523Y-87254761D01*
X174166666Y-87302380D01*
X174071428Y-87302380D01*
X173928571Y-87254761D01*
X173833333Y-87159523D01*
X173785714Y-87064285D01*
X173738095Y-86873809D01*
X173738095Y-86730952D01*
X173785714Y-86540476D01*
X173833333Y-86445238D01*
X173928571Y-86350000D01*
X174071428Y-86302380D01*
X174166666Y-86302380D01*
X174309523Y-86350000D01*
X174357142Y-86397619D01*
X175261904Y-86302380D02*
X174785714Y-86302380D01*
X174738095Y-86778571D01*
X174785714Y-86730952D01*
X174880952Y-86683333D01*
X175119047Y-86683333D01*
X175214285Y-86730952D01*
X175261904Y-86778571D01*
X175309523Y-86873809D01*
X175309523Y-87111904D01*
X175261904Y-87207142D01*
X175214285Y-87254761D01*
X175119047Y-87302380D01*
X174880952Y-87302380D01*
X174785714Y-87254761D01*
X174738095Y-87207142D01*
X176166666Y-86635714D02*
X176166666Y-87302380D01*
X175928571Y-86254761D02*
X175690476Y-86969047D01*
X176309523Y-86969047D01*
X168357142Y-88552380D02*
X168023809Y-88076190D01*
X167785714Y-88552380D02*
X167785714Y-87552380D01*
X168166666Y-87552380D01*
X168261904Y-87600000D01*
X168309523Y-87647619D01*
X168357142Y-87742857D01*
X168357142Y-87885714D01*
X168309523Y-87980952D01*
X168261904Y-88028571D01*
X168166666Y-88076190D01*
X167785714Y-88076190D01*
X169261904Y-87552380D02*
X168785714Y-87552380D01*
X168738095Y-88028571D01*
X168785714Y-87980952D01*
X168880952Y-87933333D01*
X169119047Y-87933333D01*
X169214285Y-87980952D01*
X169261904Y-88028571D01*
X169309523Y-88123809D01*
X169309523Y-88361904D01*
X169261904Y-88457142D01*
X169214285Y-88504761D01*
X169119047Y-88552380D01*
X168880952Y-88552380D01*
X168785714Y-88504761D01*
X168738095Y-88457142D01*
X169642857Y-87552380D02*
X170309523Y-87552380D01*
X169880952Y-88552380D01*
X171357142Y-88544880D02*
X171023809Y-88068690D01*
X170785714Y-88544880D02*
X170785714Y-87544880D01*
X171166666Y-87544880D01*
X171261904Y-87592500D01*
X171309523Y-87640119D01*
X171357142Y-87735357D01*
X171357142Y-87878214D01*
X171309523Y-87973452D01*
X171261904Y-88021071D01*
X171166666Y-88068690D01*
X170785714Y-88068690D01*
X172261904Y-87544880D02*
X171785714Y-87544880D01*
X171738095Y-88021071D01*
X171785714Y-87973452D01*
X171880952Y-87925833D01*
X172119047Y-87925833D01*
X172214285Y-87973452D01*
X172261904Y-88021071D01*
X172309523Y-88116309D01*
X172309523Y-88354404D01*
X172261904Y-88449642D01*
X172214285Y-88497261D01*
X172119047Y-88544880D01*
X171880952Y-88544880D01*
X171785714Y-88497261D01*
X171738095Y-88449642D01*
X172880952Y-87973452D02*
X172785714Y-87925833D01*
X172738095Y-87878214D01*
X172690476Y-87782976D01*
X172690476Y-87735357D01*
X172738095Y-87640119D01*
X172785714Y-87592500D01*
X172880952Y-87544880D01*
X173071428Y-87544880D01*
X173166666Y-87592500D01*
X173214285Y-87640119D01*
X173261904Y-87735357D01*
X173261904Y-87782976D01*
X173214285Y-87878214D01*
X173166666Y-87925833D01*
X173071428Y-87973452D01*
X172880952Y-87973452D01*
X172785714Y-88021071D01*
X172738095Y-88068690D01*
X172690476Y-88163928D01*
X172690476Y-88354404D01*
X172738095Y-88449642D01*
X172785714Y-88497261D01*
X172880952Y-88544880D01*
X173071428Y-88544880D01*
X173166666Y-88497261D01*
X173214285Y-88449642D01*
X173261904Y-88354404D01*
X173261904Y-88163928D01*
X173214285Y-88068690D01*
X173166666Y-88021071D01*
X173071428Y-87973452D01*
X178357142Y-83357142D02*
X178309523Y-83404761D01*
X178166666Y-83452380D01*
X178071428Y-83452380D01*
X177928571Y-83404761D01*
X177833333Y-83309523D01*
X177785714Y-83214285D01*
X177738095Y-83023809D01*
X177738095Y-82880952D01*
X177785714Y-82690476D01*
X177833333Y-82595238D01*
X177928571Y-82500000D01*
X178071428Y-82452380D01*
X178166666Y-82452380D01*
X178309523Y-82500000D01*
X178357142Y-82547619D01*
X179309523Y-83452380D02*
X178738095Y-83452380D01*
X179023809Y-83452380D02*
X179023809Y-82452380D01*
X178928571Y-82595238D01*
X178833333Y-82690476D01*
X178738095Y-82738095D01*
X180261904Y-83452380D02*
X179690476Y-83452380D01*
X179976190Y-83452380D02*
X179976190Y-82452380D01*
X179880952Y-82595238D01*
X179785714Y-82690476D01*
X179690476Y-82738095D01*
X168265878Y-107849508D02*
X168313497Y-107897127D01*
X168361116Y-108039984D01*
X168361116Y-108135222D01*
X168313497Y-108278079D01*
X168218259Y-108373317D01*
X168123021Y-108420936D01*
X167932545Y-108468555D01*
X167789688Y-108468555D01*
X167599212Y-108420936D01*
X167503974Y-108373317D01*
X167408736Y-108278079D01*
X167361116Y-108135222D01*
X167361116Y-108039984D01*
X167408736Y-107897127D01*
X167456355Y-107849508D01*
X168361116Y-106897127D02*
X168361116Y-107468555D01*
X168361116Y-107182841D02*
X167361116Y-107182841D01*
X167503974Y-107278079D01*
X167599212Y-107373317D01*
X167646831Y-107468555D01*
X167361116Y-106563793D02*
X167361116Y-105944746D01*
X167742069Y-106278079D01*
X167742069Y-106135222D01*
X167789688Y-106039984D01*
X167837307Y-105992365D01*
X167932545Y-105944746D01*
X168170640Y-105944746D01*
X168265878Y-105992365D01*
X168313497Y-106039984D01*
X168361116Y-106135222D01*
X168361116Y-106420936D01*
X168313497Y-106516174D01*
X168265878Y-106563793D01*
X168242224Y-111578912D02*
X168289843Y-111626531D01*
X168337462Y-111769388D01*
X168337462Y-111864626D01*
X168289843Y-112007483D01*
X168194605Y-112102721D01*
X168099367Y-112150340D01*
X167908891Y-112197959D01*
X167766034Y-112197959D01*
X167575558Y-112150340D01*
X167480320Y-112102721D01*
X167385082Y-112007483D01*
X167337462Y-111864626D01*
X167337462Y-111769388D01*
X167385082Y-111626531D01*
X167432701Y-111578912D01*
X168337462Y-110626531D02*
X168337462Y-111197959D01*
X168337462Y-110912245D02*
X167337462Y-110912245D01*
X167480320Y-111007483D01*
X167575558Y-111102721D01*
X167623177Y-111197959D01*
X167670796Y-109769388D02*
X168337462Y-109769388D01*
X167289843Y-110007483D02*
X168004129Y-110245578D01*
X168004129Y-109626531D01*
X121257142Y-108757142D02*
X121209523Y-108804761D01*
X121066666Y-108852380D01*
X120971428Y-108852380D01*
X120828571Y-108804761D01*
X120733333Y-108709523D01*
X120685714Y-108614285D01*
X120638095Y-108423809D01*
X120638095Y-108280952D01*
X120685714Y-108090476D01*
X120733333Y-107995238D01*
X120828571Y-107900000D01*
X120971428Y-107852380D01*
X121066666Y-107852380D01*
X121209523Y-107900000D01*
X121257142Y-107947619D01*
X122209523Y-108852380D02*
X121638095Y-108852380D01*
X121923809Y-108852380D02*
X121923809Y-107852380D01*
X121828571Y-107995238D01*
X121733333Y-108090476D01*
X121638095Y-108138095D01*
X122780952Y-108280952D02*
X122685714Y-108233333D01*
X122638095Y-108185714D01*
X122590476Y-108090476D01*
X122590476Y-108042857D01*
X122638095Y-107947619D01*
X122685714Y-107900000D01*
X122780952Y-107852380D01*
X122971428Y-107852380D01*
X123066666Y-107900000D01*
X123114285Y-107947619D01*
X123161904Y-108042857D01*
X123161904Y-108090476D01*
X123114285Y-108185714D01*
X123066666Y-108233333D01*
X122971428Y-108280952D01*
X122780952Y-108280952D01*
X122685714Y-108328571D01*
X122638095Y-108376190D01*
X122590476Y-108471428D01*
X122590476Y-108661904D01*
X122638095Y-108757142D01*
X122685714Y-108804761D01*
X122780952Y-108852380D01*
X122971428Y-108852380D01*
X123066666Y-108804761D01*
X123114285Y-108757142D01*
X123161904Y-108661904D01*
X123161904Y-108471428D01*
X123114285Y-108376190D01*
X123066666Y-108328571D01*
X122971428Y-108280952D01*
X185457142Y-121057142D02*
X185409523Y-121104761D01*
X185266666Y-121152380D01*
X185171428Y-121152380D01*
X185028571Y-121104761D01*
X184933333Y-121009523D01*
X184885714Y-120914285D01*
X184838095Y-120723809D01*
X184838095Y-120580952D01*
X184885714Y-120390476D01*
X184933333Y-120295238D01*
X185028571Y-120200000D01*
X185171428Y-120152380D01*
X185266666Y-120152380D01*
X185409523Y-120200000D01*
X185457142Y-120247619D01*
X186409523Y-121152380D02*
X185838095Y-121152380D01*
X186123809Y-121152380D02*
X186123809Y-120152380D01*
X186028571Y-120295238D01*
X185933333Y-120390476D01*
X185838095Y-120438095D01*
X186885714Y-121152380D02*
X187076190Y-121152380D01*
X187171428Y-121104761D01*
X187219047Y-121057142D01*
X187314285Y-120914285D01*
X187361904Y-120723809D01*
X187361904Y-120342857D01*
X187314285Y-120247619D01*
X187266666Y-120200000D01*
X187171428Y-120152380D01*
X186980952Y-120152380D01*
X186885714Y-120200000D01*
X186838095Y-120247619D01*
X186790476Y-120342857D01*
X186790476Y-120580952D01*
X186838095Y-120676190D01*
X186885714Y-120723809D01*
X186980952Y-120771428D01*
X187171428Y-120771428D01*
X187266666Y-120723809D01*
X187314285Y-120676190D01*
X187361904Y-120580952D01*
X191657142Y-120957142D02*
X191609523Y-121004761D01*
X191466666Y-121052380D01*
X191371428Y-121052380D01*
X191228571Y-121004761D01*
X191133333Y-120909523D01*
X191085714Y-120814285D01*
X191038095Y-120623809D01*
X191038095Y-120480952D01*
X191085714Y-120290476D01*
X191133333Y-120195238D01*
X191228571Y-120100000D01*
X191371428Y-120052380D01*
X191466666Y-120052380D01*
X191609523Y-120100000D01*
X191657142Y-120147619D01*
X192038095Y-120147619D02*
X192085714Y-120100000D01*
X192180952Y-120052380D01*
X192419047Y-120052380D01*
X192514285Y-120100000D01*
X192561904Y-120147619D01*
X192609523Y-120242857D01*
X192609523Y-120338095D01*
X192561904Y-120480952D01*
X191990476Y-121052380D01*
X192609523Y-121052380D01*
X193228571Y-120052380D02*
X193323809Y-120052380D01*
X193419047Y-120100000D01*
X193466666Y-120147619D01*
X193514285Y-120242857D01*
X193561904Y-120433333D01*
X193561904Y-120671428D01*
X193514285Y-120861904D01*
X193466666Y-120957142D01*
X193419047Y-121004761D01*
X193323809Y-121052380D01*
X193228571Y-121052380D01*
X193133333Y-121004761D01*
X193085714Y-120957142D01*
X193038095Y-120861904D01*
X192990476Y-120671428D01*
X192990476Y-120433333D01*
X193038095Y-120242857D01*
X193085714Y-120147619D01*
X193133333Y-120100000D01*
X193228571Y-120052380D01*
X186407142Y-130857142D02*
X186359523Y-130904761D01*
X186216666Y-130952380D01*
X186121428Y-130952380D01*
X185978571Y-130904761D01*
X185883333Y-130809523D01*
X185835714Y-130714285D01*
X185788095Y-130523809D01*
X185788095Y-130380952D01*
X185835714Y-130190476D01*
X185883333Y-130095238D01*
X185978571Y-130000000D01*
X186121428Y-129952380D01*
X186216666Y-129952380D01*
X186359523Y-130000000D01*
X186407142Y-130047619D01*
X186788095Y-130047619D02*
X186835714Y-130000000D01*
X186930952Y-129952380D01*
X187169047Y-129952380D01*
X187264285Y-130000000D01*
X187311904Y-130047619D01*
X187359523Y-130142857D01*
X187359523Y-130238095D01*
X187311904Y-130380952D01*
X186740476Y-130952380D01*
X187359523Y-130952380D01*
X188311904Y-130952380D02*
X187740476Y-130952380D01*
X188026190Y-130952380D02*
X188026190Y-129952380D01*
X187930952Y-130095238D01*
X187835714Y-130190476D01*
X187740476Y-130238095D01*
X190657142Y-130857142D02*
X190609523Y-130904761D01*
X190466666Y-130952380D01*
X190371428Y-130952380D01*
X190228571Y-130904761D01*
X190133333Y-130809523D01*
X190085714Y-130714285D01*
X190038095Y-130523809D01*
X190038095Y-130380952D01*
X190085714Y-130190476D01*
X190133333Y-130095238D01*
X190228571Y-130000000D01*
X190371428Y-129952380D01*
X190466666Y-129952380D01*
X190609523Y-130000000D01*
X190657142Y-130047619D01*
X191038095Y-130047619D02*
X191085714Y-130000000D01*
X191180952Y-129952380D01*
X191419047Y-129952380D01*
X191514285Y-130000000D01*
X191561904Y-130047619D01*
X191609523Y-130142857D01*
X191609523Y-130238095D01*
X191561904Y-130380952D01*
X190990476Y-130952380D01*
X191609523Y-130952380D01*
X191990476Y-130047619D02*
X192038095Y-130000000D01*
X192133333Y-129952380D01*
X192371428Y-129952380D01*
X192466666Y-130000000D01*
X192514285Y-130047619D01*
X192561904Y-130142857D01*
X192561904Y-130238095D01*
X192514285Y-130380952D01*
X191942857Y-130952380D01*
X192561904Y-130952380D01*
X146257142Y-95757142D02*
X146209523Y-95804761D01*
X146066666Y-95852380D01*
X145971428Y-95852380D01*
X145828571Y-95804761D01*
X145733333Y-95709523D01*
X145685714Y-95614285D01*
X145638095Y-95423809D01*
X145638095Y-95280952D01*
X145685714Y-95090476D01*
X145733333Y-94995238D01*
X145828571Y-94900000D01*
X145971428Y-94852380D01*
X146066666Y-94852380D01*
X146209523Y-94900000D01*
X146257142Y-94947619D01*
X146590476Y-94852380D02*
X147209523Y-94852380D01*
X146876190Y-95233333D01*
X147019047Y-95233333D01*
X147114285Y-95280952D01*
X147161904Y-95328571D01*
X147209523Y-95423809D01*
X147209523Y-95661904D01*
X147161904Y-95757142D01*
X147114285Y-95804761D01*
X147019047Y-95852380D01*
X146733333Y-95852380D01*
X146638095Y-95804761D01*
X146590476Y-95757142D01*
X147828571Y-94852380D02*
X147923809Y-94852380D01*
X148019047Y-94900000D01*
X148066666Y-94947619D01*
X148114285Y-95042857D01*
X148161904Y-95233333D01*
X148161904Y-95471428D01*
X148114285Y-95661904D01*
X148066666Y-95757142D01*
X148019047Y-95804761D01*
X147923809Y-95852380D01*
X147828571Y-95852380D01*
X147733333Y-95804761D01*
X147685714Y-95757142D01*
X147638095Y-95661904D01*
X147590476Y-95471428D01*
X147590476Y-95233333D01*
X147638095Y-95042857D01*
X147685714Y-94947619D01*
X147733333Y-94900000D01*
X147828571Y-94852380D01*
X151582142Y-127557142D02*
X151534523Y-127604761D01*
X151391666Y-127652380D01*
X151296428Y-127652380D01*
X151153571Y-127604761D01*
X151058333Y-127509523D01*
X151010714Y-127414285D01*
X150963095Y-127223809D01*
X150963095Y-127080952D01*
X151010714Y-126890476D01*
X151058333Y-126795238D01*
X151153571Y-126700000D01*
X151296428Y-126652380D01*
X151391666Y-126652380D01*
X151534523Y-126700000D01*
X151582142Y-126747619D01*
X151915476Y-126652380D02*
X152534523Y-126652380D01*
X152201190Y-127033333D01*
X152344047Y-127033333D01*
X152439285Y-127080952D01*
X152486904Y-127128571D01*
X152534523Y-127223809D01*
X152534523Y-127461904D01*
X152486904Y-127557142D01*
X152439285Y-127604761D01*
X152344047Y-127652380D01*
X152058333Y-127652380D01*
X151963095Y-127604761D01*
X151915476Y-127557142D01*
X153439285Y-126652380D02*
X152963095Y-126652380D01*
X152915476Y-127128571D01*
X152963095Y-127080952D01*
X153058333Y-127033333D01*
X153296428Y-127033333D01*
X153391666Y-127080952D01*
X153439285Y-127128571D01*
X153486904Y-127223809D01*
X153486904Y-127461904D01*
X153439285Y-127557142D01*
X153391666Y-127604761D01*
X153296428Y-127652380D01*
X153058333Y-127652380D01*
X152963095Y-127604761D01*
X152915476Y-127557142D01*
X168982142Y-127557142D02*
X168934523Y-127604761D01*
X168791666Y-127652380D01*
X168696428Y-127652380D01*
X168553571Y-127604761D01*
X168458333Y-127509523D01*
X168410714Y-127414285D01*
X168363095Y-127223809D01*
X168363095Y-127080952D01*
X168410714Y-126890476D01*
X168458333Y-126795238D01*
X168553571Y-126700000D01*
X168696428Y-126652380D01*
X168791666Y-126652380D01*
X168934523Y-126700000D01*
X168982142Y-126747619D01*
X169315476Y-126652380D02*
X169934523Y-126652380D01*
X169601190Y-127033333D01*
X169744047Y-127033333D01*
X169839285Y-127080952D01*
X169886904Y-127128571D01*
X169934523Y-127223809D01*
X169934523Y-127461904D01*
X169886904Y-127557142D01*
X169839285Y-127604761D01*
X169744047Y-127652380D01*
X169458333Y-127652380D01*
X169363095Y-127604761D01*
X169315476Y-127557142D01*
X170410714Y-127652380D02*
X170601190Y-127652380D01*
X170696428Y-127604761D01*
X170744047Y-127557142D01*
X170839285Y-127414285D01*
X170886904Y-127223809D01*
X170886904Y-126842857D01*
X170839285Y-126747619D01*
X170791666Y-126700000D01*
X170696428Y-126652380D01*
X170505952Y-126652380D01*
X170410714Y-126700000D01*
X170363095Y-126747619D01*
X170315476Y-126842857D01*
X170315476Y-127080952D01*
X170363095Y-127176190D01*
X170410714Y-127223809D01*
X170505952Y-127271428D01*
X170696428Y-127271428D01*
X170791666Y-127223809D01*
X170839285Y-127176190D01*
X170886904Y-127080952D01*
X138157142Y-122457142D02*
X138109523Y-122504761D01*
X137966666Y-122552380D01*
X137871428Y-122552380D01*
X137728571Y-122504761D01*
X137633333Y-122409523D01*
X137585714Y-122314285D01*
X137538095Y-122123809D01*
X137538095Y-121980952D01*
X137585714Y-121790476D01*
X137633333Y-121695238D01*
X137728571Y-121600000D01*
X137871428Y-121552380D01*
X137966666Y-121552380D01*
X138109523Y-121600000D01*
X138157142Y-121647619D01*
X139014285Y-121885714D02*
X139014285Y-122552380D01*
X138776190Y-121504761D02*
X138538095Y-122219047D01*
X139157142Y-122219047D01*
X139728571Y-121552380D02*
X139823809Y-121552380D01*
X139919047Y-121600000D01*
X139966666Y-121647619D01*
X140014285Y-121742857D01*
X140061904Y-121933333D01*
X140061904Y-122171428D01*
X140014285Y-122361904D01*
X139966666Y-122457142D01*
X139919047Y-122504761D01*
X139823809Y-122552380D01*
X139728571Y-122552380D01*
X139633333Y-122504761D01*
X139585714Y-122457142D01*
X139538095Y-122361904D01*
X139490476Y-122171428D01*
X139490476Y-121933333D01*
X139538095Y-121742857D01*
X139585714Y-121647619D01*
X139633333Y-121600000D01*
X139728571Y-121552380D01*
X138057142Y-136957142D02*
X138009523Y-137004761D01*
X137866666Y-137052380D01*
X137771428Y-137052380D01*
X137628571Y-137004761D01*
X137533333Y-136909523D01*
X137485714Y-136814285D01*
X137438095Y-136623809D01*
X137438095Y-136480952D01*
X137485714Y-136290476D01*
X137533333Y-136195238D01*
X137628571Y-136100000D01*
X137771428Y-136052380D01*
X137866666Y-136052380D01*
X138009523Y-136100000D01*
X138057142Y-136147619D01*
X138914285Y-136385714D02*
X138914285Y-137052380D01*
X138676190Y-136004761D02*
X138438095Y-136719047D01*
X139057142Y-136719047D01*
X139961904Y-137052380D02*
X139390476Y-137052380D01*
X139676190Y-137052380D02*
X139676190Y-136052380D01*
X139580952Y-136195238D01*
X139485714Y-136290476D01*
X139390476Y-136338095D01*
X115482142Y-122232142D02*
X115434523Y-122279761D01*
X115291666Y-122327380D01*
X115196428Y-122327380D01*
X115053571Y-122279761D01*
X114958333Y-122184523D01*
X114910714Y-122089285D01*
X114863095Y-121898809D01*
X114863095Y-121755952D01*
X114910714Y-121565476D01*
X114958333Y-121470238D01*
X115053571Y-121375000D01*
X115196428Y-121327380D01*
X115291666Y-121327380D01*
X115434523Y-121375000D01*
X115482142Y-121422619D01*
X116339285Y-121660714D02*
X116339285Y-122327380D01*
X116101190Y-121279761D02*
X115863095Y-121994047D01*
X116482142Y-121994047D01*
X116767857Y-121327380D02*
X117434523Y-121327380D01*
X117005952Y-122327380D01*
X122691904Y-106842380D02*
X122691904Y-105842380D01*
X122930000Y-105842380D01*
X123072857Y-105890000D01*
X123168095Y-105985238D01*
X123215714Y-106080476D01*
X123263333Y-106270952D01*
X123263333Y-106413809D01*
X123215714Y-106604285D01*
X123168095Y-106699523D01*
X123072857Y-106794761D01*
X122930000Y-106842380D01*
X122691904Y-106842380D01*
X124215714Y-106842380D02*
X123644285Y-106842380D01*
X123930000Y-106842380D02*
X123930000Y-105842380D01*
X123834761Y-105985238D01*
X123739523Y-106080476D01*
X123644285Y-106128095D01*
X135563384Y-86752380D02*
X135563384Y-85752380D01*
X135801480Y-85752380D01*
X135944337Y-85800000D01*
X136039575Y-85895238D01*
X136087194Y-85990476D01*
X136134813Y-86180952D01*
X136134813Y-86323809D01*
X136087194Y-86514285D01*
X136039575Y-86609523D01*
X135944337Y-86704761D01*
X135801480Y-86752380D01*
X135563384Y-86752380D01*
X136468146Y-85752380D02*
X137087194Y-85752380D01*
X136753860Y-86133333D01*
X136896718Y-86133333D01*
X136991956Y-86180952D01*
X137039575Y-86228571D01*
X137087194Y-86323809D01*
X137087194Y-86561904D01*
X137039575Y-86657142D01*
X136991956Y-86704761D01*
X136896718Y-86752380D01*
X136611003Y-86752380D01*
X136515765Y-86704761D01*
X136468146Y-86657142D01*
X159652380Y-96338095D02*
X158652380Y-96338095D01*
X158652380Y-96100000D01*
X158700000Y-95957142D01*
X158795238Y-95861904D01*
X158890476Y-95814285D01*
X159080952Y-95766666D01*
X159223809Y-95766666D01*
X159414285Y-95814285D01*
X159509523Y-95861904D01*
X159604761Y-95957142D01*
X159652380Y-96100000D01*
X159652380Y-96338095D01*
X158652380Y-94861904D02*
X158652380Y-95338095D01*
X159128571Y-95385714D01*
X159080952Y-95338095D01*
X159033333Y-95242857D01*
X159033333Y-95004761D01*
X159080952Y-94909523D01*
X159128571Y-94861904D01*
X159223809Y-94814285D01*
X159461904Y-94814285D01*
X159557142Y-94861904D01*
X159604761Y-94909523D01*
X159652380Y-95004761D01*
X159652380Y-95242857D01*
X159604761Y-95338095D01*
X159557142Y-95385714D01*
X163552380Y-96288095D02*
X162552380Y-96288095D01*
X162552380Y-96050000D01*
X162600000Y-95907142D01*
X162695238Y-95811904D01*
X162790476Y-95764285D01*
X162980952Y-95716666D01*
X163123809Y-95716666D01*
X163314285Y-95764285D01*
X163409523Y-95811904D01*
X163504761Y-95907142D01*
X163552380Y-96050000D01*
X163552380Y-96288095D01*
X162552380Y-94859523D02*
X162552380Y-95050000D01*
X162600000Y-95145238D01*
X162647619Y-95192857D01*
X162790476Y-95288095D01*
X162980952Y-95335714D01*
X163361904Y-95335714D01*
X163457142Y-95288095D01*
X163504761Y-95240476D01*
X163552380Y-95145238D01*
X163552380Y-94954761D01*
X163504761Y-94859523D01*
X163457142Y-94811904D01*
X163361904Y-94764285D01*
X163123809Y-94764285D01*
X163028571Y-94811904D01*
X162980952Y-94859523D01*
X162933333Y-94954761D01*
X162933333Y-95145238D01*
X162980952Y-95240476D01*
X163028571Y-95288095D01*
X163123809Y-95335714D01*
X167252380Y-96300595D02*
X166252380Y-96300595D01*
X166252380Y-96062500D01*
X166300000Y-95919642D01*
X166395238Y-95824404D01*
X166490476Y-95776785D01*
X166680952Y-95729166D01*
X166823809Y-95729166D01*
X167014285Y-95776785D01*
X167109523Y-95824404D01*
X167204761Y-95919642D01*
X167252380Y-96062500D01*
X167252380Y-96300595D01*
X166252380Y-95395833D02*
X166252380Y-94729166D01*
X167252380Y-95157738D01*
X170902380Y-96288095D02*
X169902380Y-96288095D01*
X169902380Y-96050000D01*
X169950000Y-95907142D01*
X170045238Y-95811904D01*
X170140476Y-95764285D01*
X170330952Y-95716666D01*
X170473809Y-95716666D01*
X170664285Y-95764285D01*
X170759523Y-95811904D01*
X170854761Y-95907142D01*
X170902380Y-96050000D01*
X170902380Y-96288095D01*
X170330952Y-95145238D02*
X170283333Y-95240476D01*
X170235714Y-95288095D01*
X170140476Y-95335714D01*
X170092857Y-95335714D01*
X169997619Y-95288095D01*
X169950000Y-95240476D01*
X169902380Y-95145238D01*
X169902380Y-94954761D01*
X169950000Y-94859523D01*
X169997619Y-94811904D01*
X170092857Y-94764285D01*
X170140476Y-94764285D01*
X170235714Y-94811904D01*
X170283333Y-94859523D01*
X170330952Y-94954761D01*
X170330952Y-95145238D01*
X170378571Y-95240476D01*
X170426190Y-95288095D01*
X170521428Y-95335714D01*
X170711904Y-95335714D01*
X170807142Y-95288095D01*
X170854761Y-95240476D01*
X170902380Y-95145238D01*
X170902380Y-94954761D01*
X170854761Y-94859523D01*
X170807142Y-94811904D01*
X170711904Y-94764285D01*
X170521428Y-94764285D01*
X170426190Y-94811904D01*
X170378571Y-94859523D01*
X170330952Y-94954761D01*
X174602380Y-96288095D02*
X173602380Y-96288095D01*
X173602380Y-96050000D01*
X173650000Y-95907142D01*
X173745238Y-95811904D01*
X173840476Y-95764285D01*
X174030952Y-95716666D01*
X174173809Y-95716666D01*
X174364285Y-95764285D01*
X174459523Y-95811904D01*
X174554761Y-95907142D01*
X174602380Y-96050000D01*
X174602380Y-96288095D01*
X174602380Y-95240476D02*
X174602380Y-95050000D01*
X174554761Y-94954761D01*
X174507142Y-94907142D01*
X174364285Y-94811904D01*
X174173809Y-94764285D01*
X173792857Y-94764285D01*
X173697619Y-94811904D01*
X173650000Y-94859523D01*
X173602380Y-94954761D01*
X173602380Y-95145238D01*
X173650000Y-95240476D01*
X173697619Y-95288095D01*
X173792857Y-95335714D01*
X174030952Y-95335714D01*
X174126190Y-95288095D01*
X174173809Y-95240476D01*
X174221428Y-95145238D01*
X174221428Y-94954761D01*
X174173809Y-94859523D01*
X174126190Y-94811904D01*
X174030952Y-94764285D01*
X178352380Y-96764285D02*
X177352380Y-96764285D01*
X177352380Y-96526190D01*
X177400000Y-96383333D01*
X177495238Y-96288095D01*
X177590476Y-96240476D01*
X177780952Y-96192857D01*
X177923809Y-96192857D01*
X178114285Y-96240476D01*
X178209523Y-96288095D01*
X178304761Y-96383333D01*
X178352380Y-96526190D01*
X178352380Y-96764285D01*
X178352380Y-95240476D02*
X178352380Y-95811904D01*
X178352380Y-95526190D02*
X177352380Y-95526190D01*
X177495238Y-95621428D01*
X177590476Y-95716666D01*
X177638095Y-95811904D01*
X177352380Y-94621428D02*
X177352380Y-94526190D01*
X177400000Y-94430952D01*
X177447619Y-94383333D01*
X177542857Y-94335714D01*
X177733333Y-94288095D01*
X177971428Y-94288095D01*
X178161904Y-94335714D01*
X178257142Y-94383333D01*
X178304761Y-94430952D01*
X178352380Y-94526190D01*
X178352380Y-94621428D01*
X178304761Y-94716666D01*
X178257142Y-94764285D01*
X178161904Y-94811904D01*
X177971428Y-94859523D01*
X177733333Y-94859523D01*
X177542857Y-94811904D01*
X177447619Y-94764285D01*
X177400000Y-94716666D01*
X177352380Y-94621428D01*
X182002380Y-96764285D02*
X181002380Y-96764285D01*
X181002380Y-96526190D01*
X181050000Y-96383333D01*
X181145238Y-96288095D01*
X181240476Y-96240476D01*
X181430952Y-96192857D01*
X181573809Y-96192857D01*
X181764285Y-96240476D01*
X181859523Y-96288095D01*
X181954761Y-96383333D01*
X182002380Y-96526190D01*
X182002380Y-96764285D01*
X182002380Y-95240476D02*
X182002380Y-95811904D01*
X182002380Y-95526190D02*
X181002380Y-95526190D01*
X181145238Y-95621428D01*
X181240476Y-95716666D01*
X181288095Y-95811904D01*
X182002380Y-94288095D02*
X182002380Y-94859523D01*
X182002380Y-94573809D02*
X181002380Y-94573809D01*
X181145238Y-94669047D01*
X181240476Y-94764285D01*
X181288095Y-94859523D01*
X185702380Y-96764285D02*
X184702380Y-96764285D01*
X184702380Y-96526190D01*
X184750000Y-96383333D01*
X184845238Y-96288095D01*
X184940476Y-96240476D01*
X185130952Y-96192857D01*
X185273809Y-96192857D01*
X185464285Y-96240476D01*
X185559523Y-96288095D01*
X185654761Y-96383333D01*
X185702380Y-96526190D01*
X185702380Y-96764285D01*
X185702380Y-95240476D02*
X185702380Y-95811904D01*
X185702380Y-95526190D02*
X184702380Y-95526190D01*
X184845238Y-95621428D01*
X184940476Y-95716666D01*
X184988095Y-95811904D01*
X184797619Y-94859523D02*
X184750000Y-94811904D01*
X184702380Y-94716666D01*
X184702380Y-94478571D01*
X184750000Y-94383333D01*
X184797619Y-94335714D01*
X184892857Y-94288095D01*
X184988095Y-94288095D01*
X185130952Y-94335714D01*
X185702380Y-94907142D01*
X185702380Y-94288095D01*
X137532380Y-117183333D02*
X138246666Y-117183333D01*
X138389523Y-117230952D01*
X138484761Y-117326190D01*
X138532380Y-117469047D01*
X138532380Y-117564285D01*
X138532380Y-116183333D02*
X138532380Y-116754761D01*
X138532380Y-116469047D02*
X137532380Y-116469047D01*
X137675238Y-116564285D01*
X137770476Y-116659523D01*
X137818095Y-116754761D01*
X167166666Y-75252380D02*
X167166666Y-75966666D01*
X167119047Y-76109523D01*
X167023809Y-76204761D01*
X166880952Y-76252380D01*
X166785714Y-76252380D01*
X167547619Y-75252380D02*
X168166666Y-75252380D01*
X167833333Y-75633333D01*
X167976190Y-75633333D01*
X168071428Y-75680952D01*
X168119047Y-75728571D01*
X168166666Y-75823809D01*
X168166666Y-76061904D01*
X168119047Y-76157142D01*
X168071428Y-76204761D01*
X167976190Y-76252380D01*
X167690476Y-76252380D01*
X167595238Y-76204761D01*
X167547619Y-76157142D01*
X100402380Y-91833333D02*
X101116666Y-91833333D01*
X101259523Y-91880952D01*
X101354761Y-91976190D01*
X101402380Y-92119047D01*
X101402380Y-92214285D01*
X100735714Y-90928571D02*
X101402380Y-90928571D01*
X100354761Y-91166666D02*
X101069047Y-91404761D01*
X101069047Y-90785714D01*
X198752380Y-129833333D02*
X199466666Y-129833333D01*
X199609523Y-129880952D01*
X199704761Y-129976190D01*
X199752380Y-130119047D01*
X199752380Y-130214285D01*
X198752380Y-128880952D02*
X198752380Y-129357142D01*
X199228571Y-129404761D01*
X199180952Y-129357142D01*
X199133333Y-129261904D01*
X199133333Y-129023809D01*
X199180952Y-128928571D01*
X199228571Y-128880952D01*
X199323809Y-128833333D01*
X199561904Y-128833333D01*
X199657142Y-128880952D01*
X199704761Y-128928571D01*
X199752380Y-129023809D01*
X199752380Y-129261904D01*
X199704761Y-129357142D01*
X199657142Y-129404761D01*
X142566666Y-75402380D02*
X142566666Y-76116666D01*
X142519047Y-76259523D01*
X142423809Y-76354761D01*
X142280952Y-76402380D01*
X142185714Y-76402380D01*
X143471428Y-75402380D02*
X143280952Y-75402380D01*
X143185714Y-75450000D01*
X143138095Y-75497619D01*
X143042857Y-75640476D01*
X142995238Y-75830952D01*
X142995238Y-76211904D01*
X143042857Y-76307142D01*
X143090476Y-76354761D01*
X143185714Y-76402380D01*
X143376190Y-76402380D01*
X143471428Y-76354761D01*
X143519047Y-76307142D01*
X143566666Y-76211904D01*
X143566666Y-75973809D01*
X143519047Y-75878571D01*
X143471428Y-75830952D01*
X143376190Y-75783333D01*
X143185714Y-75783333D01*
X143090476Y-75830952D01*
X143042857Y-75878571D01*
X142995238Y-75973809D01*
X173166666Y-148752380D02*
X173166666Y-149466666D01*
X173119047Y-149609523D01*
X173023809Y-149704761D01*
X172880952Y-149752380D01*
X172785714Y-149752380D01*
X173547619Y-148752380D02*
X174214285Y-148752380D01*
X173785714Y-149752380D01*
X153166666Y-148702380D02*
X153166666Y-149416666D01*
X153119047Y-149559523D01*
X153023809Y-149654761D01*
X152880952Y-149702380D01*
X152785714Y-149702380D01*
X153785714Y-149130952D02*
X153690476Y-149083333D01*
X153642857Y-149035714D01*
X153595238Y-148940476D01*
X153595238Y-148892857D01*
X153642857Y-148797619D01*
X153690476Y-148750000D01*
X153785714Y-148702380D01*
X153976190Y-148702380D01*
X154071428Y-148750000D01*
X154119047Y-148797619D01*
X154166666Y-148892857D01*
X154166666Y-148940476D01*
X154119047Y-149035714D01*
X154071428Y-149083333D01*
X153976190Y-149130952D01*
X153785714Y-149130952D01*
X153690476Y-149178571D01*
X153642857Y-149226190D01*
X153595238Y-149321428D01*
X153595238Y-149511904D01*
X153642857Y-149607142D01*
X153690476Y-149654761D01*
X153785714Y-149702380D01*
X153976190Y-149702380D01*
X154071428Y-149654761D01*
X154119047Y-149607142D01*
X154166666Y-149511904D01*
X154166666Y-149321428D01*
X154119047Y-149226190D01*
X154071428Y-149178571D01*
X153976190Y-149130952D01*
X128166666Y-148702380D02*
X128166666Y-149416666D01*
X128119047Y-149559523D01*
X128023809Y-149654761D01*
X127880952Y-149702380D01*
X127785714Y-149702380D01*
X128690476Y-149702380D02*
X128880952Y-149702380D01*
X128976190Y-149654761D01*
X129023809Y-149607142D01*
X129119047Y-149464285D01*
X129166666Y-149273809D01*
X129166666Y-148892857D01*
X129119047Y-148797619D01*
X129071428Y-148750000D01*
X128976190Y-148702380D01*
X128785714Y-148702380D01*
X128690476Y-148750000D01*
X128642857Y-148797619D01*
X128595238Y-148892857D01*
X128595238Y-149130952D01*
X128642857Y-149226190D01*
X128690476Y-149273809D01*
X128785714Y-149321428D01*
X128976190Y-149321428D01*
X129071428Y-149273809D01*
X129119047Y-149226190D01*
X129166666Y-149130952D01*
X145435476Y-125162380D02*
X145435476Y-125876666D01*
X145387857Y-126019523D01*
X145292619Y-126114761D01*
X145149761Y-126162380D01*
X145054523Y-126162380D01*
X146435476Y-126162380D02*
X145864047Y-126162380D01*
X146149761Y-126162380D02*
X146149761Y-125162380D01*
X146054523Y-125305238D01*
X145959285Y-125400476D01*
X145864047Y-125448095D01*
X147054523Y-125162380D02*
X147149761Y-125162380D01*
X147245000Y-125210000D01*
X147292619Y-125257619D01*
X147340238Y-125352857D01*
X147387857Y-125543333D01*
X147387857Y-125781428D01*
X147340238Y-125971904D01*
X147292619Y-126067142D01*
X147245000Y-126114761D01*
X147149761Y-126162380D01*
X147054523Y-126162380D01*
X146959285Y-126114761D01*
X146911666Y-126067142D01*
X146864047Y-125971904D01*
X146816428Y-125781428D01*
X146816428Y-125543333D01*
X146864047Y-125352857D01*
X146911666Y-125257619D01*
X146959285Y-125210000D01*
X147054523Y-125162380D01*
X121190476Y-75302380D02*
X121190476Y-76016666D01*
X121142857Y-76159523D01*
X121047619Y-76254761D01*
X120904761Y-76302380D01*
X120809523Y-76302380D01*
X122190476Y-76302380D02*
X121619047Y-76302380D01*
X121904761Y-76302380D02*
X121904761Y-75302380D01*
X121809523Y-75445238D01*
X121714285Y-75540476D01*
X121619047Y-75588095D01*
X122523809Y-75302380D02*
X123142857Y-75302380D01*
X122809523Y-75683333D01*
X122952380Y-75683333D01*
X123047619Y-75730952D01*
X123095238Y-75778571D01*
X123142857Y-75873809D01*
X123142857Y-76111904D01*
X123095238Y-76207142D01*
X123047619Y-76254761D01*
X122952380Y-76302380D01*
X122666666Y-76302380D01*
X122571428Y-76254761D01*
X122523809Y-76207142D01*
X110963333Y-90612380D02*
X110487142Y-90612380D01*
X110487142Y-89612380D01*
X111820476Y-90612380D02*
X111249047Y-90612380D01*
X111534761Y-90612380D02*
X111534761Y-89612380D01*
X111439523Y-89755238D01*
X111344285Y-89850476D01*
X111249047Y-89898095D01*
X189033333Y-120552380D02*
X188557142Y-120552380D01*
X188557142Y-119552380D01*
X189319047Y-119647619D02*
X189366666Y-119600000D01*
X189461904Y-119552380D01*
X189700000Y-119552380D01*
X189795238Y-119600000D01*
X189842857Y-119647619D01*
X189890476Y-119742857D01*
X189890476Y-119838095D01*
X189842857Y-119980952D01*
X189271428Y-120552380D01*
X189890476Y-120552380D01*
X189033333Y-126302380D02*
X188557142Y-126302380D01*
X188557142Y-125302380D01*
X189271428Y-125302380D02*
X189890476Y-125302380D01*
X189557142Y-125683333D01*
X189700000Y-125683333D01*
X189795238Y-125730952D01*
X189842857Y-125778571D01*
X189890476Y-125873809D01*
X189890476Y-126111904D01*
X189842857Y-126207142D01*
X189795238Y-126254761D01*
X189700000Y-126302380D01*
X189414285Y-126302380D01*
X189319047Y-126254761D01*
X189271428Y-126207142D01*
X115383333Y-125002380D02*
X114907142Y-125002380D01*
X114907142Y-124002380D01*
X116145238Y-124335714D02*
X116145238Y-125002380D01*
X115907142Y-123954761D02*
X115669047Y-124669047D01*
X116288095Y-124669047D01*
X140547619Y-94295238D02*
X140500000Y-94390476D01*
X140404761Y-94485714D01*
X140261904Y-94628571D01*
X140214285Y-94723809D01*
X140214285Y-94819047D01*
X140452380Y-94771428D02*
X140404761Y-94866666D01*
X140309523Y-94961904D01*
X140119047Y-95009523D01*
X139785714Y-95009523D01*
X139595238Y-94961904D01*
X139500000Y-94866666D01*
X139452380Y-94771428D01*
X139452380Y-94580952D01*
X139500000Y-94485714D01*
X139595238Y-94390476D01*
X139785714Y-94342857D01*
X140119047Y-94342857D01*
X140309523Y-94390476D01*
X140404761Y-94485714D01*
X140452380Y-94580952D01*
X140452380Y-94771428D01*
X139547619Y-93961904D02*
X139500000Y-93914285D01*
X139452380Y-93819047D01*
X139452380Y-93580952D01*
X139500000Y-93485714D01*
X139547619Y-93438095D01*
X139642857Y-93390476D01*
X139738095Y-93390476D01*
X139880952Y-93438095D01*
X140452380Y-94009523D01*
X140452380Y-93390476D01*
X123263333Y-97142380D02*
X122930000Y-96666190D01*
X122691904Y-97142380D02*
X122691904Y-96142380D01*
X123072857Y-96142380D01*
X123168095Y-96190000D01*
X123215714Y-96237619D01*
X123263333Y-96332857D01*
X123263333Y-96475714D01*
X123215714Y-96570952D01*
X123168095Y-96618571D01*
X123072857Y-96666190D01*
X122691904Y-96666190D01*
X124215714Y-97142380D02*
X123644285Y-97142380D01*
X123930000Y-97142380D02*
X123930000Y-96142380D01*
X123834761Y-96285238D01*
X123739523Y-96380476D01*
X123644285Y-96428095D01*
X186433333Y-138052380D02*
X186100000Y-137576190D01*
X185861904Y-138052380D02*
X185861904Y-137052380D01*
X186242857Y-137052380D01*
X186338095Y-137100000D01*
X186385714Y-137147619D01*
X186433333Y-137242857D01*
X186433333Y-137385714D01*
X186385714Y-137480952D01*
X186338095Y-137528571D01*
X186242857Y-137576190D01*
X185861904Y-137576190D01*
X186814285Y-137147619D02*
X186861904Y-137100000D01*
X186957142Y-137052380D01*
X187195238Y-137052380D01*
X187290476Y-137100000D01*
X187338095Y-137147619D01*
X187385714Y-137242857D01*
X187385714Y-137338095D01*
X187338095Y-137480952D01*
X186766666Y-138052380D01*
X187385714Y-138052380D01*
X189133333Y-138052380D02*
X188800000Y-137576190D01*
X188561904Y-138052380D02*
X188561904Y-137052380D01*
X188942857Y-137052380D01*
X189038095Y-137100000D01*
X189085714Y-137147619D01*
X189133333Y-137242857D01*
X189133333Y-137385714D01*
X189085714Y-137480952D01*
X189038095Y-137528571D01*
X188942857Y-137576190D01*
X188561904Y-137576190D01*
X189466666Y-137052380D02*
X190085714Y-137052380D01*
X189752380Y-137433333D01*
X189895238Y-137433333D01*
X189990476Y-137480952D01*
X190038095Y-137528571D01*
X190085714Y-137623809D01*
X190085714Y-137861904D01*
X190038095Y-137957142D01*
X189990476Y-138004761D01*
X189895238Y-138052380D01*
X189609523Y-138052380D01*
X189514285Y-138004761D01*
X189466666Y-137957142D01*
X188302380Y-133391666D02*
X187826190Y-133725000D01*
X188302380Y-133963095D02*
X187302380Y-133963095D01*
X187302380Y-133582142D01*
X187350000Y-133486904D01*
X187397619Y-133439285D01*
X187492857Y-133391666D01*
X187635714Y-133391666D01*
X187730952Y-133439285D01*
X187778571Y-133486904D01*
X187826190Y-133582142D01*
X187826190Y-133963095D01*
X187635714Y-132534523D02*
X188302380Y-132534523D01*
X187254761Y-132772619D02*
X187969047Y-133010714D01*
X187969047Y-132391666D01*
X136133333Y-87052380D02*
X135800000Y-86576190D01*
X135561904Y-87052380D02*
X135561904Y-86052380D01*
X135942857Y-86052380D01*
X136038095Y-86100000D01*
X136085714Y-86147619D01*
X136133333Y-86242857D01*
X136133333Y-86385714D01*
X136085714Y-86480952D01*
X136038095Y-86528571D01*
X135942857Y-86576190D01*
X135561904Y-86576190D01*
X137038095Y-86052380D02*
X136561904Y-86052380D01*
X136514285Y-86528571D01*
X136561904Y-86480952D01*
X136657142Y-86433333D01*
X136895238Y-86433333D01*
X136990476Y-86480952D01*
X137038095Y-86528571D01*
X137085714Y-86623809D01*
X137085714Y-86861904D01*
X137038095Y-86957142D01*
X136990476Y-87004761D01*
X136895238Y-87052380D01*
X136657142Y-87052380D01*
X136561904Y-87004761D01*
X136514285Y-86957142D01*
X150033333Y-87152380D02*
X149700000Y-86676190D01*
X149461904Y-87152380D02*
X149461904Y-86152380D01*
X149842857Y-86152380D01*
X149938095Y-86200000D01*
X149985714Y-86247619D01*
X150033333Y-86342857D01*
X150033333Y-86485714D01*
X149985714Y-86580952D01*
X149938095Y-86628571D01*
X149842857Y-86676190D01*
X149461904Y-86676190D01*
X150890476Y-86152380D02*
X150700000Y-86152380D01*
X150604761Y-86200000D01*
X150557142Y-86247619D01*
X150461904Y-86390476D01*
X150414285Y-86580952D01*
X150414285Y-86961904D01*
X150461904Y-87057142D01*
X150509523Y-87104761D01*
X150604761Y-87152380D01*
X150795238Y-87152380D01*
X150890476Y-87104761D01*
X150938095Y-87057142D01*
X150985714Y-86961904D01*
X150985714Y-86723809D01*
X150938095Y-86628571D01*
X150890476Y-86580952D01*
X150795238Y-86533333D01*
X150604761Y-86533333D01*
X150509523Y-86580952D01*
X150461904Y-86628571D01*
X150414285Y-86723809D01*
X136133333Y-90652380D02*
X135800000Y-90176190D01*
X135561904Y-90652380D02*
X135561904Y-89652380D01*
X135942857Y-89652380D01*
X136038095Y-89700000D01*
X136085714Y-89747619D01*
X136133333Y-89842857D01*
X136133333Y-89985714D01*
X136085714Y-90080952D01*
X136038095Y-90128571D01*
X135942857Y-90176190D01*
X135561904Y-90176190D01*
X136466666Y-89652380D02*
X137133333Y-89652380D01*
X136704761Y-90652380D01*
X146733333Y-87152380D02*
X146400000Y-86676190D01*
X146161904Y-87152380D02*
X146161904Y-86152380D01*
X146542857Y-86152380D01*
X146638095Y-86200000D01*
X146685714Y-86247619D01*
X146733333Y-86342857D01*
X146733333Y-86485714D01*
X146685714Y-86580952D01*
X146638095Y-86628571D01*
X146542857Y-86676190D01*
X146161904Y-86676190D01*
X147304761Y-86580952D02*
X147209523Y-86533333D01*
X147161904Y-86485714D01*
X147114285Y-86390476D01*
X147114285Y-86342857D01*
X147161904Y-86247619D01*
X147209523Y-86200000D01*
X147304761Y-86152380D01*
X147495238Y-86152380D01*
X147590476Y-86200000D01*
X147638095Y-86247619D01*
X147685714Y-86342857D01*
X147685714Y-86390476D01*
X147638095Y-86485714D01*
X147590476Y-86533333D01*
X147495238Y-86580952D01*
X147304761Y-86580952D01*
X147209523Y-86628571D01*
X147161904Y-86676190D01*
X147114285Y-86771428D01*
X147114285Y-86961904D01*
X147161904Y-87057142D01*
X147209523Y-87104761D01*
X147304761Y-87152380D01*
X147495238Y-87152380D01*
X147590476Y-87104761D01*
X147638095Y-87057142D01*
X147685714Y-86961904D01*
X147685714Y-86771428D01*
X147638095Y-86676190D01*
X147590476Y-86628571D01*
X147495238Y-86580952D01*
X135657142Y-94152380D02*
X135323809Y-93676190D01*
X135085714Y-94152380D02*
X135085714Y-93152380D01*
X135466666Y-93152380D01*
X135561904Y-93200000D01*
X135609523Y-93247619D01*
X135657142Y-93342857D01*
X135657142Y-93485714D01*
X135609523Y-93580952D01*
X135561904Y-93628571D01*
X135466666Y-93676190D01*
X135085714Y-93676190D01*
X136609523Y-94152380D02*
X136038095Y-94152380D01*
X136323809Y-94152380D02*
X136323809Y-93152380D01*
X136228571Y-93295238D01*
X136133333Y-93390476D01*
X136038095Y-93438095D01*
X137561904Y-94152380D02*
X136990476Y-94152380D01*
X137276190Y-94152380D02*
X137276190Y-93152380D01*
X137180952Y-93295238D01*
X137085714Y-93390476D01*
X136990476Y-93438095D01*
X140552380Y-98242857D02*
X140076190Y-98576190D01*
X140552380Y-98814285D02*
X139552380Y-98814285D01*
X139552380Y-98433333D01*
X139600000Y-98338095D01*
X139647619Y-98290476D01*
X139742857Y-98242857D01*
X139885714Y-98242857D01*
X139980952Y-98290476D01*
X140028571Y-98338095D01*
X140076190Y-98433333D01*
X140076190Y-98814285D01*
X140552380Y-97290476D02*
X140552380Y-97861904D01*
X140552380Y-97576190D02*
X139552380Y-97576190D01*
X139695238Y-97671428D01*
X139790476Y-97766666D01*
X139838095Y-97861904D01*
X139647619Y-96909523D02*
X139600000Y-96861904D01*
X139552380Y-96766666D01*
X139552380Y-96528571D01*
X139600000Y-96433333D01*
X139647619Y-96385714D01*
X139742857Y-96338095D01*
X139838095Y-96338095D01*
X139980952Y-96385714D01*
X140552380Y-96957142D01*
X140552380Y-96338095D01*
X135007142Y-99702380D02*
X134673809Y-99226190D01*
X134435714Y-99702380D02*
X134435714Y-98702380D01*
X134816666Y-98702380D01*
X134911904Y-98750000D01*
X134959523Y-98797619D01*
X135007142Y-98892857D01*
X135007142Y-99035714D01*
X134959523Y-99130952D01*
X134911904Y-99178571D01*
X134816666Y-99226190D01*
X134435714Y-99226190D01*
X135959523Y-99702380D02*
X135388095Y-99702380D01*
X135673809Y-99702380D02*
X135673809Y-98702380D01*
X135578571Y-98845238D01*
X135483333Y-98940476D01*
X135388095Y-98988095D01*
X136292857Y-98702380D02*
X136911904Y-98702380D01*
X136578571Y-99083333D01*
X136721428Y-99083333D01*
X136816666Y-99130952D01*
X136864285Y-99178571D01*
X136911904Y-99273809D01*
X136911904Y-99511904D01*
X136864285Y-99607142D01*
X136816666Y-99654761D01*
X136721428Y-99702380D01*
X136435714Y-99702380D01*
X136340476Y-99654761D01*
X136292857Y-99607142D01*
X134907142Y-108602380D02*
X134573809Y-108126190D01*
X134335714Y-108602380D02*
X134335714Y-107602380D01*
X134716666Y-107602380D01*
X134811904Y-107650000D01*
X134859523Y-107697619D01*
X134907142Y-107792857D01*
X134907142Y-107935714D01*
X134859523Y-108030952D01*
X134811904Y-108078571D01*
X134716666Y-108126190D01*
X134335714Y-108126190D01*
X135859523Y-108602380D02*
X135288095Y-108602380D01*
X135573809Y-108602380D02*
X135573809Y-107602380D01*
X135478571Y-107745238D01*
X135383333Y-107840476D01*
X135288095Y-107888095D01*
X136716666Y-107935714D02*
X136716666Y-108602380D01*
X136478571Y-107554761D02*
X136240476Y-108269047D01*
X136859523Y-108269047D01*
X158557142Y-127452380D02*
X158223809Y-126976190D01*
X157985714Y-127452380D02*
X157985714Y-126452380D01*
X158366666Y-126452380D01*
X158461904Y-126500000D01*
X158509523Y-126547619D01*
X158557142Y-126642857D01*
X158557142Y-126785714D01*
X158509523Y-126880952D01*
X158461904Y-126928571D01*
X158366666Y-126976190D01*
X157985714Y-126976190D01*
X159509523Y-127452380D02*
X158938095Y-127452380D01*
X159223809Y-127452380D02*
X159223809Y-126452380D01*
X159128571Y-126595238D01*
X159033333Y-126690476D01*
X158938095Y-126738095D01*
X160414285Y-126452380D02*
X159938095Y-126452380D01*
X159890476Y-126928571D01*
X159938095Y-126880952D01*
X160033333Y-126833333D01*
X160271428Y-126833333D01*
X160366666Y-126880952D01*
X160414285Y-126928571D01*
X160461904Y-127023809D01*
X160461904Y-127261904D01*
X160414285Y-127357142D01*
X160366666Y-127404761D01*
X160271428Y-127452380D01*
X160033333Y-127452380D01*
X159938095Y-127404761D01*
X159890476Y-127357142D01*
X171742380Y-120352857D02*
X171266190Y-120686190D01*
X171742380Y-120924285D02*
X170742380Y-120924285D01*
X170742380Y-120543333D01*
X170790000Y-120448095D01*
X170837619Y-120400476D01*
X170932857Y-120352857D01*
X171075714Y-120352857D01*
X171170952Y-120400476D01*
X171218571Y-120448095D01*
X171266190Y-120543333D01*
X171266190Y-120924285D01*
X171742380Y-119400476D02*
X171742380Y-119971904D01*
X171742380Y-119686190D02*
X170742380Y-119686190D01*
X170885238Y-119781428D01*
X170980476Y-119876666D01*
X171028095Y-119971904D01*
X170742380Y-118543333D02*
X170742380Y-118733809D01*
X170790000Y-118829047D01*
X170837619Y-118876666D01*
X170980476Y-118971904D01*
X171170952Y-119019523D01*
X171551904Y-119019523D01*
X171647142Y-118971904D01*
X171694761Y-118924285D01*
X171742380Y-118829047D01*
X171742380Y-118638571D01*
X171694761Y-118543333D01*
X171647142Y-118495714D01*
X171551904Y-118448095D01*
X171313809Y-118448095D01*
X171218571Y-118495714D01*
X171170952Y-118543333D01*
X171123333Y-118638571D01*
X171123333Y-118829047D01*
X171170952Y-118924285D01*
X171218571Y-118971904D01*
X171313809Y-119019523D01*
X171752380Y-124352857D02*
X171276190Y-124686190D01*
X171752380Y-124924285D02*
X170752380Y-124924285D01*
X170752380Y-124543333D01*
X170800000Y-124448095D01*
X170847619Y-124400476D01*
X170942857Y-124352857D01*
X171085714Y-124352857D01*
X171180952Y-124400476D01*
X171228571Y-124448095D01*
X171276190Y-124543333D01*
X171276190Y-124924285D01*
X171752380Y-123400476D02*
X171752380Y-123971904D01*
X171752380Y-123686190D02*
X170752380Y-123686190D01*
X170895238Y-123781428D01*
X170990476Y-123876666D01*
X171038095Y-123971904D01*
X170752380Y-123067142D02*
X170752380Y-122400476D01*
X171752380Y-122829047D01*
X151557142Y-130552380D02*
X151223809Y-130076190D01*
X150985714Y-130552380D02*
X150985714Y-129552380D01*
X151366666Y-129552380D01*
X151461904Y-129600000D01*
X151509523Y-129647619D01*
X151557142Y-129742857D01*
X151557142Y-129885714D01*
X151509523Y-129980952D01*
X151461904Y-130028571D01*
X151366666Y-130076190D01*
X150985714Y-130076190D01*
X152509523Y-130552380D02*
X151938095Y-130552380D01*
X152223809Y-130552380D02*
X152223809Y-129552380D01*
X152128571Y-129695238D01*
X152033333Y-129790476D01*
X151938095Y-129838095D01*
X153080952Y-129980952D02*
X152985714Y-129933333D01*
X152938095Y-129885714D01*
X152890476Y-129790476D01*
X152890476Y-129742857D01*
X152938095Y-129647619D01*
X152985714Y-129600000D01*
X153080952Y-129552380D01*
X153271428Y-129552380D01*
X153366666Y-129600000D01*
X153414285Y-129647619D01*
X153461904Y-129742857D01*
X153461904Y-129790476D01*
X153414285Y-129885714D01*
X153366666Y-129933333D01*
X153271428Y-129980952D01*
X153080952Y-129980952D01*
X152985714Y-130028571D01*
X152938095Y-130076190D01*
X152890476Y-130171428D01*
X152890476Y-130361904D01*
X152938095Y-130457142D01*
X152985714Y-130504761D01*
X153080952Y-130552380D01*
X153271428Y-130552380D01*
X153366666Y-130504761D01*
X153414285Y-130457142D01*
X153461904Y-130361904D01*
X153461904Y-130171428D01*
X153414285Y-130076190D01*
X153366666Y-130028571D01*
X153271428Y-129980952D01*
X169057142Y-130552380D02*
X168723809Y-130076190D01*
X168485714Y-130552380D02*
X168485714Y-129552380D01*
X168866666Y-129552380D01*
X168961904Y-129600000D01*
X169009523Y-129647619D01*
X169057142Y-129742857D01*
X169057142Y-129885714D01*
X169009523Y-129980952D01*
X168961904Y-130028571D01*
X168866666Y-130076190D01*
X168485714Y-130076190D01*
X170009523Y-130552380D02*
X169438095Y-130552380D01*
X169723809Y-130552380D02*
X169723809Y-129552380D01*
X169628571Y-129695238D01*
X169533333Y-129790476D01*
X169438095Y-129838095D01*
X170485714Y-130552380D02*
X170676190Y-130552380D01*
X170771428Y-130504761D01*
X170819047Y-130457142D01*
X170914285Y-130314285D01*
X170961904Y-130123809D01*
X170961904Y-129742857D01*
X170914285Y-129647619D01*
X170866666Y-129600000D01*
X170771428Y-129552380D01*
X170580952Y-129552380D01*
X170485714Y-129600000D01*
X170438095Y-129647619D01*
X170390476Y-129742857D01*
X170390476Y-129980952D01*
X170438095Y-130076190D01*
X170485714Y-130123809D01*
X170580952Y-130171428D01*
X170771428Y-130171428D01*
X170866666Y-130123809D01*
X170914285Y-130076190D01*
X170961904Y-129980952D01*
X161957142Y-127452380D02*
X161623809Y-126976190D01*
X161385714Y-127452380D02*
X161385714Y-126452380D01*
X161766666Y-126452380D01*
X161861904Y-126500000D01*
X161909523Y-126547619D01*
X161957142Y-126642857D01*
X161957142Y-126785714D01*
X161909523Y-126880952D01*
X161861904Y-126928571D01*
X161766666Y-126976190D01*
X161385714Y-126976190D01*
X162338095Y-126547619D02*
X162385714Y-126500000D01*
X162480952Y-126452380D01*
X162719047Y-126452380D01*
X162814285Y-126500000D01*
X162861904Y-126547619D01*
X162909523Y-126642857D01*
X162909523Y-126738095D01*
X162861904Y-126880952D01*
X162290476Y-127452380D01*
X162909523Y-127452380D01*
X163528571Y-126452380D02*
X163623809Y-126452380D01*
X163719047Y-126500000D01*
X163766666Y-126547619D01*
X163814285Y-126642857D01*
X163861904Y-126833333D01*
X163861904Y-127071428D01*
X163814285Y-127261904D01*
X163766666Y-127357142D01*
X163719047Y-127404761D01*
X163623809Y-127452380D01*
X163528571Y-127452380D01*
X163433333Y-127404761D01*
X163385714Y-127357142D01*
X163338095Y-127261904D01*
X163290476Y-127071428D01*
X163290476Y-126833333D01*
X163338095Y-126642857D01*
X163385714Y-126547619D01*
X163433333Y-126500000D01*
X163528571Y-126452380D01*
X160202380Y-120282857D02*
X159726190Y-120616190D01*
X160202380Y-120854285D02*
X159202380Y-120854285D01*
X159202380Y-120473333D01*
X159250000Y-120378095D01*
X159297619Y-120330476D01*
X159392857Y-120282857D01*
X159535714Y-120282857D01*
X159630952Y-120330476D01*
X159678571Y-120378095D01*
X159726190Y-120473333D01*
X159726190Y-120854285D01*
X159297619Y-119901904D02*
X159250000Y-119854285D01*
X159202380Y-119759047D01*
X159202380Y-119520952D01*
X159250000Y-119425714D01*
X159297619Y-119378095D01*
X159392857Y-119330476D01*
X159488095Y-119330476D01*
X159630952Y-119378095D01*
X160202380Y-119949523D01*
X160202380Y-119330476D01*
X160202380Y-118378095D02*
X160202380Y-118949523D01*
X160202380Y-118663809D02*
X159202380Y-118663809D01*
X159345238Y-118759047D01*
X159440476Y-118854285D01*
X159488095Y-118949523D01*
X160232380Y-124382857D02*
X159756190Y-124716190D01*
X160232380Y-124954285D02*
X159232380Y-124954285D01*
X159232380Y-124573333D01*
X159280000Y-124478095D01*
X159327619Y-124430476D01*
X159422857Y-124382857D01*
X159565714Y-124382857D01*
X159660952Y-124430476D01*
X159708571Y-124478095D01*
X159756190Y-124573333D01*
X159756190Y-124954285D01*
X159327619Y-124001904D02*
X159280000Y-123954285D01*
X159232380Y-123859047D01*
X159232380Y-123620952D01*
X159280000Y-123525714D01*
X159327619Y-123478095D01*
X159422857Y-123430476D01*
X159518095Y-123430476D01*
X159660952Y-123478095D01*
X160232380Y-124049523D01*
X160232380Y-123430476D01*
X159327619Y-123049523D02*
X159280000Y-123001904D01*
X159232380Y-122906666D01*
X159232380Y-122668571D01*
X159280000Y-122573333D01*
X159327619Y-122525714D01*
X159422857Y-122478095D01*
X159518095Y-122478095D01*
X159660952Y-122525714D01*
X160232380Y-123097142D01*
X160232380Y-122478095D01*
X134857142Y-121052380D02*
X134523809Y-120576190D01*
X134285714Y-121052380D02*
X134285714Y-120052380D01*
X134666666Y-120052380D01*
X134761904Y-120100000D01*
X134809523Y-120147619D01*
X134857142Y-120242857D01*
X134857142Y-120385714D01*
X134809523Y-120480952D01*
X134761904Y-120528571D01*
X134666666Y-120576190D01*
X134285714Y-120576190D01*
X135238095Y-120147619D02*
X135285714Y-120100000D01*
X135380952Y-120052380D01*
X135619047Y-120052380D01*
X135714285Y-120100000D01*
X135761904Y-120147619D01*
X135809523Y-120242857D01*
X135809523Y-120338095D01*
X135761904Y-120480952D01*
X135190476Y-121052380D01*
X135809523Y-121052380D01*
X136142857Y-120052380D02*
X136761904Y-120052380D01*
X136428571Y-120433333D01*
X136571428Y-120433333D01*
X136666666Y-120480952D01*
X136714285Y-120528571D01*
X136761904Y-120623809D01*
X136761904Y-120861904D01*
X136714285Y-120957142D01*
X136666666Y-121004761D01*
X136571428Y-121052380D01*
X136285714Y-121052380D01*
X136190476Y-121004761D01*
X136142857Y-120957142D01*
X134857142Y-138452380D02*
X134523809Y-137976190D01*
X134285714Y-138452380D02*
X134285714Y-137452380D01*
X134666666Y-137452380D01*
X134761904Y-137500000D01*
X134809523Y-137547619D01*
X134857142Y-137642857D01*
X134857142Y-137785714D01*
X134809523Y-137880952D01*
X134761904Y-137928571D01*
X134666666Y-137976190D01*
X134285714Y-137976190D01*
X135238095Y-137547619D02*
X135285714Y-137500000D01*
X135380952Y-137452380D01*
X135619047Y-137452380D01*
X135714285Y-137500000D01*
X135761904Y-137547619D01*
X135809523Y-137642857D01*
X135809523Y-137738095D01*
X135761904Y-137880952D01*
X135190476Y-138452380D01*
X135809523Y-138452380D01*
X136666666Y-137785714D02*
X136666666Y-138452380D01*
X136428571Y-137404761D02*
X136190476Y-138119047D01*
X136809523Y-138119047D01*
X132057142Y-121052380D02*
X131723809Y-120576190D01*
X131485714Y-121052380D02*
X131485714Y-120052380D01*
X131866666Y-120052380D01*
X131961904Y-120100000D01*
X132009523Y-120147619D01*
X132057142Y-120242857D01*
X132057142Y-120385714D01*
X132009523Y-120480952D01*
X131961904Y-120528571D01*
X131866666Y-120576190D01*
X131485714Y-120576190D01*
X132438095Y-120147619D02*
X132485714Y-120100000D01*
X132580952Y-120052380D01*
X132819047Y-120052380D01*
X132914285Y-120100000D01*
X132961904Y-120147619D01*
X133009523Y-120242857D01*
X133009523Y-120338095D01*
X132961904Y-120480952D01*
X132390476Y-121052380D01*
X133009523Y-121052380D01*
X133914285Y-120052380D02*
X133438095Y-120052380D01*
X133390476Y-120528571D01*
X133438095Y-120480952D01*
X133533333Y-120433333D01*
X133771428Y-120433333D01*
X133866666Y-120480952D01*
X133914285Y-120528571D01*
X133961904Y-120623809D01*
X133961904Y-120861904D01*
X133914285Y-120957142D01*
X133866666Y-121004761D01*
X133771428Y-121052380D01*
X133533333Y-121052380D01*
X133438095Y-121004761D01*
X133390476Y-120957142D01*
X132057142Y-138452380D02*
X131723809Y-137976190D01*
X131485714Y-138452380D02*
X131485714Y-137452380D01*
X131866666Y-137452380D01*
X131961904Y-137500000D01*
X132009523Y-137547619D01*
X132057142Y-137642857D01*
X132057142Y-137785714D01*
X132009523Y-137880952D01*
X131961904Y-137928571D01*
X131866666Y-137976190D01*
X131485714Y-137976190D01*
X132438095Y-137547619D02*
X132485714Y-137500000D01*
X132580952Y-137452380D01*
X132819047Y-137452380D01*
X132914285Y-137500000D01*
X132961904Y-137547619D01*
X133009523Y-137642857D01*
X133009523Y-137738095D01*
X132961904Y-137880952D01*
X132390476Y-138452380D01*
X133009523Y-138452380D01*
X133866666Y-137452380D02*
X133676190Y-137452380D01*
X133580952Y-137500000D01*
X133533333Y-137547619D01*
X133438095Y-137690476D01*
X133390476Y-137880952D01*
X133390476Y-138261904D01*
X133438095Y-138357142D01*
X133485714Y-138404761D01*
X133580952Y-138452380D01*
X133771428Y-138452380D01*
X133866666Y-138404761D01*
X133914285Y-138357142D01*
X133961904Y-138261904D01*
X133961904Y-138023809D01*
X133914285Y-137928571D01*
X133866666Y-137880952D01*
X133771428Y-137833333D01*
X133580952Y-137833333D01*
X133485714Y-137880952D01*
X133438095Y-137928571D01*
X133390476Y-138023809D01*
X129257142Y-121052380D02*
X128923809Y-120576190D01*
X128685714Y-121052380D02*
X128685714Y-120052380D01*
X129066666Y-120052380D01*
X129161904Y-120100000D01*
X129209523Y-120147619D01*
X129257142Y-120242857D01*
X129257142Y-120385714D01*
X129209523Y-120480952D01*
X129161904Y-120528571D01*
X129066666Y-120576190D01*
X128685714Y-120576190D01*
X129638095Y-120147619D02*
X129685714Y-120100000D01*
X129780952Y-120052380D01*
X130019047Y-120052380D01*
X130114285Y-120100000D01*
X130161904Y-120147619D01*
X130209523Y-120242857D01*
X130209523Y-120338095D01*
X130161904Y-120480952D01*
X129590476Y-121052380D01*
X130209523Y-121052380D01*
X130542857Y-120052380D02*
X131209523Y-120052380D01*
X130780952Y-121052380D01*
X129257142Y-138452380D02*
X128923809Y-137976190D01*
X128685714Y-138452380D02*
X128685714Y-137452380D01*
X129066666Y-137452380D01*
X129161904Y-137500000D01*
X129209523Y-137547619D01*
X129257142Y-137642857D01*
X129257142Y-137785714D01*
X129209523Y-137880952D01*
X129161904Y-137928571D01*
X129066666Y-137976190D01*
X128685714Y-137976190D01*
X129638095Y-137547619D02*
X129685714Y-137500000D01*
X129780952Y-137452380D01*
X130019047Y-137452380D01*
X130114285Y-137500000D01*
X130161904Y-137547619D01*
X130209523Y-137642857D01*
X130209523Y-137738095D01*
X130161904Y-137880952D01*
X129590476Y-138452380D01*
X130209523Y-138452380D01*
X130780952Y-137880952D02*
X130685714Y-137833333D01*
X130638095Y-137785714D01*
X130590476Y-137690476D01*
X130590476Y-137642857D01*
X130638095Y-137547619D01*
X130685714Y-137500000D01*
X130780952Y-137452380D01*
X130971428Y-137452380D01*
X131066666Y-137500000D01*
X131114285Y-137547619D01*
X131161904Y-137642857D01*
X131161904Y-137690476D01*
X131114285Y-137785714D01*
X131066666Y-137833333D01*
X130971428Y-137880952D01*
X130780952Y-137880952D01*
X130685714Y-137928571D01*
X130638095Y-137976190D01*
X130590476Y-138071428D01*
X130590476Y-138261904D01*
X130638095Y-138357142D01*
X130685714Y-138404761D01*
X130780952Y-138452380D01*
X130971428Y-138452380D01*
X131066666Y-138404761D01*
X131114285Y-138357142D01*
X131161904Y-138261904D01*
X131161904Y-138071428D01*
X131114285Y-137976190D01*
X131066666Y-137928571D01*
X130971428Y-137880952D01*
X159752380Y-92192857D02*
X159276190Y-92526190D01*
X159752380Y-92764285D02*
X158752380Y-92764285D01*
X158752380Y-92383333D01*
X158800000Y-92288095D01*
X158847619Y-92240476D01*
X158942857Y-92192857D01*
X159085714Y-92192857D01*
X159180952Y-92240476D01*
X159228571Y-92288095D01*
X159276190Y-92383333D01*
X159276190Y-92764285D01*
X159085714Y-91335714D02*
X159752380Y-91335714D01*
X158704761Y-91573809D02*
X159419047Y-91811904D01*
X159419047Y-91192857D01*
X159752380Y-90288095D02*
X159752380Y-90859523D01*
X159752380Y-90573809D02*
X158752380Y-90573809D01*
X158895238Y-90669047D01*
X158990476Y-90764285D01*
X159038095Y-90859523D01*
X124957142Y-90852380D02*
X124623809Y-90376190D01*
X124385714Y-90852380D02*
X124385714Y-89852380D01*
X124766666Y-89852380D01*
X124861904Y-89900000D01*
X124909523Y-89947619D01*
X124957142Y-90042857D01*
X124957142Y-90185714D01*
X124909523Y-90280952D01*
X124861904Y-90328571D01*
X124766666Y-90376190D01*
X124385714Y-90376190D01*
X125814285Y-90185714D02*
X125814285Y-90852380D01*
X125576190Y-89804761D02*
X125338095Y-90519047D01*
X125957142Y-90519047D01*
X126290476Y-89947619D02*
X126338095Y-89900000D01*
X126433333Y-89852380D01*
X126671428Y-89852380D01*
X126766666Y-89900000D01*
X126814285Y-89947619D01*
X126861904Y-90042857D01*
X126861904Y-90138095D01*
X126814285Y-90280952D01*
X126242857Y-90852380D01*
X126861904Y-90852380D01*
X112512380Y-87142857D02*
X112036190Y-87476190D01*
X112512380Y-87714285D02*
X111512380Y-87714285D01*
X111512380Y-87333333D01*
X111560000Y-87238095D01*
X111607619Y-87190476D01*
X111702857Y-87142857D01*
X111845714Y-87142857D01*
X111940952Y-87190476D01*
X111988571Y-87238095D01*
X112036190Y-87333333D01*
X112036190Y-87714285D01*
X111845714Y-86285714D02*
X112512380Y-86285714D01*
X111464761Y-86523809D02*
X112179047Y-86761904D01*
X112179047Y-86142857D01*
X111512380Y-85857142D02*
X111512380Y-85238095D01*
X111893333Y-85571428D01*
X111893333Y-85428571D01*
X111940952Y-85333333D01*
X111988571Y-85285714D01*
X112083809Y-85238095D01*
X112321904Y-85238095D01*
X112417142Y-85285714D01*
X112464761Y-85333333D01*
X112512380Y-85428571D01*
X112512380Y-85714285D01*
X112464761Y-85809523D01*
X112417142Y-85857142D01*
X128357142Y-91952380D02*
X128023809Y-91476190D01*
X127785714Y-91952380D02*
X127785714Y-90952380D01*
X128166666Y-90952380D01*
X128261904Y-91000000D01*
X128309523Y-91047619D01*
X128357142Y-91142857D01*
X128357142Y-91285714D01*
X128309523Y-91380952D01*
X128261904Y-91428571D01*
X128166666Y-91476190D01*
X127785714Y-91476190D01*
X129214285Y-91285714D02*
X129214285Y-91952380D01*
X128976190Y-90904761D02*
X128738095Y-91619047D01*
X129357142Y-91619047D01*
X130214285Y-90952380D02*
X129738095Y-90952380D01*
X129690476Y-91428571D01*
X129738095Y-91380952D01*
X129833333Y-91333333D01*
X130071428Y-91333333D01*
X130166666Y-91380952D01*
X130214285Y-91428571D01*
X130261904Y-91523809D01*
X130261904Y-91761904D01*
X130214285Y-91857142D01*
X130166666Y-91904761D01*
X130071428Y-91952380D01*
X129833333Y-91952380D01*
X129738095Y-91904761D01*
X129690476Y-91857142D01*
X128357142Y-82652380D02*
X128023809Y-82176190D01*
X127785714Y-82652380D02*
X127785714Y-81652380D01*
X128166666Y-81652380D01*
X128261904Y-81700000D01*
X128309523Y-81747619D01*
X128357142Y-81842857D01*
X128357142Y-81985714D01*
X128309523Y-82080952D01*
X128261904Y-82128571D01*
X128166666Y-82176190D01*
X127785714Y-82176190D01*
X129214285Y-81985714D02*
X129214285Y-82652380D01*
X128976190Y-81604761D02*
X128738095Y-82319047D01*
X129357142Y-82319047D01*
X130166666Y-81652380D02*
X129976190Y-81652380D01*
X129880952Y-81700000D01*
X129833333Y-81747619D01*
X129738095Y-81890476D01*
X129690476Y-82080952D01*
X129690476Y-82461904D01*
X129738095Y-82557142D01*
X129785714Y-82604761D01*
X129880952Y-82652380D01*
X130071428Y-82652380D01*
X130166666Y-82604761D01*
X130214285Y-82557142D01*
X130261904Y-82461904D01*
X130261904Y-82223809D01*
X130214285Y-82128571D01*
X130166666Y-82080952D01*
X130071428Y-82033333D01*
X129880952Y-82033333D01*
X129785714Y-82080952D01*
X129738095Y-82128571D01*
X129690476Y-82223809D01*
X163552380Y-92142857D02*
X163076190Y-92476190D01*
X163552380Y-92714285D02*
X162552380Y-92714285D01*
X162552380Y-92333333D01*
X162600000Y-92238095D01*
X162647619Y-92190476D01*
X162742857Y-92142857D01*
X162885714Y-92142857D01*
X162980952Y-92190476D01*
X163028571Y-92238095D01*
X163076190Y-92333333D01*
X163076190Y-92714285D01*
X162885714Y-91285714D02*
X163552380Y-91285714D01*
X162504761Y-91523809D02*
X163219047Y-91761904D01*
X163219047Y-91142857D01*
X162552380Y-90857142D02*
X162552380Y-90190476D01*
X163552380Y-90619047D01*
X167252380Y-92142857D02*
X166776190Y-92476190D01*
X167252380Y-92714285D02*
X166252380Y-92714285D01*
X166252380Y-92333333D01*
X166300000Y-92238095D01*
X166347619Y-92190476D01*
X166442857Y-92142857D01*
X166585714Y-92142857D01*
X166680952Y-92190476D01*
X166728571Y-92238095D01*
X166776190Y-92333333D01*
X166776190Y-92714285D01*
X166585714Y-91285714D02*
X167252380Y-91285714D01*
X166204761Y-91523809D02*
X166919047Y-91761904D01*
X166919047Y-91142857D01*
X166680952Y-90619047D02*
X166633333Y-90714285D01*
X166585714Y-90761904D01*
X166490476Y-90809523D01*
X166442857Y-90809523D01*
X166347619Y-90761904D01*
X166300000Y-90714285D01*
X166252380Y-90619047D01*
X166252380Y-90428571D01*
X166300000Y-90333333D01*
X166347619Y-90285714D01*
X166442857Y-90238095D01*
X166490476Y-90238095D01*
X166585714Y-90285714D01*
X166633333Y-90333333D01*
X166680952Y-90428571D01*
X166680952Y-90619047D01*
X166728571Y-90714285D01*
X166776190Y-90761904D01*
X166871428Y-90809523D01*
X167061904Y-90809523D01*
X167157142Y-90761904D01*
X167204761Y-90714285D01*
X167252380Y-90619047D01*
X167252380Y-90428571D01*
X167204761Y-90333333D01*
X167157142Y-90285714D01*
X167061904Y-90238095D01*
X166871428Y-90238095D01*
X166776190Y-90285714D01*
X166728571Y-90333333D01*
X166680952Y-90428571D01*
X170952380Y-92142857D02*
X170476190Y-92476190D01*
X170952380Y-92714285D02*
X169952380Y-92714285D01*
X169952380Y-92333333D01*
X170000000Y-92238095D01*
X170047619Y-92190476D01*
X170142857Y-92142857D01*
X170285714Y-92142857D01*
X170380952Y-92190476D01*
X170428571Y-92238095D01*
X170476190Y-92333333D01*
X170476190Y-92714285D01*
X170285714Y-91285714D02*
X170952380Y-91285714D01*
X169904761Y-91523809D02*
X170619047Y-91761904D01*
X170619047Y-91142857D01*
X170952380Y-90714285D02*
X170952380Y-90523809D01*
X170904761Y-90428571D01*
X170857142Y-90380952D01*
X170714285Y-90285714D01*
X170523809Y-90238095D01*
X170142857Y-90238095D01*
X170047619Y-90285714D01*
X170000000Y-90333333D01*
X169952380Y-90428571D01*
X169952380Y-90619047D01*
X170000000Y-90714285D01*
X170047619Y-90761904D01*
X170142857Y-90809523D01*
X170380952Y-90809523D01*
X170476190Y-90761904D01*
X170523809Y-90714285D01*
X170571428Y-90619047D01*
X170571428Y-90428571D01*
X170523809Y-90333333D01*
X170476190Y-90285714D01*
X170380952Y-90238095D01*
X174652380Y-92142857D02*
X174176190Y-92476190D01*
X174652380Y-92714285D02*
X173652380Y-92714285D01*
X173652380Y-92333333D01*
X173700000Y-92238095D01*
X173747619Y-92190476D01*
X173842857Y-92142857D01*
X173985714Y-92142857D01*
X174080952Y-92190476D01*
X174128571Y-92238095D01*
X174176190Y-92333333D01*
X174176190Y-92714285D01*
X173652380Y-91238095D02*
X173652380Y-91714285D01*
X174128571Y-91761904D01*
X174080952Y-91714285D01*
X174033333Y-91619047D01*
X174033333Y-91380952D01*
X174080952Y-91285714D01*
X174128571Y-91238095D01*
X174223809Y-91190476D01*
X174461904Y-91190476D01*
X174557142Y-91238095D01*
X174604761Y-91285714D01*
X174652380Y-91380952D01*
X174652380Y-91619047D01*
X174604761Y-91714285D01*
X174557142Y-91761904D01*
X173652380Y-90571428D02*
X173652380Y-90476190D01*
X173700000Y-90380952D01*
X173747619Y-90333333D01*
X173842857Y-90285714D01*
X174033333Y-90238095D01*
X174271428Y-90238095D01*
X174461904Y-90285714D01*
X174557142Y-90333333D01*
X174604761Y-90380952D01*
X174652380Y-90476190D01*
X174652380Y-90571428D01*
X174604761Y-90666666D01*
X174557142Y-90714285D01*
X174461904Y-90761904D01*
X174271428Y-90809523D01*
X174033333Y-90809523D01*
X173842857Y-90761904D01*
X173747619Y-90714285D01*
X173700000Y-90666666D01*
X173652380Y-90571428D01*
X178352380Y-92142857D02*
X177876190Y-92476190D01*
X178352380Y-92714285D02*
X177352380Y-92714285D01*
X177352380Y-92333333D01*
X177400000Y-92238095D01*
X177447619Y-92190476D01*
X177542857Y-92142857D01*
X177685714Y-92142857D01*
X177780952Y-92190476D01*
X177828571Y-92238095D01*
X177876190Y-92333333D01*
X177876190Y-92714285D01*
X177352380Y-91238095D02*
X177352380Y-91714285D01*
X177828571Y-91761904D01*
X177780952Y-91714285D01*
X177733333Y-91619047D01*
X177733333Y-91380952D01*
X177780952Y-91285714D01*
X177828571Y-91238095D01*
X177923809Y-91190476D01*
X178161904Y-91190476D01*
X178257142Y-91238095D01*
X178304761Y-91285714D01*
X178352380Y-91380952D01*
X178352380Y-91619047D01*
X178304761Y-91714285D01*
X178257142Y-91761904D01*
X178352380Y-90238095D02*
X178352380Y-90809523D01*
X178352380Y-90523809D02*
X177352380Y-90523809D01*
X177495238Y-90619047D01*
X177590476Y-90714285D01*
X177638095Y-90809523D01*
X182052380Y-92142857D02*
X181576190Y-92476190D01*
X182052380Y-92714285D02*
X181052380Y-92714285D01*
X181052380Y-92333333D01*
X181100000Y-92238095D01*
X181147619Y-92190476D01*
X181242857Y-92142857D01*
X181385714Y-92142857D01*
X181480952Y-92190476D01*
X181528571Y-92238095D01*
X181576190Y-92333333D01*
X181576190Y-92714285D01*
X181052380Y-91238095D02*
X181052380Y-91714285D01*
X181528571Y-91761904D01*
X181480952Y-91714285D01*
X181433333Y-91619047D01*
X181433333Y-91380952D01*
X181480952Y-91285714D01*
X181528571Y-91238095D01*
X181623809Y-91190476D01*
X181861904Y-91190476D01*
X181957142Y-91238095D01*
X182004761Y-91285714D01*
X182052380Y-91380952D01*
X182052380Y-91619047D01*
X182004761Y-91714285D01*
X181957142Y-91761904D01*
X181147619Y-90809523D02*
X181100000Y-90761904D01*
X181052380Y-90666666D01*
X181052380Y-90428571D01*
X181100000Y-90333333D01*
X181147619Y-90285714D01*
X181242857Y-90238095D01*
X181338095Y-90238095D01*
X181480952Y-90285714D01*
X182052380Y-90857142D01*
X182052380Y-90238095D01*
X185752380Y-92142857D02*
X185276190Y-92476190D01*
X185752380Y-92714285D02*
X184752380Y-92714285D01*
X184752380Y-92333333D01*
X184800000Y-92238095D01*
X184847619Y-92190476D01*
X184942857Y-92142857D01*
X185085714Y-92142857D01*
X185180952Y-92190476D01*
X185228571Y-92238095D01*
X185276190Y-92333333D01*
X185276190Y-92714285D01*
X184752380Y-91238095D02*
X184752380Y-91714285D01*
X185228571Y-91761904D01*
X185180952Y-91714285D01*
X185133333Y-91619047D01*
X185133333Y-91380952D01*
X185180952Y-91285714D01*
X185228571Y-91238095D01*
X185323809Y-91190476D01*
X185561904Y-91190476D01*
X185657142Y-91238095D01*
X185704761Y-91285714D01*
X185752380Y-91380952D01*
X185752380Y-91619047D01*
X185704761Y-91714285D01*
X185657142Y-91761904D01*
X184752380Y-90857142D02*
X184752380Y-90238095D01*
X185133333Y-90571428D01*
X185133333Y-90428571D01*
X185180952Y-90333333D01*
X185228571Y-90285714D01*
X185323809Y-90238095D01*
X185561904Y-90238095D01*
X185657142Y-90285714D01*
X185704761Y-90333333D01*
X185752380Y-90428571D01*
X185752380Y-90714285D01*
X185704761Y-90809523D01*
X185657142Y-90857142D01*
X189452380Y-92142857D02*
X188976190Y-92476190D01*
X189452380Y-92714285D02*
X188452380Y-92714285D01*
X188452380Y-92333333D01*
X188500000Y-92238095D01*
X188547619Y-92190476D01*
X188642857Y-92142857D01*
X188785714Y-92142857D01*
X188880952Y-92190476D01*
X188928571Y-92238095D01*
X188976190Y-92333333D01*
X188976190Y-92714285D01*
X188452380Y-91238095D02*
X188452380Y-91714285D01*
X188928571Y-91761904D01*
X188880952Y-91714285D01*
X188833333Y-91619047D01*
X188833333Y-91380952D01*
X188880952Y-91285714D01*
X188928571Y-91238095D01*
X189023809Y-91190476D01*
X189261904Y-91190476D01*
X189357142Y-91238095D01*
X189404761Y-91285714D01*
X189452380Y-91380952D01*
X189452380Y-91619047D01*
X189404761Y-91714285D01*
X189357142Y-91761904D01*
X188785714Y-90333333D02*
X189452380Y-90333333D01*
X188404761Y-90571428D02*
X189119047Y-90809523D01*
X189119047Y-90190476D01*
X184266666Y-76254761D02*
X184409523Y-76302380D01*
X184647619Y-76302380D01*
X184742857Y-76254761D01*
X184790476Y-76207142D01*
X184838095Y-76111904D01*
X184838095Y-76016666D01*
X184790476Y-75921428D01*
X184742857Y-75873809D01*
X184647619Y-75826190D01*
X184457142Y-75778571D01*
X184361904Y-75730952D01*
X184314285Y-75683333D01*
X184266666Y-75588095D01*
X184266666Y-75492857D01*
X184314285Y-75397619D01*
X184361904Y-75350000D01*
X184457142Y-75302380D01*
X184695238Y-75302380D01*
X184838095Y-75350000D01*
X185171428Y-75302380D02*
X185409523Y-76302380D01*
X185600000Y-75588095D01*
X185790476Y-76302380D01*
X186028571Y-75302380D01*
X186933333Y-76302380D02*
X186361904Y-76302380D01*
X186647619Y-76302380D02*
X186647619Y-75302380D01*
X186552380Y-75445238D01*
X186457142Y-75540476D01*
X186361904Y-75588095D01*
X155944281Y-111966426D02*
X155944281Y-112775950D01*
X155991900Y-112871188D01*
X156039519Y-112918807D01*
X156134757Y-112966426D01*
X156325233Y-112966426D01*
X156420471Y-112918807D01*
X156468090Y-112871188D01*
X156515709Y-112775950D01*
X156515709Y-111966426D01*
X157515709Y-112966426D02*
X156944281Y-112966426D01*
X157229995Y-112966426D02*
X157229995Y-111966426D01*
X157134757Y-112109284D01*
X157039519Y-112204522D01*
X156944281Y-112252141D01*
X118868095Y-92292380D02*
X118868095Y-93101904D01*
X118915714Y-93197142D01*
X118963333Y-93244761D01*
X119058571Y-93292380D01*
X119249047Y-93292380D01*
X119344285Y-93244761D01*
X119391904Y-93197142D01*
X119439523Y-93101904D01*
X119439523Y-92292380D01*
X119868095Y-92387619D02*
X119915714Y-92340000D01*
X120010952Y-92292380D01*
X120249047Y-92292380D01*
X120344285Y-92340000D01*
X120391904Y-92387619D01*
X120439523Y-92482857D01*
X120439523Y-92578095D01*
X120391904Y-92720952D01*
X119820476Y-93292380D01*
X120439523Y-93292380D01*
X112952380Y-114786904D02*
X113761904Y-114786904D01*
X113857142Y-114739285D01*
X113904761Y-114691666D01*
X113952380Y-114596428D01*
X113952380Y-114405952D01*
X113904761Y-114310714D01*
X113857142Y-114263095D01*
X113761904Y-114215476D01*
X112952380Y-114215476D01*
X112952380Y-113834523D02*
X112952380Y-113215476D01*
X113333333Y-113548809D01*
X113333333Y-113405952D01*
X113380952Y-113310714D01*
X113428571Y-113263095D01*
X113523809Y-113215476D01*
X113761904Y-113215476D01*
X113857142Y-113263095D01*
X113904761Y-113310714D01*
X113952380Y-113405952D01*
X113952380Y-113691666D01*
X113904761Y-113786904D01*
X113857142Y-113834523D01*
X175945895Y-119060980D02*
X175945895Y-119870504D01*
X175993514Y-119965742D01*
X176041133Y-120013361D01*
X176136371Y-120060980D01*
X176326847Y-120060980D01*
X176422085Y-120013361D01*
X176469704Y-119965742D01*
X176517323Y-119870504D01*
X176517323Y-119060980D01*
X177469704Y-119060980D02*
X176993514Y-119060980D01*
X176945895Y-119537171D01*
X176993514Y-119489552D01*
X177088752Y-119441933D01*
X177326847Y-119441933D01*
X177422085Y-119489552D01*
X177469704Y-119537171D01*
X177517323Y-119632409D01*
X177517323Y-119870504D01*
X177469704Y-119965742D01*
X177422085Y-120013361D01*
X177326847Y-120060980D01*
X177088752Y-120060980D01*
X176993514Y-120013361D01*
X176945895Y-119965742D01*
X149538095Y-93902380D02*
X149538095Y-94711904D01*
X149585714Y-94807142D01*
X149633333Y-94854761D01*
X149728571Y-94902380D01*
X149919047Y-94902380D01*
X150014285Y-94854761D01*
X150061904Y-94807142D01*
X150109523Y-94711904D01*
X150109523Y-93902380D01*
X151014285Y-93902380D02*
X150823809Y-93902380D01*
X150728571Y-93950000D01*
X150680952Y-93997619D01*
X150585714Y-94140476D01*
X150538095Y-94330952D01*
X150538095Y-94711904D01*
X150585714Y-94807142D01*
X150633333Y-94854761D01*
X150728571Y-94902380D01*
X150919047Y-94902380D01*
X151014285Y-94854761D01*
X151061904Y-94807142D01*
X151109523Y-94711904D01*
X151109523Y-94473809D01*
X151061904Y-94378571D01*
X151014285Y-94330952D01*
X150919047Y-94283333D01*
X150728571Y-94283333D01*
X150633333Y-94330952D01*
X150585714Y-94378571D01*
X150538095Y-94473809D01*
X139388095Y-91802380D02*
X139388095Y-92611904D01*
X139435714Y-92707142D01*
X139483333Y-92754761D01*
X139578571Y-92802380D01*
X139769047Y-92802380D01*
X139864285Y-92754761D01*
X139911904Y-92707142D01*
X139959523Y-92611904D01*
X139959523Y-91802380D01*
X140340476Y-91802380D02*
X141007142Y-91802380D01*
X140578571Y-92802380D01*
X128888095Y-98852380D02*
X128888095Y-99661904D01*
X128935714Y-99757142D01*
X128983333Y-99804761D01*
X129078571Y-99852380D01*
X129269047Y-99852380D01*
X129364285Y-99804761D01*
X129411904Y-99757142D01*
X129459523Y-99661904D01*
X129459523Y-98852380D01*
X130078571Y-99280952D02*
X129983333Y-99233333D01*
X129935714Y-99185714D01*
X129888095Y-99090476D01*
X129888095Y-99042857D01*
X129935714Y-98947619D01*
X129983333Y-98900000D01*
X130078571Y-98852380D01*
X130269047Y-98852380D01*
X130364285Y-98900000D01*
X130411904Y-98947619D01*
X130459523Y-99042857D01*
X130459523Y-99090476D01*
X130411904Y-99185714D01*
X130364285Y-99233333D01*
X130269047Y-99280952D01*
X130078571Y-99280952D01*
X129983333Y-99328571D01*
X129935714Y-99376190D01*
X129888095Y-99471428D01*
X129888095Y-99661904D01*
X129935714Y-99757142D01*
X129983333Y-99804761D01*
X130078571Y-99852380D01*
X130269047Y-99852380D01*
X130364285Y-99804761D01*
X130411904Y-99757142D01*
X130459523Y-99661904D01*
X130459523Y-99471428D01*
X130411904Y-99376190D01*
X130364285Y-99328571D01*
X130269047Y-99280952D01*
X127100000Y-99802380D02*
X127100000Y-100040476D01*
X126861904Y-99945238D02*
X127100000Y-100040476D01*
X127338095Y-99945238D01*
X126957142Y-100230952D02*
X127100000Y-100040476D01*
X127242857Y-100230952D01*
X167202380Y-123238095D02*
X168011904Y-123238095D01*
X168107142Y-123190476D01*
X168154761Y-123142857D01*
X168202380Y-123047619D01*
X168202380Y-122857142D01*
X168154761Y-122761904D01*
X168107142Y-122714285D01*
X168011904Y-122666666D01*
X167202380Y-122666666D01*
X168202380Y-121666666D02*
X168202380Y-122238095D01*
X168202380Y-121952380D02*
X167202380Y-121952380D01*
X167345238Y-122047619D01*
X167440476Y-122142857D01*
X167488095Y-122238095D01*
X167202380Y-121047619D02*
X167202380Y-120952380D01*
X167250000Y-120857142D01*
X167297619Y-120809523D01*
X167392857Y-120761904D01*
X167583333Y-120714285D01*
X167821428Y-120714285D01*
X168011904Y-120761904D01*
X168107142Y-120809523D01*
X168154761Y-120857142D01*
X168202380Y-120952380D01*
X168202380Y-121047619D01*
X168154761Y-121142857D01*
X168107142Y-121190476D01*
X168011904Y-121238095D01*
X167821428Y-121285714D01*
X167583333Y-121285714D01*
X167392857Y-121238095D01*
X167297619Y-121190476D01*
X167250000Y-121142857D01*
X167202380Y-121047619D01*
X151211904Y-118122380D02*
X151211904Y-118931904D01*
X151259523Y-119027142D01*
X151307142Y-119074761D01*
X151402380Y-119122380D01*
X151592857Y-119122380D01*
X151688095Y-119074761D01*
X151735714Y-119027142D01*
X151783333Y-118931904D01*
X151783333Y-118122380D01*
X152783333Y-119122380D02*
X152211904Y-119122380D01*
X152497619Y-119122380D02*
X152497619Y-118122380D01*
X152402380Y-118265238D01*
X152307142Y-118360476D01*
X152211904Y-118408095D01*
X153164285Y-118217619D02*
X153211904Y-118170000D01*
X153307142Y-118122380D01*
X153545238Y-118122380D01*
X153640476Y-118170000D01*
X153688095Y-118217619D01*
X153735714Y-118312857D01*
X153735714Y-118408095D01*
X153688095Y-118550952D01*
X153116666Y-119122380D01*
X153735714Y-119122380D01*
X138252380Y-130538095D02*
X139061904Y-130538095D01*
X139157142Y-130490476D01*
X139204761Y-130442857D01*
X139252380Y-130347619D01*
X139252380Y-130157142D01*
X139204761Y-130061904D01*
X139157142Y-130014285D01*
X139061904Y-129966666D01*
X138252380Y-129966666D01*
X139252380Y-128966666D02*
X139252380Y-129538095D01*
X139252380Y-129252380D02*
X138252380Y-129252380D01*
X138395238Y-129347619D01*
X138490476Y-129442857D01*
X138538095Y-129538095D01*
X138252380Y-128633333D02*
X138252380Y-128014285D01*
X138633333Y-128347619D01*
X138633333Y-128204761D01*
X138680952Y-128109523D01*
X138728571Y-128061904D01*
X138823809Y-128014285D01*
X139061904Y-128014285D01*
X139157142Y-128061904D01*
X139204761Y-128109523D01*
X139252380Y-128204761D01*
X139252380Y-128490476D01*
X139204761Y-128585714D01*
X139157142Y-128633333D01*
X118185084Y-124516900D02*
X118185084Y-125326424D01*
X118232703Y-125421662D01*
X118280322Y-125469281D01*
X118375560Y-125516900D01*
X118566037Y-125516900D01*
X118661275Y-125469281D01*
X118708894Y-125421662D01*
X118756513Y-125326424D01*
X118756513Y-124516900D01*
X119756513Y-125516900D02*
X119185084Y-125516900D01*
X119470799Y-125516900D02*
X119470799Y-124516900D01*
X119375560Y-124659758D01*
X119280322Y-124754996D01*
X119185084Y-124802615D01*
X120661275Y-124516900D02*
X120185084Y-124516900D01*
X120137465Y-124993091D01*
X120185084Y-124945472D01*
X120280322Y-124897853D01*
X120518418Y-124897853D01*
X120613656Y-124945472D01*
X120661275Y-124993091D01*
X120708894Y-125088329D01*
X120708894Y-125326424D01*
X120661275Y-125421662D01*
X120613656Y-125469281D01*
X120518418Y-125516900D01*
X120280322Y-125516900D01*
X120185084Y-125469281D01*
X120137465Y-125421662D01*
X118061904Y-89652380D02*
X118061904Y-90461904D01*
X118109523Y-90557142D01*
X118157142Y-90604761D01*
X118252380Y-90652380D01*
X118442857Y-90652380D01*
X118538095Y-90604761D01*
X118585714Y-90557142D01*
X118633333Y-90461904D01*
X118633333Y-89652380D01*
X119633333Y-90652380D02*
X119061904Y-90652380D01*
X119347619Y-90652380D02*
X119347619Y-89652380D01*
X119252380Y-89795238D01*
X119157142Y-89890476D01*
X119061904Y-89938095D01*
X120490476Y-89652380D02*
X120300000Y-89652380D01*
X120204761Y-89700000D01*
X120157142Y-89747619D01*
X120061904Y-89890476D01*
X120014285Y-90080952D01*
X120014285Y-90461904D01*
X120061904Y-90557142D01*
X120109523Y-90604761D01*
X120204761Y-90652380D01*
X120395238Y-90652380D01*
X120490476Y-90604761D01*
X120538095Y-90557142D01*
X120585714Y-90461904D01*
X120585714Y-90223809D01*
X120538095Y-90128571D01*
X120490476Y-90080952D01*
X120395238Y-90033333D01*
X120204761Y-90033333D01*
X120109523Y-90080952D01*
X120061904Y-90128571D01*
X120014285Y-90223809D01*
X159797630Y-109531479D02*
X160273820Y-109531479D01*
X159273820Y-109864812D02*
X159797630Y-109531479D01*
X159273820Y-109198146D01*
X160273820Y-108341003D02*
X160273820Y-108912431D01*
X160273820Y-108626717D02*
X159273820Y-108626717D01*
X159416678Y-108721955D01*
X159511916Y-108817193D01*
X159559535Y-108912431D01*
X100452380Y-111309523D02*
X101166666Y-111309523D01*
X101309523Y-111357142D01*
X101404761Y-111452380D01*
X101452380Y-111595238D01*
X101452380Y-111690476D01*
X101452380Y-110309523D02*
X101452380Y-110880952D01*
X101452380Y-110595238D02*
X100452380Y-110595238D01*
X100595238Y-110690476D01*
X100690476Y-110785714D01*
X100738095Y-110880952D01*
X101452380Y-109357142D02*
X101452380Y-109928571D01*
X101452380Y-109642857D02*
X100452380Y-109642857D01*
X100595238Y-109738095D01*
X100690476Y-109833333D01*
X100738095Y-109928571D01*
X100452380Y-132309523D02*
X101166666Y-132309523D01*
X101309523Y-132357142D01*
X101404761Y-132452380D01*
X101452380Y-132595238D01*
X101452380Y-132690476D01*
X101452380Y-131309523D02*
X101452380Y-131880952D01*
X101452380Y-131595238D02*
X100452380Y-131595238D01*
X100595238Y-131690476D01*
X100690476Y-131785714D01*
X100738095Y-131880952D01*
X100547619Y-130928571D02*
X100500000Y-130880952D01*
X100452380Y-130785714D01*
X100452380Y-130547619D01*
X100500000Y-130452380D01*
X100547619Y-130404761D01*
X100642857Y-130357142D01*
X100738095Y-130357142D01*
X100880952Y-130404761D01*
X101452380Y-130976190D01*
X101452380Y-130357142D01*
X192552380Y-134461904D02*
X193361904Y-134461904D01*
X193457142Y-134414285D01*
X193504761Y-134366666D01*
X193552380Y-134271428D01*
X193552380Y-134080952D01*
X193504761Y-133985714D01*
X193457142Y-133938095D01*
X193361904Y-133890476D01*
X192552380Y-133890476D01*
X192885714Y-132985714D02*
X193552380Y-132985714D01*
X192504761Y-133223809D02*
X193219047Y-133461904D01*
X193219047Y-132842857D01*
X187066666Y-145852380D02*
X187066666Y-146566666D01*
X187019047Y-146709523D01*
X186923809Y-146804761D01*
X186780952Y-146852380D01*
X186685714Y-146852380D01*
X187542857Y-146852380D02*
X187542857Y-145852380D01*
X187923809Y-145852380D01*
X188019047Y-145900000D01*
X188066666Y-145947619D01*
X188114285Y-146042857D01*
X188114285Y-146185714D01*
X188066666Y-146280952D01*
X188019047Y-146328571D01*
X187923809Y-146376190D01*
X187542857Y-146376190D01*
X189066666Y-146852380D02*
X188495238Y-146852380D01*
X188780952Y-146852380D02*
X188780952Y-145852380D01*
X188685714Y-145995238D01*
X188590476Y-146090476D01*
X188495238Y-146138095D01*
M02*
