G04 #@! TF.GenerationSoftware,KiCad,Pcbnew,(5.0.0)*
G04 #@! TF.CreationDate,2019-01-26T22:59:54-06:00*
G04 #@! TF.ProjectId,BPSVoltage,425053566F6C746167652E6B69636164,rev?*
G04 #@! TF.SameCoordinates,Original*
G04 #@! TF.FileFunction,Copper,L2,Bot,Signal*
G04 #@! TF.FilePolarity,Positive*
%FSLAX46Y46*%
G04 Gerber Fmt 4.6, Leading zero omitted, Abs format (unit mm)*
G04 Created by KiCad (PCBNEW (5.0.0)) date 01/26/19 22:59:54*
%MOMM*%
%LPD*%
G01*
G04 APERTURE LIST*
G04 #@! TA.AperFunction,ComponentPad*
%ADD10R,2.000000X1.500000*%
G04 #@! TD*
G04 #@! TA.AperFunction,ComponentPad*
%ADD11O,2.000000X1.500000*%
G04 #@! TD*
G04 #@! TA.AperFunction,ComponentPad*
%ADD12C,1.700000*%
G04 #@! TD*
G04 #@! TA.AperFunction,Conductor*
%ADD13C,0.100000*%
G04 #@! TD*
G04 #@! TA.AperFunction,SMDPad,CuDef*
%ADD14C,1.350000*%
G04 #@! TD*
G04 #@! TA.AperFunction,ViaPad*
%ADD15C,0.800000*%
G04 #@! TD*
G04 #@! TA.AperFunction,Conductor*
%ADD16C,0.203200*%
G04 #@! TD*
G04 #@! TA.AperFunction,Conductor*
%ADD17C,0.381000*%
G04 #@! TD*
G04 #@! TA.AperFunction,Conductor*
%ADD18C,0.304800*%
G04 #@! TD*
G04 #@! TA.AperFunction,Conductor*
%ADD19C,0.254000*%
G04 #@! TD*
G04 APERTURE END LIST*
D10*
G04 #@! TO.P,J4,1*
G04 #@! TO.N,GND*
X170688000Y-69596000D03*
D11*
G04 #@! TO.P,J4,2*
G04 #@! TO.N,/Batt1*
X170688000Y-66596000D03*
G04 #@! TO.P,J4,3*
G04 #@! TO.N,/Batt2*
X170688000Y-63596000D03*
G04 #@! TO.P,J4,4*
G04 #@! TO.N,/Batt3*
X170688000Y-60596000D03*
G04 #@! TO.P,J4,5*
G04 #@! TO.N,/Batt4*
X170688000Y-57596000D03*
G04 #@! TO.P,J4,6*
G04 #@! TO.N,/Batt5*
X170688000Y-54596000D03*
G04 #@! TO.P,J4,7*
G04 #@! TO.N,/Batt6*
X170688000Y-51596000D03*
G04 #@! TD*
D10*
G04 #@! TO.P,J3,1*
G04 #@! TO.N,/Batt7*
X170688000Y-44196000D03*
D11*
G04 #@! TO.P,J3,2*
G04 #@! TO.N,/Batt8*
X170688000Y-41196000D03*
G04 #@! TO.P,J3,3*
G04 #@! TO.N,/Batt9*
X170688000Y-38196000D03*
G04 #@! TO.P,J3,4*
G04 #@! TO.N,/Batt10*
X170688000Y-35196000D03*
G04 #@! TO.P,J3,5*
G04 #@! TO.N,/Batt11*
X170688000Y-32196000D03*
G04 #@! TO.P,J3,6*
G04 #@! TO.N,/Batt12*
X170688000Y-29196000D03*
G04 #@! TD*
D12*
G04 #@! TO.P,J1,1*
G04 #@! TO.N,Net-(J1-Pad1)*
X222885000Y-52070000D03*
G04 #@! TO.P,J1,2*
G04 #@! TO.N,Net-(J1-Pad2)*
X222885000Y-55070000D03*
G04 #@! TD*
G04 #@! TO.P,J2,2*
G04 #@! TO.N,Net-(J2-Pad2)*
X222885000Y-67770000D03*
G04 #@! TO.P,J2,1*
G04 #@! TO.N,Net-(J2-Pad1)*
X222885000Y-64770000D03*
G04 #@! TD*
D13*
G04 #@! TO.N,Net-(Q1-Pad3)*
G04 #@! TO.C,R4*
G36*
X181297505Y-30330204D02*
X181321773Y-30333804D01*
X181345572Y-30339765D01*
X181368671Y-30348030D01*
X181390850Y-30358520D01*
X181411893Y-30371132D01*
X181431599Y-30385747D01*
X181449777Y-30402223D01*
X181466253Y-30420401D01*
X181480868Y-30440107D01*
X181493480Y-30461150D01*
X181503970Y-30483329D01*
X181512235Y-30506428D01*
X181518196Y-30530227D01*
X181521796Y-30554495D01*
X181523000Y-30578999D01*
X181523000Y-33429001D01*
X181521796Y-33453505D01*
X181518196Y-33477773D01*
X181512235Y-33501572D01*
X181503970Y-33524671D01*
X181493480Y-33546850D01*
X181480868Y-33567893D01*
X181466253Y-33587599D01*
X181449777Y-33605777D01*
X181431599Y-33622253D01*
X181411893Y-33636868D01*
X181390850Y-33649480D01*
X181368671Y-33659970D01*
X181345572Y-33668235D01*
X181321773Y-33674196D01*
X181297505Y-33677796D01*
X181273001Y-33679000D01*
X180422999Y-33679000D01*
X180398495Y-33677796D01*
X180374227Y-33674196D01*
X180350428Y-33668235D01*
X180327329Y-33659970D01*
X180305150Y-33649480D01*
X180284107Y-33636868D01*
X180264401Y-33622253D01*
X180246223Y-33605777D01*
X180229747Y-33587599D01*
X180215132Y-33567893D01*
X180202520Y-33546850D01*
X180192030Y-33524671D01*
X180183765Y-33501572D01*
X180177804Y-33477773D01*
X180174204Y-33453505D01*
X180173000Y-33429001D01*
X180173000Y-30578999D01*
X180174204Y-30554495D01*
X180177804Y-30530227D01*
X180183765Y-30506428D01*
X180192030Y-30483329D01*
X180202520Y-30461150D01*
X180215132Y-30440107D01*
X180229747Y-30420401D01*
X180246223Y-30402223D01*
X180264401Y-30385747D01*
X180284107Y-30371132D01*
X180305150Y-30358520D01*
X180327329Y-30348030D01*
X180350428Y-30339765D01*
X180374227Y-30333804D01*
X180398495Y-30330204D01*
X180422999Y-30329000D01*
X181273001Y-30329000D01*
X181297505Y-30330204D01*
X181297505Y-30330204D01*
G37*
D14*
G04 #@! TD*
G04 #@! TO.P,R4,2*
G04 #@! TO.N,Net-(Q1-Pad3)*
X180848000Y-32004000D03*
D13*
G04 #@! TO.N,/Batt11*
G04 #@! TO.C,R4*
G36*
X175497505Y-30330204D02*
X175521773Y-30333804D01*
X175545572Y-30339765D01*
X175568671Y-30348030D01*
X175590850Y-30358520D01*
X175611893Y-30371132D01*
X175631599Y-30385747D01*
X175649777Y-30402223D01*
X175666253Y-30420401D01*
X175680868Y-30440107D01*
X175693480Y-30461150D01*
X175703970Y-30483329D01*
X175712235Y-30506428D01*
X175718196Y-30530227D01*
X175721796Y-30554495D01*
X175723000Y-30578999D01*
X175723000Y-33429001D01*
X175721796Y-33453505D01*
X175718196Y-33477773D01*
X175712235Y-33501572D01*
X175703970Y-33524671D01*
X175693480Y-33546850D01*
X175680868Y-33567893D01*
X175666253Y-33587599D01*
X175649777Y-33605777D01*
X175631599Y-33622253D01*
X175611893Y-33636868D01*
X175590850Y-33649480D01*
X175568671Y-33659970D01*
X175545572Y-33668235D01*
X175521773Y-33674196D01*
X175497505Y-33677796D01*
X175473001Y-33679000D01*
X174622999Y-33679000D01*
X174598495Y-33677796D01*
X174574227Y-33674196D01*
X174550428Y-33668235D01*
X174527329Y-33659970D01*
X174505150Y-33649480D01*
X174484107Y-33636868D01*
X174464401Y-33622253D01*
X174446223Y-33605777D01*
X174429747Y-33587599D01*
X174415132Y-33567893D01*
X174402520Y-33546850D01*
X174392030Y-33524671D01*
X174383765Y-33501572D01*
X174377804Y-33477773D01*
X174374204Y-33453505D01*
X174373000Y-33429001D01*
X174373000Y-30578999D01*
X174374204Y-30554495D01*
X174377804Y-30530227D01*
X174383765Y-30506428D01*
X174392030Y-30483329D01*
X174402520Y-30461150D01*
X174415132Y-30440107D01*
X174429747Y-30420401D01*
X174446223Y-30402223D01*
X174464401Y-30385747D01*
X174484107Y-30371132D01*
X174505150Y-30358520D01*
X174527329Y-30348030D01*
X174550428Y-30339765D01*
X174574227Y-30333804D01*
X174598495Y-30330204D01*
X174622999Y-30329000D01*
X175473001Y-30329000D01*
X175497505Y-30330204D01*
X175497505Y-30330204D01*
G37*
D14*
G04 #@! TD*
G04 #@! TO.P,R4,1*
G04 #@! TO.N,/Batt11*
X175048000Y-32004000D03*
D13*
G04 #@! TO.N,/Batt10*
G04 #@! TO.C,R6*
G36*
X183625505Y-33378204D02*
X183649773Y-33381804D01*
X183673572Y-33387765D01*
X183696671Y-33396030D01*
X183718850Y-33406520D01*
X183739893Y-33419132D01*
X183759599Y-33433747D01*
X183777777Y-33450223D01*
X183794253Y-33468401D01*
X183808868Y-33488107D01*
X183821480Y-33509150D01*
X183831970Y-33531329D01*
X183840235Y-33554428D01*
X183846196Y-33578227D01*
X183849796Y-33602495D01*
X183851000Y-33626999D01*
X183851000Y-36477001D01*
X183849796Y-36501505D01*
X183846196Y-36525773D01*
X183840235Y-36549572D01*
X183831970Y-36572671D01*
X183821480Y-36594850D01*
X183808868Y-36615893D01*
X183794253Y-36635599D01*
X183777777Y-36653777D01*
X183759599Y-36670253D01*
X183739893Y-36684868D01*
X183718850Y-36697480D01*
X183696671Y-36707970D01*
X183673572Y-36716235D01*
X183649773Y-36722196D01*
X183625505Y-36725796D01*
X183601001Y-36727000D01*
X182750999Y-36727000D01*
X182726495Y-36725796D01*
X182702227Y-36722196D01*
X182678428Y-36716235D01*
X182655329Y-36707970D01*
X182633150Y-36697480D01*
X182612107Y-36684868D01*
X182592401Y-36670253D01*
X182574223Y-36653777D01*
X182557747Y-36635599D01*
X182543132Y-36615893D01*
X182530520Y-36594850D01*
X182520030Y-36572671D01*
X182511765Y-36549572D01*
X182505804Y-36525773D01*
X182502204Y-36501505D01*
X182501000Y-36477001D01*
X182501000Y-33626999D01*
X182502204Y-33602495D01*
X182505804Y-33578227D01*
X182511765Y-33554428D01*
X182520030Y-33531329D01*
X182530520Y-33509150D01*
X182543132Y-33488107D01*
X182557747Y-33468401D01*
X182574223Y-33450223D01*
X182592401Y-33433747D01*
X182612107Y-33419132D01*
X182633150Y-33406520D01*
X182655329Y-33396030D01*
X182678428Y-33387765D01*
X182702227Y-33381804D01*
X182726495Y-33378204D01*
X182750999Y-33377000D01*
X183601001Y-33377000D01*
X183625505Y-33378204D01*
X183625505Y-33378204D01*
G37*
D14*
G04 #@! TD*
G04 #@! TO.P,R6,1*
G04 #@! TO.N,/Batt10*
X183176000Y-35052000D03*
D13*
G04 #@! TO.N,Net-(Q2-Pad3)*
G04 #@! TO.C,R6*
G36*
X189425505Y-33378204D02*
X189449773Y-33381804D01*
X189473572Y-33387765D01*
X189496671Y-33396030D01*
X189518850Y-33406520D01*
X189539893Y-33419132D01*
X189559599Y-33433747D01*
X189577777Y-33450223D01*
X189594253Y-33468401D01*
X189608868Y-33488107D01*
X189621480Y-33509150D01*
X189631970Y-33531329D01*
X189640235Y-33554428D01*
X189646196Y-33578227D01*
X189649796Y-33602495D01*
X189651000Y-33626999D01*
X189651000Y-36477001D01*
X189649796Y-36501505D01*
X189646196Y-36525773D01*
X189640235Y-36549572D01*
X189631970Y-36572671D01*
X189621480Y-36594850D01*
X189608868Y-36615893D01*
X189594253Y-36635599D01*
X189577777Y-36653777D01*
X189559599Y-36670253D01*
X189539893Y-36684868D01*
X189518850Y-36697480D01*
X189496671Y-36707970D01*
X189473572Y-36716235D01*
X189449773Y-36722196D01*
X189425505Y-36725796D01*
X189401001Y-36727000D01*
X188550999Y-36727000D01*
X188526495Y-36725796D01*
X188502227Y-36722196D01*
X188478428Y-36716235D01*
X188455329Y-36707970D01*
X188433150Y-36697480D01*
X188412107Y-36684868D01*
X188392401Y-36670253D01*
X188374223Y-36653777D01*
X188357747Y-36635599D01*
X188343132Y-36615893D01*
X188330520Y-36594850D01*
X188320030Y-36572671D01*
X188311765Y-36549572D01*
X188305804Y-36525773D01*
X188302204Y-36501505D01*
X188301000Y-36477001D01*
X188301000Y-33626999D01*
X188302204Y-33602495D01*
X188305804Y-33578227D01*
X188311765Y-33554428D01*
X188320030Y-33531329D01*
X188330520Y-33509150D01*
X188343132Y-33488107D01*
X188357747Y-33468401D01*
X188374223Y-33450223D01*
X188392401Y-33433747D01*
X188412107Y-33419132D01*
X188433150Y-33406520D01*
X188455329Y-33396030D01*
X188478428Y-33387765D01*
X188502227Y-33381804D01*
X188526495Y-33378204D01*
X188550999Y-33377000D01*
X189401001Y-33377000D01*
X189425505Y-33378204D01*
X189425505Y-33378204D01*
G37*
D14*
G04 #@! TD*
G04 #@! TO.P,R6,2*
G04 #@! TO.N,Net-(Q2-Pad3)*
X188976000Y-35052000D03*
D13*
G04 #@! TO.N,Net-(Q3-Pad3)*
G04 #@! TO.C,R8*
G36*
X181297505Y-36807204D02*
X181321773Y-36810804D01*
X181345572Y-36816765D01*
X181368671Y-36825030D01*
X181390850Y-36835520D01*
X181411893Y-36848132D01*
X181431599Y-36862747D01*
X181449777Y-36879223D01*
X181466253Y-36897401D01*
X181480868Y-36917107D01*
X181493480Y-36938150D01*
X181503970Y-36960329D01*
X181512235Y-36983428D01*
X181518196Y-37007227D01*
X181521796Y-37031495D01*
X181523000Y-37055999D01*
X181523000Y-39906001D01*
X181521796Y-39930505D01*
X181518196Y-39954773D01*
X181512235Y-39978572D01*
X181503970Y-40001671D01*
X181493480Y-40023850D01*
X181480868Y-40044893D01*
X181466253Y-40064599D01*
X181449777Y-40082777D01*
X181431599Y-40099253D01*
X181411893Y-40113868D01*
X181390850Y-40126480D01*
X181368671Y-40136970D01*
X181345572Y-40145235D01*
X181321773Y-40151196D01*
X181297505Y-40154796D01*
X181273001Y-40156000D01*
X180422999Y-40156000D01*
X180398495Y-40154796D01*
X180374227Y-40151196D01*
X180350428Y-40145235D01*
X180327329Y-40136970D01*
X180305150Y-40126480D01*
X180284107Y-40113868D01*
X180264401Y-40099253D01*
X180246223Y-40082777D01*
X180229747Y-40064599D01*
X180215132Y-40044893D01*
X180202520Y-40023850D01*
X180192030Y-40001671D01*
X180183765Y-39978572D01*
X180177804Y-39954773D01*
X180174204Y-39930505D01*
X180173000Y-39906001D01*
X180173000Y-37055999D01*
X180174204Y-37031495D01*
X180177804Y-37007227D01*
X180183765Y-36983428D01*
X180192030Y-36960329D01*
X180202520Y-36938150D01*
X180215132Y-36917107D01*
X180229747Y-36897401D01*
X180246223Y-36879223D01*
X180264401Y-36862747D01*
X180284107Y-36848132D01*
X180305150Y-36835520D01*
X180327329Y-36825030D01*
X180350428Y-36816765D01*
X180374227Y-36810804D01*
X180398495Y-36807204D01*
X180422999Y-36806000D01*
X181273001Y-36806000D01*
X181297505Y-36807204D01*
X181297505Y-36807204D01*
G37*
D14*
G04 #@! TD*
G04 #@! TO.P,R8,2*
G04 #@! TO.N,Net-(Q3-Pad3)*
X180848000Y-38481000D03*
D13*
G04 #@! TO.N,/Batt9*
G04 #@! TO.C,R8*
G36*
X175497505Y-36807204D02*
X175521773Y-36810804D01*
X175545572Y-36816765D01*
X175568671Y-36825030D01*
X175590850Y-36835520D01*
X175611893Y-36848132D01*
X175631599Y-36862747D01*
X175649777Y-36879223D01*
X175666253Y-36897401D01*
X175680868Y-36917107D01*
X175693480Y-36938150D01*
X175703970Y-36960329D01*
X175712235Y-36983428D01*
X175718196Y-37007227D01*
X175721796Y-37031495D01*
X175723000Y-37055999D01*
X175723000Y-39906001D01*
X175721796Y-39930505D01*
X175718196Y-39954773D01*
X175712235Y-39978572D01*
X175703970Y-40001671D01*
X175693480Y-40023850D01*
X175680868Y-40044893D01*
X175666253Y-40064599D01*
X175649777Y-40082777D01*
X175631599Y-40099253D01*
X175611893Y-40113868D01*
X175590850Y-40126480D01*
X175568671Y-40136970D01*
X175545572Y-40145235D01*
X175521773Y-40151196D01*
X175497505Y-40154796D01*
X175473001Y-40156000D01*
X174622999Y-40156000D01*
X174598495Y-40154796D01*
X174574227Y-40151196D01*
X174550428Y-40145235D01*
X174527329Y-40136970D01*
X174505150Y-40126480D01*
X174484107Y-40113868D01*
X174464401Y-40099253D01*
X174446223Y-40082777D01*
X174429747Y-40064599D01*
X174415132Y-40044893D01*
X174402520Y-40023850D01*
X174392030Y-40001671D01*
X174383765Y-39978572D01*
X174377804Y-39954773D01*
X174374204Y-39930505D01*
X174373000Y-39906001D01*
X174373000Y-37055999D01*
X174374204Y-37031495D01*
X174377804Y-37007227D01*
X174383765Y-36983428D01*
X174392030Y-36960329D01*
X174402520Y-36938150D01*
X174415132Y-36917107D01*
X174429747Y-36897401D01*
X174446223Y-36879223D01*
X174464401Y-36862747D01*
X174484107Y-36848132D01*
X174505150Y-36835520D01*
X174527329Y-36825030D01*
X174550428Y-36816765D01*
X174574227Y-36810804D01*
X174598495Y-36807204D01*
X174622999Y-36806000D01*
X175473001Y-36806000D01*
X175497505Y-36807204D01*
X175497505Y-36807204D01*
G37*
D14*
G04 #@! TD*
G04 #@! TO.P,R8,1*
G04 #@! TO.N,/Batt9*
X175048000Y-38481000D03*
D13*
G04 #@! TO.N,/Batt8*
G04 #@! TO.C,R10*
G36*
X183625505Y-39474204D02*
X183649773Y-39477804D01*
X183673572Y-39483765D01*
X183696671Y-39492030D01*
X183718850Y-39502520D01*
X183739893Y-39515132D01*
X183759599Y-39529747D01*
X183777777Y-39546223D01*
X183794253Y-39564401D01*
X183808868Y-39584107D01*
X183821480Y-39605150D01*
X183831970Y-39627329D01*
X183840235Y-39650428D01*
X183846196Y-39674227D01*
X183849796Y-39698495D01*
X183851000Y-39722999D01*
X183851000Y-42573001D01*
X183849796Y-42597505D01*
X183846196Y-42621773D01*
X183840235Y-42645572D01*
X183831970Y-42668671D01*
X183821480Y-42690850D01*
X183808868Y-42711893D01*
X183794253Y-42731599D01*
X183777777Y-42749777D01*
X183759599Y-42766253D01*
X183739893Y-42780868D01*
X183718850Y-42793480D01*
X183696671Y-42803970D01*
X183673572Y-42812235D01*
X183649773Y-42818196D01*
X183625505Y-42821796D01*
X183601001Y-42823000D01*
X182750999Y-42823000D01*
X182726495Y-42821796D01*
X182702227Y-42818196D01*
X182678428Y-42812235D01*
X182655329Y-42803970D01*
X182633150Y-42793480D01*
X182612107Y-42780868D01*
X182592401Y-42766253D01*
X182574223Y-42749777D01*
X182557747Y-42731599D01*
X182543132Y-42711893D01*
X182530520Y-42690850D01*
X182520030Y-42668671D01*
X182511765Y-42645572D01*
X182505804Y-42621773D01*
X182502204Y-42597505D01*
X182501000Y-42573001D01*
X182501000Y-39722999D01*
X182502204Y-39698495D01*
X182505804Y-39674227D01*
X182511765Y-39650428D01*
X182520030Y-39627329D01*
X182530520Y-39605150D01*
X182543132Y-39584107D01*
X182557747Y-39564401D01*
X182574223Y-39546223D01*
X182592401Y-39529747D01*
X182612107Y-39515132D01*
X182633150Y-39502520D01*
X182655329Y-39492030D01*
X182678428Y-39483765D01*
X182702227Y-39477804D01*
X182726495Y-39474204D01*
X182750999Y-39473000D01*
X183601001Y-39473000D01*
X183625505Y-39474204D01*
X183625505Y-39474204D01*
G37*
D14*
G04 #@! TD*
G04 #@! TO.P,R10,1*
G04 #@! TO.N,/Batt8*
X183176000Y-41148000D03*
D13*
G04 #@! TO.N,Net-(Q4-Pad3)*
G04 #@! TO.C,R10*
G36*
X189425505Y-39474204D02*
X189449773Y-39477804D01*
X189473572Y-39483765D01*
X189496671Y-39492030D01*
X189518850Y-39502520D01*
X189539893Y-39515132D01*
X189559599Y-39529747D01*
X189577777Y-39546223D01*
X189594253Y-39564401D01*
X189608868Y-39584107D01*
X189621480Y-39605150D01*
X189631970Y-39627329D01*
X189640235Y-39650428D01*
X189646196Y-39674227D01*
X189649796Y-39698495D01*
X189651000Y-39722999D01*
X189651000Y-42573001D01*
X189649796Y-42597505D01*
X189646196Y-42621773D01*
X189640235Y-42645572D01*
X189631970Y-42668671D01*
X189621480Y-42690850D01*
X189608868Y-42711893D01*
X189594253Y-42731599D01*
X189577777Y-42749777D01*
X189559599Y-42766253D01*
X189539893Y-42780868D01*
X189518850Y-42793480D01*
X189496671Y-42803970D01*
X189473572Y-42812235D01*
X189449773Y-42818196D01*
X189425505Y-42821796D01*
X189401001Y-42823000D01*
X188550999Y-42823000D01*
X188526495Y-42821796D01*
X188502227Y-42818196D01*
X188478428Y-42812235D01*
X188455329Y-42803970D01*
X188433150Y-42793480D01*
X188412107Y-42780868D01*
X188392401Y-42766253D01*
X188374223Y-42749777D01*
X188357747Y-42731599D01*
X188343132Y-42711893D01*
X188330520Y-42690850D01*
X188320030Y-42668671D01*
X188311765Y-42645572D01*
X188305804Y-42621773D01*
X188302204Y-42597505D01*
X188301000Y-42573001D01*
X188301000Y-39722999D01*
X188302204Y-39698495D01*
X188305804Y-39674227D01*
X188311765Y-39650428D01*
X188320030Y-39627329D01*
X188330520Y-39605150D01*
X188343132Y-39584107D01*
X188357747Y-39564401D01*
X188374223Y-39546223D01*
X188392401Y-39529747D01*
X188412107Y-39515132D01*
X188433150Y-39502520D01*
X188455329Y-39492030D01*
X188478428Y-39483765D01*
X188502227Y-39477804D01*
X188526495Y-39474204D01*
X188550999Y-39473000D01*
X189401001Y-39473000D01*
X189425505Y-39474204D01*
X189425505Y-39474204D01*
G37*
D14*
G04 #@! TD*
G04 #@! TO.P,R10,2*
G04 #@! TO.N,Net-(Q4-Pad3)*
X188976000Y-41148000D03*
D13*
G04 #@! TO.N,Net-(Q6-Pad3)*
G04 #@! TO.C,R12*
G36*
X181297505Y-42522204D02*
X181321773Y-42525804D01*
X181345572Y-42531765D01*
X181368671Y-42540030D01*
X181390850Y-42550520D01*
X181411893Y-42563132D01*
X181431599Y-42577747D01*
X181449777Y-42594223D01*
X181466253Y-42612401D01*
X181480868Y-42632107D01*
X181493480Y-42653150D01*
X181503970Y-42675329D01*
X181512235Y-42698428D01*
X181518196Y-42722227D01*
X181521796Y-42746495D01*
X181523000Y-42770999D01*
X181523000Y-45621001D01*
X181521796Y-45645505D01*
X181518196Y-45669773D01*
X181512235Y-45693572D01*
X181503970Y-45716671D01*
X181493480Y-45738850D01*
X181480868Y-45759893D01*
X181466253Y-45779599D01*
X181449777Y-45797777D01*
X181431599Y-45814253D01*
X181411893Y-45828868D01*
X181390850Y-45841480D01*
X181368671Y-45851970D01*
X181345572Y-45860235D01*
X181321773Y-45866196D01*
X181297505Y-45869796D01*
X181273001Y-45871000D01*
X180422999Y-45871000D01*
X180398495Y-45869796D01*
X180374227Y-45866196D01*
X180350428Y-45860235D01*
X180327329Y-45851970D01*
X180305150Y-45841480D01*
X180284107Y-45828868D01*
X180264401Y-45814253D01*
X180246223Y-45797777D01*
X180229747Y-45779599D01*
X180215132Y-45759893D01*
X180202520Y-45738850D01*
X180192030Y-45716671D01*
X180183765Y-45693572D01*
X180177804Y-45669773D01*
X180174204Y-45645505D01*
X180173000Y-45621001D01*
X180173000Y-42770999D01*
X180174204Y-42746495D01*
X180177804Y-42722227D01*
X180183765Y-42698428D01*
X180192030Y-42675329D01*
X180202520Y-42653150D01*
X180215132Y-42632107D01*
X180229747Y-42612401D01*
X180246223Y-42594223D01*
X180264401Y-42577747D01*
X180284107Y-42563132D01*
X180305150Y-42550520D01*
X180327329Y-42540030D01*
X180350428Y-42531765D01*
X180374227Y-42525804D01*
X180398495Y-42522204D01*
X180422999Y-42521000D01*
X181273001Y-42521000D01*
X181297505Y-42522204D01*
X181297505Y-42522204D01*
G37*
D14*
G04 #@! TD*
G04 #@! TO.P,R12,2*
G04 #@! TO.N,Net-(Q6-Pad3)*
X180848000Y-44196000D03*
D13*
G04 #@! TO.N,/Batt7*
G04 #@! TO.C,R12*
G36*
X175497505Y-42522204D02*
X175521773Y-42525804D01*
X175545572Y-42531765D01*
X175568671Y-42540030D01*
X175590850Y-42550520D01*
X175611893Y-42563132D01*
X175631599Y-42577747D01*
X175649777Y-42594223D01*
X175666253Y-42612401D01*
X175680868Y-42632107D01*
X175693480Y-42653150D01*
X175703970Y-42675329D01*
X175712235Y-42698428D01*
X175718196Y-42722227D01*
X175721796Y-42746495D01*
X175723000Y-42770999D01*
X175723000Y-45621001D01*
X175721796Y-45645505D01*
X175718196Y-45669773D01*
X175712235Y-45693572D01*
X175703970Y-45716671D01*
X175693480Y-45738850D01*
X175680868Y-45759893D01*
X175666253Y-45779599D01*
X175649777Y-45797777D01*
X175631599Y-45814253D01*
X175611893Y-45828868D01*
X175590850Y-45841480D01*
X175568671Y-45851970D01*
X175545572Y-45860235D01*
X175521773Y-45866196D01*
X175497505Y-45869796D01*
X175473001Y-45871000D01*
X174622999Y-45871000D01*
X174598495Y-45869796D01*
X174574227Y-45866196D01*
X174550428Y-45860235D01*
X174527329Y-45851970D01*
X174505150Y-45841480D01*
X174484107Y-45828868D01*
X174464401Y-45814253D01*
X174446223Y-45797777D01*
X174429747Y-45779599D01*
X174415132Y-45759893D01*
X174402520Y-45738850D01*
X174392030Y-45716671D01*
X174383765Y-45693572D01*
X174377804Y-45669773D01*
X174374204Y-45645505D01*
X174373000Y-45621001D01*
X174373000Y-42770999D01*
X174374204Y-42746495D01*
X174377804Y-42722227D01*
X174383765Y-42698428D01*
X174392030Y-42675329D01*
X174402520Y-42653150D01*
X174415132Y-42632107D01*
X174429747Y-42612401D01*
X174446223Y-42594223D01*
X174464401Y-42577747D01*
X174484107Y-42563132D01*
X174505150Y-42550520D01*
X174527329Y-42540030D01*
X174550428Y-42531765D01*
X174574227Y-42525804D01*
X174598495Y-42522204D01*
X174622999Y-42521000D01*
X175473001Y-42521000D01*
X175497505Y-42522204D01*
X175497505Y-42522204D01*
G37*
D14*
G04 #@! TD*
G04 #@! TO.P,R12,1*
G04 #@! TO.N,/Batt7*
X175048000Y-44196000D03*
D13*
G04 #@! TO.N,/Batt6*
G04 #@! TO.C,R14*
G36*
X183625505Y-50650204D02*
X183649773Y-50653804D01*
X183673572Y-50659765D01*
X183696671Y-50668030D01*
X183718850Y-50678520D01*
X183739893Y-50691132D01*
X183759599Y-50705747D01*
X183777777Y-50722223D01*
X183794253Y-50740401D01*
X183808868Y-50760107D01*
X183821480Y-50781150D01*
X183831970Y-50803329D01*
X183840235Y-50826428D01*
X183846196Y-50850227D01*
X183849796Y-50874495D01*
X183851000Y-50898999D01*
X183851000Y-53749001D01*
X183849796Y-53773505D01*
X183846196Y-53797773D01*
X183840235Y-53821572D01*
X183831970Y-53844671D01*
X183821480Y-53866850D01*
X183808868Y-53887893D01*
X183794253Y-53907599D01*
X183777777Y-53925777D01*
X183759599Y-53942253D01*
X183739893Y-53956868D01*
X183718850Y-53969480D01*
X183696671Y-53979970D01*
X183673572Y-53988235D01*
X183649773Y-53994196D01*
X183625505Y-53997796D01*
X183601001Y-53999000D01*
X182750999Y-53999000D01*
X182726495Y-53997796D01*
X182702227Y-53994196D01*
X182678428Y-53988235D01*
X182655329Y-53979970D01*
X182633150Y-53969480D01*
X182612107Y-53956868D01*
X182592401Y-53942253D01*
X182574223Y-53925777D01*
X182557747Y-53907599D01*
X182543132Y-53887893D01*
X182530520Y-53866850D01*
X182520030Y-53844671D01*
X182511765Y-53821572D01*
X182505804Y-53797773D01*
X182502204Y-53773505D01*
X182501000Y-53749001D01*
X182501000Y-50898999D01*
X182502204Y-50874495D01*
X182505804Y-50850227D01*
X182511765Y-50826428D01*
X182520030Y-50803329D01*
X182530520Y-50781150D01*
X182543132Y-50760107D01*
X182557747Y-50740401D01*
X182574223Y-50722223D01*
X182592401Y-50705747D01*
X182612107Y-50691132D01*
X182633150Y-50678520D01*
X182655329Y-50668030D01*
X182678428Y-50659765D01*
X182702227Y-50653804D01*
X182726495Y-50650204D01*
X182750999Y-50649000D01*
X183601001Y-50649000D01*
X183625505Y-50650204D01*
X183625505Y-50650204D01*
G37*
D14*
G04 #@! TD*
G04 #@! TO.P,R14,1*
G04 #@! TO.N,/Batt6*
X183176000Y-52324000D03*
D13*
G04 #@! TO.N,Net-(Q7-Pad3)*
G04 #@! TO.C,R14*
G36*
X189425505Y-50650204D02*
X189449773Y-50653804D01*
X189473572Y-50659765D01*
X189496671Y-50668030D01*
X189518850Y-50678520D01*
X189539893Y-50691132D01*
X189559599Y-50705747D01*
X189577777Y-50722223D01*
X189594253Y-50740401D01*
X189608868Y-50760107D01*
X189621480Y-50781150D01*
X189631970Y-50803329D01*
X189640235Y-50826428D01*
X189646196Y-50850227D01*
X189649796Y-50874495D01*
X189651000Y-50898999D01*
X189651000Y-53749001D01*
X189649796Y-53773505D01*
X189646196Y-53797773D01*
X189640235Y-53821572D01*
X189631970Y-53844671D01*
X189621480Y-53866850D01*
X189608868Y-53887893D01*
X189594253Y-53907599D01*
X189577777Y-53925777D01*
X189559599Y-53942253D01*
X189539893Y-53956868D01*
X189518850Y-53969480D01*
X189496671Y-53979970D01*
X189473572Y-53988235D01*
X189449773Y-53994196D01*
X189425505Y-53997796D01*
X189401001Y-53999000D01*
X188550999Y-53999000D01*
X188526495Y-53997796D01*
X188502227Y-53994196D01*
X188478428Y-53988235D01*
X188455329Y-53979970D01*
X188433150Y-53969480D01*
X188412107Y-53956868D01*
X188392401Y-53942253D01*
X188374223Y-53925777D01*
X188357747Y-53907599D01*
X188343132Y-53887893D01*
X188330520Y-53866850D01*
X188320030Y-53844671D01*
X188311765Y-53821572D01*
X188305804Y-53797773D01*
X188302204Y-53773505D01*
X188301000Y-53749001D01*
X188301000Y-50898999D01*
X188302204Y-50874495D01*
X188305804Y-50850227D01*
X188311765Y-50826428D01*
X188320030Y-50803329D01*
X188330520Y-50781150D01*
X188343132Y-50760107D01*
X188357747Y-50740401D01*
X188374223Y-50722223D01*
X188392401Y-50705747D01*
X188412107Y-50691132D01*
X188433150Y-50678520D01*
X188455329Y-50668030D01*
X188478428Y-50659765D01*
X188502227Y-50653804D01*
X188526495Y-50650204D01*
X188550999Y-50649000D01*
X189401001Y-50649000D01*
X189425505Y-50650204D01*
X189425505Y-50650204D01*
G37*
D14*
G04 #@! TD*
G04 #@! TO.P,R14,2*
G04 #@! TO.N,Net-(Q7-Pad3)*
X188976000Y-52324000D03*
D13*
G04 #@! TO.N,Net-(Q8-Pad3)*
G04 #@! TO.C,R18*
G36*
X181297505Y-53190204D02*
X181321773Y-53193804D01*
X181345572Y-53199765D01*
X181368671Y-53208030D01*
X181390850Y-53218520D01*
X181411893Y-53231132D01*
X181431599Y-53245747D01*
X181449777Y-53262223D01*
X181466253Y-53280401D01*
X181480868Y-53300107D01*
X181493480Y-53321150D01*
X181503970Y-53343329D01*
X181512235Y-53366428D01*
X181518196Y-53390227D01*
X181521796Y-53414495D01*
X181523000Y-53438999D01*
X181523000Y-56289001D01*
X181521796Y-56313505D01*
X181518196Y-56337773D01*
X181512235Y-56361572D01*
X181503970Y-56384671D01*
X181493480Y-56406850D01*
X181480868Y-56427893D01*
X181466253Y-56447599D01*
X181449777Y-56465777D01*
X181431599Y-56482253D01*
X181411893Y-56496868D01*
X181390850Y-56509480D01*
X181368671Y-56519970D01*
X181345572Y-56528235D01*
X181321773Y-56534196D01*
X181297505Y-56537796D01*
X181273001Y-56539000D01*
X180422999Y-56539000D01*
X180398495Y-56537796D01*
X180374227Y-56534196D01*
X180350428Y-56528235D01*
X180327329Y-56519970D01*
X180305150Y-56509480D01*
X180284107Y-56496868D01*
X180264401Y-56482253D01*
X180246223Y-56465777D01*
X180229747Y-56447599D01*
X180215132Y-56427893D01*
X180202520Y-56406850D01*
X180192030Y-56384671D01*
X180183765Y-56361572D01*
X180177804Y-56337773D01*
X180174204Y-56313505D01*
X180173000Y-56289001D01*
X180173000Y-53438999D01*
X180174204Y-53414495D01*
X180177804Y-53390227D01*
X180183765Y-53366428D01*
X180192030Y-53343329D01*
X180202520Y-53321150D01*
X180215132Y-53300107D01*
X180229747Y-53280401D01*
X180246223Y-53262223D01*
X180264401Y-53245747D01*
X180284107Y-53231132D01*
X180305150Y-53218520D01*
X180327329Y-53208030D01*
X180350428Y-53199765D01*
X180374227Y-53193804D01*
X180398495Y-53190204D01*
X180422999Y-53189000D01*
X181273001Y-53189000D01*
X181297505Y-53190204D01*
X181297505Y-53190204D01*
G37*
D14*
G04 #@! TD*
G04 #@! TO.P,R18,2*
G04 #@! TO.N,Net-(Q8-Pad3)*
X180848000Y-54864000D03*
D13*
G04 #@! TO.N,/Batt5*
G04 #@! TO.C,R18*
G36*
X175497505Y-53190204D02*
X175521773Y-53193804D01*
X175545572Y-53199765D01*
X175568671Y-53208030D01*
X175590850Y-53218520D01*
X175611893Y-53231132D01*
X175631599Y-53245747D01*
X175649777Y-53262223D01*
X175666253Y-53280401D01*
X175680868Y-53300107D01*
X175693480Y-53321150D01*
X175703970Y-53343329D01*
X175712235Y-53366428D01*
X175718196Y-53390227D01*
X175721796Y-53414495D01*
X175723000Y-53438999D01*
X175723000Y-56289001D01*
X175721796Y-56313505D01*
X175718196Y-56337773D01*
X175712235Y-56361572D01*
X175703970Y-56384671D01*
X175693480Y-56406850D01*
X175680868Y-56427893D01*
X175666253Y-56447599D01*
X175649777Y-56465777D01*
X175631599Y-56482253D01*
X175611893Y-56496868D01*
X175590850Y-56509480D01*
X175568671Y-56519970D01*
X175545572Y-56528235D01*
X175521773Y-56534196D01*
X175497505Y-56537796D01*
X175473001Y-56539000D01*
X174622999Y-56539000D01*
X174598495Y-56537796D01*
X174574227Y-56534196D01*
X174550428Y-56528235D01*
X174527329Y-56519970D01*
X174505150Y-56509480D01*
X174484107Y-56496868D01*
X174464401Y-56482253D01*
X174446223Y-56465777D01*
X174429747Y-56447599D01*
X174415132Y-56427893D01*
X174402520Y-56406850D01*
X174392030Y-56384671D01*
X174383765Y-56361572D01*
X174377804Y-56337773D01*
X174374204Y-56313505D01*
X174373000Y-56289001D01*
X174373000Y-53438999D01*
X174374204Y-53414495D01*
X174377804Y-53390227D01*
X174383765Y-53366428D01*
X174392030Y-53343329D01*
X174402520Y-53321150D01*
X174415132Y-53300107D01*
X174429747Y-53280401D01*
X174446223Y-53262223D01*
X174464401Y-53245747D01*
X174484107Y-53231132D01*
X174505150Y-53218520D01*
X174527329Y-53208030D01*
X174550428Y-53199765D01*
X174574227Y-53193804D01*
X174598495Y-53190204D01*
X174622999Y-53189000D01*
X175473001Y-53189000D01*
X175497505Y-53190204D01*
X175497505Y-53190204D01*
G37*
D14*
G04 #@! TD*
G04 #@! TO.P,R18,1*
G04 #@! TO.N,/Batt5*
X175048000Y-54864000D03*
D13*
G04 #@! TO.N,/Batt4*
G04 #@! TO.C,R21*
G36*
X183625505Y-56238204D02*
X183649773Y-56241804D01*
X183673572Y-56247765D01*
X183696671Y-56256030D01*
X183718850Y-56266520D01*
X183739893Y-56279132D01*
X183759599Y-56293747D01*
X183777777Y-56310223D01*
X183794253Y-56328401D01*
X183808868Y-56348107D01*
X183821480Y-56369150D01*
X183831970Y-56391329D01*
X183840235Y-56414428D01*
X183846196Y-56438227D01*
X183849796Y-56462495D01*
X183851000Y-56486999D01*
X183851000Y-59337001D01*
X183849796Y-59361505D01*
X183846196Y-59385773D01*
X183840235Y-59409572D01*
X183831970Y-59432671D01*
X183821480Y-59454850D01*
X183808868Y-59475893D01*
X183794253Y-59495599D01*
X183777777Y-59513777D01*
X183759599Y-59530253D01*
X183739893Y-59544868D01*
X183718850Y-59557480D01*
X183696671Y-59567970D01*
X183673572Y-59576235D01*
X183649773Y-59582196D01*
X183625505Y-59585796D01*
X183601001Y-59587000D01*
X182750999Y-59587000D01*
X182726495Y-59585796D01*
X182702227Y-59582196D01*
X182678428Y-59576235D01*
X182655329Y-59567970D01*
X182633150Y-59557480D01*
X182612107Y-59544868D01*
X182592401Y-59530253D01*
X182574223Y-59513777D01*
X182557747Y-59495599D01*
X182543132Y-59475893D01*
X182530520Y-59454850D01*
X182520030Y-59432671D01*
X182511765Y-59409572D01*
X182505804Y-59385773D01*
X182502204Y-59361505D01*
X182501000Y-59337001D01*
X182501000Y-56486999D01*
X182502204Y-56462495D01*
X182505804Y-56438227D01*
X182511765Y-56414428D01*
X182520030Y-56391329D01*
X182530520Y-56369150D01*
X182543132Y-56348107D01*
X182557747Y-56328401D01*
X182574223Y-56310223D01*
X182592401Y-56293747D01*
X182612107Y-56279132D01*
X182633150Y-56266520D01*
X182655329Y-56256030D01*
X182678428Y-56247765D01*
X182702227Y-56241804D01*
X182726495Y-56238204D01*
X182750999Y-56237000D01*
X183601001Y-56237000D01*
X183625505Y-56238204D01*
X183625505Y-56238204D01*
G37*
D14*
G04 #@! TD*
G04 #@! TO.P,R21,1*
G04 #@! TO.N,/Batt4*
X183176000Y-57912000D03*
D13*
G04 #@! TO.N,Net-(Q9-Pad3)*
G04 #@! TO.C,R21*
G36*
X189425505Y-56238204D02*
X189449773Y-56241804D01*
X189473572Y-56247765D01*
X189496671Y-56256030D01*
X189518850Y-56266520D01*
X189539893Y-56279132D01*
X189559599Y-56293747D01*
X189577777Y-56310223D01*
X189594253Y-56328401D01*
X189608868Y-56348107D01*
X189621480Y-56369150D01*
X189631970Y-56391329D01*
X189640235Y-56414428D01*
X189646196Y-56438227D01*
X189649796Y-56462495D01*
X189651000Y-56486999D01*
X189651000Y-59337001D01*
X189649796Y-59361505D01*
X189646196Y-59385773D01*
X189640235Y-59409572D01*
X189631970Y-59432671D01*
X189621480Y-59454850D01*
X189608868Y-59475893D01*
X189594253Y-59495599D01*
X189577777Y-59513777D01*
X189559599Y-59530253D01*
X189539893Y-59544868D01*
X189518850Y-59557480D01*
X189496671Y-59567970D01*
X189473572Y-59576235D01*
X189449773Y-59582196D01*
X189425505Y-59585796D01*
X189401001Y-59587000D01*
X188550999Y-59587000D01*
X188526495Y-59585796D01*
X188502227Y-59582196D01*
X188478428Y-59576235D01*
X188455329Y-59567970D01*
X188433150Y-59557480D01*
X188412107Y-59544868D01*
X188392401Y-59530253D01*
X188374223Y-59513777D01*
X188357747Y-59495599D01*
X188343132Y-59475893D01*
X188330520Y-59454850D01*
X188320030Y-59432671D01*
X188311765Y-59409572D01*
X188305804Y-59385773D01*
X188302204Y-59361505D01*
X188301000Y-59337001D01*
X188301000Y-56486999D01*
X188302204Y-56462495D01*
X188305804Y-56438227D01*
X188311765Y-56414428D01*
X188320030Y-56391329D01*
X188330520Y-56369150D01*
X188343132Y-56348107D01*
X188357747Y-56328401D01*
X188374223Y-56310223D01*
X188392401Y-56293747D01*
X188412107Y-56279132D01*
X188433150Y-56266520D01*
X188455329Y-56256030D01*
X188478428Y-56247765D01*
X188502227Y-56241804D01*
X188526495Y-56238204D01*
X188550999Y-56237000D01*
X189401001Y-56237000D01*
X189425505Y-56238204D01*
X189425505Y-56238204D01*
G37*
D14*
G04 #@! TD*
G04 #@! TO.P,R21,2*
G04 #@! TO.N,Net-(Q9-Pad3)*
X188976000Y-57912000D03*
D13*
G04 #@! TO.N,Net-(Q10-Pad3)*
G04 #@! TO.C,R25*
G36*
X181297505Y-59032204D02*
X181321773Y-59035804D01*
X181345572Y-59041765D01*
X181368671Y-59050030D01*
X181390850Y-59060520D01*
X181411893Y-59073132D01*
X181431599Y-59087747D01*
X181449777Y-59104223D01*
X181466253Y-59122401D01*
X181480868Y-59142107D01*
X181493480Y-59163150D01*
X181503970Y-59185329D01*
X181512235Y-59208428D01*
X181518196Y-59232227D01*
X181521796Y-59256495D01*
X181523000Y-59280999D01*
X181523000Y-62131001D01*
X181521796Y-62155505D01*
X181518196Y-62179773D01*
X181512235Y-62203572D01*
X181503970Y-62226671D01*
X181493480Y-62248850D01*
X181480868Y-62269893D01*
X181466253Y-62289599D01*
X181449777Y-62307777D01*
X181431599Y-62324253D01*
X181411893Y-62338868D01*
X181390850Y-62351480D01*
X181368671Y-62361970D01*
X181345572Y-62370235D01*
X181321773Y-62376196D01*
X181297505Y-62379796D01*
X181273001Y-62381000D01*
X180422999Y-62381000D01*
X180398495Y-62379796D01*
X180374227Y-62376196D01*
X180350428Y-62370235D01*
X180327329Y-62361970D01*
X180305150Y-62351480D01*
X180284107Y-62338868D01*
X180264401Y-62324253D01*
X180246223Y-62307777D01*
X180229747Y-62289599D01*
X180215132Y-62269893D01*
X180202520Y-62248850D01*
X180192030Y-62226671D01*
X180183765Y-62203572D01*
X180177804Y-62179773D01*
X180174204Y-62155505D01*
X180173000Y-62131001D01*
X180173000Y-59280999D01*
X180174204Y-59256495D01*
X180177804Y-59232227D01*
X180183765Y-59208428D01*
X180192030Y-59185329D01*
X180202520Y-59163150D01*
X180215132Y-59142107D01*
X180229747Y-59122401D01*
X180246223Y-59104223D01*
X180264401Y-59087747D01*
X180284107Y-59073132D01*
X180305150Y-59060520D01*
X180327329Y-59050030D01*
X180350428Y-59041765D01*
X180374227Y-59035804D01*
X180398495Y-59032204D01*
X180422999Y-59031000D01*
X181273001Y-59031000D01*
X181297505Y-59032204D01*
X181297505Y-59032204D01*
G37*
D14*
G04 #@! TD*
G04 #@! TO.P,R25,2*
G04 #@! TO.N,Net-(Q10-Pad3)*
X180848000Y-60706000D03*
D13*
G04 #@! TO.N,/Batt3*
G04 #@! TO.C,R25*
G36*
X175497505Y-59032204D02*
X175521773Y-59035804D01*
X175545572Y-59041765D01*
X175568671Y-59050030D01*
X175590850Y-59060520D01*
X175611893Y-59073132D01*
X175631599Y-59087747D01*
X175649777Y-59104223D01*
X175666253Y-59122401D01*
X175680868Y-59142107D01*
X175693480Y-59163150D01*
X175703970Y-59185329D01*
X175712235Y-59208428D01*
X175718196Y-59232227D01*
X175721796Y-59256495D01*
X175723000Y-59280999D01*
X175723000Y-62131001D01*
X175721796Y-62155505D01*
X175718196Y-62179773D01*
X175712235Y-62203572D01*
X175703970Y-62226671D01*
X175693480Y-62248850D01*
X175680868Y-62269893D01*
X175666253Y-62289599D01*
X175649777Y-62307777D01*
X175631599Y-62324253D01*
X175611893Y-62338868D01*
X175590850Y-62351480D01*
X175568671Y-62361970D01*
X175545572Y-62370235D01*
X175521773Y-62376196D01*
X175497505Y-62379796D01*
X175473001Y-62381000D01*
X174622999Y-62381000D01*
X174598495Y-62379796D01*
X174574227Y-62376196D01*
X174550428Y-62370235D01*
X174527329Y-62361970D01*
X174505150Y-62351480D01*
X174484107Y-62338868D01*
X174464401Y-62324253D01*
X174446223Y-62307777D01*
X174429747Y-62289599D01*
X174415132Y-62269893D01*
X174402520Y-62248850D01*
X174392030Y-62226671D01*
X174383765Y-62203572D01*
X174377804Y-62179773D01*
X174374204Y-62155505D01*
X174373000Y-62131001D01*
X174373000Y-59280999D01*
X174374204Y-59256495D01*
X174377804Y-59232227D01*
X174383765Y-59208428D01*
X174392030Y-59185329D01*
X174402520Y-59163150D01*
X174415132Y-59142107D01*
X174429747Y-59122401D01*
X174446223Y-59104223D01*
X174464401Y-59087747D01*
X174484107Y-59073132D01*
X174505150Y-59060520D01*
X174527329Y-59050030D01*
X174550428Y-59041765D01*
X174574227Y-59035804D01*
X174598495Y-59032204D01*
X174622999Y-59031000D01*
X175473001Y-59031000D01*
X175497505Y-59032204D01*
X175497505Y-59032204D01*
G37*
D14*
G04 #@! TD*
G04 #@! TO.P,R25,1*
G04 #@! TO.N,/Batt3*
X175048000Y-60706000D03*
D13*
G04 #@! TO.N,/Batt2*
G04 #@! TO.C,R28*
G36*
X183625505Y-61826204D02*
X183649773Y-61829804D01*
X183673572Y-61835765D01*
X183696671Y-61844030D01*
X183718850Y-61854520D01*
X183739893Y-61867132D01*
X183759599Y-61881747D01*
X183777777Y-61898223D01*
X183794253Y-61916401D01*
X183808868Y-61936107D01*
X183821480Y-61957150D01*
X183831970Y-61979329D01*
X183840235Y-62002428D01*
X183846196Y-62026227D01*
X183849796Y-62050495D01*
X183851000Y-62074999D01*
X183851000Y-64925001D01*
X183849796Y-64949505D01*
X183846196Y-64973773D01*
X183840235Y-64997572D01*
X183831970Y-65020671D01*
X183821480Y-65042850D01*
X183808868Y-65063893D01*
X183794253Y-65083599D01*
X183777777Y-65101777D01*
X183759599Y-65118253D01*
X183739893Y-65132868D01*
X183718850Y-65145480D01*
X183696671Y-65155970D01*
X183673572Y-65164235D01*
X183649773Y-65170196D01*
X183625505Y-65173796D01*
X183601001Y-65175000D01*
X182750999Y-65175000D01*
X182726495Y-65173796D01*
X182702227Y-65170196D01*
X182678428Y-65164235D01*
X182655329Y-65155970D01*
X182633150Y-65145480D01*
X182612107Y-65132868D01*
X182592401Y-65118253D01*
X182574223Y-65101777D01*
X182557747Y-65083599D01*
X182543132Y-65063893D01*
X182530520Y-65042850D01*
X182520030Y-65020671D01*
X182511765Y-64997572D01*
X182505804Y-64973773D01*
X182502204Y-64949505D01*
X182501000Y-64925001D01*
X182501000Y-62074999D01*
X182502204Y-62050495D01*
X182505804Y-62026227D01*
X182511765Y-62002428D01*
X182520030Y-61979329D01*
X182530520Y-61957150D01*
X182543132Y-61936107D01*
X182557747Y-61916401D01*
X182574223Y-61898223D01*
X182592401Y-61881747D01*
X182612107Y-61867132D01*
X182633150Y-61854520D01*
X182655329Y-61844030D01*
X182678428Y-61835765D01*
X182702227Y-61829804D01*
X182726495Y-61826204D01*
X182750999Y-61825000D01*
X183601001Y-61825000D01*
X183625505Y-61826204D01*
X183625505Y-61826204D01*
G37*
D14*
G04 #@! TD*
G04 #@! TO.P,R28,1*
G04 #@! TO.N,/Batt2*
X183176000Y-63500000D03*
D13*
G04 #@! TO.N,Net-(Q11-Pad3)*
G04 #@! TO.C,R28*
G36*
X189425505Y-61826204D02*
X189449773Y-61829804D01*
X189473572Y-61835765D01*
X189496671Y-61844030D01*
X189518850Y-61854520D01*
X189539893Y-61867132D01*
X189559599Y-61881747D01*
X189577777Y-61898223D01*
X189594253Y-61916401D01*
X189608868Y-61936107D01*
X189621480Y-61957150D01*
X189631970Y-61979329D01*
X189640235Y-62002428D01*
X189646196Y-62026227D01*
X189649796Y-62050495D01*
X189651000Y-62074999D01*
X189651000Y-64925001D01*
X189649796Y-64949505D01*
X189646196Y-64973773D01*
X189640235Y-64997572D01*
X189631970Y-65020671D01*
X189621480Y-65042850D01*
X189608868Y-65063893D01*
X189594253Y-65083599D01*
X189577777Y-65101777D01*
X189559599Y-65118253D01*
X189539893Y-65132868D01*
X189518850Y-65145480D01*
X189496671Y-65155970D01*
X189473572Y-65164235D01*
X189449773Y-65170196D01*
X189425505Y-65173796D01*
X189401001Y-65175000D01*
X188550999Y-65175000D01*
X188526495Y-65173796D01*
X188502227Y-65170196D01*
X188478428Y-65164235D01*
X188455329Y-65155970D01*
X188433150Y-65145480D01*
X188412107Y-65132868D01*
X188392401Y-65118253D01*
X188374223Y-65101777D01*
X188357747Y-65083599D01*
X188343132Y-65063893D01*
X188330520Y-65042850D01*
X188320030Y-65020671D01*
X188311765Y-64997572D01*
X188305804Y-64973773D01*
X188302204Y-64949505D01*
X188301000Y-64925001D01*
X188301000Y-62074999D01*
X188302204Y-62050495D01*
X188305804Y-62026227D01*
X188311765Y-62002428D01*
X188320030Y-61979329D01*
X188330520Y-61957150D01*
X188343132Y-61936107D01*
X188357747Y-61916401D01*
X188374223Y-61898223D01*
X188392401Y-61881747D01*
X188412107Y-61867132D01*
X188433150Y-61854520D01*
X188455329Y-61844030D01*
X188478428Y-61835765D01*
X188502227Y-61829804D01*
X188526495Y-61826204D01*
X188550999Y-61825000D01*
X189401001Y-61825000D01*
X189425505Y-61826204D01*
X189425505Y-61826204D01*
G37*
D14*
G04 #@! TD*
G04 #@! TO.P,R28,2*
G04 #@! TO.N,Net-(Q11-Pad3)*
X188976000Y-63500000D03*
D13*
G04 #@! TO.N,Net-(Q12-Pad3)*
G04 #@! TO.C,R30*
G36*
X181297505Y-64747204D02*
X181321773Y-64750804D01*
X181345572Y-64756765D01*
X181368671Y-64765030D01*
X181390850Y-64775520D01*
X181411893Y-64788132D01*
X181431599Y-64802747D01*
X181449777Y-64819223D01*
X181466253Y-64837401D01*
X181480868Y-64857107D01*
X181493480Y-64878150D01*
X181503970Y-64900329D01*
X181512235Y-64923428D01*
X181518196Y-64947227D01*
X181521796Y-64971495D01*
X181523000Y-64995999D01*
X181523000Y-67846001D01*
X181521796Y-67870505D01*
X181518196Y-67894773D01*
X181512235Y-67918572D01*
X181503970Y-67941671D01*
X181493480Y-67963850D01*
X181480868Y-67984893D01*
X181466253Y-68004599D01*
X181449777Y-68022777D01*
X181431599Y-68039253D01*
X181411893Y-68053868D01*
X181390850Y-68066480D01*
X181368671Y-68076970D01*
X181345572Y-68085235D01*
X181321773Y-68091196D01*
X181297505Y-68094796D01*
X181273001Y-68096000D01*
X180422999Y-68096000D01*
X180398495Y-68094796D01*
X180374227Y-68091196D01*
X180350428Y-68085235D01*
X180327329Y-68076970D01*
X180305150Y-68066480D01*
X180284107Y-68053868D01*
X180264401Y-68039253D01*
X180246223Y-68022777D01*
X180229747Y-68004599D01*
X180215132Y-67984893D01*
X180202520Y-67963850D01*
X180192030Y-67941671D01*
X180183765Y-67918572D01*
X180177804Y-67894773D01*
X180174204Y-67870505D01*
X180173000Y-67846001D01*
X180173000Y-64995999D01*
X180174204Y-64971495D01*
X180177804Y-64947227D01*
X180183765Y-64923428D01*
X180192030Y-64900329D01*
X180202520Y-64878150D01*
X180215132Y-64857107D01*
X180229747Y-64837401D01*
X180246223Y-64819223D01*
X180264401Y-64802747D01*
X180284107Y-64788132D01*
X180305150Y-64775520D01*
X180327329Y-64765030D01*
X180350428Y-64756765D01*
X180374227Y-64750804D01*
X180398495Y-64747204D01*
X180422999Y-64746000D01*
X181273001Y-64746000D01*
X181297505Y-64747204D01*
X181297505Y-64747204D01*
G37*
D14*
G04 #@! TD*
G04 #@! TO.P,R30,2*
G04 #@! TO.N,Net-(Q12-Pad3)*
X180848000Y-66421000D03*
D13*
G04 #@! TO.N,/Batt1*
G04 #@! TO.C,R30*
G36*
X175497505Y-64747204D02*
X175521773Y-64750804D01*
X175545572Y-64756765D01*
X175568671Y-64765030D01*
X175590850Y-64775520D01*
X175611893Y-64788132D01*
X175631599Y-64802747D01*
X175649777Y-64819223D01*
X175666253Y-64837401D01*
X175680868Y-64857107D01*
X175693480Y-64878150D01*
X175703970Y-64900329D01*
X175712235Y-64923428D01*
X175718196Y-64947227D01*
X175721796Y-64971495D01*
X175723000Y-64995999D01*
X175723000Y-67846001D01*
X175721796Y-67870505D01*
X175718196Y-67894773D01*
X175712235Y-67918572D01*
X175703970Y-67941671D01*
X175693480Y-67963850D01*
X175680868Y-67984893D01*
X175666253Y-68004599D01*
X175649777Y-68022777D01*
X175631599Y-68039253D01*
X175611893Y-68053868D01*
X175590850Y-68066480D01*
X175568671Y-68076970D01*
X175545572Y-68085235D01*
X175521773Y-68091196D01*
X175497505Y-68094796D01*
X175473001Y-68096000D01*
X174622999Y-68096000D01*
X174598495Y-68094796D01*
X174574227Y-68091196D01*
X174550428Y-68085235D01*
X174527329Y-68076970D01*
X174505150Y-68066480D01*
X174484107Y-68053868D01*
X174464401Y-68039253D01*
X174446223Y-68022777D01*
X174429747Y-68004599D01*
X174415132Y-67984893D01*
X174402520Y-67963850D01*
X174392030Y-67941671D01*
X174383765Y-67918572D01*
X174377804Y-67894773D01*
X174374204Y-67870505D01*
X174373000Y-67846001D01*
X174373000Y-64995999D01*
X174374204Y-64971495D01*
X174377804Y-64947227D01*
X174383765Y-64923428D01*
X174392030Y-64900329D01*
X174402520Y-64878150D01*
X174415132Y-64857107D01*
X174429747Y-64837401D01*
X174446223Y-64819223D01*
X174464401Y-64802747D01*
X174484107Y-64788132D01*
X174505150Y-64775520D01*
X174527329Y-64765030D01*
X174550428Y-64756765D01*
X174574227Y-64750804D01*
X174598495Y-64747204D01*
X174622999Y-64746000D01*
X175473001Y-64746000D01*
X175497505Y-64747204D01*
X175497505Y-64747204D01*
G37*
D14*
G04 #@! TD*
G04 #@! TO.P,R30,1*
G04 #@! TO.N,/Batt1*
X175048000Y-66421000D03*
D13*
G04 #@! TO.N,GND*
G04 #@! TO.C,R32*
G36*
X183625505Y-67922204D02*
X183649773Y-67925804D01*
X183673572Y-67931765D01*
X183696671Y-67940030D01*
X183718850Y-67950520D01*
X183739893Y-67963132D01*
X183759599Y-67977747D01*
X183777777Y-67994223D01*
X183794253Y-68012401D01*
X183808868Y-68032107D01*
X183821480Y-68053150D01*
X183831970Y-68075329D01*
X183840235Y-68098428D01*
X183846196Y-68122227D01*
X183849796Y-68146495D01*
X183851000Y-68170999D01*
X183851000Y-71021001D01*
X183849796Y-71045505D01*
X183846196Y-71069773D01*
X183840235Y-71093572D01*
X183831970Y-71116671D01*
X183821480Y-71138850D01*
X183808868Y-71159893D01*
X183794253Y-71179599D01*
X183777777Y-71197777D01*
X183759599Y-71214253D01*
X183739893Y-71228868D01*
X183718850Y-71241480D01*
X183696671Y-71251970D01*
X183673572Y-71260235D01*
X183649773Y-71266196D01*
X183625505Y-71269796D01*
X183601001Y-71271000D01*
X182750999Y-71271000D01*
X182726495Y-71269796D01*
X182702227Y-71266196D01*
X182678428Y-71260235D01*
X182655329Y-71251970D01*
X182633150Y-71241480D01*
X182612107Y-71228868D01*
X182592401Y-71214253D01*
X182574223Y-71197777D01*
X182557747Y-71179599D01*
X182543132Y-71159893D01*
X182530520Y-71138850D01*
X182520030Y-71116671D01*
X182511765Y-71093572D01*
X182505804Y-71069773D01*
X182502204Y-71045505D01*
X182501000Y-71021001D01*
X182501000Y-68170999D01*
X182502204Y-68146495D01*
X182505804Y-68122227D01*
X182511765Y-68098428D01*
X182520030Y-68075329D01*
X182530520Y-68053150D01*
X182543132Y-68032107D01*
X182557747Y-68012401D01*
X182574223Y-67994223D01*
X182592401Y-67977747D01*
X182612107Y-67963132D01*
X182633150Y-67950520D01*
X182655329Y-67940030D01*
X182678428Y-67931765D01*
X182702227Y-67925804D01*
X182726495Y-67922204D01*
X182750999Y-67921000D01*
X183601001Y-67921000D01*
X183625505Y-67922204D01*
X183625505Y-67922204D01*
G37*
D14*
G04 #@! TD*
G04 #@! TO.P,R32,1*
G04 #@! TO.N,GND*
X183176000Y-69596000D03*
D13*
G04 #@! TO.N,Net-(Q13-Pad3)*
G04 #@! TO.C,R32*
G36*
X189425505Y-67922204D02*
X189449773Y-67925804D01*
X189473572Y-67931765D01*
X189496671Y-67940030D01*
X189518850Y-67950520D01*
X189539893Y-67963132D01*
X189559599Y-67977747D01*
X189577777Y-67994223D01*
X189594253Y-68012401D01*
X189608868Y-68032107D01*
X189621480Y-68053150D01*
X189631970Y-68075329D01*
X189640235Y-68098428D01*
X189646196Y-68122227D01*
X189649796Y-68146495D01*
X189651000Y-68170999D01*
X189651000Y-71021001D01*
X189649796Y-71045505D01*
X189646196Y-71069773D01*
X189640235Y-71093572D01*
X189631970Y-71116671D01*
X189621480Y-71138850D01*
X189608868Y-71159893D01*
X189594253Y-71179599D01*
X189577777Y-71197777D01*
X189559599Y-71214253D01*
X189539893Y-71228868D01*
X189518850Y-71241480D01*
X189496671Y-71251970D01*
X189473572Y-71260235D01*
X189449773Y-71266196D01*
X189425505Y-71269796D01*
X189401001Y-71271000D01*
X188550999Y-71271000D01*
X188526495Y-71269796D01*
X188502227Y-71266196D01*
X188478428Y-71260235D01*
X188455329Y-71251970D01*
X188433150Y-71241480D01*
X188412107Y-71228868D01*
X188392401Y-71214253D01*
X188374223Y-71197777D01*
X188357747Y-71179599D01*
X188343132Y-71159893D01*
X188330520Y-71138850D01*
X188320030Y-71116671D01*
X188311765Y-71093572D01*
X188305804Y-71069773D01*
X188302204Y-71045505D01*
X188301000Y-71021001D01*
X188301000Y-68170999D01*
X188302204Y-68146495D01*
X188305804Y-68122227D01*
X188311765Y-68098428D01*
X188320030Y-68075329D01*
X188330520Y-68053150D01*
X188343132Y-68032107D01*
X188357747Y-68012401D01*
X188374223Y-67994223D01*
X188392401Y-67977747D01*
X188412107Y-67963132D01*
X188433150Y-67950520D01*
X188455329Y-67940030D01*
X188478428Y-67931765D01*
X188502227Y-67925804D01*
X188526495Y-67922204D01*
X188550999Y-67921000D01*
X189401001Y-67921000D01*
X189425505Y-67922204D01*
X189425505Y-67922204D01*
G37*
D14*
G04 #@! TD*
G04 #@! TO.P,R32,2*
G04 #@! TO.N,Net-(Q13-Pad3)*
X188976000Y-69596000D03*
D15*
G04 #@! TO.N,GND*
X207645000Y-55880000D03*
X199390000Y-31750000D03*
G04 #@! TO.N,/VREG*
X208040000Y-34748000D03*
X212135962Y-50165000D03*
G04 #@! TO.N,Net-(Q1-Pad3)*
X180848000Y-32004000D03*
G04 #@! TO.N,Net-(Q2-Pad3)*
X188976000Y-35052000D03*
G04 #@! TO.N,Net-(Q3-Pad3)*
X180848000Y-38481000D03*
G04 #@! TO.N,Net-(Q4-Pad3)*
X188976000Y-41148000D03*
G04 #@! TO.N,Net-(Q5-Pad1)*
X207645000Y-48895000D03*
X209550000Y-50800000D03*
G04 #@! TO.N,Net-(Q6-Pad3)*
X180848000Y-44196000D03*
G04 #@! TO.N,Net-(Q7-Pad3)*
X188976000Y-52324000D03*
G04 #@! TO.N,Net-(Q8-Pad3)*
X180848000Y-54864000D03*
G04 #@! TO.N,Net-(Q9-Pad3)*
X188976000Y-57912000D03*
G04 #@! TO.N,Net-(Q10-Pad3)*
X180848000Y-60706000D03*
G04 #@! TO.N,Net-(Q11-Pad3)*
X188976000Y-63500000D03*
G04 #@! TO.N,Net-(Q12-Pad3)*
X180848000Y-66421000D03*
G04 #@! TO.N,Net-(Q13-Pad3)*
X188976000Y-69596000D03*
G04 #@! TO.N,Net-(Q13-Pad1)*
X205740000Y-64770000D03*
X190500000Y-71120000D03*
G04 #@! TO.N,/IMB*
X212520022Y-45924978D03*
X215900000Y-56515000D03*
G04 #@! TD*
D16*
G04 #@! TO.N,/VREG*
X208040000Y-34748000D02*
X208040000Y-46069038D01*
X208040000Y-46069038D02*
X212135962Y-50165000D01*
D17*
G04 #@! TO.N,/Batt7*
X170688000Y-44196000D02*
X175048000Y-44196000D01*
G04 #@! TO.N,/Batt8*
X183128000Y-41196000D02*
X183176000Y-41148000D01*
X170688000Y-41196000D02*
X183128000Y-41196000D01*
G04 #@! TO.N,/Batt9*
X174763000Y-38196000D02*
X175048000Y-38481000D01*
X170688000Y-38196000D02*
X174763000Y-38196000D01*
G04 #@! TO.N,/Batt10*
X183032000Y-35196000D02*
X183176000Y-35052000D01*
X170688000Y-35196000D02*
X183032000Y-35196000D01*
G04 #@! TO.N,/Batt11*
X174856000Y-32196000D02*
X175048000Y-32004000D01*
X170688000Y-32196000D02*
X174856000Y-32196000D01*
G04 #@! TO.N,/Batt1*
X174873000Y-66596000D02*
X175048000Y-66421000D01*
X170688000Y-66596000D02*
X174873000Y-66596000D01*
G04 #@! TO.N,/Batt2*
X183080000Y-63596000D02*
X183176000Y-63500000D01*
X170688000Y-63596000D02*
X183080000Y-63596000D01*
G04 #@! TO.N,/Batt3*
X174938000Y-60596000D02*
X175048000Y-60706000D01*
X170688000Y-60596000D02*
X174938000Y-60596000D01*
G04 #@! TO.N,/Batt4*
X182860000Y-57596000D02*
X183176000Y-57912000D01*
X170688000Y-57596000D02*
X182860000Y-57596000D01*
G04 #@! TO.N,/Batt5*
X174780000Y-54596000D02*
X175048000Y-54864000D01*
X170688000Y-54596000D02*
X174780000Y-54596000D01*
G04 #@! TO.N,/Batt6*
X182448000Y-51596000D02*
X183176000Y-52324000D01*
X170688000Y-51596000D02*
X182448000Y-51596000D01*
D16*
G04 #@! TO.N,Net-(Q5-Pad1)*
X207645000Y-48895000D02*
X209550000Y-50800000D01*
G04 #@! TO.N,Net-(Q13-Pad1)*
X205740000Y-64770000D02*
X199390000Y-71120000D01*
X199390000Y-71120000D02*
X190500000Y-71120000D01*
D18*
G04 #@! TO.N,/IMB*
X212520022Y-45924978D02*
X215900000Y-49304956D01*
X215900000Y-49304956D02*
X215900000Y-56515000D01*
G04 #@! TD*
D19*
G04 #@! TO.N,GND*
G36*
X221001910Y-20049504D02*
X220602737Y-20724467D01*
X220399781Y-21481912D01*
X220407992Y-22266034D01*
X220626767Y-23019062D01*
X221039987Y-23685518D01*
X221617209Y-24216300D01*
X222315904Y-24572303D01*
X223084598Y-24727299D01*
X223866657Y-24669868D01*
X224604462Y-24404242D01*
X225243657Y-23949990D01*
X225325001Y-23849539D01*
X225325001Y-47894185D01*
X225097619Y-47800000D01*
X224592381Y-47800000D01*
X224125603Y-47993346D01*
X223768346Y-48350603D01*
X223575000Y-48817381D01*
X223575000Y-49322619D01*
X223768346Y-49789397D01*
X224125603Y-50146654D01*
X224592381Y-50340000D01*
X225097619Y-50340000D01*
X225325000Y-50245815D01*
X225325000Y-56894185D01*
X225097619Y-56800000D01*
X224592381Y-56800000D01*
X224125603Y-56993346D01*
X223768346Y-57350603D01*
X223575000Y-57817381D01*
X223575000Y-58322619D01*
X223768346Y-58789397D01*
X224125603Y-59146654D01*
X224592381Y-59340000D01*
X225097619Y-59340000D01*
X225325000Y-59245815D01*
X225325000Y-60594185D01*
X225097619Y-60500000D01*
X224592381Y-60500000D01*
X224125603Y-60693346D01*
X223768346Y-61050603D01*
X223575000Y-61517381D01*
X223575000Y-62022619D01*
X223768346Y-62489397D01*
X224125603Y-62846654D01*
X224592381Y-63040000D01*
X225097619Y-63040000D01*
X225325000Y-62945815D01*
X225325000Y-69594184D01*
X225097619Y-69500000D01*
X224592381Y-69500000D01*
X224125603Y-69693346D01*
X223768346Y-70050603D01*
X223575000Y-70517381D01*
X223575000Y-71022619D01*
X223768346Y-71489397D01*
X224125603Y-71846654D01*
X224592381Y-72040000D01*
X225097619Y-72040000D01*
X225325000Y-71945816D01*
X225325000Y-73948016D01*
X225199118Y-73799055D01*
X224550551Y-73358289D01*
X223807345Y-73108172D01*
X223024255Y-73067132D01*
X222258975Y-73238192D01*
X221567888Y-73608750D01*
X221001910Y-74151504D01*
X220602737Y-74826467D01*
X220399781Y-75583912D01*
X220407992Y-76368034D01*
X220626767Y-77121062D01*
X221039987Y-77787518D01*
X221303685Y-78030000D01*
X172429464Y-78030000D01*
X172905147Y-77442580D01*
X173216577Y-76722909D01*
X173323000Y-75946000D01*
X173322366Y-75885497D01*
X173199696Y-75110987D01*
X172873263Y-74397996D01*
X172367118Y-73799055D01*
X171718551Y-73358289D01*
X170975345Y-73108172D01*
X170192255Y-73067132D01*
X169717401Y-73173274D01*
X169863000Y-72821766D01*
X169863000Y-72370234D01*
X169690207Y-71953074D01*
X169370926Y-71633793D01*
X168953766Y-71461000D01*
X168502234Y-71461000D01*
X168350000Y-71524057D01*
X168350000Y-69881750D01*
X169053000Y-69881750D01*
X169053000Y-70472309D01*
X169149673Y-70705698D01*
X169328301Y-70884327D01*
X169561690Y-70981000D01*
X170402250Y-70981000D01*
X170561000Y-70822250D01*
X170561000Y-69723000D01*
X170815000Y-69723000D01*
X170815000Y-70822250D01*
X170973750Y-70981000D01*
X171814310Y-70981000D01*
X172047699Y-70884327D01*
X172226327Y-70705698D01*
X172323000Y-70472309D01*
X172323000Y-69881750D01*
X181866000Y-69881750D01*
X181866000Y-71397310D01*
X181962673Y-71630699D01*
X182141302Y-71809327D01*
X182374691Y-71906000D01*
X182890250Y-71906000D01*
X183049000Y-71747250D01*
X183049000Y-69723000D01*
X183303000Y-69723000D01*
X183303000Y-71747250D01*
X183461750Y-71906000D01*
X183977309Y-71906000D01*
X184210698Y-71809327D01*
X184389327Y-71630699D01*
X184486000Y-71397310D01*
X184486000Y-69881750D01*
X184327250Y-69723000D01*
X183303000Y-69723000D01*
X183049000Y-69723000D01*
X182024750Y-69723000D01*
X181866000Y-69881750D01*
X172323000Y-69881750D01*
X172164250Y-69723000D01*
X170815000Y-69723000D01*
X170561000Y-69723000D01*
X169211750Y-69723000D01*
X169053000Y-69881750D01*
X168350000Y-69881750D01*
X168350000Y-68719691D01*
X169053000Y-68719691D01*
X169053000Y-69310250D01*
X169211750Y-69469000D01*
X170561000Y-69469000D01*
X170561000Y-68369750D01*
X170815000Y-68369750D01*
X170815000Y-69469000D01*
X172164250Y-69469000D01*
X172323000Y-69310250D01*
X172323000Y-68719691D01*
X172226327Y-68486302D01*
X172047699Y-68307673D01*
X171814310Y-68211000D01*
X170973750Y-68211000D01*
X170815000Y-68369750D01*
X170561000Y-68369750D01*
X170402250Y-68211000D01*
X169561690Y-68211000D01*
X169328301Y-68307673D01*
X169149673Y-68486302D01*
X169053000Y-68719691D01*
X168350000Y-68719691D01*
X168350000Y-51596000D01*
X169025867Y-51596000D01*
X169133359Y-52136400D01*
X169439471Y-52594529D01*
X169897600Y-52900641D01*
X170301593Y-52981000D01*
X171074407Y-52981000D01*
X171478400Y-52900641D01*
X171936529Y-52594529D01*
X172052143Y-52421500D01*
X181853560Y-52421500D01*
X181853560Y-52768315D01*
X181616436Y-52609873D01*
X181273001Y-52541560D01*
X180422999Y-52541560D01*
X180079564Y-52609873D01*
X179788414Y-52804414D01*
X179593873Y-53095564D01*
X179525560Y-53438999D01*
X179525560Y-56289001D01*
X179593873Y-56632436D01*
X179686125Y-56770500D01*
X176209875Y-56770500D01*
X176302127Y-56632436D01*
X176370440Y-56289001D01*
X176370440Y-53438999D01*
X176302127Y-53095564D01*
X176107586Y-52804414D01*
X175816436Y-52609873D01*
X175473001Y-52541560D01*
X174622999Y-52541560D01*
X174279564Y-52609873D01*
X173988414Y-52804414D01*
X173793873Y-53095564D01*
X173725560Y-53438999D01*
X173725560Y-53770500D01*
X172052143Y-53770500D01*
X171936529Y-53597471D01*
X171478400Y-53291359D01*
X171074407Y-53211000D01*
X170301593Y-53211000D01*
X169897600Y-53291359D01*
X169439471Y-53597471D01*
X169133359Y-54055600D01*
X169025867Y-54596000D01*
X169133359Y-55136400D01*
X169439471Y-55594529D01*
X169897600Y-55900641D01*
X170301593Y-55981000D01*
X171074407Y-55981000D01*
X171478400Y-55900641D01*
X171936529Y-55594529D01*
X172052143Y-55421500D01*
X173725560Y-55421500D01*
X173725560Y-56289001D01*
X173793873Y-56632436D01*
X173886125Y-56770500D01*
X172052143Y-56770500D01*
X171936529Y-56597471D01*
X171478400Y-56291359D01*
X171074407Y-56211000D01*
X170301593Y-56211000D01*
X169897600Y-56291359D01*
X169439471Y-56597471D01*
X169133359Y-57055600D01*
X169025867Y-57596000D01*
X169133359Y-58136400D01*
X169439471Y-58594529D01*
X169897600Y-58900641D01*
X170301593Y-58981000D01*
X171074407Y-58981000D01*
X171478400Y-58900641D01*
X171936529Y-58594529D01*
X172052143Y-58421500D01*
X174432260Y-58421500D01*
X174279564Y-58451873D01*
X173988414Y-58646414D01*
X173793873Y-58937564D01*
X173725560Y-59280999D01*
X173725560Y-59770500D01*
X172052143Y-59770500D01*
X171936529Y-59597471D01*
X171478400Y-59291359D01*
X171074407Y-59211000D01*
X170301593Y-59211000D01*
X169897600Y-59291359D01*
X169439471Y-59597471D01*
X169133359Y-60055600D01*
X169025867Y-60596000D01*
X169133359Y-61136400D01*
X169439471Y-61594529D01*
X169897600Y-61900641D01*
X170301593Y-61981000D01*
X171074407Y-61981000D01*
X171478400Y-61900641D01*
X171936529Y-61594529D01*
X172052143Y-61421500D01*
X173725560Y-61421500D01*
X173725560Y-62131001D01*
X173793873Y-62474436D01*
X173988414Y-62765586D01*
X173995768Y-62770500D01*
X172052143Y-62770500D01*
X171936529Y-62597471D01*
X171478400Y-62291359D01*
X171074407Y-62211000D01*
X170301593Y-62211000D01*
X169897600Y-62291359D01*
X169439471Y-62597471D01*
X169133359Y-63055600D01*
X169025867Y-63596000D01*
X169133359Y-64136400D01*
X169439471Y-64594529D01*
X169897600Y-64900641D01*
X170301593Y-64981000D01*
X171074407Y-64981000D01*
X171478400Y-64900641D01*
X171936529Y-64594529D01*
X172052143Y-64421500D01*
X173948266Y-64421500D01*
X173793873Y-64652564D01*
X173725560Y-64995999D01*
X173725560Y-65770500D01*
X172052143Y-65770500D01*
X171936529Y-65597471D01*
X171478400Y-65291359D01*
X171074407Y-65211000D01*
X170301593Y-65211000D01*
X169897600Y-65291359D01*
X169439471Y-65597471D01*
X169133359Y-66055600D01*
X169025867Y-66596000D01*
X169133359Y-67136400D01*
X169439471Y-67594529D01*
X169897600Y-67900641D01*
X170301593Y-67981000D01*
X171074407Y-67981000D01*
X171478400Y-67900641D01*
X171936529Y-67594529D01*
X172052143Y-67421500D01*
X173725560Y-67421500D01*
X173725560Y-67846001D01*
X173793873Y-68189436D01*
X173988414Y-68480586D01*
X174279564Y-68675127D01*
X174622999Y-68743440D01*
X175473001Y-68743440D01*
X175816436Y-68675127D01*
X176107586Y-68480586D01*
X176302127Y-68189436D01*
X176370440Y-67846001D01*
X176370440Y-64995999D01*
X176302127Y-64652564D01*
X176147734Y-64421500D01*
X179748266Y-64421500D01*
X179593873Y-64652564D01*
X179525560Y-64995999D01*
X179525560Y-67846001D01*
X179593873Y-68189436D01*
X179788414Y-68480586D01*
X180079564Y-68675127D01*
X180422999Y-68743440D01*
X181273001Y-68743440D01*
X181616436Y-68675127D01*
X181866000Y-68508373D01*
X181866000Y-69310250D01*
X182024750Y-69469000D01*
X183049000Y-69469000D01*
X183049000Y-67444750D01*
X183303000Y-67444750D01*
X183303000Y-69469000D01*
X184327250Y-69469000D01*
X184486000Y-69310250D01*
X184486000Y-68170999D01*
X187653560Y-68170999D01*
X187653560Y-71021001D01*
X187721873Y-71364436D01*
X187916414Y-71655586D01*
X188207564Y-71850127D01*
X188550999Y-71918440D01*
X189401001Y-71918440D01*
X189744436Y-71850127D01*
X189757612Y-71841323D01*
X189913720Y-71997431D01*
X190294126Y-72155000D01*
X190705874Y-72155000D01*
X191086280Y-71997431D01*
X191227111Y-71856600D01*
X199317460Y-71856600D01*
X199390000Y-71871029D01*
X199462540Y-71856600D01*
X199462544Y-71856600D01*
X199677407Y-71813861D01*
X199921058Y-71651058D01*
X199962151Y-71589558D01*
X204077094Y-67474615D01*
X221400000Y-67474615D01*
X221400000Y-68065385D01*
X221626078Y-68611185D01*
X222043815Y-69028922D01*
X222589615Y-69255000D01*
X223180385Y-69255000D01*
X223726185Y-69028922D01*
X224143922Y-68611185D01*
X224370000Y-68065385D01*
X224370000Y-67474615D01*
X224143922Y-66928815D01*
X223726185Y-66511078D01*
X223180385Y-66285000D01*
X222589615Y-66285000D01*
X222043815Y-66511078D01*
X221626078Y-66928815D01*
X221400000Y-67474615D01*
X204077094Y-67474615D01*
X205746710Y-65805000D01*
X205945874Y-65805000D01*
X206326280Y-65647431D01*
X206617431Y-65356280D01*
X206775000Y-64975874D01*
X206775000Y-64564126D01*
X206737924Y-64474615D01*
X221400000Y-64474615D01*
X221400000Y-65065385D01*
X221626078Y-65611185D01*
X222043815Y-66028922D01*
X222589615Y-66255000D01*
X223180385Y-66255000D01*
X223726185Y-66028922D01*
X224143922Y-65611185D01*
X224370000Y-65065385D01*
X224370000Y-64474615D01*
X224143922Y-63928815D01*
X223726185Y-63511078D01*
X223180385Y-63285000D01*
X222589615Y-63285000D01*
X222043815Y-63511078D01*
X221626078Y-63928815D01*
X221400000Y-64474615D01*
X206737924Y-64474615D01*
X206617431Y-64183720D01*
X206326280Y-63892569D01*
X205945874Y-63735000D01*
X205534126Y-63735000D01*
X205153720Y-63892569D01*
X204862569Y-64183720D01*
X204705000Y-64564126D01*
X204705000Y-64763290D01*
X199084891Y-70383400D01*
X191227111Y-70383400D01*
X191086280Y-70242569D01*
X190705874Y-70085000D01*
X190298440Y-70085000D01*
X190298440Y-68170999D01*
X190230127Y-67827564D01*
X190035586Y-67536414D01*
X189744436Y-67341873D01*
X189401001Y-67273560D01*
X188550999Y-67273560D01*
X188207564Y-67341873D01*
X187916414Y-67536414D01*
X187721873Y-67827564D01*
X187653560Y-68170999D01*
X184486000Y-68170999D01*
X184486000Y-67794690D01*
X184389327Y-67561301D01*
X184210698Y-67382673D01*
X183977309Y-67286000D01*
X183461750Y-67286000D01*
X183303000Y-67444750D01*
X183049000Y-67444750D01*
X182890250Y-67286000D01*
X182374691Y-67286000D01*
X182170440Y-67370604D01*
X182170440Y-65595685D01*
X182407564Y-65754127D01*
X182750999Y-65822440D01*
X183601001Y-65822440D01*
X183944436Y-65754127D01*
X184235586Y-65559586D01*
X184430127Y-65268436D01*
X184498440Y-64925001D01*
X184498440Y-62074999D01*
X187653560Y-62074999D01*
X187653560Y-64925001D01*
X187721873Y-65268436D01*
X187916414Y-65559586D01*
X188207564Y-65754127D01*
X188550999Y-65822440D01*
X189401001Y-65822440D01*
X189744436Y-65754127D01*
X190035586Y-65559586D01*
X190230127Y-65268436D01*
X190298440Y-64925001D01*
X190298440Y-62074999D01*
X190230127Y-61731564D01*
X190035586Y-61440414D01*
X189744436Y-61245873D01*
X189401001Y-61177560D01*
X188550999Y-61177560D01*
X188207564Y-61245873D01*
X187916414Y-61440414D01*
X187721873Y-61731564D01*
X187653560Y-62074999D01*
X184498440Y-62074999D01*
X184430127Y-61731564D01*
X184235586Y-61440414D01*
X183944436Y-61245873D01*
X183601001Y-61177560D01*
X182750999Y-61177560D01*
X182407564Y-61245873D01*
X182170440Y-61404315D01*
X182170440Y-60007685D01*
X182407564Y-60166127D01*
X182750999Y-60234440D01*
X183601001Y-60234440D01*
X183944436Y-60166127D01*
X184235586Y-59971586D01*
X184430127Y-59680436D01*
X184498440Y-59337001D01*
X184498440Y-56486999D01*
X187653560Y-56486999D01*
X187653560Y-59337001D01*
X187721873Y-59680436D01*
X187916414Y-59971586D01*
X188207564Y-60166127D01*
X188550999Y-60234440D01*
X189401001Y-60234440D01*
X189744436Y-60166127D01*
X190035586Y-59971586D01*
X190230127Y-59680436D01*
X190298440Y-59337001D01*
X190298440Y-56486999D01*
X190230127Y-56143564D01*
X190035586Y-55852414D01*
X189744436Y-55657873D01*
X189401001Y-55589560D01*
X188550999Y-55589560D01*
X188207564Y-55657873D01*
X187916414Y-55852414D01*
X187721873Y-56143564D01*
X187653560Y-56486999D01*
X184498440Y-56486999D01*
X184430127Y-56143564D01*
X184235586Y-55852414D01*
X183944436Y-55657873D01*
X183601001Y-55589560D01*
X182750999Y-55589560D01*
X182407564Y-55657873D01*
X182170440Y-55816315D01*
X182170440Y-54419685D01*
X182407564Y-54578127D01*
X182750999Y-54646440D01*
X183601001Y-54646440D01*
X183944436Y-54578127D01*
X184235586Y-54383586D01*
X184430127Y-54092436D01*
X184498440Y-53749001D01*
X184498440Y-50898999D01*
X187653560Y-50898999D01*
X187653560Y-53749001D01*
X187721873Y-54092436D01*
X187916414Y-54383586D01*
X188207564Y-54578127D01*
X188550999Y-54646440D01*
X189401001Y-54646440D01*
X189744436Y-54578127D01*
X190035586Y-54383586D01*
X190230127Y-54092436D01*
X190298440Y-53749001D01*
X190298440Y-50898999D01*
X190230127Y-50555564D01*
X190035586Y-50264414D01*
X189744436Y-50069873D01*
X189401001Y-50001560D01*
X188550999Y-50001560D01*
X188207564Y-50069873D01*
X187916414Y-50264414D01*
X187721873Y-50555564D01*
X187653560Y-50898999D01*
X184498440Y-50898999D01*
X184430127Y-50555564D01*
X184235586Y-50264414D01*
X183944436Y-50069873D01*
X183601001Y-50001560D01*
X182750999Y-50001560D01*
X182407564Y-50069873D01*
X182116414Y-50264414D01*
X181921873Y-50555564D01*
X181879120Y-50770500D01*
X172052143Y-50770500D01*
X171936529Y-50597471D01*
X171478400Y-50291359D01*
X171074407Y-50211000D01*
X170301593Y-50211000D01*
X169897600Y-50291359D01*
X169439471Y-50597471D01*
X169133359Y-51055600D01*
X169025867Y-51596000D01*
X168350000Y-51596000D01*
X168350000Y-49667943D01*
X168502234Y-49731000D01*
X168953766Y-49731000D01*
X169370926Y-49558207D01*
X169690207Y-49238926D01*
X169863000Y-48821766D01*
X169863000Y-48689126D01*
X206610000Y-48689126D01*
X206610000Y-49100874D01*
X206767569Y-49481280D01*
X207058720Y-49772431D01*
X207439126Y-49930000D01*
X207638291Y-49930000D01*
X208515000Y-50806710D01*
X208515000Y-51005874D01*
X208672569Y-51386280D01*
X208963720Y-51677431D01*
X209344126Y-51835000D01*
X209755874Y-51835000D01*
X210136280Y-51677431D01*
X210427431Y-51386280D01*
X210585000Y-51005874D01*
X210585000Y-50594126D01*
X210427431Y-50213720D01*
X210136280Y-49922569D01*
X209755874Y-49765000D01*
X209556710Y-49765000D01*
X208680000Y-48888291D01*
X208680000Y-48689126D01*
X208522431Y-48308720D01*
X208231280Y-48017569D01*
X207850874Y-47860000D01*
X207439126Y-47860000D01*
X207058720Y-48017569D01*
X206767569Y-48308720D01*
X206610000Y-48689126D01*
X169863000Y-48689126D01*
X169863000Y-48370234D01*
X169690207Y-47953074D01*
X169633133Y-47896000D01*
X169690207Y-47838926D01*
X169863000Y-47421766D01*
X169863000Y-46970234D01*
X169690207Y-46553074D01*
X169370926Y-46233793D01*
X168953766Y-46061000D01*
X168502234Y-46061000D01*
X168350000Y-46124057D01*
X168350000Y-35196000D01*
X169025867Y-35196000D01*
X169133359Y-35736400D01*
X169439471Y-36194529D01*
X169897600Y-36500641D01*
X170301593Y-36581000D01*
X171074407Y-36581000D01*
X171478400Y-36500641D01*
X171936529Y-36194529D01*
X172052143Y-36021500D01*
X181853560Y-36021500D01*
X181853560Y-36385315D01*
X181616436Y-36226873D01*
X181273001Y-36158560D01*
X180422999Y-36158560D01*
X180079564Y-36226873D01*
X179788414Y-36421414D01*
X179593873Y-36712564D01*
X179525560Y-37055999D01*
X179525560Y-39906001D01*
X179593873Y-40249436D01*
X179674766Y-40370500D01*
X176221234Y-40370500D01*
X176302127Y-40249436D01*
X176370440Y-39906001D01*
X176370440Y-37055999D01*
X176302127Y-36712564D01*
X176107586Y-36421414D01*
X175816436Y-36226873D01*
X175473001Y-36158560D01*
X174622999Y-36158560D01*
X174279564Y-36226873D01*
X173988414Y-36421414D01*
X173793873Y-36712564D01*
X173725560Y-37055999D01*
X173725560Y-37370500D01*
X172052143Y-37370500D01*
X171936529Y-37197471D01*
X171478400Y-36891359D01*
X171074407Y-36811000D01*
X170301593Y-36811000D01*
X169897600Y-36891359D01*
X169439471Y-37197471D01*
X169133359Y-37655600D01*
X169025867Y-38196000D01*
X169133359Y-38736400D01*
X169439471Y-39194529D01*
X169897600Y-39500641D01*
X170301593Y-39581000D01*
X171074407Y-39581000D01*
X171478400Y-39500641D01*
X171936529Y-39194529D01*
X172052143Y-39021500D01*
X173725560Y-39021500D01*
X173725560Y-39906001D01*
X173793873Y-40249436D01*
X173874766Y-40370500D01*
X172052143Y-40370500D01*
X171936529Y-40197471D01*
X171478400Y-39891359D01*
X171074407Y-39811000D01*
X170301593Y-39811000D01*
X169897600Y-39891359D01*
X169439471Y-40197471D01*
X169133359Y-40655600D01*
X169025867Y-41196000D01*
X169133359Y-41736400D01*
X169439471Y-42194529D01*
X169897600Y-42500641D01*
X170301593Y-42581000D01*
X171074407Y-42581000D01*
X171478400Y-42500641D01*
X171936529Y-42194529D01*
X172052143Y-42021500D01*
X174160394Y-42021500D01*
X173988414Y-42136414D01*
X173793873Y-42427564D01*
X173725560Y-42770999D01*
X173725560Y-43370500D01*
X172320422Y-43370500D01*
X172286157Y-43198235D01*
X172145809Y-42988191D01*
X171935765Y-42847843D01*
X171688000Y-42798560D01*
X169688000Y-42798560D01*
X169440235Y-42847843D01*
X169230191Y-42988191D01*
X169089843Y-43198235D01*
X169040560Y-43446000D01*
X169040560Y-44946000D01*
X169089843Y-45193765D01*
X169230191Y-45403809D01*
X169440235Y-45544157D01*
X169688000Y-45593440D01*
X171688000Y-45593440D01*
X171935765Y-45544157D01*
X172145809Y-45403809D01*
X172286157Y-45193765D01*
X172320422Y-45021500D01*
X173725560Y-45021500D01*
X173725560Y-45621001D01*
X173793873Y-45964436D01*
X173988414Y-46255586D01*
X174279564Y-46450127D01*
X174622999Y-46518440D01*
X175473001Y-46518440D01*
X175816436Y-46450127D01*
X176107586Y-46255586D01*
X176302127Y-45964436D01*
X176370440Y-45621001D01*
X176370440Y-42770999D01*
X176302127Y-42427564D01*
X176107586Y-42136414D01*
X175935606Y-42021500D01*
X179960394Y-42021500D01*
X179788414Y-42136414D01*
X179593873Y-42427564D01*
X179525560Y-42770999D01*
X179525560Y-45621001D01*
X179593873Y-45964436D01*
X179788414Y-46255586D01*
X180079564Y-46450127D01*
X180422999Y-46518440D01*
X181273001Y-46518440D01*
X181616436Y-46450127D01*
X181907586Y-46255586D01*
X182102127Y-45964436D01*
X182170440Y-45621001D01*
X182170440Y-43243685D01*
X182407564Y-43402127D01*
X182750999Y-43470440D01*
X183601001Y-43470440D01*
X183944436Y-43402127D01*
X184235586Y-43207586D01*
X184430127Y-42916436D01*
X184498440Y-42573001D01*
X184498440Y-39722999D01*
X187653560Y-39722999D01*
X187653560Y-42573001D01*
X187721873Y-42916436D01*
X187916414Y-43207586D01*
X188207564Y-43402127D01*
X188550999Y-43470440D01*
X189401001Y-43470440D01*
X189744436Y-43402127D01*
X190035586Y-43207586D01*
X190230127Y-42916436D01*
X190298440Y-42573001D01*
X190298440Y-39722999D01*
X190230127Y-39379564D01*
X190035586Y-39088414D01*
X189744436Y-38893873D01*
X189401001Y-38825560D01*
X188550999Y-38825560D01*
X188207564Y-38893873D01*
X187916414Y-39088414D01*
X187721873Y-39379564D01*
X187653560Y-39722999D01*
X184498440Y-39722999D01*
X184430127Y-39379564D01*
X184235586Y-39088414D01*
X183944436Y-38893873D01*
X183601001Y-38825560D01*
X182750999Y-38825560D01*
X182407564Y-38893873D01*
X182170440Y-39052315D01*
X182170440Y-37147685D01*
X182407564Y-37306127D01*
X182750999Y-37374440D01*
X183601001Y-37374440D01*
X183944436Y-37306127D01*
X184235586Y-37111586D01*
X184430127Y-36820436D01*
X184498440Y-36477001D01*
X184498440Y-33626999D01*
X187653560Y-33626999D01*
X187653560Y-36477001D01*
X187721873Y-36820436D01*
X187916414Y-37111586D01*
X188207564Y-37306127D01*
X188550999Y-37374440D01*
X189401001Y-37374440D01*
X189744436Y-37306127D01*
X190035586Y-37111586D01*
X190230127Y-36820436D01*
X190298440Y-36477001D01*
X190298440Y-34542126D01*
X207005000Y-34542126D01*
X207005000Y-34953874D01*
X207162569Y-35334280D01*
X207303400Y-35475111D01*
X207303401Y-45996493D01*
X207288971Y-46069038D01*
X207346139Y-46356444D01*
X207467849Y-46538596D01*
X207467852Y-46538599D01*
X207508943Y-46600096D01*
X207570440Y-46641187D01*
X211100962Y-50171710D01*
X211100962Y-50370874D01*
X211258531Y-50751280D01*
X211549682Y-51042431D01*
X211930088Y-51200000D01*
X212341836Y-51200000D01*
X212722242Y-51042431D01*
X213013393Y-50751280D01*
X213170962Y-50370874D01*
X213170962Y-49959126D01*
X213013393Y-49578720D01*
X212722242Y-49287569D01*
X212341836Y-49130000D01*
X212142672Y-49130000D01*
X208776600Y-45763929D01*
X208776600Y-45719104D01*
X211485022Y-45719104D01*
X211485022Y-46130852D01*
X211642591Y-46511258D01*
X211933742Y-46802409D01*
X212314148Y-46959978D01*
X212441471Y-46959978D01*
X215112600Y-49631108D01*
X215112601Y-55838688D01*
X215022569Y-55928720D01*
X214865000Y-56309126D01*
X214865000Y-56720874D01*
X215022569Y-57101280D01*
X215313720Y-57392431D01*
X215694126Y-57550000D01*
X216105874Y-57550000D01*
X216486280Y-57392431D01*
X216777431Y-57101280D01*
X216935000Y-56720874D01*
X216935000Y-56309126D01*
X216777431Y-55928720D01*
X216687400Y-55838689D01*
X216687400Y-54774615D01*
X221400000Y-54774615D01*
X221400000Y-55365385D01*
X221626078Y-55911185D01*
X222043815Y-56328922D01*
X222589615Y-56555000D01*
X223180385Y-56555000D01*
X223726185Y-56328922D01*
X224143922Y-55911185D01*
X224370000Y-55365385D01*
X224370000Y-54774615D01*
X224143922Y-54228815D01*
X223726185Y-53811078D01*
X223180385Y-53585000D01*
X222589615Y-53585000D01*
X222043815Y-53811078D01*
X221626078Y-54228815D01*
X221400000Y-54774615D01*
X216687400Y-54774615D01*
X216687400Y-51774615D01*
X221400000Y-51774615D01*
X221400000Y-52365385D01*
X221626078Y-52911185D01*
X222043815Y-53328922D01*
X222589615Y-53555000D01*
X223180385Y-53555000D01*
X223726185Y-53328922D01*
X224143922Y-52911185D01*
X224370000Y-52365385D01*
X224370000Y-51774615D01*
X224143922Y-51228815D01*
X223726185Y-50811078D01*
X223180385Y-50585000D01*
X222589615Y-50585000D01*
X222043815Y-50811078D01*
X221626078Y-51228815D01*
X221400000Y-51774615D01*
X216687400Y-51774615D01*
X216687400Y-49382507D01*
X216702826Y-49304956D01*
X216668025Y-49130000D01*
X216641715Y-48997728D01*
X216467684Y-48737272D01*
X216401938Y-48693342D01*
X213555022Y-45846427D01*
X213555022Y-45719104D01*
X213397453Y-45338698D01*
X213106302Y-45047547D01*
X212725896Y-44889978D01*
X212314148Y-44889978D01*
X211933742Y-45047547D01*
X211642591Y-45338698D01*
X211485022Y-45719104D01*
X208776600Y-45719104D01*
X208776600Y-35475111D01*
X208917431Y-35334280D01*
X209075000Y-34953874D01*
X209075000Y-34542126D01*
X208917431Y-34161720D01*
X208626280Y-33870569D01*
X208245874Y-33713000D01*
X207834126Y-33713000D01*
X207453720Y-33870569D01*
X207162569Y-34161720D01*
X207005000Y-34542126D01*
X190298440Y-34542126D01*
X190298440Y-33626999D01*
X190230127Y-33283564D01*
X190035586Y-32992414D01*
X189744436Y-32797873D01*
X189401001Y-32729560D01*
X188550999Y-32729560D01*
X188207564Y-32797873D01*
X187916414Y-32992414D01*
X187721873Y-33283564D01*
X187653560Y-33626999D01*
X184498440Y-33626999D01*
X184430127Y-33283564D01*
X184235586Y-32992414D01*
X183944436Y-32797873D01*
X183601001Y-32729560D01*
X182750999Y-32729560D01*
X182407564Y-32797873D01*
X182170440Y-32956315D01*
X182170440Y-30578999D01*
X182102127Y-30235564D01*
X181907586Y-29944414D01*
X181616436Y-29749873D01*
X181273001Y-29681560D01*
X180422999Y-29681560D01*
X180079564Y-29749873D01*
X179788414Y-29944414D01*
X179593873Y-30235564D01*
X179525560Y-30578999D01*
X179525560Y-33429001D01*
X179593873Y-33772436D01*
X179788414Y-34063586D01*
X180079564Y-34258127D01*
X180422999Y-34326440D01*
X181273001Y-34326440D01*
X181616436Y-34258127D01*
X181853560Y-34099685D01*
X181853560Y-34370500D01*
X172052143Y-34370500D01*
X171936529Y-34197471D01*
X171478400Y-33891359D01*
X171074407Y-33811000D01*
X170301593Y-33811000D01*
X169897600Y-33891359D01*
X169439471Y-34197471D01*
X169133359Y-34655600D01*
X169025867Y-35196000D01*
X168350000Y-35196000D01*
X168350000Y-32196000D01*
X169025867Y-32196000D01*
X169133359Y-32736400D01*
X169439471Y-33194529D01*
X169897600Y-33500641D01*
X170301593Y-33581000D01*
X171074407Y-33581000D01*
X171478400Y-33500641D01*
X171936529Y-33194529D01*
X172052143Y-33021500D01*
X173725560Y-33021500D01*
X173725560Y-33429001D01*
X173793873Y-33772436D01*
X173988414Y-34063586D01*
X174279564Y-34258127D01*
X174622999Y-34326440D01*
X175473001Y-34326440D01*
X175816436Y-34258127D01*
X176107586Y-34063586D01*
X176302127Y-33772436D01*
X176370440Y-33429001D01*
X176370440Y-30578999D01*
X176302127Y-30235564D01*
X176107586Y-29944414D01*
X175816436Y-29749873D01*
X175473001Y-29681560D01*
X174622999Y-29681560D01*
X174279564Y-29749873D01*
X173988414Y-29944414D01*
X173793873Y-30235564D01*
X173725560Y-30578999D01*
X173725560Y-31370500D01*
X172052143Y-31370500D01*
X171936529Y-31197471D01*
X171478400Y-30891359D01*
X171074407Y-30811000D01*
X170301593Y-30811000D01*
X169897600Y-30891359D01*
X169439471Y-31197471D01*
X169133359Y-31655600D01*
X169025867Y-32196000D01*
X168350000Y-32196000D01*
X168350000Y-29196000D01*
X169025867Y-29196000D01*
X169133359Y-29736400D01*
X169439471Y-30194529D01*
X169897600Y-30500641D01*
X170301593Y-30581000D01*
X171074407Y-30581000D01*
X171478400Y-30500641D01*
X171936529Y-30194529D01*
X172242641Y-29736400D01*
X172350133Y-29196000D01*
X172242641Y-28655600D01*
X171936529Y-28197471D01*
X171478400Y-27891359D01*
X171074407Y-27811000D01*
X170301593Y-27811000D01*
X169897600Y-27891359D01*
X169439471Y-28197471D01*
X169133359Y-28655600D01*
X169025867Y-29196000D01*
X168350000Y-29196000D01*
X168350000Y-27267943D01*
X168502234Y-27331000D01*
X168953766Y-27331000D01*
X169370926Y-27158207D01*
X169690207Y-26838926D01*
X169863000Y-26421766D01*
X169863000Y-25970234D01*
X169690207Y-25553074D01*
X169370926Y-25233793D01*
X168953766Y-25061000D01*
X168502234Y-25061000D01*
X168350000Y-25124057D01*
X168350000Y-23816105D01*
X168785209Y-24216300D01*
X169483904Y-24572303D01*
X170252598Y-24727299D01*
X171034657Y-24669868D01*
X171772462Y-24404242D01*
X172411657Y-23949990D01*
X172905147Y-23340580D01*
X173216577Y-22620909D01*
X173323000Y-21844000D01*
X173322366Y-21783497D01*
X173199696Y-21008987D01*
X172873263Y-20295996D01*
X172420311Y-19760000D01*
X221303802Y-19760000D01*
X221001910Y-20049504D01*
X221001910Y-20049504D01*
G37*
X221001910Y-20049504D02*
X220602737Y-20724467D01*
X220399781Y-21481912D01*
X220407992Y-22266034D01*
X220626767Y-23019062D01*
X221039987Y-23685518D01*
X221617209Y-24216300D01*
X222315904Y-24572303D01*
X223084598Y-24727299D01*
X223866657Y-24669868D01*
X224604462Y-24404242D01*
X225243657Y-23949990D01*
X225325001Y-23849539D01*
X225325001Y-47894185D01*
X225097619Y-47800000D01*
X224592381Y-47800000D01*
X224125603Y-47993346D01*
X223768346Y-48350603D01*
X223575000Y-48817381D01*
X223575000Y-49322619D01*
X223768346Y-49789397D01*
X224125603Y-50146654D01*
X224592381Y-50340000D01*
X225097619Y-50340000D01*
X225325000Y-50245815D01*
X225325000Y-56894185D01*
X225097619Y-56800000D01*
X224592381Y-56800000D01*
X224125603Y-56993346D01*
X223768346Y-57350603D01*
X223575000Y-57817381D01*
X223575000Y-58322619D01*
X223768346Y-58789397D01*
X224125603Y-59146654D01*
X224592381Y-59340000D01*
X225097619Y-59340000D01*
X225325000Y-59245815D01*
X225325000Y-60594185D01*
X225097619Y-60500000D01*
X224592381Y-60500000D01*
X224125603Y-60693346D01*
X223768346Y-61050603D01*
X223575000Y-61517381D01*
X223575000Y-62022619D01*
X223768346Y-62489397D01*
X224125603Y-62846654D01*
X224592381Y-63040000D01*
X225097619Y-63040000D01*
X225325000Y-62945815D01*
X225325000Y-69594184D01*
X225097619Y-69500000D01*
X224592381Y-69500000D01*
X224125603Y-69693346D01*
X223768346Y-70050603D01*
X223575000Y-70517381D01*
X223575000Y-71022619D01*
X223768346Y-71489397D01*
X224125603Y-71846654D01*
X224592381Y-72040000D01*
X225097619Y-72040000D01*
X225325000Y-71945816D01*
X225325000Y-73948016D01*
X225199118Y-73799055D01*
X224550551Y-73358289D01*
X223807345Y-73108172D01*
X223024255Y-73067132D01*
X222258975Y-73238192D01*
X221567888Y-73608750D01*
X221001910Y-74151504D01*
X220602737Y-74826467D01*
X220399781Y-75583912D01*
X220407992Y-76368034D01*
X220626767Y-77121062D01*
X221039987Y-77787518D01*
X221303685Y-78030000D01*
X172429464Y-78030000D01*
X172905147Y-77442580D01*
X173216577Y-76722909D01*
X173323000Y-75946000D01*
X173322366Y-75885497D01*
X173199696Y-75110987D01*
X172873263Y-74397996D01*
X172367118Y-73799055D01*
X171718551Y-73358289D01*
X170975345Y-73108172D01*
X170192255Y-73067132D01*
X169717401Y-73173274D01*
X169863000Y-72821766D01*
X169863000Y-72370234D01*
X169690207Y-71953074D01*
X169370926Y-71633793D01*
X168953766Y-71461000D01*
X168502234Y-71461000D01*
X168350000Y-71524057D01*
X168350000Y-69881750D01*
X169053000Y-69881750D01*
X169053000Y-70472309D01*
X169149673Y-70705698D01*
X169328301Y-70884327D01*
X169561690Y-70981000D01*
X170402250Y-70981000D01*
X170561000Y-70822250D01*
X170561000Y-69723000D01*
X170815000Y-69723000D01*
X170815000Y-70822250D01*
X170973750Y-70981000D01*
X171814310Y-70981000D01*
X172047699Y-70884327D01*
X172226327Y-70705698D01*
X172323000Y-70472309D01*
X172323000Y-69881750D01*
X181866000Y-69881750D01*
X181866000Y-71397310D01*
X181962673Y-71630699D01*
X182141302Y-71809327D01*
X182374691Y-71906000D01*
X182890250Y-71906000D01*
X183049000Y-71747250D01*
X183049000Y-69723000D01*
X183303000Y-69723000D01*
X183303000Y-71747250D01*
X183461750Y-71906000D01*
X183977309Y-71906000D01*
X184210698Y-71809327D01*
X184389327Y-71630699D01*
X184486000Y-71397310D01*
X184486000Y-69881750D01*
X184327250Y-69723000D01*
X183303000Y-69723000D01*
X183049000Y-69723000D01*
X182024750Y-69723000D01*
X181866000Y-69881750D01*
X172323000Y-69881750D01*
X172164250Y-69723000D01*
X170815000Y-69723000D01*
X170561000Y-69723000D01*
X169211750Y-69723000D01*
X169053000Y-69881750D01*
X168350000Y-69881750D01*
X168350000Y-68719691D01*
X169053000Y-68719691D01*
X169053000Y-69310250D01*
X169211750Y-69469000D01*
X170561000Y-69469000D01*
X170561000Y-68369750D01*
X170815000Y-68369750D01*
X170815000Y-69469000D01*
X172164250Y-69469000D01*
X172323000Y-69310250D01*
X172323000Y-68719691D01*
X172226327Y-68486302D01*
X172047699Y-68307673D01*
X171814310Y-68211000D01*
X170973750Y-68211000D01*
X170815000Y-68369750D01*
X170561000Y-68369750D01*
X170402250Y-68211000D01*
X169561690Y-68211000D01*
X169328301Y-68307673D01*
X169149673Y-68486302D01*
X169053000Y-68719691D01*
X168350000Y-68719691D01*
X168350000Y-51596000D01*
X169025867Y-51596000D01*
X169133359Y-52136400D01*
X169439471Y-52594529D01*
X169897600Y-52900641D01*
X170301593Y-52981000D01*
X171074407Y-52981000D01*
X171478400Y-52900641D01*
X171936529Y-52594529D01*
X172052143Y-52421500D01*
X181853560Y-52421500D01*
X181853560Y-52768315D01*
X181616436Y-52609873D01*
X181273001Y-52541560D01*
X180422999Y-52541560D01*
X180079564Y-52609873D01*
X179788414Y-52804414D01*
X179593873Y-53095564D01*
X179525560Y-53438999D01*
X179525560Y-56289001D01*
X179593873Y-56632436D01*
X179686125Y-56770500D01*
X176209875Y-56770500D01*
X176302127Y-56632436D01*
X176370440Y-56289001D01*
X176370440Y-53438999D01*
X176302127Y-53095564D01*
X176107586Y-52804414D01*
X175816436Y-52609873D01*
X175473001Y-52541560D01*
X174622999Y-52541560D01*
X174279564Y-52609873D01*
X173988414Y-52804414D01*
X173793873Y-53095564D01*
X173725560Y-53438999D01*
X173725560Y-53770500D01*
X172052143Y-53770500D01*
X171936529Y-53597471D01*
X171478400Y-53291359D01*
X171074407Y-53211000D01*
X170301593Y-53211000D01*
X169897600Y-53291359D01*
X169439471Y-53597471D01*
X169133359Y-54055600D01*
X169025867Y-54596000D01*
X169133359Y-55136400D01*
X169439471Y-55594529D01*
X169897600Y-55900641D01*
X170301593Y-55981000D01*
X171074407Y-55981000D01*
X171478400Y-55900641D01*
X171936529Y-55594529D01*
X172052143Y-55421500D01*
X173725560Y-55421500D01*
X173725560Y-56289001D01*
X173793873Y-56632436D01*
X173886125Y-56770500D01*
X172052143Y-56770500D01*
X171936529Y-56597471D01*
X171478400Y-56291359D01*
X171074407Y-56211000D01*
X170301593Y-56211000D01*
X169897600Y-56291359D01*
X169439471Y-56597471D01*
X169133359Y-57055600D01*
X169025867Y-57596000D01*
X169133359Y-58136400D01*
X169439471Y-58594529D01*
X169897600Y-58900641D01*
X170301593Y-58981000D01*
X171074407Y-58981000D01*
X171478400Y-58900641D01*
X171936529Y-58594529D01*
X172052143Y-58421500D01*
X174432260Y-58421500D01*
X174279564Y-58451873D01*
X173988414Y-58646414D01*
X173793873Y-58937564D01*
X173725560Y-59280999D01*
X173725560Y-59770500D01*
X172052143Y-59770500D01*
X171936529Y-59597471D01*
X171478400Y-59291359D01*
X171074407Y-59211000D01*
X170301593Y-59211000D01*
X169897600Y-59291359D01*
X169439471Y-59597471D01*
X169133359Y-60055600D01*
X169025867Y-60596000D01*
X169133359Y-61136400D01*
X169439471Y-61594529D01*
X169897600Y-61900641D01*
X170301593Y-61981000D01*
X171074407Y-61981000D01*
X171478400Y-61900641D01*
X171936529Y-61594529D01*
X172052143Y-61421500D01*
X173725560Y-61421500D01*
X173725560Y-62131001D01*
X173793873Y-62474436D01*
X173988414Y-62765586D01*
X173995768Y-62770500D01*
X172052143Y-62770500D01*
X171936529Y-62597471D01*
X171478400Y-62291359D01*
X171074407Y-62211000D01*
X170301593Y-62211000D01*
X169897600Y-62291359D01*
X169439471Y-62597471D01*
X169133359Y-63055600D01*
X169025867Y-63596000D01*
X169133359Y-64136400D01*
X169439471Y-64594529D01*
X169897600Y-64900641D01*
X170301593Y-64981000D01*
X171074407Y-64981000D01*
X171478400Y-64900641D01*
X171936529Y-64594529D01*
X172052143Y-64421500D01*
X173948266Y-64421500D01*
X173793873Y-64652564D01*
X173725560Y-64995999D01*
X173725560Y-65770500D01*
X172052143Y-65770500D01*
X171936529Y-65597471D01*
X171478400Y-65291359D01*
X171074407Y-65211000D01*
X170301593Y-65211000D01*
X169897600Y-65291359D01*
X169439471Y-65597471D01*
X169133359Y-66055600D01*
X169025867Y-66596000D01*
X169133359Y-67136400D01*
X169439471Y-67594529D01*
X169897600Y-67900641D01*
X170301593Y-67981000D01*
X171074407Y-67981000D01*
X171478400Y-67900641D01*
X171936529Y-67594529D01*
X172052143Y-67421500D01*
X173725560Y-67421500D01*
X173725560Y-67846001D01*
X173793873Y-68189436D01*
X173988414Y-68480586D01*
X174279564Y-68675127D01*
X174622999Y-68743440D01*
X175473001Y-68743440D01*
X175816436Y-68675127D01*
X176107586Y-68480586D01*
X176302127Y-68189436D01*
X176370440Y-67846001D01*
X176370440Y-64995999D01*
X176302127Y-64652564D01*
X176147734Y-64421500D01*
X179748266Y-64421500D01*
X179593873Y-64652564D01*
X179525560Y-64995999D01*
X179525560Y-67846001D01*
X179593873Y-68189436D01*
X179788414Y-68480586D01*
X180079564Y-68675127D01*
X180422999Y-68743440D01*
X181273001Y-68743440D01*
X181616436Y-68675127D01*
X181866000Y-68508373D01*
X181866000Y-69310250D01*
X182024750Y-69469000D01*
X183049000Y-69469000D01*
X183049000Y-67444750D01*
X183303000Y-67444750D01*
X183303000Y-69469000D01*
X184327250Y-69469000D01*
X184486000Y-69310250D01*
X184486000Y-68170999D01*
X187653560Y-68170999D01*
X187653560Y-71021001D01*
X187721873Y-71364436D01*
X187916414Y-71655586D01*
X188207564Y-71850127D01*
X188550999Y-71918440D01*
X189401001Y-71918440D01*
X189744436Y-71850127D01*
X189757612Y-71841323D01*
X189913720Y-71997431D01*
X190294126Y-72155000D01*
X190705874Y-72155000D01*
X191086280Y-71997431D01*
X191227111Y-71856600D01*
X199317460Y-71856600D01*
X199390000Y-71871029D01*
X199462540Y-71856600D01*
X199462544Y-71856600D01*
X199677407Y-71813861D01*
X199921058Y-71651058D01*
X199962151Y-71589558D01*
X204077094Y-67474615D01*
X221400000Y-67474615D01*
X221400000Y-68065385D01*
X221626078Y-68611185D01*
X222043815Y-69028922D01*
X222589615Y-69255000D01*
X223180385Y-69255000D01*
X223726185Y-69028922D01*
X224143922Y-68611185D01*
X224370000Y-68065385D01*
X224370000Y-67474615D01*
X224143922Y-66928815D01*
X223726185Y-66511078D01*
X223180385Y-66285000D01*
X222589615Y-66285000D01*
X222043815Y-66511078D01*
X221626078Y-66928815D01*
X221400000Y-67474615D01*
X204077094Y-67474615D01*
X205746710Y-65805000D01*
X205945874Y-65805000D01*
X206326280Y-65647431D01*
X206617431Y-65356280D01*
X206775000Y-64975874D01*
X206775000Y-64564126D01*
X206737924Y-64474615D01*
X221400000Y-64474615D01*
X221400000Y-65065385D01*
X221626078Y-65611185D01*
X222043815Y-66028922D01*
X222589615Y-66255000D01*
X223180385Y-66255000D01*
X223726185Y-66028922D01*
X224143922Y-65611185D01*
X224370000Y-65065385D01*
X224370000Y-64474615D01*
X224143922Y-63928815D01*
X223726185Y-63511078D01*
X223180385Y-63285000D01*
X222589615Y-63285000D01*
X222043815Y-63511078D01*
X221626078Y-63928815D01*
X221400000Y-64474615D01*
X206737924Y-64474615D01*
X206617431Y-64183720D01*
X206326280Y-63892569D01*
X205945874Y-63735000D01*
X205534126Y-63735000D01*
X205153720Y-63892569D01*
X204862569Y-64183720D01*
X204705000Y-64564126D01*
X204705000Y-64763290D01*
X199084891Y-70383400D01*
X191227111Y-70383400D01*
X191086280Y-70242569D01*
X190705874Y-70085000D01*
X190298440Y-70085000D01*
X190298440Y-68170999D01*
X190230127Y-67827564D01*
X190035586Y-67536414D01*
X189744436Y-67341873D01*
X189401001Y-67273560D01*
X188550999Y-67273560D01*
X188207564Y-67341873D01*
X187916414Y-67536414D01*
X187721873Y-67827564D01*
X187653560Y-68170999D01*
X184486000Y-68170999D01*
X184486000Y-67794690D01*
X184389327Y-67561301D01*
X184210698Y-67382673D01*
X183977309Y-67286000D01*
X183461750Y-67286000D01*
X183303000Y-67444750D01*
X183049000Y-67444750D01*
X182890250Y-67286000D01*
X182374691Y-67286000D01*
X182170440Y-67370604D01*
X182170440Y-65595685D01*
X182407564Y-65754127D01*
X182750999Y-65822440D01*
X183601001Y-65822440D01*
X183944436Y-65754127D01*
X184235586Y-65559586D01*
X184430127Y-65268436D01*
X184498440Y-64925001D01*
X184498440Y-62074999D01*
X187653560Y-62074999D01*
X187653560Y-64925001D01*
X187721873Y-65268436D01*
X187916414Y-65559586D01*
X188207564Y-65754127D01*
X188550999Y-65822440D01*
X189401001Y-65822440D01*
X189744436Y-65754127D01*
X190035586Y-65559586D01*
X190230127Y-65268436D01*
X190298440Y-64925001D01*
X190298440Y-62074999D01*
X190230127Y-61731564D01*
X190035586Y-61440414D01*
X189744436Y-61245873D01*
X189401001Y-61177560D01*
X188550999Y-61177560D01*
X188207564Y-61245873D01*
X187916414Y-61440414D01*
X187721873Y-61731564D01*
X187653560Y-62074999D01*
X184498440Y-62074999D01*
X184430127Y-61731564D01*
X184235586Y-61440414D01*
X183944436Y-61245873D01*
X183601001Y-61177560D01*
X182750999Y-61177560D01*
X182407564Y-61245873D01*
X182170440Y-61404315D01*
X182170440Y-60007685D01*
X182407564Y-60166127D01*
X182750999Y-60234440D01*
X183601001Y-60234440D01*
X183944436Y-60166127D01*
X184235586Y-59971586D01*
X184430127Y-59680436D01*
X184498440Y-59337001D01*
X184498440Y-56486999D01*
X187653560Y-56486999D01*
X187653560Y-59337001D01*
X187721873Y-59680436D01*
X187916414Y-59971586D01*
X188207564Y-60166127D01*
X188550999Y-60234440D01*
X189401001Y-60234440D01*
X189744436Y-60166127D01*
X190035586Y-59971586D01*
X190230127Y-59680436D01*
X190298440Y-59337001D01*
X190298440Y-56486999D01*
X190230127Y-56143564D01*
X190035586Y-55852414D01*
X189744436Y-55657873D01*
X189401001Y-55589560D01*
X188550999Y-55589560D01*
X188207564Y-55657873D01*
X187916414Y-55852414D01*
X187721873Y-56143564D01*
X187653560Y-56486999D01*
X184498440Y-56486999D01*
X184430127Y-56143564D01*
X184235586Y-55852414D01*
X183944436Y-55657873D01*
X183601001Y-55589560D01*
X182750999Y-55589560D01*
X182407564Y-55657873D01*
X182170440Y-55816315D01*
X182170440Y-54419685D01*
X182407564Y-54578127D01*
X182750999Y-54646440D01*
X183601001Y-54646440D01*
X183944436Y-54578127D01*
X184235586Y-54383586D01*
X184430127Y-54092436D01*
X184498440Y-53749001D01*
X184498440Y-50898999D01*
X187653560Y-50898999D01*
X187653560Y-53749001D01*
X187721873Y-54092436D01*
X187916414Y-54383586D01*
X188207564Y-54578127D01*
X188550999Y-54646440D01*
X189401001Y-54646440D01*
X189744436Y-54578127D01*
X190035586Y-54383586D01*
X190230127Y-54092436D01*
X190298440Y-53749001D01*
X190298440Y-50898999D01*
X190230127Y-50555564D01*
X190035586Y-50264414D01*
X189744436Y-50069873D01*
X189401001Y-50001560D01*
X188550999Y-50001560D01*
X188207564Y-50069873D01*
X187916414Y-50264414D01*
X187721873Y-50555564D01*
X187653560Y-50898999D01*
X184498440Y-50898999D01*
X184430127Y-50555564D01*
X184235586Y-50264414D01*
X183944436Y-50069873D01*
X183601001Y-50001560D01*
X182750999Y-50001560D01*
X182407564Y-50069873D01*
X182116414Y-50264414D01*
X181921873Y-50555564D01*
X181879120Y-50770500D01*
X172052143Y-50770500D01*
X171936529Y-50597471D01*
X171478400Y-50291359D01*
X171074407Y-50211000D01*
X170301593Y-50211000D01*
X169897600Y-50291359D01*
X169439471Y-50597471D01*
X169133359Y-51055600D01*
X169025867Y-51596000D01*
X168350000Y-51596000D01*
X168350000Y-49667943D01*
X168502234Y-49731000D01*
X168953766Y-49731000D01*
X169370926Y-49558207D01*
X169690207Y-49238926D01*
X169863000Y-48821766D01*
X169863000Y-48689126D01*
X206610000Y-48689126D01*
X206610000Y-49100874D01*
X206767569Y-49481280D01*
X207058720Y-49772431D01*
X207439126Y-49930000D01*
X207638291Y-49930000D01*
X208515000Y-50806710D01*
X208515000Y-51005874D01*
X208672569Y-51386280D01*
X208963720Y-51677431D01*
X209344126Y-51835000D01*
X209755874Y-51835000D01*
X210136280Y-51677431D01*
X210427431Y-51386280D01*
X210585000Y-51005874D01*
X210585000Y-50594126D01*
X210427431Y-50213720D01*
X210136280Y-49922569D01*
X209755874Y-49765000D01*
X209556710Y-49765000D01*
X208680000Y-48888291D01*
X208680000Y-48689126D01*
X208522431Y-48308720D01*
X208231280Y-48017569D01*
X207850874Y-47860000D01*
X207439126Y-47860000D01*
X207058720Y-48017569D01*
X206767569Y-48308720D01*
X206610000Y-48689126D01*
X169863000Y-48689126D01*
X169863000Y-48370234D01*
X169690207Y-47953074D01*
X169633133Y-47896000D01*
X169690207Y-47838926D01*
X169863000Y-47421766D01*
X169863000Y-46970234D01*
X169690207Y-46553074D01*
X169370926Y-46233793D01*
X168953766Y-46061000D01*
X168502234Y-46061000D01*
X168350000Y-46124057D01*
X168350000Y-35196000D01*
X169025867Y-35196000D01*
X169133359Y-35736400D01*
X169439471Y-36194529D01*
X169897600Y-36500641D01*
X170301593Y-36581000D01*
X171074407Y-36581000D01*
X171478400Y-36500641D01*
X171936529Y-36194529D01*
X172052143Y-36021500D01*
X181853560Y-36021500D01*
X181853560Y-36385315D01*
X181616436Y-36226873D01*
X181273001Y-36158560D01*
X180422999Y-36158560D01*
X180079564Y-36226873D01*
X179788414Y-36421414D01*
X179593873Y-36712564D01*
X179525560Y-37055999D01*
X179525560Y-39906001D01*
X179593873Y-40249436D01*
X179674766Y-40370500D01*
X176221234Y-40370500D01*
X176302127Y-40249436D01*
X176370440Y-39906001D01*
X176370440Y-37055999D01*
X176302127Y-36712564D01*
X176107586Y-36421414D01*
X175816436Y-36226873D01*
X175473001Y-36158560D01*
X174622999Y-36158560D01*
X174279564Y-36226873D01*
X173988414Y-36421414D01*
X173793873Y-36712564D01*
X173725560Y-37055999D01*
X173725560Y-37370500D01*
X172052143Y-37370500D01*
X171936529Y-37197471D01*
X171478400Y-36891359D01*
X171074407Y-36811000D01*
X170301593Y-36811000D01*
X169897600Y-36891359D01*
X169439471Y-37197471D01*
X169133359Y-37655600D01*
X169025867Y-38196000D01*
X169133359Y-38736400D01*
X169439471Y-39194529D01*
X169897600Y-39500641D01*
X170301593Y-39581000D01*
X171074407Y-39581000D01*
X171478400Y-39500641D01*
X171936529Y-39194529D01*
X172052143Y-39021500D01*
X173725560Y-39021500D01*
X173725560Y-39906001D01*
X173793873Y-40249436D01*
X173874766Y-40370500D01*
X172052143Y-40370500D01*
X171936529Y-40197471D01*
X171478400Y-39891359D01*
X171074407Y-39811000D01*
X170301593Y-39811000D01*
X169897600Y-39891359D01*
X169439471Y-40197471D01*
X169133359Y-40655600D01*
X169025867Y-41196000D01*
X169133359Y-41736400D01*
X169439471Y-42194529D01*
X169897600Y-42500641D01*
X170301593Y-42581000D01*
X171074407Y-42581000D01*
X171478400Y-42500641D01*
X171936529Y-42194529D01*
X172052143Y-42021500D01*
X174160394Y-42021500D01*
X173988414Y-42136414D01*
X173793873Y-42427564D01*
X173725560Y-42770999D01*
X173725560Y-43370500D01*
X172320422Y-43370500D01*
X172286157Y-43198235D01*
X172145809Y-42988191D01*
X171935765Y-42847843D01*
X171688000Y-42798560D01*
X169688000Y-42798560D01*
X169440235Y-42847843D01*
X169230191Y-42988191D01*
X169089843Y-43198235D01*
X169040560Y-43446000D01*
X169040560Y-44946000D01*
X169089843Y-45193765D01*
X169230191Y-45403809D01*
X169440235Y-45544157D01*
X169688000Y-45593440D01*
X171688000Y-45593440D01*
X171935765Y-45544157D01*
X172145809Y-45403809D01*
X172286157Y-45193765D01*
X172320422Y-45021500D01*
X173725560Y-45021500D01*
X173725560Y-45621001D01*
X173793873Y-45964436D01*
X173988414Y-46255586D01*
X174279564Y-46450127D01*
X174622999Y-46518440D01*
X175473001Y-46518440D01*
X175816436Y-46450127D01*
X176107586Y-46255586D01*
X176302127Y-45964436D01*
X176370440Y-45621001D01*
X176370440Y-42770999D01*
X176302127Y-42427564D01*
X176107586Y-42136414D01*
X175935606Y-42021500D01*
X179960394Y-42021500D01*
X179788414Y-42136414D01*
X179593873Y-42427564D01*
X179525560Y-42770999D01*
X179525560Y-45621001D01*
X179593873Y-45964436D01*
X179788414Y-46255586D01*
X180079564Y-46450127D01*
X180422999Y-46518440D01*
X181273001Y-46518440D01*
X181616436Y-46450127D01*
X181907586Y-46255586D01*
X182102127Y-45964436D01*
X182170440Y-45621001D01*
X182170440Y-43243685D01*
X182407564Y-43402127D01*
X182750999Y-43470440D01*
X183601001Y-43470440D01*
X183944436Y-43402127D01*
X184235586Y-43207586D01*
X184430127Y-42916436D01*
X184498440Y-42573001D01*
X184498440Y-39722999D01*
X187653560Y-39722999D01*
X187653560Y-42573001D01*
X187721873Y-42916436D01*
X187916414Y-43207586D01*
X188207564Y-43402127D01*
X188550999Y-43470440D01*
X189401001Y-43470440D01*
X189744436Y-43402127D01*
X190035586Y-43207586D01*
X190230127Y-42916436D01*
X190298440Y-42573001D01*
X190298440Y-39722999D01*
X190230127Y-39379564D01*
X190035586Y-39088414D01*
X189744436Y-38893873D01*
X189401001Y-38825560D01*
X188550999Y-38825560D01*
X188207564Y-38893873D01*
X187916414Y-39088414D01*
X187721873Y-39379564D01*
X187653560Y-39722999D01*
X184498440Y-39722999D01*
X184430127Y-39379564D01*
X184235586Y-39088414D01*
X183944436Y-38893873D01*
X183601001Y-38825560D01*
X182750999Y-38825560D01*
X182407564Y-38893873D01*
X182170440Y-39052315D01*
X182170440Y-37147685D01*
X182407564Y-37306127D01*
X182750999Y-37374440D01*
X183601001Y-37374440D01*
X183944436Y-37306127D01*
X184235586Y-37111586D01*
X184430127Y-36820436D01*
X184498440Y-36477001D01*
X184498440Y-33626999D01*
X187653560Y-33626999D01*
X187653560Y-36477001D01*
X187721873Y-36820436D01*
X187916414Y-37111586D01*
X188207564Y-37306127D01*
X188550999Y-37374440D01*
X189401001Y-37374440D01*
X189744436Y-37306127D01*
X190035586Y-37111586D01*
X190230127Y-36820436D01*
X190298440Y-36477001D01*
X190298440Y-34542126D01*
X207005000Y-34542126D01*
X207005000Y-34953874D01*
X207162569Y-35334280D01*
X207303400Y-35475111D01*
X207303401Y-45996493D01*
X207288971Y-46069038D01*
X207346139Y-46356444D01*
X207467849Y-46538596D01*
X207467852Y-46538599D01*
X207508943Y-46600096D01*
X207570440Y-46641187D01*
X211100962Y-50171710D01*
X211100962Y-50370874D01*
X211258531Y-50751280D01*
X211549682Y-51042431D01*
X211930088Y-51200000D01*
X212341836Y-51200000D01*
X212722242Y-51042431D01*
X213013393Y-50751280D01*
X213170962Y-50370874D01*
X213170962Y-49959126D01*
X213013393Y-49578720D01*
X212722242Y-49287569D01*
X212341836Y-49130000D01*
X212142672Y-49130000D01*
X208776600Y-45763929D01*
X208776600Y-45719104D01*
X211485022Y-45719104D01*
X211485022Y-46130852D01*
X211642591Y-46511258D01*
X211933742Y-46802409D01*
X212314148Y-46959978D01*
X212441471Y-46959978D01*
X215112600Y-49631108D01*
X215112601Y-55838688D01*
X215022569Y-55928720D01*
X214865000Y-56309126D01*
X214865000Y-56720874D01*
X215022569Y-57101280D01*
X215313720Y-57392431D01*
X215694126Y-57550000D01*
X216105874Y-57550000D01*
X216486280Y-57392431D01*
X216777431Y-57101280D01*
X216935000Y-56720874D01*
X216935000Y-56309126D01*
X216777431Y-55928720D01*
X216687400Y-55838689D01*
X216687400Y-54774615D01*
X221400000Y-54774615D01*
X221400000Y-55365385D01*
X221626078Y-55911185D01*
X222043815Y-56328922D01*
X222589615Y-56555000D01*
X223180385Y-56555000D01*
X223726185Y-56328922D01*
X224143922Y-55911185D01*
X224370000Y-55365385D01*
X224370000Y-54774615D01*
X224143922Y-54228815D01*
X223726185Y-53811078D01*
X223180385Y-53585000D01*
X222589615Y-53585000D01*
X222043815Y-53811078D01*
X221626078Y-54228815D01*
X221400000Y-54774615D01*
X216687400Y-54774615D01*
X216687400Y-51774615D01*
X221400000Y-51774615D01*
X221400000Y-52365385D01*
X221626078Y-52911185D01*
X222043815Y-53328922D01*
X222589615Y-53555000D01*
X223180385Y-53555000D01*
X223726185Y-53328922D01*
X224143922Y-52911185D01*
X224370000Y-52365385D01*
X224370000Y-51774615D01*
X224143922Y-51228815D01*
X223726185Y-50811078D01*
X223180385Y-50585000D01*
X222589615Y-50585000D01*
X222043815Y-50811078D01*
X221626078Y-51228815D01*
X221400000Y-51774615D01*
X216687400Y-51774615D01*
X216687400Y-49382507D01*
X216702826Y-49304956D01*
X216668025Y-49130000D01*
X216641715Y-48997728D01*
X216467684Y-48737272D01*
X216401938Y-48693342D01*
X213555022Y-45846427D01*
X213555022Y-45719104D01*
X213397453Y-45338698D01*
X213106302Y-45047547D01*
X212725896Y-44889978D01*
X212314148Y-44889978D01*
X211933742Y-45047547D01*
X211642591Y-45338698D01*
X211485022Y-45719104D01*
X208776600Y-45719104D01*
X208776600Y-35475111D01*
X208917431Y-35334280D01*
X209075000Y-34953874D01*
X209075000Y-34542126D01*
X208917431Y-34161720D01*
X208626280Y-33870569D01*
X208245874Y-33713000D01*
X207834126Y-33713000D01*
X207453720Y-33870569D01*
X207162569Y-34161720D01*
X207005000Y-34542126D01*
X190298440Y-34542126D01*
X190298440Y-33626999D01*
X190230127Y-33283564D01*
X190035586Y-32992414D01*
X189744436Y-32797873D01*
X189401001Y-32729560D01*
X188550999Y-32729560D01*
X188207564Y-32797873D01*
X187916414Y-32992414D01*
X187721873Y-33283564D01*
X187653560Y-33626999D01*
X184498440Y-33626999D01*
X184430127Y-33283564D01*
X184235586Y-32992414D01*
X183944436Y-32797873D01*
X183601001Y-32729560D01*
X182750999Y-32729560D01*
X182407564Y-32797873D01*
X182170440Y-32956315D01*
X182170440Y-30578999D01*
X182102127Y-30235564D01*
X181907586Y-29944414D01*
X181616436Y-29749873D01*
X181273001Y-29681560D01*
X180422999Y-29681560D01*
X180079564Y-29749873D01*
X179788414Y-29944414D01*
X179593873Y-30235564D01*
X179525560Y-30578999D01*
X179525560Y-33429001D01*
X179593873Y-33772436D01*
X179788414Y-34063586D01*
X180079564Y-34258127D01*
X180422999Y-34326440D01*
X181273001Y-34326440D01*
X181616436Y-34258127D01*
X181853560Y-34099685D01*
X181853560Y-34370500D01*
X172052143Y-34370500D01*
X171936529Y-34197471D01*
X171478400Y-33891359D01*
X171074407Y-33811000D01*
X170301593Y-33811000D01*
X169897600Y-33891359D01*
X169439471Y-34197471D01*
X169133359Y-34655600D01*
X169025867Y-35196000D01*
X168350000Y-35196000D01*
X168350000Y-32196000D01*
X169025867Y-32196000D01*
X169133359Y-32736400D01*
X169439471Y-33194529D01*
X169897600Y-33500641D01*
X170301593Y-33581000D01*
X171074407Y-33581000D01*
X171478400Y-33500641D01*
X171936529Y-33194529D01*
X172052143Y-33021500D01*
X173725560Y-33021500D01*
X173725560Y-33429001D01*
X173793873Y-33772436D01*
X173988414Y-34063586D01*
X174279564Y-34258127D01*
X174622999Y-34326440D01*
X175473001Y-34326440D01*
X175816436Y-34258127D01*
X176107586Y-34063586D01*
X176302127Y-33772436D01*
X176370440Y-33429001D01*
X176370440Y-30578999D01*
X176302127Y-30235564D01*
X176107586Y-29944414D01*
X175816436Y-29749873D01*
X175473001Y-29681560D01*
X174622999Y-29681560D01*
X174279564Y-29749873D01*
X173988414Y-29944414D01*
X173793873Y-30235564D01*
X173725560Y-30578999D01*
X173725560Y-31370500D01*
X172052143Y-31370500D01*
X171936529Y-31197471D01*
X171478400Y-30891359D01*
X171074407Y-30811000D01*
X170301593Y-30811000D01*
X169897600Y-30891359D01*
X169439471Y-31197471D01*
X169133359Y-31655600D01*
X169025867Y-32196000D01*
X168350000Y-32196000D01*
X168350000Y-29196000D01*
X169025867Y-29196000D01*
X169133359Y-29736400D01*
X169439471Y-30194529D01*
X169897600Y-30500641D01*
X170301593Y-30581000D01*
X171074407Y-30581000D01*
X171478400Y-30500641D01*
X171936529Y-30194529D01*
X172242641Y-29736400D01*
X172350133Y-29196000D01*
X172242641Y-28655600D01*
X171936529Y-28197471D01*
X171478400Y-27891359D01*
X171074407Y-27811000D01*
X170301593Y-27811000D01*
X169897600Y-27891359D01*
X169439471Y-28197471D01*
X169133359Y-28655600D01*
X169025867Y-29196000D01*
X168350000Y-29196000D01*
X168350000Y-27267943D01*
X168502234Y-27331000D01*
X168953766Y-27331000D01*
X169370926Y-27158207D01*
X169690207Y-26838926D01*
X169863000Y-26421766D01*
X169863000Y-25970234D01*
X169690207Y-25553074D01*
X169370926Y-25233793D01*
X168953766Y-25061000D01*
X168502234Y-25061000D01*
X168350000Y-25124057D01*
X168350000Y-23816105D01*
X168785209Y-24216300D01*
X169483904Y-24572303D01*
X170252598Y-24727299D01*
X171034657Y-24669868D01*
X171772462Y-24404242D01*
X172411657Y-23949990D01*
X172905147Y-23340580D01*
X173216577Y-22620909D01*
X173323000Y-21844000D01*
X173322366Y-21783497D01*
X173199696Y-21008987D01*
X172873263Y-20295996D01*
X172420311Y-19760000D01*
X221303802Y-19760000D01*
X221001910Y-20049504D01*
G04 #@! TD*
M02*
