G04 #@! TF.GenerationSoftware,KiCad,Pcbnew,(5.0.0)*
G04 #@! TF.CreationDate,2019-01-26T22:59:54-06:00*
G04 #@! TF.ProjectId,BPSVoltage,425053566F6C746167652E6B69636164,rev?*
G04 #@! TF.SameCoordinates,Original*
G04 #@! TF.FileFunction,Soldermask,Bot*
G04 #@! TF.FilePolarity,Negative*
%FSLAX46Y46*%
G04 Gerber Fmt 4.6, Leading zero omitted, Abs format (unit mm)*
G04 Created by KiCad (PCBNEW (5.0.0)) date 01/26/19 22:59:54*
%MOMM*%
%LPD*%
G01*
G04 APERTURE LIST*
%ADD10C,1.400000*%
%ADD11R,2.400000X1.900000*%
%ADD12O,2.400000X1.900000*%
%ADD13C,1.670000*%
%ADD14C,2.100000*%
%ADD15C,0.100000*%
%ADD16C,1.750000*%
G04 APERTURE END LIST*
D10*
G04 #@! TO.C,J4*
X168728000Y-72596000D03*
X168728000Y-48596000D03*
D11*
X170688000Y-69596000D03*
D12*
X170688000Y-66596000D03*
X170688000Y-63596000D03*
X170688000Y-60596000D03*
X170688000Y-57596000D03*
X170688000Y-54596000D03*
X170688000Y-51596000D03*
G04 #@! TD*
D10*
G04 #@! TO.C,J3*
X168728000Y-47196000D03*
X168728000Y-26196000D03*
D11*
X170688000Y-44196000D03*
D12*
X170688000Y-41196000D03*
X170688000Y-38196000D03*
X170688000Y-35196000D03*
X170688000Y-32196000D03*
X170688000Y-29196000D03*
G04 #@! TD*
D13*
G04 #@! TO.C,J1*
X224845000Y-58070000D03*
D14*
X222885000Y-52070000D03*
X222885000Y-55070000D03*
D13*
X224845000Y-49070000D03*
G04 #@! TD*
G04 #@! TO.C,J2*
X224845000Y-61770000D03*
D14*
X222885000Y-67770000D03*
X222885000Y-64770000D03*
D13*
X224845000Y-70770000D03*
G04 #@! TD*
D15*
G04 #@! TO.C,R4*
G36*
X181430692Y-30130561D02*
X181462151Y-30135227D01*
X181493000Y-30142954D01*
X181522944Y-30153669D01*
X181551694Y-30167266D01*
X181578972Y-30183616D01*
X181604517Y-30202561D01*
X181628081Y-30223919D01*
X181649439Y-30247483D01*
X181668384Y-30273028D01*
X181684734Y-30300306D01*
X181698331Y-30329056D01*
X181709046Y-30359000D01*
X181716773Y-30389849D01*
X181721439Y-30421308D01*
X181723000Y-30453073D01*
X181723000Y-33554927D01*
X181721439Y-33586692D01*
X181716773Y-33618151D01*
X181709046Y-33649000D01*
X181698331Y-33678944D01*
X181684734Y-33707694D01*
X181668384Y-33734972D01*
X181649439Y-33760517D01*
X181628081Y-33784081D01*
X181604517Y-33805439D01*
X181578972Y-33824384D01*
X181551694Y-33840734D01*
X181522944Y-33854331D01*
X181493000Y-33865046D01*
X181462151Y-33872773D01*
X181430692Y-33877439D01*
X181398927Y-33879000D01*
X180297073Y-33879000D01*
X180265308Y-33877439D01*
X180233849Y-33872773D01*
X180203000Y-33865046D01*
X180173056Y-33854331D01*
X180144306Y-33840734D01*
X180117028Y-33824384D01*
X180091483Y-33805439D01*
X180067919Y-33784081D01*
X180046561Y-33760517D01*
X180027616Y-33734972D01*
X180011266Y-33707694D01*
X179997669Y-33678944D01*
X179986954Y-33649000D01*
X179979227Y-33618151D01*
X179974561Y-33586692D01*
X179973000Y-33554927D01*
X179973000Y-30453073D01*
X179974561Y-30421308D01*
X179979227Y-30389849D01*
X179986954Y-30359000D01*
X179997669Y-30329056D01*
X180011266Y-30300306D01*
X180027616Y-30273028D01*
X180046561Y-30247483D01*
X180067919Y-30223919D01*
X180091483Y-30202561D01*
X180117028Y-30183616D01*
X180144306Y-30167266D01*
X180173056Y-30153669D01*
X180203000Y-30142954D01*
X180233849Y-30135227D01*
X180265308Y-30130561D01*
X180297073Y-30129000D01*
X181398927Y-30129000D01*
X181430692Y-30130561D01*
X181430692Y-30130561D01*
G37*
D16*
X180848000Y-32004000D03*
D15*
G36*
X175630692Y-30130561D02*
X175662151Y-30135227D01*
X175693000Y-30142954D01*
X175722944Y-30153669D01*
X175751694Y-30167266D01*
X175778972Y-30183616D01*
X175804517Y-30202561D01*
X175828081Y-30223919D01*
X175849439Y-30247483D01*
X175868384Y-30273028D01*
X175884734Y-30300306D01*
X175898331Y-30329056D01*
X175909046Y-30359000D01*
X175916773Y-30389849D01*
X175921439Y-30421308D01*
X175923000Y-30453073D01*
X175923000Y-33554927D01*
X175921439Y-33586692D01*
X175916773Y-33618151D01*
X175909046Y-33649000D01*
X175898331Y-33678944D01*
X175884734Y-33707694D01*
X175868384Y-33734972D01*
X175849439Y-33760517D01*
X175828081Y-33784081D01*
X175804517Y-33805439D01*
X175778972Y-33824384D01*
X175751694Y-33840734D01*
X175722944Y-33854331D01*
X175693000Y-33865046D01*
X175662151Y-33872773D01*
X175630692Y-33877439D01*
X175598927Y-33879000D01*
X174497073Y-33879000D01*
X174465308Y-33877439D01*
X174433849Y-33872773D01*
X174403000Y-33865046D01*
X174373056Y-33854331D01*
X174344306Y-33840734D01*
X174317028Y-33824384D01*
X174291483Y-33805439D01*
X174267919Y-33784081D01*
X174246561Y-33760517D01*
X174227616Y-33734972D01*
X174211266Y-33707694D01*
X174197669Y-33678944D01*
X174186954Y-33649000D01*
X174179227Y-33618151D01*
X174174561Y-33586692D01*
X174173000Y-33554927D01*
X174173000Y-30453073D01*
X174174561Y-30421308D01*
X174179227Y-30389849D01*
X174186954Y-30359000D01*
X174197669Y-30329056D01*
X174211266Y-30300306D01*
X174227616Y-30273028D01*
X174246561Y-30247483D01*
X174267919Y-30223919D01*
X174291483Y-30202561D01*
X174317028Y-30183616D01*
X174344306Y-30167266D01*
X174373056Y-30153669D01*
X174403000Y-30142954D01*
X174433849Y-30135227D01*
X174465308Y-30130561D01*
X174497073Y-30129000D01*
X175598927Y-30129000D01*
X175630692Y-30130561D01*
X175630692Y-30130561D01*
G37*
D16*
X175048000Y-32004000D03*
G04 #@! TD*
D15*
G04 #@! TO.C,R6*
G36*
X183758692Y-33178561D02*
X183790151Y-33183227D01*
X183821000Y-33190954D01*
X183850944Y-33201669D01*
X183879694Y-33215266D01*
X183906972Y-33231616D01*
X183932517Y-33250561D01*
X183956081Y-33271919D01*
X183977439Y-33295483D01*
X183996384Y-33321028D01*
X184012734Y-33348306D01*
X184026331Y-33377056D01*
X184037046Y-33407000D01*
X184044773Y-33437849D01*
X184049439Y-33469308D01*
X184051000Y-33501073D01*
X184051000Y-36602927D01*
X184049439Y-36634692D01*
X184044773Y-36666151D01*
X184037046Y-36697000D01*
X184026331Y-36726944D01*
X184012734Y-36755694D01*
X183996384Y-36782972D01*
X183977439Y-36808517D01*
X183956081Y-36832081D01*
X183932517Y-36853439D01*
X183906972Y-36872384D01*
X183879694Y-36888734D01*
X183850944Y-36902331D01*
X183821000Y-36913046D01*
X183790151Y-36920773D01*
X183758692Y-36925439D01*
X183726927Y-36927000D01*
X182625073Y-36927000D01*
X182593308Y-36925439D01*
X182561849Y-36920773D01*
X182531000Y-36913046D01*
X182501056Y-36902331D01*
X182472306Y-36888734D01*
X182445028Y-36872384D01*
X182419483Y-36853439D01*
X182395919Y-36832081D01*
X182374561Y-36808517D01*
X182355616Y-36782972D01*
X182339266Y-36755694D01*
X182325669Y-36726944D01*
X182314954Y-36697000D01*
X182307227Y-36666151D01*
X182302561Y-36634692D01*
X182301000Y-36602927D01*
X182301000Y-33501073D01*
X182302561Y-33469308D01*
X182307227Y-33437849D01*
X182314954Y-33407000D01*
X182325669Y-33377056D01*
X182339266Y-33348306D01*
X182355616Y-33321028D01*
X182374561Y-33295483D01*
X182395919Y-33271919D01*
X182419483Y-33250561D01*
X182445028Y-33231616D01*
X182472306Y-33215266D01*
X182501056Y-33201669D01*
X182531000Y-33190954D01*
X182561849Y-33183227D01*
X182593308Y-33178561D01*
X182625073Y-33177000D01*
X183726927Y-33177000D01*
X183758692Y-33178561D01*
X183758692Y-33178561D01*
G37*
D16*
X183176000Y-35052000D03*
D15*
G36*
X189558692Y-33178561D02*
X189590151Y-33183227D01*
X189621000Y-33190954D01*
X189650944Y-33201669D01*
X189679694Y-33215266D01*
X189706972Y-33231616D01*
X189732517Y-33250561D01*
X189756081Y-33271919D01*
X189777439Y-33295483D01*
X189796384Y-33321028D01*
X189812734Y-33348306D01*
X189826331Y-33377056D01*
X189837046Y-33407000D01*
X189844773Y-33437849D01*
X189849439Y-33469308D01*
X189851000Y-33501073D01*
X189851000Y-36602927D01*
X189849439Y-36634692D01*
X189844773Y-36666151D01*
X189837046Y-36697000D01*
X189826331Y-36726944D01*
X189812734Y-36755694D01*
X189796384Y-36782972D01*
X189777439Y-36808517D01*
X189756081Y-36832081D01*
X189732517Y-36853439D01*
X189706972Y-36872384D01*
X189679694Y-36888734D01*
X189650944Y-36902331D01*
X189621000Y-36913046D01*
X189590151Y-36920773D01*
X189558692Y-36925439D01*
X189526927Y-36927000D01*
X188425073Y-36927000D01*
X188393308Y-36925439D01*
X188361849Y-36920773D01*
X188331000Y-36913046D01*
X188301056Y-36902331D01*
X188272306Y-36888734D01*
X188245028Y-36872384D01*
X188219483Y-36853439D01*
X188195919Y-36832081D01*
X188174561Y-36808517D01*
X188155616Y-36782972D01*
X188139266Y-36755694D01*
X188125669Y-36726944D01*
X188114954Y-36697000D01*
X188107227Y-36666151D01*
X188102561Y-36634692D01*
X188101000Y-36602927D01*
X188101000Y-33501073D01*
X188102561Y-33469308D01*
X188107227Y-33437849D01*
X188114954Y-33407000D01*
X188125669Y-33377056D01*
X188139266Y-33348306D01*
X188155616Y-33321028D01*
X188174561Y-33295483D01*
X188195919Y-33271919D01*
X188219483Y-33250561D01*
X188245028Y-33231616D01*
X188272306Y-33215266D01*
X188301056Y-33201669D01*
X188331000Y-33190954D01*
X188361849Y-33183227D01*
X188393308Y-33178561D01*
X188425073Y-33177000D01*
X189526927Y-33177000D01*
X189558692Y-33178561D01*
X189558692Y-33178561D01*
G37*
D16*
X188976000Y-35052000D03*
G04 #@! TD*
D15*
G04 #@! TO.C,R8*
G36*
X181430692Y-36607561D02*
X181462151Y-36612227D01*
X181493000Y-36619954D01*
X181522944Y-36630669D01*
X181551694Y-36644266D01*
X181578972Y-36660616D01*
X181604517Y-36679561D01*
X181628081Y-36700919D01*
X181649439Y-36724483D01*
X181668384Y-36750028D01*
X181684734Y-36777306D01*
X181698331Y-36806056D01*
X181709046Y-36836000D01*
X181716773Y-36866849D01*
X181721439Y-36898308D01*
X181723000Y-36930073D01*
X181723000Y-40031927D01*
X181721439Y-40063692D01*
X181716773Y-40095151D01*
X181709046Y-40126000D01*
X181698331Y-40155944D01*
X181684734Y-40184694D01*
X181668384Y-40211972D01*
X181649439Y-40237517D01*
X181628081Y-40261081D01*
X181604517Y-40282439D01*
X181578972Y-40301384D01*
X181551694Y-40317734D01*
X181522944Y-40331331D01*
X181493000Y-40342046D01*
X181462151Y-40349773D01*
X181430692Y-40354439D01*
X181398927Y-40356000D01*
X180297073Y-40356000D01*
X180265308Y-40354439D01*
X180233849Y-40349773D01*
X180203000Y-40342046D01*
X180173056Y-40331331D01*
X180144306Y-40317734D01*
X180117028Y-40301384D01*
X180091483Y-40282439D01*
X180067919Y-40261081D01*
X180046561Y-40237517D01*
X180027616Y-40211972D01*
X180011266Y-40184694D01*
X179997669Y-40155944D01*
X179986954Y-40126000D01*
X179979227Y-40095151D01*
X179974561Y-40063692D01*
X179973000Y-40031927D01*
X179973000Y-36930073D01*
X179974561Y-36898308D01*
X179979227Y-36866849D01*
X179986954Y-36836000D01*
X179997669Y-36806056D01*
X180011266Y-36777306D01*
X180027616Y-36750028D01*
X180046561Y-36724483D01*
X180067919Y-36700919D01*
X180091483Y-36679561D01*
X180117028Y-36660616D01*
X180144306Y-36644266D01*
X180173056Y-36630669D01*
X180203000Y-36619954D01*
X180233849Y-36612227D01*
X180265308Y-36607561D01*
X180297073Y-36606000D01*
X181398927Y-36606000D01*
X181430692Y-36607561D01*
X181430692Y-36607561D01*
G37*
D16*
X180848000Y-38481000D03*
D15*
G36*
X175630692Y-36607561D02*
X175662151Y-36612227D01*
X175693000Y-36619954D01*
X175722944Y-36630669D01*
X175751694Y-36644266D01*
X175778972Y-36660616D01*
X175804517Y-36679561D01*
X175828081Y-36700919D01*
X175849439Y-36724483D01*
X175868384Y-36750028D01*
X175884734Y-36777306D01*
X175898331Y-36806056D01*
X175909046Y-36836000D01*
X175916773Y-36866849D01*
X175921439Y-36898308D01*
X175923000Y-36930073D01*
X175923000Y-40031927D01*
X175921439Y-40063692D01*
X175916773Y-40095151D01*
X175909046Y-40126000D01*
X175898331Y-40155944D01*
X175884734Y-40184694D01*
X175868384Y-40211972D01*
X175849439Y-40237517D01*
X175828081Y-40261081D01*
X175804517Y-40282439D01*
X175778972Y-40301384D01*
X175751694Y-40317734D01*
X175722944Y-40331331D01*
X175693000Y-40342046D01*
X175662151Y-40349773D01*
X175630692Y-40354439D01*
X175598927Y-40356000D01*
X174497073Y-40356000D01*
X174465308Y-40354439D01*
X174433849Y-40349773D01*
X174403000Y-40342046D01*
X174373056Y-40331331D01*
X174344306Y-40317734D01*
X174317028Y-40301384D01*
X174291483Y-40282439D01*
X174267919Y-40261081D01*
X174246561Y-40237517D01*
X174227616Y-40211972D01*
X174211266Y-40184694D01*
X174197669Y-40155944D01*
X174186954Y-40126000D01*
X174179227Y-40095151D01*
X174174561Y-40063692D01*
X174173000Y-40031927D01*
X174173000Y-36930073D01*
X174174561Y-36898308D01*
X174179227Y-36866849D01*
X174186954Y-36836000D01*
X174197669Y-36806056D01*
X174211266Y-36777306D01*
X174227616Y-36750028D01*
X174246561Y-36724483D01*
X174267919Y-36700919D01*
X174291483Y-36679561D01*
X174317028Y-36660616D01*
X174344306Y-36644266D01*
X174373056Y-36630669D01*
X174403000Y-36619954D01*
X174433849Y-36612227D01*
X174465308Y-36607561D01*
X174497073Y-36606000D01*
X175598927Y-36606000D01*
X175630692Y-36607561D01*
X175630692Y-36607561D01*
G37*
D16*
X175048000Y-38481000D03*
G04 #@! TD*
D15*
G04 #@! TO.C,R10*
G36*
X183758692Y-39274561D02*
X183790151Y-39279227D01*
X183821000Y-39286954D01*
X183850944Y-39297669D01*
X183879694Y-39311266D01*
X183906972Y-39327616D01*
X183932517Y-39346561D01*
X183956081Y-39367919D01*
X183977439Y-39391483D01*
X183996384Y-39417028D01*
X184012734Y-39444306D01*
X184026331Y-39473056D01*
X184037046Y-39503000D01*
X184044773Y-39533849D01*
X184049439Y-39565308D01*
X184051000Y-39597073D01*
X184051000Y-42698927D01*
X184049439Y-42730692D01*
X184044773Y-42762151D01*
X184037046Y-42793000D01*
X184026331Y-42822944D01*
X184012734Y-42851694D01*
X183996384Y-42878972D01*
X183977439Y-42904517D01*
X183956081Y-42928081D01*
X183932517Y-42949439D01*
X183906972Y-42968384D01*
X183879694Y-42984734D01*
X183850944Y-42998331D01*
X183821000Y-43009046D01*
X183790151Y-43016773D01*
X183758692Y-43021439D01*
X183726927Y-43023000D01*
X182625073Y-43023000D01*
X182593308Y-43021439D01*
X182561849Y-43016773D01*
X182531000Y-43009046D01*
X182501056Y-42998331D01*
X182472306Y-42984734D01*
X182445028Y-42968384D01*
X182419483Y-42949439D01*
X182395919Y-42928081D01*
X182374561Y-42904517D01*
X182355616Y-42878972D01*
X182339266Y-42851694D01*
X182325669Y-42822944D01*
X182314954Y-42793000D01*
X182307227Y-42762151D01*
X182302561Y-42730692D01*
X182301000Y-42698927D01*
X182301000Y-39597073D01*
X182302561Y-39565308D01*
X182307227Y-39533849D01*
X182314954Y-39503000D01*
X182325669Y-39473056D01*
X182339266Y-39444306D01*
X182355616Y-39417028D01*
X182374561Y-39391483D01*
X182395919Y-39367919D01*
X182419483Y-39346561D01*
X182445028Y-39327616D01*
X182472306Y-39311266D01*
X182501056Y-39297669D01*
X182531000Y-39286954D01*
X182561849Y-39279227D01*
X182593308Y-39274561D01*
X182625073Y-39273000D01*
X183726927Y-39273000D01*
X183758692Y-39274561D01*
X183758692Y-39274561D01*
G37*
D16*
X183176000Y-41148000D03*
D15*
G36*
X189558692Y-39274561D02*
X189590151Y-39279227D01*
X189621000Y-39286954D01*
X189650944Y-39297669D01*
X189679694Y-39311266D01*
X189706972Y-39327616D01*
X189732517Y-39346561D01*
X189756081Y-39367919D01*
X189777439Y-39391483D01*
X189796384Y-39417028D01*
X189812734Y-39444306D01*
X189826331Y-39473056D01*
X189837046Y-39503000D01*
X189844773Y-39533849D01*
X189849439Y-39565308D01*
X189851000Y-39597073D01*
X189851000Y-42698927D01*
X189849439Y-42730692D01*
X189844773Y-42762151D01*
X189837046Y-42793000D01*
X189826331Y-42822944D01*
X189812734Y-42851694D01*
X189796384Y-42878972D01*
X189777439Y-42904517D01*
X189756081Y-42928081D01*
X189732517Y-42949439D01*
X189706972Y-42968384D01*
X189679694Y-42984734D01*
X189650944Y-42998331D01*
X189621000Y-43009046D01*
X189590151Y-43016773D01*
X189558692Y-43021439D01*
X189526927Y-43023000D01*
X188425073Y-43023000D01*
X188393308Y-43021439D01*
X188361849Y-43016773D01*
X188331000Y-43009046D01*
X188301056Y-42998331D01*
X188272306Y-42984734D01*
X188245028Y-42968384D01*
X188219483Y-42949439D01*
X188195919Y-42928081D01*
X188174561Y-42904517D01*
X188155616Y-42878972D01*
X188139266Y-42851694D01*
X188125669Y-42822944D01*
X188114954Y-42793000D01*
X188107227Y-42762151D01*
X188102561Y-42730692D01*
X188101000Y-42698927D01*
X188101000Y-39597073D01*
X188102561Y-39565308D01*
X188107227Y-39533849D01*
X188114954Y-39503000D01*
X188125669Y-39473056D01*
X188139266Y-39444306D01*
X188155616Y-39417028D01*
X188174561Y-39391483D01*
X188195919Y-39367919D01*
X188219483Y-39346561D01*
X188245028Y-39327616D01*
X188272306Y-39311266D01*
X188301056Y-39297669D01*
X188331000Y-39286954D01*
X188361849Y-39279227D01*
X188393308Y-39274561D01*
X188425073Y-39273000D01*
X189526927Y-39273000D01*
X189558692Y-39274561D01*
X189558692Y-39274561D01*
G37*
D16*
X188976000Y-41148000D03*
G04 #@! TD*
D15*
G04 #@! TO.C,R12*
G36*
X181430692Y-42322561D02*
X181462151Y-42327227D01*
X181493000Y-42334954D01*
X181522944Y-42345669D01*
X181551694Y-42359266D01*
X181578972Y-42375616D01*
X181604517Y-42394561D01*
X181628081Y-42415919D01*
X181649439Y-42439483D01*
X181668384Y-42465028D01*
X181684734Y-42492306D01*
X181698331Y-42521056D01*
X181709046Y-42551000D01*
X181716773Y-42581849D01*
X181721439Y-42613308D01*
X181723000Y-42645073D01*
X181723000Y-45746927D01*
X181721439Y-45778692D01*
X181716773Y-45810151D01*
X181709046Y-45841000D01*
X181698331Y-45870944D01*
X181684734Y-45899694D01*
X181668384Y-45926972D01*
X181649439Y-45952517D01*
X181628081Y-45976081D01*
X181604517Y-45997439D01*
X181578972Y-46016384D01*
X181551694Y-46032734D01*
X181522944Y-46046331D01*
X181493000Y-46057046D01*
X181462151Y-46064773D01*
X181430692Y-46069439D01*
X181398927Y-46071000D01*
X180297073Y-46071000D01*
X180265308Y-46069439D01*
X180233849Y-46064773D01*
X180203000Y-46057046D01*
X180173056Y-46046331D01*
X180144306Y-46032734D01*
X180117028Y-46016384D01*
X180091483Y-45997439D01*
X180067919Y-45976081D01*
X180046561Y-45952517D01*
X180027616Y-45926972D01*
X180011266Y-45899694D01*
X179997669Y-45870944D01*
X179986954Y-45841000D01*
X179979227Y-45810151D01*
X179974561Y-45778692D01*
X179973000Y-45746927D01*
X179973000Y-42645073D01*
X179974561Y-42613308D01*
X179979227Y-42581849D01*
X179986954Y-42551000D01*
X179997669Y-42521056D01*
X180011266Y-42492306D01*
X180027616Y-42465028D01*
X180046561Y-42439483D01*
X180067919Y-42415919D01*
X180091483Y-42394561D01*
X180117028Y-42375616D01*
X180144306Y-42359266D01*
X180173056Y-42345669D01*
X180203000Y-42334954D01*
X180233849Y-42327227D01*
X180265308Y-42322561D01*
X180297073Y-42321000D01*
X181398927Y-42321000D01*
X181430692Y-42322561D01*
X181430692Y-42322561D01*
G37*
D16*
X180848000Y-44196000D03*
D15*
G36*
X175630692Y-42322561D02*
X175662151Y-42327227D01*
X175693000Y-42334954D01*
X175722944Y-42345669D01*
X175751694Y-42359266D01*
X175778972Y-42375616D01*
X175804517Y-42394561D01*
X175828081Y-42415919D01*
X175849439Y-42439483D01*
X175868384Y-42465028D01*
X175884734Y-42492306D01*
X175898331Y-42521056D01*
X175909046Y-42551000D01*
X175916773Y-42581849D01*
X175921439Y-42613308D01*
X175923000Y-42645073D01*
X175923000Y-45746927D01*
X175921439Y-45778692D01*
X175916773Y-45810151D01*
X175909046Y-45841000D01*
X175898331Y-45870944D01*
X175884734Y-45899694D01*
X175868384Y-45926972D01*
X175849439Y-45952517D01*
X175828081Y-45976081D01*
X175804517Y-45997439D01*
X175778972Y-46016384D01*
X175751694Y-46032734D01*
X175722944Y-46046331D01*
X175693000Y-46057046D01*
X175662151Y-46064773D01*
X175630692Y-46069439D01*
X175598927Y-46071000D01*
X174497073Y-46071000D01*
X174465308Y-46069439D01*
X174433849Y-46064773D01*
X174403000Y-46057046D01*
X174373056Y-46046331D01*
X174344306Y-46032734D01*
X174317028Y-46016384D01*
X174291483Y-45997439D01*
X174267919Y-45976081D01*
X174246561Y-45952517D01*
X174227616Y-45926972D01*
X174211266Y-45899694D01*
X174197669Y-45870944D01*
X174186954Y-45841000D01*
X174179227Y-45810151D01*
X174174561Y-45778692D01*
X174173000Y-45746927D01*
X174173000Y-42645073D01*
X174174561Y-42613308D01*
X174179227Y-42581849D01*
X174186954Y-42551000D01*
X174197669Y-42521056D01*
X174211266Y-42492306D01*
X174227616Y-42465028D01*
X174246561Y-42439483D01*
X174267919Y-42415919D01*
X174291483Y-42394561D01*
X174317028Y-42375616D01*
X174344306Y-42359266D01*
X174373056Y-42345669D01*
X174403000Y-42334954D01*
X174433849Y-42327227D01*
X174465308Y-42322561D01*
X174497073Y-42321000D01*
X175598927Y-42321000D01*
X175630692Y-42322561D01*
X175630692Y-42322561D01*
G37*
D16*
X175048000Y-44196000D03*
G04 #@! TD*
D15*
G04 #@! TO.C,R14*
G36*
X183758692Y-50450561D02*
X183790151Y-50455227D01*
X183821000Y-50462954D01*
X183850944Y-50473669D01*
X183879694Y-50487266D01*
X183906972Y-50503616D01*
X183932517Y-50522561D01*
X183956081Y-50543919D01*
X183977439Y-50567483D01*
X183996384Y-50593028D01*
X184012734Y-50620306D01*
X184026331Y-50649056D01*
X184037046Y-50679000D01*
X184044773Y-50709849D01*
X184049439Y-50741308D01*
X184051000Y-50773073D01*
X184051000Y-53874927D01*
X184049439Y-53906692D01*
X184044773Y-53938151D01*
X184037046Y-53969000D01*
X184026331Y-53998944D01*
X184012734Y-54027694D01*
X183996384Y-54054972D01*
X183977439Y-54080517D01*
X183956081Y-54104081D01*
X183932517Y-54125439D01*
X183906972Y-54144384D01*
X183879694Y-54160734D01*
X183850944Y-54174331D01*
X183821000Y-54185046D01*
X183790151Y-54192773D01*
X183758692Y-54197439D01*
X183726927Y-54199000D01*
X182625073Y-54199000D01*
X182593308Y-54197439D01*
X182561849Y-54192773D01*
X182531000Y-54185046D01*
X182501056Y-54174331D01*
X182472306Y-54160734D01*
X182445028Y-54144384D01*
X182419483Y-54125439D01*
X182395919Y-54104081D01*
X182374561Y-54080517D01*
X182355616Y-54054972D01*
X182339266Y-54027694D01*
X182325669Y-53998944D01*
X182314954Y-53969000D01*
X182307227Y-53938151D01*
X182302561Y-53906692D01*
X182301000Y-53874927D01*
X182301000Y-50773073D01*
X182302561Y-50741308D01*
X182307227Y-50709849D01*
X182314954Y-50679000D01*
X182325669Y-50649056D01*
X182339266Y-50620306D01*
X182355616Y-50593028D01*
X182374561Y-50567483D01*
X182395919Y-50543919D01*
X182419483Y-50522561D01*
X182445028Y-50503616D01*
X182472306Y-50487266D01*
X182501056Y-50473669D01*
X182531000Y-50462954D01*
X182561849Y-50455227D01*
X182593308Y-50450561D01*
X182625073Y-50449000D01*
X183726927Y-50449000D01*
X183758692Y-50450561D01*
X183758692Y-50450561D01*
G37*
D16*
X183176000Y-52324000D03*
D15*
G36*
X189558692Y-50450561D02*
X189590151Y-50455227D01*
X189621000Y-50462954D01*
X189650944Y-50473669D01*
X189679694Y-50487266D01*
X189706972Y-50503616D01*
X189732517Y-50522561D01*
X189756081Y-50543919D01*
X189777439Y-50567483D01*
X189796384Y-50593028D01*
X189812734Y-50620306D01*
X189826331Y-50649056D01*
X189837046Y-50679000D01*
X189844773Y-50709849D01*
X189849439Y-50741308D01*
X189851000Y-50773073D01*
X189851000Y-53874927D01*
X189849439Y-53906692D01*
X189844773Y-53938151D01*
X189837046Y-53969000D01*
X189826331Y-53998944D01*
X189812734Y-54027694D01*
X189796384Y-54054972D01*
X189777439Y-54080517D01*
X189756081Y-54104081D01*
X189732517Y-54125439D01*
X189706972Y-54144384D01*
X189679694Y-54160734D01*
X189650944Y-54174331D01*
X189621000Y-54185046D01*
X189590151Y-54192773D01*
X189558692Y-54197439D01*
X189526927Y-54199000D01*
X188425073Y-54199000D01*
X188393308Y-54197439D01*
X188361849Y-54192773D01*
X188331000Y-54185046D01*
X188301056Y-54174331D01*
X188272306Y-54160734D01*
X188245028Y-54144384D01*
X188219483Y-54125439D01*
X188195919Y-54104081D01*
X188174561Y-54080517D01*
X188155616Y-54054972D01*
X188139266Y-54027694D01*
X188125669Y-53998944D01*
X188114954Y-53969000D01*
X188107227Y-53938151D01*
X188102561Y-53906692D01*
X188101000Y-53874927D01*
X188101000Y-50773073D01*
X188102561Y-50741308D01*
X188107227Y-50709849D01*
X188114954Y-50679000D01*
X188125669Y-50649056D01*
X188139266Y-50620306D01*
X188155616Y-50593028D01*
X188174561Y-50567483D01*
X188195919Y-50543919D01*
X188219483Y-50522561D01*
X188245028Y-50503616D01*
X188272306Y-50487266D01*
X188301056Y-50473669D01*
X188331000Y-50462954D01*
X188361849Y-50455227D01*
X188393308Y-50450561D01*
X188425073Y-50449000D01*
X189526927Y-50449000D01*
X189558692Y-50450561D01*
X189558692Y-50450561D01*
G37*
D16*
X188976000Y-52324000D03*
G04 #@! TD*
D15*
G04 #@! TO.C,R18*
G36*
X181430692Y-52990561D02*
X181462151Y-52995227D01*
X181493000Y-53002954D01*
X181522944Y-53013669D01*
X181551694Y-53027266D01*
X181578972Y-53043616D01*
X181604517Y-53062561D01*
X181628081Y-53083919D01*
X181649439Y-53107483D01*
X181668384Y-53133028D01*
X181684734Y-53160306D01*
X181698331Y-53189056D01*
X181709046Y-53219000D01*
X181716773Y-53249849D01*
X181721439Y-53281308D01*
X181723000Y-53313073D01*
X181723000Y-56414927D01*
X181721439Y-56446692D01*
X181716773Y-56478151D01*
X181709046Y-56509000D01*
X181698331Y-56538944D01*
X181684734Y-56567694D01*
X181668384Y-56594972D01*
X181649439Y-56620517D01*
X181628081Y-56644081D01*
X181604517Y-56665439D01*
X181578972Y-56684384D01*
X181551694Y-56700734D01*
X181522944Y-56714331D01*
X181493000Y-56725046D01*
X181462151Y-56732773D01*
X181430692Y-56737439D01*
X181398927Y-56739000D01*
X180297073Y-56739000D01*
X180265308Y-56737439D01*
X180233849Y-56732773D01*
X180203000Y-56725046D01*
X180173056Y-56714331D01*
X180144306Y-56700734D01*
X180117028Y-56684384D01*
X180091483Y-56665439D01*
X180067919Y-56644081D01*
X180046561Y-56620517D01*
X180027616Y-56594972D01*
X180011266Y-56567694D01*
X179997669Y-56538944D01*
X179986954Y-56509000D01*
X179979227Y-56478151D01*
X179974561Y-56446692D01*
X179973000Y-56414927D01*
X179973000Y-53313073D01*
X179974561Y-53281308D01*
X179979227Y-53249849D01*
X179986954Y-53219000D01*
X179997669Y-53189056D01*
X180011266Y-53160306D01*
X180027616Y-53133028D01*
X180046561Y-53107483D01*
X180067919Y-53083919D01*
X180091483Y-53062561D01*
X180117028Y-53043616D01*
X180144306Y-53027266D01*
X180173056Y-53013669D01*
X180203000Y-53002954D01*
X180233849Y-52995227D01*
X180265308Y-52990561D01*
X180297073Y-52989000D01*
X181398927Y-52989000D01*
X181430692Y-52990561D01*
X181430692Y-52990561D01*
G37*
D16*
X180848000Y-54864000D03*
D15*
G36*
X175630692Y-52990561D02*
X175662151Y-52995227D01*
X175693000Y-53002954D01*
X175722944Y-53013669D01*
X175751694Y-53027266D01*
X175778972Y-53043616D01*
X175804517Y-53062561D01*
X175828081Y-53083919D01*
X175849439Y-53107483D01*
X175868384Y-53133028D01*
X175884734Y-53160306D01*
X175898331Y-53189056D01*
X175909046Y-53219000D01*
X175916773Y-53249849D01*
X175921439Y-53281308D01*
X175923000Y-53313073D01*
X175923000Y-56414927D01*
X175921439Y-56446692D01*
X175916773Y-56478151D01*
X175909046Y-56509000D01*
X175898331Y-56538944D01*
X175884734Y-56567694D01*
X175868384Y-56594972D01*
X175849439Y-56620517D01*
X175828081Y-56644081D01*
X175804517Y-56665439D01*
X175778972Y-56684384D01*
X175751694Y-56700734D01*
X175722944Y-56714331D01*
X175693000Y-56725046D01*
X175662151Y-56732773D01*
X175630692Y-56737439D01*
X175598927Y-56739000D01*
X174497073Y-56739000D01*
X174465308Y-56737439D01*
X174433849Y-56732773D01*
X174403000Y-56725046D01*
X174373056Y-56714331D01*
X174344306Y-56700734D01*
X174317028Y-56684384D01*
X174291483Y-56665439D01*
X174267919Y-56644081D01*
X174246561Y-56620517D01*
X174227616Y-56594972D01*
X174211266Y-56567694D01*
X174197669Y-56538944D01*
X174186954Y-56509000D01*
X174179227Y-56478151D01*
X174174561Y-56446692D01*
X174173000Y-56414927D01*
X174173000Y-53313073D01*
X174174561Y-53281308D01*
X174179227Y-53249849D01*
X174186954Y-53219000D01*
X174197669Y-53189056D01*
X174211266Y-53160306D01*
X174227616Y-53133028D01*
X174246561Y-53107483D01*
X174267919Y-53083919D01*
X174291483Y-53062561D01*
X174317028Y-53043616D01*
X174344306Y-53027266D01*
X174373056Y-53013669D01*
X174403000Y-53002954D01*
X174433849Y-52995227D01*
X174465308Y-52990561D01*
X174497073Y-52989000D01*
X175598927Y-52989000D01*
X175630692Y-52990561D01*
X175630692Y-52990561D01*
G37*
D16*
X175048000Y-54864000D03*
G04 #@! TD*
D15*
G04 #@! TO.C,R21*
G36*
X183758692Y-56038561D02*
X183790151Y-56043227D01*
X183821000Y-56050954D01*
X183850944Y-56061669D01*
X183879694Y-56075266D01*
X183906972Y-56091616D01*
X183932517Y-56110561D01*
X183956081Y-56131919D01*
X183977439Y-56155483D01*
X183996384Y-56181028D01*
X184012734Y-56208306D01*
X184026331Y-56237056D01*
X184037046Y-56267000D01*
X184044773Y-56297849D01*
X184049439Y-56329308D01*
X184051000Y-56361073D01*
X184051000Y-59462927D01*
X184049439Y-59494692D01*
X184044773Y-59526151D01*
X184037046Y-59557000D01*
X184026331Y-59586944D01*
X184012734Y-59615694D01*
X183996384Y-59642972D01*
X183977439Y-59668517D01*
X183956081Y-59692081D01*
X183932517Y-59713439D01*
X183906972Y-59732384D01*
X183879694Y-59748734D01*
X183850944Y-59762331D01*
X183821000Y-59773046D01*
X183790151Y-59780773D01*
X183758692Y-59785439D01*
X183726927Y-59787000D01*
X182625073Y-59787000D01*
X182593308Y-59785439D01*
X182561849Y-59780773D01*
X182531000Y-59773046D01*
X182501056Y-59762331D01*
X182472306Y-59748734D01*
X182445028Y-59732384D01*
X182419483Y-59713439D01*
X182395919Y-59692081D01*
X182374561Y-59668517D01*
X182355616Y-59642972D01*
X182339266Y-59615694D01*
X182325669Y-59586944D01*
X182314954Y-59557000D01*
X182307227Y-59526151D01*
X182302561Y-59494692D01*
X182301000Y-59462927D01*
X182301000Y-56361073D01*
X182302561Y-56329308D01*
X182307227Y-56297849D01*
X182314954Y-56267000D01*
X182325669Y-56237056D01*
X182339266Y-56208306D01*
X182355616Y-56181028D01*
X182374561Y-56155483D01*
X182395919Y-56131919D01*
X182419483Y-56110561D01*
X182445028Y-56091616D01*
X182472306Y-56075266D01*
X182501056Y-56061669D01*
X182531000Y-56050954D01*
X182561849Y-56043227D01*
X182593308Y-56038561D01*
X182625073Y-56037000D01*
X183726927Y-56037000D01*
X183758692Y-56038561D01*
X183758692Y-56038561D01*
G37*
D16*
X183176000Y-57912000D03*
D15*
G36*
X189558692Y-56038561D02*
X189590151Y-56043227D01*
X189621000Y-56050954D01*
X189650944Y-56061669D01*
X189679694Y-56075266D01*
X189706972Y-56091616D01*
X189732517Y-56110561D01*
X189756081Y-56131919D01*
X189777439Y-56155483D01*
X189796384Y-56181028D01*
X189812734Y-56208306D01*
X189826331Y-56237056D01*
X189837046Y-56267000D01*
X189844773Y-56297849D01*
X189849439Y-56329308D01*
X189851000Y-56361073D01*
X189851000Y-59462927D01*
X189849439Y-59494692D01*
X189844773Y-59526151D01*
X189837046Y-59557000D01*
X189826331Y-59586944D01*
X189812734Y-59615694D01*
X189796384Y-59642972D01*
X189777439Y-59668517D01*
X189756081Y-59692081D01*
X189732517Y-59713439D01*
X189706972Y-59732384D01*
X189679694Y-59748734D01*
X189650944Y-59762331D01*
X189621000Y-59773046D01*
X189590151Y-59780773D01*
X189558692Y-59785439D01*
X189526927Y-59787000D01*
X188425073Y-59787000D01*
X188393308Y-59785439D01*
X188361849Y-59780773D01*
X188331000Y-59773046D01*
X188301056Y-59762331D01*
X188272306Y-59748734D01*
X188245028Y-59732384D01*
X188219483Y-59713439D01*
X188195919Y-59692081D01*
X188174561Y-59668517D01*
X188155616Y-59642972D01*
X188139266Y-59615694D01*
X188125669Y-59586944D01*
X188114954Y-59557000D01*
X188107227Y-59526151D01*
X188102561Y-59494692D01*
X188101000Y-59462927D01*
X188101000Y-56361073D01*
X188102561Y-56329308D01*
X188107227Y-56297849D01*
X188114954Y-56267000D01*
X188125669Y-56237056D01*
X188139266Y-56208306D01*
X188155616Y-56181028D01*
X188174561Y-56155483D01*
X188195919Y-56131919D01*
X188219483Y-56110561D01*
X188245028Y-56091616D01*
X188272306Y-56075266D01*
X188301056Y-56061669D01*
X188331000Y-56050954D01*
X188361849Y-56043227D01*
X188393308Y-56038561D01*
X188425073Y-56037000D01*
X189526927Y-56037000D01*
X189558692Y-56038561D01*
X189558692Y-56038561D01*
G37*
D16*
X188976000Y-57912000D03*
G04 #@! TD*
D15*
G04 #@! TO.C,R25*
G36*
X181430692Y-58832561D02*
X181462151Y-58837227D01*
X181493000Y-58844954D01*
X181522944Y-58855669D01*
X181551694Y-58869266D01*
X181578972Y-58885616D01*
X181604517Y-58904561D01*
X181628081Y-58925919D01*
X181649439Y-58949483D01*
X181668384Y-58975028D01*
X181684734Y-59002306D01*
X181698331Y-59031056D01*
X181709046Y-59061000D01*
X181716773Y-59091849D01*
X181721439Y-59123308D01*
X181723000Y-59155073D01*
X181723000Y-62256927D01*
X181721439Y-62288692D01*
X181716773Y-62320151D01*
X181709046Y-62351000D01*
X181698331Y-62380944D01*
X181684734Y-62409694D01*
X181668384Y-62436972D01*
X181649439Y-62462517D01*
X181628081Y-62486081D01*
X181604517Y-62507439D01*
X181578972Y-62526384D01*
X181551694Y-62542734D01*
X181522944Y-62556331D01*
X181493000Y-62567046D01*
X181462151Y-62574773D01*
X181430692Y-62579439D01*
X181398927Y-62581000D01*
X180297073Y-62581000D01*
X180265308Y-62579439D01*
X180233849Y-62574773D01*
X180203000Y-62567046D01*
X180173056Y-62556331D01*
X180144306Y-62542734D01*
X180117028Y-62526384D01*
X180091483Y-62507439D01*
X180067919Y-62486081D01*
X180046561Y-62462517D01*
X180027616Y-62436972D01*
X180011266Y-62409694D01*
X179997669Y-62380944D01*
X179986954Y-62351000D01*
X179979227Y-62320151D01*
X179974561Y-62288692D01*
X179973000Y-62256927D01*
X179973000Y-59155073D01*
X179974561Y-59123308D01*
X179979227Y-59091849D01*
X179986954Y-59061000D01*
X179997669Y-59031056D01*
X180011266Y-59002306D01*
X180027616Y-58975028D01*
X180046561Y-58949483D01*
X180067919Y-58925919D01*
X180091483Y-58904561D01*
X180117028Y-58885616D01*
X180144306Y-58869266D01*
X180173056Y-58855669D01*
X180203000Y-58844954D01*
X180233849Y-58837227D01*
X180265308Y-58832561D01*
X180297073Y-58831000D01*
X181398927Y-58831000D01*
X181430692Y-58832561D01*
X181430692Y-58832561D01*
G37*
D16*
X180848000Y-60706000D03*
D15*
G36*
X175630692Y-58832561D02*
X175662151Y-58837227D01*
X175693000Y-58844954D01*
X175722944Y-58855669D01*
X175751694Y-58869266D01*
X175778972Y-58885616D01*
X175804517Y-58904561D01*
X175828081Y-58925919D01*
X175849439Y-58949483D01*
X175868384Y-58975028D01*
X175884734Y-59002306D01*
X175898331Y-59031056D01*
X175909046Y-59061000D01*
X175916773Y-59091849D01*
X175921439Y-59123308D01*
X175923000Y-59155073D01*
X175923000Y-62256927D01*
X175921439Y-62288692D01*
X175916773Y-62320151D01*
X175909046Y-62351000D01*
X175898331Y-62380944D01*
X175884734Y-62409694D01*
X175868384Y-62436972D01*
X175849439Y-62462517D01*
X175828081Y-62486081D01*
X175804517Y-62507439D01*
X175778972Y-62526384D01*
X175751694Y-62542734D01*
X175722944Y-62556331D01*
X175693000Y-62567046D01*
X175662151Y-62574773D01*
X175630692Y-62579439D01*
X175598927Y-62581000D01*
X174497073Y-62581000D01*
X174465308Y-62579439D01*
X174433849Y-62574773D01*
X174403000Y-62567046D01*
X174373056Y-62556331D01*
X174344306Y-62542734D01*
X174317028Y-62526384D01*
X174291483Y-62507439D01*
X174267919Y-62486081D01*
X174246561Y-62462517D01*
X174227616Y-62436972D01*
X174211266Y-62409694D01*
X174197669Y-62380944D01*
X174186954Y-62351000D01*
X174179227Y-62320151D01*
X174174561Y-62288692D01*
X174173000Y-62256927D01*
X174173000Y-59155073D01*
X174174561Y-59123308D01*
X174179227Y-59091849D01*
X174186954Y-59061000D01*
X174197669Y-59031056D01*
X174211266Y-59002306D01*
X174227616Y-58975028D01*
X174246561Y-58949483D01*
X174267919Y-58925919D01*
X174291483Y-58904561D01*
X174317028Y-58885616D01*
X174344306Y-58869266D01*
X174373056Y-58855669D01*
X174403000Y-58844954D01*
X174433849Y-58837227D01*
X174465308Y-58832561D01*
X174497073Y-58831000D01*
X175598927Y-58831000D01*
X175630692Y-58832561D01*
X175630692Y-58832561D01*
G37*
D16*
X175048000Y-60706000D03*
G04 #@! TD*
D15*
G04 #@! TO.C,R28*
G36*
X183758692Y-61626561D02*
X183790151Y-61631227D01*
X183821000Y-61638954D01*
X183850944Y-61649669D01*
X183879694Y-61663266D01*
X183906972Y-61679616D01*
X183932517Y-61698561D01*
X183956081Y-61719919D01*
X183977439Y-61743483D01*
X183996384Y-61769028D01*
X184012734Y-61796306D01*
X184026331Y-61825056D01*
X184037046Y-61855000D01*
X184044773Y-61885849D01*
X184049439Y-61917308D01*
X184051000Y-61949073D01*
X184051000Y-65050927D01*
X184049439Y-65082692D01*
X184044773Y-65114151D01*
X184037046Y-65145000D01*
X184026331Y-65174944D01*
X184012734Y-65203694D01*
X183996384Y-65230972D01*
X183977439Y-65256517D01*
X183956081Y-65280081D01*
X183932517Y-65301439D01*
X183906972Y-65320384D01*
X183879694Y-65336734D01*
X183850944Y-65350331D01*
X183821000Y-65361046D01*
X183790151Y-65368773D01*
X183758692Y-65373439D01*
X183726927Y-65375000D01*
X182625073Y-65375000D01*
X182593308Y-65373439D01*
X182561849Y-65368773D01*
X182531000Y-65361046D01*
X182501056Y-65350331D01*
X182472306Y-65336734D01*
X182445028Y-65320384D01*
X182419483Y-65301439D01*
X182395919Y-65280081D01*
X182374561Y-65256517D01*
X182355616Y-65230972D01*
X182339266Y-65203694D01*
X182325669Y-65174944D01*
X182314954Y-65145000D01*
X182307227Y-65114151D01*
X182302561Y-65082692D01*
X182301000Y-65050927D01*
X182301000Y-61949073D01*
X182302561Y-61917308D01*
X182307227Y-61885849D01*
X182314954Y-61855000D01*
X182325669Y-61825056D01*
X182339266Y-61796306D01*
X182355616Y-61769028D01*
X182374561Y-61743483D01*
X182395919Y-61719919D01*
X182419483Y-61698561D01*
X182445028Y-61679616D01*
X182472306Y-61663266D01*
X182501056Y-61649669D01*
X182531000Y-61638954D01*
X182561849Y-61631227D01*
X182593308Y-61626561D01*
X182625073Y-61625000D01*
X183726927Y-61625000D01*
X183758692Y-61626561D01*
X183758692Y-61626561D01*
G37*
D16*
X183176000Y-63500000D03*
D15*
G36*
X189558692Y-61626561D02*
X189590151Y-61631227D01*
X189621000Y-61638954D01*
X189650944Y-61649669D01*
X189679694Y-61663266D01*
X189706972Y-61679616D01*
X189732517Y-61698561D01*
X189756081Y-61719919D01*
X189777439Y-61743483D01*
X189796384Y-61769028D01*
X189812734Y-61796306D01*
X189826331Y-61825056D01*
X189837046Y-61855000D01*
X189844773Y-61885849D01*
X189849439Y-61917308D01*
X189851000Y-61949073D01*
X189851000Y-65050927D01*
X189849439Y-65082692D01*
X189844773Y-65114151D01*
X189837046Y-65145000D01*
X189826331Y-65174944D01*
X189812734Y-65203694D01*
X189796384Y-65230972D01*
X189777439Y-65256517D01*
X189756081Y-65280081D01*
X189732517Y-65301439D01*
X189706972Y-65320384D01*
X189679694Y-65336734D01*
X189650944Y-65350331D01*
X189621000Y-65361046D01*
X189590151Y-65368773D01*
X189558692Y-65373439D01*
X189526927Y-65375000D01*
X188425073Y-65375000D01*
X188393308Y-65373439D01*
X188361849Y-65368773D01*
X188331000Y-65361046D01*
X188301056Y-65350331D01*
X188272306Y-65336734D01*
X188245028Y-65320384D01*
X188219483Y-65301439D01*
X188195919Y-65280081D01*
X188174561Y-65256517D01*
X188155616Y-65230972D01*
X188139266Y-65203694D01*
X188125669Y-65174944D01*
X188114954Y-65145000D01*
X188107227Y-65114151D01*
X188102561Y-65082692D01*
X188101000Y-65050927D01*
X188101000Y-61949073D01*
X188102561Y-61917308D01*
X188107227Y-61885849D01*
X188114954Y-61855000D01*
X188125669Y-61825056D01*
X188139266Y-61796306D01*
X188155616Y-61769028D01*
X188174561Y-61743483D01*
X188195919Y-61719919D01*
X188219483Y-61698561D01*
X188245028Y-61679616D01*
X188272306Y-61663266D01*
X188301056Y-61649669D01*
X188331000Y-61638954D01*
X188361849Y-61631227D01*
X188393308Y-61626561D01*
X188425073Y-61625000D01*
X189526927Y-61625000D01*
X189558692Y-61626561D01*
X189558692Y-61626561D01*
G37*
D16*
X188976000Y-63500000D03*
G04 #@! TD*
D15*
G04 #@! TO.C,R30*
G36*
X181430692Y-64547561D02*
X181462151Y-64552227D01*
X181493000Y-64559954D01*
X181522944Y-64570669D01*
X181551694Y-64584266D01*
X181578972Y-64600616D01*
X181604517Y-64619561D01*
X181628081Y-64640919D01*
X181649439Y-64664483D01*
X181668384Y-64690028D01*
X181684734Y-64717306D01*
X181698331Y-64746056D01*
X181709046Y-64776000D01*
X181716773Y-64806849D01*
X181721439Y-64838308D01*
X181723000Y-64870073D01*
X181723000Y-67971927D01*
X181721439Y-68003692D01*
X181716773Y-68035151D01*
X181709046Y-68066000D01*
X181698331Y-68095944D01*
X181684734Y-68124694D01*
X181668384Y-68151972D01*
X181649439Y-68177517D01*
X181628081Y-68201081D01*
X181604517Y-68222439D01*
X181578972Y-68241384D01*
X181551694Y-68257734D01*
X181522944Y-68271331D01*
X181493000Y-68282046D01*
X181462151Y-68289773D01*
X181430692Y-68294439D01*
X181398927Y-68296000D01*
X180297073Y-68296000D01*
X180265308Y-68294439D01*
X180233849Y-68289773D01*
X180203000Y-68282046D01*
X180173056Y-68271331D01*
X180144306Y-68257734D01*
X180117028Y-68241384D01*
X180091483Y-68222439D01*
X180067919Y-68201081D01*
X180046561Y-68177517D01*
X180027616Y-68151972D01*
X180011266Y-68124694D01*
X179997669Y-68095944D01*
X179986954Y-68066000D01*
X179979227Y-68035151D01*
X179974561Y-68003692D01*
X179973000Y-67971927D01*
X179973000Y-64870073D01*
X179974561Y-64838308D01*
X179979227Y-64806849D01*
X179986954Y-64776000D01*
X179997669Y-64746056D01*
X180011266Y-64717306D01*
X180027616Y-64690028D01*
X180046561Y-64664483D01*
X180067919Y-64640919D01*
X180091483Y-64619561D01*
X180117028Y-64600616D01*
X180144306Y-64584266D01*
X180173056Y-64570669D01*
X180203000Y-64559954D01*
X180233849Y-64552227D01*
X180265308Y-64547561D01*
X180297073Y-64546000D01*
X181398927Y-64546000D01*
X181430692Y-64547561D01*
X181430692Y-64547561D01*
G37*
D16*
X180848000Y-66421000D03*
D15*
G36*
X175630692Y-64547561D02*
X175662151Y-64552227D01*
X175693000Y-64559954D01*
X175722944Y-64570669D01*
X175751694Y-64584266D01*
X175778972Y-64600616D01*
X175804517Y-64619561D01*
X175828081Y-64640919D01*
X175849439Y-64664483D01*
X175868384Y-64690028D01*
X175884734Y-64717306D01*
X175898331Y-64746056D01*
X175909046Y-64776000D01*
X175916773Y-64806849D01*
X175921439Y-64838308D01*
X175923000Y-64870073D01*
X175923000Y-67971927D01*
X175921439Y-68003692D01*
X175916773Y-68035151D01*
X175909046Y-68066000D01*
X175898331Y-68095944D01*
X175884734Y-68124694D01*
X175868384Y-68151972D01*
X175849439Y-68177517D01*
X175828081Y-68201081D01*
X175804517Y-68222439D01*
X175778972Y-68241384D01*
X175751694Y-68257734D01*
X175722944Y-68271331D01*
X175693000Y-68282046D01*
X175662151Y-68289773D01*
X175630692Y-68294439D01*
X175598927Y-68296000D01*
X174497073Y-68296000D01*
X174465308Y-68294439D01*
X174433849Y-68289773D01*
X174403000Y-68282046D01*
X174373056Y-68271331D01*
X174344306Y-68257734D01*
X174317028Y-68241384D01*
X174291483Y-68222439D01*
X174267919Y-68201081D01*
X174246561Y-68177517D01*
X174227616Y-68151972D01*
X174211266Y-68124694D01*
X174197669Y-68095944D01*
X174186954Y-68066000D01*
X174179227Y-68035151D01*
X174174561Y-68003692D01*
X174173000Y-67971927D01*
X174173000Y-64870073D01*
X174174561Y-64838308D01*
X174179227Y-64806849D01*
X174186954Y-64776000D01*
X174197669Y-64746056D01*
X174211266Y-64717306D01*
X174227616Y-64690028D01*
X174246561Y-64664483D01*
X174267919Y-64640919D01*
X174291483Y-64619561D01*
X174317028Y-64600616D01*
X174344306Y-64584266D01*
X174373056Y-64570669D01*
X174403000Y-64559954D01*
X174433849Y-64552227D01*
X174465308Y-64547561D01*
X174497073Y-64546000D01*
X175598927Y-64546000D01*
X175630692Y-64547561D01*
X175630692Y-64547561D01*
G37*
D16*
X175048000Y-66421000D03*
G04 #@! TD*
D15*
G04 #@! TO.C,R32*
G36*
X183758692Y-67722561D02*
X183790151Y-67727227D01*
X183821000Y-67734954D01*
X183850944Y-67745669D01*
X183879694Y-67759266D01*
X183906972Y-67775616D01*
X183932517Y-67794561D01*
X183956081Y-67815919D01*
X183977439Y-67839483D01*
X183996384Y-67865028D01*
X184012734Y-67892306D01*
X184026331Y-67921056D01*
X184037046Y-67951000D01*
X184044773Y-67981849D01*
X184049439Y-68013308D01*
X184051000Y-68045073D01*
X184051000Y-71146927D01*
X184049439Y-71178692D01*
X184044773Y-71210151D01*
X184037046Y-71241000D01*
X184026331Y-71270944D01*
X184012734Y-71299694D01*
X183996384Y-71326972D01*
X183977439Y-71352517D01*
X183956081Y-71376081D01*
X183932517Y-71397439D01*
X183906972Y-71416384D01*
X183879694Y-71432734D01*
X183850944Y-71446331D01*
X183821000Y-71457046D01*
X183790151Y-71464773D01*
X183758692Y-71469439D01*
X183726927Y-71471000D01*
X182625073Y-71471000D01*
X182593308Y-71469439D01*
X182561849Y-71464773D01*
X182531000Y-71457046D01*
X182501056Y-71446331D01*
X182472306Y-71432734D01*
X182445028Y-71416384D01*
X182419483Y-71397439D01*
X182395919Y-71376081D01*
X182374561Y-71352517D01*
X182355616Y-71326972D01*
X182339266Y-71299694D01*
X182325669Y-71270944D01*
X182314954Y-71241000D01*
X182307227Y-71210151D01*
X182302561Y-71178692D01*
X182301000Y-71146927D01*
X182301000Y-68045073D01*
X182302561Y-68013308D01*
X182307227Y-67981849D01*
X182314954Y-67951000D01*
X182325669Y-67921056D01*
X182339266Y-67892306D01*
X182355616Y-67865028D01*
X182374561Y-67839483D01*
X182395919Y-67815919D01*
X182419483Y-67794561D01*
X182445028Y-67775616D01*
X182472306Y-67759266D01*
X182501056Y-67745669D01*
X182531000Y-67734954D01*
X182561849Y-67727227D01*
X182593308Y-67722561D01*
X182625073Y-67721000D01*
X183726927Y-67721000D01*
X183758692Y-67722561D01*
X183758692Y-67722561D01*
G37*
D16*
X183176000Y-69596000D03*
D15*
G36*
X189558692Y-67722561D02*
X189590151Y-67727227D01*
X189621000Y-67734954D01*
X189650944Y-67745669D01*
X189679694Y-67759266D01*
X189706972Y-67775616D01*
X189732517Y-67794561D01*
X189756081Y-67815919D01*
X189777439Y-67839483D01*
X189796384Y-67865028D01*
X189812734Y-67892306D01*
X189826331Y-67921056D01*
X189837046Y-67951000D01*
X189844773Y-67981849D01*
X189849439Y-68013308D01*
X189851000Y-68045073D01*
X189851000Y-71146927D01*
X189849439Y-71178692D01*
X189844773Y-71210151D01*
X189837046Y-71241000D01*
X189826331Y-71270944D01*
X189812734Y-71299694D01*
X189796384Y-71326972D01*
X189777439Y-71352517D01*
X189756081Y-71376081D01*
X189732517Y-71397439D01*
X189706972Y-71416384D01*
X189679694Y-71432734D01*
X189650944Y-71446331D01*
X189621000Y-71457046D01*
X189590151Y-71464773D01*
X189558692Y-71469439D01*
X189526927Y-71471000D01*
X188425073Y-71471000D01*
X188393308Y-71469439D01*
X188361849Y-71464773D01*
X188331000Y-71457046D01*
X188301056Y-71446331D01*
X188272306Y-71432734D01*
X188245028Y-71416384D01*
X188219483Y-71397439D01*
X188195919Y-71376081D01*
X188174561Y-71352517D01*
X188155616Y-71326972D01*
X188139266Y-71299694D01*
X188125669Y-71270944D01*
X188114954Y-71241000D01*
X188107227Y-71210151D01*
X188102561Y-71178692D01*
X188101000Y-71146927D01*
X188101000Y-68045073D01*
X188102561Y-68013308D01*
X188107227Y-67981849D01*
X188114954Y-67951000D01*
X188125669Y-67921056D01*
X188139266Y-67892306D01*
X188155616Y-67865028D01*
X188174561Y-67839483D01*
X188195919Y-67815919D01*
X188219483Y-67794561D01*
X188245028Y-67775616D01*
X188272306Y-67759266D01*
X188301056Y-67745669D01*
X188331000Y-67734954D01*
X188361849Y-67727227D01*
X188393308Y-67722561D01*
X188425073Y-67721000D01*
X189526927Y-67721000D01*
X189558692Y-67722561D01*
X189558692Y-67722561D01*
G37*
D16*
X188976000Y-69596000D03*
G04 #@! TD*
M02*
