G04 #@! TF.GenerationSoftware,KiCad,Pcbnew,(5.0.0)*
G04 #@! TF.CreationDate,2019-01-26T22:59:54-06:00*
G04 #@! TF.ProjectId,BPSVoltage,425053566F6C746167652E6B69636164,rev?*
G04 #@! TF.SameCoordinates,Original*
G04 #@! TF.FileFunction,Legend,Top*
G04 #@! TF.FilePolarity,Positive*
%FSLAX46Y46*%
G04 Gerber Fmt 4.6, Leading zero omitted, Abs format (unit mm)*
G04 Created by KiCad (PCBNEW (5.0.0)) date 01/26/19 22:59:54*
%MOMM*%
%LPD*%
G01*
G04 APERTURE LIST*
%ADD10C,0.300000*%
%ADD11C,0.127000*%
%ADD12C,0.120000*%
%ADD13C,0.150000*%
%ADD14C,0.050000*%
G04 APERTURE END LIST*
D10*
X198684285Y-25935714D02*
X198612857Y-26007142D01*
X198398571Y-26078571D01*
X198255714Y-26078571D01*
X198041428Y-26007142D01*
X197898571Y-25864285D01*
X197827142Y-25721428D01*
X197755714Y-25435714D01*
X197755714Y-25221428D01*
X197827142Y-24935714D01*
X197898571Y-24792857D01*
X198041428Y-24650000D01*
X198255714Y-24578571D01*
X198398571Y-24578571D01*
X198612857Y-24650000D01*
X198684285Y-24721428D01*
X199327142Y-26078571D02*
X199327142Y-24578571D01*
X199970000Y-26078571D02*
X199970000Y-25292857D01*
X199898571Y-25150000D01*
X199755714Y-25078571D01*
X199541428Y-25078571D01*
X199398571Y-25150000D01*
X199327142Y-25221428D01*
X201327142Y-26078571D02*
X201327142Y-25292857D01*
X201255714Y-25150000D01*
X201112857Y-25078571D01*
X200827142Y-25078571D01*
X200684285Y-25150000D01*
X201327142Y-26007142D02*
X201184285Y-26078571D01*
X200827142Y-26078571D01*
X200684285Y-26007142D01*
X200612857Y-25864285D01*
X200612857Y-25721428D01*
X200684285Y-25578571D01*
X200827142Y-25507142D01*
X201184285Y-25507142D01*
X201327142Y-25435714D01*
X201970000Y-26007142D02*
X202112857Y-26078571D01*
X202398571Y-26078571D01*
X202541428Y-26007142D01*
X202612857Y-25864285D01*
X202612857Y-25792857D01*
X202541428Y-25650000D01*
X202398571Y-25578571D01*
X202184285Y-25578571D01*
X202041428Y-25507142D01*
X201970000Y-25364285D01*
X201970000Y-25292857D01*
X202041428Y-25150000D01*
X202184285Y-25078571D01*
X202398571Y-25078571D01*
X202541428Y-25150000D01*
X203827142Y-26007142D02*
X203684285Y-26078571D01*
X203398571Y-26078571D01*
X203255714Y-26007142D01*
X203184285Y-25864285D01*
X203184285Y-25292857D01*
X203255714Y-25150000D01*
X203398571Y-25078571D01*
X203684285Y-25078571D01*
X203827142Y-25150000D01*
X203898571Y-25292857D01*
X203898571Y-25435714D01*
X203184285Y-25578571D01*
X206184285Y-25292857D02*
X206398571Y-25364285D01*
X206470000Y-25435714D01*
X206541428Y-25578571D01*
X206541428Y-25792857D01*
X206470000Y-25935714D01*
X206398571Y-26007142D01*
X206255714Y-26078571D01*
X205684285Y-26078571D01*
X205684285Y-24578571D01*
X206184285Y-24578571D01*
X206327142Y-24650000D01*
X206398571Y-24721428D01*
X206470000Y-24864285D01*
X206470000Y-25007142D01*
X206398571Y-25150000D01*
X206327142Y-25221428D01*
X206184285Y-25292857D01*
X205684285Y-25292857D01*
X207398571Y-26078571D02*
X207255714Y-26007142D01*
X207184285Y-25864285D01*
X207184285Y-24578571D01*
X208184285Y-26078571D02*
X208041428Y-26007142D01*
X207970000Y-25935714D01*
X207898571Y-25792857D01*
X207898571Y-25364285D01*
X207970000Y-25221428D01*
X208041428Y-25150000D01*
X208184285Y-25078571D01*
X208398571Y-25078571D01*
X208541428Y-25150000D01*
X208612857Y-25221428D01*
X208684285Y-25364285D01*
X208684285Y-25792857D01*
X208612857Y-25935714D01*
X208541428Y-26007142D01*
X208398571Y-26078571D01*
X208184285Y-26078571D01*
X209970000Y-26007142D02*
X209827142Y-26078571D01*
X209541428Y-26078571D01*
X209398571Y-26007142D01*
X209327142Y-25935714D01*
X209255714Y-25792857D01*
X209255714Y-25364285D01*
X209327142Y-25221428D01*
X209398571Y-25150000D01*
X209541428Y-25078571D01*
X209827142Y-25078571D01*
X209970000Y-25150000D01*
X210612857Y-26078571D02*
X210612857Y-24578571D01*
X210755714Y-25507142D02*
X211184285Y-26078571D01*
X211184285Y-25078571D02*
X210612857Y-25650000D01*
X193470000Y-22038571D02*
X193970000Y-23538571D01*
X194470000Y-22038571D01*
X195184285Y-23538571D02*
X195041428Y-23467142D01*
X194970000Y-23395714D01*
X194898571Y-23252857D01*
X194898571Y-22824285D01*
X194970000Y-22681428D01*
X195041428Y-22610000D01*
X195184285Y-22538571D01*
X195398571Y-22538571D01*
X195541428Y-22610000D01*
X195612857Y-22681428D01*
X195684285Y-22824285D01*
X195684285Y-23252857D01*
X195612857Y-23395714D01*
X195541428Y-23467142D01*
X195398571Y-23538571D01*
X195184285Y-23538571D01*
X196541428Y-23538571D02*
X196398571Y-23467142D01*
X196327142Y-23324285D01*
X196327142Y-22038571D01*
X196898571Y-22538571D02*
X197470000Y-22538571D01*
X197112857Y-22038571D02*
X197112857Y-23324285D01*
X197184285Y-23467142D01*
X197327142Y-23538571D01*
X197470000Y-23538571D01*
X198612857Y-23538571D02*
X198612857Y-22752857D01*
X198541428Y-22610000D01*
X198398571Y-22538571D01*
X198112857Y-22538571D01*
X197970000Y-22610000D01*
X198612857Y-23467142D02*
X198470000Y-23538571D01*
X198112857Y-23538571D01*
X197970000Y-23467142D01*
X197898571Y-23324285D01*
X197898571Y-23181428D01*
X197970000Y-23038571D01*
X198112857Y-22967142D01*
X198470000Y-22967142D01*
X198612857Y-22895714D01*
X199970000Y-22538571D02*
X199970000Y-23752857D01*
X199898571Y-23895714D01*
X199827142Y-23967142D01*
X199684285Y-24038571D01*
X199470000Y-24038571D01*
X199327142Y-23967142D01*
X199970000Y-23467142D02*
X199827142Y-23538571D01*
X199541428Y-23538571D01*
X199398571Y-23467142D01*
X199327142Y-23395714D01*
X199255714Y-23252857D01*
X199255714Y-22824285D01*
X199327142Y-22681428D01*
X199398571Y-22610000D01*
X199541428Y-22538571D01*
X199827142Y-22538571D01*
X199970000Y-22610000D01*
X201255714Y-23467142D02*
X201112857Y-23538571D01*
X200827142Y-23538571D01*
X200684285Y-23467142D01*
X200612857Y-23324285D01*
X200612857Y-22752857D01*
X200684285Y-22610000D01*
X200827142Y-22538571D01*
X201112857Y-22538571D01*
X201255714Y-22610000D01*
X201327142Y-22752857D01*
X201327142Y-22895714D01*
X200612857Y-23038571D01*
X203041428Y-23467142D02*
X203255714Y-23538571D01*
X203612857Y-23538571D01*
X203755714Y-23467142D01*
X203827142Y-23395714D01*
X203898571Y-23252857D01*
X203898571Y-23110000D01*
X203827142Y-22967142D01*
X203755714Y-22895714D01*
X203612857Y-22824285D01*
X203327142Y-22752857D01*
X203184285Y-22681428D01*
X203112857Y-22610000D01*
X203041428Y-22467142D01*
X203041428Y-22324285D01*
X203112857Y-22181428D01*
X203184285Y-22110000D01*
X203327142Y-22038571D01*
X203684285Y-22038571D01*
X203898571Y-22110000D01*
X204755714Y-23538571D02*
X204612857Y-23467142D01*
X204541428Y-23324285D01*
X204541428Y-22038571D01*
X205970000Y-23538571D02*
X205970000Y-22752857D01*
X205898571Y-22610000D01*
X205755714Y-22538571D01*
X205470000Y-22538571D01*
X205327142Y-22610000D01*
X205970000Y-23467142D02*
X205827142Y-23538571D01*
X205470000Y-23538571D01*
X205327142Y-23467142D01*
X205255714Y-23324285D01*
X205255714Y-23181428D01*
X205327142Y-23038571D01*
X205470000Y-22967142D01*
X205827142Y-22967142D01*
X205970000Y-22895714D01*
X206541428Y-22538571D02*
X206898571Y-23538571D01*
X207255714Y-22538571D01*
X208398571Y-23467142D02*
X208255714Y-23538571D01*
X207970000Y-23538571D01*
X207827142Y-23467142D01*
X207755714Y-23324285D01*
X207755714Y-22752857D01*
X207827142Y-22610000D01*
X207970000Y-22538571D01*
X208255714Y-22538571D01*
X208398571Y-22610000D01*
X208470000Y-22752857D01*
X208470000Y-22895714D01*
X207755714Y-23038571D01*
X210184285Y-22181428D02*
X210255714Y-22110000D01*
X210398571Y-22038571D01*
X210755714Y-22038571D01*
X210898571Y-22110000D01*
X210970000Y-22181428D01*
X211041428Y-22324285D01*
X211041428Y-22467142D01*
X210970000Y-22681428D01*
X210112857Y-23538571D01*
X211041428Y-23538571D01*
X211970000Y-22038571D02*
X212112857Y-22038571D01*
X212255714Y-22110000D01*
X212327142Y-22181428D01*
X212398571Y-22324285D01*
X212470000Y-22610000D01*
X212470000Y-22967142D01*
X212398571Y-23252857D01*
X212327142Y-23395714D01*
X212255714Y-23467142D01*
X212112857Y-23538571D01*
X211970000Y-23538571D01*
X211827142Y-23467142D01*
X211755714Y-23395714D01*
X211684285Y-23252857D01*
X211612857Y-22967142D01*
X211612857Y-22610000D01*
X211684285Y-22324285D01*
X211755714Y-22181428D01*
X211827142Y-22110000D01*
X211970000Y-22038571D01*
X213898571Y-23538571D02*
X213041428Y-23538571D01*
X213470000Y-23538571D02*
X213470000Y-22038571D01*
X213327142Y-22252857D01*
X213184285Y-22395714D01*
X213041428Y-22467142D01*
X214612857Y-23538571D02*
X214898571Y-23538571D01*
X215041428Y-23467142D01*
X215112857Y-23395714D01*
X215255714Y-23181428D01*
X215327142Y-22895714D01*
X215327142Y-22324285D01*
X215255714Y-22181428D01*
X215184285Y-22110000D01*
X215041428Y-22038571D01*
X214755714Y-22038571D01*
X214612857Y-22110000D01*
X214541428Y-22181428D01*
X214470000Y-22324285D01*
X214470000Y-22681428D01*
X214541428Y-22824285D01*
X214612857Y-22895714D01*
X214755714Y-22967142D01*
X215041428Y-22967142D01*
X215184285Y-22895714D01*
X215255714Y-22824285D01*
X215327142Y-22681428D01*
X193799285Y-19498571D02*
X193799285Y-20712857D01*
X193870714Y-20855714D01*
X193942142Y-20927142D01*
X194085000Y-20998571D01*
X194370714Y-20998571D01*
X194513571Y-20927142D01*
X194585000Y-20855714D01*
X194656428Y-20712857D01*
X194656428Y-19498571D01*
X195156428Y-19498571D02*
X196013571Y-19498571D01*
X195585000Y-20998571D02*
X195585000Y-19498571D01*
X197585000Y-20927142D02*
X197799285Y-20998571D01*
X198156428Y-20998571D01*
X198299285Y-20927142D01*
X198370714Y-20855714D01*
X198442142Y-20712857D01*
X198442142Y-20570000D01*
X198370714Y-20427142D01*
X198299285Y-20355714D01*
X198156428Y-20284285D01*
X197870714Y-20212857D01*
X197727857Y-20141428D01*
X197656428Y-20070000D01*
X197585000Y-19927142D01*
X197585000Y-19784285D01*
X197656428Y-19641428D01*
X197727857Y-19570000D01*
X197870714Y-19498571D01*
X198227857Y-19498571D01*
X198442142Y-19570000D01*
X198870714Y-19498571D02*
X199370714Y-20998571D01*
X199870714Y-19498571D01*
X200156428Y-19498571D02*
X201013571Y-19498571D01*
X200585000Y-20998571D02*
X200585000Y-19498571D01*
X202656428Y-20427142D02*
X203799285Y-20427142D01*
X204513571Y-20427142D02*
X205656428Y-20427142D01*
X208013571Y-20212857D02*
X208227857Y-20284285D01*
X208299285Y-20355714D01*
X208370714Y-20498571D01*
X208370714Y-20712857D01*
X208299285Y-20855714D01*
X208227857Y-20927142D01*
X208085000Y-20998571D01*
X207513571Y-20998571D01*
X207513571Y-19498571D01*
X208013571Y-19498571D01*
X208156428Y-19570000D01*
X208227857Y-19641428D01*
X208299285Y-19784285D01*
X208299285Y-19927142D01*
X208227857Y-20070000D01*
X208156428Y-20141428D01*
X208013571Y-20212857D01*
X207513571Y-20212857D01*
X209585000Y-20927142D02*
X209442142Y-20998571D01*
X209156428Y-20998571D01*
X209013571Y-20927142D01*
X208942142Y-20784285D01*
X208942142Y-20212857D01*
X209013571Y-20070000D01*
X209156428Y-19998571D01*
X209442142Y-19998571D01*
X209585000Y-20070000D01*
X209656428Y-20212857D01*
X209656428Y-20355714D01*
X208942142Y-20498571D01*
X210085000Y-19498571D02*
X210585000Y-20998571D01*
X211085000Y-19498571D01*
X211799285Y-20998571D02*
X211656428Y-20927142D01*
X211585000Y-20855714D01*
X211513571Y-20712857D01*
X211513571Y-20284285D01*
X211585000Y-20141428D01*
X211656428Y-20070000D01*
X211799285Y-19998571D01*
X212013571Y-19998571D01*
X212156428Y-20070000D01*
X212227857Y-20141428D01*
X212299285Y-20284285D01*
X212299285Y-20712857D01*
X212227857Y-20855714D01*
X212156428Y-20927142D01*
X212013571Y-20998571D01*
X211799285Y-20998571D01*
X213156428Y-20998571D02*
X213013571Y-20927142D01*
X212942142Y-20784285D01*
X212942142Y-19498571D01*
X213513571Y-19998571D02*
X214085000Y-19998571D01*
X213727857Y-19498571D02*
X213727857Y-20784285D01*
X213799285Y-20927142D01*
X213942142Y-20998571D01*
X214085000Y-20998571D01*
D11*
G04 #@! TO.C,U2*
X204025500Y-63690500D02*
G75*
G03X204025500Y-63690500I-317500J0D01*
G01*
D12*
G04 #@! TO.C,J4*
X169488000Y-73031000D02*
X172698000Y-73031000D01*
X172698000Y-73031000D02*
X172698000Y-48161000D01*
X172698000Y-48161000D02*
X169488000Y-48161000D01*
X168108000Y-71726000D02*
X168108000Y-71611000D01*
X168108000Y-71611000D02*
X168608000Y-71611000D01*
X168608000Y-71611000D02*
X168608000Y-49581000D01*
X168608000Y-49581000D02*
X168108000Y-49581000D01*
X168108000Y-49581000D02*
X168108000Y-49466000D01*
G04 #@! TO.C,J3*
X169488000Y-47631000D02*
X172698000Y-47631000D01*
X172698000Y-47631000D02*
X172698000Y-25761000D01*
X172698000Y-25761000D02*
X169488000Y-25761000D01*
X168108000Y-46326000D02*
X168108000Y-46211000D01*
X168108000Y-46211000D02*
X168608000Y-46211000D01*
X168608000Y-46211000D02*
X168608000Y-27181000D01*
X168608000Y-27181000D02*
X168108000Y-27181000D01*
X168108000Y-27181000D02*
X168108000Y-27066000D01*
D13*
G04 #@! TO.C,U1*
X202373000Y-43741000D02*
X202373000Y-43991000D01*
X210123000Y-43741000D02*
X210123000Y-44088500D01*
X210123000Y-59891000D02*
X210123000Y-59543500D01*
X202373000Y-59891000D02*
X202373000Y-59543500D01*
X202373000Y-43741000D02*
X210123000Y-43741000D01*
X202373000Y-59891000D02*
X210123000Y-59891000D01*
X202373000Y-43991000D02*
X200948000Y-43991000D01*
D12*
G04 #@! TO.C,Q5*
X209150000Y-29688000D02*
X207890000Y-29688000D01*
X202330000Y-29688000D02*
X203590000Y-29688000D01*
X209150000Y-33448000D02*
X209150000Y-29688000D01*
X202330000Y-35698000D02*
X202330000Y-29688000D01*
G04 #@! TO.C,C1*
X187779922Y-25198000D02*
X188297078Y-25198000D01*
X187779922Y-26618000D02*
X188297078Y-26618000D01*
G04 #@! TO.C,C2*
X187758000Y-31325078D02*
X187758000Y-30807922D01*
X189178000Y-31325078D02*
X189178000Y-30807922D01*
G04 #@! TO.C,C3*
X202386000Y-41485078D02*
X202386000Y-40967922D01*
X200966000Y-41485078D02*
X200966000Y-40967922D01*
G04 #@! TO.C,C4*
X194258000Y-35389078D02*
X194258000Y-34871922D01*
X192838000Y-35389078D02*
X192838000Y-34871922D01*
G04 #@! TO.C,C5*
X192838000Y-39296078D02*
X192838000Y-38778922D01*
X194258000Y-39296078D02*
X194258000Y-38778922D01*
G04 #@! TO.C,C6*
X194258000Y-42852078D02*
X194258000Y-42334922D01*
X192838000Y-42852078D02*
X192838000Y-42334922D01*
G04 #@! TO.C,C7*
X192838000Y-46565078D02*
X192838000Y-46047922D01*
X194258000Y-46565078D02*
X194258000Y-46047922D01*
G04 #@! TO.C,C8*
X214546922Y-54558000D02*
X215064078Y-54558000D01*
X214546922Y-53138000D02*
X215064078Y-53138000D01*
G04 #@! TO.C,C9*
X214546922Y-51106000D02*
X215064078Y-51106000D01*
X214546922Y-52526000D02*
X215064078Y-52526000D01*
G04 #@! TO.C,C10*
X210618000Y-35379922D02*
X210618000Y-35897078D01*
X212038000Y-35379922D02*
X212038000Y-35897078D01*
G04 #@! TO.C,C11*
X192838000Y-53169078D02*
X192838000Y-52651922D01*
X194258000Y-53169078D02*
X194258000Y-52651922D01*
G04 #@! TO.C,C12*
X192838000Y-56725078D02*
X192838000Y-56207922D01*
X194258000Y-56725078D02*
X194258000Y-56207922D01*
G04 #@! TO.C,C13*
X194258000Y-60281078D02*
X194258000Y-59763922D01*
X192838000Y-60281078D02*
X192838000Y-59763922D01*
G04 #@! TO.C,C14*
X199846000Y-69766922D02*
X199846000Y-70284078D01*
X198426000Y-69766922D02*
X198426000Y-70284078D01*
G04 #@! TO.C,C15*
X215190000Y-44406078D02*
X215190000Y-43888922D01*
X216610000Y-44406078D02*
X216610000Y-43888922D01*
G04 #@! TO.C,C16*
X192838000Y-63837078D02*
X192838000Y-63319922D01*
X194258000Y-63837078D02*
X194258000Y-63319922D01*
G04 #@! TO.C,C17*
X195409078Y-72950000D02*
X194891922Y-72950000D01*
X195409078Y-74370000D02*
X194891922Y-74370000D01*
G04 #@! TO.C,C18*
X217467922Y-59003000D02*
X217985078Y-59003000D01*
X217467922Y-57583000D02*
X217985078Y-57583000D01*
G04 #@! TO.C,C19*
X194258000Y-67393078D02*
X194258000Y-66875922D01*
X192838000Y-67393078D02*
X192838000Y-66875922D01*
G04 #@! TO.C,C20*
X192838000Y-70949078D02*
X192838000Y-70431922D01*
X194258000Y-70949078D02*
X194258000Y-70431922D01*
G04 #@! TO.C,C21*
X190162922Y-73354000D02*
X190680078Y-73354000D01*
X190162922Y-71934000D02*
X190680078Y-71934000D01*
D13*
G04 #@! TO.C,J1*
X225885000Y-47570000D02*
X225885000Y-50570000D01*
X225885000Y-50570000D02*
X224885000Y-50570000D01*
X224885000Y-50570000D02*
X224885000Y-56570000D01*
X224885000Y-56570000D02*
X225885000Y-56570000D01*
X225885000Y-56570000D02*
X225885000Y-59570000D01*
X225885000Y-59570000D02*
X220985000Y-59570000D01*
X220985000Y-59570000D02*
X220985000Y-47570000D01*
X220985000Y-47570000D02*
X225885000Y-47570000D01*
G04 #@! TO.C,J2*
X220985000Y-60270000D02*
X225885000Y-60270000D01*
X220985000Y-72270000D02*
X220985000Y-60270000D01*
X225885000Y-72270000D02*
X220985000Y-72270000D01*
X225885000Y-69270000D02*
X225885000Y-72270000D01*
X224885000Y-69270000D02*
X225885000Y-69270000D01*
X224885000Y-63270000D02*
X224885000Y-69270000D01*
X225885000Y-63270000D02*
X224885000Y-63270000D01*
X225885000Y-60270000D02*
X225885000Y-63270000D01*
D12*
G04 #@! TO.C,Q1*
X182316000Y-32780000D02*
X183246000Y-32780000D01*
X185476000Y-32780000D02*
X184546000Y-32780000D01*
X185476000Y-32780000D02*
X185476000Y-30620000D01*
X182316000Y-32780000D02*
X182316000Y-31320000D01*
G04 #@! TO.C,Q2*
X187396000Y-35828000D02*
X187396000Y-34368000D01*
X190556000Y-35828000D02*
X190556000Y-33668000D01*
X190556000Y-35828000D02*
X189626000Y-35828000D01*
X187396000Y-35828000D02*
X188326000Y-35828000D01*
G04 #@! TO.C,Q3*
X182316000Y-38876000D02*
X183246000Y-38876000D01*
X185476000Y-38876000D02*
X184546000Y-38876000D01*
X185476000Y-38876000D02*
X185476000Y-36716000D01*
X182316000Y-38876000D02*
X182316000Y-37416000D01*
G04 #@! TO.C,Q4*
X187396000Y-41924000D02*
X188326000Y-41924000D01*
X190556000Y-41924000D02*
X189626000Y-41924000D01*
X190556000Y-41924000D02*
X190556000Y-39764000D01*
X187396000Y-41924000D02*
X187396000Y-40464000D01*
G04 #@! TO.C,Q6*
X182316000Y-44972000D02*
X182316000Y-43512000D01*
X185476000Y-44972000D02*
X185476000Y-42812000D01*
X185476000Y-44972000D02*
X184546000Y-44972000D01*
X182316000Y-44972000D02*
X183246000Y-44972000D01*
G04 #@! TO.C,Q7*
X187396000Y-52592000D02*
X187396000Y-51132000D01*
X190556000Y-52592000D02*
X190556000Y-50432000D01*
X190556000Y-52592000D02*
X189626000Y-52592000D01*
X187396000Y-52592000D02*
X188326000Y-52592000D01*
G04 #@! TO.C,Q8*
X182316000Y-55640000D02*
X182316000Y-54180000D01*
X185476000Y-55640000D02*
X185476000Y-53480000D01*
X185476000Y-55640000D02*
X184546000Y-55640000D01*
X182316000Y-55640000D02*
X183246000Y-55640000D01*
G04 #@! TO.C,Q9*
X187396000Y-58180000D02*
X188326000Y-58180000D01*
X190556000Y-58180000D02*
X189626000Y-58180000D01*
X190556000Y-58180000D02*
X190556000Y-56020000D01*
X187396000Y-58180000D02*
X187396000Y-56720000D01*
G04 #@! TO.C,Q10*
X182316000Y-61228000D02*
X183246000Y-61228000D01*
X185476000Y-61228000D02*
X184546000Y-61228000D01*
X185476000Y-61228000D02*
X185476000Y-59068000D01*
X182316000Y-61228000D02*
X182316000Y-59768000D01*
G04 #@! TO.C,Q11*
X187396000Y-64276000D02*
X187396000Y-62816000D01*
X190556000Y-64276000D02*
X190556000Y-62116000D01*
X190556000Y-64276000D02*
X189626000Y-64276000D01*
X187396000Y-64276000D02*
X188326000Y-64276000D01*
G04 #@! TO.C,Q12*
X182316000Y-67292000D02*
X183246000Y-67292000D01*
X185476000Y-67292000D02*
X184546000Y-67292000D01*
X185476000Y-67292000D02*
X185476000Y-65132000D01*
X182316000Y-67292000D02*
X182316000Y-65832000D01*
G04 #@! TO.C,Q13*
X187396000Y-70372000D02*
X187396000Y-68912000D01*
X190556000Y-70372000D02*
X190556000Y-68212000D01*
X190556000Y-70372000D02*
X189626000Y-70372000D01*
X187396000Y-70372000D02*
X188326000Y-70372000D01*
G04 #@! TO.C,R1*
X182201078Y-25198000D02*
X181683922Y-25198000D01*
X182201078Y-26618000D02*
X181683922Y-26618000D01*
G04 #@! TO.C,R2*
X176613078Y-28246000D02*
X176095922Y-28246000D01*
X176613078Y-29666000D02*
X176095922Y-29666000D01*
G04 #@! TO.C,R3*
X176095922Y-25198000D02*
X176613078Y-25198000D01*
X176095922Y-26618000D02*
X176613078Y-26618000D01*
G04 #@! TO.C,R5*
X176613078Y-32714000D02*
X176095922Y-32714000D01*
X176613078Y-31294000D02*
X176095922Y-31294000D01*
G04 #@! TO.C,R7*
X176613078Y-34342000D02*
X176095922Y-34342000D01*
X176613078Y-35762000D02*
X176095922Y-35762000D01*
G04 #@! TO.C,R9*
X176613078Y-38810000D02*
X176095922Y-38810000D01*
X176613078Y-37390000D02*
X176095922Y-37390000D01*
G04 #@! TO.C,R11*
X176613078Y-41858000D02*
X176095922Y-41858000D01*
X176613078Y-40438000D02*
X176095922Y-40438000D01*
G04 #@! TO.C,R13*
X176613078Y-44906000D02*
X176095922Y-44906000D01*
X176613078Y-43486000D02*
X176095922Y-43486000D01*
G04 #@! TO.C,R15*
X176613078Y-50598000D02*
X176095922Y-50598000D01*
X176613078Y-52018000D02*
X176095922Y-52018000D01*
G04 #@! TO.C,R16*
X210006000Y-40967922D02*
X210006000Y-41485078D01*
X208586000Y-40967922D02*
X208586000Y-41485078D01*
G04 #@! TO.C,R17*
X210618000Y-40967922D02*
X210618000Y-41485078D01*
X212038000Y-40967922D02*
X212038000Y-41485078D01*
G04 #@! TO.C,R19*
X176613078Y-53646000D02*
X176095922Y-53646000D01*
X176613078Y-55066000D02*
X176095922Y-55066000D01*
G04 #@! TO.C,R20*
X214546922Y-47042000D02*
X215064078Y-47042000D01*
X214546922Y-48462000D02*
X215064078Y-48462000D01*
G04 #@! TO.C,R22*
X176613078Y-58114000D02*
X176095922Y-58114000D01*
X176613078Y-56694000D02*
X176095922Y-56694000D01*
G04 #@! TO.C,R23*
X214546922Y-49074000D02*
X215064078Y-49074000D01*
X214546922Y-50494000D02*
X215064078Y-50494000D01*
G04 #@! TO.C,R24*
X215562922Y-59742000D02*
X216080078Y-59742000D01*
X215562922Y-61162000D02*
X216080078Y-61162000D01*
G04 #@! TO.C,R26*
X176613078Y-59742000D02*
X176095922Y-59742000D01*
X176613078Y-61162000D02*
X176095922Y-61162000D01*
G04 #@! TO.C,R27*
X215562922Y-63194000D02*
X216080078Y-63194000D01*
X215562922Y-61774000D02*
X216080078Y-61774000D01*
G04 #@! TO.C,R29*
X176613078Y-62790000D02*
X176095922Y-62790000D01*
X176613078Y-64210000D02*
X176095922Y-64210000D01*
G04 #@! TO.C,R31*
X176613078Y-67258000D02*
X176095922Y-67258000D01*
X176613078Y-65838000D02*
X176095922Y-65838000D01*
G04 #@! TO.C,U2*
D14*
X204061086Y-61211070D02*
X204061086Y-61859996D01*
X204099258Y-61936340D01*
X204137430Y-61974512D01*
X204213774Y-62012684D01*
X204366463Y-62012684D01*
X204442807Y-61974512D01*
X204480979Y-61936340D01*
X204519151Y-61859996D01*
X204519151Y-61211070D01*
X204862700Y-61287415D02*
X204900872Y-61249243D01*
X204977216Y-61211070D01*
X205168077Y-61211070D01*
X205244421Y-61249243D01*
X205282593Y-61287415D01*
X205320765Y-61363759D01*
X205320765Y-61440103D01*
X205282593Y-61554619D01*
X204824528Y-62012684D01*
X205320765Y-62012684D01*
X205036648Y-71159128D02*
X204395445Y-71159128D01*
X204700779Y-71159128D02*
X204700779Y-70792727D01*
X205036648Y-70792727D02*
X204395445Y-70792727D01*
X204395445Y-70548459D02*
X205036648Y-70120990D01*
X204395445Y-70120990D02*
X205036648Y-70548459D01*
X205036648Y-69540854D02*
X205036648Y-69907256D01*
X205036648Y-69724055D02*
X204395445Y-69724055D01*
X204487045Y-69785122D01*
X204548112Y-69846189D01*
X204578645Y-69907256D01*
X205036648Y-68930184D02*
X205036648Y-69296586D01*
X205036648Y-69113385D02*
X204395445Y-69113385D01*
X204487045Y-69174452D01*
X204548112Y-69235519D01*
X204578645Y-69296586D01*
X204670246Y-68563783D02*
X204639712Y-68624850D01*
X204609179Y-68655383D01*
X204548112Y-68685917D01*
X204517578Y-68685917D01*
X204456511Y-68655383D01*
X204425978Y-68624850D01*
X204395445Y-68563783D01*
X204395445Y-68441649D01*
X204425978Y-68380582D01*
X204456511Y-68350048D01*
X204517578Y-68319515D01*
X204548112Y-68319515D01*
X204609179Y-68350048D01*
X204639712Y-68380582D01*
X204670246Y-68441649D01*
X204670246Y-68563783D01*
X204700779Y-68624850D01*
X204731313Y-68655383D01*
X204792380Y-68685917D01*
X204914514Y-68685917D01*
X204975581Y-68655383D01*
X205006114Y-68624850D01*
X205036648Y-68563783D01*
X205036648Y-68441649D01*
X205006114Y-68380582D01*
X204975581Y-68350048D01*
X204914514Y-68319515D01*
X204792380Y-68319515D01*
X204731313Y-68350048D01*
X204700779Y-68380582D01*
X204670246Y-68441649D01*
X204670246Y-67953113D02*
X204639712Y-68014180D01*
X204609179Y-68044714D01*
X204548112Y-68075247D01*
X204517578Y-68075247D01*
X204456511Y-68044714D01*
X204425978Y-68014180D01*
X204395445Y-67953113D01*
X204395445Y-67830979D01*
X204425978Y-67769912D01*
X204456511Y-67739379D01*
X204517578Y-67708845D01*
X204548112Y-67708845D01*
X204609179Y-67739379D01*
X204639712Y-67769912D01*
X204670246Y-67830979D01*
X204670246Y-67953113D01*
X204700779Y-68014180D01*
X204731313Y-68044714D01*
X204792380Y-68075247D01*
X204914514Y-68075247D01*
X204975581Y-68044714D01*
X205006114Y-68014180D01*
X205036648Y-67953113D01*
X205036648Y-67830979D01*
X205006114Y-67769912D01*
X204975581Y-67739379D01*
X204914514Y-67708845D01*
X204792380Y-67708845D01*
X204731313Y-67739379D01*
X204700779Y-67769912D01*
X204670246Y-67830979D01*
X204700779Y-67220310D02*
X204700779Y-67434044D01*
X205036648Y-67434044D02*
X204395445Y-67434044D01*
X204395445Y-67128709D01*
X205036648Y-66884442D02*
X204395445Y-66884442D01*
X205036648Y-66518040D01*
X204395445Y-66518040D01*
X205036648Y-65907370D02*
X205036648Y-66212705D01*
X204395445Y-66212705D01*
G04 #@! TO.C,J4*
D13*
X166470380Y-60929333D02*
X167184666Y-60929333D01*
X167327523Y-60976952D01*
X167422761Y-61072190D01*
X167470380Y-61215047D01*
X167470380Y-61310285D01*
X166803714Y-60024571D02*
X167470380Y-60024571D01*
X166422761Y-60262666D02*
X167137047Y-60500761D01*
X167137047Y-59881714D01*
G04 #@! TO.C,J3*
X166470380Y-37029333D02*
X167184666Y-37029333D01*
X167327523Y-37076952D01*
X167422761Y-37172190D01*
X167470380Y-37315047D01*
X167470380Y-37410285D01*
X166470380Y-36648380D02*
X166470380Y-36029333D01*
X166851333Y-36362666D01*
X166851333Y-36219809D01*
X166898952Y-36124571D01*
X166946571Y-36076952D01*
X167041809Y-36029333D01*
X167279904Y-36029333D01*
X167375142Y-36076952D01*
X167422761Y-36124571D01*
X167470380Y-36219809D01*
X167470380Y-36505523D01*
X167422761Y-36600761D01*
X167375142Y-36648380D01*
G04 #@! TO.C,U1*
X205486095Y-42268380D02*
X205486095Y-43077904D01*
X205533714Y-43173142D01*
X205581333Y-43220761D01*
X205676571Y-43268380D01*
X205867047Y-43268380D01*
X205962285Y-43220761D01*
X206009904Y-43173142D01*
X206057523Y-43077904D01*
X206057523Y-42268380D01*
X207057523Y-43268380D02*
X206486095Y-43268380D01*
X206771809Y-43268380D02*
X206771809Y-42268380D01*
X206676571Y-42411238D01*
X206581333Y-42506476D01*
X206486095Y-42554095D01*
G04 #@! TO.C,Q5*
X201787619Y-31693238D02*
X201740000Y-31788476D01*
X201644761Y-31883714D01*
X201501904Y-32026571D01*
X201454285Y-32121809D01*
X201454285Y-32217047D01*
X201692380Y-32169428D02*
X201644761Y-32264666D01*
X201549523Y-32359904D01*
X201359047Y-32407523D01*
X201025714Y-32407523D01*
X200835238Y-32359904D01*
X200740000Y-32264666D01*
X200692380Y-32169428D01*
X200692380Y-31978952D01*
X200740000Y-31883714D01*
X200835238Y-31788476D01*
X201025714Y-31740857D01*
X201359047Y-31740857D01*
X201549523Y-31788476D01*
X201644761Y-31883714D01*
X201692380Y-31978952D01*
X201692380Y-32169428D01*
X200692380Y-30836095D02*
X200692380Y-31312285D01*
X201168571Y-31359904D01*
X201120952Y-31312285D01*
X201073333Y-31217047D01*
X201073333Y-30978952D01*
X201120952Y-30883714D01*
X201168571Y-30836095D01*
X201263809Y-30788476D01*
X201501904Y-30788476D01*
X201597142Y-30836095D01*
X201644761Y-30883714D01*
X201692380Y-30978952D01*
X201692380Y-31217047D01*
X201644761Y-31312285D01*
X201597142Y-31359904D01*
G04 #@! TO.C,C1*
X187871833Y-24615142D02*
X187824214Y-24662761D01*
X187681357Y-24710380D01*
X187586119Y-24710380D01*
X187443261Y-24662761D01*
X187348023Y-24567523D01*
X187300404Y-24472285D01*
X187252785Y-24281809D01*
X187252785Y-24138952D01*
X187300404Y-23948476D01*
X187348023Y-23853238D01*
X187443261Y-23758000D01*
X187586119Y-23710380D01*
X187681357Y-23710380D01*
X187824214Y-23758000D01*
X187871833Y-23805619D01*
X188824214Y-24710380D02*
X188252785Y-24710380D01*
X188538500Y-24710380D02*
X188538500Y-23710380D01*
X188443261Y-23853238D01*
X188348023Y-23948476D01*
X188252785Y-23996095D01*
G04 #@! TO.C,C2*
X188301333Y-28962142D02*
X188253714Y-29009761D01*
X188110857Y-29057380D01*
X188015619Y-29057380D01*
X187872761Y-29009761D01*
X187777523Y-28914523D01*
X187729904Y-28819285D01*
X187682285Y-28628809D01*
X187682285Y-28485952D01*
X187729904Y-28295476D01*
X187777523Y-28200238D01*
X187872761Y-28105000D01*
X188015619Y-28057380D01*
X188110857Y-28057380D01*
X188253714Y-28105000D01*
X188301333Y-28152619D01*
X188682285Y-28152619D02*
X188729904Y-28105000D01*
X188825142Y-28057380D01*
X189063238Y-28057380D01*
X189158476Y-28105000D01*
X189206095Y-28152619D01*
X189253714Y-28247857D01*
X189253714Y-28343095D01*
X189206095Y-28485952D01*
X188634666Y-29057380D01*
X189253714Y-29057380D01*
G04 #@! TO.C,C3*
X200383142Y-41393166D02*
X200430761Y-41440785D01*
X200478380Y-41583642D01*
X200478380Y-41678880D01*
X200430761Y-41821738D01*
X200335523Y-41916976D01*
X200240285Y-41964595D01*
X200049809Y-42012214D01*
X199906952Y-42012214D01*
X199716476Y-41964595D01*
X199621238Y-41916976D01*
X199526000Y-41821738D01*
X199478380Y-41678880D01*
X199478380Y-41583642D01*
X199526000Y-41440785D01*
X199573619Y-41393166D01*
X199478380Y-41059833D02*
X199478380Y-40440785D01*
X199859333Y-40774119D01*
X199859333Y-40631261D01*
X199906952Y-40536023D01*
X199954571Y-40488404D01*
X200049809Y-40440785D01*
X200287904Y-40440785D01*
X200383142Y-40488404D01*
X200430761Y-40536023D01*
X200478380Y-40631261D01*
X200478380Y-40916976D01*
X200430761Y-41012214D01*
X200383142Y-41059833D01*
G04 #@! TO.C,C4*
X193381333Y-32869142D02*
X193333714Y-32916761D01*
X193190857Y-32964380D01*
X193095619Y-32964380D01*
X192952761Y-32916761D01*
X192857523Y-32821523D01*
X192809904Y-32726285D01*
X192762285Y-32535809D01*
X192762285Y-32392952D01*
X192809904Y-32202476D01*
X192857523Y-32107238D01*
X192952761Y-32012000D01*
X193095619Y-31964380D01*
X193190857Y-31964380D01*
X193333714Y-32012000D01*
X193381333Y-32059619D01*
X194238476Y-32297714D02*
X194238476Y-32964380D01*
X194000380Y-31916761D02*
X193762285Y-32631047D01*
X194381333Y-32631047D01*
G04 #@! TO.C,C5*
X195937142Y-39204166D02*
X195984761Y-39251785D01*
X196032380Y-39394642D01*
X196032380Y-39489880D01*
X195984761Y-39632738D01*
X195889523Y-39727976D01*
X195794285Y-39775595D01*
X195603809Y-39823214D01*
X195460952Y-39823214D01*
X195270476Y-39775595D01*
X195175238Y-39727976D01*
X195080000Y-39632738D01*
X195032380Y-39489880D01*
X195032380Y-39394642D01*
X195080000Y-39251785D01*
X195127619Y-39204166D01*
X195032380Y-38299404D02*
X195032380Y-38775595D01*
X195508571Y-38823214D01*
X195460952Y-38775595D01*
X195413333Y-38680357D01*
X195413333Y-38442261D01*
X195460952Y-38347023D01*
X195508571Y-38299404D01*
X195603809Y-38251785D01*
X195841904Y-38251785D01*
X195937142Y-38299404D01*
X195984761Y-38347023D01*
X196032380Y-38442261D01*
X196032380Y-38680357D01*
X195984761Y-38775595D01*
X195937142Y-38823214D01*
G04 #@! TO.C,C6*
X195937142Y-42760166D02*
X195984761Y-42807785D01*
X196032380Y-42950642D01*
X196032380Y-43045880D01*
X195984761Y-43188738D01*
X195889523Y-43283976D01*
X195794285Y-43331595D01*
X195603809Y-43379214D01*
X195460952Y-43379214D01*
X195270476Y-43331595D01*
X195175238Y-43283976D01*
X195080000Y-43188738D01*
X195032380Y-43045880D01*
X195032380Y-42950642D01*
X195080000Y-42807785D01*
X195127619Y-42760166D01*
X195032380Y-41903023D02*
X195032380Y-42093500D01*
X195080000Y-42188738D01*
X195127619Y-42236357D01*
X195270476Y-42331595D01*
X195460952Y-42379214D01*
X195841904Y-42379214D01*
X195937142Y-42331595D01*
X195984761Y-42283976D01*
X196032380Y-42188738D01*
X196032380Y-41998261D01*
X195984761Y-41903023D01*
X195937142Y-41855404D01*
X195841904Y-41807785D01*
X195603809Y-41807785D01*
X195508571Y-41855404D01*
X195460952Y-41903023D01*
X195413333Y-41998261D01*
X195413333Y-42188738D01*
X195460952Y-42283976D01*
X195508571Y-42331595D01*
X195603809Y-42379214D01*
G04 #@! TO.C,C7*
X192255142Y-46473166D02*
X192302761Y-46520785D01*
X192350380Y-46663642D01*
X192350380Y-46758880D01*
X192302761Y-46901738D01*
X192207523Y-46996976D01*
X192112285Y-47044595D01*
X191921809Y-47092214D01*
X191778952Y-47092214D01*
X191588476Y-47044595D01*
X191493238Y-46996976D01*
X191398000Y-46901738D01*
X191350380Y-46758880D01*
X191350380Y-46663642D01*
X191398000Y-46520785D01*
X191445619Y-46473166D01*
X191350380Y-46139833D02*
X191350380Y-45473166D01*
X192350380Y-45901738D01*
G04 #@! TO.C,C8*
X217765333Y-54205142D02*
X217717714Y-54252761D01*
X217574857Y-54300380D01*
X217479619Y-54300380D01*
X217336761Y-54252761D01*
X217241523Y-54157523D01*
X217193904Y-54062285D01*
X217146285Y-53871809D01*
X217146285Y-53728952D01*
X217193904Y-53538476D01*
X217241523Y-53443238D01*
X217336761Y-53348000D01*
X217479619Y-53300380D01*
X217574857Y-53300380D01*
X217717714Y-53348000D01*
X217765333Y-53395619D01*
X218336761Y-53728952D02*
X218241523Y-53681333D01*
X218193904Y-53633714D01*
X218146285Y-53538476D01*
X218146285Y-53490857D01*
X218193904Y-53395619D01*
X218241523Y-53348000D01*
X218336761Y-53300380D01*
X218527238Y-53300380D01*
X218622476Y-53348000D01*
X218670095Y-53395619D01*
X218717714Y-53490857D01*
X218717714Y-53538476D01*
X218670095Y-53633714D01*
X218622476Y-53681333D01*
X218527238Y-53728952D01*
X218336761Y-53728952D01*
X218241523Y-53776571D01*
X218193904Y-53824190D01*
X218146285Y-53919428D01*
X218146285Y-54109904D01*
X218193904Y-54205142D01*
X218241523Y-54252761D01*
X218336761Y-54300380D01*
X218527238Y-54300380D01*
X218622476Y-54252761D01*
X218670095Y-54205142D01*
X218717714Y-54109904D01*
X218717714Y-53919428D01*
X218670095Y-53824190D01*
X218622476Y-53776571D01*
X218527238Y-53728952D01*
G04 #@! TO.C,C9*
X217765333Y-52173142D02*
X217717714Y-52220761D01*
X217574857Y-52268380D01*
X217479619Y-52268380D01*
X217336761Y-52220761D01*
X217241523Y-52125523D01*
X217193904Y-52030285D01*
X217146285Y-51839809D01*
X217146285Y-51696952D01*
X217193904Y-51506476D01*
X217241523Y-51411238D01*
X217336761Y-51316000D01*
X217479619Y-51268380D01*
X217574857Y-51268380D01*
X217717714Y-51316000D01*
X217765333Y-51363619D01*
X218241523Y-52268380D02*
X218432000Y-52268380D01*
X218527238Y-52220761D01*
X218574857Y-52173142D01*
X218670095Y-52030285D01*
X218717714Y-51839809D01*
X218717714Y-51458857D01*
X218670095Y-51363619D01*
X218622476Y-51316000D01*
X218527238Y-51268380D01*
X218336761Y-51268380D01*
X218241523Y-51316000D01*
X218193904Y-51363619D01*
X218146285Y-51458857D01*
X218146285Y-51696952D01*
X218193904Y-51792190D01*
X218241523Y-51839809D01*
X218336761Y-51887428D01*
X218527238Y-51887428D01*
X218622476Y-51839809D01*
X218670095Y-51792190D01*
X218717714Y-51696952D01*
G04 #@! TO.C,C10*
X210685142Y-39122142D02*
X210637523Y-39169761D01*
X210494666Y-39217380D01*
X210399428Y-39217380D01*
X210256571Y-39169761D01*
X210161333Y-39074523D01*
X210113714Y-38979285D01*
X210066095Y-38788809D01*
X210066095Y-38645952D01*
X210113714Y-38455476D01*
X210161333Y-38360238D01*
X210256571Y-38265000D01*
X210399428Y-38217380D01*
X210494666Y-38217380D01*
X210637523Y-38265000D01*
X210685142Y-38312619D01*
X211637523Y-39217380D02*
X211066095Y-39217380D01*
X211351809Y-39217380D02*
X211351809Y-38217380D01*
X211256571Y-38360238D01*
X211161333Y-38455476D01*
X211066095Y-38503095D01*
X212256571Y-38217380D02*
X212351809Y-38217380D01*
X212447047Y-38265000D01*
X212494666Y-38312619D01*
X212542285Y-38407857D01*
X212589904Y-38598333D01*
X212589904Y-38836428D01*
X212542285Y-39026904D01*
X212494666Y-39122142D01*
X212447047Y-39169761D01*
X212351809Y-39217380D01*
X212256571Y-39217380D01*
X212161333Y-39169761D01*
X212113714Y-39122142D01*
X212066095Y-39026904D01*
X212018476Y-38836428D01*
X212018476Y-38598333D01*
X212066095Y-38407857D01*
X212113714Y-38312619D01*
X212161333Y-38265000D01*
X212256571Y-38217380D01*
G04 #@! TO.C,C11*
X195937142Y-53474857D02*
X195984761Y-53522476D01*
X196032380Y-53665333D01*
X196032380Y-53760571D01*
X195984761Y-53903428D01*
X195889523Y-53998666D01*
X195794285Y-54046285D01*
X195603809Y-54093904D01*
X195460952Y-54093904D01*
X195270476Y-54046285D01*
X195175238Y-53998666D01*
X195080000Y-53903428D01*
X195032380Y-53760571D01*
X195032380Y-53665333D01*
X195080000Y-53522476D01*
X195127619Y-53474857D01*
X196032380Y-52522476D02*
X196032380Y-53093904D01*
X196032380Y-52808190D02*
X195032380Y-52808190D01*
X195175238Y-52903428D01*
X195270476Y-52998666D01*
X195318095Y-53093904D01*
X196032380Y-51570095D02*
X196032380Y-52141523D01*
X196032380Y-51855809D02*
X195032380Y-51855809D01*
X195175238Y-51951047D01*
X195270476Y-52046285D01*
X195318095Y-52141523D01*
G04 #@! TO.C,C12*
X195937142Y-57109357D02*
X195984761Y-57156976D01*
X196032380Y-57299833D01*
X196032380Y-57395071D01*
X195984761Y-57537928D01*
X195889523Y-57633166D01*
X195794285Y-57680785D01*
X195603809Y-57728404D01*
X195460952Y-57728404D01*
X195270476Y-57680785D01*
X195175238Y-57633166D01*
X195080000Y-57537928D01*
X195032380Y-57395071D01*
X195032380Y-57299833D01*
X195080000Y-57156976D01*
X195127619Y-57109357D01*
X196032380Y-56156976D02*
X196032380Y-56728404D01*
X196032380Y-56442690D02*
X195032380Y-56442690D01*
X195175238Y-56537928D01*
X195270476Y-56633166D01*
X195318095Y-56728404D01*
X195127619Y-55776023D02*
X195080000Y-55728404D01*
X195032380Y-55633166D01*
X195032380Y-55395071D01*
X195080000Y-55299833D01*
X195127619Y-55252214D01*
X195222857Y-55204595D01*
X195318095Y-55204595D01*
X195460952Y-55252214D01*
X196032380Y-55823642D01*
X196032380Y-55204595D01*
G04 #@! TO.C,C13*
X195937142Y-60586857D02*
X195984761Y-60634476D01*
X196032380Y-60777333D01*
X196032380Y-60872571D01*
X195984761Y-61015428D01*
X195889523Y-61110666D01*
X195794285Y-61158285D01*
X195603809Y-61205904D01*
X195460952Y-61205904D01*
X195270476Y-61158285D01*
X195175238Y-61110666D01*
X195080000Y-61015428D01*
X195032380Y-60872571D01*
X195032380Y-60777333D01*
X195080000Y-60634476D01*
X195127619Y-60586857D01*
X196032380Y-59634476D02*
X196032380Y-60205904D01*
X196032380Y-59920190D02*
X195032380Y-59920190D01*
X195175238Y-60015428D01*
X195270476Y-60110666D01*
X195318095Y-60205904D01*
X195032380Y-59301142D02*
X195032380Y-58682095D01*
X195413333Y-59015428D01*
X195413333Y-58872571D01*
X195460952Y-58777333D01*
X195508571Y-58729714D01*
X195603809Y-58682095D01*
X195841904Y-58682095D01*
X195937142Y-58729714D01*
X195984761Y-58777333D01*
X196032380Y-58872571D01*
X196032380Y-59158285D01*
X195984761Y-59253523D01*
X195937142Y-59301142D01*
G04 #@! TO.C,C14*
X198493142Y-73001142D02*
X198445523Y-73048761D01*
X198302666Y-73096380D01*
X198207428Y-73096380D01*
X198064571Y-73048761D01*
X197969333Y-72953523D01*
X197921714Y-72858285D01*
X197874095Y-72667809D01*
X197874095Y-72524952D01*
X197921714Y-72334476D01*
X197969333Y-72239238D01*
X198064571Y-72144000D01*
X198207428Y-72096380D01*
X198302666Y-72096380D01*
X198445523Y-72144000D01*
X198493142Y-72191619D01*
X199445523Y-73096380D02*
X198874095Y-73096380D01*
X199159809Y-73096380D02*
X199159809Y-72096380D01*
X199064571Y-72239238D01*
X198969333Y-72334476D01*
X198874095Y-72382095D01*
X200302666Y-72429714D02*
X200302666Y-73096380D01*
X200064571Y-72048761D02*
X199826476Y-72763047D01*
X200445523Y-72763047D01*
G04 #@! TO.C,C15*
X214607142Y-44790357D02*
X214654761Y-44837976D01*
X214702380Y-44980833D01*
X214702380Y-45076071D01*
X214654761Y-45218928D01*
X214559523Y-45314166D01*
X214464285Y-45361785D01*
X214273809Y-45409404D01*
X214130952Y-45409404D01*
X213940476Y-45361785D01*
X213845238Y-45314166D01*
X213750000Y-45218928D01*
X213702380Y-45076071D01*
X213702380Y-44980833D01*
X213750000Y-44837976D01*
X213797619Y-44790357D01*
X214702380Y-43837976D02*
X214702380Y-44409404D01*
X214702380Y-44123690D02*
X213702380Y-44123690D01*
X213845238Y-44218928D01*
X213940476Y-44314166D01*
X213988095Y-44409404D01*
X213702380Y-42933214D02*
X213702380Y-43409404D01*
X214178571Y-43457023D01*
X214130952Y-43409404D01*
X214083333Y-43314166D01*
X214083333Y-43076071D01*
X214130952Y-42980833D01*
X214178571Y-42933214D01*
X214273809Y-42885595D01*
X214511904Y-42885595D01*
X214607142Y-42933214D01*
X214654761Y-42980833D01*
X214702380Y-43076071D01*
X214702380Y-43314166D01*
X214654761Y-43409404D01*
X214607142Y-43457023D01*
G04 #@! TO.C,C16*
X195937142Y-64142857D02*
X195984761Y-64190476D01*
X196032380Y-64333333D01*
X196032380Y-64428571D01*
X195984761Y-64571428D01*
X195889523Y-64666666D01*
X195794285Y-64714285D01*
X195603809Y-64761904D01*
X195460952Y-64761904D01*
X195270476Y-64714285D01*
X195175238Y-64666666D01*
X195080000Y-64571428D01*
X195032380Y-64428571D01*
X195032380Y-64333333D01*
X195080000Y-64190476D01*
X195127619Y-64142857D01*
X196032380Y-63190476D02*
X196032380Y-63761904D01*
X196032380Y-63476190D02*
X195032380Y-63476190D01*
X195175238Y-63571428D01*
X195270476Y-63666666D01*
X195318095Y-63761904D01*
X195032380Y-62333333D02*
X195032380Y-62523809D01*
X195080000Y-62619047D01*
X195127619Y-62666666D01*
X195270476Y-62761904D01*
X195460952Y-62809523D01*
X195841904Y-62809523D01*
X195937142Y-62761904D01*
X195984761Y-62714285D01*
X196032380Y-62619047D01*
X196032380Y-62428571D01*
X195984761Y-62333333D01*
X195937142Y-62285714D01*
X195841904Y-62238095D01*
X195603809Y-62238095D01*
X195508571Y-62285714D01*
X195460952Y-62333333D01*
X195413333Y-62428571D01*
X195413333Y-62619047D01*
X195460952Y-62714285D01*
X195508571Y-62761904D01*
X195603809Y-62809523D01*
G04 #@! TO.C,C17*
X194507642Y-75667142D02*
X194460023Y-75714761D01*
X194317166Y-75762380D01*
X194221928Y-75762380D01*
X194079071Y-75714761D01*
X193983833Y-75619523D01*
X193936214Y-75524285D01*
X193888595Y-75333809D01*
X193888595Y-75190952D01*
X193936214Y-75000476D01*
X193983833Y-74905238D01*
X194079071Y-74810000D01*
X194221928Y-74762380D01*
X194317166Y-74762380D01*
X194460023Y-74810000D01*
X194507642Y-74857619D01*
X195460023Y-75762380D02*
X194888595Y-75762380D01*
X195174309Y-75762380D02*
X195174309Y-74762380D01*
X195079071Y-74905238D01*
X194983833Y-75000476D01*
X194888595Y-75048095D01*
X195793357Y-74762380D02*
X196460023Y-74762380D01*
X196031452Y-75762380D01*
G04 #@! TO.C,C18*
X217083642Y-56745142D02*
X217036023Y-56792761D01*
X216893166Y-56840380D01*
X216797928Y-56840380D01*
X216655071Y-56792761D01*
X216559833Y-56697523D01*
X216512214Y-56602285D01*
X216464595Y-56411809D01*
X216464595Y-56268952D01*
X216512214Y-56078476D01*
X216559833Y-55983238D01*
X216655071Y-55888000D01*
X216797928Y-55840380D01*
X216893166Y-55840380D01*
X217036023Y-55888000D01*
X217083642Y-55935619D01*
X218036023Y-56840380D02*
X217464595Y-56840380D01*
X217750309Y-56840380D02*
X217750309Y-55840380D01*
X217655071Y-55983238D01*
X217559833Y-56078476D01*
X217464595Y-56126095D01*
X218607452Y-56268952D02*
X218512214Y-56221333D01*
X218464595Y-56173714D01*
X218416976Y-56078476D01*
X218416976Y-56030857D01*
X218464595Y-55935619D01*
X218512214Y-55888000D01*
X218607452Y-55840380D01*
X218797928Y-55840380D01*
X218893166Y-55888000D01*
X218940785Y-55935619D01*
X218988404Y-56030857D01*
X218988404Y-56078476D01*
X218940785Y-56173714D01*
X218893166Y-56221333D01*
X218797928Y-56268952D01*
X218607452Y-56268952D01*
X218512214Y-56316571D01*
X218464595Y-56364190D01*
X218416976Y-56459428D01*
X218416976Y-56649904D01*
X218464595Y-56745142D01*
X218512214Y-56792761D01*
X218607452Y-56840380D01*
X218797928Y-56840380D01*
X218893166Y-56792761D01*
X218940785Y-56745142D01*
X218988404Y-56649904D01*
X218988404Y-56459428D01*
X218940785Y-56364190D01*
X218893166Y-56316571D01*
X218797928Y-56268952D01*
G04 #@! TO.C,C19*
X195937142Y-67777357D02*
X195984761Y-67824976D01*
X196032380Y-67967833D01*
X196032380Y-68063071D01*
X195984761Y-68205928D01*
X195889523Y-68301166D01*
X195794285Y-68348785D01*
X195603809Y-68396404D01*
X195460952Y-68396404D01*
X195270476Y-68348785D01*
X195175238Y-68301166D01*
X195080000Y-68205928D01*
X195032380Y-68063071D01*
X195032380Y-67967833D01*
X195080000Y-67824976D01*
X195127619Y-67777357D01*
X196032380Y-66824976D02*
X196032380Y-67396404D01*
X196032380Y-67110690D02*
X195032380Y-67110690D01*
X195175238Y-67205928D01*
X195270476Y-67301166D01*
X195318095Y-67396404D01*
X196032380Y-66348785D02*
X196032380Y-66158309D01*
X195984761Y-66063071D01*
X195937142Y-66015452D01*
X195794285Y-65920214D01*
X195603809Y-65872595D01*
X195222857Y-65872595D01*
X195127619Y-65920214D01*
X195080000Y-65967833D01*
X195032380Y-66063071D01*
X195032380Y-66253547D01*
X195080000Y-66348785D01*
X195127619Y-66396404D01*
X195222857Y-66444023D01*
X195460952Y-66444023D01*
X195556190Y-66396404D01*
X195603809Y-66348785D01*
X195651428Y-66253547D01*
X195651428Y-66063071D01*
X195603809Y-65967833D01*
X195556190Y-65920214D01*
X195460952Y-65872595D01*
G04 #@! TO.C,C20*
X195937142Y-71254857D02*
X195984761Y-71302476D01*
X196032380Y-71445333D01*
X196032380Y-71540571D01*
X195984761Y-71683428D01*
X195889523Y-71778666D01*
X195794285Y-71826285D01*
X195603809Y-71873904D01*
X195460952Y-71873904D01*
X195270476Y-71826285D01*
X195175238Y-71778666D01*
X195080000Y-71683428D01*
X195032380Y-71540571D01*
X195032380Y-71445333D01*
X195080000Y-71302476D01*
X195127619Y-71254857D01*
X195127619Y-70873904D02*
X195080000Y-70826285D01*
X195032380Y-70731047D01*
X195032380Y-70492952D01*
X195080000Y-70397714D01*
X195127619Y-70350095D01*
X195222857Y-70302476D01*
X195318095Y-70302476D01*
X195460952Y-70350095D01*
X196032380Y-70921523D01*
X196032380Y-70302476D01*
X195032380Y-69683428D02*
X195032380Y-69588190D01*
X195080000Y-69492952D01*
X195127619Y-69445333D01*
X195222857Y-69397714D01*
X195413333Y-69350095D01*
X195651428Y-69350095D01*
X195841904Y-69397714D01*
X195937142Y-69445333D01*
X195984761Y-69492952D01*
X196032380Y-69588190D01*
X196032380Y-69683428D01*
X195984761Y-69778666D01*
X195937142Y-69826285D01*
X195841904Y-69873904D01*
X195651428Y-69921523D01*
X195413333Y-69921523D01*
X195222857Y-69873904D01*
X195127619Y-69826285D01*
X195080000Y-69778666D01*
X195032380Y-69683428D01*
G04 #@! TO.C,C21*
X186809142Y-73001142D02*
X186761523Y-73048761D01*
X186618666Y-73096380D01*
X186523428Y-73096380D01*
X186380571Y-73048761D01*
X186285333Y-72953523D01*
X186237714Y-72858285D01*
X186190095Y-72667809D01*
X186190095Y-72524952D01*
X186237714Y-72334476D01*
X186285333Y-72239238D01*
X186380571Y-72144000D01*
X186523428Y-72096380D01*
X186618666Y-72096380D01*
X186761523Y-72144000D01*
X186809142Y-72191619D01*
X187190095Y-72191619D02*
X187237714Y-72144000D01*
X187332952Y-72096380D01*
X187571047Y-72096380D01*
X187666285Y-72144000D01*
X187713904Y-72191619D01*
X187761523Y-72286857D01*
X187761523Y-72382095D01*
X187713904Y-72524952D01*
X187142476Y-73096380D01*
X187761523Y-73096380D01*
X188713904Y-73096380D02*
X188142476Y-73096380D01*
X188428190Y-73096380D02*
X188428190Y-72096380D01*
X188332952Y-72239238D01*
X188237714Y-72334476D01*
X188142476Y-72382095D01*
G04 #@! TO.C,J1*
X225837380Y-53903333D02*
X226551666Y-53903333D01*
X226694523Y-53950952D01*
X226789761Y-54046190D01*
X226837380Y-54189047D01*
X226837380Y-54284285D01*
X226837380Y-52903333D02*
X226837380Y-53474761D01*
X226837380Y-53189047D02*
X225837380Y-53189047D01*
X225980238Y-53284285D01*
X226075476Y-53379523D01*
X226123095Y-53474761D01*
G04 #@! TO.C,J2*
X225837380Y-66603333D02*
X226551666Y-66603333D01*
X226694523Y-66650952D01*
X226789761Y-66746190D01*
X226837380Y-66889047D01*
X226837380Y-66984285D01*
X225932619Y-66174761D02*
X225885000Y-66127142D01*
X225837380Y-66031904D01*
X225837380Y-65793809D01*
X225885000Y-65698571D01*
X225932619Y-65650952D01*
X226027857Y-65603333D01*
X226123095Y-65603333D01*
X226265952Y-65650952D01*
X226837380Y-66222380D01*
X226837380Y-65603333D01*
G04 #@! TO.C,Q1*
X186943619Y-32115238D02*
X186896000Y-32210476D01*
X186800761Y-32305714D01*
X186657904Y-32448571D01*
X186610285Y-32543809D01*
X186610285Y-32639047D01*
X186848380Y-32591428D02*
X186800761Y-32686666D01*
X186705523Y-32781904D01*
X186515047Y-32829523D01*
X186181714Y-32829523D01*
X185991238Y-32781904D01*
X185896000Y-32686666D01*
X185848380Y-32591428D01*
X185848380Y-32400952D01*
X185896000Y-32305714D01*
X185991238Y-32210476D01*
X186181714Y-32162857D01*
X186515047Y-32162857D01*
X186705523Y-32210476D01*
X186800761Y-32305714D01*
X186848380Y-32400952D01*
X186848380Y-32591428D01*
X186848380Y-31210476D02*
X186848380Y-31781904D01*
X186848380Y-31496190D02*
X185848380Y-31496190D01*
X185991238Y-31591428D01*
X186086476Y-31686666D01*
X186134095Y-31781904D01*
G04 #@! TO.C,Q2*
X192023619Y-35163238D02*
X191976000Y-35258476D01*
X191880761Y-35353714D01*
X191737904Y-35496571D01*
X191690285Y-35591809D01*
X191690285Y-35687047D01*
X191928380Y-35639428D02*
X191880761Y-35734666D01*
X191785523Y-35829904D01*
X191595047Y-35877523D01*
X191261714Y-35877523D01*
X191071238Y-35829904D01*
X190976000Y-35734666D01*
X190928380Y-35639428D01*
X190928380Y-35448952D01*
X190976000Y-35353714D01*
X191071238Y-35258476D01*
X191261714Y-35210857D01*
X191595047Y-35210857D01*
X191785523Y-35258476D01*
X191880761Y-35353714D01*
X191928380Y-35448952D01*
X191928380Y-35639428D01*
X191023619Y-34829904D02*
X190976000Y-34782285D01*
X190928380Y-34687047D01*
X190928380Y-34448952D01*
X190976000Y-34353714D01*
X191023619Y-34306095D01*
X191118857Y-34258476D01*
X191214095Y-34258476D01*
X191356952Y-34306095D01*
X191928380Y-34877523D01*
X191928380Y-34258476D01*
G04 #@! TO.C,Q3*
X186943619Y-38211238D02*
X186896000Y-38306476D01*
X186800761Y-38401714D01*
X186657904Y-38544571D01*
X186610285Y-38639809D01*
X186610285Y-38735047D01*
X186848380Y-38687428D02*
X186800761Y-38782666D01*
X186705523Y-38877904D01*
X186515047Y-38925523D01*
X186181714Y-38925523D01*
X185991238Y-38877904D01*
X185896000Y-38782666D01*
X185848380Y-38687428D01*
X185848380Y-38496952D01*
X185896000Y-38401714D01*
X185991238Y-38306476D01*
X186181714Y-38258857D01*
X186515047Y-38258857D01*
X186705523Y-38306476D01*
X186800761Y-38401714D01*
X186848380Y-38496952D01*
X186848380Y-38687428D01*
X185848380Y-37925523D02*
X185848380Y-37306476D01*
X186229333Y-37639809D01*
X186229333Y-37496952D01*
X186276952Y-37401714D01*
X186324571Y-37354095D01*
X186419809Y-37306476D01*
X186657904Y-37306476D01*
X186753142Y-37354095D01*
X186800761Y-37401714D01*
X186848380Y-37496952D01*
X186848380Y-37782666D01*
X186800761Y-37877904D01*
X186753142Y-37925523D01*
G04 #@! TO.C,Q4*
X192023619Y-41259238D02*
X191976000Y-41354476D01*
X191880761Y-41449714D01*
X191737904Y-41592571D01*
X191690285Y-41687809D01*
X191690285Y-41783047D01*
X191928380Y-41735428D02*
X191880761Y-41830666D01*
X191785523Y-41925904D01*
X191595047Y-41973523D01*
X191261714Y-41973523D01*
X191071238Y-41925904D01*
X190976000Y-41830666D01*
X190928380Y-41735428D01*
X190928380Y-41544952D01*
X190976000Y-41449714D01*
X191071238Y-41354476D01*
X191261714Y-41306857D01*
X191595047Y-41306857D01*
X191785523Y-41354476D01*
X191880761Y-41449714D01*
X191928380Y-41544952D01*
X191928380Y-41735428D01*
X191261714Y-40449714D02*
X191928380Y-40449714D01*
X190880761Y-40687809D02*
X191595047Y-40925904D01*
X191595047Y-40306857D01*
G04 #@! TO.C,Q6*
X186943619Y-44307238D02*
X186896000Y-44402476D01*
X186800761Y-44497714D01*
X186657904Y-44640571D01*
X186610285Y-44735809D01*
X186610285Y-44831047D01*
X186848380Y-44783428D02*
X186800761Y-44878666D01*
X186705523Y-44973904D01*
X186515047Y-45021523D01*
X186181714Y-45021523D01*
X185991238Y-44973904D01*
X185896000Y-44878666D01*
X185848380Y-44783428D01*
X185848380Y-44592952D01*
X185896000Y-44497714D01*
X185991238Y-44402476D01*
X186181714Y-44354857D01*
X186515047Y-44354857D01*
X186705523Y-44402476D01*
X186800761Y-44497714D01*
X186848380Y-44592952D01*
X186848380Y-44783428D01*
X185848380Y-43497714D02*
X185848380Y-43688190D01*
X185896000Y-43783428D01*
X185943619Y-43831047D01*
X186086476Y-43926285D01*
X186276952Y-43973904D01*
X186657904Y-43973904D01*
X186753142Y-43926285D01*
X186800761Y-43878666D01*
X186848380Y-43783428D01*
X186848380Y-43592952D01*
X186800761Y-43497714D01*
X186753142Y-43450095D01*
X186657904Y-43402476D01*
X186419809Y-43402476D01*
X186324571Y-43450095D01*
X186276952Y-43497714D01*
X186229333Y-43592952D01*
X186229333Y-43783428D01*
X186276952Y-43878666D01*
X186324571Y-43926285D01*
X186419809Y-43973904D01*
G04 #@! TO.C,Q7*
X192023619Y-51927238D02*
X191976000Y-52022476D01*
X191880761Y-52117714D01*
X191737904Y-52260571D01*
X191690285Y-52355809D01*
X191690285Y-52451047D01*
X191928380Y-52403428D02*
X191880761Y-52498666D01*
X191785523Y-52593904D01*
X191595047Y-52641523D01*
X191261714Y-52641523D01*
X191071238Y-52593904D01*
X190976000Y-52498666D01*
X190928380Y-52403428D01*
X190928380Y-52212952D01*
X190976000Y-52117714D01*
X191071238Y-52022476D01*
X191261714Y-51974857D01*
X191595047Y-51974857D01*
X191785523Y-52022476D01*
X191880761Y-52117714D01*
X191928380Y-52212952D01*
X191928380Y-52403428D01*
X190928380Y-51641523D02*
X190928380Y-50974857D01*
X191928380Y-51403428D01*
G04 #@! TO.C,Q8*
X186943619Y-54975238D02*
X186896000Y-55070476D01*
X186800761Y-55165714D01*
X186657904Y-55308571D01*
X186610285Y-55403809D01*
X186610285Y-55499047D01*
X186848380Y-55451428D02*
X186800761Y-55546666D01*
X186705523Y-55641904D01*
X186515047Y-55689523D01*
X186181714Y-55689523D01*
X185991238Y-55641904D01*
X185896000Y-55546666D01*
X185848380Y-55451428D01*
X185848380Y-55260952D01*
X185896000Y-55165714D01*
X185991238Y-55070476D01*
X186181714Y-55022857D01*
X186515047Y-55022857D01*
X186705523Y-55070476D01*
X186800761Y-55165714D01*
X186848380Y-55260952D01*
X186848380Y-55451428D01*
X186276952Y-54451428D02*
X186229333Y-54546666D01*
X186181714Y-54594285D01*
X186086476Y-54641904D01*
X186038857Y-54641904D01*
X185943619Y-54594285D01*
X185896000Y-54546666D01*
X185848380Y-54451428D01*
X185848380Y-54260952D01*
X185896000Y-54165714D01*
X185943619Y-54118095D01*
X186038857Y-54070476D01*
X186086476Y-54070476D01*
X186181714Y-54118095D01*
X186229333Y-54165714D01*
X186276952Y-54260952D01*
X186276952Y-54451428D01*
X186324571Y-54546666D01*
X186372190Y-54594285D01*
X186467428Y-54641904D01*
X186657904Y-54641904D01*
X186753142Y-54594285D01*
X186800761Y-54546666D01*
X186848380Y-54451428D01*
X186848380Y-54260952D01*
X186800761Y-54165714D01*
X186753142Y-54118095D01*
X186657904Y-54070476D01*
X186467428Y-54070476D01*
X186372190Y-54118095D01*
X186324571Y-54165714D01*
X186276952Y-54260952D01*
G04 #@! TO.C,Q9*
X192023619Y-57515238D02*
X191976000Y-57610476D01*
X191880761Y-57705714D01*
X191737904Y-57848571D01*
X191690285Y-57943809D01*
X191690285Y-58039047D01*
X191928380Y-57991428D02*
X191880761Y-58086666D01*
X191785523Y-58181904D01*
X191595047Y-58229523D01*
X191261714Y-58229523D01*
X191071238Y-58181904D01*
X190976000Y-58086666D01*
X190928380Y-57991428D01*
X190928380Y-57800952D01*
X190976000Y-57705714D01*
X191071238Y-57610476D01*
X191261714Y-57562857D01*
X191595047Y-57562857D01*
X191785523Y-57610476D01*
X191880761Y-57705714D01*
X191928380Y-57800952D01*
X191928380Y-57991428D01*
X191928380Y-57086666D02*
X191928380Y-56896190D01*
X191880761Y-56800952D01*
X191833142Y-56753333D01*
X191690285Y-56658095D01*
X191499809Y-56610476D01*
X191118857Y-56610476D01*
X191023619Y-56658095D01*
X190976000Y-56705714D01*
X190928380Y-56800952D01*
X190928380Y-56991428D01*
X190976000Y-57086666D01*
X191023619Y-57134285D01*
X191118857Y-57181904D01*
X191356952Y-57181904D01*
X191452190Y-57134285D01*
X191499809Y-57086666D01*
X191547428Y-56991428D01*
X191547428Y-56800952D01*
X191499809Y-56705714D01*
X191452190Y-56658095D01*
X191356952Y-56610476D01*
G04 #@! TO.C,Q10*
X186943619Y-61039428D02*
X186896000Y-61134666D01*
X186800761Y-61229904D01*
X186657904Y-61372761D01*
X186610285Y-61468000D01*
X186610285Y-61563238D01*
X186848380Y-61515619D02*
X186800761Y-61610857D01*
X186705523Y-61706095D01*
X186515047Y-61753714D01*
X186181714Y-61753714D01*
X185991238Y-61706095D01*
X185896000Y-61610857D01*
X185848380Y-61515619D01*
X185848380Y-61325142D01*
X185896000Y-61229904D01*
X185991238Y-61134666D01*
X186181714Y-61087047D01*
X186515047Y-61087047D01*
X186705523Y-61134666D01*
X186800761Y-61229904D01*
X186848380Y-61325142D01*
X186848380Y-61515619D01*
X186848380Y-60134666D02*
X186848380Y-60706095D01*
X186848380Y-60420380D02*
X185848380Y-60420380D01*
X185991238Y-60515619D01*
X186086476Y-60610857D01*
X186134095Y-60706095D01*
X185848380Y-59515619D02*
X185848380Y-59420380D01*
X185896000Y-59325142D01*
X185943619Y-59277523D01*
X186038857Y-59229904D01*
X186229333Y-59182285D01*
X186467428Y-59182285D01*
X186657904Y-59229904D01*
X186753142Y-59277523D01*
X186800761Y-59325142D01*
X186848380Y-59420380D01*
X186848380Y-59515619D01*
X186800761Y-59610857D01*
X186753142Y-59658476D01*
X186657904Y-59706095D01*
X186467428Y-59753714D01*
X186229333Y-59753714D01*
X186038857Y-59706095D01*
X185943619Y-59658476D01*
X185896000Y-59610857D01*
X185848380Y-59515619D01*
G04 #@! TO.C,Q11*
X192023619Y-64087428D02*
X191976000Y-64182666D01*
X191880761Y-64277904D01*
X191737904Y-64420761D01*
X191690285Y-64516000D01*
X191690285Y-64611238D01*
X191928380Y-64563619D02*
X191880761Y-64658857D01*
X191785523Y-64754095D01*
X191595047Y-64801714D01*
X191261714Y-64801714D01*
X191071238Y-64754095D01*
X190976000Y-64658857D01*
X190928380Y-64563619D01*
X190928380Y-64373142D01*
X190976000Y-64277904D01*
X191071238Y-64182666D01*
X191261714Y-64135047D01*
X191595047Y-64135047D01*
X191785523Y-64182666D01*
X191880761Y-64277904D01*
X191928380Y-64373142D01*
X191928380Y-64563619D01*
X191928380Y-63182666D02*
X191928380Y-63754095D01*
X191928380Y-63468380D02*
X190928380Y-63468380D01*
X191071238Y-63563619D01*
X191166476Y-63658857D01*
X191214095Y-63754095D01*
X191928380Y-62230285D02*
X191928380Y-62801714D01*
X191928380Y-62516000D02*
X190928380Y-62516000D01*
X191071238Y-62611238D01*
X191166476Y-62706476D01*
X191214095Y-62801714D01*
G04 #@! TO.C,Q12*
X186943619Y-67103428D02*
X186896000Y-67198666D01*
X186800761Y-67293904D01*
X186657904Y-67436761D01*
X186610285Y-67532000D01*
X186610285Y-67627238D01*
X186848380Y-67579619D02*
X186800761Y-67674857D01*
X186705523Y-67770095D01*
X186515047Y-67817714D01*
X186181714Y-67817714D01*
X185991238Y-67770095D01*
X185896000Y-67674857D01*
X185848380Y-67579619D01*
X185848380Y-67389142D01*
X185896000Y-67293904D01*
X185991238Y-67198666D01*
X186181714Y-67151047D01*
X186515047Y-67151047D01*
X186705523Y-67198666D01*
X186800761Y-67293904D01*
X186848380Y-67389142D01*
X186848380Y-67579619D01*
X186848380Y-66198666D02*
X186848380Y-66770095D01*
X186848380Y-66484380D02*
X185848380Y-66484380D01*
X185991238Y-66579619D01*
X186086476Y-66674857D01*
X186134095Y-66770095D01*
X185943619Y-65817714D02*
X185896000Y-65770095D01*
X185848380Y-65674857D01*
X185848380Y-65436761D01*
X185896000Y-65341523D01*
X185943619Y-65293904D01*
X186038857Y-65246285D01*
X186134095Y-65246285D01*
X186276952Y-65293904D01*
X186848380Y-65865333D01*
X186848380Y-65246285D01*
G04 #@! TO.C,Q13*
X192023619Y-70183428D02*
X191976000Y-70278666D01*
X191880761Y-70373904D01*
X191737904Y-70516761D01*
X191690285Y-70612000D01*
X191690285Y-70707238D01*
X191928380Y-70659619D02*
X191880761Y-70754857D01*
X191785523Y-70850095D01*
X191595047Y-70897714D01*
X191261714Y-70897714D01*
X191071238Y-70850095D01*
X190976000Y-70754857D01*
X190928380Y-70659619D01*
X190928380Y-70469142D01*
X190976000Y-70373904D01*
X191071238Y-70278666D01*
X191261714Y-70231047D01*
X191595047Y-70231047D01*
X191785523Y-70278666D01*
X191880761Y-70373904D01*
X191928380Y-70469142D01*
X191928380Y-70659619D01*
X191928380Y-69278666D02*
X191928380Y-69850095D01*
X191928380Y-69564380D02*
X190928380Y-69564380D01*
X191071238Y-69659619D01*
X191166476Y-69754857D01*
X191214095Y-69850095D01*
X190928380Y-68945333D02*
X190928380Y-68326285D01*
X191309333Y-68659619D01*
X191309333Y-68516761D01*
X191356952Y-68421523D01*
X191404571Y-68373904D01*
X191499809Y-68326285D01*
X191737904Y-68326285D01*
X191833142Y-68373904D01*
X191880761Y-68421523D01*
X191928380Y-68516761D01*
X191928380Y-68802476D01*
X191880761Y-68897714D01*
X191833142Y-68945333D01*
G04 #@! TO.C,R1*
X184745333Y-26106380D02*
X184412000Y-25630190D01*
X184173904Y-26106380D02*
X184173904Y-25106380D01*
X184554857Y-25106380D01*
X184650095Y-25154000D01*
X184697714Y-25201619D01*
X184745333Y-25296857D01*
X184745333Y-25439714D01*
X184697714Y-25534952D01*
X184650095Y-25582571D01*
X184554857Y-25630190D01*
X184173904Y-25630190D01*
X185697714Y-26106380D02*
X185126285Y-26106380D01*
X185412000Y-26106380D02*
X185412000Y-25106380D01*
X185316761Y-25249238D01*
X185221523Y-25344476D01*
X185126285Y-25392095D01*
G04 #@! TO.C,R2*
X179157333Y-29408380D02*
X178824000Y-28932190D01*
X178585904Y-29408380D02*
X178585904Y-28408380D01*
X178966857Y-28408380D01*
X179062095Y-28456000D01*
X179109714Y-28503619D01*
X179157333Y-28598857D01*
X179157333Y-28741714D01*
X179109714Y-28836952D01*
X179062095Y-28884571D01*
X178966857Y-28932190D01*
X178585904Y-28932190D01*
X179538285Y-28503619D02*
X179585904Y-28456000D01*
X179681142Y-28408380D01*
X179919238Y-28408380D01*
X180014476Y-28456000D01*
X180062095Y-28503619D01*
X180109714Y-28598857D01*
X180109714Y-28694095D01*
X180062095Y-28836952D01*
X179490666Y-29408380D01*
X180109714Y-29408380D01*
G04 #@! TO.C,R3*
X176187833Y-24710380D02*
X175854500Y-24234190D01*
X175616404Y-24710380D02*
X175616404Y-23710380D01*
X175997357Y-23710380D01*
X176092595Y-23758000D01*
X176140214Y-23805619D01*
X176187833Y-23900857D01*
X176187833Y-24043714D01*
X176140214Y-24138952D01*
X176092595Y-24186571D01*
X175997357Y-24234190D01*
X175616404Y-24234190D01*
X176521166Y-23710380D02*
X177140214Y-23710380D01*
X176806880Y-24091333D01*
X176949738Y-24091333D01*
X177044976Y-24138952D01*
X177092595Y-24186571D01*
X177140214Y-24281809D01*
X177140214Y-24519904D01*
X177092595Y-24615142D01*
X177044976Y-24662761D01*
X176949738Y-24710380D01*
X176664023Y-24710380D01*
X176568785Y-24662761D01*
X176521166Y-24615142D01*
G04 #@! TO.C,R5*
X179157333Y-32456380D02*
X178824000Y-31980190D01*
X178585904Y-32456380D02*
X178585904Y-31456380D01*
X178966857Y-31456380D01*
X179062095Y-31504000D01*
X179109714Y-31551619D01*
X179157333Y-31646857D01*
X179157333Y-31789714D01*
X179109714Y-31884952D01*
X179062095Y-31932571D01*
X178966857Y-31980190D01*
X178585904Y-31980190D01*
X180062095Y-31456380D02*
X179585904Y-31456380D01*
X179538285Y-31932571D01*
X179585904Y-31884952D01*
X179681142Y-31837333D01*
X179919238Y-31837333D01*
X180014476Y-31884952D01*
X180062095Y-31932571D01*
X180109714Y-32027809D01*
X180109714Y-32265904D01*
X180062095Y-32361142D01*
X180014476Y-32408761D01*
X179919238Y-32456380D01*
X179681142Y-32456380D01*
X179585904Y-32408761D01*
X179538285Y-32361142D01*
G04 #@! TO.C,R7*
X179314333Y-35504380D02*
X178981000Y-35028190D01*
X178742904Y-35504380D02*
X178742904Y-34504380D01*
X179123857Y-34504380D01*
X179219095Y-34552000D01*
X179266714Y-34599619D01*
X179314333Y-34694857D01*
X179314333Y-34837714D01*
X179266714Y-34932952D01*
X179219095Y-34980571D01*
X179123857Y-35028190D01*
X178742904Y-35028190D01*
X179647666Y-34504380D02*
X180314333Y-34504380D01*
X179885761Y-35504380D01*
G04 #@! TO.C,R9*
X179157333Y-38552380D02*
X178824000Y-38076190D01*
X178585904Y-38552380D02*
X178585904Y-37552380D01*
X178966857Y-37552380D01*
X179062095Y-37600000D01*
X179109714Y-37647619D01*
X179157333Y-37742857D01*
X179157333Y-37885714D01*
X179109714Y-37980952D01*
X179062095Y-38028571D01*
X178966857Y-38076190D01*
X178585904Y-38076190D01*
X179633523Y-38552380D02*
X179824000Y-38552380D01*
X179919238Y-38504761D01*
X179966857Y-38457142D01*
X180062095Y-38314285D01*
X180109714Y-38123809D01*
X180109714Y-37742857D01*
X180062095Y-37647619D01*
X180014476Y-37600000D01*
X179919238Y-37552380D01*
X179728761Y-37552380D01*
X179633523Y-37600000D01*
X179585904Y-37647619D01*
X179538285Y-37742857D01*
X179538285Y-37980952D01*
X179585904Y-38076190D01*
X179633523Y-38123809D01*
X179728761Y-38171428D01*
X179919238Y-38171428D01*
X180014476Y-38123809D01*
X180062095Y-38076190D01*
X180109714Y-37980952D01*
G04 #@! TO.C,R11*
X179189142Y-41600380D02*
X178855809Y-41124190D01*
X178617714Y-41600380D02*
X178617714Y-40600380D01*
X178998666Y-40600380D01*
X179093904Y-40648000D01*
X179141523Y-40695619D01*
X179189142Y-40790857D01*
X179189142Y-40933714D01*
X179141523Y-41028952D01*
X179093904Y-41076571D01*
X178998666Y-41124190D01*
X178617714Y-41124190D01*
X180141523Y-41600380D02*
X179570095Y-41600380D01*
X179855809Y-41600380D02*
X179855809Y-40600380D01*
X179760571Y-40743238D01*
X179665333Y-40838476D01*
X179570095Y-40886095D01*
X181093904Y-41600380D02*
X180522476Y-41600380D01*
X180808190Y-41600380D02*
X180808190Y-40600380D01*
X180712952Y-40743238D01*
X180617714Y-40838476D01*
X180522476Y-40886095D01*
G04 #@! TO.C,R13*
X179189142Y-44648380D02*
X178855809Y-44172190D01*
X178617714Y-44648380D02*
X178617714Y-43648380D01*
X178998666Y-43648380D01*
X179093904Y-43696000D01*
X179141523Y-43743619D01*
X179189142Y-43838857D01*
X179189142Y-43981714D01*
X179141523Y-44076952D01*
X179093904Y-44124571D01*
X178998666Y-44172190D01*
X178617714Y-44172190D01*
X180141523Y-44648380D02*
X179570095Y-44648380D01*
X179855809Y-44648380D02*
X179855809Y-43648380D01*
X179760571Y-43791238D01*
X179665333Y-43886476D01*
X179570095Y-43934095D01*
X180474857Y-43648380D02*
X181093904Y-43648380D01*
X180760571Y-44029333D01*
X180903428Y-44029333D01*
X180998666Y-44076952D01*
X181046285Y-44124571D01*
X181093904Y-44219809D01*
X181093904Y-44457904D01*
X181046285Y-44553142D01*
X180998666Y-44600761D01*
X180903428Y-44648380D01*
X180617714Y-44648380D01*
X180522476Y-44600761D01*
X180474857Y-44553142D01*
G04 #@! TO.C,R15*
X179189142Y-51760380D02*
X178855809Y-51284190D01*
X178617714Y-51760380D02*
X178617714Y-50760380D01*
X178998666Y-50760380D01*
X179093904Y-50808000D01*
X179141523Y-50855619D01*
X179189142Y-50950857D01*
X179189142Y-51093714D01*
X179141523Y-51188952D01*
X179093904Y-51236571D01*
X178998666Y-51284190D01*
X178617714Y-51284190D01*
X180141523Y-51760380D02*
X179570095Y-51760380D01*
X179855809Y-51760380D02*
X179855809Y-50760380D01*
X179760571Y-50903238D01*
X179665333Y-50998476D01*
X179570095Y-51046095D01*
X181046285Y-50760380D02*
X180570095Y-50760380D01*
X180522476Y-51236571D01*
X180570095Y-51188952D01*
X180665333Y-51141333D01*
X180903428Y-51141333D01*
X180998666Y-51188952D01*
X181046285Y-51236571D01*
X181093904Y-51331809D01*
X181093904Y-51569904D01*
X181046285Y-51665142D01*
X180998666Y-51712761D01*
X180903428Y-51760380D01*
X180665333Y-51760380D01*
X180570095Y-51712761D01*
X180522476Y-51665142D01*
G04 #@! TO.C,R16*
X205605142Y-40584380D02*
X205271809Y-40108190D01*
X205033714Y-40584380D02*
X205033714Y-39584380D01*
X205414666Y-39584380D01*
X205509904Y-39632000D01*
X205557523Y-39679619D01*
X205605142Y-39774857D01*
X205605142Y-39917714D01*
X205557523Y-40012952D01*
X205509904Y-40060571D01*
X205414666Y-40108190D01*
X205033714Y-40108190D01*
X206557523Y-40584380D02*
X205986095Y-40584380D01*
X206271809Y-40584380D02*
X206271809Y-39584380D01*
X206176571Y-39727238D01*
X206081333Y-39822476D01*
X205986095Y-39870095D01*
X207414666Y-39584380D02*
X207224190Y-39584380D01*
X207128952Y-39632000D01*
X207081333Y-39679619D01*
X206986095Y-39822476D01*
X206938476Y-40012952D01*
X206938476Y-40393904D01*
X206986095Y-40489142D01*
X207033714Y-40536761D01*
X207128952Y-40584380D01*
X207319428Y-40584380D01*
X207414666Y-40536761D01*
X207462285Y-40489142D01*
X207509904Y-40393904D01*
X207509904Y-40155809D01*
X207462285Y-40060571D01*
X207414666Y-40012952D01*
X207319428Y-39965333D01*
X207128952Y-39965333D01*
X207033714Y-40012952D01*
X206986095Y-40060571D01*
X206938476Y-40155809D01*
G04 #@! TO.C,R17*
X213225142Y-40584380D02*
X212891809Y-40108190D01*
X212653714Y-40584380D02*
X212653714Y-39584380D01*
X213034666Y-39584380D01*
X213129904Y-39632000D01*
X213177523Y-39679619D01*
X213225142Y-39774857D01*
X213225142Y-39917714D01*
X213177523Y-40012952D01*
X213129904Y-40060571D01*
X213034666Y-40108190D01*
X212653714Y-40108190D01*
X214177523Y-40584380D02*
X213606095Y-40584380D01*
X213891809Y-40584380D02*
X213891809Y-39584380D01*
X213796571Y-39727238D01*
X213701333Y-39822476D01*
X213606095Y-39870095D01*
X214510857Y-39584380D02*
X215177523Y-39584380D01*
X214748952Y-40584380D01*
G04 #@! TO.C,R19*
X179189142Y-54808380D02*
X178855809Y-54332190D01*
X178617714Y-54808380D02*
X178617714Y-53808380D01*
X178998666Y-53808380D01*
X179093904Y-53856000D01*
X179141523Y-53903619D01*
X179189142Y-53998857D01*
X179189142Y-54141714D01*
X179141523Y-54236952D01*
X179093904Y-54284571D01*
X178998666Y-54332190D01*
X178617714Y-54332190D01*
X180141523Y-54808380D02*
X179570095Y-54808380D01*
X179855809Y-54808380D02*
X179855809Y-53808380D01*
X179760571Y-53951238D01*
X179665333Y-54046476D01*
X179570095Y-54094095D01*
X180617714Y-54808380D02*
X180808190Y-54808380D01*
X180903428Y-54760761D01*
X180951047Y-54713142D01*
X181046285Y-54570285D01*
X181093904Y-54379809D01*
X181093904Y-53998857D01*
X181046285Y-53903619D01*
X180998666Y-53856000D01*
X180903428Y-53808380D01*
X180712952Y-53808380D01*
X180617714Y-53856000D01*
X180570095Y-53903619D01*
X180522476Y-53998857D01*
X180522476Y-54236952D01*
X180570095Y-54332190D01*
X180617714Y-54379809D01*
X180712952Y-54427428D01*
X180903428Y-54427428D01*
X180998666Y-54379809D01*
X181046285Y-54332190D01*
X181093904Y-54236952D01*
G04 #@! TO.C,R20*
X217289142Y-48204380D02*
X216955809Y-47728190D01*
X216717714Y-48204380D02*
X216717714Y-47204380D01*
X217098666Y-47204380D01*
X217193904Y-47252000D01*
X217241523Y-47299619D01*
X217289142Y-47394857D01*
X217289142Y-47537714D01*
X217241523Y-47632952D01*
X217193904Y-47680571D01*
X217098666Y-47728190D01*
X216717714Y-47728190D01*
X217670095Y-47299619D02*
X217717714Y-47252000D01*
X217812952Y-47204380D01*
X218051047Y-47204380D01*
X218146285Y-47252000D01*
X218193904Y-47299619D01*
X218241523Y-47394857D01*
X218241523Y-47490095D01*
X218193904Y-47632952D01*
X217622476Y-48204380D01*
X218241523Y-48204380D01*
X218860571Y-47204380D02*
X218955809Y-47204380D01*
X219051047Y-47252000D01*
X219098666Y-47299619D01*
X219146285Y-47394857D01*
X219193904Y-47585333D01*
X219193904Y-47823428D01*
X219146285Y-48013904D01*
X219098666Y-48109142D01*
X219051047Y-48156761D01*
X218955809Y-48204380D01*
X218860571Y-48204380D01*
X218765333Y-48156761D01*
X218717714Y-48109142D01*
X218670095Y-48013904D01*
X218622476Y-47823428D01*
X218622476Y-47585333D01*
X218670095Y-47394857D01*
X218717714Y-47299619D01*
X218765333Y-47252000D01*
X218860571Y-47204380D01*
G04 #@! TO.C,R22*
X179189142Y-57856380D02*
X178855809Y-57380190D01*
X178617714Y-57856380D02*
X178617714Y-56856380D01*
X178998666Y-56856380D01*
X179093904Y-56904000D01*
X179141523Y-56951619D01*
X179189142Y-57046857D01*
X179189142Y-57189714D01*
X179141523Y-57284952D01*
X179093904Y-57332571D01*
X178998666Y-57380190D01*
X178617714Y-57380190D01*
X179570095Y-56951619D02*
X179617714Y-56904000D01*
X179712952Y-56856380D01*
X179951047Y-56856380D01*
X180046285Y-56904000D01*
X180093904Y-56951619D01*
X180141523Y-57046857D01*
X180141523Y-57142095D01*
X180093904Y-57284952D01*
X179522476Y-57856380D01*
X180141523Y-57856380D01*
X180522476Y-56951619D02*
X180570095Y-56904000D01*
X180665333Y-56856380D01*
X180903428Y-56856380D01*
X180998666Y-56904000D01*
X181046285Y-56951619D01*
X181093904Y-57046857D01*
X181093904Y-57142095D01*
X181046285Y-57284952D01*
X180474857Y-57856380D01*
X181093904Y-57856380D01*
G04 #@! TO.C,R23*
X217289142Y-50236380D02*
X216955809Y-49760190D01*
X216717714Y-50236380D02*
X216717714Y-49236380D01*
X217098666Y-49236380D01*
X217193904Y-49284000D01*
X217241523Y-49331619D01*
X217289142Y-49426857D01*
X217289142Y-49569714D01*
X217241523Y-49664952D01*
X217193904Y-49712571D01*
X217098666Y-49760190D01*
X216717714Y-49760190D01*
X217670095Y-49331619D02*
X217717714Y-49284000D01*
X217812952Y-49236380D01*
X218051047Y-49236380D01*
X218146285Y-49284000D01*
X218193904Y-49331619D01*
X218241523Y-49426857D01*
X218241523Y-49522095D01*
X218193904Y-49664952D01*
X217622476Y-50236380D01*
X218241523Y-50236380D01*
X218574857Y-49236380D02*
X219193904Y-49236380D01*
X218860571Y-49617333D01*
X219003428Y-49617333D01*
X219098666Y-49664952D01*
X219146285Y-49712571D01*
X219193904Y-49807809D01*
X219193904Y-50045904D01*
X219146285Y-50141142D01*
X219098666Y-50188761D01*
X219003428Y-50236380D01*
X218717714Y-50236380D01*
X218622476Y-50188761D01*
X218574857Y-50141142D01*
G04 #@! TO.C,R24*
X218305142Y-60904380D02*
X217971809Y-60428190D01*
X217733714Y-60904380D02*
X217733714Y-59904380D01*
X218114666Y-59904380D01*
X218209904Y-59952000D01*
X218257523Y-59999619D01*
X218305142Y-60094857D01*
X218305142Y-60237714D01*
X218257523Y-60332952D01*
X218209904Y-60380571D01*
X218114666Y-60428190D01*
X217733714Y-60428190D01*
X218686095Y-59999619D02*
X218733714Y-59952000D01*
X218828952Y-59904380D01*
X219067047Y-59904380D01*
X219162285Y-59952000D01*
X219209904Y-59999619D01*
X219257523Y-60094857D01*
X219257523Y-60190095D01*
X219209904Y-60332952D01*
X218638476Y-60904380D01*
X219257523Y-60904380D01*
X220114666Y-60237714D02*
X220114666Y-60904380D01*
X219876571Y-59856761D02*
X219638476Y-60571047D01*
X220257523Y-60571047D01*
G04 #@! TO.C,R26*
X179189142Y-60904380D02*
X178855809Y-60428190D01*
X178617714Y-60904380D02*
X178617714Y-59904380D01*
X178998666Y-59904380D01*
X179093904Y-59952000D01*
X179141523Y-59999619D01*
X179189142Y-60094857D01*
X179189142Y-60237714D01*
X179141523Y-60332952D01*
X179093904Y-60380571D01*
X178998666Y-60428190D01*
X178617714Y-60428190D01*
X179570095Y-59999619D02*
X179617714Y-59952000D01*
X179712952Y-59904380D01*
X179951047Y-59904380D01*
X180046285Y-59952000D01*
X180093904Y-59999619D01*
X180141523Y-60094857D01*
X180141523Y-60190095D01*
X180093904Y-60332952D01*
X179522476Y-60904380D01*
X180141523Y-60904380D01*
X180998666Y-59904380D02*
X180808190Y-59904380D01*
X180712952Y-59952000D01*
X180665333Y-59999619D01*
X180570095Y-60142476D01*
X180522476Y-60332952D01*
X180522476Y-60713904D01*
X180570095Y-60809142D01*
X180617714Y-60856761D01*
X180712952Y-60904380D01*
X180903428Y-60904380D01*
X180998666Y-60856761D01*
X181046285Y-60809142D01*
X181093904Y-60713904D01*
X181093904Y-60475809D01*
X181046285Y-60380571D01*
X180998666Y-60332952D01*
X180903428Y-60285333D01*
X180712952Y-60285333D01*
X180617714Y-60332952D01*
X180570095Y-60380571D01*
X180522476Y-60475809D01*
G04 #@! TO.C,R27*
X218305142Y-62936380D02*
X217971809Y-62460190D01*
X217733714Y-62936380D02*
X217733714Y-61936380D01*
X218114666Y-61936380D01*
X218209904Y-61984000D01*
X218257523Y-62031619D01*
X218305142Y-62126857D01*
X218305142Y-62269714D01*
X218257523Y-62364952D01*
X218209904Y-62412571D01*
X218114666Y-62460190D01*
X217733714Y-62460190D01*
X218686095Y-62031619D02*
X218733714Y-61984000D01*
X218828952Y-61936380D01*
X219067047Y-61936380D01*
X219162285Y-61984000D01*
X219209904Y-62031619D01*
X219257523Y-62126857D01*
X219257523Y-62222095D01*
X219209904Y-62364952D01*
X218638476Y-62936380D01*
X219257523Y-62936380D01*
X219590857Y-61936380D02*
X220257523Y-61936380D01*
X219828952Y-62936380D01*
G04 #@! TO.C,R29*
X179189142Y-63952380D02*
X178855809Y-63476190D01*
X178617714Y-63952380D02*
X178617714Y-62952380D01*
X178998666Y-62952380D01*
X179093904Y-63000000D01*
X179141523Y-63047619D01*
X179189142Y-63142857D01*
X179189142Y-63285714D01*
X179141523Y-63380952D01*
X179093904Y-63428571D01*
X178998666Y-63476190D01*
X178617714Y-63476190D01*
X179570095Y-63047619D02*
X179617714Y-63000000D01*
X179712952Y-62952380D01*
X179951047Y-62952380D01*
X180046285Y-63000000D01*
X180093904Y-63047619D01*
X180141523Y-63142857D01*
X180141523Y-63238095D01*
X180093904Y-63380952D01*
X179522476Y-63952380D01*
X180141523Y-63952380D01*
X180617714Y-63952380D02*
X180808190Y-63952380D01*
X180903428Y-63904761D01*
X180951047Y-63857142D01*
X181046285Y-63714285D01*
X181093904Y-63523809D01*
X181093904Y-63142857D01*
X181046285Y-63047619D01*
X180998666Y-63000000D01*
X180903428Y-62952380D01*
X180712952Y-62952380D01*
X180617714Y-63000000D01*
X180570095Y-63047619D01*
X180522476Y-63142857D01*
X180522476Y-63380952D01*
X180570095Y-63476190D01*
X180617714Y-63523809D01*
X180712952Y-63571428D01*
X180903428Y-63571428D01*
X180998666Y-63523809D01*
X181046285Y-63476190D01*
X181093904Y-63380952D01*
G04 #@! TO.C,R31*
X179189142Y-67000380D02*
X178855809Y-66524190D01*
X178617714Y-67000380D02*
X178617714Y-66000380D01*
X178998666Y-66000380D01*
X179093904Y-66048000D01*
X179141523Y-66095619D01*
X179189142Y-66190857D01*
X179189142Y-66333714D01*
X179141523Y-66428952D01*
X179093904Y-66476571D01*
X178998666Y-66524190D01*
X178617714Y-66524190D01*
X179522476Y-66000380D02*
X180141523Y-66000380D01*
X179808190Y-66381333D01*
X179951047Y-66381333D01*
X180046285Y-66428952D01*
X180093904Y-66476571D01*
X180141523Y-66571809D01*
X180141523Y-66809904D01*
X180093904Y-66905142D01*
X180046285Y-66952761D01*
X179951047Y-67000380D01*
X179665333Y-67000380D01*
X179570095Y-66952761D01*
X179522476Y-66905142D01*
X181093904Y-67000380D02*
X180522476Y-67000380D01*
X180808190Y-67000380D02*
X180808190Y-66000380D01*
X180712952Y-66143238D01*
X180617714Y-66238476D01*
X180522476Y-66286095D01*
G04 #@! TD*
M02*
