G04 #@! TF.GenerationSoftware,KiCad,Pcbnew,(5.0.0)*
G04 #@! TF.CreationDate,2019-01-26T22:59:54-06:00*
G04 #@! TF.ProjectId,BPSVoltage,425053566F6C746167652E6B69636164,rev?*
G04 #@! TF.SameCoordinates,Original*
G04 #@! TF.FileFunction,Legend,Bot*
G04 #@! TF.FilePolarity,Positive*
%FSLAX46Y46*%
G04 Gerber Fmt 4.6, Leading zero omitted, Abs format (unit mm)*
G04 Created by KiCad (PCBNEW (5.0.0)) date 01/26/19 22:59:54*
%MOMM*%
%LPD*%
G01*
G04 APERTURE LIST*
%ADD10C,0.120000*%
%ADD11C,0.150000*%
G04 APERTURE END LIST*
D10*
G04 #@! TO.C,R4*
X175895936Y-30294000D02*
X180000064Y-30294000D01*
X175895936Y-33714000D02*
X180000064Y-33714000D01*
G04 #@! TO.C,R6*
X184023936Y-36762000D02*
X188128064Y-36762000D01*
X184023936Y-33342000D02*
X188128064Y-33342000D01*
G04 #@! TO.C,R8*
X175895936Y-36771000D02*
X180000064Y-36771000D01*
X175895936Y-40191000D02*
X180000064Y-40191000D01*
G04 #@! TO.C,R10*
X184023936Y-42858000D02*
X188128064Y-42858000D01*
X184023936Y-39438000D02*
X188128064Y-39438000D01*
G04 #@! TO.C,R12*
X175895936Y-42486000D02*
X180000064Y-42486000D01*
X175895936Y-45906000D02*
X180000064Y-45906000D01*
G04 #@! TO.C,R14*
X184023936Y-54034000D02*
X188128064Y-54034000D01*
X184023936Y-50614000D02*
X188128064Y-50614000D01*
G04 #@! TO.C,R18*
X175895936Y-53154000D02*
X180000064Y-53154000D01*
X175895936Y-56574000D02*
X180000064Y-56574000D01*
G04 #@! TO.C,R21*
X184023936Y-59622000D02*
X188128064Y-59622000D01*
X184023936Y-56202000D02*
X188128064Y-56202000D01*
G04 #@! TO.C,R25*
X175895936Y-58996000D02*
X180000064Y-58996000D01*
X175895936Y-62416000D02*
X180000064Y-62416000D01*
G04 #@! TO.C,R28*
X184023936Y-65210000D02*
X188128064Y-65210000D01*
X184023936Y-61790000D02*
X188128064Y-61790000D01*
G04 #@! TO.C,R30*
X175895936Y-64711000D02*
X180000064Y-64711000D01*
X175895936Y-68131000D02*
X180000064Y-68131000D01*
G04 #@! TO.C,R32*
X184023936Y-71306000D02*
X188128064Y-71306000D01*
X184023936Y-67886000D02*
X188128064Y-67886000D01*
G04 #@! TO.C,R4*
D11*
X178114666Y-35076380D02*
X178448000Y-34600190D01*
X178686095Y-35076380D02*
X178686095Y-34076380D01*
X178305142Y-34076380D01*
X178209904Y-34124000D01*
X178162285Y-34171619D01*
X178114666Y-34266857D01*
X178114666Y-34409714D01*
X178162285Y-34504952D01*
X178209904Y-34552571D01*
X178305142Y-34600190D01*
X178686095Y-34600190D01*
X177257523Y-34409714D02*
X177257523Y-35076380D01*
X177495619Y-34028761D02*
X177733714Y-34743047D01*
X177114666Y-34743047D01*
G04 #@! TO.C,R6*
X186242666Y-38124380D02*
X186576000Y-37648190D01*
X186814095Y-38124380D02*
X186814095Y-37124380D01*
X186433142Y-37124380D01*
X186337904Y-37172000D01*
X186290285Y-37219619D01*
X186242666Y-37314857D01*
X186242666Y-37457714D01*
X186290285Y-37552952D01*
X186337904Y-37600571D01*
X186433142Y-37648190D01*
X186814095Y-37648190D01*
X185385523Y-37124380D02*
X185576000Y-37124380D01*
X185671238Y-37172000D01*
X185718857Y-37219619D01*
X185814095Y-37362476D01*
X185861714Y-37552952D01*
X185861714Y-37933904D01*
X185814095Y-38029142D01*
X185766476Y-38076761D01*
X185671238Y-38124380D01*
X185480761Y-38124380D01*
X185385523Y-38076761D01*
X185337904Y-38029142D01*
X185290285Y-37933904D01*
X185290285Y-37695809D01*
X185337904Y-37600571D01*
X185385523Y-37552952D01*
X185480761Y-37505333D01*
X185671238Y-37505333D01*
X185766476Y-37552952D01*
X185814095Y-37600571D01*
X185861714Y-37695809D01*
G04 #@! TO.C,R8*
X178114666Y-41553380D02*
X178448000Y-41077190D01*
X178686095Y-41553380D02*
X178686095Y-40553380D01*
X178305142Y-40553380D01*
X178209904Y-40601000D01*
X178162285Y-40648619D01*
X178114666Y-40743857D01*
X178114666Y-40886714D01*
X178162285Y-40981952D01*
X178209904Y-41029571D01*
X178305142Y-41077190D01*
X178686095Y-41077190D01*
X177543238Y-40981952D02*
X177638476Y-40934333D01*
X177686095Y-40886714D01*
X177733714Y-40791476D01*
X177733714Y-40743857D01*
X177686095Y-40648619D01*
X177638476Y-40601000D01*
X177543238Y-40553380D01*
X177352761Y-40553380D01*
X177257523Y-40601000D01*
X177209904Y-40648619D01*
X177162285Y-40743857D01*
X177162285Y-40791476D01*
X177209904Y-40886714D01*
X177257523Y-40934333D01*
X177352761Y-40981952D01*
X177543238Y-40981952D01*
X177638476Y-41029571D01*
X177686095Y-41077190D01*
X177733714Y-41172428D01*
X177733714Y-41362904D01*
X177686095Y-41458142D01*
X177638476Y-41505761D01*
X177543238Y-41553380D01*
X177352761Y-41553380D01*
X177257523Y-41505761D01*
X177209904Y-41458142D01*
X177162285Y-41362904D01*
X177162285Y-41172428D01*
X177209904Y-41077190D01*
X177257523Y-41029571D01*
X177352761Y-40981952D01*
G04 #@! TO.C,R10*
X186718857Y-44220380D02*
X187052190Y-43744190D01*
X187290285Y-44220380D02*
X187290285Y-43220380D01*
X186909333Y-43220380D01*
X186814095Y-43268000D01*
X186766476Y-43315619D01*
X186718857Y-43410857D01*
X186718857Y-43553714D01*
X186766476Y-43648952D01*
X186814095Y-43696571D01*
X186909333Y-43744190D01*
X187290285Y-43744190D01*
X185766476Y-44220380D02*
X186337904Y-44220380D01*
X186052190Y-44220380D02*
X186052190Y-43220380D01*
X186147428Y-43363238D01*
X186242666Y-43458476D01*
X186337904Y-43506095D01*
X185147428Y-43220380D02*
X185052190Y-43220380D01*
X184956952Y-43268000D01*
X184909333Y-43315619D01*
X184861714Y-43410857D01*
X184814095Y-43601333D01*
X184814095Y-43839428D01*
X184861714Y-44029904D01*
X184909333Y-44125142D01*
X184956952Y-44172761D01*
X185052190Y-44220380D01*
X185147428Y-44220380D01*
X185242666Y-44172761D01*
X185290285Y-44125142D01*
X185337904Y-44029904D01*
X185385523Y-43839428D01*
X185385523Y-43601333D01*
X185337904Y-43410857D01*
X185290285Y-43315619D01*
X185242666Y-43268000D01*
X185147428Y-43220380D01*
G04 #@! TO.C,R12*
X178590857Y-47268380D02*
X178924190Y-46792190D01*
X179162285Y-47268380D02*
X179162285Y-46268380D01*
X178781333Y-46268380D01*
X178686095Y-46316000D01*
X178638476Y-46363619D01*
X178590857Y-46458857D01*
X178590857Y-46601714D01*
X178638476Y-46696952D01*
X178686095Y-46744571D01*
X178781333Y-46792190D01*
X179162285Y-46792190D01*
X177638476Y-47268380D02*
X178209904Y-47268380D01*
X177924190Y-47268380D02*
X177924190Y-46268380D01*
X178019428Y-46411238D01*
X178114666Y-46506476D01*
X178209904Y-46554095D01*
X177257523Y-46363619D02*
X177209904Y-46316000D01*
X177114666Y-46268380D01*
X176876571Y-46268380D01*
X176781333Y-46316000D01*
X176733714Y-46363619D01*
X176686095Y-46458857D01*
X176686095Y-46554095D01*
X176733714Y-46696952D01*
X177305142Y-47268380D01*
X176686095Y-47268380D01*
G04 #@! TO.C,R14*
X186718857Y-55396380D02*
X187052190Y-54920190D01*
X187290285Y-55396380D02*
X187290285Y-54396380D01*
X186909333Y-54396380D01*
X186814095Y-54444000D01*
X186766476Y-54491619D01*
X186718857Y-54586857D01*
X186718857Y-54729714D01*
X186766476Y-54824952D01*
X186814095Y-54872571D01*
X186909333Y-54920190D01*
X187290285Y-54920190D01*
X185766476Y-55396380D02*
X186337904Y-55396380D01*
X186052190Y-55396380D02*
X186052190Y-54396380D01*
X186147428Y-54539238D01*
X186242666Y-54634476D01*
X186337904Y-54682095D01*
X184909333Y-54729714D02*
X184909333Y-55396380D01*
X185147428Y-54348761D02*
X185385523Y-55063047D01*
X184766476Y-55063047D01*
G04 #@! TO.C,R18*
X178590857Y-57936380D02*
X178924190Y-57460190D01*
X179162285Y-57936380D02*
X179162285Y-56936380D01*
X178781333Y-56936380D01*
X178686095Y-56984000D01*
X178638476Y-57031619D01*
X178590857Y-57126857D01*
X178590857Y-57269714D01*
X178638476Y-57364952D01*
X178686095Y-57412571D01*
X178781333Y-57460190D01*
X179162285Y-57460190D01*
X177638476Y-57936380D02*
X178209904Y-57936380D01*
X177924190Y-57936380D02*
X177924190Y-56936380D01*
X178019428Y-57079238D01*
X178114666Y-57174476D01*
X178209904Y-57222095D01*
X177067047Y-57364952D02*
X177162285Y-57317333D01*
X177209904Y-57269714D01*
X177257523Y-57174476D01*
X177257523Y-57126857D01*
X177209904Y-57031619D01*
X177162285Y-56984000D01*
X177067047Y-56936380D01*
X176876571Y-56936380D01*
X176781333Y-56984000D01*
X176733714Y-57031619D01*
X176686095Y-57126857D01*
X176686095Y-57174476D01*
X176733714Y-57269714D01*
X176781333Y-57317333D01*
X176876571Y-57364952D01*
X177067047Y-57364952D01*
X177162285Y-57412571D01*
X177209904Y-57460190D01*
X177257523Y-57555428D01*
X177257523Y-57745904D01*
X177209904Y-57841142D01*
X177162285Y-57888761D01*
X177067047Y-57936380D01*
X176876571Y-57936380D01*
X176781333Y-57888761D01*
X176733714Y-57841142D01*
X176686095Y-57745904D01*
X176686095Y-57555428D01*
X176733714Y-57460190D01*
X176781333Y-57412571D01*
X176876571Y-57364952D01*
G04 #@! TO.C,R21*
X186718857Y-60984380D02*
X187052190Y-60508190D01*
X187290285Y-60984380D02*
X187290285Y-59984380D01*
X186909333Y-59984380D01*
X186814095Y-60032000D01*
X186766476Y-60079619D01*
X186718857Y-60174857D01*
X186718857Y-60317714D01*
X186766476Y-60412952D01*
X186814095Y-60460571D01*
X186909333Y-60508190D01*
X187290285Y-60508190D01*
X186337904Y-60079619D02*
X186290285Y-60032000D01*
X186195047Y-59984380D01*
X185956952Y-59984380D01*
X185861714Y-60032000D01*
X185814095Y-60079619D01*
X185766476Y-60174857D01*
X185766476Y-60270095D01*
X185814095Y-60412952D01*
X186385523Y-60984380D01*
X185766476Y-60984380D01*
X184814095Y-60984380D02*
X185385523Y-60984380D01*
X185099809Y-60984380D02*
X185099809Y-59984380D01*
X185195047Y-60127238D01*
X185290285Y-60222476D01*
X185385523Y-60270095D01*
G04 #@! TO.C,R25*
X178590857Y-63778380D02*
X178924190Y-63302190D01*
X179162285Y-63778380D02*
X179162285Y-62778380D01*
X178781333Y-62778380D01*
X178686095Y-62826000D01*
X178638476Y-62873619D01*
X178590857Y-62968857D01*
X178590857Y-63111714D01*
X178638476Y-63206952D01*
X178686095Y-63254571D01*
X178781333Y-63302190D01*
X179162285Y-63302190D01*
X178209904Y-62873619D02*
X178162285Y-62826000D01*
X178067047Y-62778380D01*
X177828952Y-62778380D01*
X177733714Y-62826000D01*
X177686095Y-62873619D01*
X177638476Y-62968857D01*
X177638476Y-63064095D01*
X177686095Y-63206952D01*
X178257523Y-63778380D01*
X177638476Y-63778380D01*
X176733714Y-62778380D02*
X177209904Y-62778380D01*
X177257523Y-63254571D01*
X177209904Y-63206952D01*
X177114666Y-63159333D01*
X176876571Y-63159333D01*
X176781333Y-63206952D01*
X176733714Y-63254571D01*
X176686095Y-63349809D01*
X176686095Y-63587904D01*
X176733714Y-63683142D01*
X176781333Y-63730761D01*
X176876571Y-63778380D01*
X177114666Y-63778380D01*
X177209904Y-63730761D01*
X177257523Y-63683142D01*
G04 #@! TO.C,R28*
X186718857Y-66572380D02*
X187052190Y-66096190D01*
X187290285Y-66572380D02*
X187290285Y-65572380D01*
X186909333Y-65572380D01*
X186814095Y-65620000D01*
X186766476Y-65667619D01*
X186718857Y-65762857D01*
X186718857Y-65905714D01*
X186766476Y-66000952D01*
X186814095Y-66048571D01*
X186909333Y-66096190D01*
X187290285Y-66096190D01*
X186337904Y-65667619D02*
X186290285Y-65620000D01*
X186195047Y-65572380D01*
X185956952Y-65572380D01*
X185861714Y-65620000D01*
X185814095Y-65667619D01*
X185766476Y-65762857D01*
X185766476Y-65858095D01*
X185814095Y-66000952D01*
X186385523Y-66572380D01*
X185766476Y-66572380D01*
X185195047Y-66000952D02*
X185290285Y-65953333D01*
X185337904Y-65905714D01*
X185385523Y-65810476D01*
X185385523Y-65762857D01*
X185337904Y-65667619D01*
X185290285Y-65620000D01*
X185195047Y-65572380D01*
X185004571Y-65572380D01*
X184909333Y-65620000D01*
X184861714Y-65667619D01*
X184814095Y-65762857D01*
X184814095Y-65810476D01*
X184861714Y-65905714D01*
X184909333Y-65953333D01*
X185004571Y-66000952D01*
X185195047Y-66000952D01*
X185290285Y-66048571D01*
X185337904Y-66096190D01*
X185385523Y-66191428D01*
X185385523Y-66381904D01*
X185337904Y-66477142D01*
X185290285Y-66524761D01*
X185195047Y-66572380D01*
X185004571Y-66572380D01*
X184909333Y-66524761D01*
X184861714Y-66477142D01*
X184814095Y-66381904D01*
X184814095Y-66191428D01*
X184861714Y-66096190D01*
X184909333Y-66048571D01*
X185004571Y-66000952D01*
G04 #@! TO.C,R30*
X178590857Y-69493380D02*
X178924190Y-69017190D01*
X179162285Y-69493380D02*
X179162285Y-68493380D01*
X178781333Y-68493380D01*
X178686095Y-68541000D01*
X178638476Y-68588619D01*
X178590857Y-68683857D01*
X178590857Y-68826714D01*
X178638476Y-68921952D01*
X178686095Y-68969571D01*
X178781333Y-69017190D01*
X179162285Y-69017190D01*
X178257523Y-68493380D02*
X177638476Y-68493380D01*
X177971809Y-68874333D01*
X177828952Y-68874333D01*
X177733714Y-68921952D01*
X177686095Y-68969571D01*
X177638476Y-69064809D01*
X177638476Y-69302904D01*
X177686095Y-69398142D01*
X177733714Y-69445761D01*
X177828952Y-69493380D01*
X178114666Y-69493380D01*
X178209904Y-69445761D01*
X178257523Y-69398142D01*
X177019428Y-68493380D02*
X176924190Y-68493380D01*
X176828952Y-68541000D01*
X176781333Y-68588619D01*
X176733714Y-68683857D01*
X176686095Y-68874333D01*
X176686095Y-69112428D01*
X176733714Y-69302904D01*
X176781333Y-69398142D01*
X176828952Y-69445761D01*
X176924190Y-69493380D01*
X177019428Y-69493380D01*
X177114666Y-69445761D01*
X177162285Y-69398142D01*
X177209904Y-69302904D01*
X177257523Y-69112428D01*
X177257523Y-68874333D01*
X177209904Y-68683857D01*
X177162285Y-68588619D01*
X177114666Y-68541000D01*
X177019428Y-68493380D01*
G04 #@! TO.C,R32*
X186718857Y-72668380D02*
X187052190Y-72192190D01*
X187290285Y-72668380D02*
X187290285Y-71668380D01*
X186909333Y-71668380D01*
X186814095Y-71716000D01*
X186766476Y-71763619D01*
X186718857Y-71858857D01*
X186718857Y-72001714D01*
X186766476Y-72096952D01*
X186814095Y-72144571D01*
X186909333Y-72192190D01*
X187290285Y-72192190D01*
X186385523Y-71668380D02*
X185766476Y-71668380D01*
X186099809Y-72049333D01*
X185956952Y-72049333D01*
X185861714Y-72096952D01*
X185814095Y-72144571D01*
X185766476Y-72239809D01*
X185766476Y-72477904D01*
X185814095Y-72573142D01*
X185861714Y-72620761D01*
X185956952Y-72668380D01*
X186242666Y-72668380D01*
X186337904Y-72620761D01*
X186385523Y-72573142D01*
X185385523Y-71763619D02*
X185337904Y-71716000D01*
X185242666Y-71668380D01*
X185004571Y-71668380D01*
X184909333Y-71716000D01*
X184861714Y-71763619D01*
X184814095Y-71858857D01*
X184814095Y-71954095D01*
X184861714Y-72096952D01*
X185433142Y-72668380D01*
X184814095Y-72668380D01*
G04 #@! TD*
M02*
