G04 #@! TF.GenerationSoftware,KiCad,Pcbnew,(5.0.0)*
G04 #@! TF.CreationDate,2019-01-26T22:59:54-06:00*
G04 #@! TF.ProjectId,BPSVoltage,425053566F6C746167652E6B69636164,rev?*
G04 #@! TF.SameCoordinates,Original*
G04 #@! TF.FileFunction,Paste,Bot*
G04 #@! TF.FilePolarity,Positive*
%FSLAX46Y46*%
G04 Gerber Fmt 4.6, Leading zero omitted, Abs format (unit mm)*
G04 Created by KiCad (PCBNEW (5.0.0)) date 01/26/19 22:59:54*
%MOMM*%
%LPD*%
G01*
G04 APERTURE LIST*
%ADD10C,0.100000*%
%ADD11C,1.350000*%
G04 APERTURE END LIST*
D10*
G04 #@! TO.C,R4*
G36*
X181297505Y-30330204D02*
X181321773Y-30333804D01*
X181345572Y-30339765D01*
X181368671Y-30348030D01*
X181390850Y-30358520D01*
X181411893Y-30371132D01*
X181431599Y-30385747D01*
X181449777Y-30402223D01*
X181466253Y-30420401D01*
X181480868Y-30440107D01*
X181493480Y-30461150D01*
X181503970Y-30483329D01*
X181512235Y-30506428D01*
X181518196Y-30530227D01*
X181521796Y-30554495D01*
X181523000Y-30578999D01*
X181523000Y-33429001D01*
X181521796Y-33453505D01*
X181518196Y-33477773D01*
X181512235Y-33501572D01*
X181503970Y-33524671D01*
X181493480Y-33546850D01*
X181480868Y-33567893D01*
X181466253Y-33587599D01*
X181449777Y-33605777D01*
X181431599Y-33622253D01*
X181411893Y-33636868D01*
X181390850Y-33649480D01*
X181368671Y-33659970D01*
X181345572Y-33668235D01*
X181321773Y-33674196D01*
X181297505Y-33677796D01*
X181273001Y-33679000D01*
X180422999Y-33679000D01*
X180398495Y-33677796D01*
X180374227Y-33674196D01*
X180350428Y-33668235D01*
X180327329Y-33659970D01*
X180305150Y-33649480D01*
X180284107Y-33636868D01*
X180264401Y-33622253D01*
X180246223Y-33605777D01*
X180229747Y-33587599D01*
X180215132Y-33567893D01*
X180202520Y-33546850D01*
X180192030Y-33524671D01*
X180183765Y-33501572D01*
X180177804Y-33477773D01*
X180174204Y-33453505D01*
X180173000Y-33429001D01*
X180173000Y-30578999D01*
X180174204Y-30554495D01*
X180177804Y-30530227D01*
X180183765Y-30506428D01*
X180192030Y-30483329D01*
X180202520Y-30461150D01*
X180215132Y-30440107D01*
X180229747Y-30420401D01*
X180246223Y-30402223D01*
X180264401Y-30385747D01*
X180284107Y-30371132D01*
X180305150Y-30358520D01*
X180327329Y-30348030D01*
X180350428Y-30339765D01*
X180374227Y-30333804D01*
X180398495Y-30330204D01*
X180422999Y-30329000D01*
X181273001Y-30329000D01*
X181297505Y-30330204D01*
X181297505Y-30330204D01*
G37*
D11*
X180848000Y-32004000D03*
D10*
G36*
X175497505Y-30330204D02*
X175521773Y-30333804D01*
X175545572Y-30339765D01*
X175568671Y-30348030D01*
X175590850Y-30358520D01*
X175611893Y-30371132D01*
X175631599Y-30385747D01*
X175649777Y-30402223D01*
X175666253Y-30420401D01*
X175680868Y-30440107D01*
X175693480Y-30461150D01*
X175703970Y-30483329D01*
X175712235Y-30506428D01*
X175718196Y-30530227D01*
X175721796Y-30554495D01*
X175723000Y-30578999D01*
X175723000Y-33429001D01*
X175721796Y-33453505D01*
X175718196Y-33477773D01*
X175712235Y-33501572D01*
X175703970Y-33524671D01*
X175693480Y-33546850D01*
X175680868Y-33567893D01*
X175666253Y-33587599D01*
X175649777Y-33605777D01*
X175631599Y-33622253D01*
X175611893Y-33636868D01*
X175590850Y-33649480D01*
X175568671Y-33659970D01*
X175545572Y-33668235D01*
X175521773Y-33674196D01*
X175497505Y-33677796D01*
X175473001Y-33679000D01*
X174622999Y-33679000D01*
X174598495Y-33677796D01*
X174574227Y-33674196D01*
X174550428Y-33668235D01*
X174527329Y-33659970D01*
X174505150Y-33649480D01*
X174484107Y-33636868D01*
X174464401Y-33622253D01*
X174446223Y-33605777D01*
X174429747Y-33587599D01*
X174415132Y-33567893D01*
X174402520Y-33546850D01*
X174392030Y-33524671D01*
X174383765Y-33501572D01*
X174377804Y-33477773D01*
X174374204Y-33453505D01*
X174373000Y-33429001D01*
X174373000Y-30578999D01*
X174374204Y-30554495D01*
X174377804Y-30530227D01*
X174383765Y-30506428D01*
X174392030Y-30483329D01*
X174402520Y-30461150D01*
X174415132Y-30440107D01*
X174429747Y-30420401D01*
X174446223Y-30402223D01*
X174464401Y-30385747D01*
X174484107Y-30371132D01*
X174505150Y-30358520D01*
X174527329Y-30348030D01*
X174550428Y-30339765D01*
X174574227Y-30333804D01*
X174598495Y-30330204D01*
X174622999Y-30329000D01*
X175473001Y-30329000D01*
X175497505Y-30330204D01*
X175497505Y-30330204D01*
G37*
D11*
X175048000Y-32004000D03*
G04 #@! TD*
D10*
G04 #@! TO.C,R6*
G36*
X183625505Y-33378204D02*
X183649773Y-33381804D01*
X183673572Y-33387765D01*
X183696671Y-33396030D01*
X183718850Y-33406520D01*
X183739893Y-33419132D01*
X183759599Y-33433747D01*
X183777777Y-33450223D01*
X183794253Y-33468401D01*
X183808868Y-33488107D01*
X183821480Y-33509150D01*
X183831970Y-33531329D01*
X183840235Y-33554428D01*
X183846196Y-33578227D01*
X183849796Y-33602495D01*
X183851000Y-33626999D01*
X183851000Y-36477001D01*
X183849796Y-36501505D01*
X183846196Y-36525773D01*
X183840235Y-36549572D01*
X183831970Y-36572671D01*
X183821480Y-36594850D01*
X183808868Y-36615893D01*
X183794253Y-36635599D01*
X183777777Y-36653777D01*
X183759599Y-36670253D01*
X183739893Y-36684868D01*
X183718850Y-36697480D01*
X183696671Y-36707970D01*
X183673572Y-36716235D01*
X183649773Y-36722196D01*
X183625505Y-36725796D01*
X183601001Y-36727000D01*
X182750999Y-36727000D01*
X182726495Y-36725796D01*
X182702227Y-36722196D01*
X182678428Y-36716235D01*
X182655329Y-36707970D01*
X182633150Y-36697480D01*
X182612107Y-36684868D01*
X182592401Y-36670253D01*
X182574223Y-36653777D01*
X182557747Y-36635599D01*
X182543132Y-36615893D01*
X182530520Y-36594850D01*
X182520030Y-36572671D01*
X182511765Y-36549572D01*
X182505804Y-36525773D01*
X182502204Y-36501505D01*
X182501000Y-36477001D01*
X182501000Y-33626999D01*
X182502204Y-33602495D01*
X182505804Y-33578227D01*
X182511765Y-33554428D01*
X182520030Y-33531329D01*
X182530520Y-33509150D01*
X182543132Y-33488107D01*
X182557747Y-33468401D01*
X182574223Y-33450223D01*
X182592401Y-33433747D01*
X182612107Y-33419132D01*
X182633150Y-33406520D01*
X182655329Y-33396030D01*
X182678428Y-33387765D01*
X182702227Y-33381804D01*
X182726495Y-33378204D01*
X182750999Y-33377000D01*
X183601001Y-33377000D01*
X183625505Y-33378204D01*
X183625505Y-33378204D01*
G37*
D11*
X183176000Y-35052000D03*
D10*
G36*
X189425505Y-33378204D02*
X189449773Y-33381804D01*
X189473572Y-33387765D01*
X189496671Y-33396030D01*
X189518850Y-33406520D01*
X189539893Y-33419132D01*
X189559599Y-33433747D01*
X189577777Y-33450223D01*
X189594253Y-33468401D01*
X189608868Y-33488107D01*
X189621480Y-33509150D01*
X189631970Y-33531329D01*
X189640235Y-33554428D01*
X189646196Y-33578227D01*
X189649796Y-33602495D01*
X189651000Y-33626999D01*
X189651000Y-36477001D01*
X189649796Y-36501505D01*
X189646196Y-36525773D01*
X189640235Y-36549572D01*
X189631970Y-36572671D01*
X189621480Y-36594850D01*
X189608868Y-36615893D01*
X189594253Y-36635599D01*
X189577777Y-36653777D01*
X189559599Y-36670253D01*
X189539893Y-36684868D01*
X189518850Y-36697480D01*
X189496671Y-36707970D01*
X189473572Y-36716235D01*
X189449773Y-36722196D01*
X189425505Y-36725796D01*
X189401001Y-36727000D01*
X188550999Y-36727000D01*
X188526495Y-36725796D01*
X188502227Y-36722196D01*
X188478428Y-36716235D01*
X188455329Y-36707970D01*
X188433150Y-36697480D01*
X188412107Y-36684868D01*
X188392401Y-36670253D01*
X188374223Y-36653777D01*
X188357747Y-36635599D01*
X188343132Y-36615893D01*
X188330520Y-36594850D01*
X188320030Y-36572671D01*
X188311765Y-36549572D01*
X188305804Y-36525773D01*
X188302204Y-36501505D01*
X188301000Y-36477001D01*
X188301000Y-33626999D01*
X188302204Y-33602495D01*
X188305804Y-33578227D01*
X188311765Y-33554428D01*
X188320030Y-33531329D01*
X188330520Y-33509150D01*
X188343132Y-33488107D01*
X188357747Y-33468401D01*
X188374223Y-33450223D01*
X188392401Y-33433747D01*
X188412107Y-33419132D01*
X188433150Y-33406520D01*
X188455329Y-33396030D01*
X188478428Y-33387765D01*
X188502227Y-33381804D01*
X188526495Y-33378204D01*
X188550999Y-33377000D01*
X189401001Y-33377000D01*
X189425505Y-33378204D01*
X189425505Y-33378204D01*
G37*
D11*
X188976000Y-35052000D03*
G04 #@! TD*
D10*
G04 #@! TO.C,R8*
G36*
X181297505Y-36807204D02*
X181321773Y-36810804D01*
X181345572Y-36816765D01*
X181368671Y-36825030D01*
X181390850Y-36835520D01*
X181411893Y-36848132D01*
X181431599Y-36862747D01*
X181449777Y-36879223D01*
X181466253Y-36897401D01*
X181480868Y-36917107D01*
X181493480Y-36938150D01*
X181503970Y-36960329D01*
X181512235Y-36983428D01*
X181518196Y-37007227D01*
X181521796Y-37031495D01*
X181523000Y-37055999D01*
X181523000Y-39906001D01*
X181521796Y-39930505D01*
X181518196Y-39954773D01*
X181512235Y-39978572D01*
X181503970Y-40001671D01*
X181493480Y-40023850D01*
X181480868Y-40044893D01*
X181466253Y-40064599D01*
X181449777Y-40082777D01*
X181431599Y-40099253D01*
X181411893Y-40113868D01*
X181390850Y-40126480D01*
X181368671Y-40136970D01*
X181345572Y-40145235D01*
X181321773Y-40151196D01*
X181297505Y-40154796D01*
X181273001Y-40156000D01*
X180422999Y-40156000D01*
X180398495Y-40154796D01*
X180374227Y-40151196D01*
X180350428Y-40145235D01*
X180327329Y-40136970D01*
X180305150Y-40126480D01*
X180284107Y-40113868D01*
X180264401Y-40099253D01*
X180246223Y-40082777D01*
X180229747Y-40064599D01*
X180215132Y-40044893D01*
X180202520Y-40023850D01*
X180192030Y-40001671D01*
X180183765Y-39978572D01*
X180177804Y-39954773D01*
X180174204Y-39930505D01*
X180173000Y-39906001D01*
X180173000Y-37055999D01*
X180174204Y-37031495D01*
X180177804Y-37007227D01*
X180183765Y-36983428D01*
X180192030Y-36960329D01*
X180202520Y-36938150D01*
X180215132Y-36917107D01*
X180229747Y-36897401D01*
X180246223Y-36879223D01*
X180264401Y-36862747D01*
X180284107Y-36848132D01*
X180305150Y-36835520D01*
X180327329Y-36825030D01*
X180350428Y-36816765D01*
X180374227Y-36810804D01*
X180398495Y-36807204D01*
X180422999Y-36806000D01*
X181273001Y-36806000D01*
X181297505Y-36807204D01*
X181297505Y-36807204D01*
G37*
D11*
X180848000Y-38481000D03*
D10*
G36*
X175497505Y-36807204D02*
X175521773Y-36810804D01*
X175545572Y-36816765D01*
X175568671Y-36825030D01*
X175590850Y-36835520D01*
X175611893Y-36848132D01*
X175631599Y-36862747D01*
X175649777Y-36879223D01*
X175666253Y-36897401D01*
X175680868Y-36917107D01*
X175693480Y-36938150D01*
X175703970Y-36960329D01*
X175712235Y-36983428D01*
X175718196Y-37007227D01*
X175721796Y-37031495D01*
X175723000Y-37055999D01*
X175723000Y-39906001D01*
X175721796Y-39930505D01*
X175718196Y-39954773D01*
X175712235Y-39978572D01*
X175703970Y-40001671D01*
X175693480Y-40023850D01*
X175680868Y-40044893D01*
X175666253Y-40064599D01*
X175649777Y-40082777D01*
X175631599Y-40099253D01*
X175611893Y-40113868D01*
X175590850Y-40126480D01*
X175568671Y-40136970D01*
X175545572Y-40145235D01*
X175521773Y-40151196D01*
X175497505Y-40154796D01*
X175473001Y-40156000D01*
X174622999Y-40156000D01*
X174598495Y-40154796D01*
X174574227Y-40151196D01*
X174550428Y-40145235D01*
X174527329Y-40136970D01*
X174505150Y-40126480D01*
X174484107Y-40113868D01*
X174464401Y-40099253D01*
X174446223Y-40082777D01*
X174429747Y-40064599D01*
X174415132Y-40044893D01*
X174402520Y-40023850D01*
X174392030Y-40001671D01*
X174383765Y-39978572D01*
X174377804Y-39954773D01*
X174374204Y-39930505D01*
X174373000Y-39906001D01*
X174373000Y-37055999D01*
X174374204Y-37031495D01*
X174377804Y-37007227D01*
X174383765Y-36983428D01*
X174392030Y-36960329D01*
X174402520Y-36938150D01*
X174415132Y-36917107D01*
X174429747Y-36897401D01*
X174446223Y-36879223D01*
X174464401Y-36862747D01*
X174484107Y-36848132D01*
X174505150Y-36835520D01*
X174527329Y-36825030D01*
X174550428Y-36816765D01*
X174574227Y-36810804D01*
X174598495Y-36807204D01*
X174622999Y-36806000D01*
X175473001Y-36806000D01*
X175497505Y-36807204D01*
X175497505Y-36807204D01*
G37*
D11*
X175048000Y-38481000D03*
G04 #@! TD*
D10*
G04 #@! TO.C,R10*
G36*
X183625505Y-39474204D02*
X183649773Y-39477804D01*
X183673572Y-39483765D01*
X183696671Y-39492030D01*
X183718850Y-39502520D01*
X183739893Y-39515132D01*
X183759599Y-39529747D01*
X183777777Y-39546223D01*
X183794253Y-39564401D01*
X183808868Y-39584107D01*
X183821480Y-39605150D01*
X183831970Y-39627329D01*
X183840235Y-39650428D01*
X183846196Y-39674227D01*
X183849796Y-39698495D01*
X183851000Y-39722999D01*
X183851000Y-42573001D01*
X183849796Y-42597505D01*
X183846196Y-42621773D01*
X183840235Y-42645572D01*
X183831970Y-42668671D01*
X183821480Y-42690850D01*
X183808868Y-42711893D01*
X183794253Y-42731599D01*
X183777777Y-42749777D01*
X183759599Y-42766253D01*
X183739893Y-42780868D01*
X183718850Y-42793480D01*
X183696671Y-42803970D01*
X183673572Y-42812235D01*
X183649773Y-42818196D01*
X183625505Y-42821796D01*
X183601001Y-42823000D01*
X182750999Y-42823000D01*
X182726495Y-42821796D01*
X182702227Y-42818196D01*
X182678428Y-42812235D01*
X182655329Y-42803970D01*
X182633150Y-42793480D01*
X182612107Y-42780868D01*
X182592401Y-42766253D01*
X182574223Y-42749777D01*
X182557747Y-42731599D01*
X182543132Y-42711893D01*
X182530520Y-42690850D01*
X182520030Y-42668671D01*
X182511765Y-42645572D01*
X182505804Y-42621773D01*
X182502204Y-42597505D01*
X182501000Y-42573001D01*
X182501000Y-39722999D01*
X182502204Y-39698495D01*
X182505804Y-39674227D01*
X182511765Y-39650428D01*
X182520030Y-39627329D01*
X182530520Y-39605150D01*
X182543132Y-39584107D01*
X182557747Y-39564401D01*
X182574223Y-39546223D01*
X182592401Y-39529747D01*
X182612107Y-39515132D01*
X182633150Y-39502520D01*
X182655329Y-39492030D01*
X182678428Y-39483765D01*
X182702227Y-39477804D01*
X182726495Y-39474204D01*
X182750999Y-39473000D01*
X183601001Y-39473000D01*
X183625505Y-39474204D01*
X183625505Y-39474204D01*
G37*
D11*
X183176000Y-41148000D03*
D10*
G36*
X189425505Y-39474204D02*
X189449773Y-39477804D01*
X189473572Y-39483765D01*
X189496671Y-39492030D01*
X189518850Y-39502520D01*
X189539893Y-39515132D01*
X189559599Y-39529747D01*
X189577777Y-39546223D01*
X189594253Y-39564401D01*
X189608868Y-39584107D01*
X189621480Y-39605150D01*
X189631970Y-39627329D01*
X189640235Y-39650428D01*
X189646196Y-39674227D01*
X189649796Y-39698495D01*
X189651000Y-39722999D01*
X189651000Y-42573001D01*
X189649796Y-42597505D01*
X189646196Y-42621773D01*
X189640235Y-42645572D01*
X189631970Y-42668671D01*
X189621480Y-42690850D01*
X189608868Y-42711893D01*
X189594253Y-42731599D01*
X189577777Y-42749777D01*
X189559599Y-42766253D01*
X189539893Y-42780868D01*
X189518850Y-42793480D01*
X189496671Y-42803970D01*
X189473572Y-42812235D01*
X189449773Y-42818196D01*
X189425505Y-42821796D01*
X189401001Y-42823000D01*
X188550999Y-42823000D01*
X188526495Y-42821796D01*
X188502227Y-42818196D01*
X188478428Y-42812235D01*
X188455329Y-42803970D01*
X188433150Y-42793480D01*
X188412107Y-42780868D01*
X188392401Y-42766253D01*
X188374223Y-42749777D01*
X188357747Y-42731599D01*
X188343132Y-42711893D01*
X188330520Y-42690850D01*
X188320030Y-42668671D01*
X188311765Y-42645572D01*
X188305804Y-42621773D01*
X188302204Y-42597505D01*
X188301000Y-42573001D01*
X188301000Y-39722999D01*
X188302204Y-39698495D01*
X188305804Y-39674227D01*
X188311765Y-39650428D01*
X188320030Y-39627329D01*
X188330520Y-39605150D01*
X188343132Y-39584107D01*
X188357747Y-39564401D01*
X188374223Y-39546223D01*
X188392401Y-39529747D01*
X188412107Y-39515132D01*
X188433150Y-39502520D01*
X188455329Y-39492030D01*
X188478428Y-39483765D01*
X188502227Y-39477804D01*
X188526495Y-39474204D01*
X188550999Y-39473000D01*
X189401001Y-39473000D01*
X189425505Y-39474204D01*
X189425505Y-39474204D01*
G37*
D11*
X188976000Y-41148000D03*
G04 #@! TD*
D10*
G04 #@! TO.C,R12*
G36*
X181297505Y-42522204D02*
X181321773Y-42525804D01*
X181345572Y-42531765D01*
X181368671Y-42540030D01*
X181390850Y-42550520D01*
X181411893Y-42563132D01*
X181431599Y-42577747D01*
X181449777Y-42594223D01*
X181466253Y-42612401D01*
X181480868Y-42632107D01*
X181493480Y-42653150D01*
X181503970Y-42675329D01*
X181512235Y-42698428D01*
X181518196Y-42722227D01*
X181521796Y-42746495D01*
X181523000Y-42770999D01*
X181523000Y-45621001D01*
X181521796Y-45645505D01*
X181518196Y-45669773D01*
X181512235Y-45693572D01*
X181503970Y-45716671D01*
X181493480Y-45738850D01*
X181480868Y-45759893D01*
X181466253Y-45779599D01*
X181449777Y-45797777D01*
X181431599Y-45814253D01*
X181411893Y-45828868D01*
X181390850Y-45841480D01*
X181368671Y-45851970D01*
X181345572Y-45860235D01*
X181321773Y-45866196D01*
X181297505Y-45869796D01*
X181273001Y-45871000D01*
X180422999Y-45871000D01*
X180398495Y-45869796D01*
X180374227Y-45866196D01*
X180350428Y-45860235D01*
X180327329Y-45851970D01*
X180305150Y-45841480D01*
X180284107Y-45828868D01*
X180264401Y-45814253D01*
X180246223Y-45797777D01*
X180229747Y-45779599D01*
X180215132Y-45759893D01*
X180202520Y-45738850D01*
X180192030Y-45716671D01*
X180183765Y-45693572D01*
X180177804Y-45669773D01*
X180174204Y-45645505D01*
X180173000Y-45621001D01*
X180173000Y-42770999D01*
X180174204Y-42746495D01*
X180177804Y-42722227D01*
X180183765Y-42698428D01*
X180192030Y-42675329D01*
X180202520Y-42653150D01*
X180215132Y-42632107D01*
X180229747Y-42612401D01*
X180246223Y-42594223D01*
X180264401Y-42577747D01*
X180284107Y-42563132D01*
X180305150Y-42550520D01*
X180327329Y-42540030D01*
X180350428Y-42531765D01*
X180374227Y-42525804D01*
X180398495Y-42522204D01*
X180422999Y-42521000D01*
X181273001Y-42521000D01*
X181297505Y-42522204D01*
X181297505Y-42522204D01*
G37*
D11*
X180848000Y-44196000D03*
D10*
G36*
X175497505Y-42522204D02*
X175521773Y-42525804D01*
X175545572Y-42531765D01*
X175568671Y-42540030D01*
X175590850Y-42550520D01*
X175611893Y-42563132D01*
X175631599Y-42577747D01*
X175649777Y-42594223D01*
X175666253Y-42612401D01*
X175680868Y-42632107D01*
X175693480Y-42653150D01*
X175703970Y-42675329D01*
X175712235Y-42698428D01*
X175718196Y-42722227D01*
X175721796Y-42746495D01*
X175723000Y-42770999D01*
X175723000Y-45621001D01*
X175721796Y-45645505D01*
X175718196Y-45669773D01*
X175712235Y-45693572D01*
X175703970Y-45716671D01*
X175693480Y-45738850D01*
X175680868Y-45759893D01*
X175666253Y-45779599D01*
X175649777Y-45797777D01*
X175631599Y-45814253D01*
X175611893Y-45828868D01*
X175590850Y-45841480D01*
X175568671Y-45851970D01*
X175545572Y-45860235D01*
X175521773Y-45866196D01*
X175497505Y-45869796D01*
X175473001Y-45871000D01*
X174622999Y-45871000D01*
X174598495Y-45869796D01*
X174574227Y-45866196D01*
X174550428Y-45860235D01*
X174527329Y-45851970D01*
X174505150Y-45841480D01*
X174484107Y-45828868D01*
X174464401Y-45814253D01*
X174446223Y-45797777D01*
X174429747Y-45779599D01*
X174415132Y-45759893D01*
X174402520Y-45738850D01*
X174392030Y-45716671D01*
X174383765Y-45693572D01*
X174377804Y-45669773D01*
X174374204Y-45645505D01*
X174373000Y-45621001D01*
X174373000Y-42770999D01*
X174374204Y-42746495D01*
X174377804Y-42722227D01*
X174383765Y-42698428D01*
X174392030Y-42675329D01*
X174402520Y-42653150D01*
X174415132Y-42632107D01*
X174429747Y-42612401D01*
X174446223Y-42594223D01*
X174464401Y-42577747D01*
X174484107Y-42563132D01*
X174505150Y-42550520D01*
X174527329Y-42540030D01*
X174550428Y-42531765D01*
X174574227Y-42525804D01*
X174598495Y-42522204D01*
X174622999Y-42521000D01*
X175473001Y-42521000D01*
X175497505Y-42522204D01*
X175497505Y-42522204D01*
G37*
D11*
X175048000Y-44196000D03*
G04 #@! TD*
D10*
G04 #@! TO.C,R14*
G36*
X183625505Y-50650204D02*
X183649773Y-50653804D01*
X183673572Y-50659765D01*
X183696671Y-50668030D01*
X183718850Y-50678520D01*
X183739893Y-50691132D01*
X183759599Y-50705747D01*
X183777777Y-50722223D01*
X183794253Y-50740401D01*
X183808868Y-50760107D01*
X183821480Y-50781150D01*
X183831970Y-50803329D01*
X183840235Y-50826428D01*
X183846196Y-50850227D01*
X183849796Y-50874495D01*
X183851000Y-50898999D01*
X183851000Y-53749001D01*
X183849796Y-53773505D01*
X183846196Y-53797773D01*
X183840235Y-53821572D01*
X183831970Y-53844671D01*
X183821480Y-53866850D01*
X183808868Y-53887893D01*
X183794253Y-53907599D01*
X183777777Y-53925777D01*
X183759599Y-53942253D01*
X183739893Y-53956868D01*
X183718850Y-53969480D01*
X183696671Y-53979970D01*
X183673572Y-53988235D01*
X183649773Y-53994196D01*
X183625505Y-53997796D01*
X183601001Y-53999000D01*
X182750999Y-53999000D01*
X182726495Y-53997796D01*
X182702227Y-53994196D01*
X182678428Y-53988235D01*
X182655329Y-53979970D01*
X182633150Y-53969480D01*
X182612107Y-53956868D01*
X182592401Y-53942253D01*
X182574223Y-53925777D01*
X182557747Y-53907599D01*
X182543132Y-53887893D01*
X182530520Y-53866850D01*
X182520030Y-53844671D01*
X182511765Y-53821572D01*
X182505804Y-53797773D01*
X182502204Y-53773505D01*
X182501000Y-53749001D01*
X182501000Y-50898999D01*
X182502204Y-50874495D01*
X182505804Y-50850227D01*
X182511765Y-50826428D01*
X182520030Y-50803329D01*
X182530520Y-50781150D01*
X182543132Y-50760107D01*
X182557747Y-50740401D01*
X182574223Y-50722223D01*
X182592401Y-50705747D01*
X182612107Y-50691132D01*
X182633150Y-50678520D01*
X182655329Y-50668030D01*
X182678428Y-50659765D01*
X182702227Y-50653804D01*
X182726495Y-50650204D01*
X182750999Y-50649000D01*
X183601001Y-50649000D01*
X183625505Y-50650204D01*
X183625505Y-50650204D01*
G37*
D11*
X183176000Y-52324000D03*
D10*
G36*
X189425505Y-50650204D02*
X189449773Y-50653804D01*
X189473572Y-50659765D01*
X189496671Y-50668030D01*
X189518850Y-50678520D01*
X189539893Y-50691132D01*
X189559599Y-50705747D01*
X189577777Y-50722223D01*
X189594253Y-50740401D01*
X189608868Y-50760107D01*
X189621480Y-50781150D01*
X189631970Y-50803329D01*
X189640235Y-50826428D01*
X189646196Y-50850227D01*
X189649796Y-50874495D01*
X189651000Y-50898999D01*
X189651000Y-53749001D01*
X189649796Y-53773505D01*
X189646196Y-53797773D01*
X189640235Y-53821572D01*
X189631970Y-53844671D01*
X189621480Y-53866850D01*
X189608868Y-53887893D01*
X189594253Y-53907599D01*
X189577777Y-53925777D01*
X189559599Y-53942253D01*
X189539893Y-53956868D01*
X189518850Y-53969480D01*
X189496671Y-53979970D01*
X189473572Y-53988235D01*
X189449773Y-53994196D01*
X189425505Y-53997796D01*
X189401001Y-53999000D01*
X188550999Y-53999000D01*
X188526495Y-53997796D01*
X188502227Y-53994196D01*
X188478428Y-53988235D01*
X188455329Y-53979970D01*
X188433150Y-53969480D01*
X188412107Y-53956868D01*
X188392401Y-53942253D01*
X188374223Y-53925777D01*
X188357747Y-53907599D01*
X188343132Y-53887893D01*
X188330520Y-53866850D01*
X188320030Y-53844671D01*
X188311765Y-53821572D01*
X188305804Y-53797773D01*
X188302204Y-53773505D01*
X188301000Y-53749001D01*
X188301000Y-50898999D01*
X188302204Y-50874495D01*
X188305804Y-50850227D01*
X188311765Y-50826428D01*
X188320030Y-50803329D01*
X188330520Y-50781150D01*
X188343132Y-50760107D01*
X188357747Y-50740401D01*
X188374223Y-50722223D01*
X188392401Y-50705747D01*
X188412107Y-50691132D01*
X188433150Y-50678520D01*
X188455329Y-50668030D01*
X188478428Y-50659765D01*
X188502227Y-50653804D01*
X188526495Y-50650204D01*
X188550999Y-50649000D01*
X189401001Y-50649000D01*
X189425505Y-50650204D01*
X189425505Y-50650204D01*
G37*
D11*
X188976000Y-52324000D03*
G04 #@! TD*
D10*
G04 #@! TO.C,R18*
G36*
X181297505Y-53190204D02*
X181321773Y-53193804D01*
X181345572Y-53199765D01*
X181368671Y-53208030D01*
X181390850Y-53218520D01*
X181411893Y-53231132D01*
X181431599Y-53245747D01*
X181449777Y-53262223D01*
X181466253Y-53280401D01*
X181480868Y-53300107D01*
X181493480Y-53321150D01*
X181503970Y-53343329D01*
X181512235Y-53366428D01*
X181518196Y-53390227D01*
X181521796Y-53414495D01*
X181523000Y-53438999D01*
X181523000Y-56289001D01*
X181521796Y-56313505D01*
X181518196Y-56337773D01*
X181512235Y-56361572D01*
X181503970Y-56384671D01*
X181493480Y-56406850D01*
X181480868Y-56427893D01*
X181466253Y-56447599D01*
X181449777Y-56465777D01*
X181431599Y-56482253D01*
X181411893Y-56496868D01*
X181390850Y-56509480D01*
X181368671Y-56519970D01*
X181345572Y-56528235D01*
X181321773Y-56534196D01*
X181297505Y-56537796D01*
X181273001Y-56539000D01*
X180422999Y-56539000D01*
X180398495Y-56537796D01*
X180374227Y-56534196D01*
X180350428Y-56528235D01*
X180327329Y-56519970D01*
X180305150Y-56509480D01*
X180284107Y-56496868D01*
X180264401Y-56482253D01*
X180246223Y-56465777D01*
X180229747Y-56447599D01*
X180215132Y-56427893D01*
X180202520Y-56406850D01*
X180192030Y-56384671D01*
X180183765Y-56361572D01*
X180177804Y-56337773D01*
X180174204Y-56313505D01*
X180173000Y-56289001D01*
X180173000Y-53438999D01*
X180174204Y-53414495D01*
X180177804Y-53390227D01*
X180183765Y-53366428D01*
X180192030Y-53343329D01*
X180202520Y-53321150D01*
X180215132Y-53300107D01*
X180229747Y-53280401D01*
X180246223Y-53262223D01*
X180264401Y-53245747D01*
X180284107Y-53231132D01*
X180305150Y-53218520D01*
X180327329Y-53208030D01*
X180350428Y-53199765D01*
X180374227Y-53193804D01*
X180398495Y-53190204D01*
X180422999Y-53189000D01*
X181273001Y-53189000D01*
X181297505Y-53190204D01*
X181297505Y-53190204D01*
G37*
D11*
X180848000Y-54864000D03*
D10*
G36*
X175497505Y-53190204D02*
X175521773Y-53193804D01*
X175545572Y-53199765D01*
X175568671Y-53208030D01*
X175590850Y-53218520D01*
X175611893Y-53231132D01*
X175631599Y-53245747D01*
X175649777Y-53262223D01*
X175666253Y-53280401D01*
X175680868Y-53300107D01*
X175693480Y-53321150D01*
X175703970Y-53343329D01*
X175712235Y-53366428D01*
X175718196Y-53390227D01*
X175721796Y-53414495D01*
X175723000Y-53438999D01*
X175723000Y-56289001D01*
X175721796Y-56313505D01*
X175718196Y-56337773D01*
X175712235Y-56361572D01*
X175703970Y-56384671D01*
X175693480Y-56406850D01*
X175680868Y-56427893D01*
X175666253Y-56447599D01*
X175649777Y-56465777D01*
X175631599Y-56482253D01*
X175611893Y-56496868D01*
X175590850Y-56509480D01*
X175568671Y-56519970D01*
X175545572Y-56528235D01*
X175521773Y-56534196D01*
X175497505Y-56537796D01*
X175473001Y-56539000D01*
X174622999Y-56539000D01*
X174598495Y-56537796D01*
X174574227Y-56534196D01*
X174550428Y-56528235D01*
X174527329Y-56519970D01*
X174505150Y-56509480D01*
X174484107Y-56496868D01*
X174464401Y-56482253D01*
X174446223Y-56465777D01*
X174429747Y-56447599D01*
X174415132Y-56427893D01*
X174402520Y-56406850D01*
X174392030Y-56384671D01*
X174383765Y-56361572D01*
X174377804Y-56337773D01*
X174374204Y-56313505D01*
X174373000Y-56289001D01*
X174373000Y-53438999D01*
X174374204Y-53414495D01*
X174377804Y-53390227D01*
X174383765Y-53366428D01*
X174392030Y-53343329D01*
X174402520Y-53321150D01*
X174415132Y-53300107D01*
X174429747Y-53280401D01*
X174446223Y-53262223D01*
X174464401Y-53245747D01*
X174484107Y-53231132D01*
X174505150Y-53218520D01*
X174527329Y-53208030D01*
X174550428Y-53199765D01*
X174574227Y-53193804D01*
X174598495Y-53190204D01*
X174622999Y-53189000D01*
X175473001Y-53189000D01*
X175497505Y-53190204D01*
X175497505Y-53190204D01*
G37*
D11*
X175048000Y-54864000D03*
G04 #@! TD*
D10*
G04 #@! TO.C,R21*
G36*
X183625505Y-56238204D02*
X183649773Y-56241804D01*
X183673572Y-56247765D01*
X183696671Y-56256030D01*
X183718850Y-56266520D01*
X183739893Y-56279132D01*
X183759599Y-56293747D01*
X183777777Y-56310223D01*
X183794253Y-56328401D01*
X183808868Y-56348107D01*
X183821480Y-56369150D01*
X183831970Y-56391329D01*
X183840235Y-56414428D01*
X183846196Y-56438227D01*
X183849796Y-56462495D01*
X183851000Y-56486999D01*
X183851000Y-59337001D01*
X183849796Y-59361505D01*
X183846196Y-59385773D01*
X183840235Y-59409572D01*
X183831970Y-59432671D01*
X183821480Y-59454850D01*
X183808868Y-59475893D01*
X183794253Y-59495599D01*
X183777777Y-59513777D01*
X183759599Y-59530253D01*
X183739893Y-59544868D01*
X183718850Y-59557480D01*
X183696671Y-59567970D01*
X183673572Y-59576235D01*
X183649773Y-59582196D01*
X183625505Y-59585796D01*
X183601001Y-59587000D01*
X182750999Y-59587000D01*
X182726495Y-59585796D01*
X182702227Y-59582196D01*
X182678428Y-59576235D01*
X182655329Y-59567970D01*
X182633150Y-59557480D01*
X182612107Y-59544868D01*
X182592401Y-59530253D01*
X182574223Y-59513777D01*
X182557747Y-59495599D01*
X182543132Y-59475893D01*
X182530520Y-59454850D01*
X182520030Y-59432671D01*
X182511765Y-59409572D01*
X182505804Y-59385773D01*
X182502204Y-59361505D01*
X182501000Y-59337001D01*
X182501000Y-56486999D01*
X182502204Y-56462495D01*
X182505804Y-56438227D01*
X182511765Y-56414428D01*
X182520030Y-56391329D01*
X182530520Y-56369150D01*
X182543132Y-56348107D01*
X182557747Y-56328401D01*
X182574223Y-56310223D01*
X182592401Y-56293747D01*
X182612107Y-56279132D01*
X182633150Y-56266520D01*
X182655329Y-56256030D01*
X182678428Y-56247765D01*
X182702227Y-56241804D01*
X182726495Y-56238204D01*
X182750999Y-56237000D01*
X183601001Y-56237000D01*
X183625505Y-56238204D01*
X183625505Y-56238204D01*
G37*
D11*
X183176000Y-57912000D03*
D10*
G36*
X189425505Y-56238204D02*
X189449773Y-56241804D01*
X189473572Y-56247765D01*
X189496671Y-56256030D01*
X189518850Y-56266520D01*
X189539893Y-56279132D01*
X189559599Y-56293747D01*
X189577777Y-56310223D01*
X189594253Y-56328401D01*
X189608868Y-56348107D01*
X189621480Y-56369150D01*
X189631970Y-56391329D01*
X189640235Y-56414428D01*
X189646196Y-56438227D01*
X189649796Y-56462495D01*
X189651000Y-56486999D01*
X189651000Y-59337001D01*
X189649796Y-59361505D01*
X189646196Y-59385773D01*
X189640235Y-59409572D01*
X189631970Y-59432671D01*
X189621480Y-59454850D01*
X189608868Y-59475893D01*
X189594253Y-59495599D01*
X189577777Y-59513777D01*
X189559599Y-59530253D01*
X189539893Y-59544868D01*
X189518850Y-59557480D01*
X189496671Y-59567970D01*
X189473572Y-59576235D01*
X189449773Y-59582196D01*
X189425505Y-59585796D01*
X189401001Y-59587000D01*
X188550999Y-59587000D01*
X188526495Y-59585796D01*
X188502227Y-59582196D01*
X188478428Y-59576235D01*
X188455329Y-59567970D01*
X188433150Y-59557480D01*
X188412107Y-59544868D01*
X188392401Y-59530253D01*
X188374223Y-59513777D01*
X188357747Y-59495599D01*
X188343132Y-59475893D01*
X188330520Y-59454850D01*
X188320030Y-59432671D01*
X188311765Y-59409572D01*
X188305804Y-59385773D01*
X188302204Y-59361505D01*
X188301000Y-59337001D01*
X188301000Y-56486999D01*
X188302204Y-56462495D01*
X188305804Y-56438227D01*
X188311765Y-56414428D01*
X188320030Y-56391329D01*
X188330520Y-56369150D01*
X188343132Y-56348107D01*
X188357747Y-56328401D01*
X188374223Y-56310223D01*
X188392401Y-56293747D01*
X188412107Y-56279132D01*
X188433150Y-56266520D01*
X188455329Y-56256030D01*
X188478428Y-56247765D01*
X188502227Y-56241804D01*
X188526495Y-56238204D01*
X188550999Y-56237000D01*
X189401001Y-56237000D01*
X189425505Y-56238204D01*
X189425505Y-56238204D01*
G37*
D11*
X188976000Y-57912000D03*
G04 #@! TD*
D10*
G04 #@! TO.C,R25*
G36*
X181297505Y-59032204D02*
X181321773Y-59035804D01*
X181345572Y-59041765D01*
X181368671Y-59050030D01*
X181390850Y-59060520D01*
X181411893Y-59073132D01*
X181431599Y-59087747D01*
X181449777Y-59104223D01*
X181466253Y-59122401D01*
X181480868Y-59142107D01*
X181493480Y-59163150D01*
X181503970Y-59185329D01*
X181512235Y-59208428D01*
X181518196Y-59232227D01*
X181521796Y-59256495D01*
X181523000Y-59280999D01*
X181523000Y-62131001D01*
X181521796Y-62155505D01*
X181518196Y-62179773D01*
X181512235Y-62203572D01*
X181503970Y-62226671D01*
X181493480Y-62248850D01*
X181480868Y-62269893D01*
X181466253Y-62289599D01*
X181449777Y-62307777D01*
X181431599Y-62324253D01*
X181411893Y-62338868D01*
X181390850Y-62351480D01*
X181368671Y-62361970D01*
X181345572Y-62370235D01*
X181321773Y-62376196D01*
X181297505Y-62379796D01*
X181273001Y-62381000D01*
X180422999Y-62381000D01*
X180398495Y-62379796D01*
X180374227Y-62376196D01*
X180350428Y-62370235D01*
X180327329Y-62361970D01*
X180305150Y-62351480D01*
X180284107Y-62338868D01*
X180264401Y-62324253D01*
X180246223Y-62307777D01*
X180229747Y-62289599D01*
X180215132Y-62269893D01*
X180202520Y-62248850D01*
X180192030Y-62226671D01*
X180183765Y-62203572D01*
X180177804Y-62179773D01*
X180174204Y-62155505D01*
X180173000Y-62131001D01*
X180173000Y-59280999D01*
X180174204Y-59256495D01*
X180177804Y-59232227D01*
X180183765Y-59208428D01*
X180192030Y-59185329D01*
X180202520Y-59163150D01*
X180215132Y-59142107D01*
X180229747Y-59122401D01*
X180246223Y-59104223D01*
X180264401Y-59087747D01*
X180284107Y-59073132D01*
X180305150Y-59060520D01*
X180327329Y-59050030D01*
X180350428Y-59041765D01*
X180374227Y-59035804D01*
X180398495Y-59032204D01*
X180422999Y-59031000D01*
X181273001Y-59031000D01*
X181297505Y-59032204D01*
X181297505Y-59032204D01*
G37*
D11*
X180848000Y-60706000D03*
D10*
G36*
X175497505Y-59032204D02*
X175521773Y-59035804D01*
X175545572Y-59041765D01*
X175568671Y-59050030D01*
X175590850Y-59060520D01*
X175611893Y-59073132D01*
X175631599Y-59087747D01*
X175649777Y-59104223D01*
X175666253Y-59122401D01*
X175680868Y-59142107D01*
X175693480Y-59163150D01*
X175703970Y-59185329D01*
X175712235Y-59208428D01*
X175718196Y-59232227D01*
X175721796Y-59256495D01*
X175723000Y-59280999D01*
X175723000Y-62131001D01*
X175721796Y-62155505D01*
X175718196Y-62179773D01*
X175712235Y-62203572D01*
X175703970Y-62226671D01*
X175693480Y-62248850D01*
X175680868Y-62269893D01*
X175666253Y-62289599D01*
X175649777Y-62307777D01*
X175631599Y-62324253D01*
X175611893Y-62338868D01*
X175590850Y-62351480D01*
X175568671Y-62361970D01*
X175545572Y-62370235D01*
X175521773Y-62376196D01*
X175497505Y-62379796D01*
X175473001Y-62381000D01*
X174622999Y-62381000D01*
X174598495Y-62379796D01*
X174574227Y-62376196D01*
X174550428Y-62370235D01*
X174527329Y-62361970D01*
X174505150Y-62351480D01*
X174484107Y-62338868D01*
X174464401Y-62324253D01*
X174446223Y-62307777D01*
X174429747Y-62289599D01*
X174415132Y-62269893D01*
X174402520Y-62248850D01*
X174392030Y-62226671D01*
X174383765Y-62203572D01*
X174377804Y-62179773D01*
X174374204Y-62155505D01*
X174373000Y-62131001D01*
X174373000Y-59280999D01*
X174374204Y-59256495D01*
X174377804Y-59232227D01*
X174383765Y-59208428D01*
X174392030Y-59185329D01*
X174402520Y-59163150D01*
X174415132Y-59142107D01*
X174429747Y-59122401D01*
X174446223Y-59104223D01*
X174464401Y-59087747D01*
X174484107Y-59073132D01*
X174505150Y-59060520D01*
X174527329Y-59050030D01*
X174550428Y-59041765D01*
X174574227Y-59035804D01*
X174598495Y-59032204D01*
X174622999Y-59031000D01*
X175473001Y-59031000D01*
X175497505Y-59032204D01*
X175497505Y-59032204D01*
G37*
D11*
X175048000Y-60706000D03*
G04 #@! TD*
D10*
G04 #@! TO.C,R28*
G36*
X183625505Y-61826204D02*
X183649773Y-61829804D01*
X183673572Y-61835765D01*
X183696671Y-61844030D01*
X183718850Y-61854520D01*
X183739893Y-61867132D01*
X183759599Y-61881747D01*
X183777777Y-61898223D01*
X183794253Y-61916401D01*
X183808868Y-61936107D01*
X183821480Y-61957150D01*
X183831970Y-61979329D01*
X183840235Y-62002428D01*
X183846196Y-62026227D01*
X183849796Y-62050495D01*
X183851000Y-62074999D01*
X183851000Y-64925001D01*
X183849796Y-64949505D01*
X183846196Y-64973773D01*
X183840235Y-64997572D01*
X183831970Y-65020671D01*
X183821480Y-65042850D01*
X183808868Y-65063893D01*
X183794253Y-65083599D01*
X183777777Y-65101777D01*
X183759599Y-65118253D01*
X183739893Y-65132868D01*
X183718850Y-65145480D01*
X183696671Y-65155970D01*
X183673572Y-65164235D01*
X183649773Y-65170196D01*
X183625505Y-65173796D01*
X183601001Y-65175000D01*
X182750999Y-65175000D01*
X182726495Y-65173796D01*
X182702227Y-65170196D01*
X182678428Y-65164235D01*
X182655329Y-65155970D01*
X182633150Y-65145480D01*
X182612107Y-65132868D01*
X182592401Y-65118253D01*
X182574223Y-65101777D01*
X182557747Y-65083599D01*
X182543132Y-65063893D01*
X182530520Y-65042850D01*
X182520030Y-65020671D01*
X182511765Y-64997572D01*
X182505804Y-64973773D01*
X182502204Y-64949505D01*
X182501000Y-64925001D01*
X182501000Y-62074999D01*
X182502204Y-62050495D01*
X182505804Y-62026227D01*
X182511765Y-62002428D01*
X182520030Y-61979329D01*
X182530520Y-61957150D01*
X182543132Y-61936107D01*
X182557747Y-61916401D01*
X182574223Y-61898223D01*
X182592401Y-61881747D01*
X182612107Y-61867132D01*
X182633150Y-61854520D01*
X182655329Y-61844030D01*
X182678428Y-61835765D01*
X182702227Y-61829804D01*
X182726495Y-61826204D01*
X182750999Y-61825000D01*
X183601001Y-61825000D01*
X183625505Y-61826204D01*
X183625505Y-61826204D01*
G37*
D11*
X183176000Y-63500000D03*
D10*
G36*
X189425505Y-61826204D02*
X189449773Y-61829804D01*
X189473572Y-61835765D01*
X189496671Y-61844030D01*
X189518850Y-61854520D01*
X189539893Y-61867132D01*
X189559599Y-61881747D01*
X189577777Y-61898223D01*
X189594253Y-61916401D01*
X189608868Y-61936107D01*
X189621480Y-61957150D01*
X189631970Y-61979329D01*
X189640235Y-62002428D01*
X189646196Y-62026227D01*
X189649796Y-62050495D01*
X189651000Y-62074999D01*
X189651000Y-64925001D01*
X189649796Y-64949505D01*
X189646196Y-64973773D01*
X189640235Y-64997572D01*
X189631970Y-65020671D01*
X189621480Y-65042850D01*
X189608868Y-65063893D01*
X189594253Y-65083599D01*
X189577777Y-65101777D01*
X189559599Y-65118253D01*
X189539893Y-65132868D01*
X189518850Y-65145480D01*
X189496671Y-65155970D01*
X189473572Y-65164235D01*
X189449773Y-65170196D01*
X189425505Y-65173796D01*
X189401001Y-65175000D01*
X188550999Y-65175000D01*
X188526495Y-65173796D01*
X188502227Y-65170196D01*
X188478428Y-65164235D01*
X188455329Y-65155970D01*
X188433150Y-65145480D01*
X188412107Y-65132868D01*
X188392401Y-65118253D01*
X188374223Y-65101777D01*
X188357747Y-65083599D01*
X188343132Y-65063893D01*
X188330520Y-65042850D01*
X188320030Y-65020671D01*
X188311765Y-64997572D01*
X188305804Y-64973773D01*
X188302204Y-64949505D01*
X188301000Y-64925001D01*
X188301000Y-62074999D01*
X188302204Y-62050495D01*
X188305804Y-62026227D01*
X188311765Y-62002428D01*
X188320030Y-61979329D01*
X188330520Y-61957150D01*
X188343132Y-61936107D01*
X188357747Y-61916401D01*
X188374223Y-61898223D01*
X188392401Y-61881747D01*
X188412107Y-61867132D01*
X188433150Y-61854520D01*
X188455329Y-61844030D01*
X188478428Y-61835765D01*
X188502227Y-61829804D01*
X188526495Y-61826204D01*
X188550999Y-61825000D01*
X189401001Y-61825000D01*
X189425505Y-61826204D01*
X189425505Y-61826204D01*
G37*
D11*
X188976000Y-63500000D03*
G04 #@! TD*
D10*
G04 #@! TO.C,R30*
G36*
X181297505Y-64747204D02*
X181321773Y-64750804D01*
X181345572Y-64756765D01*
X181368671Y-64765030D01*
X181390850Y-64775520D01*
X181411893Y-64788132D01*
X181431599Y-64802747D01*
X181449777Y-64819223D01*
X181466253Y-64837401D01*
X181480868Y-64857107D01*
X181493480Y-64878150D01*
X181503970Y-64900329D01*
X181512235Y-64923428D01*
X181518196Y-64947227D01*
X181521796Y-64971495D01*
X181523000Y-64995999D01*
X181523000Y-67846001D01*
X181521796Y-67870505D01*
X181518196Y-67894773D01*
X181512235Y-67918572D01*
X181503970Y-67941671D01*
X181493480Y-67963850D01*
X181480868Y-67984893D01*
X181466253Y-68004599D01*
X181449777Y-68022777D01*
X181431599Y-68039253D01*
X181411893Y-68053868D01*
X181390850Y-68066480D01*
X181368671Y-68076970D01*
X181345572Y-68085235D01*
X181321773Y-68091196D01*
X181297505Y-68094796D01*
X181273001Y-68096000D01*
X180422999Y-68096000D01*
X180398495Y-68094796D01*
X180374227Y-68091196D01*
X180350428Y-68085235D01*
X180327329Y-68076970D01*
X180305150Y-68066480D01*
X180284107Y-68053868D01*
X180264401Y-68039253D01*
X180246223Y-68022777D01*
X180229747Y-68004599D01*
X180215132Y-67984893D01*
X180202520Y-67963850D01*
X180192030Y-67941671D01*
X180183765Y-67918572D01*
X180177804Y-67894773D01*
X180174204Y-67870505D01*
X180173000Y-67846001D01*
X180173000Y-64995999D01*
X180174204Y-64971495D01*
X180177804Y-64947227D01*
X180183765Y-64923428D01*
X180192030Y-64900329D01*
X180202520Y-64878150D01*
X180215132Y-64857107D01*
X180229747Y-64837401D01*
X180246223Y-64819223D01*
X180264401Y-64802747D01*
X180284107Y-64788132D01*
X180305150Y-64775520D01*
X180327329Y-64765030D01*
X180350428Y-64756765D01*
X180374227Y-64750804D01*
X180398495Y-64747204D01*
X180422999Y-64746000D01*
X181273001Y-64746000D01*
X181297505Y-64747204D01*
X181297505Y-64747204D01*
G37*
D11*
X180848000Y-66421000D03*
D10*
G36*
X175497505Y-64747204D02*
X175521773Y-64750804D01*
X175545572Y-64756765D01*
X175568671Y-64765030D01*
X175590850Y-64775520D01*
X175611893Y-64788132D01*
X175631599Y-64802747D01*
X175649777Y-64819223D01*
X175666253Y-64837401D01*
X175680868Y-64857107D01*
X175693480Y-64878150D01*
X175703970Y-64900329D01*
X175712235Y-64923428D01*
X175718196Y-64947227D01*
X175721796Y-64971495D01*
X175723000Y-64995999D01*
X175723000Y-67846001D01*
X175721796Y-67870505D01*
X175718196Y-67894773D01*
X175712235Y-67918572D01*
X175703970Y-67941671D01*
X175693480Y-67963850D01*
X175680868Y-67984893D01*
X175666253Y-68004599D01*
X175649777Y-68022777D01*
X175631599Y-68039253D01*
X175611893Y-68053868D01*
X175590850Y-68066480D01*
X175568671Y-68076970D01*
X175545572Y-68085235D01*
X175521773Y-68091196D01*
X175497505Y-68094796D01*
X175473001Y-68096000D01*
X174622999Y-68096000D01*
X174598495Y-68094796D01*
X174574227Y-68091196D01*
X174550428Y-68085235D01*
X174527329Y-68076970D01*
X174505150Y-68066480D01*
X174484107Y-68053868D01*
X174464401Y-68039253D01*
X174446223Y-68022777D01*
X174429747Y-68004599D01*
X174415132Y-67984893D01*
X174402520Y-67963850D01*
X174392030Y-67941671D01*
X174383765Y-67918572D01*
X174377804Y-67894773D01*
X174374204Y-67870505D01*
X174373000Y-67846001D01*
X174373000Y-64995999D01*
X174374204Y-64971495D01*
X174377804Y-64947227D01*
X174383765Y-64923428D01*
X174392030Y-64900329D01*
X174402520Y-64878150D01*
X174415132Y-64857107D01*
X174429747Y-64837401D01*
X174446223Y-64819223D01*
X174464401Y-64802747D01*
X174484107Y-64788132D01*
X174505150Y-64775520D01*
X174527329Y-64765030D01*
X174550428Y-64756765D01*
X174574227Y-64750804D01*
X174598495Y-64747204D01*
X174622999Y-64746000D01*
X175473001Y-64746000D01*
X175497505Y-64747204D01*
X175497505Y-64747204D01*
G37*
D11*
X175048000Y-66421000D03*
G04 #@! TD*
D10*
G04 #@! TO.C,R32*
G36*
X183625505Y-67922204D02*
X183649773Y-67925804D01*
X183673572Y-67931765D01*
X183696671Y-67940030D01*
X183718850Y-67950520D01*
X183739893Y-67963132D01*
X183759599Y-67977747D01*
X183777777Y-67994223D01*
X183794253Y-68012401D01*
X183808868Y-68032107D01*
X183821480Y-68053150D01*
X183831970Y-68075329D01*
X183840235Y-68098428D01*
X183846196Y-68122227D01*
X183849796Y-68146495D01*
X183851000Y-68170999D01*
X183851000Y-71021001D01*
X183849796Y-71045505D01*
X183846196Y-71069773D01*
X183840235Y-71093572D01*
X183831970Y-71116671D01*
X183821480Y-71138850D01*
X183808868Y-71159893D01*
X183794253Y-71179599D01*
X183777777Y-71197777D01*
X183759599Y-71214253D01*
X183739893Y-71228868D01*
X183718850Y-71241480D01*
X183696671Y-71251970D01*
X183673572Y-71260235D01*
X183649773Y-71266196D01*
X183625505Y-71269796D01*
X183601001Y-71271000D01*
X182750999Y-71271000D01*
X182726495Y-71269796D01*
X182702227Y-71266196D01*
X182678428Y-71260235D01*
X182655329Y-71251970D01*
X182633150Y-71241480D01*
X182612107Y-71228868D01*
X182592401Y-71214253D01*
X182574223Y-71197777D01*
X182557747Y-71179599D01*
X182543132Y-71159893D01*
X182530520Y-71138850D01*
X182520030Y-71116671D01*
X182511765Y-71093572D01*
X182505804Y-71069773D01*
X182502204Y-71045505D01*
X182501000Y-71021001D01*
X182501000Y-68170999D01*
X182502204Y-68146495D01*
X182505804Y-68122227D01*
X182511765Y-68098428D01*
X182520030Y-68075329D01*
X182530520Y-68053150D01*
X182543132Y-68032107D01*
X182557747Y-68012401D01*
X182574223Y-67994223D01*
X182592401Y-67977747D01*
X182612107Y-67963132D01*
X182633150Y-67950520D01*
X182655329Y-67940030D01*
X182678428Y-67931765D01*
X182702227Y-67925804D01*
X182726495Y-67922204D01*
X182750999Y-67921000D01*
X183601001Y-67921000D01*
X183625505Y-67922204D01*
X183625505Y-67922204D01*
G37*
D11*
X183176000Y-69596000D03*
D10*
G36*
X189425505Y-67922204D02*
X189449773Y-67925804D01*
X189473572Y-67931765D01*
X189496671Y-67940030D01*
X189518850Y-67950520D01*
X189539893Y-67963132D01*
X189559599Y-67977747D01*
X189577777Y-67994223D01*
X189594253Y-68012401D01*
X189608868Y-68032107D01*
X189621480Y-68053150D01*
X189631970Y-68075329D01*
X189640235Y-68098428D01*
X189646196Y-68122227D01*
X189649796Y-68146495D01*
X189651000Y-68170999D01*
X189651000Y-71021001D01*
X189649796Y-71045505D01*
X189646196Y-71069773D01*
X189640235Y-71093572D01*
X189631970Y-71116671D01*
X189621480Y-71138850D01*
X189608868Y-71159893D01*
X189594253Y-71179599D01*
X189577777Y-71197777D01*
X189559599Y-71214253D01*
X189539893Y-71228868D01*
X189518850Y-71241480D01*
X189496671Y-71251970D01*
X189473572Y-71260235D01*
X189449773Y-71266196D01*
X189425505Y-71269796D01*
X189401001Y-71271000D01*
X188550999Y-71271000D01*
X188526495Y-71269796D01*
X188502227Y-71266196D01*
X188478428Y-71260235D01*
X188455329Y-71251970D01*
X188433150Y-71241480D01*
X188412107Y-71228868D01*
X188392401Y-71214253D01*
X188374223Y-71197777D01*
X188357747Y-71179599D01*
X188343132Y-71159893D01*
X188330520Y-71138850D01*
X188320030Y-71116671D01*
X188311765Y-71093572D01*
X188305804Y-71069773D01*
X188302204Y-71045505D01*
X188301000Y-71021001D01*
X188301000Y-68170999D01*
X188302204Y-68146495D01*
X188305804Y-68122227D01*
X188311765Y-68098428D01*
X188320030Y-68075329D01*
X188330520Y-68053150D01*
X188343132Y-68032107D01*
X188357747Y-68012401D01*
X188374223Y-67994223D01*
X188392401Y-67977747D01*
X188412107Y-67963132D01*
X188433150Y-67950520D01*
X188455329Y-67940030D01*
X188478428Y-67931765D01*
X188502227Y-67925804D01*
X188526495Y-67922204D01*
X188550999Y-67921000D01*
X189401001Y-67921000D01*
X189425505Y-67922204D01*
X189425505Y-67922204D01*
G37*
D11*
X188976000Y-69596000D03*
G04 #@! TD*
M02*
