M48
;DRILL file {KiCad (5.0.0)} date 01/28/19 16:35:18
;FORMAT={-:-/ absolute / inch / decimal}
FMAT,2
INCH,TZ
T1C0.0150
T2C0.0394
T3C0.0402
T4C0.0630
%
G90
G05
M72
T1
X5.5312Y-2.3858
X5.6062Y-2.1058
X5.7237Y-2.1058
X5.746Y-2.846
X5.772Y-2.588
X5.782Y-2.684
X5.8062Y-2.7308
X5.8062Y-2.8058
X5.808Y-2.846
X5.8412Y-2.1058
X5.8987Y-2.466
X5.9Y-3.181
X5.946Y-2.588
X5.9587Y-2.1058
X6.0025Y-3.181
X6.0262Y-2.6172
X6.0612Y-2.5758
X6.0762Y-2.1058
X6.1525Y-3.321
X6.1537Y-2.4683
X6.16Y-3.7135
X6.196Y-2.602
X6.1962Y-2.1058
X6.23Y-3.671
X6.2762Y-3.1233
X6.2812Y-2.6173
X6.3137Y-2.1033
X6.3162Y-2.5808
X6.3804Y-3.0683
X6.4087Y-2.466
X6.4287Y-2.8383
X6.4287Y-3.2322
X6.448Y-3.5744
X6.458Y-2.6
X6.5341Y-3.2041
X6.5362Y-2.6308
X6.5378Y-3.5742
X6.544Y-2.588
X6.5475Y-3.8485
X6.5696Y-3.5364
X6.5776Y-3.614
X6.578Y-2.572
X6.578Y-2.696
X6.5784Y-3.7676
X6.5874Y-3.664
X6.6287Y-2.1058
X6.6498Y-3.5362
X6.6613Y-3.1533
X6.6637Y-2.4308
X6.6637Y-2.8308
X6.698Y-3.5844
X6.712Y-2.596
X6.7462Y-2.1058
X6.7539Y-3.762
X6.792Y-2.584
X6.8087Y-3.0807
X6.8211Y-2.348
X6.832Y-2.58
X6.832Y-2.696
X6.8637Y-2.1058
X6.918Y-3.1244
X6.9187Y-2.4308
X6.9187Y-2.8183
X6.9525Y-3.8335
X6.968Y-2.6
X6.9725Y-3.5535
X6.9837Y-2.1058
X7.046Y-3.1644
X7.0462Y-2.6008
X7.1012Y-2.1058
X7.1425Y-2.4385
X7.3025Y-2.356
T2
X7.45Y-3.672
X7.45Y-3.772
X7.45Y-3.872
X7.55Y-3.672
X7.55Y-3.772
X7.55Y-3.872
X6.6283Y-1.7824
X6.7464Y-1.7824
X6.8645Y-1.7824
X6.9826Y-1.7824
X7.1007Y-1.7824
X7.2188Y-1.7824
X5.485Y-4.4535
X5.585Y-4.4535
X5.685Y-4.4535
X5.785Y-4.4535
X5.885Y-4.4535
X5.6047Y-1.7824
X5.7228Y-1.7824
X5.8409Y-1.7824
X5.959Y-1.7824
X6.0771Y-1.7824
X6.1952Y-1.7824
X6.3133Y-1.7824
X6.0775Y-4.4535
X6.1775Y-4.4535
X6.2775Y-4.4535
T3
X5.3022Y-3.0248
X5.3022Y-3.1429
X5.3025Y-3.521
X5.3025Y-3.6391
T4
X7.59Y-2.002
X7.59Y-2.388
X7.59Y-2.684
T0
M30
