G04 #@! TF.GenerationSoftware,KiCad,Pcbnew,(5.0.0)*
G04 #@! TF.CreationDate,2019-01-26T22:59:54-06:00*
G04 #@! TF.ProjectId,BPSVoltage,425053566F6C746167652E6B69636164,rev?*
G04 #@! TF.SameCoordinates,Original*
G04 #@! TF.FileFunction,Soldermask,Top*
G04 #@! TF.FilePolarity,Negative*
%FSLAX46Y46*%
G04 Gerber Fmt 4.6, Leading zero omitted, Abs format (unit mm)*
G04 Created by KiCad (PCBNEW (5.0.0)) date 01/26/19 22:59:54*
%MOMM*%
%LPD*%
G01*
G04 APERTURE LIST*
%ADD10R,2.600000X1.160000*%
%ADD11C,1.400000*%
%ADD12R,2.400000X1.900000*%
%ADD13O,2.400000X1.900000*%
%ADD14R,1.600000X0.800000*%
%ADD15R,4.200000X2.400000*%
%ADD16R,1.900000X2.400000*%
%ADD17C,0.100000*%
%ADD18C,1.375000*%
%ADD19C,1.670000*%
%ADD20C,2.100000*%
%ADD21R,1.200000X1.300000*%
G04 APERTURE END LIST*
D10*
G04 #@! TO.C,U2*
X210375500Y-64643000D03*
X210375500Y-65913000D03*
X202120500Y-73533000D03*
X210375500Y-72263000D03*
X202120500Y-72263000D03*
X202120500Y-69723000D03*
X210375500Y-73533000D03*
X202120500Y-70993000D03*
X210375500Y-70993000D03*
X210375500Y-69723000D03*
X210375500Y-67183000D03*
X202120500Y-68453000D03*
X202120500Y-67183000D03*
X202120500Y-64643000D03*
X210375500Y-68453000D03*
X202120500Y-65913000D03*
G04 #@! TD*
D11*
G04 #@! TO.C,J4*
X168728000Y-72596000D03*
X168728000Y-48596000D03*
D12*
X170688000Y-69596000D03*
D13*
X170688000Y-66596000D03*
X170688000Y-63596000D03*
X170688000Y-60596000D03*
X170688000Y-57596000D03*
X170688000Y-54596000D03*
X170688000Y-51596000D03*
G04 #@! TD*
D11*
G04 #@! TO.C,J3*
X168728000Y-47196000D03*
X168728000Y-26196000D03*
D12*
X170688000Y-44196000D03*
D13*
X170688000Y-41196000D03*
X170688000Y-38196000D03*
X170688000Y-35196000D03*
X170688000Y-32196000D03*
X170688000Y-29196000D03*
G04 #@! TD*
D14*
G04 #@! TO.C,U1*
X201548000Y-44513500D03*
X201548000Y-45148500D03*
X201548000Y-45783500D03*
X201548000Y-46418500D03*
X201548000Y-47053500D03*
X201548000Y-47688500D03*
X201548000Y-48323500D03*
X201548000Y-48958500D03*
X201548000Y-49593500D03*
X201548000Y-50228500D03*
X201548000Y-50863500D03*
X201548000Y-51498500D03*
X201548000Y-52133500D03*
X201548000Y-52768500D03*
X201548000Y-53403500D03*
X201548000Y-54038500D03*
X201548000Y-54673500D03*
X201548000Y-55308500D03*
X201548000Y-55943500D03*
X201548000Y-56578500D03*
X201548000Y-57213500D03*
X201548000Y-57848500D03*
X201548000Y-58483500D03*
X201548000Y-59118500D03*
X210948000Y-59118500D03*
X210948000Y-58483500D03*
X210948000Y-57848500D03*
X210948000Y-57213500D03*
X210948000Y-56578500D03*
X210948000Y-55943500D03*
X210948000Y-55308500D03*
X210948000Y-54673500D03*
X210948000Y-54038500D03*
X210948000Y-53403500D03*
X210948000Y-52768500D03*
X210948000Y-52133500D03*
X210948000Y-51498500D03*
X210948000Y-50863500D03*
X210948000Y-50228500D03*
X210948000Y-49593500D03*
X210948000Y-48958500D03*
X210948000Y-48323500D03*
X210948000Y-47688500D03*
X210948000Y-47053500D03*
X210948000Y-46418500D03*
X210948000Y-45783500D03*
X210948000Y-45148500D03*
X210948000Y-44513500D03*
G04 #@! TD*
D15*
G04 #@! TO.C,Q5*
X205740000Y-28448000D03*
D16*
X205740000Y-34748000D03*
X208040000Y-34748000D03*
X203440000Y-34748000D03*
G04 #@! TD*
D17*
G04 #@! TO.C,C1*
G36*
X187478443Y-25009655D02*
X187511812Y-25014605D01*
X187544535Y-25022802D01*
X187576297Y-25034166D01*
X187606793Y-25048590D01*
X187635727Y-25065932D01*
X187662823Y-25086028D01*
X187687818Y-25108682D01*
X187710472Y-25133677D01*
X187730568Y-25160773D01*
X187747910Y-25189707D01*
X187762334Y-25220203D01*
X187773698Y-25251965D01*
X187781895Y-25284688D01*
X187786845Y-25318057D01*
X187788500Y-25351750D01*
X187788500Y-26464250D01*
X187786845Y-26497943D01*
X187781895Y-26531312D01*
X187773698Y-26564035D01*
X187762334Y-26595797D01*
X187747910Y-26626293D01*
X187730568Y-26655227D01*
X187710472Y-26682323D01*
X187687818Y-26707318D01*
X187662823Y-26729972D01*
X187635727Y-26750068D01*
X187606793Y-26767410D01*
X187576297Y-26781834D01*
X187544535Y-26793198D01*
X187511812Y-26801395D01*
X187478443Y-26806345D01*
X187444750Y-26808000D01*
X186757250Y-26808000D01*
X186723557Y-26806345D01*
X186690188Y-26801395D01*
X186657465Y-26793198D01*
X186625703Y-26781834D01*
X186595207Y-26767410D01*
X186566273Y-26750068D01*
X186539177Y-26729972D01*
X186514182Y-26707318D01*
X186491528Y-26682323D01*
X186471432Y-26655227D01*
X186454090Y-26626293D01*
X186439666Y-26595797D01*
X186428302Y-26564035D01*
X186420105Y-26531312D01*
X186415155Y-26497943D01*
X186413500Y-26464250D01*
X186413500Y-25351750D01*
X186415155Y-25318057D01*
X186420105Y-25284688D01*
X186428302Y-25251965D01*
X186439666Y-25220203D01*
X186454090Y-25189707D01*
X186471432Y-25160773D01*
X186491528Y-25133677D01*
X186514182Y-25108682D01*
X186539177Y-25086028D01*
X186566273Y-25065932D01*
X186595207Y-25048590D01*
X186625703Y-25034166D01*
X186657465Y-25022802D01*
X186690188Y-25014605D01*
X186723557Y-25009655D01*
X186757250Y-25008000D01*
X187444750Y-25008000D01*
X187478443Y-25009655D01*
X187478443Y-25009655D01*
G37*
D18*
X187101000Y-25908000D03*
D17*
G36*
X189353443Y-25009655D02*
X189386812Y-25014605D01*
X189419535Y-25022802D01*
X189451297Y-25034166D01*
X189481793Y-25048590D01*
X189510727Y-25065932D01*
X189537823Y-25086028D01*
X189562818Y-25108682D01*
X189585472Y-25133677D01*
X189605568Y-25160773D01*
X189622910Y-25189707D01*
X189637334Y-25220203D01*
X189648698Y-25251965D01*
X189656895Y-25284688D01*
X189661845Y-25318057D01*
X189663500Y-25351750D01*
X189663500Y-26464250D01*
X189661845Y-26497943D01*
X189656895Y-26531312D01*
X189648698Y-26564035D01*
X189637334Y-26595797D01*
X189622910Y-26626293D01*
X189605568Y-26655227D01*
X189585472Y-26682323D01*
X189562818Y-26707318D01*
X189537823Y-26729972D01*
X189510727Y-26750068D01*
X189481793Y-26767410D01*
X189451297Y-26781834D01*
X189419535Y-26793198D01*
X189386812Y-26801395D01*
X189353443Y-26806345D01*
X189319750Y-26808000D01*
X188632250Y-26808000D01*
X188598557Y-26806345D01*
X188565188Y-26801395D01*
X188532465Y-26793198D01*
X188500703Y-26781834D01*
X188470207Y-26767410D01*
X188441273Y-26750068D01*
X188414177Y-26729972D01*
X188389182Y-26707318D01*
X188366528Y-26682323D01*
X188346432Y-26655227D01*
X188329090Y-26626293D01*
X188314666Y-26595797D01*
X188303302Y-26564035D01*
X188295105Y-26531312D01*
X188290155Y-26497943D01*
X188288500Y-26464250D01*
X188288500Y-25351750D01*
X188290155Y-25318057D01*
X188295105Y-25284688D01*
X188303302Y-25251965D01*
X188314666Y-25220203D01*
X188329090Y-25189707D01*
X188346432Y-25160773D01*
X188366528Y-25133677D01*
X188389182Y-25108682D01*
X188414177Y-25086028D01*
X188441273Y-25065932D01*
X188470207Y-25048590D01*
X188500703Y-25034166D01*
X188532465Y-25022802D01*
X188565188Y-25014605D01*
X188598557Y-25009655D01*
X188632250Y-25008000D01*
X189319750Y-25008000D01*
X189353443Y-25009655D01*
X189353443Y-25009655D01*
G37*
D18*
X188976000Y-25908000D03*
G04 #@! TD*
D17*
G04 #@! TO.C,C2*
G36*
X189057943Y-31318155D02*
X189091312Y-31323105D01*
X189124035Y-31331302D01*
X189155797Y-31342666D01*
X189186293Y-31357090D01*
X189215227Y-31374432D01*
X189242323Y-31394528D01*
X189267318Y-31417182D01*
X189289972Y-31442177D01*
X189310068Y-31469273D01*
X189327410Y-31498207D01*
X189341834Y-31528703D01*
X189353198Y-31560465D01*
X189361395Y-31593188D01*
X189366345Y-31626557D01*
X189368000Y-31660250D01*
X189368000Y-32347750D01*
X189366345Y-32381443D01*
X189361395Y-32414812D01*
X189353198Y-32447535D01*
X189341834Y-32479297D01*
X189327410Y-32509793D01*
X189310068Y-32538727D01*
X189289972Y-32565823D01*
X189267318Y-32590818D01*
X189242323Y-32613472D01*
X189215227Y-32633568D01*
X189186293Y-32650910D01*
X189155797Y-32665334D01*
X189124035Y-32676698D01*
X189091312Y-32684895D01*
X189057943Y-32689845D01*
X189024250Y-32691500D01*
X187911750Y-32691500D01*
X187878057Y-32689845D01*
X187844688Y-32684895D01*
X187811965Y-32676698D01*
X187780203Y-32665334D01*
X187749707Y-32650910D01*
X187720773Y-32633568D01*
X187693677Y-32613472D01*
X187668682Y-32590818D01*
X187646028Y-32565823D01*
X187625932Y-32538727D01*
X187608590Y-32509793D01*
X187594166Y-32479297D01*
X187582802Y-32447535D01*
X187574605Y-32414812D01*
X187569655Y-32381443D01*
X187568000Y-32347750D01*
X187568000Y-31660250D01*
X187569655Y-31626557D01*
X187574605Y-31593188D01*
X187582802Y-31560465D01*
X187594166Y-31528703D01*
X187608590Y-31498207D01*
X187625932Y-31469273D01*
X187646028Y-31442177D01*
X187668682Y-31417182D01*
X187693677Y-31394528D01*
X187720773Y-31374432D01*
X187749707Y-31357090D01*
X187780203Y-31342666D01*
X187811965Y-31331302D01*
X187844688Y-31323105D01*
X187878057Y-31318155D01*
X187911750Y-31316500D01*
X189024250Y-31316500D01*
X189057943Y-31318155D01*
X189057943Y-31318155D01*
G37*
D18*
X188468000Y-32004000D03*
D17*
G36*
X189057943Y-29443155D02*
X189091312Y-29448105D01*
X189124035Y-29456302D01*
X189155797Y-29467666D01*
X189186293Y-29482090D01*
X189215227Y-29499432D01*
X189242323Y-29519528D01*
X189267318Y-29542182D01*
X189289972Y-29567177D01*
X189310068Y-29594273D01*
X189327410Y-29623207D01*
X189341834Y-29653703D01*
X189353198Y-29685465D01*
X189361395Y-29718188D01*
X189366345Y-29751557D01*
X189368000Y-29785250D01*
X189368000Y-30472750D01*
X189366345Y-30506443D01*
X189361395Y-30539812D01*
X189353198Y-30572535D01*
X189341834Y-30604297D01*
X189327410Y-30634793D01*
X189310068Y-30663727D01*
X189289972Y-30690823D01*
X189267318Y-30715818D01*
X189242323Y-30738472D01*
X189215227Y-30758568D01*
X189186293Y-30775910D01*
X189155797Y-30790334D01*
X189124035Y-30801698D01*
X189091312Y-30809895D01*
X189057943Y-30814845D01*
X189024250Y-30816500D01*
X187911750Y-30816500D01*
X187878057Y-30814845D01*
X187844688Y-30809895D01*
X187811965Y-30801698D01*
X187780203Y-30790334D01*
X187749707Y-30775910D01*
X187720773Y-30758568D01*
X187693677Y-30738472D01*
X187668682Y-30715818D01*
X187646028Y-30690823D01*
X187625932Y-30663727D01*
X187608590Y-30634793D01*
X187594166Y-30604297D01*
X187582802Y-30572535D01*
X187574605Y-30539812D01*
X187569655Y-30506443D01*
X187568000Y-30472750D01*
X187568000Y-29785250D01*
X187569655Y-29751557D01*
X187574605Y-29718188D01*
X187582802Y-29685465D01*
X187594166Y-29653703D01*
X187608590Y-29623207D01*
X187625932Y-29594273D01*
X187646028Y-29567177D01*
X187668682Y-29542182D01*
X187693677Y-29519528D01*
X187720773Y-29499432D01*
X187749707Y-29482090D01*
X187780203Y-29467666D01*
X187811965Y-29456302D01*
X187844688Y-29448105D01*
X187878057Y-29443155D01*
X187911750Y-29441500D01*
X189024250Y-29441500D01*
X189057943Y-29443155D01*
X189057943Y-29443155D01*
G37*
D18*
X188468000Y-30129000D03*
G04 #@! TD*
D17*
G04 #@! TO.C,C3*
G36*
X202265943Y-39603155D02*
X202299312Y-39608105D01*
X202332035Y-39616302D01*
X202363797Y-39627666D01*
X202394293Y-39642090D01*
X202423227Y-39659432D01*
X202450323Y-39679528D01*
X202475318Y-39702182D01*
X202497972Y-39727177D01*
X202518068Y-39754273D01*
X202535410Y-39783207D01*
X202549834Y-39813703D01*
X202561198Y-39845465D01*
X202569395Y-39878188D01*
X202574345Y-39911557D01*
X202576000Y-39945250D01*
X202576000Y-40632750D01*
X202574345Y-40666443D01*
X202569395Y-40699812D01*
X202561198Y-40732535D01*
X202549834Y-40764297D01*
X202535410Y-40794793D01*
X202518068Y-40823727D01*
X202497972Y-40850823D01*
X202475318Y-40875818D01*
X202450323Y-40898472D01*
X202423227Y-40918568D01*
X202394293Y-40935910D01*
X202363797Y-40950334D01*
X202332035Y-40961698D01*
X202299312Y-40969895D01*
X202265943Y-40974845D01*
X202232250Y-40976500D01*
X201119750Y-40976500D01*
X201086057Y-40974845D01*
X201052688Y-40969895D01*
X201019965Y-40961698D01*
X200988203Y-40950334D01*
X200957707Y-40935910D01*
X200928773Y-40918568D01*
X200901677Y-40898472D01*
X200876682Y-40875818D01*
X200854028Y-40850823D01*
X200833932Y-40823727D01*
X200816590Y-40794793D01*
X200802166Y-40764297D01*
X200790802Y-40732535D01*
X200782605Y-40699812D01*
X200777655Y-40666443D01*
X200776000Y-40632750D01*
X200776000Y-39945250D01*
X200777655Y-39911557D01*
X200782605Y-39878188D01*
X200790802Y-39845465D01*
X200802166Y-39813703D01*
X200816590Y-39783207D01*
X200833932Y-39754273D01*
X200854028Y-39727177D01*
X200876682Y-39702182D01*
X200901677Y-39679528D01*
X200928773Y-39659432D01*
X200957707Y-39642090D01*
X200988203Y-39627666D01*
X201019965Y-39616302D01*
X201052688Y-39608105D01*
X201086057Y-39603155D01*
X201119750Y-39601500D01*
X202232250Y-39601500D01*
X202265943Y-39603155D01*
X202265943Y-39603155D01*
G37*
D18*
X201676000Y-40289000D03*
D17*
G36*
X202265943Y-41478155D02*
X202299312Y-41483105D01*
X202332035Y-41491302D01*
X202363797Y-41502666D01*
X202394293Y-41517090D01*
X202423227Y-41534432D01*
X202450323Y-41554528D01*
X202475318Y-41577182D01*
X202497972Y-41602177D01*
X202518068Y-41629273D01*
X202535410Y-41658207D01*
X202549834Y-41688703D01*
X202561198Y-41720465D01*
X202569395Y-41753188D01*
X202574345Y-41786557D01*
X202576000Y-41820250D01*
X202576000Y-42507750D01*
X202574345Y-42541443D01*
X202569395Y-42574812D01*
X202561198Y-42607535D01*
X202549834Y-42639297D01*
X202535410Y-42669793D01*
X202518068Y-42698727D01*
X202497972Y-42725823D01*
X202475318Y-42750818D01*
X202450323Y-42773472D01*
X202423227Y-42793568D01*
X202394293Y-42810910D01*
X202363797Y-42825334D01*
X202332035Y-42836698D01*
X202299312Y-42844895D01*
X202265943Y-42849845D01*
X202232250Y-42851500D01*
X201119750Y-42851500D01*
X201086057Y-42849845D01*
X201052688Y-42844895D01*
X201019965Y-42836698D01*
X200988203Y-42825334D01*
X200957707Y-42810910D01*
X200928773Y-42793568D01*
X200901677Y-42773472D01*
X200876682Y-42750818D01*
X200854028Y-42725823D01*
X200833932Y-42698727D01*
X200816590Y-42669793D01*
X200802166Y-42639297D01*
X200790802Y-42607535D01*
X200782605Y-42574812D01*
X200777655Y-42541443D01*
X200776000Y-42507750D01*
X200776000Y-41820250D01*
X200777655Y-41786557D01*
X200782605Y-41753188D01*
X200790802Y-41720465D01*
X200802166Y-41688703D01*
X200816590Y-41658207D01*
X200833932Y-41629273D01*
X200854028Y-41602177D01*
X200876682Y-41577182D01*
X200901677Y-41554528D01*
X200928773Y-41534432D01*
X200957707Y-41517090D01*
X200988203Y-41502666D01*
X201019965Y-41491302D01*
X201052688Y-41483105D01*
X201086057Y-41478155D01*
X201119750Y-41476500D01*
X202232250Y-41476500D01*
X202265943Y-41478155D01*
X202265943Y-41478155D01*
G37*
D18*
X201676000Y-42164000D03*
G04 #@! TD*
D17*
G04 #@! TO.C,C4*
G36*
X194137943Y-33507155D02*
X194171312Y-33512105D01*
X194204035Y-33520302D01*
X194235797Y-33531666D01*
X194266293Y-33546090D01*
X194295227Y-33563432D01*
X194322323Y-33583528D01*
X194347318Y-33606182D01*
X194369972Y-33631177D01*
X194390068Y-33658273D01*
X194407410Y-33687207D01*
X194421834Y-33717703D01*
X194433198Y-33749465D01*
X194441395Y-33782188D01*
X194446345Y-33815557D01*
X194448000Y-33849250D01*
X194448000Y-34536750D01*
X194446345Y-34570443D01*
X194441395Y-34603812D01*
X194433198Y-34636535D01*
X194421834Y-34668297D01*
X194407410Y-34698793D01*
X194390068Y-34727727D01*
X194369972Y-34754823D01*
X194347318Y-34779818D01*
X194322323Y-34802472D01*
X194295227Y-34822568D01*
X194266293Y-34839910D01*
X194235797Y-34854334D01*
X194204035Y-34865698D01*
X194171312Y-34873895D01*
X194137943Y-34878845D01*
X194104250Y-34880500D01*
X192991750Y-34880500D01*
X192958057Y-34878845D01*
X192924688Y-34873895D01*
X192891965Y-34865698D01*
X192860203Y-34854334D01*
X192829707Y-34839910D01*
X192800773Y-34822568D01*
X192773677Y-34802472D01*
X192748682Y-34779818D01*
X192726028Y-34754823D01*
X192705932Y-34727727D01*
X192688590Y-34698793D01*
X192674166Y-34668297D01*
X192662802Y-34636535D01*
X192654605Y-34603812D01*
X192649655Y-34570443D01*
X192648000Y-34536750D01*
X192648000Y-33849250D01*
X192649655Y-33815557D01*
X192654605Y-33782188D01*
X192662802Y-33749465D01*
X192674166Y-33717703D01*
X192688590Y-33687207D01*
X192705932Y-33658273D01*
X192726028Y-33631177D01*
X192748682Y-33606182D01*
X192773677Y-33583528D01*
X192800773Y-33563432D01*
X192829707Y-33546090D01*
X192860203Y-33531666D01*
X192891965Y-33520302D01*
X192924688Y-33512105D01*
X192958057Y-33507155D01*
X192991750Y-33505500D01*
X194104250Y-33505500D01*
X194137943Y-33507155D01*
X194137943Y-33507155D01*
G37*
D18*
X193548000Y-34193000D03*
D17*
G36*
X194137943Y-35382155D02*
X194171312Y-35387105D01*
X194204035Y-35395302D01*
X194235797Y-35406666D01*
X194266293Y-35421090D01*
X194295227Y-35438432D01*
X194322323Y-35458528D01*
X194347318Y-35481182D01*
X194369972Y-35506177D01*
X194390068Y-35533273D01*
X194407410Y-35562207D01*
X194421834Y-35592703D01*
X194433198Y-35624465D01*
X194441395Y-35657188D01*
X194446345Y-35690557D01*
X194448000Y-35724250D01*
X194448000Y-36411750D01*
X194446345Y-36445443D01*
X194441395Y-36478812D01*
X194433198Y-36511535D01*
X194421834Y-36543297D01*
X194407410Y-36573793D01*
X194390068Y-36602727D01*
X194369972Y-36629823D01*
X194347318Y-36654818D01*
X194322323Y-36677472D01*
X194295227Y-36697568D01*
X194266293Y-36714910D01*
X194235797Y-36729334D01*
X194204035Y-36740698D01*
X194171312Y-36748895D01*
X194137943Y-36753845D01*
X194104250Y-36755500D01*
X192991750Y-36755500D01*
X192958057Y-36753845D01*
X192924688Y-36748895D01*
X192891965Y-36740698D01*
X192860203Y-36729334D01*
X192829707Y-36714910D01*
X192800773Y-36697568D01*
X192773677Y-36677472D01*
X192748682Y-36654818D01*
X192726028Y-36629823D01*
X192705932Y-36602727D01*
X192688590Y-36573793D01*
X192674166Y-36543297D01*
X192662802Y-36511535D01*
X192654605Y-36478812D01*
X192649655Y-36445443D01*
X192648000Y-36411750D01*
X192648000Y-35724250D01*
X192649655Y-35690557D01*
X192654605Y-35657188D01*
X192662802Y-35624465D01*
X192674166Y-35592703D01*
X192688590Y-35562207D01*
X192705932Y-35533273D01*
X192726028Y-35506177D01*
X192748682Y-35481182D01*
X192773677Y-35458528D01*
X192800773Y-35438432D01*
X192829707Y-35421090D01*
X192860203Y-35406666D01*
X192891965Y-35395302D01*
X192924688Y-35387105D01*
X192958057Y-35382155D01*
X192991750Y-35380500D01*
X194104250Y-35380500D01*
X194137943Y-35382155D01*
X194137943Y-35382155D01*
G37*
D18*
X193548000Y-36068000D03*
G04 #@! TD*
D17*
G04 #@! TO.C,C5*
G36*
X194137943Y-39289155D02*
X194171312Y-39294105D01*
X194204035Y-39302302D01*
X194235797Y-39313666D01*
X194266293Y-39328090D01*
X194295227Y-39345432D01*
X194322323Y-39365528D01*
X194347318Y-39388182D01*
X194369972Y-39413177D01*
X194390068Y-39440273D01*
X194407410Y-39469207D01*
X194421834Y-39499703D01*
X194433198Y-39531465D01*
X194441395Y-39564188D01*
X194446345Y-39597557D01*
X194448000Y-39631250D01*
X194448000Y-40318750D01*
X194446345Y-40352443D01*
X194441395Y-40385812D01*
X194433198Y-40418535D01*
X194421834Y-40450297D01*
X194407410Y-40480793D01*
X194390068Y-40509727D01*
X194369972Y-40536823D01*
X194347318Y-40561818D01*
X194322323Y-40584472D01*
X194295227Y-40604568D01*
X194266293Y-40621910D01*
X194235797Y-40636334D01*
X194204035Y-40647698D01*
X194171312Y-40655895D01*
X194137943Y-40660845D01*
X194104250Y-40662500D01*
X192991750Y-40662500D01*
X192958057Y-40660845D01*
X192924688Y-40655895D01*
X192891965Y-40647698D01*
X192860203Y-40636334D01*
X192829707Y-40621910D01*
X192800773Y-40604568D01*
X192773677Y-40584472D01*
X192748682Y-40561818D01*
X192726028Y-40536823D01*
X192705932Y-40509727D01*
X192688590Y-40480793D01*
X192674166Y-40450297D01*
X192662802Y-40418535D01*
X192654605Y-40385812D01*
X192649655Y-40352443D01*
X192648000Y-40318750D01*
X192648000Y-39631250D01*
X192649655Y-39597557D01*
X192654605Y-39564188D01*
X192662802Y-39531465D01*
X192674166Y-39499703D01*
X192688590Y-39469207D01*
X192705932Y-39440273D01*
X192726028Y-39413177D01*
X192748682Y-39388182D01*
X192773677Y-39365528D01*
X192800773Y-39345432D01*
X192829707Y-39328090D01*
X192860203Y-39313666D01*
X192891965Y-39302302D01*
X192924688Y-39294105D01*
X192958057Y-39289155D01*
X192991750Y-39287500D01*
X194104250Y-39287500D01*
X194137943Y-39289155D01*
X194137943Y-39289155D01*
G37*
D18*
X193548000Y-39975000D03*
D17*
G36*
X194137943Y-37414155D02*
X194171312Y-37419105D01*
X194204035Y-37427302D01*
X194235797Y-37438666D01*
X194266293Y-37453090D01*
X194295227Y-37470432D01*
X194322323Y-37490528D01*
X194347318Y-37513182D01*
X194369972Y-37538177D01*
X194390068Y-37565273D01*
X194407410Y-37594207D01*
X194421834Y-37624703D01*
X194433198Y-37656465D01*
X194441395Y-37689188D01*
X194446345Y-37722557D01*
X194448000Y-37756250D01*
X194448000Y-38443750D01*
X194446345Y-38477443D01*
X194441395Y-38510812D01*
X194433198Y-38543535D01*
X194421834Y-38575297D01*
X194407410Y-38605793D01*
X194390068Y-38634727D01*
X194369972Y-38661823D01*
X194347318Y-38686818D01*
X194322323Y-38709472D01*
X194295227Y-38729568D01*
X194266293Y-38746910D01*
X194235797Y-38761334D01*
X194204035Y-38772698D01*
X194171312Y-38780895D01*
X194137943Y-38785845D01*
X194104250Y-38787500D01*
X192991750Y-38787500D01*
X192958057Y-38785845D01*
X192924688Y-38780895D01*
X192891965Y-38772698D01*
X192860203Y-38761334D01*
X192829707Y-38746910D01*
X192800773Y-38729568D01*
X192773677Y-38709472D01*
X192748682Y-38686818D01*
X192726028Y-38661823D01*
X192705932Y-38634727D01*
X192688590Y-38605793D01*
X192674166Y-38575297D01*
X192662802Y-38543535D01*
X192654605Y-38510812D01*
X192649655Y-38477443D01*
X192648000Y-38443750D01*
X192648000Y-37756250D01*
X192649655Y-37722557D01*
X192654605Y-37689188D01*
X192662802Y-37656465D01*
X192674166Y-37624703D01*
X192688590Y-37594207D01*
X192705932Y-37565273D01*
X192726028Y-37538177D01*
X192748682Y-37513182D01*
X192773677Y-37490528D01*
X192800773Y-37470432D01*
X192829707Y-37453090D01*
X192860203Y-37438666D01*
X192891965Y-37427302D01*
X192924688Y-37419105D01*
X192958057Y-37414155D01*
X192991750Y-37412500D01*
X194104250Y-37412500D01*
X194137943Y-37414155D01*
X194137943Y-37414155D01*
G37*
D18*
X193548000Y-38100000D03*
G04 #@! TD*
D17*
G04 #@! TO.C,C6*
G36*
X194137943Y-40970155D02*
X194171312Y-40975105D01*
X194204035Y-40983302D01*
X194235797Y-40994666D01*
X194266293Y-41009090D01*
X194295227Y-41026432D01*
X194322323Y-41046528D01*
X194347318Y-41069182D01*
X194369972Y-41094177D01*
X194390068Y-41121273D01*
X194407410Y-41150207D01*
X194421834Y-41180703D01*
X194433198Y-41212465D01*
X194441395Y-41245188D01*
X194446345Y-41278557D01*
X194448000Y-41312250D01*
X194448000Y-41999750D01*
X194446345Y-42033443D01*
X194441395Y-42066812D01*
X194433198Y-42099535D01*
X194421834Y-42131297D01*
X194407410Y-42161793D01*
X194390068Y-42190727D01*
X194369972Y-42217823D01*
X194347318Y-42242818D01*
X194322323Y-42265472D01*
X194295227Y-42285568D01*
X194266293Y-42302910D01*
X194235797Y-42317334D01*
X194204035Y-42328698D01*
X194171312Y-42336895D01*
X194137943Y-42341845D01*
X194104250Y-42343500D01*
X192991750Y-42343500D01*
X192958057Y-42341845D01*
X192924688Y-42336895D01*
X192891965Y-42328698D01*
X192860203Y-42317334D01*
X192829707Y-42302910D01*
X192800773Y-42285568D01*
X192773677Y-42265472D01*
X192748682Y-42242818D01*
X192726028Y-42217823D01*
X192705932Y-42190727D01*
X192688590Y-42161793D01*
X192674166Y-42131297D01*
X192662802Y-42099535D01*
X192654605Y-42066812D01*
X192649655Y-42033443D01*
X192648000Y-41999750D01*
X192648000Y-41312250D01*
X192649655Y-41278557D01*
X192654605Y-41245188D01*
X192662802Y-41212465D01*
X192674166Y-41180703D01*
X192688590Y-41150207D01*
X192705932Y-41121273D01*
X192726028Y-41094177D01*
X192748682Y-41069182D01*
X192773677Y-41046528D01*
X192800773Y-41026432D01*
X192829707Y-41009090D01*
X192860203Y-40994666D01*
X192891965Y-40983302D01*
X192924688Y-40975105D01*
X192958057Y-40970155D01*
X192991750Y-40968500D01*
X194104250Y-40968500D01*
X194137943Y-40970155D01*
X194137943Y-40970155D01*
G37*
D18*
X193548000Y-41656000D03*
D17*
G36*
X194137943Y-42845155D02*
X194171312Y-42850105D01*
X194204035Y-42858302D01*
X194235797Y-42869666D01*
X194266293Y-42884090D01*
X194295227Y-42901432D01*
X194322323Y-42921528D01*
X194347318Y-42944182D01*
X194369972Y-42969177D01*
X194390068Y-42996273D01*
X194407410Y-43025207D01*
X194421834Y-43055703D01*
X194433198Y-43087465D01*
X194441395Y-43120188D01*
X194446345Y-43153557D01*
X194448000Y-43187250D01*
X194448000Y-43874750D01*
X194446345Y-43908443D01*
X194441395Y-43941812D01*
X194433198Y-43974535D01*
X194421834Y-44006297D01*
X194407410Y-44036793D01*
X194390068Y-44065727D01*
X194369972Y-44092823D01*
X194347318Y-44117818D01*
X194322323Y-44140472D01*
X194295227Y-44160568D01*
X194266293Y-44177910D01*
X194235797Y-44192334D01*
X194204035Y-44203698D01*
X194171312Y-44211895D01*
X194137943Y-44216845D01*
X194104250Y-44218500D01*
X192991750Y-44218500D01*
X192958057Y-44216845D01*
X192924688Y-44211895D01*
X192891965Y-44203698D01*
X192860203Y-44192334D01*
X192829707Y-44177910D01*
X192800773Y-44160568D01*
X192773677Y-44140472D01*
X192748682Y-44117818D01*
X192726028Y-44092823D01*
X192705932Y-44065727D01*
X192688590Y-44036793D01*
X192674166Y-44006297D01*
X192662802Y-43974535D01*
X192654605Y-43941812D01*
X192649655Y-43908443D01*
X192648000Y-43874750D01*
X192648000Y-43187250D01*
X192649655Y-43153557D01*
X192654605Y-43120188D01*
X192662802Y-43087465D01*
X192674166Y-43055703D01*
X192688590Y-43025207D01*
X192705932Y-42996273D01*
X192726028Y-42969177D01*
X192748682Y-42944182D01*
X192773677Y-42921528D01*
X192800773Y-42901432D01*
X192829707Y-42884090D01*
X192860203Y-42869666D01*
X192891965Y-42858302D01*
X192924688Y-42850105D01*
X192958057Y-42845155D01*
X192991750Y-42843500D01*
X194104250Y-42843500D01*
X194137943Y-42845155D01*
X194137943Y-42845155D01*
G37*
D18*
X193548000Y-43531000D03*
G04 #@! TD*
D17*
G04 #@! TO.C,C7*
G36*
X194137943Y-46558155D02*
X194171312Y-46563105D01*
X194204035Y-46571302D01*
X194235797Y-46582666D01*
X194266293Y-46597090D01*
X194295227Y-46614432D01*
X194322323Y-46634528D01*
X194347318Y-46657182D01*
X194369972Y-46682177D01*
X194390068Y-46709273D01*
X194407410Y-46738207D01*
X194421834Y-46768703D01*
X194433198Y-46800465D01*
X194441395Y-46833188D01*
X194446345Y-46866557D01*
X194448000Y-46900250D01*
X194448000Y-47587750D01*
X194446345Y-47621443D01*
X194441395Y-47654812D01*
X194433198Y-47687535D01*
X194421834Y-47719297D01*
X194407410Y-47749793D01*
X194390068Y-47778727D01*
X194369972Y-47805823D01*
X194347318Y-47830818D01*
X194322323Y-47853472D01*
X194295227Y-47873568D01*
X194266293Y-47890910D01*
X194235797Y-47905334D01*
X194204035Y-47916698D01*
X194171312Y-47924895D01*
X194137943Y-47929845D01*
X194104250Y-47931500D01*
X192991750Y-47931500D01*
X192958057Y-47929845D01*
X192924688Y-47924895D01*
X192891965Y-47916698D01*
X192860203Y-47905334D01*
X192829707Y-47890910D01*
X192800773Y-47873568D01*
X192773677Y-47853472D01*
X192748682Y-47830818D01*
X192726028Y-47805823D01*
X192705932Y-47778727D01*
X192688590Y-47749793D01*
X192674166Y-47719297D01*
X192662802Y-47687535D01*
X192654605Y-47654812D01*
X192649655Y-47621443D01*
X192648000Y-47587750D01*
X192648000Y-46900250D01*
X192649655Y-46866557D01*
X192654605Y-46833188D01*
X192662802Y-46800465D01*
X192674166Y-46768703D01*
X192688590Y-46738207D01*
X192705932Y-46709273D01*
X192726028Y-46682177D01*
X192748682Y-46657182D01*
X192773677Y-46634528D01*
X192800773Y-46614432D01*
X192829707Y-46597090D01*
X192860203Y-46582666D01*
X192891965Y-46571302D01*
X192924688Y-46563105D01*
X192958057Y-46558155D01*
X192991750Y-46556500D01*
X194104250Y-46556500D01*
X194137943Y-46558155D01*
X194137943Y-46558155D01*
G37*
D18*
X193548000Y-47244000D03*
D17*
G36*
X194137943Y-44683155D02*
X194171312Y-44688105D01*
X194204035Y-44696302D01*
X194235797Y-44707666D01*
X194266293Y-44722090D01*
X194295227Y-44739432D01*
X194322323Y-44759528D01*
X194347318Y-44782182D01*
X194369972Y-44807177D01*
X194390068Y-44834273D01*
X194407410Y-44863207D01*
X194421834Y-44893703D01*
X194433198Y-44925465D01*
X194441395Y-44958188D01*
X194446345Y-44991557D01*
X194448000Y-45025250D01*
X194448000Y-45712750D01*
X194446345Y-45746443D01*
X194441395Y-45779812D01*
X194433198Y-45812535D01*
X194421834Y-45844297D01*
X194407410Y-45874793D01*
X194390068Y-45903727D01*
X194369972Y-45930823D01*
X194347318Y-45955818D01*
X194322323Y-45978472D01*
X194295227Y-45998568D01*
X194266293Y-46015910D01*
X194235797Y-46030334D01*
X194204035Y-46041698D01*
X194171312Y-46049895D01*
X194137943Y-46054845D01*
X194104250Y-46056500D01*
X192991750Y-46056500D01*
X192958057Y-46054845D01*
X192924688Y-46049895D01*
X192891965Y-46041698D01*
X192860203Y-46030334D01*
X192829707Y-46015910D01*
X192800773Y-45998568D01*
X192773677Y-45978472D01*
X192748682Y-45955818D01*
X192726028Y-45930823D01*
X192705932Y-45903727D01*
X192688590Y-45874793D01*
X192674166Y-45844297D01*
X192662802Y-45812535D01*
X192654605Y-45779812D01*
X192649655Y-45746443D01*
X192648000Y-45712750D01*
X192648000Y-45025250D01*
X192649655Y-44991557D01*
X192654605Y-44958188D01*
X192662802Y-44925465D01*
X192674166Y-44893703D01*
X192688590Y-44863207D01*
X192705932Y-44834273D01*
X192726028Y-44807177D01*
X192748682Y-44782182D01*
X192773677Y-44759528D01*
X192800773Y-44739432D01*
X192829707Y-44722090D01*
X192860203Y-44707666D01*
X192891965Y-44696302D01*
X192924688Y-44688105D01*
X192958057Y-44683155D01*
X192991750Y-44681500D01*
X194104250Y-44681500D01*
X194137943Y-44683155D01*
X194137943Y-44683155D01*
G37*
D18*
X193548000Y-45369000D03*
G04 #@! TD*
D17*
G04 #@! TO.C,C8*
G36*
X216120443Y-52949655D02*
X216153812Y-52954605D01*
X216186535Y-52962802D01*
X216218297Y-52974166D01*
X216248793Y-52988590D01*
X216277727Y-53005932D01*
X216304823Y-53026028D01*
X216329818Y-53048682D01*
X216352472Y-53073677D01*
X216372568Y-53100773D01*
X216389910Y-53129707D01*
X216404334Y-53160203D01*
X216415698Y-53191965D01*
X216423895Y-53224688D01*
X216428845Y-53258057D01*
X216430500Y-53291750D01*
X216430500Y-54404250D01*
X216428845Y-54437943D01*
X216423895Y-54471312D01*
X216415698Y-54504035D01*
X216404334Y-54535797D01*
X216389910Y-54566293D01*
X216372568Y-54595227D01*
X216352472Y-54622323D01*
X216329818Y-54647318D01*
X216304823Y-54669972D01*
X216277727Y-54690068D01*
X216248793Y-54707410D01*
X216218297Y-54721834D01*
X216186535Y-54733198D01*
X216153812Y-54741395D01*
X216120443Y-54746345D01*
X216086750Y-54748000D01*
X215399250Y-54748000D01*
X215365557Y-54746345D01*
X215332188Y-54741395D01*
X215299465Y-54733198D01*
X215267703Y-54721834D01*
X215237207Y-54707410D01*
X215208273Y-54690068D01*
X215181177Y-54669972D01*
X215156182Y-54647318D01*
X215133528Y-54622323D01*
X215113432Y-54595227D01*
X215096090Y-54566293D01*
X215081666Y-54535797D01*
X215070302Y-54504035D01*
X215062105Y-54471312D01*
X215057155Y-54437943D01*
X215055500Y-54404250D01*
X215055500Y-53291750D01*
X215057155Y-53258057D01*
X215062105Y-53224688D01*
X215070302Y-53191965D01*
X215081666Y-53160203D01*
X215096090Y-53129707D01*
X215113432Y-53100773D01*
X215133528Y-53073677D01*
X215156182Y-53048682D01*
X215181177Y-53026028D01*
X215208273Y-53005932D01*
X215237207Y-52988590D01*
X215267703Y-52974166D01*
X215299465Y-52962802D01*
X215332188Y-52954605D01*
X215365557Y-52949655D01*
X215399250Y-52948000D01*
X216086750Y-52948000D01*
X216120443Y-52949655D01*
X216120443Y-52949655D01*
G37*
D18*
X215743000Y-53848000D03*
D17*
G36*
X214245443Y-52949655D02*
X214278812Y-52954605D01*
X214311535Y-52962802D01*
X214343297Y-52974166D01*
X214373793Y-52988590D01*
X214402727Y-53005932D01*
X214429823Y-53026028D01*
X214454818Y-53048682D01*
X214477472Y-53073677D01*
X214497568Y-53100773D01*
X214514910Y-53129707D01*
X214529334Y-53160203D01*
X214540698Y-53191965D01*
X214548895Y-53224688D01*
X214553845Y-53258057D01*
X214555500Y-53291750D01*
X214555500Y-54404250D01*
X214553845Y-54437943D01*
X214548895Y-54471312D01*
X214540698Y-54504035D01*
X214529334Y-54535797D01*
X214514910Y-54566293D01*
X214497568Y-54595227D01*
X214477472Y-54622323D01*
X214454818Y-54647318D01*
X214429823Y-54669972D01*
X214402727Y-54690068D01*
X214373793Y-54707410D01*
X214343297Y-54721834D01*
X214311535Y-54733198D01*
X214278812Y-54741395D01*
X214245443Y-54746345D01*
X214211750Y-54748000D01*
X213524250Y-54748000D01*
X213490557Y-54746345D01*
X213457188Y-54741395D01*
X213424465Y-54733198D01*
X213392703Y-54721834D01*
X213362207Y-54707410D01*
X213333273Y-54690068D01*
X213306177Y-54669972D01*
X213281182Y-54647318D01*
X213258528Y-54622323D01*
X213238432Y-54595227D01*
X213221090Y-54566293D01*
X213206666Y-54535797D01*
X213195302Y-54504035D01*
X213187105Y-54471312D01*
X213182155Y-54437943D01*
X213180500Y-54404250D01*
X213180500Y-53291750D01*
X213182155Y-53258057D01*
X213187105Y-53224688D01*
X213195302Y-53191965D01*
X213206666Y-53160203D01*
X213221090Y-53129707D01*
X213238432Y-53100773D01*
X213258528Y-53073677D01*
X213281182Y-53048682D01*
X213306177Y-53026028D01*
X213333273Y-53005932D01*
X213362207Y-52988590D01*
X213392703Y-52974166D01*
X213424465Y-52962802D01*
X213457188Y-52954605D01*
X213490557Y-52949655D01*
X213524250Y-52948000D01*
X214211750Y-52948000D01*
X214245443Y-52949655D01*
X214245443Y-52949655D01*
G37*
D18*
X213868000Y-53848000D03*
G04 #@! TD*
D17*
G04 #@! TO.C,C9*
G36*
X214245443Y-50917655D02*
X214278812Y-50922605D01*
X214311535Y-50930802D01*
X214343297Y-50942166D01*
X214373793Y-50956590D01*
X214402727Y-50973932D01*
X214429823Y-50994028D01*
X214454818Y-51016682D01*
X214477472Y-51041677D01*
X214497568Y-51068773D01*
X214514910Y-51097707D01*
X214529334Y-51128203D01*
X214540698Y-51159965D01*
X214548895Y-51192688D01*
X214553845Y-51226057D01*
X214555500Y-51259750D01*
X214555500Y-52372250D01*
X214553845Y-52405943D01*
X214548895Y-52439312D01*
X214540698Y-52472035D01*
X214529334Y-52503797D01*
X214514910Y-52534293D01*
X214497568Y-52563227D01*
X214477472Y-52590323D01*
X214454818Y-52615318D01*
X214429823Y-52637972D01*
X214402727Y-52658068D01*
X214373793Y-52675410D01*
X214343297Y-52689834D01*
X214311535Y-52701198D01*
X214278812Y-52709395D01*
X214245443Y-52714345D01*
X214211750Y-52716000D01*
X213524250Y-52716000D01*
X213490557Y-52714345D01*
X213457188Y-52709395D01*
X213424465Y-52701198D01*
X213392703Y-52689834D01*
X213362207Y-52675410D01*
X213333273Y-52658068D01*
X213306177Y-52637972D01*
X213281182Y-52615318D01*
X213258528Y-52590323D01*
X213238432Y-52563227D01*
X213221090Y-52534293D01*
X213206666Y-52503797D01*
X213195302Y-52472035D01*
X213187105Y-52439312D01*
X213182155Y-52405943D01*
X213180500Y-52372250D01*
X213180500Y-51259750D01*
X213182155Y-51226057D01*
X213187105Y-51192688D01*
X213195302Y-51159965D01*
X213206666Y-51128203D01*
X213221090Y-51097707D01*
X213238432Y-51068773D01*
X213258528Y-51041677D01*
X213281182Y-51016682D01*
X213306177Y-50994028D01*
X213333273Y-50973932D01*
X213362207Y-50956590D01*
X213392703Y-50942166D01*
X213424465Y-50930802D01*
X213457188Y-50922605D01*
X213490557Y-50917655D01*
X213524250Y-50916000D01*
X214211750Y-50916000D01*
X214245443Y-50917655D01*
X214245443Y-50917655D01*
G37*
D18*
X213868000Y-51816000D03*
D17*
G36*
X216120443Y-50917655D02*
X216153812Y-50922605D01*
X216186535Y-50930802D01*
X216218297Y-50942166D01*
X216248793Y-50956590D01*
X216277727Y-50973932D01*
X216304823Y-50994028D01*
X216329818Y-51016682D01*
X216352472Y-51041677D01*
X216372568Y-51068773D01*
X216389910Y-51097707D01*
X216404334Y-51128203D01*
X216415698Y-51159965D01*
X216423895Y-51192688D01*
X216428845Y-51226057D01*
X216430500Y-51259750D01*
X216430500Y-52372250D01*
X216428845Y-52405943D01*
X216423895Y-52439312D01*
X216415698Y-52472035D01*
X216404334Y-52503797D01*
X216389910Y-52534293D01*
X216372568Y-52563227D01*
X216352472Y-52590323D01*
X216329818Y-52615318D01*
X216304823Y-52637972D01*
X216277727Y-52658068D01*
X216248793Y-52675410D01*
X216218297Y-52689834D01*
X216186535Y-52701198D01*
X216153812Y-52709395D01*
X216120443Y-52714345D01*
X216086750Y-52716000D01*
X215399250Y-52716000D01*
X215365557Y-52714345D01*
X215332188Y-52709395D01*
X215299465Y-52701198D01*
X215267703Y-52689834D01*
X215237207Y-52675410D01*
X215208273Y-52658068D01*
X215181177Y-52637972D01*
X215156182Y-52615318D01*
X215133528Y-52590323D01*
X215113432Y-52563227D01*
X215096090Y-52534293D01*
X215081666Y-52503797D01*
X215070302Y-52472035D01*
X215062105Y-52439312D01*
X215057155Y-52405943D01*
X215055500Y-52372250D01*
X215055500Y-51259750D01*
X215057155Y-51226057D01*
X215062105Y-51192688D01*
X215070302Y-51159965D01*
X215081666Y-51128203D01*
X215096090Y-51097707D01*
X215113432Y-51068773D01*
X215133528Y-51041677D01*
X215156182Y-51016682D01*
X215181177Y-50994028D01*
X215208273Y-50973932D01*
X215237207Y-50956590D01*
X215267703Y-50942166D01*
X215299465Y-50930802D01*
X215332188Y-50922605D01*
X215365557Y-50917655D01*
X215399250Y-50916000D01*
X216086750Y-50916000D01*
X216120443Y-50917655D01*
X216120443Y-50917655D01*
G37*
D18*
X215743000Y-51816000D03*
G04 #@! TD*
D17*
G04 #@! TO.C,C10*
G36*
X211917943Y-35890155D02*
X211951312Y-35895105D01*
X211984035Y-35903302D01*
X212015797Y-35914666D01*
X212046293Y-35929090D01*
X212075227Y-35946432D01*
X212102323Y-35966528D01*
X212127318Y-35989182D01*
X212149972Y-36014177D01*
X212170068Y-36041273D01*
X212187410Y-36070207D01*
X212201834Y-36100703D01*
X212213198Y-36132465D01*
X212221395Y-36165188D01*
X212226345Y-36198557D01*
X212228000Y-36232250D01*
X212228000Y-36919750D01*
X212226345Y-36953443D01*
X212221395Y-36986812D01*
X212213198Y-37019535D01*
X212201834Y-37051297D01*
X212187410Y-37081793D01*
X212170068Y-37110727D01*
X212149972Y-37137823D01*
X212127318Y-37162818D01*
X212102323Y-37185472D01*
X212075227Y-37205568D01*
X212046293Y-37222910D01*
X212015797Y-37237334D01*
X211984035Y-37248698D01*
X211951312Y-37256895D01*
X211917943Y-37261845D01*
X211884250Y-37263500D01*
X210771750Y-37263500D01*
X210738057Y-37261845D01*
X210704688Y-37256895D01*
X210671965Y-37248698D01*
X210640203Y-37237334D01*
X210609707Y-37222910D01*
X210580773Y-37205568D01*
X210553677Y-37185472D01*
X210528682Y-37162818D01*
X210506028Y-37137823D01*
X210485932Y-37110727D01*
X210468590Y-37081793D01*
X210454166Y-37051297D01*
X210442802Y-37019535D01*
X210434605Y-36986812D01*
X210429655Y-36953443D01*
X210428000Y-36919750D01*
X210428000Y-36232250D01*
X210429655Y-36198557D01*
X210434605Y-36165188D01*
X210442802Y-36132465D01*
X210454166Y-36100703D01*
X210468590Y-36070207D01*
X210485932Y-36041273D01*
X210506028Y-36014177D01*
X210528682Y-35989182D01*
X210553677Y-35966528D01*
X210580773Y-35946432D01*
X210609707Y-35929090D01*
X210640203Y-35914666D01*
X210671965Y-35903302D01*
X210704688Y-35895105D01*
X210738057Y-35890155D01*
X210771750Y-35888500D01*
X211884250Y-35888500D01*
X211917943Y-35890155D01*
X211917943Y-35890155D01*
G37*
D18*
X211328000Y-36576000D03*
D17*
G36*
X211917943Y-34015155D02*
X211951312Y-34020105D01*
X211984035Y-34028302D01*
X212015797Y-34039666D01*
X212046293Y-34054090D01*
X212075227Y-34071432D01*
X212102323Y-34091528D01*
X212127318Y-34114182D01*
X212149972Y-34139177D01*
X212170068Y-34166273D01*
X212187410Y-34195207D01*
X212201834Y-34225703D01*
X212213198Y-34257465D01*
X212221395Y-34290188D01*
X212226345Y-34323557D01*
X212228000Y-34357250D01*
X212228000Y-35044750D01*
X212226345Y-35078443D01*
X212221395Y-35111812D01*
X212213198Y-35144535D01*
X212201834Y-35176297D01*
X212187410Y-35206793D01*
X212170068Y-35235727D01*
X212149972Y-35262823D01*
X212127318Y-35287818D01*
X212102323Y-35310472D01*
X212075227Y-35330568D01*
X212046293Y-35347910D01*
X212015797Y-35362334D01*
X211984035Y-35373698D01*
X211951312Y-35381895D01*
X211917943Y-35386845D01*
X211884250Y-35388500D01*
X210771750Y-35388500D01*
X210738057Y-35386845D01*
X210704688Y-35381895D01*
X210671965Y-35373698D01*
X210640203Y-35362334D01*
X210609707Y-35347910D01*
X210580773Y-35330568D01*
X210553677Y-35310472D01*
X210528682Y-35287818D01*
X210506028Y-35262823D01*
X210485932Y-35235727D01*
X210468590Y-35206793D01*
X210454166Y-35176297D01*
X210442802Y-35144535D01*
X210434605Y-35111812D01*
X210429655Y-35078443D01*
X210428000Y-35044750D01*
X210428000Y-34357250D01*
X210429655Y-34323557D01*
X210434605Y-34290188D01*
X210442802Y-34257465D01*
X210454166Y-34225703D01*
X210468590Y-34195207D01*
X210485932Y-34166273D01*
X210506028Y-34139177D01*
X210528682Y-34114182D01*
X210553677Y-34091528D01*
X210580773Y-34071432D01*
X210609707Y-34054090D01*
X210640203Y-34039666D01*
X210671965Y-34028302D01*
X210704688Y-34020105D01*
X210738057Y-34015155D01*
X210771750Y-34013500D01*
X211884250Y-34013500D01*
X211917943Y-34015155D01*
X211917943Y-34015155D01*
G37*
D18*
X211328000Y-34701000D03*
G04 #@! TD*
D17*
G04 #@! TO.C,C11*
G36*
X194137943Y-53162155D02*
X194171312Y-53167105D01*
X194204035Y-53175302D01*
X194235797Y-53186666D01*
X194266293Y-53201090D01*
X194295227Y-53218432D01*
X194322323Y-53238528D01*
X194347318Y-53261182D01*
X194369972Y-53286177D01*
X194390068Y-53313273D01*
X194407410Y-53342207D01*
X194421834Y-53372703D01*
X194433198Y-53404465D01*
X194441395Y-53437188D01*
X194446345Y-53470557D01*
X194448000Y-53504250D01*
X194448000Y-54191750D01*
X194446345Y-54225443D01*
X194441395Y-54258812D01*
X194433198Y-54291535D01*
X194421834Y-54323297D01*
X194407410Y-54353793D01*
X194390068Y-54382727D01*
X194369972Y-54409823D01*
X194347318Y-54434818D01*
X194322323Y-54457472D01*
X194295227Y-54477568D01*
X194266293Y-54494910D01*
X194235797Y-54509334D01*
X194204035Y-54520698D01*
X194171312Y-54528895D01*
X194137943Y-54533845D01*
X194104250Y-54535500D01*
X192991750Y-54535500D01*
X192958057Y-54533845D01*
X192924688Y-54528895D01*
X192891965Y-54520698D01*
X192860203Y-54509334D01*
X192829707Y-54494910D01*
X192800773Y-54477568D01*
X192773677Y-54457472D01*
X192748682Y-54434818D01*
X192726028Y-54409823D01*
X192705932Y-54382727D01*
X192688590Y-54353793D01*
X192674166Y-54323297D01*
X192662802Y-54291535D01*
X192654605Y-54258812D01*
X192649655Y-54225443D01*
X192648000Y-54191750D01*
X192648000Y-53504250D01*
X192649655Y-53470557D01*
X192654605Y-53437188D01*
X192662802Y-53404465D01*
X192674166Y-53372703D01*
X192688590Y-53342207D01*
X192705932Y-53313273D01*
X192726028Y-53286177D01*
X192748682Y-53261182D01*
X192773677Y-53238528D01*
X192800773Y-53218432D01*
X192829707Y-53201090D01*
X192860203Y-53186666D01*
X192891965Y-53175302D01*
X192924688Y-53167105D01*
X192958057Y-53162155D01*
X192991750Y-53160500D01*
X194104250Y-53160500D01*
X194137943Y-53162155D01*
X194137943Y-53162155D01*
G37*
D18*
X193548000Y-53848000D03*
D17*
G36*
X194137943Y-51287155D02*
X194171312Y-51292105D01*
X194204035Y-51300302D01*
X194235797Y-51311666D01*
X194266293Y-51326090D01*
X194295227Y-51343432D01*
X194322323Y-51363528D01*
X194347318Y-51386182D01*
X194369972Y-51411177D01*
X194390068Y-51438273D01*
X194407410Y-51467207D01*
X194421834Y-51497703D01*
X194433198Y-51529465D01*
X194441395Y-51562188D01*
X194446345Y-51595557D01*
X194448000Y-51629250D01*
X194448000Y-52316750D01*
X194446345Y-52350443D01*
X194441395Y-52383812D01*
X194433198Y-52416535D01*
X194421834Y-52448297D01*
X194407410Y-52478793D01*
X194390068Y-52507727D01*
X194369972Y-52534823D01*
X194347318Y-52559818D01*
X194322323Y-52582472D01*
X194295227Y-52602568D01*
X194266293Y-52619910D01*
X194235797Y-52634334D01*
X194204035Y-52645698D01*
X194171312Y-52653895D01*
X194137943Y-52658845D01*
X194104250Y-52660500D01*
X192991750Y-52660500D01*
X192958057Y-52658845D01*
X192924688Y-52653895D01*
X192891965Y-52645698D01*
X192860203Y-52634334D01*
X192829707Y-52619910D01*
X192800773Y-52602568D01*
X192773677Y-52582472D01*
X192748682Y-52559818D01*
X192726028Y-52534823D01*
X192705932Y-52507727D01*
X192688590Y-52478793D01*
X192674166Y-52448297D01*
X192662802Y-52416535D01*
X192654605Y-52383812D01*
X192649655Y-52350443D01*
X192648000Y-52316750D01*
X192648000Y-51629250D01*
X192649655Y-51595557D01*
X192654605Y-51562188D01*
X192662802Y-51529465D01*
X192674166Y-51497703D01*
X192688590Y-51467207D01*
X192705932Y-51438273D01*
X192726028Y-51411177D01*
X192748682Y-51386182D01*
X192773677Y-51363528D01*
X192800773Y-51343432D01*
X192829707Y-51326090D01*
X192860203Y-51311666D01*
X192891965Y-51300302D01*
X192924688Y-51292105D01*
X192958057Y-51287155D01*
X192991750Y-51285500D01*
X194104250Y-51285500D01*
X194137943Y-51287155D01*
X194137943Y-51287155D01*
G37*
D18*
X193548000Y-51973000D03*
G04 #@! TD*
D17*
G04 #@! TO.C,C12*
G36*
X194137943Y-56718155D02*
X194171312Y-56723105D01*
X194204035Y-56731302D01*
X194235797Y-56742666D01*
X194266293Y-56757090D01*
X194295227Y-56774432D01*
X194322323Y-56794528D01*
X194347318Y-56817182D01*
X194369972Y-56842177D01*
X194390068Y-56869273D01*
X194407410Y-56898207D01*
X194421834Y-56928703D01*
X194433198Y-56960465D01*
X194441395Y-56993188D01*
X194446345Y-57026557D01*
X194448000Y-57060250D01*
X194448000Y-57747750D01*
X194446345Y-57781443D01*
X194441395Y-57814812D01*
X194433198Y-57847535D01*
X194421834Y-57879297D01*
X194407410Y-57909793D01*
X194390068Y-57938727D01*
X194369972Y-57965823D01*
X194347318Y-57990818D01*
X194322323Y-58013472D01*
X194295227Y-58033568D01*
X194266293Y-58050910D01*
X194235797Y-58065334D01*
X194204035Y-58076698D01*
X194171312Y-58084895D01*
X194137943Y-58089845D01*
X194104250Y-58091500D01*
X192991750Y-58091500D01*
X192958057Y-58089845D01*
X192924688Y-58084895D01*
X192891965Y-58076698D01*
X192860203Y-58065334D01*
X192829707Y-58050910D01*
X192800773Y-58033568D01*
X192773677Y-58013472D01*
X192748682Y-57990818D01*
X192726028Y-57965823D01*
X192705932Y-57938727D01*
X192688590Y-57909793D01*
X192674166Y-57879297D01*
X192662802Y-57847535D01*
X192654605Y-57814812D01*
X192649655Y-57781443D01*
X192648000Y-57747750D01*
X192648000Y-57060250D01*
X192649655Y-57026557D01*
X192654605Y-56993188D01*
X192662802Y-56960465D01*
X192674166Y-56928703D01*
X192688590Y-56898207D01*
X192705932Y-56869273D01*
X192726028Y-56842177D01*
X192748682Y-56817182D01*
X192773677Y-56794528D01*
X192800773Y-56774432D01*
X192829707Y-56757090D01*
X192860203Y-56742666D01*
X192891965Y-56731302D01*
X192924688Y-56723105D01*
X192958057Y-56718155D01*
X192991750Y-56716500D01*
X194104250Y-56716500D01*
X194137943Y-56718155D01*
X194137943Y-56718155D01*
G37*
D18*
X193548000Y-57404000D03*
D17*
G36*
X194137943Y-54843155D02*
X194171312Y-54848105D01*
X194204035Y-54856302D01*
X194235797Y-54867666D01*
X194266293Y-54882090D01*
X194295227Y-54899432D01*
X194322323Y-54919528D01*
X194347318Y-54942182D01*
X194369972Y-54967177D01*
X194390068Y-54994273D01*
X194407410Y-55023207D01*
X194421834Y-55053703D01*
X194433198Y-55085465D01*
X194441395Y-55118188D01*
X194446345Y-55151557D01*
X194448000Y-55185250D01*
X194448000Y-55872750D01*
X194446345Y-55906443D01*
X194441395Y-55939812D01*
X194433198Y-55972535D01*
X194421834Y-56004297D01*
X194407410Y-56034793D01*
X194390068Y-56063727D01*
X194369972Y-56090823D01*
X194347318Y-56115818D01*
X194322323Y-56138472D01*
X194295227Y-56158568D01*
X194266293Y-56175910D01*
X194235797Y-56190334D01*
X194204035Y-56201698D01*
X194171312Y-56209895D01*
X194137943Y-56214845D01*
X194104250Y-56216500D01*
X192991750Y-56216500D01*
X192958057Y-56214845D01*
X192924688Y-56209895D01*
X192891965Y-56201698D01*
X192860203Y-56190334D01*
X192829707Y-56175910D01*
X192800773Y-56158568D01*
X192773677Y-56138472D01*
X192748682Y-56115818D01*
X192726028Y-56090823D01*
X192705932Y-56063727D01*
X192688590Y-56034793D01*
X192674166Y-56004297D01*
X192662802Y-55972535D01*
X192654605Y-55939812D01*
X192649655Y-55906443D01*
X192648000Y-55872750D01*
X192648000Y-55185250D01*
X192649655Y-55151557D01*
X192654605Y-55118188D01*
X192662802Y-55085465D01*
X192674166Y-55053703D01*
X192688590Y-55023207D01*
X192705932Y-54994273D01*
X192726028Y-54967177D01*
X192748682Y-54942182D01*
X192773677Y-54919528D01*
X192800773Y-54899432D01*
X192829707Y-54882090D01*
X192860203Y-54867666D01*
X192891965Y-54856302D01*
X192924688Y-54848105D01*
X192958057Y-54843155D01*
X192991750Y-54841500D01*
X194104250Y-54841500D01*
X194137943Y-54843155D01*
X194137943Y-54843155D01*
G37*
D18*
X193548000Y-55529000D03*
G04 #@! TD*
D17*
G04 #@! TO.C,C13*
G36*
X194137943Y-58399155D02*
X194171312Y-58404105D01*
X194204035Y-58412302D01*
X194235797Y-58423666D01*
X194266293Y-58438090D01*
X194295227Y-58455432D01*
X194322323Y-58475528D01*
X194347318Y-58498182D01*
X194369972Y-58523177D01*
X194390068Y-58550273D01*
X194407410Y-58579207D01*
X194421834Y-58609703D01*
X194433198Y-58641465D01*
X194441395Y-58674188D01*
X194446345Y-58707557D01*
X194448000Y-58741250D01*
X194448000Y-59428750D01*
X194446345Y-59462443D01*
X194441395Y-59495812D01*
X194433198Y-59528535D01*
X194421834Y-59560297D01*
X194407410Y-59590793D01*
X194390068Y-59619727D01*
X194369972Y-59646823D01*
X194347318Y-59671818D01*
X194322323Y-59694472D01*
X194295227Y-59714568D01*
X194266293Y-59731910D01*
X194235797Y-59746334D01*
X194204035Y-59757698D01*
X194171312Y-59765895D01*
X194137943Y-59770845D01*
X194104250Y-59772500D01*
X192991750Y-59772500D01*
X192958057Y-59770845D01*
X192924688Y-59765895D01*
X192891965Y-59757698D01*
X192860203Y-59746334D01*
X192829707Y-59731910D01*
X192800773Y-59714568D01*
X192773677Y-59694472D01*
X192748682Y-59671818D01*
X192726028Y-59646823D01*
X192705932Y-59619727D01*
X192688590Y-59590793D01*
X192674166Y-59560297D01*
X192662802Y-59528535D01*
X192654605Y-59495812D01*
X192649655Y-59462443D01*
X192648000Y-59428750D01*
X192648000Y-58741250D01*
X192649655Y-58707557D01*
X192654605Y-58674188D01*
X192662802Y-58641465D01*
X192674166Y-58609703D01*
X192688590Y-58579207D01*
X192705932Y-58550273D01*
X192726028Y-58523177D01*
X192748682Y-58498182D01*
X192773677Y-58475528D01*
X192800773Y-58455432D01*
X192829707Y-58438090D01*
X192860203Y-58423666D01*
X192891965Y-58412302D01*
X192924688Y-58404105D01*
X192958057Y-58399155D01*
X192991750Y-58397500D01*
X194104250Y-58397500D01*
X194137943Y-58399155D01*
X194137943Y-58399155D01*
G37*
D18*
X193548000Y-59085000D03*
D17*
G36*
X194137943Y-60274155D02*
X194171312Y-60279105D01*
X194204035Y-60287302D01*
X194235797Y-60298666D01*
X194266293Y-60313090D01*
X194295227Y-60330432D01*
X194322323Y-60350528D01*
X194347318Y-60373182D01*
X194369972Y-60398177D01*
X194390068Y-60425273D01*
X194407410Y-60454207D01*
X194421834Y-60484703D01*
X194433198Y-60516465D01*
X194441395Y-60549188D01*
X194446345Y-60582557D01*
X194448000Y-60616250D01*
X194448000Y-61303750D01*
X194446345Y-61337443D01*
X194441395Y-61370812D01*
X194433198Y-61403535D01*
X194421834Y-61435297D01*
X194407410Y-61465793D01*
X194390068Y-61494727D01*
X194369972Y-61521823D01*
X194347318Y-61546818D01*
X194322323Y-61569472D01*
X194295227Y-61589568D01*
X194266293Y-61606910D01*
X194235797Y-61621334D01*
X194204035Y-61632698D01*
X194171312Y-61640895D01*
X194137943Y-61645845D01*
X194104250Y-61647500D01*
X192991750Y-61647500D01*
X192958057Y-61645845D01*
X192924688Y-61640895D01*
X192891965Y-61632698D01*
X192860203Y-61621334D01*
X192829707Y-61606910D01*
X192800773Y-61589568D01*
X192773677Y-61569472D01*
X192748682Y-61546818D01*
X192726028Y-61521823D01*
X192705932Y-61494727D01*
X192688590Y-61465793D01*
X192674166Y-61435297D01*
X192662802Y-61403535D01*
X192654605Y-61370812D01*
X192649655Y-61337443D01*
X192648000Y-61303750D01*
X192648000Y-60616250D01*
X192649655Y-60582557D01*
X192654605Y-60549188D01*
X192662802Y-60516465D01*
X192674166Y-60484703D01*
X192688590Y-60454207D01*
X192705932Y-60425273D01*
X192726028Y-60398177D01*
X192748682Y-60373182D01*
X192773677Y-60350528D01*
X192800773Y-60330432D01*
X192829707Y-60313090D01*
X192860203Y-60298666D01*
X192891965Y-60287302D01*
X192924688Y-60279105D01*
X192958057Y-60274155D01*
X192991750Y-60272500D01*
X194104250Y-60272500D01*
X194137943Y-60274155D01*
X194137943Y-60274155D01*
G37*
D18*
X193548000Y-60960000D03*
G04 #@! TD*
D17*
G04 #@! TO.C,C14*
G36*
X199725943Y-68402155D02*
X199759312Y-68407105D01*
X199792035Y-68415302D01*
X199823797Y-68426666D01*
X199854293Y-68441090D01*
X199883227Y-68458432D01*
X199910323Y-68478528D01*
X199935318Y-68501182D01*
X199957972Y-68526177D01*
X199978068Y-68553273D01*
X199995410Y-68582207D01*
X200009834Y-68612703D01*
X200021198Y-68644465D01*
X200029395Y-68677188D01*
X200034345Y-68710557D01*
X200036000Y-68744250D01*
X200036000Y-69431750D01*
X200034345Y-69465443D01*
X200029395Y-69498812D01*
X200021198Y-69531535D01*
X200009834Y-69563297D01*
X199995410Y-69593793D01*
X199978068Y-69622727D01*
X199957972Y-69649823D01*
X199935318Y-69674818D01*
X199910323Y-69697472D01*
X199883227Y-69717568D01*
X199854293Y-69734910D01*
X199823797Y-69749334D01*
X199792035Y-69760698D01*
X199759312Y-69768895D01*
X199725943Y-69773845D01*
X199692250Y-69775500D01*
X198579750Y-69775500D01*
X198546057Y-69773845D01*
X198512688Y-69768895D01*
X198479965Y-69760698D01*
X198448203Y-69749334D01*
X198417707Y-69734910D01*
X198388773Y-69717568D01*
X198361677Y-69697472D01*
X198336682Y-69674818D01*
X198314028Y-69649823D01*
X198293932Y-69622727D01*
X198276590Y-69593793D01*
X198262166Y-69563297D01*
X198250802Y-69531535D01*
X198242605Y-69498812D01*
X198237655Y-69465443D01*
X198236000Y-69431750D01*
X198236000Y-68744250D01*
X198237655Y-68710557D01*
X198242605Y-68677188D01*
X198250802Y-68644465D01*
X198262166Y-68612703D01*
X198276590Y-68582207D01*
X198293932Y-68553273D01*
X198314028Y-68526177D01*
X198336682Y-68501182D01*
X198361677Y-68478528D01*
X198388773Y-68458432D01*
X198417707Y-68441090D01*
X198448203Y-68426666D01*
X198479965Y-68415302D01*
X198512688Y-68407105D01*
X198546057Y-68402155D01*
X198579750Y-68400500D01*
X199692250Y-68400500D01*
X199725943Y-68402155D01*
X199725943Y-68402155D01*
G37*
D18*
X199136000Y-69088000D03*
D17*
G36*
X199725943Y-70277155D02*
X199759312Y-70282105D01*
X199792035Y-70290302D01*
X199823797Y-70301666D01*
X199854293Y-70316090D01*
X199883227Y-70333432D01*
X199910323Y-70353528D01*
X199935318Y-70376182D01*
X199957972Y-70401177D01*
X199978068Y-70428273D01*
X199995410Y-70457207D01*
X200009834Y-70487703D01*
X200021198Y-70519465D01*
X200029395Y-70552188D01*
X200034345Y-70585557D01*
X200036000Y-70619250D01*
X200036000Y-71306750D01*
X200034345Y-71340443D01*
X200029395Y-71373812D01*
X200021198Y-71406535D01*
X200009834Y-71438297D01*
X199995410Y-71468793D01*
X199978068Y-71497727D01*
X199957972Y-71524823D01*
X199935318Y-71549818D01*
X199910323Y-71572472D01*
X199883227Y-71592568D01*
X199854293Y-71609910D01*
X199823797Y-71624334D01*
X199792035Y-71635698D01*
X199759312Y-71643895D01*
X199725943Y-71648845D01*
X199692250Y-71650500D01*
X198579750Y-71650500D01*
X198546057Y-71648845D01*
X198512688Y-71643895D01*
X198479965Y-71635698D01*
X198448203Y-71624334D01*
X198417707Y-71609910D01*
X198388773Y-71592568D01*
X198361677Y-71572472D01*
X198336682Y-71549818D01*
X198314028Y-71524823D01*
X198293932Y-71497727D01*
X198276590Y-71468793D01*
X198262166Y-71438297D01*
X198250802Y-71406535D01*
X198242605Y-71373812D01*
X198237655Y-71340443D01*
X198236000Y-71306750D01*
X198236000Y-70619250D01*
X198237655Y-70585557D01*
X198242605Y-70552188D01*
X198250802Y-70519465D01*
X198262166Y-70487703D01*
X198276590Y-70457207D01*
X198293932Y-70428273D01*
X198314028Y-70401177D01*
X198336682Y-70376182D01*
X198361677Y-70353528D01*
X198388773Y-70333432D01*
X198417707Y-70316090D01*
X198448203Y-70301666D01*
X198479965Y-70290302D01*
X198512688Y-70282105D01*
X198546057Y-70277155D01*
X198579750Y-70275500D01*
X199692250Y-70275500D01*
X199725943Y-70277155D01*
X199725943Y-70277155D01*
G37*
D18*
X199136000Y-70963000D03*
G04 #@! TD*
D17*
G04 #@! TO.C,C15*
G36*
X216489943Y-44399155D02*
X216523312Y-44404105D01*
X216556035Y-44412302D01*
X216587797Y-44423666D01*
X216618293Y-44438090D01*
X216647227Y-44455432D01*
X216674323Y-44475528D01*
X216699318Y-44498182D01*
X216721972Y-44523177D01*
X216742068Y-44550273D01*
X216759410Y-44579207D01*
X216773834Y-44609703D01*
X216785198Y-44641465D01*
X216793395Y-44674188D01*
X216798345Y-44707557D01*
X216800000Y-44741250D01*
X216800000Y-45428750D01*
X216798345Y-45462443D01*
X216793395Y-45495812D01*
X216785198Y-45528535D01*
X216773834Y-45560297D01*
X216759410Y-45590793D01*
X216742068Y-45619727D01*
X216721972Y-45646823D01*
X216699318Y-45671818D01*
X216674323Y-45694472D01*
X216647227Y-45714568D01*
X216618293Y-45731910D01*
X216587797Y-45746334D01*
X216556035Y-45757698D01*
X216523312Y-45765895D01*
X216489943Y-45770845D01*
X216456250Y-45772500D01*
X215343750Y-45772500D01*
X215310057Y-45770845D01*
X215276688Y-45765895D01*
X215243965Y-45757698D01*
X215212203Y-45746334D01*
X215181707Y-45731910D01*
X215152773Y-45714568D01*
X215125677Y-45694472D01*
X215100682Y-45671818D01*
X215078028Y-45646823D01*
X215057932Y-45619727D01*
X215040590Y-45590793D01*
X215026166Y-45560297D01*
X215014802Y-45528535D01*
X215006605Y-45495812D01*
X215001655Y-45462443D01*
X215000000Y-45428750D01*
X215000000Y-44741250D01*
X215001655Y-44707557D01*
X215006605Y-44674188D01*
X215014802Y-44641465D01*
X215026166Y-44609703D01*
X215040590Y-44579207D01*
X215057932Y-44550273D01*
X215078028Y-44523177D01*
X215100682Y-44498182D01*
X215125677Y-44475528D01*
X215152773Y-44455432D01*
X215181707Y-44438090D01*
X215212203Y-44423666D01*
X215243965Y-44412302D01*
X215276688Y-44404105D01*
X215310057Y-44399155D01*
X215343750Y-44397500D01*
X216456250Y-44397500D01*
X216489943Y-44399155D01*
X216489943Y-44399155D01*
G37*
D18*
X215900000Y-45085000D03*
D17*
G36*
X216489943Y-42524155D02*
X216523312Y-42529105D01*
X216556035Y-42537302D01*
X216587797Y-42548666D01*
X216618293Y-42563090D01*
X216647227Y-42580432D01*
X216674323Y-42600528D01*
X216699318Y-42623182D01*
X216721972Y-42648177D01*
X216742068Y-42675273D01*
X216759410Y-42704207D01*
X216773834Y-42734703D01*
X216785198Y-42766465D01*
X216793395Y-42799188D01*
X216798345Y-42832557D01*
X216800000Y-42866250D01*
X216800000Y-43553750D01*
X216798345Y-43587443D01*
X216793395Y-43620812D01*
X216785198Y-43653535D01*
X216773834Y-43685297D01*
X216759410Y-43715793D01*
X216742068Y-43744727D01*
X216721972Y-43771823D01*
X216699318Y-43796818D01*
X216674323Y-43819472D01*
X216647227Y-43839568D01*
X216618293Y-43856910D01*
X216587797Y-43871334D01*
X216556035Y-43882698D01*
X216523312Y-43890895D01*
X216489943Y-43895845D01*
X216456250Y-43897500D01*
X215343750Y-43897500D01*
X215310057Y-43895845D01*
X215276688Y-43890895D01*
X215243965Y-43882698D01*
X215212203Y-43871334D01*
X215181707Y-43856910D01*
X215152773Y-43839568D01*
X215125677Y-43819472D01*
X215100682Y-43796818D01*
X215078028Y-43771823D01*
X215057932Y-43744727D01*
X215040590Y-43715793D01*
X215026166Y-43685297D01*
X215014802Y-43653535D01*
X215006605Y-43620812D01*
X215001655Y-43587443D01*
X215000000Y-43553750D01*
X215000000Y-42866250D01*
X215001655Y-42832557D01*
X215006605Y-42799188D01*
X215014802Y-42766465D01*
X215026166Y-42734703D01*
X215040590Y-42704207D01*
X215057932Y-42675273D01*
X215078028Y-42648177D01*
X215100682Y-42623182D01*
X215125677Y-42600528D01*
X215152773Y-42580432D01*
X215181707Y-42563090D01*
X215212203Y-42548666D01*
X215243965Y-42537302D01*
X215276688Y-42529105D01*
X215310057Y-42524155D01*
X215343750Y-42522500D01*
X216456250Y-42522500D01*
X216489943Y-42524155D01*
X216489943Y-42524155D01*
G37*
D18*
X215900000Y-43210000D03*
G04 #@! TD*
D17*
G04 #@! TO.C,C16*
G36*
X194137943Y-63830155D02*
X194171312Y-63835105D01*
X194204035Y-63843302D01*
X194235797Y-63854666D01*
X194266293Y-63869090D01*
X194295227Y-63886432D01*
X194322323Y-63906528D01*
X194347318Y-63929182D01*
X194369972Y-63954177D01*
X194390068Y-63981273D01*
X194407410Y-64010207D01*
X194421834Y-64040703D01*
X194433198Y-64072465D01*
X194441395Y-64105188D01*
X194446345Y-64138557D01*
X194448000Y-64172250D01*
X194448000Y-64859750D01*
X194446345Y-64893443D01*
X194441395Y-64926812D01*
X194433198Y-64959535D01*
X194421834Y-64991297D01*
X194407410Y-65021793D01*
X194390068Y-65050727D01*
X194369972Y-65077823D01*
X194347318Y-65102818D01*
X194322323Y-65125472D01*
X194295227Y-65145568D01*
X194266293Y-65162910D01*
X194235797Y-65177334D01*
X194204035Y-65188698D01*
X194171312Y-65196895D01*
X194137943Y-65201845D01*
X194104250Y-65203500D01*
X192991750Y-65203500D01*
X192958057Y-65201845D01*
X192924688Y-65196895D01*
X192891965Y-65188698D01*
X192860203Y-65177334D01*
X192829707Y-65162910D01*
X192800773Y-65145568D01*
X192773677Y-65125472D01*
X192748682Y-65102818D01*
X192726028Y-65077823D01*
X192705932Y-65050727D01*
X192688590Y-65021793D01*
X192674166Y-64991297D01*
X192662802Y-64959535D01*
X192654605Y-64926812D01*
X192649655Y-64893443D01*
X192648000Y-64859750D01*
X192648000Y-64172250D01*
X192649655Y-64138557D01*
X192654605Y-64105188D01*
X192662802Y-64072465D01*
X192674166Y-64040703D01*
X192688590Y-64010207D01*
X192705932Y-63981273D01*
X192726028Y-63954177D01*
X192748682Y-63929182D01*
X192773677Y-63906528D01*
X192800773Y-63886432D01*
X192829707Y-63869090D01*
X192860203Y-63854666D01*
X192891965Y-63843302D01*
X192924688Y-63835105D01*
X192958057Y-63830155D01*
X192991750Y-63828500D01*
X194104250Y-63828500D01*
X194137943Y-63830155D01*
X194137943Y-63830155D01*
G37*
D18*
X193548000Y-64516000D03*
D17*
G36*
X194137943Y-61955155D02*
X194171312Y-61960105D01*
X194204035Y-61968302D01*
X194235797Y-61979666D01*
X194266293Y-61994090D01*
X194295227Y-62011432D01*
X194322323Y-62031528D01*
X194347318Y-62054182D01*
X194369972Y-62079177D01*
X194390068Y-62106273D01*
X194407410Y-62135207D01*
X194421834Y-62165703D01*
X194433198Y-62197465D01*
X194441395Y-62230188D01*
X194446345Y-62263557D01*
X194448000Y-62297250D01*
X194448000Y-62984750D01*
X194446345Y-63018443D01*
X194441395Y-63051812D01*
X194433198Y-63084535D01*
X194421834Y-63116297D01*
X194407410Y-63146793D01*
X194390068Y-63175727D01*
X194369972Y-63202823D01*
X194347318Y-63227818D01*
X194322323Y-63250472D01*
X194295227Y-63270568D01*
X194266293Y-63287910D01*
X194235797Y-63302334D01*
X194204035Y-63313698D01*
X194171312Y-63321895D01*
X194137943Y-63326845D01*
X194104250Y-63328500D01*
X192991750Y-63328500D01*
X192958057Y-63326845D01*
X192924688Y-63321895D01*
X192891965Y-63313698D01*
X192860203Y-63302334D01*
X192829707Y-63287910D01*
X192800773Y-63270568D01*
X192773677Y-63250472D01*
X192748682Y-63227818D01*
X192726028Y-63202823D01*
X192705932Y-63175727D01*
X192688590Y-63146793D01*
X192674166Y-63116297D01*
X192662802Y-63084535D01*
X192654605Y-63051812D01*
X192649655Y-63018443D01*
X192648000Y-62984750D01*
X192648000Y-62297250D01*
X192649655Y-62263557D01*
X192654605Y-62230188D01*
X192662802Y-62197465D01*
X192674166Y-62165703D01*
X192688590Y-62135207D01*
X192705932Y-62106273D01*
X192726028Y-62079177D01*
X192748682Y-62054182D01*
X192773677Y-62031528D01*
X192800773Y-62011432D01*
X192829707Y-61994090D01*
X192860203Y-61979666D01*
X192891965Y-61968302D01*
X192924688Y-61960105D01*
X192958057Y-61955155D01*
X192991750Y-61953500D01*
X194104250Y-61953500D01*
X194137943Y-61955155D01*
X194137943Y-61955155D01*
G37*
D18*
X193548000Y-62641000D03*
G04 #@! TD*
D17*
G04 #@! TO.C,C17*
G36*
X194590443Y-72761655D02*
X194623812Y-72766605D01*
X194656535Y-72774802D01*
X194688297Y-72786166D01*
X194718793Y-72800590D01*
X194747727Y-72817932D01*
X194774823Y-72838028D01*
X194799818Y-72860682D01*
X194822472Y-72885677D01*
X194842568Y-72912773D01*
X194859910Y-72941707D01*
X194874334Y-72972203D01*
X194885698Y-73003965D01*
X194893895Y-73036688D01*
X194898845Y-73070057D01*
X194900500Y-73103750D01*
X194900500Y-74216250D01*
X194898845Y-74249943D01*
X194893895Y-74283312D01*
X194885698Y-74316035D01*
X194874334Y-74347797D01*
X194859910Y-74378293D01*
X194842568Y-74407227D01*
X194822472Y-74434323D01*
X194799818Y-74459318D01*
X194774823Y-74481972D01*
X194747727Y-74502068D01*
X194718793Y-74519410D01*
X194688297Y-74533834D01*
X194656535Y-74545198D01*
X194623812Y-74553395D01*
X194590443Y-74558345D01*
X194556750Y-74560000D01*
X193869250Y-74560000D01*
X193835557Y-74558345D01*
X193802188Y-74553395D01*
X193769465Y-74545198D01*
X193737703Y-74533834D01*
X193707207Y-74519410D01*
X193678273Y-74502068D01*
X193651177Y-74481972D01*
X193626182Y-74459318D01*
X193603528Y-74434323D01*
X193583432Y-74407227D01*
X193566090Y-74378293D01*
X193551666Y-74347797D01*
X193540302Y-74316035D01*
X193532105Y-74283312D01*
X193527155Y-74249943D01*
X193525500Y-74216250D01*
X193525500Y-73103750D01*
X193527155Y-73070057D01*
X193532105Y-73036688D01*
X193540302Y-73003965D01*
X193551666Y-72972203D01*
X193566090Y-72941707D01*
X193583432Y-72912773D01*
X193603528Y-72885677D01*
X193626182Y-72860682D01*
X193651177Y-72838028D01*
X193678273Y-72817932D01*
X193707207Y-72800590D01*
X193737703Y-72786166D01*
X193769465Y-72774802D01*
X193802188Y-72766605D01*
X193835557Y-72761655D01*
X193869250Y-72760000D01*
X194556750Y-72760000D01*
X194590443Y-72761655D01*
X194590443Y-72761655D01*
G37*
D18*
X194213000Y-73660000D03*
D17*
G36*
X196465443Y-72761655D02*
X196498812Y-72766605D01*
X196531535Y-72774802D01*
X196563297Y-72786166D01*
X196593793Y-72800590D01*
X196622727Y-72817932D01*
X196649823Y-72838028D01*
X196674818Y-72860682D01*
X196697472Y-72885677D01*
X196717568Y-72912773D01*
X196734910Y-72941707D01*
X196749334Y-72972203D01*
X196760698Y-73003965D01*
X196768895Y-73036688D01*
X196773845Y-73070057D01*
X196775500Y-73103750D01*
X196775500Y-74216250D01*
X196773845Y-74249943D01*
X196768895Y-74283312D01*
X196760698Y-74316035D01*
X196749334Y-74347797D01*
X196734910Y-74378293D01*
X196717568Y-74407227D01*
X196697472Y-74434323D01*
X196674818Y-74459318D01*
X196649823Y-74481972D01*
X196622727Y-74502068D01*
X196593793Y-74519410D01*
X196563297Y-74533834D01*
X196531535Y-74545198D01*
X196498812Y-74553395D01*
X196465443Y-74558345D01*
X196431750Y-74560000D01*
X195744250Y-74560000D01*
X195710557Y-74558345D01*
X195677188Y-74553395D01*
X195644465Y-74545198D01*
X195612703Y-74533834D01*
X195582207Y-74519410D01*
X195553273Y-74502068D01*
X195526177Y-74481972D01*
X195501182Y-74459318D01*
X195478528Y-74434323D01*
X195458432Y-74407227D01*
X195441090Y-74378293D01*
X195426666Y-74347797D01*
X195415302Y-74316035D01*
X195407105Y-74283312D01*
X195402155Y-74249943D01*
X195400500Y-74216250D01*
X195400500Y-73103750D01*
X195402155Y-73070057D01*
X195407105Y-73036688D01*
X195415302Y-73003965D01*
X195426666Y-72972203D01*
X195441090Y-72941707D01*
X195458432Y-72912773D01*
X195478528Y-72885677D01*
X195501182Y-72860682D01*
X195526177Y-72838028D01*
X195553273Y-72817932D01*
X195582207Y-72800590D01*
X195612703Y-72786166D01*
X195644465Y-72774802D01*
X195677188Y-72766605D01*
X195710557Y-72761655D01*
X195744250Y-72760000D01*
X196431750Y-72760000D01*
X196465443Y-72761655D01*
X196465443Y-72761655D01*
G37*
D18*
X196088000Y-73660000D03*
G04 #@! TD*
D17*
G04 #@! TO.C,C18*
G36*
X219041443Y-57394655D02*
X219074812Y-57399605D01*
X219107535Y-57407802D01*
X219139297Y-57419166D01*
X219169793Y-57433590D01*
X219198727Y-57450932D01*
X219225823Y-57471028D01*
X219250818Y-57493682D01*
X219273472Y-57518677D01*
X219293568Y-57545773D01*
X219310910Y-57574707D01*
X219325334Y-57605203D01*
X219336698Y-57636965D01*
X219344895Y-57669688D01*
X219349845Y-57703057D01*
X219351500Y-57736750D01*
X219351500Y-58849250D01*
X219349845Y-58882943D01*
X219344895Y-58916312D01*
X219336698Y-58949035D01*
X219325334Y-58980797D01*
X219310910Y-59011293D01*
X219293568Y-59040227D01*
X219273472Y-59067323D01*
X219250818Y-59092318D01*
X219225823Y-59114972D01*
X219198727Y-59135068D01*
X219169793Y-59152410D01*
X219139297Y-59166834D01*
X219107535Y-59178198D01*
X219074812Y-59186395D01*
X219041443Y-59191345D01*
X219007750Y-59193000D01*
X218320250Y-59193000D01*
X218286557Y-59191345D01*
X218253188Y-59186395D01*
X218220465Y-59178198D01*
X218188703Y-59166834D01*
X218158207Y-59152410D01*
X218129273Y-59135068D01*
X218102177Y-59114972D01*
X218077182Y-59092318D01*
X218054528Y-59067323D01*
X218034432Y-59040227D01*
X218017090Y-59011293D01*
X218002666Y-58980797D01*
X217991302Y-58949035D01*
X217983105Y-58916312D01*
X217978155Y-58882943D01*
X217976500Y-58849250D01*
X217976500Y-57736750D01*
X217978155Y-57703057D01*
X217983105Y-57669688D01*
X217991302Y-57636965D01*
X218002666Y-57605203D01*
X218017090Y-57574707D01*
X218034432Y-57545773D01*
X218054528Y-57518677D01*
X218077182Y-57493682D01*
X218102177Y-57471028D01*
X218129273Y-57450932D01*
X218158207Y-57433590D01*
X218188703Y-57419166D01*
X218220465Y-57407802D01*
X218253188Y-57399605D01*
X218286557Y-57394655D01*
X218320250Y-57393000D01*
X219007750Y-57393000D01*
X219041443Y-57394655D01*
X219041443Y-57394655D01*
G37*
D18*
X218664000Y-58293000D03*
D17*
G36*
X217166443Y-57394655D02*
X217199812Y-57399605D01*
X217232535Y-57407802D01*
X217264297Y-57419166D01*
X217294793Y-57433590D01*
X217323727Y-57450932D01*
X217350823Y-57471028D01*
X217375818Y-57493682D01*
X217398472Y-57518677D01*
X217418568Y-57545773D01*
X217435910Y-57574707D01*
X217450334Y-57605203D01*
X217461698Y-57636965D01*
X217469895Y-57669688D01*
X217474845Y-57703057D01*
X217476500Y-57736750D01*
X217476500Y-58849250D01*
X217474845Y-58882943D01*
X217469895Y-58916312D01*
X217461698Y-58949035D01*
X217450334Y-58980797D01*
X217435910Y-59011293D01*
X217418568Y-59040227D01*
X217398472Y-59067323D01*
X217375818Y-59092318D01*
X217350823Y-59114972D01*
X217323727Y-59135068D01*
X217294793Y-59152410D01*
X217264297Y-59166834D01*
X217232535Y-59178198D01*
X217199812Y-59186395D01*
X217166443Y-59191345D01*
X217132750Y-59193000D01*
X216445250Y-59193000D01*
X216411557Y-59191345D01*
X216378188Y-59186395D01*
X216345465Y-59178198D01*
X216313703Y-59166834D01*
X216283207Y-59152410D01*
X216254273Y-59135068D01*
X216227177Y-59114972D01*
X216202182Y-59092318D01*
X216179528Y-59067323D01*
X216159432Y-59040227D01*
X216142090Y-59011293D01*
X216127666Y-58980797D01*
X216116302Y-58949035D01*
X216108105Y-58916312D01*
X216103155Y-58882943D01*
X216101500Y-58849250D01*
X216101500Y-57736750D01*
X216103155Y-57703057D01*
X216108105Y-57669688D01*
X216116302Y-57636965D01*
X216127666Y-57605203D01*
X216142090Y-57574707D01*
X216159432Y-57545773D01*
X216179528Y-57518677D01*
X216202182Y-57493682D01*
X216227177Y-57471028D01*
X216254273Y-57450932D01*
X216283207Y-57433590D01*
X216313703Y-57419166D01*
X216345465Y-57407802D01*
X216378188Y-57399605D01*
X216411557Y-57394655D01*
X216445250Y-57393000D01*
X217132750Y-57393000D01*
X217166443Y-57394655D01*
X217166443Y-57394655D01*
G37*
D18*
X216789000Y-58293000D03*
G04 #@! TD*
D17*
G04 #@! TO.C,C19*
G36*
X194137943Y-65511155D02*
X194171312Y-65516105D01*
X194204035Y-65524302D01*
X194235797Y-65535666D01*
X194266293Y-65550090D01*
X194295227Y-65567432D01*
X194322323Y-65587528D01*
X194347318Y-65610182D01*
X194369972Y-65635177D01*
X194390068Y-65662273D01*
X194407410Y-65691207D01*
X194421834Y-65721703D01*
X194433198Y-65753465D01*
X194441395Y-65786188D01*
X194446345Y-65819557D01*
X194448000Y-65853250D01*
X194448000Y-66540750D01*
X194446345Y-66574443D01*
X194441395Y-66607812D01*
X194433198Y-66640535D01*
X194421834Y-66672297D01*
X194407410Y-66702793D01*
X194390068Y-66731727D01*
X194369972Y-66758823D01*
X194347318Y-66783818D01*
X194322323Y-66806472D01*
X194295227Y-66826568D01*
X194266293Y-66843910D01*
X194235797Y-66858334D01*
X194204035Y-66869698D01*
X194171312Y-66877895D01*
X194137943Y-66882845D01*
X194104250Y-66884500D01*
X192991750Y-66884500D01*
X192958057Y-66882845D01*
X192924688Y-66877895D01*
X192891965Y-66869698D01*
X192860203Y-66858334D01*
X192829707Y-66843910D01*
X192800773Y-66826568D01*
X192773677Y-66806472D01*
X192748682Y-66783818D01*
X192726028Y-66758823D01*
X192705932Y-66731727D01*
X192688590Y-66702793D01*
X192674166Y-66672297D01*
X192662802Y-66640535D01*
X192654605Y-66607812D01*
X192649655Y-66574443D01*
X192648000Y-66540750D01*
X192648000Y-65853250D01*
X192649655Y-65819557D01*
X192654605Y-65786188D01*
X192662802Y-65753465D01*
X192674166Y-65721703D01*
X192688590Y-65691207D01*
X192705932Y-65662273D01*
X192726028Y-65635177D01*
X192748682Y-65610182D01*
X192773677Y-65587528D01*
X192800773Y-65567432D01*
X192829707Y-65550090D01*
X192860203Y-65535666D01*
X192891965Y-65524302D01*
X192924688Y-65516105D01*
X192958057Y-65511155D01*
X192991750Y-65509500D01*
X194104250Y-65509500D01*
X194137943Y-65511155D01*
X194137943Y-65511155D01*
G37*
D18*
X193548000Y-66197000D03*
D17*
G36*
X194137943Y-67386155D02*
X194171312Y-67391105D01*
X194204035Y-67399302D01*
X194235797Y-67410666D01*
X194266293Y-67425090D01*
X194295227Y-67442432D01*
X194322323Y-67462528D01*
X194347318Y-67485182D01*
X194369972Y-67510177D01*
X194390068Y-67537273D01*
X194407410Y-67566207D01*
X194421834Y-67596703D01*
X194433198Y-67628465D01*
X194441395Y-67661188D01*
X194446345Y-67694557D01*
X194448000Y-67728250D01*
X194448000Y-68415750D01*
X194446345Y-68449443D01*
X194441395Y-68482812D01*
X194433198Y-68515535D01*
X194421834Y-68547297D01*
X194407410Y-68577793D01*
X194390068Y-68606727D01*
X194369972Y-68633823D01*
X194347318Y-68658818D01*
X194322323Y-68681472D01*
X194295227Y-68701568D01*
X194266293Y-68718910D01*
X194235797Y-68733334D01*
X194204035Y-68744698D01*
X194171312Y-68752895D01*
X194137943Y-68757845D01*
X194104250Y-68759500D01*
X192991750Y-68759500D01*
X192958057Y-68757845D01*
X192924688Y-68752895D01*
X192891965Y-68744698D01*
X192860203Y-68733334D01*
X192829707Y-68718910D01*
X192800773Y-68701568D01*
X192773677Y-68681472D01*
X192748682Y-68658818D01*
X192726028Y-68633823D01*
X192705932Y-68606727D01*
X192688590Y-68577793D01*
X192674166Y-68547297D01*
X192662802Y-68515535D01*
X192654605Y-68482812D01*
X192649655Y-68449443D01*
X192648000Y-68415750D01*
X192648000Y-67728250D01*
X192649655Y-67694557D01*
X192654605Y-67661188D01*
X192662802Y-67628465D01*
X192674166Y-67596703D01*
X192688590Y-67566207D01*
X192705932Y-67537273D01*
X192726028Y-67510177D01*
X192748682Y-67485182D01*
X192773677Y-67462528D01*
X192800773Y-67442432D01*
X192829707Y-67425090D01*
X192860203Y-67410666D01*
X192891965Y-67399302D01*
X192924688Y-67391105D01*
X192958057Y-67386155D01*
X192991750Y-67384500D01*
X194104250Y-67384500D01*
X194137943Y-67386155D01*
X194137943Y-67386155D01*
G37*
D18*
X193548000Y-68072000D03*
G04 #@! TD*
D17*
G04 #@! TO.C,C20*
G36*
X194137943Y-70942155D02*
X194171312Y-70947105D01*
X194204035Y-70955302D01*
X194235797Y-70966666D01*
X194266293Y-70981090D01*
X194295227Y-70998432D01*
X194322323Y-71018528D01*
X194347318Y-71041182D01*
X194369972Y-71066177D01*
X194390068Y-71093273D01*
X194407410Y-71122207D01*
X194421834Y-71152703D01*
X194433198Y-71184465D01*
X194441395Y-71217188D01*
X194446345Y-71250557D01*
X194448000Y-71284250D01*
X194448000Y-71971750D01*
X194446345Y-72005443D01*
X194441395Y-72038812D01*
X194433198Y-72071535D01*
X194421834Y-72103297D01*
X194407410Y-72133793D01*
X194390068Y-72162727D01*
X194369972Y-72189823D01*
X194347318Y-72214818D01*
X194322323Y-72237472D01*
X194295227Y-72257568D01*
X194266293Y-72274910D01*
X194235797Y-72289334D01*
X194204035Y-72300698D01*
X194171312Y-72308895D01*
X194137943Y-72313845D01*
X194104250Y-72315500D01*
X192991750Y-72315500D01*
X192958057Y-72313845D01*
X192924688Y-72308895D01*
X192891965Y-72300698D01*
X192860203Y-72289334D01*
X192829707Y-72274910D01*
X192800773Y-72257568D01*
X192773677Y-72237472D01*
X192748682Y-72214818D01*
X192726028Y-72189823D01*
X192705932Y-72162727D01*
X192688590Y-72133793D01*
X192674166Y-72103297D01*
X192662802Y-72071535D01*
X192654605Y-72038812D01*
X192649655Y-72005443D01*
X192648000Y-71971750D01*
X192648000Y-71284250D01*
X192649655Y-71250557D01*
X192654605Y-71217188D01*
X192662802Y-71184465D01*
X192674166Y-71152703D01*
X192688590Y-71122207D01*
X192705932Y-71093273D01*
X192726028Y-71066177D01*
X192748682Y-71041182D01*
X192773677Y-71018528D01*
X192800773Y-70998432D01*
X192829707Y-70981090D01*
X192860203Y-70966666D01*
X192891965Y-70955302D01*
X192924688Y-70947105D01*
X192958057Y-70942155D01*
X192991750Y-70940500D01*
X194104250Y-70940500D01*
X194137943Y-70942155D01*
X194137943Y-70942155D01*
G37*
D18*
X193548000Y-71628000D03*
D17*
G36*
X194137943Y-69067155D02*
X194171312Y-69072105D01*
X194204035Y-69080302D01*
X194235797Y-69091666D01*
X194266293Y-69106090D01*
X194295227Y-69123432D01*
X194322323Y-69143528D01*
X194347318Y-69166182D01*
X194369972Y-69191177D01*
X194390068Y-69218273D01*
X194407410Y-69247207D01*
X194421834Y-69277703D01*
X194433198Y-69309465D01*
X194441395Y-69342188D01*
X194446345Y-69375557D01*
X194448000Y-69409250D01*
X194448000Y-70096750D01*
X194446345Y-70130443D01*
X194441395Y-70163812D01*
X194433198Y-70196535D01*
X194421834Y-70228297D01*
X194407410Y-70258793D01*
X194390068Y-70287727D01*
X194369972Y-70314823D01*
X194347318Y-70339818D01*
X194322323Y-70362472D01*
X194295227Y-70382568D01*
X194266293Y-70399910D01*
X194235797Y-70414334D01*
X194204035Y-70425698D01*
X194171312Y-70433895D01*
X194137943Y-70438845D01*
X194104250Y-70440500D01*
X192991750Y-70440500D01*
X192958057Y-70438845D01*
X192924688Y-70433895D01*
X192891965Y-70425698D01*
X192860203Y-70414334D01*
X192829707Y-70399910D01*
X192800773Y-70382568D01*
X192773677Y-70362472D01*
X192748682Y-70339818D01*
X192726028Y-70314823D01*
X192705932Y-70287727D01*
X192688590Y-70258793D01*
X192674166Y-70228297D01*
X192662802Y-70196535D01*
X192654605Y-70163812D01*
X192649655Y-70130443D01*
X192648000Y-70096750D01*
X192648000Y-69409250D01*
X192649655Y-69375557D01*
X192654605Y-69342188D01*
X192662802Y-69309465D01*
X192674166Y-69277703D01*
X192688590Y-69247207D01*
X192705932Y-69218273D01*
X192726028Y-69191177D01*
X192748682Y-69166182D01*
X192773677Y-69143528D01*
X192800773Y-69123432D01*
X192829707Y-69106090D01*
X192860203Y-69091666D01*
X192891965Y-69080302D01*
X192924688Y-69072105D01*
X192958057Y-69067155D01*
X192991750Y-69065500D01*
X194104250Y-69065500D01*
X194137943Y-69067155D01*
X194137943Y-69067155D01*
G37*
D18*
X193548000Y-69753000D03*
G04 #@! TD*
D17*
G04 #@! TO.C,C21*
G36*
X191736443Y-71745655D02*
X191769812Y-71750605D01*
X191802535Y-71758802D01*
X191834297Y-71770166D01*
X191864793Y-71784590D01*
X191893727Y-71801932D01*
X191920823Y-71822028D01*
X191945818Y-71844682D01*
X191968472Y-71869677D01*
X191988568Y-71896773D01*
X192005910Y-71925707D01*
X192020334Y-71956203D01*
X192031698Y-71987965D01*
X192039895Y-72020688D01*
X192044845Y-72054057D01*
X192046500Y-72087750D01*
X192046500Y-73200250D01*
X192044845Y-73233943D01*
X192039895Y-73267312D01*
X192031698Y-73300035D01*
X192020334Y-73331797D01*
X192005910Y-73362293D01*
X191988568Y-73391227D01*
X191968472Y-73418323D01*
X191945818Y-73443318D01*
X191920823Y-73465972D01*
X191893727Y-73486068D01*
X191864793Y-73503410D01*
X191834297Y-73517834D01*
X191802535Y-73529198D01*
X191769812Y-73537395D01*
X191736443Y-73542345D01*
X191702750Y-73544000D01*
X191015250Y-73544000D01*
X190981557Y-73542345D01*
X190948188Y-73537395D01*
X190915465Y-73529198D01*
X190883703Y-73517834D01*
X190853207Y-73503410D01*
X190824273Y-73486068D01*
X190797177Y-73465972D01*
X190772182Y-73443318D01*
X190749528Y-73418323D01*
X190729432Y-73391227D01*
X190712090Y-73362293D01*
X190697666Y-73331797D01*
X190686302Y-73300035D01*
X190678105Y-73267312D01*
X190673155Y-73233943D01*
X190671500Y-73200250D01*
X190671500Y-72087750D01*
X190673155Y-72054057D01*
X190678105Y-72020688D01*
X190686302Y-71987965D01*
X190697666Y-71956203D01*
X190712090Y-71925707D01*
X190729432Y-71896773D01*
X190749528Y-71869677D01*
X190772182Y-71844682D01*
X190797177Y-71822028D01*
X190824273Y-71801932D01*
X190853207Y-71784590D01*
X190883703Y-71770166D01*
X190915465Y-71758802D01*
X190948188Y-71750605D01*
X190981557Y-71745655D01*
X191015250Y-71744000D01*
X191702750Y-71744000D01*
X191736443Y-71745655D01*
X191736443Y-71745655D01*
G37*
D18*
X191359000Y-72644000D03*
D17*
G36*
X189861443Y-71745655D02*
X189894812Y-71750605D01*
X189927535Y-71758802D01*
X189959297Y-71770166D01*
X189989793Y-71784590D01*
X190018727Y-71801932D01*
X190045823Y-71822028D01*
X190070818Y-71844682D01*
X190093472Y-71869677D01*
X190113568Y-71896773D01*
X190130910Y-71925707D01*
X190145334Y-71956203D01*
X190156698Y-71987965D01*
X190164895Y-72020688D01*
X190169845Y-72054057D01*
X190171500Y-72087750D01*
X190171500Y-73200250D01*
X190169845Y-73233943D01*
X190164895Y-73267312D01*
X190156698Y-73300035D01*
X190145334Y-73331797D01*
X190130910Y-73362293D01*
X190113568Y-73391227D01*
X190093472Y-73418323D01*
X190070818Y-73443318D01*
X190045823Y-73465972D01*
X190018727Y-73486068D01*
X189989793Y-73503410D01*
X189959297Y-73517834D01*
X189927535Y-73529198D01*
X189894812Y-73537395D01*
X189861443Y-73542345D01*
X189827750Y-73544000D01*
X189140250Y-73544000D01*
X189106557Y-73542345D01*
X189073188Y-73537395D01*
X189040465Y-73529198D01*
X189008703Y-73517834D01*
X188978207Y-73503410D01*
X188949273Y-73486068D01*
X188922177Y-73465972D01*
X188897182Y-73443318D01*
X188874528Y-73418323D01*
X188854432Y-73391227D01*
X188837090Y-73362293D01*
X188822666Y-73331797D01*
X188811302Y-73300035D01*
X188803105Y-73267312D01*
X188798155Y-73233943D01*
X188796500Y-73200250D01*
X188796500Y-72087750D01*
X188798155Y-72054057D01*
X188803105Y-72020688D01*
X188811302Y-71987965D01*
X188822666Y-71956203D01*
X188837090Y-71925707D01*
X188854432Y-71896773D01*
X188874528Y-71869677D01*
X188897182Y-71844682D01*
X188922177Y-71822028D01*
X188949273Y-71801932D01*
X188978207Y-71784590D01*
X189008703Y-71770166D01*
X189040465Y-71758802D01*
X189073188Y-71750605D01*
X189106557Y-71745655D01*
X189140250Y-71744000D01*
X189827750Y-71744000D01*
X189861443Y-71745655D01*
X189861443Y-71745655D01*
G37*
D18*
X189484000Y-72644000D03*
G04 #@! TD*
D19*
G04 #@! TO.C,J1*
X224845000Y-58070000D03*
D20*
X222885000Y-52070000D03*
X222885000Y-55070000D03*
D19*
X224845000Y-49070000D03*
G04 #@! TD*
G04 #@! TO.C,J2*
X224845000Y-61770000D03*
D20*
X222885000Y-67770000D03*
X222885000Y-64770000D03*
D19*
X224845000Y-70770000D03*
G04 #@! TD*
D21*
G04 #@! TO.C,Q1*
X184846000Y-31020000D03*
X182946000Y-31020000D03*
X183896000Y-33020000D03*
G04 #@! TD*
G04 #@! TO.C,Q2*
X188976000Y-36068000D03*
X188026000Y-34068000D03*
X189926000Y-34068000D03*
G04 #@! TD*
G04 #@! TO.C,Q3*
X184846000Y-37116000D03*
X182946000Y-37116000D03*
X183896000Y-39116000D03*
G04 #@! TD*
G04 #@! TO.C,Q4*
X189926000Y-40164000D03*
X188026000Y-40164000D03*
X188976000Y-42164000D03*
G04 #@! TD*
G04 #@! TO.C,Q6*
X183896000Y-45212000D03*
X182946000Y-43212000D03*
X184846000Y-43212000D03*
G04 #@! TD*
G04 #@! TO.C,Q7*
X188976000Y-52832000D03*
X188026000Y-50832000D03*
X189926000Y-50832000D03*
G04 #@! TD*
G04 #@! TO.C,Q8*
X183896000Y-55880000D03*
X182946000Y-53880000D03*
X184846000Y-53880000D03*
G04 #@! TD*
G04 #@! TO.C,Q9*
X189926000Y-56420000D03*
X188026000Y-56420000D03*
X188976000Y-58420000D03*
G04 #@! TD*
G04 #@! TO.C,Q10*
X184846000Y-59468000D03*
X182946000Y-59468000D03*
X183896000Y-61468000D03*
G04 #@! TD*
G04 #@! TO.C,Q11*
X188976000Y-64516000D03*
X188026000Y-62516000D03*
X189926000Y-62516000D03*
G04 #@! TD*
G04 #@! TO.C,Q12*
X184846000Y-65532000D03*
X182946000Y-65532000D03*
X183896000Y-67532000D03*
G04 #@! TD*
G04 #@! TO.C,Q13*
X188976000Y-70612000D03*
X188026000Y-68612000D03*
X189926000Y-68612000D03*
G04 #@! TD*
D17*
G04 #@! TO.C,R1*
G36*
X181382443Y-25009655D02*
X181415812Y-25014605D01*
X181448535Y-25022802D01*
X181480297Y-25034166D01*
X181510793Y-25048590D01*
X181539727Y-25065932D01*
X181566823Y-25086028D01*
X181591818Y-25108682D01*
X181614472Y-25133677D01*
X181634568Y-25160773D01*
X181651910Y-25189707D01*
X181666334Y-25220203D01*
X181677698Y-25251965D01*
X181685895Y-25284688D01*
X181690845Y-25318057D01*
X181692500Y-25351750D01*
X181692500Y-26464250D01*
X181690845Y-26497943D01*
X181685895Y-26531312D01*
X181677698Y-26564035D01*
X181666334Y-26595797D01*
X181651910Y-26626293D01*
X181634568Y-26655227D01*
X181614472Y-26682323D01*
X181591818Y-26707318D01*
X181566823Y-26729972D01*
X181539727Y-26750068D01*
X181510793Y-26767410D01*
X181480297Y-26781834D01*
X181448535Y-26793198D01*
X181415812Y-26801395D01*
X181382443Y-26806345D01*
X181348750Y-26808000D01*
X180661250Y-26808000D01*
X180627557Y-26806345D01*
X180594188Y-26801395D01*
X180561465Y-26793198D01*
X180529703Y-26781834D01*
X180499207Y-26767410D01*
X180470273Y-26750068D01*
X180443177Y-26729972D01*
X180418182Y-26707318D01*
X180395528Y-26682323D01*
X180375432Y-26655227D01*
X180358090Y-26626293D01*
X180343666Y-26595797D01*
X180332302Y-26564035D01*
X180324105Y-26531312D01*
X180319155Y-26497943D01*
X180317500Y-26464250D01*
X180317500Y-25351750D01*
X180319155Y-25318057D01*
X180324105Y-25284688D01*
X180332302Y-25251965D01*
X180343666Y-25220203D01*
X180358090Y-25189707D01*
X180375432Y-25160773D01*
X180395528Y-25133677D01*
X180418182Y-25108682D01*
X180443177Y-25086028D01*
X180470273Y-25065932D01*
X180499207Y-25048590D01*
X180529703Y-25034166D01*
X180561465Y-25022802D01*
X180594188Y-25014605D01*
X180627557Y-25009655D01*
X180661250Y-25008000D01*
X181348750Y-25008000D01*
X181382443Y-25009655D01*
X181382443Y-25009655D01*
G37*
D18*
X181005000Y-25908000D03*
D17*
G36*
X183257443Y-25009655D02*
X183290812Y-25014605D01*
X183323535Y-25022802D01*
X183355297Y-25034166D01*
X183385793Y-25048590D01*
X183414727Y-25065932D01*
X183441823Y-25086028D01*
X183466818Y-25108682D01*
X183489472Y-25133677D01*
X183509568Y-25160773D01*
X183526910Y-25189707D01*
X183541334Y-25220203D01*
X183552698Y-25251965D01*
X183560895Y-25284688D01*
X183565845Y-25318057D01*
X183567500Y-25351750D01*
X183567500Y-26464250D01*
X183565845Y-26497943D01*
X183560895Y-26531312D01*
X183552698Y-26564035D01*
X183541334Y-26595797D01*
X183526910Y-26626293D01*
X183509568Y-26655227D01*
X183489472Y-26682323D01*
X183466818Y-26707318D01*
X183441823Y-26729972D01*
X183414727Y-26750068D01*
X183385793Y-26767410D01*
X183355297Y-26781834D01*
X183323535Y-26793198D01*
X183290812Y-26801395D01*
X183257443Y-26806345D01*
X183223750Y-26808000D01*
X182536250Y-26808000D01*
X182502557Y-26806345D01*
X182469188Y-26801395D01*
X182436465Y-26793198D01*
X182404703Y-26781834D01*
X182374207Y-26767410D01*
X182345273Y-26750068D01*
X182318177Y-26729972D01*
X182293182Y-26707318D01*
X182270528Y-26682323D01*
X182250432Y-26655227D01*
X182233090Y-26626293D01*
X182218666Y-26595797D01*
X182207302Y-26564035D01*
X182199105Y-26531312D01*
X182194155Y-26497943D01*
X182192500Y-26464250D01*
X182192500Y-25351750D01*
X182194155Y-25318057D01*
X182199105Y-25284688D01*
X182207302Y-25251965D01*
X182218666Y-25220203D01*
X182233090Y-25189707D01*
X182250432Y-25160773D01*
X182270528Y-25133677D01*
X182293182Y-25108682D01*
X182318177Y-25086028D01*
X182345273Y-25065932D01*
X182374207Y-25048590D01*
X182404703Y-25034166D01*
X182436465Y-25022802D01*
X182469188Y-25014605D01*
X182502557Y-25009655D01*
X182536250Y-25008000D01*
X183223750Y-25008000D01*
X183257443Y-25009655D01*
X183257443Y-25009655D01*
G37*
D18*
X182880000Y-25908000D03*
G04 #@! TD*
D17*
G04 #@! TO.C,R2*
G36*
X175794443Y-28057655D02*
X175827812Y-28062605D01*
X175860535Y-28070802D01*
X175892297Y-28082166D01*
X175922793Y-28096590D01*
X175951727Y-28113932D01*
X175978823Y-28134028D01*
X176003818Y-28156682D01*
X176026472Y-28181677D01*
X176046568Y-28208773D01*
X176063910Y-28237707D01*
X176078334Y-28268203D01*
X176089698Y-28299965D01*
X176097895Y-28332688D01*
X176102845Y-28366057D01*
X176104500Y-28399750D01*
X176104500Y-29512250D01*
X176102845Y-29545943D01*
X176097895Y-29579312D01*
X176089698Y-29612035D01*
X176078334Y-29643797D01*
X176063910Y-29674293D01*
X176046568Y-29703227D01*
X176026472Y-29730323D01*
X176003818Y-29755318D01*
X175978823Y-29777972D01*
X175951727Y-29798068D01*
X175922793Y-29815410D01*
X175892297Y-29829834D01*
X175860535Y-29841198D01*
X175827812Y-29849395D01*
X175794443Y-29854345D01*
X175760750Y-29856000D01*
X175073250Y-29856000D01*
X175039557Y-29854345D01*
X175006188Y-29849395D01*
X174973465Y-29841198D01*
X174941703Y-29829834D01*
X174911207Y-29815410D01*
X174882273Y-29798068D01*
X174855177Y-29777972D01*
X174830182Y-29755318D01*
X174807528Y-29730323D01*
X174787432Y-29703227D01*
X174770090Y-29674293D01*
X174755666Y-29643797D01*
X174744302Y-29612035D01*
X174736105Y-29579312D01*
X174731155Y-29545943D01*
X174729500Y-29512250D01*
X174729500Y-28399750D01*
X174731155Y-28366057D01*
X174736105Y-28332688D01*
X174744302Y-28299965D01*
X174755666Y-28268203D01*
X174770090Y-28237707D01*
X174787432Y-28208773D01*
X174807528Y-28181677D01*
X174830182Y-28156682D01*
X174855177Y-28134028D01*
X174882273Y-28113932D01*
X174911207Y-28096590D01*
X174941703Y-28082166D01*
X174973465Y-28070802D01*
X175006188Y-28062605D01*
X175039557Y-28057655D01*
X175073250Y-28056000D01*
X175760750Y-28056000D01*
X175794443Y-28057655D01*
X175794443Y-28057655D01*
G37*
D18*
X175417000Y-28956000D03*
D17*
G36*
X177669443Y-28057655D02*
X177702812Y-28062605D01*
X177735535Y-28070802D01*
X177767297Y-28082166D01*
X177797793Y-28096590D01*
X177826727Y-28113932D01*
X177853823Y-28134028D01*
X177878818Y-28156682D01*
X177901472Y-28181677D01*
X177921568Y-28208773D01*
X177938910Y-28237707D01*
X177953334Y-28268203D01*
X177964698Y-28299965D01*
X177972895Y-28332688D01*
X177977845Y-28366057D01*
X177979500Y-28399750D01*
X177979500Y-29512250D01*
X177977845Y-29545943D01*
X177972895Y-29579312D01*
X177964698Y-29612035D01*
X177953334Y-29643797D01*
X177938910Y-29674293D01*
X177921568Y-29703227D01*
X177901472Y-29730323D01*
X177878818Y-29755318D01*
X177853823Y-29777972D01*
X177826727Y-29798068D01*
X177797793Y-29815410D01*
X177767297Y-29829834D01*
X177735535Y-29841198D01*
X177702812Y-29849395D01*
X177669443Y-29854345D01*
X177635750Y-29856000D01*
X176948250Y-29856000D01*
X176914557Y-29854345D01*
X176881188Y-29849395D01*
X176848465Y-29841198D01*
X176816703Y-29829834D01*
X176786207Y-29815410D01*
X176757273Y-29798068D01*
X176730177Y-29777972D01*
X176705182Y-29755318D01*
X176682528Y-29730323D01*
X176662432Y-29703227D01*
X176645090Y-29674293D01*
X176630666Y-29643797D01*
X176619302Y-29612035D01*
X176611105Y-29579312D01*
X176606155Y-29545943D01*
X176604500Y-29512250D01*
X176604500Y-28399750D01*
X176606155Y-28366057D01*
X176611105Y-28332688D01*
X176619302Y-28299965D01*
X176630666Y-28268203D01*
X176645090Y-28237707D01*
X176662432Y-28208773D01*
X176682528Y-28181677D01*
X176705182Y-28156682D01*
X176730177Y-28134028D01*
X176757273Y-28113932D01*
X176786207Y-28096590D01*
X176816703Y-28082166D01*
X176848465Y-28070802D01*
X176881188Y-28062605D01*
X176914557Y-28057655D01*
X176948250Y-28056000D01*
X177635750Y-28056000D01*
X177669443Y-28057655D01*
X177669443Y-28057655D01*
G37*
D18*
X177292000Y-28956000D03*
G04 #@! TD*
D17*
G04 #@! TO.C,R3*
G36*
X175794443Y-25009655D02*
X175827812Y-25014605D01*
X175860535Y-25022802D01*
X175892297Y-25034166D01*
X175922793Y-25048590D01*
X175951727Y-25065932D01*
X175978823Y-25086028D01*
X176003818Y-25108682D01*
X176026472Y-25133677D01*
X176046568Y-25160773D01*
X176063910Y-25189707D01*
X176078334Y-25220203D01*
X176089698Y-25251965D01*
X176097895Y-25284688D01*
X176102845Y-25318057D01*
X176104500Y-25351750D01*
X176104500Y-26464250D01*
X176102845Y-26497943D01*
X176097895Y-26531312D01*
X176089698Y-26564035D01*
X176078334Y-26595797D01*
X176063910Y-26626293D01*
X176046568Y-26655227D01*
X176026472Y-26682323D01*
X176003818Y-26707318D01*
X175978823Y-26729972D01*
X175951727Y-26750068D01*
X175922793Y-26767410D01*
X175892297Y-26781834D01*
X175860535Y-26793198D01*
X175827812Y-26801395D01*
X175794443Y-26806345D01*
X175760750Y-26808000D01*
X175073250Y-26808000D01*
X175039557Y-26806345D01*
X175006188Y-26801395D01*
X174973465Y-26793198D01*
X174941703Y-26781834D01*
X174911207Y-26767410D01*
X174882273Y-26750068D01*
X174855177Y-26729972D01*
X174830182Y-26707318D01*
X174807528Y-26682323D01*
X174787432Y-26655227D01*
X174770090Y-26626293D01*
X174755666Y-26595797D01*
X174744302Y-26564035D01*
X174736105Y-26531312D01*
X174731155Y-26497943D01*
X174729500Y-26464250D01*
X174729500Y-25351750D01*
X174731155Y-25318057D01*
X174736105Y-25284688D01*
X174744302Y-25251965D01*
X174755666Y-25220203D01*
X174770090Y-25189707D01*
X174787432Y-25160773D01*
X174807528Y-25133677D01*
X174830182Y-25108682D01*
X174855177Y-25086028D01*
X174882273Y-25065932D01*
X174911207Y-25048590D01*
X174941703Y-25034166D01*
X174973465Y-25022802D01*
X175006188Y-25014605D01*
X175039557Y-25009655D01*
X175073250Y-25008000D01*
X175760750Y-25008000D01*
X175794443Y-25009655D01*
X175794443Y-25009655D01*
G37*
D18*
X175417000Y-25908000D03*
D17*
G36*
X177669443Y-25009655D02*
X177702812Y-25014605D01*
X177735535Y-25022802D01*
X177767297Y-25034166D01*
X177797793Y-25048590D01*
X177826727Y-25065932D01*
X177853823Y-25086028D01*
X177878818Y-25108682D01*
X177901472Y-25133677D01*
X177921568Y-25160773D01*
X177938910Y-25189707D01*
X177953334Y-25220203D01*
X177964698Y-25251965D01*
X177972895Y-25284688D01*
X177977845Y-25318057D01*
X177979500Y-25351750D01*
X177979500Y-26464250D01*
X177977845Y-26497943D01*
X177972895Y-26531312D01*
X177964698Y-26564035D01*
X177953334Y-26595797D01*
X177938910Y-26626293D01*
X177921568Y-26655227D01*
X177901472Y-26682323D01*
X177878818Y-26707318D01*
X177853823Y-26729972D01*
X177826727Y-26750068D01*
X177797793Y-26767410D01*
X177767297Y-26781834D01*
X177735535Y-26793198D01*
X177702812Y-26801395D01*
X177669443Y-26806345D01*
X177635750Y-26808000D01*
X176948250Y-26808000D01*
X176914557Y-26806345D01*
X176881188Y-26801395D01*
X176848465Y-26793198D01*
X176816703Y-26781834D01*
X176786207Y-26767410D01*
X176757273Y-26750068D01*
X176730177Y-26729972D01*
X176705182Y-26707318D01*
X176682528Y-26682323D01*
X176662432Y-26655227D01*
X176645090Y-26626293D01*
X176630666Y-26595797D01*
X176619302Y-26564035D01*
X176611105Y-26531312D01*
X176606155Y-26497943D01*
X176604500Y-26464250D01*
X176604500Y-25351750D01*
X176606155Y-25318057D01*
X176611105Y-25284688D01*
X176619302Y-25251965D01*
X176630666Y-25220203D01*
X176645090Y-25189707D01*
X176662432Y-25160773D01*
X176682528Y-25133677D01*
X176705182Y-25108682D01*
X176730177Y-25086028D01*
X176757273Y-25065932D01*
X176786207Y-25048590D01*
X176816703Y-25034166D01*
X176848465Y-25022802D01*
X176881188Y-25014605D01*
X176914557Y-25009655D01*
X176948250Y-25008000D01*
X177635750Y-25008000D01*
X177669443Y-25009655D01*
X177669443Y-25009655D01*
G37*
D18*
X177292000Y-25908000D03*
G04 #@! TD*
D17*
G04 #@! TO.C,R5*
G36*
X177669443Y-31105655D02*
X177702812Y-31110605D01*
X177735535Y-31118802D01*
X177767297Y-31130166D01*
X177797793Y-31144590D01*
X177826727Y-31161932D01*
X177853823Y-31182028D01*
X177878818Y-31204682D01*
X177901472Y-31229677D01*
X177921568Y-31256773D01*
X177938910Y-31285707D01*
X177953334Y-31316203D01*
X177964698Y-31347965D01*
X177972895Y-31380688D01*
X177977845Y-31414057D01*
X177979500Y-31447750D01*
X177979500Y-32560250D01*
X177977845Y-32593943D01*
X177972895Y-32627312D01*
X177964698Y-32660035D01*
X177953334Y-32691797D01*
X177938910Y-32722293D01*
X177921568Y-32751227D01*
X177901472Y-32778323D01*
X177878818Y-32803318D01*
X177853823Y-32825972D01*
X177826727Y-32846068D01*
X177797793Y-32863410D01*
X177767297Y-32877834D01*
X177735535Y-32889198D01*
X177702812Y-32897395D01*
X177669443Y-32902345D01*
X177635750Y-32904000D01*
X176948250Y-32904000D01*
X176914557Y-32902345D01*
X176881188Y-32897395D01*
X176848465Y-32889198D01*
X176816703Y-32877834D01*
X176786207Y-32863410D01*
X176757273Y-32846068D01*
X176730177Y-32825972D01*
X176705182Y-32803318D01*
X176682528Y-32778323D01*
X176662432Y-32751227D01*
X176645090Y-32722293D01*
X176630666Y-32691797D01*
X176619302Y-32660035D01*
X176611105Y-32627312D01*
X176606155Y-32593943D01*
X176604500Y-32560250D01*
X176604500Y-31447750D01*
X176606155Y-31414057D01*
X176611105Y-31380688D01*
X176619302Y-31347965D01*
X176630666Y-31316203D01*
X176645090Y-31285707D01*
X176662432Y-31256773D01*
X176682528Y-31229677D01*
X176705182Y-31204682D01*
X176730177Y-31182028D01*
X176757273Y-31161932D01*
X176786207Y-31144590D01*
X176816703Y-31130166D01*
X176848465Y-31118802D01*
X176881188Y-31110605D01*
X176914557Y-31105655D01*
X176948250Y-31104000D01*
X177635750Y-31104000D01*
X177669443Y-31105655D01*
X177669443Y-31105655D01*
G37*
D18*
X177292000Y-32004000D03*
D17*
G36*
X175794443Y-31105655D02*
X175827812Y-31110605D01*
X175860535Y-31118802D01*
X175892297Y-31130166D01*
X175922793Y-31144590D01*
X175951727Y-31161932D01*
X175978823Y-31182028D01*
X176003818Y-31204682D01*
X176026472Y-31229677D01*
X176046568Y-31256773D01*
X176063910Y-31285707D01*
X176078334Y-31316203D01*
X176089698Y-31347965D01*
X176097895Y-31380688D01*
X176102845Y-31414057D01*
X176104500Y-31447750D01*
X176104500Y-32560250D01*
X176102845Y-32593943D01*
X176097895Y-32627312D01*
X176089698Y-32660035D01*
X176078334Y-32691797D01*
X176063910Y-32722293D01*
X176046568Y-32751227D01*
X176026472Y-32778323D01*
X176003818Y-32803318D01*
X175978823Y-32825972D01*
X175951727Y-32846068D01*
X175922793Y-32863410D01*
X175892297Y-32877834D01*
X175860535Y-32889198D01*
X175827812Y-32897395D01*
X175794443Y-32902345D01*
X175760750Y-32904000D01*
X175073250Y-32904000D01*
X175039557Y-32902345D01*
X175006188Y-32897395D01*
X174973465Y-32889198D01*
X174941703Y-32877834D01*
X174911207Y-32863410D01*
X174882273Y-32846068D01*
X174855177Y-32825972D01*
X174830182Y-32803318D01*
X174807528Y-32778323D01*
X174787432Y-32751227D01*
X174770090Y-32722293D01*
X174755666Y-32691797D01*
X174744302Y-32660035D01*
X174736105Y-32627312D01*
X174731155Y-32593943D01*
X174729500Y-32560250D01*
X174729500Y-31447750D01*
X174731155Y-31414057D01*
X174736105Y-31380688D01*
X174744302Y-31347965D01*
X174755666Y-31316203D01*
X174770090Y-31285707D01*
X174787432Y-31256773D01*
X174807528Y-31229677D01*
X174830182Y-31204682D01*
X174855177Y-31182028D01*
X174882273Y-31161932D01*
X174911207Y-31144590D01*
X174941703Y-31130166D01*
X174973465Y-31118802D01*
X175006188Y-31110605D01*
X175039557Y-31105655D01*
X175073250Y-31104000D01*
X175760750Y-31104000D01*
X175794443Y-31105655D01*
X175794443Y-31105655D01*
G37*
D18*
X175417000Y-32004000D03*
G04 #@! TD*
D17*
G04 #@! TO.C,R7*
G36*
X175794443Y-34153655D02*
X175827812Y-34158605D01*
X175860535Y-34166802D01*
X175892297Y-34178166D01*
X175922793Y-34192590D01*
X175951727Y-34209932D01*
X175978823Y-34230028D01*
X176003818Y-34252682D01*
X176026472Y-34277677D01*
X176046568Y-34304773D01*
X176063910Y-34333707D01*
X176078334Y-34364203D01*
X176089698Y-34395965D01*
X176097895Y-34428688D01*
X176102845Y-34462057D01*
X176104500Y-34495750D01*
X176104500Y-35608250D01*
X176102845Y-35641943D01*
X176097895Y-35675312D01*
X176089698Y-35708035D01*
X176078334Y-35739797D01*
X176063910Y-35770293D01*
X176046568Y-35799227D01*
X176026472Y-35826323D01*
X176003818Y-35851318D01*
X175978823Y-35873972D01*
X175951727Y-35894068D01*
X175922793Y-35911410D01*
X175892297Y-35925834D01*
X175860535Y-35937198D01*
X175827812Y-35945395D01*
X175794443Y-35950345D01*
X175760750Y-35952000D01*
X175073250Y-35952000D01*
X175039557Y-35950345D01*
X175006188Y-35945395D01*
X174973465Y-35937198D01*
X174941703Y-35925834D01*
X174911207Y-35911410D01*
X174882273Y-35894068D01*
X174855177Y-35873972D01*
X174830182Y-35851318D01*
X174807528Y-35826323D01*
X174787432Y-35799227D01*
X174770090Y-35770293D01*
X174755666Y-35739797D01*
X174744302Y-35708035D01*
X174736105Y-35675312D01*
X174731155Y-35641943D01*
X174729500Y-35608250D01*
X174729500Y-34495750D01*
X174731155Y-34462057D01*
X174736105Y-34428688D01*
X174744302Y-34395965D01*
X174755666Y-34364203D01*
X174770090Y-34333707D01*
X174787432Y-34304773D01*
X174807528Y-34277677D01*
X174830182Y-34252682D01*
X174855177Y-34230028D01*
X174882273Y-34209932D01*
X174911207Y-34192590D01*
X174941703Y-34178166D01*
X174973465Y-34166802D01*
X175006188Y-34158605D01*
X175039557Y-34153655D01*
X175073250Y-34152000D01*
X175760750Y-34152000D01*
X175794443Y-34153655D01*
X175794443Y-34153655D01*
G37*
D18*
X175417000Y-35052000D03*
D17*
G36*
X177669443Y-34153655D02*
X177702812Y-34158605D01*
X177735535Y-34166802D01*
X177767297Y-34178166D01*
X177797793Y-34192590D01*
X177826727Y-34209932D01*
X177853823Y-34230028D01*
X177878818Y-34252682D01*
X177901472Y-34277677D01*
X177921568Y-34304773D01*
X177938910Y-34333707D01*
X177953334Y-34364203D01*
X177964698Y-34395965D01*
X177972895Y-34428688D01*
X177977845Y-34462057D01*
X177979500Y-34495750D01*
X177979500Y-35608250D01*
X177977845Y-35641943D01*
X177972895Y-35675312D01*
X177964698Y-35708035D01*
X177953334Y-35739797D01*
X177938910Y-35770293D01*
X177921568Y-35799227D01*
X177901472Y-35826323D01*
X177878818Y-35851318D01*
X177853823Y-35873972D01*
X177826727Y-35894068D01*
X177797793Y-35911410D01*
X177767297Y-35925834D01*
X177735535Y-35937198D01*
X177702812Y-35945395D01*
X177669443Y-35950345D01*
X177635750Y-35952000D01*
X176948250Y-35952000D01*
X176914557Y-35950345D01*
X176881188Y-35945395D01*
X176848465Y-35937198D01*
X176816703Y-35925834D01*
X176786207Y-35911410D01*
X176757273Y-35894068D01*
X176730177Y-35873972D01*
X176705182Y-35851318D01*
X176682528Y-35826323D01*
X176662432Y-35799227D01*
X176645090Y-35770293D01*
X176630666Y-35739797D01*
X176619302Y-35708035D01*
X176611105Y-35675312D01*
X176606155Y-35641943D01*
X176604500Y-35608250D01*
X176604500Y-34495750D01*
X176606155Y-34462057D01*
X176611105Y-34428688D01*
X176619302Y-34395965D01*
X176630666Y-34364203D01*
X176645090Y-34333707D01*
X176662432Y-34304773D01*
X176682528Y-34277677D01*
X176705182Y-34252682D01*
X176730177Y-34230028D01*
X176757273Y-34209932D01*
X176786207Y-34192590D01*
X176816703Y-34178166D01*
X176848465Y-34166802D01*
X176881188Y-34158605D01*
X176914557Y-34153655D01*
X176948250Y-34152000D01*
X177635750Y-34152000D01*
X177669443Y-34153655D01*
X177669443Y-34153655D01*
G37*
D18*
X177292000Y-35052000D03*
G04 #@! TD*
D17*
G04 #@! TO.C,R9*
G36*
X177669443Y-37201655D02*
X177702812Y-37206605D01*
X177735535Y-37214802D01*
X177767297Y-37226166D01*
X177797793Y-37240590D01*
X177826727Y-37257932D01*
X177853823Y-37278028D01*
X177878818Y-37300682D01*
X177901472Y-37325677D01*
X177921568Y-37352773D01*
X177938910Y-37381707D01*
X177953334Y-37412203D01*
X177964698Y-37443965D01*
X177972895Y-37476688D01*
X177977845Y-37510057D01*
X177979500Y-37543750D01*
X177979500Y-38656250D01*
X177977845Y-38689943D01*
X177972895Y-38723312D01*
X177964698Y-38756035D01*
X177953334Y-38787797D01*
X177938910Y-38818293D01*
X177921568Y-38847227D01*
X177901472Y-38874323D01*
X177878818Y-38899318D01*
X177853823Y-38921972D01*
X177826727Y-38942068D01*
X177797793Y-38959410D01*
X177767297Y-38973834D01*
X177735535Y-38985198D01*
X177702812Y-38993395D01*
X177669443Y-38998345D01*
X177635750Y-39000000D01*
X176948250Y-39000000D01*
X176914557Y-38998345D01*
X176881188Y-38993395D01*
X176848465Y-38985198D01*
X176816703Y-38973834D01*
X176786207Y-38959410D01*
X176757273Y-38942068D01*
X176730177Y-38921972D01*
X176705182Y-38899318D01*
X176682528Y-38874323D01*
X176662432Y-38847227D01*
X176645090Y-38818293D01*
X176630666Y-38787797D01*
X176619302Y-38756035D01*
X176611105Y-38723312D01*
X176606155Y-38689943D01*
X176604500Y-38656250D01*
X176604500Y-37543750D01*
X176606155Y-37510057D01*
X176611105Y-37476688D01*
X176619302Y-37443965D01*
X176630666Y-37412203D01*
X176645090Y-37381707D01*
X176662432Y-37352773D01*
X176682528Y-37325677D01*
X176705182Y-37300682D01*
X176730177Y-37278028D01*
X176757273Y-37257932D01*
X176786207Y-37240590D01*
X176816703Y-37226166D01*
X176848465Y-37214802D01*
X176881188Y-37206605D01*
X176914557Y-37201655D01*
X176948250Y-37200000D01*
X177635750Y-37200000D01*
X177669443Y-37201655D01*
X177669443Y-37201655D01*
G37*
D18*
X177292000Y-38100000D03*
D17*
G36*
X175794443Y-37201655D02*
X175827812Y-37206605D01*
X175860535Y-37214802D01*
X175892297Y-37226166D01*
X175922793Y-37240590D01*
X175951727Y-37257932D01*
X175978823Y-37278028D01*
X176003818Y-37300682D01*
X176026472Y-37325677D01*
X176046568Y-37352773D01*
X176063910Y-37381707D01*
X176078334Y-37412203D01*
X176089698Y-37443965D01*
X176097895Y-37476688D01*
X176102845Y-37510057D01*
X176104500Y-37543750D01*
X176104500Y-38656250D01*
X176102845Y-38689943D01*
X176097895Y-38723312D01*
X176089698Y-38756035D01*
X176078334Y-38787797D01*
X176063910Y-38818293D01*
X176046568Y-38847227D01*
X176026472Y-38874323D01*
X176003818Y-38899318D01*
X175978823Y-38921972D01*
X175951727Y-38942068D01*
X175922793Y-38959410D01*
X175892297Y-38973834D01*
X175860535Y-38985198D01*
X175827812Y-38993395D01*
X175794443Y-38998345D01*
X175760750Y-39000000D01*
X175073250Y-39000000D01*
X175039557Y-38998345D01*
X175006188Y-38993395D01*
X174973465Y-38985198D01*
X174941703Y-38973834D01*
X174911207Y-38959410D01*
X174882273Y-38942068D01*
X174855177Y-38921972D01*
X174830182Y-38899318D01*
X174807528Y-38874323D01*
X174787432Y-38847227D01*
X174770090Y-38818293D01*
X174755666Y-38787797D01*
X174744302Y-38756035D01*
X174736105Y-38723312D01*
X174731155Y-38689943D01*
X174729500Y-38656250D01*
X174729500Y-37543750D01*
X174731155Y-37510057D01*
X174736105Y-37476688D01*
X174744302Y-37443965D01*
X174755666Y-37412203D01*
X174770090Y-37381707D01*
X174787432Y-37352773D01*
X174807528Y-37325677D01*
X174830182Y-37300682D01*
X174855177Y-37278028D01*
X174882273Y-37257932D01*
X174911207Y-37240590D01*
X174941703Y-37226166D01*
X174973465Y-37214802D01*
X175006188Y-37206605D01*
X175039557Y-37201655D01*
X175073250Y-37200000D01*
X175760750Y-37200000D01*
X175794443Y-37201655D01*
X175794443Y-37201655D01*
G37*
D18*
X175417000Y-38100000D03*
G04 #@! TD*
D17*
G04 #@! TO.C,R11*
G36*
X177669443Y-40249655D02*
X177702812Y-40254605D01*
X177735535Y-40262802D01*
X177767297Y-40274166D01*
X177797793Y-40288590D01*
X177826727Y-40305932D01*
X177853823Y-40326028D01*
X177878818Y-40348682D01*
X177901472Y-40373677D01*
X177921568Y-40400773D01*
X177938910Y-40429707D01*
X177953334Y-40460203D01*
X177964698Y-40491965D01*
X177972895Y-40524688D01*
X177977845Y-40558057D01*
X177979500Y-40591750D01*
X177979500Y-41704250D01*
X177977845Y-41737943D01*
X177972895Y-41771312D01*
X177964698Y-41804035D01*
X177953334Y-41835797D01*
X177938910Y-41866293D01*
X177921568Y-41895227D01*
X177901472Y-41922323D01*
X177878818Y-41947318D01*
X177853823Y-41969972D01*
X177826727Y-41990068D01*
X177797793Y-42007410D01*
X177767297Y-42021834D01*
X177735535Y-42033198D01*
X177702812Y-42041395D01*
X177669443Y-42046345D01*
X177635750Y-42048000D01*
X176948250Y-42048000D01*
X176914557Y-42046345D01*
X176881188Y-42041395D01*
X176848465Y-42033198D01*
X176816703Y-42021834D01*
X176786207Y-42007410D01*
X176757273Y-41990068D01*
X176730177Y-41969972D01*
X176705182Y-41947318D01*
X176682528Y-41922323D01*
X176662432Y-41895227D01*
X176645090Y-41866293D01*
X176630666Y-41835797D01*
X176619302Y-41804035D01*
X176611105Y-41771312D01*
X176606155Y-41737943D01*
X176604500Y-41704250D01*
X176604500Y-40591750D01*
X176606155Y-40558057D01*
X176611105Y-40524688D01*
X176619302Y-40491965D01*
X176630666Y-40460203D01*
X176645090Y-40429707D01*
X176662432Y-40400773D01*
X176682528Y-40373677D01*
X176705182Y-40348682D01*
X176730177Y-40326028D01*
X176757273Y-40305932D01*
X176786207Y-40288590D01*
X176816703Y-40274166D01*
X176848465Y-40262802D01*
X176881188Y-40254605D01*
X176914557Y-40249655D01*
X176948250Y-40248000D01*
X177635750Y-40248000D01*
X177669443Y-40249655D01*
X177669443Y-40249655D01*
G37*
D18*
X177292000Y-41148000D03*
D17*
G36*
X175794443Y-40249655D02*
X175827812Y-40254605D01*
X175860535Y-40262802D01*
X175892297Y-40274166D01*
X175922793Y-40288590D01*
X175951727Y-40305932D01*
X175978823Y-40326028D01*
X176003818Y-40348682D01*
X176026472Y-40373677D01*
X176046568Y-40400773D01*
X176063910Y-40429707D01*
X176078334Y-40460203D01*
X176089698Y-40491965D01*
X176097895Y-40524688D01*
X176102845Y-40558057D01*
X176104500Y-40591750D01*
X176104500Y-41704250D01*
X176102845Y-41737943D01*
X176097895Y-41771312D01*
X176089698Y-41804035D01*
X176078334Y-41835797D01*
X176063910Y-41866293D01*
X176046568Y-41895227D01*
X176026472Y-41922323D01*
X176003818Y-41947318D01*
X175978823Y-41969972D01*
X175951727Y-41990068D01*
X175922793Y-42007410D01*
X175892297Y-42021834D01*
X175860535Y-42033198D01*
X175827812Y-42041395D01*
X175794443Y-42046345D01*
X175760750Y-42048000D01*
X175073250Y-42048000D01*
X175039557Y-42046345D01*
X175006188Y-42041395D01*
X174973465Y-42033198D01*
X174941703Y-42021834D01*
X174911207Y-42007410D01*
X174882273Y-41990068D01*
X174855177Y-41969972D01*
X174830182Y-41947318D01*
X174807528Y-41922323D01*
X174787432Y-41895227D01*
X174770090Y-41866293D01*
X174755666Y-41835797D01*
X174744302Y-41804035D01*
X174736105Y-41771312D01*
X174731155Y-41737943D01*
X174729500Y-41704250D01*
X174729500Y-40591750D01*
X174731155Y-40558057D01*
X174736105Y-40524688D01*
X174744302Y-40491965D01*
X174755666Y-40460203D01*
X174770090Y-40429707D01*
X174787432Y-40400773D01*
X174807528Y-40373677D01*
X174830182Y-40348682D01*
X174855177Y-40326028D01*
X174882273Y-40305932D01*
X174911207Y-40288590D01*
X174941703Y-40274166D01*
X174973465Y-40262802D01*
X175006188Y-40254605D01*
X175039557Y-40249655D01*
X175073250Y-40248000D01*
X175760750Y-40248000D01*
X175794443Y-40249655D01*
X175794443Y-40249655D01*
G37*
D18*
X175417000Y-41148000D03*
G04 #@! TD*
D17*
G04 #@! TO.C,R13*
G36*
X177669443Y-43297655D02*
X177702812Y-43302605D01*
X177735535Y-43310802D01*
X177767297Y-43322166D01*
X177797793Y-43336590D01*
X177826727Y-43353932D01*
X177853823Y-43374028D01*
X177878818Y-43396682D01*
X177901472Y-43421677D01*
X177921568Y-43448773D01*
X177938910Y-43477707D01*
X177953334Y-43508203D01*
X177964698Y-43539965D01*
X177972895Y-43572688D01*
X177977845Y-43606057D01*
X177979500Y-43639750D01*
X177979500Y-44752250D01*
X177977845Y-44785943D01*
X177972895Y-44819312D01*
X177964698Y-44852035D01*
X177953334Y-44883797D01*
X177938910Y-44914293D01*
X177921568Y-44943227D01*
X177901472Y-44970323D01*
X177878818Y-44995318D01*
X177853823Y-45017972D01*
X177826727Y-45038068D01*
X177797793Y-45055410D01*
X177767297Y-45069834D01*
X177735535Y-45081198D01*
X177702812Y-45089395D01*
X177669443Y-45094345D01*
X177635750Y-45096000D01*
X176948250Y-45096000D01*
X176914557Y-45094345D01*
X176881188Y-45089395D01*
X176848465Y-45081198D01*
X176816703Y-45069834D01*
X176786207Y-45055410D01*
X176757273Y-45038068D01*
X176730177Y-45017972D01*
X176705182Y-44995318D01*
X176682528Y-44970323D01*
X176662432Y-44943227D01*
X176645090Y-44914293D01*
X176630666Y-44883797D01*
X176619302Y-44852035D01*
X176611105Y-44819312D01*
X176606155Y-44785943D01*
X176604500Y-44752250D01*
X176604500Y-43639750D01*
X176606155Y-43606057D01*
X176611105Y-43572688D01*
X176619302Y-43539965D01*
X176630666Y-43508203D01*
X176645090Y-43477707D01*
X176662432Y-43448773D01*
X176682528Y-43421677D01*
X176705182Y-43396682D01*
X176730177Y-43374028D01*
X176757273Y-43353932D01*
X176786207Y-43336590D01*
X176816703Y-43322166D01*
X176848465Y-43310802D01*
X176881188Y-43302605D01*
X176914557Y-43297655D01*
X176948250Y-43296000D01*
X177635750Y-43296000D01*
X177669443Y-43297655D01*
X177669443Y-43297655D01*
G37*
D18*
X177292000Y-44196000D03*
D17*
G36*
X175794443Y-43297655D02*
X175827812Y-43302605D01*
X175860535Y-43310802D01*
X175892297Y-43322166D01*
X175922793Y-43336590D01*
X175951727Y-43353932D01*
X175978823Y-43374028D01*
X176003818Y-43396682D01*
X176026472Y-43421677D01*
X176046568Y-43448773D01*
X176063910Y-43477707D01*
X176078334Y-43508203D01*
X176089698Y-43539965D01*
X176097895Y-43572688D01*
X176102845Y-43606057D01*
X176104500Y-43639750D01*
X176104500Y-44752250D01*
X176102845Y-44785943D01*
X176097895Y-44819312D01*
X176089698Y-44852035D01*
X176078334Y-44883797D01*
X176063910Y-44914293D01*
X176046568Y-44943227D01*
X176026472Y-44970323D01*
X176003818Y-44995318D01*
X175978823Y-45017972D01*
X175951727Y-45038068D01*
X175922793Y-45055410D01*
X175892297Y-45069834D01*
X175860535Y-45081198D01*
X175827812Y-45089395D01*
X175794443Y-45094345D01*
X175760750Y-45096000D01*
X175073250Y-45096000D01*
X175039557Y-45094345D01*
X175006188Y-45089395D01*
X174973465Y-45081198D01*
X174941703Y-45069834D01*
X174911207Y-45055410D01*
X174882273Y-45038068D01*
X174855177Y-45017972D01*
X174830182Y-44995318D01*
X174807528Y-44970323D01*
X174787432Y-44943227D01*
X174770090Y-44914293D01*
X174755666Y-44883797D01*
X174744302Y-44852035D01*
X174736105Y-44819312D01*
X174731155Y-44785943D01*
X174729500Y-44752250D01*
X174729500Y-43639750D01*
X174731155Y-43606057D01*
X174736105Y-43572688D01*
X174744302Y-43539965D01*
X174755666Y-43508203D01*
X174770090Y-43477707D01*
X174787432Y-43448773D01*
X174807528Y-43421677D01*
X174830182Y-43396682D01*
X174855177Y-43374028D01*
X174882273Y-43353932D01*
X174911207Y-43336590D01*
X174941703Y-43322166D01*
X174973465Y-43310802D01*
X175006188Y-43302605D01*
X175039557Y-43297655D01*
X175073250Y-43296000D01*
X175760750Y-43296000D01*
X175794443Y-43297655D01*
X175794443Y-43297655D01*
G37*
D18*
X175417000Y-44196000D03*
G04 #@! TD*
D17*
G04 #@! TO.C,R15*
G36*
X175794443Y-50409655D02*
X175827812Y-50414605D01*
X175860535Y-50422802D01*
X175892297Y-50434166D01*
X175922793Y-50448590D01*
X175951727Y-50465932D01*
X175978823Y-50486028D01*
X176003818Y-50508682D01*
X176026472Y-50533677D01*
X176046568Y-50560773D01*
X176063910Y-50589707D01*
X176078334Y-50620203D01*
X176089698Y-50651965D01*
X176097895Y-50684688D01*
X176102845Y-50718057D01*
X176104500Y-50751750D01*
X176104500Y-51864250D01*
X176102845Y-51897943D01*
X176097895Y-51931312D01*
X176089698Y-51964035D01*
X176078334Y-51995797D01*
X176063910Y-52026293D01*
X176046568Y-52055227D01*
X176026472Y-52082323D01*
X176003818Y-52107318D01*
X175978823Y-52129972D01*
X175951727Y-52150068D01*
X175922793Y-52167410D01*
X175892297Y-52181834D01*
X175860535Y-52193198D01*
X175827812Y-52201395D01*
X175794443Y-52206345D01*
X175760750Y-52208000D01*
X175073250Y-52208000D01*
X175039557Y-52206345D01*
X175006188Y-52201395D01*
X174973465Y-52193198D01*
X174941703Y-52181834D01*
X174911207Y-52167410D01*
X174882273Y-52150068D01*
X174855177Y-52129972D01*
X174830182Y-52107318D01*
X174807528Y-52082323D01*
X174787432Y-52055227D01*
X174770090Y-52026293D01*
X174755666Y-51995797D01*
X174744302Y-51964035D01*
X174736105Y-51931312D01*
X174731155Y-51897943D01*
X174729500Y-51864250D01*
X174729500Y-50751750D01*
X174731155Y-50718057D01*
X174736105Y-50684688D01*
X174744302Y-50651965D01*
X174755666Y-50620203D01*
X174770090Y-50589707D01*
X174787432Y-50560773D01*
X174807528Y-50533677D01*
X174830182Y-50508682D01*
X174855177Y-50486028D01*
X174882273Y-50465932D01*
X174911207Y-50448590D01*
X174941703Y-50434166D01*
X174973465Y-50422802D01*
X175006188Y-50414605D01*
X175039557Y-50409655D01*
X175073250Y-50408000D01*
X175760750Y-50408000D01*
X175794443Y-50409655D01*
X175794443Y-50409655D01*
G37*
D18*
X175417000Y-51308000D03*
D17*
G36*
X177669443Y-50409655D02*
X177702812Y-50414605D01*
X177735535Y-50422802D01*
X177767297Y-50434166D01*
X177797793Y-50448590D01*
X177826727Y-50465932D01*
X177853823Y-50486028D01*
X177878818Y-50508682D01*
X177901472Y-50533677D01*
X177921568Y-50560773D01*
X177938910Y-50589707D01*
X177953334Y-50620203D01*
X177964698Y-50651965D01*
X177972895Y-50684688D01*
X177977845Y-50718057D01*
X177979500Y-50751750D01*
X177979500Y-51864250D01*
X177977845Y-51897943D01*
X177972895Y-51931312D01*
X177964698Y-51964035D01*
X177953334Y-51995797D01*
X177938910Y-52026293D01*
X177921568Y-52055227D01*
X177901472Y-52082323D01*
X177878818Y-52107318D01*
X177853823Y-52129972D01*
X177826727Y-52150068D01*
X177797793Y-52167410D01*
X177767297Y-52181834D01*
X177735535Y-52193198D01*
X177702812Y-52201395D01*
X177669443Y-52206345D01*
X177635750Y-52208000D01*
X176948250Y-52208000D01*
X176914557Y-52206345D01*
X176881188Y-52201395D01*
X176848465Y-52193198D01*
X176816703Y-52181834D01*
X176786207Y-52167410D01*
X176757273Y-52150068D01*
X176730177Y-52129972D01*
X176705182Y-52107318D01*
X176682528Y-52082323D01*
X176662432Y-52055227D01*
X176645090Y-52026293D01*
X176630666Y-51995797D01*
X176619302Y-51964035D01*
X176611105Y-51931312D01*
X176606155Y-51897943D01*
X176604500Y-51864250D01*
X176604500Y-50751750D01*
X176606155Y-50718057D01*
X176611105Y-50684688D01*
X176619302Y-50651965D01*
X176630666Y-50620203D01*
X176645090Y-50589707D01*
X176662432Y-50560773D01*
X176682528Y-50533677D01*
X176705182Y-50508682D01*
X176730177Y-50486028D01*
X176757273Y-50465932D01*
X176786207Y-50448590D01*
X176816703Y-50434166D01*
X176848465Y-50422802D01*
X176881188Y-50414605D01*
X176914557Y-50409655D01*
X176948250Y-50408000D01*
X177635750Y-50408000D01*
X177669443Y-50409655D01*
X177669443Y-50409655D01*
G37*
D18*
X177292000Y-51308000D03*
G04 #@! TD*
D17*
G04 #@! TO.C,R16*
G36*
X209885943Y-39603155D02*
X209919312Y-39608105D01*
X209952035Y-39616302D01*
X209983797Y-39627666D01*
X210014293Y-39642090D01*
X210043227Y-39659432D01*
X210070323Y-39679528D01*
X210095318Y-39702182D01*
X210117972Y-39727177D01*
X210138068Y-39754273D01*
X210155410Y-39783207D01*
X210169834Y-39813703D01*
X210181198Y-39845465D01*
X210189395Y-39878188D01*
X210194345Y-39911557D01*
X210196000Y-39945250D01*
X210196000Y-40632750D01*
X210194345Y-40666443D01*
X210189395Y-40699812D01*
X210181198Y-40732535D01*
X210169834Y-40764297D01*
X210155410Y-40794793D01*
X210138068Y-40823727D01*
X210117972Y-40850823D01*
X210095318Y-40875818D01*
X210070323Y-40898472D01*
X210043227Y-40918568D01*
X210014293Y-40935910D01*
X209983797Y-40950334D01*
X209952035Y-40961698D01*
X209919312Y-40969895D01*
X209885943Y-40974845D01*
X209852250Y-40976500D01*
X208739750Y-40976500D01*
X208706057Y-40974845D01*
X208672688Y-40969895D01*
X208639965Y-40961698D01*
X208608203Y-40950334D01*
X208577707Y-40935910D01*
X208548773Y-40918568D01*
X208521677Y-40898472D01*
X208496682Y-40875818D01*
X208474028Y-40850823D01*
X208453932Y-40823727D01*
X208436590Y-40794793D01*
X208422166Y-40764297D01*
X208410802Y-40732535D01*
X208402605Y-40699812D01*
X208397655Y-40666443D01*
X208396000Y-40632750D01*
X208396000Y-39945250D01*
X208397655Y-39911557D01*
X208402605Y-39878188D01*
X208410802Y-39845465D01*
X208422166Y-39813703D01*
X208436590Y-39783207D01*
X208453932Y-39754273D01*
X208474028Y-39727177D01*
X208496682Y-39702182D01*
X208521677Y-39679528D01*
X208548773Y-39659432D01*
X208577707Y-39642090D01*
X208608203Y-39627666D01*
X208639965Y-39616302D01*
X208672688Y-39608105D01*
X208706057Y-39603155D01*
X208739750Y-39601500D01*
X209852250Y-39601500D01*
X209885943Y-39603155D01*
X209885943Y-39603155D01*
G37*
D18*
X209296000Y-40289000D03*
D17*
G36*
X209885943Y-41478155D02*
X209919312Y-41483105D01*
X209952035Y-41491302D01*
X209983797Y-41502666D01*
X210014293Y-41517090D01*
X210043227Y-41534432D01*
X210070323Y-41554528D01*
X210095318Y-41577182D01*
X210117972Y-41602177D01*
X210138068Y-41629273D01*
X210155410Y-41658207D01*
X210169834Y-41688703D01*
X210181198Y-41720465D01*
X210189395Y-41753188D01*
X210194345Y-41786557D01*
X210196000Y-41820250D01*
X210196000Y-42507750D01*
X210194345Y-42541443D01*
X210189395Y-42574812D01*
X210181198Y-42607535D01*
X210169834Y-42639297D01*
X210155410Y-42669793D01*
X210138068Y-42698727D01*
X210117972Y-42725823D01*
X210095318Y-42750818D01*
X210070323Y-42773472D01*
X210043227Y-42793568D01*
X210014293Y-42810910D01*
X209983797Y-42825334D01*
X209952035Y-42836698D01*
X209919312Y-42844895D01*
X209885943Y-42849845D01*
X209852250Y-42851500D01*
X208739750Y-42851500D01*
X208706057Y-42849845D01*
X208672688Y-42844895D01*
X208639965Y-42836698D01*
X208608203Y-42825334D01*
X208577707Y-42810910D01*
X208548773Y-42793568D01*
X208521677Y-42773472D01*
X208496682Y-42750818D01*
X208474028Y-42725823D01*
X208453932Y-42698727D01*
X208436590Y-42669793D01*
X208422166Y-42639297D01*
X208410802Y-42607535D01*
X208402605Y-42574812D01*
X208397655Y-42541443D01*
X208396000Y-42507750D01*
X208396000Y-41820250D01*
X208397655Y-41786557D01*
X208402605Y-41753188D01*
X208410802Y-41720465D01*
X208422166Y-41688703D01*
X208436590Y-41658207D01*
X208453932Y-41629273D01*
X208474028Y-41602177D01*
X208496682Y-41577182D01*
X208521677Y-41554528D01*
X208548773Y-41534432D01*
X208577707Y-41517090D01*
X208608203Y-41502666D01*
X208639965Y-41491302D01*
X208672688Y-41483105D01*
X208706057Y-41478155D01*
X208739750Y-41476500D01*
X209852250Y-41476500D01*
X209885943Y-41478155D01*
X209885943Y-41478155D01*
G37*
D18*
X209296000Y-42164000D03*
G04 #@! TD*
D17*
G04 #@! TO.C,R17*
G36*
X211917943Y-41478155D02*
X211951312Y-41483105D01*
X211984035Y-41491302D01*
X212015797Y-41502666D01*
X212046293Y-41517090D01*
X212075227Y-41534432D01*
X212102323Y-41554528D01*
X212127318Y-41577182D01*
X212149972Y-41602177D01*
X212170068Y-41629273D01*
X212187410Y-41658207D01*
X212201834Y-41688703D01*
X212213198Y-41720465D01*
X212221395Y-41753188D01*
X212226345Y-41786557D01*
X212228000Y-41820250D01*
X212228000Y-42507750D01*
X212226345Y-42541443D01*
X212221395Y-42574812D01*
X212213198Y-42607535D01*
X212201834Y-42639297D01*
X212187410Y-42669793D01*
X212170068Y-42698727D01*
X212149972Y-42725823D01*
X212127318Y-42750818D01*
X212102323Y-42773472D01*
X212075227Y-42793568D01*
X212046293Y-42810910D01*
X212015797Y-42825334D01*
X211984035Y-42836698D01*
X211951312Y-42844895D01*
X211917943Y-42849845D01*
X211884250Y-42851500D01*
X210771750Y-42851500D01*
X210738057Y-42849845D01*
X210704688Y-42844895D01*
X210671965Y-42836698D01*
X210640203Y-42825334D01*
X210609707Y-42810910D01*
X210580773Y-42793568D01*
X210553677Y-42773472D01*
X210528682Y-42750818D01*
X210506028Y-42725823D01*
X210485932Y-42698727D01*
X210468590Y-42669793D01*
X210454166Y-42639297D01*
X210442802Y-42607535D01*
X210434605Y-42574812D01*
X210429655Y-42541443D01*
X210428000Y-42507750D01*
X210428000Y-41820250D01*
X210429655Y-41786557D01*
X210434605Y-41753188D01*
X210442802Y-41720465D01*
X210454166Y-41688703D01*
X210468590Y-41658207D01*
X210485932Y-41629273D01*
X210506028Y-41602177D01*
X210528682Y-41577182D01*
X210553677Y-41554528D01*
X210580773Y-41534432D01*
X210609707Y-41517090D01*
X210640203Y-41502666D01*
X210671965Y-41491302D01*
X210704688Y-41483105D01*
X210738057Y-41478155D01*
X210771750Y-41476500D01*
X211884250Y-41476500D01*
X211917943Y-41478155D01*
X211917943Y-41478155D01*
G37*
D18*
X211328000Y-42164000D03*
D17*
G36*
X211917943Y-39603155D02*
X211951312Y-39608105D01*
X211984035Y-39616302D01*
X212015797Y-39627666D01*
X212046293Y-39642090D01*
X212075227Y-39659432D01*
X212102323Y-39679528D01*
X212127318Y-39702182D01*
X212149972Y-39727177D01*
X212170068Y-39754273D01*
X212187410Y-39783207D01*
X212201834Y-39813703D01*
X212213198Y-39845465D01*
X212221395Y-39878188D01*
X212226345Y-39911557D01*
X212228000Y-39945250D01*
X212228000Y-40632750D01*
X212226345Y-40666443D01*
X212221395Y-40699812D01*
X212213198Y-40732535D01*
X212201834Y-40764297D01*
X212187410Y-40794793D01*
X212170068Y-40823727D01*
X212149972Y-40850823D01*
X212127318Y-40875818D01*
X212102323Y-40898472D01*
X212075227Y-40918568D01*
X212046293Y-40935910D01*
X212015797Y-40950334D01*
X211984035Y-40961698D01*
X211951312Y-40969895D01*
X211917943Y-40974845D01*
X211884250Y-40976500D01*
X210771750Y-40976500D01*
X210738057Y-40974845D01*
X210704688Y-40969895D01*
X210671965Y-40961698D01*
X210640203Y-40950334D01*
X210609707Y-40935910D01*
X210580773Y-40918568D01*
X210553677Y-40898472D01*
X210528682Y-40875818D01*
X210506028Y-40850823D01*
X210485932Y-40823727D01*
X210468590Y-40794793D01*
X210454166Y-40764297D01*
X210442802Y-40732535D01*
X210434605Y-40699812D01*
X210429655Y-40666443D01*
X210428000Y-40632750D01*
X210428000Y-39945250D01*
X210429655Y-39911557D01*
X210434605Y-39878188D01*
X210442802Y-39845465D01*
X210454166Y-39813703D01*
X210468590Y-39783207D01*
X210485932Y-39754273D01*
X210506028Y-39727177D01*
X210528682Y-39702182D01*
X210553677Y-39679528D01*
X210580773Y-39659432D01*
X210609707Y-39642090D01*
X210640203Y-39627666D01*
X210671965Y-39616302D01*
X210704688Y-39608105D01*
X210738057Y-39603155D01*
X210771750Y-39601500D01*
X211884250Y-39601500D01*
X211917943Y-39603155D01*
X211917943Y-39603155D01*
G37*
D18*
X211328000Y-40289000D03*
G04 #@! TD*
D17*
G04 #@! TO.C,R19*
G36*
X175794443Y-53457655D02*
X175827812Y-53462605D01*
X175860535Y-53470802D01*
X175892297Y-53482166D01*
X175922793Y-53496590D01*
X175951727Y-53513932D01*
X175978823Y-53534028D01*
X176003818Y-53556682D01*
X176026472Y-53581677D01*
X176046568Y-53608773D01*
X176063910Y-53637707D01*
X176078334Y-53668203D01*
X176089698Y-53699965D01*
X176097895Y-53732688D01*
X176102845Y-53766057D01*
X176104500Y-53799750D01*
X176104500Y-54912250D01*
X176102845Y-54945943D01*
X176097895Y-54979312D01*
X176089698Y-55012035D01*
X176078334Y-55043797D01*
X176063910Y-55074293D01*
X176046568Y-55103227D01*
X176026472Y-55130323D01*
X176003818Y-55155318D01*
X175978823Y-55177972D01*
X175951727Y-55198068D01*
X175922793Y-55215410D01*
X175892297Y-55229834D01*
X175860535Y-55241198D01*
X175827812Y-55249395D01*
X175794443Y-55254345D01*
X175760750Y-55256000D01*
X175073250Y-55256000D01*
X175039557Y-55254345D01*
X175006188Y-55249395D01*
X174973465Y-55241198D01*
X174941703Y-55229834D01*
X174911207Y-55215410D01*
X174882273Y-55198068D01*
X174855177Y-55177972D01*
X174830182Y-55155318D01*
X174807528Y-55130323D01*
X174787432Y-55103227D01*
X174770090Y-55074293D01*
X174755666Y-55043797D01*
X174744302Y-55012035D01*
X174736105Y-54979312D01*
X174731155Y-54945943D01*
X174729500Y-54912250D01*
X174729500Y-53799750D01*
X174731155Y-53766057D01*
X174736105Y-53732688D01*
X174744302Y-53699965D01*
X174755666Y-53668203D01*
X174770090Y-53637707D01*
X174787432Y-53608773D01*
X174807528Y-53581677D01*
X174830182Y-53556682D01*
X174855177Y-53534028D01*
X174882273Y-53513932D01*
X174911207Y-53496590D01*
X174941703Y-53482166D01*
X174973465Y-53470802D01*
X175006188Y-53462605D01*
X175039557Y-53457655D01*
X175073250Y-53456000D01*
X175760750Y-53456000D01*
X175794443Y-53457655D01*
X175794443Y-53457655D01*
G37*
D18*
X175417000Y-54356000D03*
D17*
G36*
X177669443Y-53457655D02*
X177702812Y-53462605D01*
X177735535Y-53470802D01*
X177767297Y-53482166D01*
X177797793Y-53496590D01*
X177826727Y-53513932D01*
X177853823Y-53534028D01*
X177878818Y-53556682D01*
X177901472Y-53581677D01*
X177921568Y-53608773D01*
X177938910Y-53637707D01*
X177953334Y-53668203D01*
X177964698Y-53699965D01*
X177972895Y-53732688D01*
X177977845Y-53766057D01*
X177979500Y-53799750D01*
X177979500Y-54912250D01*
X177977845Y-54945943D01*
X177972895Y-54979312D01*
X177964698Y-55012035D01*
X177953334Y-55043797D01*
X177938910Y-55074293D01*
X177921568Y-55103227D01*
X177901472Y-55130323D01*
X177878818Y-55155318D01*
X177853823Y-55177972D01*
X177826727Y-55198068D01*
X177797793Y-55215410D01*
X177767297Y-55229834D01*
X177735535Y-55241198D01*
X177702812Y-55249395D01*
X177669443Y-55254345D01*
X177635750Y-55256000D01*
X176948250Y-55256000D01*
X176914557Y-55254345D01*
X176881188Y-55249395D01*
X176848465Y-55241198D01*
X176816703Y-55229834D01*
X176786207Y-55215410D01*
X176757273Y-55198068D01*
X176730177Y-55177972D01*
X176705182Y-55155318D01*
X176682528Y-55130323D01*
X176662432Y-55103227D01*
X176645090Y-55074293D01*
X176630666Y-55043797D01*
X176619302Y-55012035D01*
X176611105Y-54979312D01*
X176606155Y-54945943D01*
X176604500Y-54912250D01*
X176604500Y-53799750D01*
X176606155Y-53766057D01*
X176611105Y-53732688D01*
X176619302Y-53699965D01*
X176630666Y-53668203D01*
X176645090Y-53637707D01*
X176662432Y-53608773D01*
X176682528Y-53581677D01*
X176705182Y-53556682D01*
X176730177Y-53534028D01*
X176757273Y-53513932D01*
X176786207Y-53496590D01*
X176816703Y-53482166D01*
X176848465Y-53470802D01*
X176881188Y-53462605D01*
X176914557Y-53457655D01*
X176948250Y-53456000D01*
X177635750Y-53456000D01*
X177669443Y-53457655D01*
X177669443Y-53457655D01*
G37*
D18*
X177292000Y-54356000D03*
G04 #@! TD*
D17*
G04 #@! TO.C,R20*
G36*
X214245443Y-46853655D02*
X214278812Y-46858605D01*
X214311535Y-46866802D01*
X214343297Y-46878166D01*
X214373793Y-46892590D01*
X214402727Y-46909932D01*
X214429823Y-46930028D01*
X214454818Y-46952682D01*
X214477472Y-46977677D01*
X214497568Y-47004773D01*
X214514910Y-47033707D01*
X214529334Y-47064203D01*
X214540698Y-47095965D01*
X214548895Y-47128688D01*
X214553845Y-47162057D01*
X214555500Y-47195750D01*
X214555500Y-48308250D01*
X214553845Y-48341943D01*
X214548895Y-48375312D01*
X214540698Y-48408035D01*
X214529334Y-48439797D01*
X214514910Y-48470293D01*
X214497568Y-48499227D01*
X214477472Y-48526323D01*
X214454818Y-48551318D01*
X214429823Y-48573972D01*
X214402727Y-48594068D01*
X214373793Y-48611410D01*
X214343297Y-48625834D01*
X214311535Y-48637198D01*
X214278812Y-48645395D01*
X214245443Y-48650345D01*
X214211750Y-48652000D01*
X213524250Y-48652000D01*
X213490557Y-48650345D01*
X213457188Y-48645395D01*
X213424465Y-48637198D01*
X213392703Y-48625834D01*
X213362207Y-48611410D01*
X213333273Y-48594068D01*
X213306177Y-48573972D01*
X213281182Y-48551318D01*
X213258528Y-48526323D01*
X213238432Y-48499227D01*
X213221090Y-48470293D01*
X213206666Y-48439797D01*
X213195302Y-48408035D01*
X213187105Y-48375312D01*
X213182155Y-48341943D01*
X213180500Y-48308250D01*
X213180500Y-47195750D01*
X213182155Y-47162057D01*
X213187105Y-47128688D01*
X213195302Y-47095965D01*
X213206666Y-47064203D01*
X213221090Y-47033707D01*
X213238432Y-47004773D01*
X213258528Y-46977677D01*
X213281182Y-46952682D01*
X213306177Y-46930028D01*
X213333273Y-46909932D01*
X213362207Y-46892590D01*
X213392703Y-46878166D01*
X213424465Y-46866802D01*
X213457188Y-46858605D01*
X213490557Y-46853655D01*
X213524250Y-46852000D01*
X214211750Y-46852000D01*
X214245443Y-46853655D01*
X214245443Y-46853655D01*
G37*
D18*
X213868000Y-47752000D03*
D17*
G36*
X216120443Y-46853655D02*
X216153812Y-46858605D01*
X216186535Y-46866802D01*
X216218297Y-46878166D01*
X216248793Y-46892590D01*
X216277727Y-46909932D01*
X216304823Y-46930028D01*
X216329818Y-46952682D01*
X216352472Y-46977677D01*
X216372568Y-47004773D01*
X216389910Y-47033707D01*
X216404334Y-47064203D01*
X216415698Y-47095965D01*
X216423895Y-47128688D01*
X216428845Y-47162057D01*
X216430500Y-47195750D01*
X216430500Y-48308250D01*
X216428845Y-48341943D01*
X216423895Y-48375312D01*
X216415698Y-48408035D01*
X216404334Y-48439797D01*
X216389910Y-48470293D01*
X216372568Y-48499227D01*
X216352472Y-48526323D01*
X216329818Y-48551318D01*
X216304823Y-48573972D01*
X216277727Y-48594068D01*
X216248793Y-48611410D01*
X216218297Y-48625834D01*
X216186535Y-48637198D01*
X216153812Y-48645395D01*
X216120443Y-48650345D01*
X216086750Y-48652000D01*
X215399250Y-48652000D01*
X215365557Y-48650345D01*
X215332188Y-48645395D01*
X215299465Y-48637198D01*
X215267703Y-48625834D01*
X215237207Y-48611410D01*
X215208273Y-48594068D01*
X215181177Y-48573972D01*
X215156182Y-48551318D01*
X215133528Y-48526323D01*
X215113432Y-48499227D01*
X215096090Y-48470293D01*
X215081666Y-48439797D01*
X215070302Y-48408035D01*
X215062105Y-48375312D01*
X215057155Y-48341943D01*
X215055500Y-48308250D01*
X215055500Y-47195750D01*
X215057155Y-47162057D01*
X215062105Y-47128688D01*
X215070302Y-47095965D01*
X215081666Y-47064203D01*
X215096090Y-47033707D01*
X215113432Y-47004773D01*
X215133528Y-46977677D01*
X215156182Y-46952682D01*
X215181177Y-46930028D01*
X215208273Y-46909932D01*
X215237207Y-46892590D01*
X215267703Y-46878166D01*
X215299465Y-46866802D01*
X215332188Y-46858605D01*
X215365557Y-46853655D01*
X215399250Y-46852000D01*
X216086750Y-46852000D01*
X216120443Y-46853655D01*
X216120443Y-46853655D01*
G37*
D18*
X215743000Y-47752000D03*
G04 #@! TD*
D17*
G04 #@! TO.C,R22*
G36*
X177669443Y-56505655D02*
X177702812Y-56510605D01*
X177735535Y-56518802D01*
X177767297Y-56530166D01*
X177797793Y-56544590D01*
X177826727Y-56561932D01*
X177853823Y-56582028D01*
X177878818Y-56604682D01*
X177901472Y-56629677D01*
X177921568Y-56656773D01*
X177938910Y-56685707D01*
X177953334Y-56716203D01*
X177964698Y-56747965D01*
X177972895Y-56780688D01*
X177977845Y-56814057D01*
X177979500Y-56847750D01*
X177979500Y-57960250D01*
X177977845Y-57993943D01*
X177972895Y-58027312D01*
X177964698Y-58060035D01*
X177953334Y-58091797D01*
X177938910Y-58122293D01*
X177921568Y-58151227D01*
X177901472Y-58178323D01*
X177878818Y-58203318D01*
X177853823Y-58225972D01*
X177826727Y-58246068D01*
X177797793Y-58263410D01*
X177767297Y-58277834D01*
X177735535Y-58289198D01*
X177702812Y-58297395D01*
X177669443Y-58302345D01*
X177635750Y-58304000D01*
X176948250Y-58304000D01*
X176914557Y-58302345D01*
X176881188Y-58297395D01*
X176848465Y-58289198D01*
X176816703Y-58277834D01*
X176786207Y-58263410D01*
X176757273Y-58246068D01*
X176730177Y-58225972D01*
X176705182Y-58203318D01*
X176682528Y-58178323D01*
X176662432Y-58151227D01*
X176645090Y-58122293D01*
X176630666Y-58091797D01*
X176619302Y-58060035D01*
X176611105Y-58027312D01*
X176606155Y-57993943D01*
X176604500Y-57960250D01*
X176604500Y-56847750D01*
X176606155Y-56814057D01*
X176611105Y-56780688D01*
X176619302Y-56747965D01*
X176630666Y-56716203D01*
X176645090Y-56685707D01*
X176662432Y-56656773D01*
X176682528Y-56629677D01*
X176705182Y-56604682D01*
X176730177Y-56582028D01*
X176757273Y-56561932D01*
X176786207Y-56544590D01*
X176816703Y-56530166D01*
X176848465Y-56518802D01*
X176881188Y-56510605D01*
X176914557Y-56505655D01*
X176948250Y-56504000D01*
X177635750Y-56504000D01*
X177669443Y-56505655D01*
X177669443Y-56505655D01*
G37*
D18*
X177292000Y-57404000D03*
D17*
G36*
X175794443Y-56505655D02*
X175827812Y-56510605D01*
X175860535Y-56518802D01*
X175892297Y-56530166D01*
X175922793Y-56544590D01*
X175951727Y-56561932D01*
X175978823Y-56582028D01*
X176003818Y-56604682D01*
X176026472Y-56629677D01*
X176046568Y-56656773D01*
X176063910Y-56685707D01*
X176078334Y-56716203D01*
X176089698Y-56747965D01*
X176097895Y-56780688D01*
X176102845Y-56814057D01*
X176104500Y-56847750D01*
X176104500Y-57960250D01*
X176102845Y-57993943D01*
X176097895Y-58027312D01*
X176089698Y-58060035D01*
X176078334Y-58091797D01*
X176063910Y-58122293D01*
X176046568Y-58151227D01*
X176026472Y-58178323D01*
X176003818Y-58203318D01*
X175978823Y-58225972D01*
X175951727Y-58246068D01*
X175922793Y-58263410D01*
X175892297Y-58277834D01*
X175860535Y-58289198D01*
X175827812Y-58297395D01*
X175794443Y-58302345D01*
X175760750Y-58304000D01*
X175073250Y-58304000D01*
X175039557Y-58302345D01*
X175006188Y-58297395D01*
X174973465Y-58289198D01*
X174941703Y-58277834D01*
X174911207Y-58263410D01*
X174882273Y-58246068D01*
X174855177Y-58225972D01*
X174830182Y-58203318D01*
X174807528Y-58178323D01*
X174787432Y-58151227D01*
X174770090Y-58122293D01*
X174755666Y-58091797D01*
X174744302Y-58060035D01*
X174736105Y-58027312D01*
X174731155Y-57993943D01*
X174729500Y-57960250D01*
X174729500Y-56847750D01*
X174731155Y-56814057D01*
X174736105Y-56780688D01*
X174744302Y-56747965D01*
X174755666Y-56716203D01*
X174770090Y-56685707D01*
X174787432Y-56656773D01*
X174807528Y-56629677D01*
X174830182Y-56604682D01*
X174855177Y-56582028D01*
X174882273Y-56561932D01*
X174911207Y-56544590D01*
X174941703Y-56530166D01*
X174973465Y-56518802D01*
X175006188Y-56510605D01*
X175039557Y-56505655D01*
X175073250Y-56504000D01*
X175760750Y-56504000D01*
X175794443Y-56505655D01*
X175794443Y-56505655D01*
G37*
D18*
X175417000Y-57404000D03*
G04 #@! TD*
D17*
G04 #@! TO.C,R23*
G36*
X214245443Y-48885655D02*
X214278812Y-48890605D01*
X214311535Y-48898802D01*
X214343297Y-48910166D01*
X214373793Y-48924590D01*
X214402727Y-48941932D01*
X214429823Y-48962028D01*
X214454818Y-48984682D01*
X214477472Y-49009677D01*
X214497568Y-49036773D01*
X214514910Y-49065707D01*
X214529334Y-49096203D01*
X214540698Y-49127965D01*
X214548895Y-49160688D01*
X214553845Y-49194057D01*
X214555500Y-49227750D01*
X214555500Y-50340250D01*
X214553845Y-50373943D01*
X214548895Y-50407312D01*
X214540698Y-50440035D01*
X214529334Y-50471797D01*
X214514910Y-50502293D01*
X214497568Y-50531227D01*
X214477472Y-50558323D01*
X214454818Y-50583318D01*
X214429823Y-50605972D01*
X214402727Y-50626068D01*
X214373793Y-50643410D01*
X214343297Y-50657834D01*
X214311535Y-50669198D01*
X214278812Y-50677395D01*
X214245443Y-50682345D01*
X214211750Y-50684000D01*
X213524250Y-50684000D01*
X213490557Y-50682345D01*
X213457188Y-50677395D01*
X213424465Y-50669198D01*
X213392703Y-50657834D01*
X213362207Y-50643410D01*
X213333273Y-50626068D01*
X213306177Y-50605972D01*
X213281182Y-50583318D01*
X213258528Y-50558323D01*
X213238432Y-50531227D01*
X213221090Y-50502293D01*
X213206666Y-50471797D01*
X213195302Y-50440035D01*
X213187105Y-50407312D01*
X213182155Y-50373943D01*
X213180500Y-50340250D01*
X213180500Y-49227750D01*
X213182155Y-49194057D01*
X213187105Y-49160688D01*
X213195302Y-49127965D01*
X213206666Y-49096203D01*
X213221090Y-49065707D01*
X213238432Y-49036773D01*
X213258528Y-49009677D01*
X213281182Y-48984682D01*
X213306177Y-48962028D01*
X213333273Y-48941932D01*
X213362207Y-48924590D01*
X213392703Y-48910166D01*
X213424465Y-48898802D01*
X213457188Y-48890605D01*
X213490557Y-48885655D01*
X213524250Y-48884000D01*
X214211750Y-48884000D01*
X214245443Y-48885655D01*
X214245443Y-48885655D01*
G37*
D18*
X213868000Y-49784000D03*
D17*
G36*
X216120443Y-48885655D02*
X216153812Y-48890605D01*
X216186535Y-48898802D01*
X216218297Y-48910166D01*
X216248793Y-48924590D01*
X216277727Y-48941932D01*
X216304823Y-48962028D01*
X216329818Y-48984682D01*
X216352472Y-49009677D01*
X216372568Y-49036773D01*
X216389910Y-49065707D01*
X216404334Y-49096203D01*
X216415698Y-49127965D01*
X216423895Y-49160688D01*
X216428845Y-49194057D01*
X216430500Y-49227750D01*
X216430500Y-50340250D01*
X216428845Y-50373943D01*
X216423895Y-50407312D01*
X216415698Y-50440035D01*
X216404334Y-50471797D01*
X216389910Y-50502293D01*
X216372568Y-50531227D01*
X216352472Y-50558323D01*
X216329818Y-50583318D01*
X216304823Y-50605972D01*
X216277727Y-50626068D01*
X216248793Y-50643410D01*
X216218297Y-50657834D01*
X216186535Y-50669198D01*
X216153812Y-50677395D01*
X216120443Y-50682345D01*
X216086750Y-50684000D01*
X215399250Y-50684000D01*
X215365557Y-50682345D01*
X215332188Y-50677395D01*
X215299465Y-50669198D01*
X215267703Y-50657834D01*
X215237207Y-50643410D01*
X215208273Y-50626068D01*
X215181177Y-50605972D01*
X215156182Y-50583318D01*
X215133528Y-50558323D01*
X215113432Y-50531227D01*
X215096090Y-50502293D01*
X215081666Y-50471797D01*
X215070302Y-50440035D01*
X215062105Y-50407312D01*
X215057155Y-50373943D01*
X215055500Y-50340250D01*
X215055500Y-49227750D01*
X215057155Y-49194057D01*
X215062105Y-49160688D01*
X215070302Y-49127965D01*
X215081666Y-49096203D01*
X215096090Y-49065707D01*
X215113432Y-49036773D01*
X215133528Y-49009677D01*
X215156182Y-48984682D01*
X215181177Y-48962028D01*
X215208273Y-48941932D01*
X215237207Y-48924590D01*
X215267703Y-48910166D01*
X215299465Y-48898802D01*
X215332188Y-48890605D01*
X215365557Y-48885655D01*
X215399250Y-48884000D01*
X216086750Y-48884000D01*
X216120443Y-48885655D01*
X216120443Y-48885655D01*
G37*
D18*
X215743000Y-49784000D03*
G04 #@! TD*
D17*
G04 #@! TO.C,R24*
G36*
X215261443Y-59553655D02*
X215294812Y-59558605D01*
X215327535Y-59566802D01*
X215359297Y-59578166D01*
X215389793Y-59592590D01*
X215418727Y-59609932D01*
X215445823Y-59630028D01*
X215470818Y-59652682D01*
X215493472Y-59677677D01*
X215513568Y-59704773D01*
X215530910Y-59733707D01*
X215545334Y-59764203D01*
X215556698Y-59795965D01*
X215564895Y-59828688D01*
X215569845Y-59862057D01*
X215571500Y-59895750D01*
X215571500Y-61008250D01*
X215569845Y-61041943D01*
X215564895Y-61075312D01*
X215556698Y-61108035D01*
X215545334Y-61139797D01*
X215530910Y-61170293D01*
X215513568Y-61199227D01*
X215493472Y-61226323D01*
X215470818Y-61251318D01*
X215445823Y-61273972D01*
X215418727Y-61294068D01*
X215389793Y-61311410D01*
X215359297Y-61325834D01*
X215327535Y-61337198D01*
X215294812Y-61345395D01*
X215261443Y-61350345D01*
X215227750Y-61352000D01*
X214540250Y-61352000D01*
X214506557Y-61350345D01*
X214473188Y-61345395D01*
X214440465Y-61337198D01*
X214408703Y-61325834D01*
X214378207Y-61311410D01*
X214349273Y-61294068D01*
X214322177Y-61273972D01*
X214297182Y-61251318D01*
X214274528Y-61226323D01*
X214254432Y-61199227D01*
X214237090Y-61170293D01*
X214222666Y-61139797D01*
X214211302Y-61108035D01*
X214203105Y-61075312D01*
X214198155Y-61041943D01*
X214196500Y-61008250D01*
X214196500Y-59895750D01*
X214198155Y-59862057D01*
X214203105Y-59828688D01*
X214211302Y-59795965D01*
X214222666Y-59764203D01*
X214237090Y-59733707D01*
X214254432Y-59704773D01*
X214274528Y-59677677D01*
X214297182Y-59652682D01*
X214322177Y-59630028D01*
X214349273Y-59609932D01*
X214378207Y-59592590D01*
X214408703Y-59578166D01*
X214440465Y-59566802D01*
X214473188Y-59558605D01*
X214506557Y-59553655D01*
X214540250Y-59552000D01*
X215227750Y-59552000D01*
X215261443Y-59553655D01*
X215261443Y-59553655D01*
G37*
D18*
X214884000Y-60452000D03*
D17*
G36*
X217136443Y-59553655D02*
X217169812Y-59558605D01*
X217202535Y-59566802D01*
X217234297Y-59578166D01*
X217264793Y-59592590D01*
X217293727Y-59609932D01*
X217320823Y-59630028D01*
X217345818Y-59652682D01*
X217368472Y-59677677D01*
X217388568Y-59704773D01*
X217405910Y-59733707D01*
X217420334Y-59764203D01*
X217431698Y-59795965D01*
X217439895Y-59828688D01*
X217444845Y-59862057D01*
X217446500Y-59895750D01*
X217446500Y-61008250D01*
X217444845Y-61041943D01*
X217439895Y-61075312D01*
X217431698Y-61108035D01*
X217420334Y-61139797D01*
X217405910Y-61170293D01*
X217388568Y-61199227D01*
X217368472Y-61226323D01*
X217345818Y-61251318D01*
X217320823Y-61273972D01*
X217293727Y-61294068D01*
X217264793Y-61311410D01*
X217234297Y-61325834D01*
X217202535Y-61337198D01*
X217169812Y-61345395D01*
X217136443Y-61350345D01*
X217102750Y-61352000D01*
X216415250Y-61352000D01*
X216381557Y-61350345D01*
X216348188Y-61345395D01*
X216315465Y-61337198D01*
X216283703Y-61325834D01*
X216253207Y-61311410D01*
X216224273Y-61294068D01*
X216197177Y-61273972D01*
X216172182Y-61251318D01*
X216149528Y-61226323D01*
X216129432Y-61199227D01*
X216112090Y-61170293D01*
X216097666Y-61139797D01*
X216086302Y-61108035D01*
X216078105Y-61075312D01*
X216073155Y-61041943D01*
X216071500Y-61008250D01*
X216071500Y-59895750D01*
X216073155Y-59862057D01*
X216078105Y-59828688D01*
X216086302Y-59795965D01*
X216097666Y-59764203D01*
X216112090Y-59733707D01*
X216129432Y-59704773D01*
X216149528Y-59677677D01*
X216172182Y-59652682D01*
X216197177Y-59630028D01*
X216224273Y-59609932D01*
X216253207Y-59592590D01*
X216283703Y-59578166D01*
X216315465Y-59566802D01*
X216348188Y-59558605D01*
X216381557Y-59553655D01*
X216415250Y-59552000D01*
X217102750Y-59552000D01*
X217136443Y-59553655D01*
X217136443Y-59553655D01*
G37*
D18*
X216759000Y-60452000D03*
G04 #@! TD*
D17*
G04 #@! TO.C,R26*
G36*
X175794443Y-59553655D02*
X175827812Y-59558605D01*
X175860535Y-59566802D01*
X175892297Y-59578166D01*
X175922793Y-59592590D01*
X175951727Y-59609932D01*
X175978823Y-59630028D01*
X176003818Y-59652682D01*
X176026472Y-59677677D01*
X176046568Y-59704773D01*
X176063910Y-59733707D01*
X176078334Y-59764203D01*
X176089698Y-59795965D01*
X176097895Y-59828688D01*
X176102845Y-59862057D01*
X176104500Y-59895750D01*
X176104500Y-61008250D01*
X176102845Y-61041943D01*
X176097895Y-61075312D01*
X176089698Y-61108035D01*
X176078334Y-61139797D01*
X176063910Y-61170293D01*
X176046568Y-61199227D01*
X176026472Y-61226323D01*
X176003818Y-61251318D01*
X175978823Y-61273972D01*
X175951727Y-61294068D01*
X175922793Y-61311410D01*
X175892297Y-61325834D01*
X175860535Y-61337198D01*
X175827812Y-61345395D01*
X175794443Y-61350345D01*
X175760750Y-61352000D01*
X175073250Y-61352000D01*
X175039557Y-61350345D01*
X175006188Y-61345395D01*
X174973465Y-61337198D01*
X174941703Y-61325834D01*
X174911207Y-61311410D01*
X174882273Y-61294068D01*
X174855177Y-61273972D01*
X174830182Y-61251318D01*
X174807528Y-61226323D01*
X174787432Y-61199227D01*
X174770090Y-61170293D01*
X174755666Y-61139797D01*
X174744302Y-61108035D01*
X174736105Y-61075312D01*
X174731155Y-61041943D01*
X174729500Y-61008250D01*
X174729500Y-59895750D01*
X174731155Y-59862057D01*
X174736105Y-59828688D01*
X174744302Y-59795965D01*
X174755666Y-59764203D01*
X174770090Y-59733707D01*
X174787432Y-59704773D01*
X174807528Y-59677677D01*
X174830182Y-59652682D01*
X174855177Y-59630028D01*
X174882273Y-59609932D01*
X174911207Y-59592590D01*
X174941703Y-59578166D01*
X174973465Y-59566802D01*
X175006188Y-59558605D01*
X175039557Y-59553655D01*
X175073250Y-59552000D01*
X175760750Y-59552000D01*
X175794443Y-59553655D01*
X175794443Y-59553655D01*
G37*
D18*
X175417000Y-60452000D03*
D17*
G36*
X177669443Y-59553655D02*
X177702812Y-59558605D01*
X177735535Y-59566802D01*
X177767297Y-59578166D01*
X177797793Y-59592590D01*
X177826727Y-59609932D01*
X177853823Y-59630028D01*
X177878818Y-59652682D01*
X177901472Y-59677677D01*
X177921568Y-59704773D01*
X177938910Y-59733707D01*
X177953334Y-59764203D01*
X177964698Y-59795965D01*
X177972895Y-59828688D01*
X177977845Y-59862057D01*
X177979500Y-59895750D01*
X177979500Y-61008250D01*
X177977845Y-61041943D01*
X177972895Y-61075312D01*
X177964698Y-61108035D01*
X177953334Y-61139797D01*
X177938910Y-61170293D01*
X177921568Y-61199227D01*
X177901472Y-61226323D01*
X177878818Y-61251318D01*
X177853823Y-61273972D01*
X177826727Y-61294068D01*
X177797793Y-61311410D01*
X177767297Y-61325834D01*
X177735535Y-61337198D01*
X177702812Y-61345395D01*
X177669443Y-61350345D01*
X177635750Y-61352000D01*
X176948250Y-61352000D01*
X176914557Y-61350345D01*
X176881188Y-61345395D01*
X176848465Y-61337198D01*
X176816703Y-61325834D01*
X176786207Y-61311410D01*
X176757273Y-61294068D01*
X176730177Y-61273972D01*
X176705182Y-61251318D01*
X176682528Y-61226323D01*
X176662432Y-61199227D01*
X176645090Y-61170293D01*
X176630666Y-61139797D01*
X176619302Y-61108035D01*
X176611105Y-61075312D01*
X176606155Y-61041943D01*
X176604500Y-61008250D01*
X176604500Y-59895750D01*
X176606155Y-59862057D01*
X176611105Y-59828688D01*
X176619302Y-59795965D01*
X176630666Y-59764203D01*
X176645090Y-59733707D01*
X176662432Y-59704773D01*
X176682528Y-59677677D01*
X176705182Y-59652682D01*
X176730177Y-59630028D01*
X176757273Y-59609932D01*
X176786207Y-59592590D01*
X176816703Y-59578166D01*
X176848465Y-59566802D01*
X176881188Y-59558605D01*
X176914557Y-59553655D01*
X176948250Y-59552000D01*
X177635750Y-59552000D01*
X177669443Y-59553655D01*
X177669443Y-59553655D01*
G37*
D18*
X177292000Y-60452000D03*
G04 #@! TD*
D17*
G04 #@! TO.C,R27*
G36*
X217136443Y-61585655D02*
X217169812Y-61590605D01*
X217202535Y-61598802D01*
X217234297Y-61610166D01*
X217264793Y-61624590D01*
X217293727Y-61641932D01*
X217320823Y-61662028D01*
X217345818Y-61684682D01*
X217368472Y-61709677D01*
X217388568Y-61736773D01*
X217405910Y-61765707D01*
X217420334Y-61796203D01*
X217431698Y-61827965D01*
X217439895Y-61860688D01*
X217444845Y-61894057D01*
X217446500Y-61927750D01*
X217446500Y-63040250D01*
X217444845Y-63073943D01*
X217439895Y-63107312D01*
X217431698Y-63140035D01*
X217420334Y-63171797D01*
X217405910Y-63202293D01*
X217388568Y-63231227D01*
X217368472Y-63258323D01*
X217345818Y-63283318D01*
X217320823Y-63305972D01*
X217293727Y-63326068D01*
X217264793Y-63343410D01*
X217234297Y-63357834D01*
X217202535Y-63369198D01*
X217169812Y-63377395D01*
X217136443Y-63382345D01*
X217102750Y-63384000D01*
X216415250Y-63384000D01*
X216381557Y-63382345D01*
X216348188Y-63377395D01*
X216315465Y-63369198D01*
X216283703Y-63357834D01*
X216253207Y-63343410D01*
X216224273Y-63326068D01*
X216197177Y-63305972D01*
X216172182Y-63283318D01*
X216149528Y-63258323D01*
X216129432Y-63231227D01*
X216112090Y-63202293D01*
X216097666Y-63171797D01*
X216086302Y-63140035D01*
X216078105Y-63107312D01*
X216073155Y-63073943D01*
X216071500Y-63040250D01*
X216071500Y-61927750D01*
X216073155Y-61894057D01*
X216078105Y-61860688D01*
X216086302Y-61827965D01*
X216097666Y-61796203D01*
X216112090Y-61765707D01*
X216129432Y-61736773D01*
X216149528Y-61709677D01*
X216172182Y-61684682D01*
X216197177Y-61662028D01*
X216224273Y-61641932D01*
X216253207Y-61624590D01*
X216283703Y-61610166D01*
X216315465Y-61598802D01*
X216348188Y-61590605D01*
X216381557Y-61585655D01*
X216415250Y-61584000D01*
X217102750Y-61584000D01*
X217136443Y-61585655D01*
X217136443Y-61585655D01*
G37*
D18*
X216759000Y-62484000D03*
D17*
G36*
X215261443Y-61585655D02*
X215294812Y-61590605D01*
X215327535Y-61598802D01*
X215359297Y-61610166D01*
X215389793Y-61624590D01*
X215418727Y-61641932D01*
X215445823Y-61662028D01*
X215470818Y-61684682D01*
X215493472Y-61709677D01*
X215513568Y-61736773D01*
X215530910Y-61765707D01*
X215545334Y-61796203D01*
X215556698Y-61827965D01*
X215564895Y-61860688D01*
X215569845Y-61894057D01*
X215571500Y-61927750D01*
X215571500Y-63040250D01*
X215569845Y-63073943D01*
X215564895Y-63107312D01*
X215556698Y-63140035D01*
X215545334Y-63171797D01*
X215530910Y-63202293D01*
X215513568Y-63231227D01*
X215493472Y-63258323D01*
X215470818Y-63283318D01*
X215445823Y-63305972D01*
X215418727Y-63326068D01*
X215389793Y-63343410D01*
X215359297Y-63357834D01*
X215327535Y-63369198D01*
X215294812Y-63377395D01*
X215261443Y-63382345D01*
X215227750Y-63384000D01*
X214540250Y-63384000D01*
X214506557Y-63382345D01*
X214473188Y-63377395D01*
X214440465Y-63369198D01*
X214408703Y-63357834D01*
X214378207Y-63343410D01*
X214349273Y-63326068D01*
X214322177Y-63305972D01*
X214297182Y-63283318D01*
X214274528Y-63258323D01*
X214254432Y-63231227D01*
X214237090Y-63202293D01*
X214222666Y-63171797D01*
X214211302Y-63140035D01*
X214203105Y-63107312D01*
X214198155Y-63073943D01*
X214196500Y-63040250D01*
X214196500Y-61927750D01*
X214198155Y-61894057D01*
X214203105Y-61860688D01*
X214211302Y-61827965D01*
X214222666Y-61796203D01*
X214237090Y-61765707D01*
X214254432Y-61736773D01*
X214274528Y-61709677D01*
X214297182Y-61684682D01*
X214322177Y-61662028D01*
X214349273Y-61641932D01*
X214378207Y-61624590D01*
X214408703Y-61610166D01*
X214440465Y-61598802D01*
X214473188Y-61590605D01*
X214506557Y-61585655D01*
X214540250Y-61584000D01*
X215227750Y-61584000D01*
X215261443Y-61585655D01*
X215261443Y-61585655D01*
G37*
D18*
X214884000Y-62484000D03*
G04 #@! TD*
D17*
G04 #@! TO.C,R29*
G36*
X175794443Y-62601655D02*
X175827812Y-62606605D01*
X175860535Y-62614802D01*
X175892297Y-62626166D01*
X175922793Y-62640590D01*
X175951727Y-62657932D01*
X175978823Y-62678028D01*
X176003818Y-62700682D01*
X176026472Y-62725677D01*
X176046568Y-62752773D01*
X176063910Y-62781707D01*
X176078334Y-62812203D01*
X176089698Y-62843965D01*
X176097895Y-62876688D01*
X176102845Y-62910057D01*
X176104500Y-62943750D01*
X176104500Y-64056250D01*
X176102845Y-64089943D01*
X176097895Y-64123312D01*
X176089698Y-64156035D01*
X176078334Y-64187797D01*
X176063910Y-64218293D01*
X176046568Y-64247227D01*
X176026472Y-64274323D01*
X176003818Y-64299318D01*
X175978823Y-64321972D01*
X175951727Y-64342068D01*
X175922793Y-64359410D01*
X175892297Y-64373834D01*
X175860535Y-64385198D01*
X175827812Y-64393395D01*
X175794443Y-64398345D01*
X175760750Y-64400000D01*
X175073250Y-64400000D01*
X175039557Y-64398345D01*
X175006188Y-64393395D01*
X174973465Y-64385198D01*
X174941703Y-64373834D01*
X174911207Y-64359410D01*
X174882273Y-64342068D01*
X174855177Y-64321972D01*
X174830182Y-64299318D01*
X174807528Y-64274323D01*
X174787432Y-64247227D01*
X174770090Y-64218293D01*
X174755666Y-64187797D01*
X174744302Y-64156035D01*
X174736105Y-64123312D01*
X174731155Y-64089943D01*
X174729500Y-64056250D01*
X174729500Y-62943750D01*
X174731155Y-62910057D01*
X174736105Y-62876688D01*
X174744302Y-62843965D01*
X174755666Y-62812203D01*
X174770090Y-62781707D01*
X174787432Y-62752773D01*
X174807528Y-62725677D01*
X174830182Y-62700682D01*
X174855177Y-62678028D01*
X174882273Y-62657932D01*
X174911207Y-62640590D01*
X174941703Y-62626166D01*
X174973465Y-62614802D01*
X175006188Y-62606605D01*
X175039557Y-62601655D01*
X175073250Y-62600000D01*
X175760750Y-62600000D01*
X175794443Y-62601655D01*
X175794443Y-62601655D01*
G37*
D18*
X175417000Y-63500000D03*
D17*
G36*
X177669443Y-62601655D02*
X177702812Y-62606605D01*
X177735535Y-62614802D01*
X177767297Y-62626166D01*
X177797793Y-62640590D01*
X177826727Y-62657932D01*
X177853823Y-62678028D01*
X177878818Y-62700682D01*
X177901472Y-62725677D01*
X177921568Y-62752773D01*
X177938910Y-62781707D01*
X177953334Y-62812203D01*
X177964698Y-62843965D01*
X177972895Y-62876688D01*
X177977845Y-62910057D01*
X177979500Y-62943750D01*
X177979500Y-64056250D01*
X177977845Y-64089943D01*
X177972895Y-64123312D01*
X177964698Y-64156035D01*
X177953334Y-64187797D01*
X177938910Y-64218293D01*
X177921568Y-64247227D01*
X177901472Y-64274323D01*
X177878818Y-64299318D01*
X177853823Y-64321972D01*
X177826727Y-64342068D01*
X177797793Y-64359410D01*
X177767297Y-64373834D01*
X177735535Y-64385198D01*
X177702812Y-64393395D01*
X177669443Y-64398345D01*
X177635750Y-64400000D01*
X176948250Y-64400000D01*
X176914557Y-64398345D01*
X176881188Y-64393395D01*
X176848465Y-64385198D01*
X176816703Y-64373834D01*
X176786207Y-64359410D01*
X176757273Y-64342068D01*
X176730177Y-64321972D01*
X176705182Y-64299318D01*
X176682528Y-64274323D01*
X176662432Y-64247227D01*
X176645090Y-64218293D01*
X176630666Y-64187797D01*
X176619302Y-64156035D01*
X176611105Y-64123312D01*
X176606155Y-64089943D01*
X176604500Y-64056250D01*
X176604500Y-62943750D01*
X176606155Y-62910057D01*
X176611105Y-62876688D01*
X176619302Y-62843965D01*
X176630666Y-62812203D01*
X176645090Y-62781707D01*
X176662432Y-62752773D01*
X176682528Y-62725677D01*
X176705182Y-62700682D01*
X176730177Y-62678028D01*
X176757273Y-62657932D01*
X176786207Y-62640590D01*
X176816703Y-62626166D01*
X176848465Y-62614802D01*
X176881188Y-62606605D01*
X176914557Y-62601655D01*
X176948250Y-62600000D01*
X177635750Y-62600000D01*
X177669443Y-62601655D01*
X177669443Y-62601655D01*
G37*
D18*
X177292000Y-63500000D03*
G04 #@! TD*
D17*
G04 #@! TO.C,R31*
G36*
X177669443Y-65649655D02*
X177702812Y-65654605D01*
X177735535Y-65662802D01*
X177767297Y-65674166D01*
X177797793Y-65688590D01*
X177826727Y-65705932D01*
X177853823Y-65726028D01*
X177878818Y-65748682D01*
X177901472Y-65773677D01*
X177921568Y-65800773D01*
X177938910Y-65829707D01*
X177953334Y-65860203D01*
X177964698Y-65891965D01*
X177972895Y-65924688D01*
X177977845Y-65958057D01*
X177979500Y-65991750D01*
X177979500Y-67104250D01*
X177977845Y-67137943D01*
X177972895Y-67171312D01*
X177964698Y-67204035D01*
X177953334Y-67235797D01*
X177938910Y-67266293D01*
X177921568Y-67295227D01*
X177901472Y-67322323D01*
X177878818Y-67347318D01*
X177853823Y-67369972D01*
X177826727Y-67390068D01*
X177797793Y-67407410D01*
X177767297Y-67421834D01*
X177735535Y-67433198D01*
X177702812Y-67441395D01*
X177669443Y-67446345D01*
X177635750Y-67448000D01*
X176948250Y-67448000D01*
X176914557Y-67446345D01*
X176881188Y-67441395D01*
X176848465Y-67433198D01*
X176816703Y-67421834D01*
X176786207Y-67407410D01*
X176757273Y-67390068D01*
X176730177Y-67369972D01*
X176705182Y-67347318D01*
X176682528Y-67322323D01*
X176662432Y-67295227D01*
X176645090Y-67266293D01*
X176630666Y-67235797D01*
X176619302Y-67204035D01*
X176611105Y-67171312D01*
X176606155Y-67137943D01*
X176604500Y-67104250D01*
X176604500Y-65991750D01*
X176606155Y-65958057D01*
X176611105Y-65924688D01*
X176619302Y-65891965D01*
X176630666Y-65860203D01*
X176645090Y-65829707D01*
X176662432Y-65800773D01*
X176682528Y-65773677D01*
X176705182Y-65748682D01*
X176730177Y-65726028D01*
X176757273Y-65705932D01*
X176786207Y-65688590D01*
X176816703Y-65674166D01*
X176848465Y-65662802D01*
X176881188Y-65654605D01*
X176914557Y-65649655D01*
X176948250Y-65648000D01*
X177635750Y-65648000D01*
X177669443Y-65649655D01*
X177669443Y-65649655D01*
G37*
D18*
X177292000Y-66548000D03*
D17*
G36*
X175794443Y-65649655D02*
X175827812Y-65654605D01*
X175860535Y-65662802D01*
X175892297Y-65674166D01*
X175922793Y-65688590D01*
X175951727Y-65705932D01*
X175978823Y-65726028D01*
X176003818Y-65748682D01*
X176026472Y-65773677D01*
X176046568Y-65800773D01*
X176063910Y-65829707D01*
X176078334Y-65860203D01*
X176089698Y-65891965D01*
X176097895Y-65924688D01*
X176102845Y-65958057D01*
X176104500Y-65991750D01*
X176104500Y-67104250D01*
X176102845Y-67137943D01*
X176097895Y-67171312D01*
X176089698Y-67204035D01*
X176078334Y-67235797D01*
X176063910Y-67266293D01*
X176046568Y-67295227D01*
X176026472Y-67322323D01*
X176003818Y-67347318D01*
X175978823Y-67369972D01*
X175951727Y-67390068D01*
X175922793Y-67407410D01*
X175892297Y-67421834D01*
X175860535Y-67433198D01*
X175827812Y-67441395D01*
X175794443Y-67446345D01*
X175760750Y-67448000D01*
X175073250Y-67448000D01*
X175039557Y-67446345D01*
X175006188Y-67441395D01*
X174973465Y-67433198D01*
X174941703Y-67421834D01*
X174911207Y-67407410D01*
X174882273Y-67390068D01*
X174855177Y-67369972D01*
X174830182Y-67347318D01*
X174807528Y-67322323D01*
X174787432Y-67295227D01*
X174770090Y-67266293D01*
X174755666Y-67235797D01*
X174744302Y-67204035D01*
X174736105Y-67171312D01*
X174731155Y-67137943D01*
X174729500Y-67104250D01*
X174729500Y-65991750D01*
X174731155Y-65958057D01*
X174736105Y-65924688D01*
X174744302Y-65891965D01*
X174755666Y-65860203D01*
X174770090Y-65829707D01*
X174787432Y-65800773D01*
X174807528Y-65773677D01*
X174830182Y-65748682D01*
X174855177Y-65726028D01*
X174882273Y-65705932D01*
X174911207Y-65688590D01*
X174941703Y-65674166D01*
X174973465Y-65662802D01*
X175006188Y-65654605D01*
X175039557Y-65649655D01*
X175073250Y-65648000D01*
X175760750Y-65648000D01*
X175794443Y-65649655D01*
X175794443Y-65649655D01*
G37*
D18*
X175417000Y-66548000D03*
G04 #@! TD*
M02*
