M48
;DRILL file {KiCad (5.0.0)} date 01/26/19 22:59:57
;FORMAT={-:-/ absolute / inch / decimal}
FMAT,2
INCH,TZ
T1C0.0157
T2C0.0394
T3C0.0402
%
G90
G05
M72
T1
X7.12Y-1.26
X7.12Y-1.515
X7.12Y-1.74
X7.12Y-2.16
X7.12Y-2.39
X7.12Y-2.615
X7.44Y-1.38
X7.44Y-1.62
X7.44Y-2.06
X7.44Y-2.28
X7.44Y-2.5
X7.44Y-2.74
X7.5Y-2.8
X7.85Y-1.25
X8.1Y-2.55
X8.175Y-1.925
X8.175Y-2.2
X8.1906Y-1.368
X8.25Y-2.
X8.3518Y-1.975
X8.3669Y-1.8081
X8.5Y-2.225
T2
X6.72Y-2.0313
X6.72Y-2.1494
X6.72Y-2.2676
X6.72Y-2.3857
X6.72Y-2.5038
X6.72Y-2.6219
X6.72Y-2.74
X6.72Y-1.1494
X6.72Y-1.2676
X6.72Y-1.3857
X6.72Y-1.5038
X6.72Y-1.6219
X6.72Y-1.74
T3
X8.775Y-2.55
X8.775Y-2.6681
X8.775Y-2.05
X8.775Y-2.1681
T0
M30
