%TF.GenerationSoftware,KiCad,Pcbnew,(5.0.0)*%
%TF.CreationDate,2019-02-02T21:25:33-06:00*%
%TF.ProjectId,BPSTester,4250535465737465722E6B696361645F,rev?*%
%TF.SameCoordinates,Original*%
%TF.FileFunction,Legend,Top*%
%TF.FilePolarity,Positive*%
%FSLAX46Y46*%
G04 Gerber Fmt 4.6, Leading zero omitted, Abs format (unit mm)*
G04 Created by KiCad (PCBNEW (5.0.0)) date 02/02/19 21:25:33*
%MOMM*%
%LPD*%
G01*
G04 APERTURE LIST*
%ADD10C,0.300000*%
%ADD11C,0.120000*%
%ADD12C,0.150000*%
%ADD13C,0.010000*%
G04 APERTURE END LIST*
D10*
X128785714Y-121353571D02*
X128785714Y-122567857D01*
X128857142Y-122710714D01*
X128928571Y-122782142D01*
X129071428Y-122853571D01*
X129357142Y-122853571D01*
X129500000Y-122782142D01*
X129571428Y-122710714D01*
X129642857Y-122567857D01*
X129642857Y-121353571D01*
X130142857Y-121353571D02*
X131000000Y-121353571D01*
X130571428Y-122853571D02*
X130571428Y-121353571D01*
X131428571Y-122782142D02*
X131642857Y-122853571D01*
X132000000Y-122853571D01*
X132142857Y-122782142D01*
X132214285Y-122710714D01*
X132285714Y-122567857D01*
X132285714Y-122425000D01*
X132214285Y-122282142D01*
X132142857Y-122210714D01*
X132000000Y-122139285D01*
X131714285Y-122067857D01*
X131571428Y-121996428D01*
X131500000Y-121925000D01*
X131428571Y-121782142D01*
X131428571Y-121639285D01*
X131500000Y-121496428D01*
X131571428Y-121425000D01*
X131714285Y-121353571D01*
X132071428Y-121353571D01*
X132285714Y-121425000D01*
X132714285Y-121353571D02*
X133214285Y-122853571D01*
X133714285Y-121353571D01*
X134000000Y-121353571D02*
X134857142Y-121353571D01*
X134428571Y-122853571D02*
X134428571Y-121353571D01*
X136500000Y-122282142D02*
X137642857Y-122282142D01*
X140000000Y-122067857D02*
X140214285Y-122139285D01*
X140285714Y-122210714D01*
X140357142Y-122353571D01*
X140357142Y-122567857D01*
X140285714Y-122710714D01*
X140214285Y-122782142D01*
X140071428Y-122853571D01*
X139500000Y-122853571D01*
X139500000Y-121353571D01*
X140000000Y-121353571D01*
X140142857Y-121425000D01*
X140214285Y-121496428D01*
X140285714Y-121639285D01*
X140285714Y-121782142D01*
X140214285Y-121925000D01*
X140142857Y-121996428D01*
X140000000Y-122067857D01*
X139500000Y-122067857D01*
X141000000Y-122853571D02*
X141000000Y-121353571D01*
X141571428Y-121353571D01*
X141714285Y-121425000D01*
X141785714Y-121496428D01*
X141857142Y-121639285D01*
X141857142Y-121853571D01*
X141785714Y-121996428D01*
X141714285Y-122067857D01*
X141571428Y-122139285D01*
X141000000Y-122139285D01*
X142428571Y-122782142D02*
X142642857Y-122853571D01*
X143000000Y-122853571D01*
X143142857Y-122782142D01*
X143214285Y-122710714D01*
X143285714Y-122567857D01*
X143285714Y-122425000D01*
X143214285Y-122282142D01*
X143142857Y-122210714D01*
X143000000Y-122139285D01*
X142714285Y-122067857D01*
X142571428Y-121996428D01*
X142500000Y-121925000D01*
X142428571Y-121782142D01*
X142428571Y-121639285D01*
X142500000Y-121496428D01*
X142571428Y-121425000D01*
X142714285Y-121353571D01*
X143071428Y-121353571D01*
X143285714Y-121425000D01*
X127892857Y-123903571D02*
X128392857Y-125403571D01*
X128892857Y-123903571D01*
X129607142Y-125403571D02*
X129464285Y-125332142D01*
X129392857Y-125260714D01*
X129321428Y-125117857D01*
X129321428Y-124689285D01*
X129392857Y-124546428D01*
X129464285Y-124475000D01*
X129607142Y-124403571D01*
X129821428Y-124403571D01*
X129964285Y-124475000D01*
X130035714Y-124546428D01*
X130107142Y-124689285D01*
X130107142Y-125117857D01*
X130035714Y-125260714D01*
X129964285Y-125332142D01*
X129821428Y-125403571D01*
X129607142Y-125403571D01*
X130964285Y-125403571D02*
X130821428Y-125332142D01*
X130750000Y-125189285D01*
X130750000Y-123903571D01*
X131321428Y-124403571D02*
X131892857Y-124403571D01*
X131535714Y-123903571D02*
X131535714Y-125189285D01*
X131607142Y-125332142D01*
X131750000Y-125403571D01*
X131892857Y-125403571D01*
X132392857Y-125260714D02*
X132464285Y-125332142D01*
X132392857Y-125403571D01*
X132321428Y-125332142D01*
X132392857Y-125260714D01*
X132392857Y-125403571D01*
X134035714Y-123903571D02*
X134892857Y-123903571D01*
X134464285Y-125403571D02*
X134464285Y-123903571D01*
X135964285Y-125332142D02*
X135821428Y-125403571D01*
X135535714Y-125403571D01*
X135392857Y-125332142D01*
X135321428Y-125189285D01*
X135321428Y-124617857D01*
X135392857Y-124475000D01*
X135535714Y-124403571D01*
X135821428Y-124403571D01*
X135964285Y-124475000D01*
X136035714Y-124617857D01*
X136035714Y-124760714D01*
X135321428Y-124903571D01*
X136607142Y-125332142D02*
X136750000Y-125403571D01*
X137035714Y-125403571D01*
X137178571Y-125332142D01*
X137250000Y-125189285D01*
X137250000Y-125117857D01*
X137178571Y-124975000D01*
X137035714Y-124903571D01*
X136821428Y-124903571D01*
X136678571Y-124832142D01*
X136607142Y-124689285D01*
X136607142Y-124617857D01*
X136678571Y-124475000D01*
X136821428Y-124403571D01*
X137035714Y-124403571D01*
X137178571Y-124475000D01*
X137678571Y-124403571D02*
X138250000Y-124403571D01*
X137892857Y-123903571D02*
X137892857Y-125189285D01*
X137964285Y-125332142D01*
X138107142Y-125403571D01*
X138250000Y-125403571D01*
X139750000Y-124403571D02*
X140107142Y-125403571D01*
X140464285Y-124403571D01*
X141821428Y-125403571D02*
X140964285Y-125403571D01*
X141392857Y-125403571D02*
X141392857Y-123903571D01*
X141250000Y-124117857D01*
X141107142Y-124260714D01*
X140964285Y-124332142D01*
X142464285Y-125260714D02*
X142535714Y-125332142D01*
X142464285Y-125403571D01*
X142392857Y-125332142D01*
X142464285Y-125260714D01*
X142464285Y-125403571D01*
X143464285Y-123903571D02*
X143607142Y-123903571D01*
X143750000Y-123975000D01*
X143821428Y-124046428D01*
X143892857Y-124189285D01*
X143964285Y-124475000D01*
X143964285Y-124832142D01*
X143892857Y-125117857D01*
X143821428Y-125260714D01*
X143750000Y-125332142D01*
X143607142Y-125403571D01*
X143464285Y-125403571D01*
X143321428Y-125332142D01*
X143250000Y-125260714D01*
X143178571Y-125117857D01*
X143107142Y-124832142D01*
X143107142Y-124475000D01*
X143178571Y-124189285D01*
X143250000Y-124046428D01*
X143321428Y-123975000D01*
X143464285Y-123903571D01*
X129285714Y-127882142D02*
X129500000Y-127953571D01*
X129857142Y-127953571D01*
X130000000Y-127882142D01*
X130071428Y-127810714D01*
X130142857Y-127667857D01*
X130142857Y-127525000D01*
X130071428Y-127382142D01*
X130000000Y-127310714D01*
X129857142Y-127239285D01*
X129571428Y-127167857D01*
X129428571Y-127096428D01*
X129357142Y-127025000D01*
X129285714Y-126882142D01*
X129285714Y-126739285D01*
X129357142Y-126596428D01*
X129428571Y-126525000D01*
X129571428Y-126453571D01*
X129928571Y-126453571D01*
X130142857Y-126525000D01*
X130785714Y-126953571D02*
X130785714Y-128453571D01*
X130785714Y-127025000D02*
X130928571Y-126953571D01*
X131214285Y-126953571D01*
X131357142Y-127025000D01*
X131428571Y-127096428D01*
X131500000Y-127239285D01*
X131500000Y-127667857D01*
X131428571Y-127810714D01*
X131357142Y-127882142D01*
X131214285Y-127953571D01*
X130928571Y-127953571D01*
X130785714Y-127882142D01*
X132142857Y-127953571D02*
X132142857Y-126953571D01*
X132142857Y-127239285D02*
X132214285Y-127096428D01*
X132285714Y-127025000D01*
X132428571Y-126953571D01*
X132571428Y-126953571D01*
X133071428Y-127953571D02*
X133071428Y-126953571D01*
X133071428Y-126453571D02*
X133000000Y-126525000D01*
X133071428Y-126596428D01*
X133142857Y-126525000D01*
X133071428Y-126453571D01*
X133071428Y-126596428D01*
X133785714Y-126953571D02*
X133785714Y-127953571D01*
X133785714Y-127096428D02*
X133857142Y-127025000D01*
X134000000Y-126953571D01*
X134214285Y-126953571D01*
X134357142Y-127025000D01*
X134428571Y-127167857D01*
X134428571Y-127953571D01*
X135785714Y-126953571D02*
X135785714Y-128167857D01*
X135714285Y-128310714D01*
X135642857Y-128382142D01*
X135500000Y-128453571D01*
X135285714Y-128453571D01*
X135142857Y-128382142D01*
X135785714Y-127882142D02*
X135642857Y-127953571D01*
X135357142Y-127953571D01*
X135214285Y-127882142D01*
X135142857Y-127810714D01*
X135071428Y-127667857D01*
X135071428Y-127239285D01*
X135142857Y-127096428D01*
X135214285Y-127025000D01*
X135357142Y-126953571D01*
X135642857Y-126953571D01*
X135785714Y-127025000D01*
X137571428Y-126596428D02*
X137642857Y-126525000D01*
X137785714Y-126453571D01*
X138142857Y-126453571D01*
X138285714Y-126525000D01*
X138357142Y-126596428D01*
X138428571Y-126739285D01*
X138428571Y-126882142D01*
X138357142Y-127096428D01*
X137500000Y-127953571D01*
X138428571Y-127953571D01*
X139357142Y-126453571D02*
X139500000Y-126453571D01*
X139642857Y-126525000D01*
X139714285Y-126596428D01*
X139785714Y-126739285D01*
X139857142Y-127025000D01*
X139857142Y-127382142D01*
X139785714Y-127667857D01*
X139714285Y-127810714D01*
X139642857Y-127882142D01*
X139500000Y-127953571D01*
X139357142Y-127953571D01*
X139214285Y-127882142D01*
X139142857Y-127810714D01*
X139071428Y-127667857D01*
X139000000Y-127382142D01*
X139000000Y-127025000D01*
X139071428Y-126739285D01*
X139142857Y-126596428D01*
X139214285Y-126525000D01*
X139357142Y-126453571D01*
X141285714Y-127953571D02*
X140428571Y-127953571D01*
X140857142Y-127953571D02*
X140857142Y-126453571D01*
X140714285Y-126667857D01*
X140571428Y-126810714D01*
X140428571Y-126882142D01*
X142000000Y-127953571D02*
X142285714Y-127953571D01*
X142428571Y-127882142D01*
X142500000Y-127810714D01*
X142642857Y-127596428D01*
X142714285Y-127310714D01*
X142714285Y-126739285D01*
X142642857Y-126596428D01*
X142571428Y-126525000D01*
X142428571Y-126453571D01*
X142142857Y-126453571D01*
X142000000Y-126525000D01*
X141928571Y-126596428D01*
X141857142Y-126739285D01*
X141857142Y-127096428D01*
X141928571Y-127239285D01*
X142000000Y-127310714D01*
X142142857Y-127382142D01*
X142428571Y-127382142D01*
X142571428Y-127310714D01*
X142642857Y-127239285D01*
X142714285Y-127096428D01*
X129821428Y-129075000D02*
X129678571Y-129003571D01*
X129464285Y-129003571D01*
X129250000Y-129075000D01*
X129107142Y-129217857D01*
X129035714Y-129360714D01*
X128964285Y-129646428D01*
X128964285Y-129860714D01*
X129035714Y-130146428D01*
X129107142Y-130289285D01*
X129250000Y-130432142D01*
X129464285Y-130503571D01*
X129607142Y-130503571D01*
X129821428Y-130432142D01*
X129892857Y-130360714D01*
X129892857Y-129860714D01*
X129607142Y-129860714D01*
X131178571Y-130503571D02*
X131178571Y-129717857D01*
X131107142Y-129575000D01*
X130964285Y-129503571D01*
X130678571Y-129503571D01*
X130535714Y-129575000D01*
X131178571Y-130432142D02*
X131035714Y-130503571D01*
X130678571Y-130503571D01*
X130535714Y-130432142D01*
X130464285Y-130289285D01*
X130464285Y-130146428D01*
X130535714Y-130003571D01*
X130678571Y-129932142D01*
X131035714Y-129932142D01*
X131178571Y-129860714D01*
X131892857Y-130503571D02*
X131892857Y-129503571D01*
X131892857Y-129789285D02*
X131964285Y-129646428D01*
X132035714Y-129575000D01*
X132178571Y-129503571D01*
X132321428Y-129503571D01*
X132821428Y-130503571D02*
X132821428Y-129503571D01*
X132821428Y-129789285D02*
X132892857Y-129646428D01*
X132964285Y-129575000D01*
X133107142Y-129503571D01*
X133250000Y-129503571D01*
X134321428Y-130432142D02*
X134178571Y-130503571D01*
X133892857Y-130503571D01*
X133750000Y-130432142D01*
X133678571Y-130289285D01*
X133678571Y-129717857D01*
X133750000Y-129575000D01*
X133892857Y-129503571D01*
X134178571Y-129503571D01*
X134321428Y-129575000D01*
X134392857Y-129717857D01*
X134392857Y-129860714D01*
X133678571Y-130003571D01*
X134821428Y-129503571D02*
X135392857Y-129503571D01*
X135035714Y-129003571D02*
X135035714Y-130289285D01*
X135107142Y-130432142D01*
X135250000Y-130503571D01*
X135392857Y-130503571D01*
X135678571Y-129503571D02*
X136250000Y-129503571D01*
X135892857Y-129003571D02*
X135892857Y-130289285D01*
X135964285Y-130432142D01*
X136107142Y-130503571D01*
X136250000Y-130503571D01*
X137750000Y-129003571D02*
X138107142Y-130503571D01*
X138392857Y-129432142D01*
X138678571Y-130503571D01*
X139035714Y-129003571D01*
X139821428Y-130503571D02*
X139678571Y-130432142D01*
X139607142Y-130360714D01*
X139535714Y-130217857D01*
X139535714Y-129789285D01*
X139607142Y-129646428D01*
X139678571Y-129575000D01*
X139821428Y-129503571D01*
X140035714Y-129503571D01*
X140178571Y-129575000D01*
X140250000Y-129646428D01*
X140321428Y-129789285D01*
X140321428Y-130217857D01*
X140250000Y-130360714D01*
X140178571Y-130432142D01*
X140035714Y-130503571D01*
X139821428Y-130503571D01*
X140964285Y-129503571D02*
X140964285Y-130503571D01*
X140964285Y-129646428D02*
X141035714Y-129575000D01*
X141178571Y-129503571D01*
X141392857Y-129503571D01*
X141535714Y-129575000D01*
X141607142Y-129717857D01*
X141607142Y-130503571D01*
X142964285Y-129503571D02*
X142964285Y-130717857D01*
X142892857Y-130860714D01*
X142821428Y-130932142D01*
X142678571Y-131003571D01*
X142464285Y-131003571D01*
X142321428Y-130932142D01*
X142964285Y-130432142D02*
X142821428Y-130503571D01*
X142535714Y-130503571D01*
X142392857Y-130432142D01*
X142321428Y-130360714D01*
X142250000Y-130217857D01*
X142250000Y-129789285D01*
X142321428Y-129646428D01*
X142392857Y-129575000D01*
X142535714Y-129503571D01*
X142821428Y-129503571D01*
X142964285Y-129575000D01*
X143544642Y-81770928D02*
X143473214Y-81985214D01*
X143401785Y-82056642D01*
X143258928Y-82128071D01*
X143044642Y-82128071D01*
X142901785Y-82056642D01*
X142830357Y-81985214D01*
X142758928Y-81842357D01*
X142758928Y-81270928D01*
X144258928Y-81270928D01*
X144258928Y-81770928D01*
X144187500Y-81913785D01*
X144116071Y-81985214D01*
X143973214Y-82056642D01*
X143830357Y-82056642D01*
X143687500Y-81985214D01*
X143616071Y-81913785D01*
X143544642Y-81770928D01*
X143544642Y-81270928D01*
X143187500Y-82699500D02*
X143187500Y-83413785D01*
X142758928Y-82556642D02*
X144258928Y-83056642D01*
X142758928Y-83556642D01*
X144258928Y-83842357D02*
X144258928Y-84699500D01*
X142758928Y-84270928D02*
X144258928Y-84270928D01*
X144258928Y-84985214D02*
X144258928Y-85842357D01*
X142758928Y-85413785D02*
X144258928Y-85413785D01*
X113973642Y-145564500D02*
X113830785Y-145493071D01*
X113616500Y-145493071D01*
X113402214Y-145564500D01*
X113259357Y-145707357D01*
X113187928Y-145850214D01*
X113116500Y-146135928D01*
X113116500Y-146350214D01*
X113187928Y-146635928D01*
X113259357Y-146778785D01*
X113402214Y-146921642D01*
X113616500Y-146993071D01*
X113759357Y-146993071D01*
X113973642Y-146921642D01*
X114045071Y-146850214D01*
X114045071Y-146350214D01*
X113759357Y-146350214D01*
X114687928Y-146993071D02*
X114687928Y-145493071D01*
X115545071Y-146993071D01*
X115545071Y-145493071D01*
X116259357Y-146993071D02*
X116259357Y-145493071D01*
X116616500Y-145493071D01*
X116830785Y-145564500D01*
X116973642Y-145707357D01*
X117045071Y-145850214D01*
X117116500Y-146135928D01*
X117116500Y-146350214D01*
X117045071Y-146635928D01*
X116973642Y-146778785D01*
X116830785Y-146921642D01*
X116616500Y-146993071D01*
X116259357Y-146993071D01*
X137424928Y-61637500D02*
X138924928Y-61637500D01*
X138924928Y-62208928D01*
X138853500Y-62351785D01*
X138782071Y-62423214D01*
X138639214Y-62494642D01*
X138424928Y-62494642D01*
X138282071Y-62423214D01*
X138210642Y-62351785D01*
X138139214Y-62208928D01*
X138139214Y-61637500D01*
X138924928Y-62994642D02*
X137424928Y-63351785D01*
X138496357Y-63637500D01*
X137424928Y-63923214D01*
X138924928Y-64280357D01*
X137424928Y-65708928D02*
X138139214Y-65208928D01*
X137424928Y-64851785D02*
X138924928Y-64851785D01*
X138924928Y-65423214D01*
X138853500Y-65566071D01*
X138782071Y-65637500D01*
X138639214Y-65708928D01*
X138424928Y-65708928D01*
X138282071Y-65637500D01*
X138210642Y-65566071D01*
X138139214Y-65423214D01*
X138139214Y-64851785D01*
X129606500Y-64716857D02*
X129535071Y-64859714D01*
X129535071Y-65074000D01*
X129606500Y-65288285D01*
X129749357Y-65431142D01*
X129892214Y-65502571D01*
X130177928Y-65574000D01*
X130392214Y-65574000D01*
X130677928Y-65502571D01*
X130820785Y-65431142D01*
X130963642Y-65288285D01*
X131035071Y-65074000D01*
X131035071Y-64931142D01*
X130963642Y-64716857D01*
X130892214Y-64645428D01*
X130392214Y-64645428D01*
X130392214Y-64931142D01*
X131035071Y-64002571D02*
X129535071Y-64002571D01*
X131035071Y-63145428D01*
X129535071Y-63145428D01*
X131035071Y-62431142D02*
X129535071Y-62431142D01*
X129535071Y-62074000D01*
X129606500Y-61859714D01*
X129749357Y-61716857D01*
X129892214Y-61645428D01*
X130177928Y-61574000D01*
X130392214Y-61574000D01*
X130677928Y-61645428D01*
X130820785Y-61716857D01*
X130963642Y-61859714D01*
X131035071Y-62074000D01*
X131035071Y-62431142D01*
X136584285Y-53488571D02*
X137441428Y-53488571D01*
X137012857Y-54988571D02*
X137012857Y-53488571D01*
X138155714Y-54988571D02*
X138012857Y-54917142D01*
X137941428Y-54845714D01*
X137870000Y-54702857D01*
X137870000Y-54274285D01*
X137941428Y-54131428D01*
X138012857Y-54060000D01*
X138155714Y-53988571D01*
X138370000Y-53988571D01*
X138512857Y-54060000D01*
X138584285Y-54131428D01*
X138655714Y-54274285D01*
X138655714Y-54702857D01*
X138584285Y-54845714D01*
X138512857Y-54917142D01*
X138370000Y-54988571D01*
X138155714Y-54988571D01*
X139298571Y-53988571D02*
X139298571Y-55488571D01*
X139298571Y-54060000D02*
X139441428Y-53988571D01*
X139727142Y-53988571D01*
X139870000Y-54060000D01*
X139941428Y-54131428D01*
X140012857Y-54274285D01*
X140012857Y-54702857D01*
X139941428Y-54845714D01*
X139870000Y-54917142D01*
X139727142Y-54988571D01*
X139441428Y-54988571D01*
X139298571Y-54917142D01*
X133322857Y-145662857D02*
X133537142Y-145734285D01*
X133608571Y-145805714D01*
X133680000Y-145948571D01*
X133680000Y-146162857D01*
X133608571Y-146305714D01*
X133537142Y-146377142D01*
X133394285Y-146448571D01*
X132822857Y-146448571D01*
X132822857Y-144948571D01*
X133322857Y-144948571D01*
X133465714Y-145020000D01*
X133537142Y-145091428D01*
X133608571Y-145234285D01*
X133608571Y-145377142D01*
X133537142Y-145520000D01*
X133465714Y-145591428D01*
X133322857Y-145662857D01*
X132822857Y-145662857D01*
X134537142Y-146448571D02*
X134394285Y-146377142D01*
X134322857Y-146305714D01*
X134251428Y-146162857D01*
X134251428Y-145734285D01*
X134322857Y-145591428D01*
X134394285Y-145520000D01*
X134537142Y-145448571D01*
X134751428Y-145448571D01*
X134894285Y-145520000D01*
X134965714Y-145591428D01*
X135037142Y-145734285D01*
X135037142Y-146162857D01*
X134965714Y-146305714D01*
X134894285Y-146377142D01*
X134751428Y-146448571D01*
X134537142Y-146448571D01*
X135465714Y-145448571D02*
X136037142Y-145448571D01*
X135680000Y-144948571D02*
X135680000Y-146234285D01*
X135751428Y-146377142D01*
X135894285Y-146448571D01*
X136037142Y-146448571D01*
X136322857Y-145448571D02*
X136894285Y-145448571D01*
X136537142Y-144948571D02*
X136537142Y-146234285D01*
X136608571Y-146377142D01*
X136751428Y-146448571D01*
X136894285Y-146448571D01*
X137608571Y-146448571D02*
X137465714Y-146377142D01*
X137394285Y-146305714D01*
X137322857Y-146162857D01*
X137322857Y-145734285D01*
X137394285Y-145591428D01*
X137465714Y-145520000D01*
X137608571Y-145448571D01*
X137822857Y-145448571D01*
X137965714Y-145520000D01*
X138037142Y-145591428D01*
X138108571Y-145734285D01*
X138108571Y-146162857D01*
X138037142Y-146305714D01*
X137965714Y-146377142D01*
X137822857Y-146448571D01*
X137608571Y-146448571D01*
X138751428Y-146448571D02*
X138751428Y-145448571D01*
X138751428Y-145591428D02*
X138822857Y-145520000D01*
X138965714Y-145448571D01*
X139180000Y-145448571D01*
X139322857Y-145520000D01*
X139394285Y-145662857D01*
X139394285Y-146448571D01*
X139394285Y-145662857D02*
X139465714Y-145520000D01*
X139608571Y-145448571D01*
X139822857Y-145448571D01*
X139965714Y-145520000D01*
X140037142Y-145662857D01*
X140037142Y-146448571D01*
D11*
X136236500Y-61428000D02*
X136236500Y-60808000D01*
X134636500Y-61428000D02*
X136236500Y-61428000D01*
X134636500Y-60808000D02*
X134636500Y-61428000D01*
X133696500Y-61428000D02*
X133696500Y-60808000D01*
X132096500Y-61428000D02*
X133696500Y-61428000D01*
X132096500Y-60808000D02*
X132096500Y-61428000D01*
X135186500Y-66808000D02*
X135186500Y-65808000D01*
X133146500Y-66808000D02*
X133146500Y-65808000D01*
X135186500Y-65378000D02*
X135436500Y-65808000D01*
X133146500Y-65378000D02*
X135186500Y-65378000D01*
X132896500Y-65808000D02*
X133146500Y-65378000D01*
X135436500Y-65808000D02*
X135436500Y-66808000D01*
X132896500Y-65808000D02*
X135436500Y-65808000D01*
X132896500Y-66808000D02*
X132896500Y-65808000D01*
X136806500Y-60808000D02*
X131526500Y-60808000D01*
X136806500Y-66808000D02*
X136806500Y-60808000D01*
X131526500Y-66808000D02*
X136806500Y-66808000D01*
X131526500Y-60808000D02*
X131526500Y-66808000D01*
X121174691Y-65855704D02*
G75*
G02X121215000Y-68165000I40309J-1154296D01*
G01*
X121235121Y-68164052D02*
G75*
G02X120086000Y-66770000I-20121J1154052D01*
G01*
X112895000Y-63390000D02*
X122545000Y-63390000D01*
X112895000Y-68341000D02*
X122545000Y-68341000D01*
X112895000Y-63390000D02*
X112895000Y-68341000D01*
X122545000Y-63390000D02*
X122545000Y-68341000D01*
X122091000Y-66276000D02*
X120480000Y-67886000D01*
X121951000Y-66135000D02*
X120339000Y-67745000D01*
X121951000Y-72485000D02*
X120339000Y-74095000D01*
X122091000Y-72626000D02*
X120480000Y-74236000D01*
X122545000Y-69740000D02*
X122545000Y-74691000D01*
X112895000Y-69740000D02*
X112895000Y-74691000D01*
X112895000Y-74691000D02*
X122545000Y-74691000D01*
X112895000Y-69740000D02*
X122545000Y-69740000D01*
X121235121Y-74514052D02*
G75*
G02X120086000Y-73120000I-20121J1154052D01*
G01*
X121174691Y-72205704D02*
G75*
G02X121215000Y-74515000I40309J-1154296D01*
G01*
X121174691Y-78555704D02*
G75*
G02X121215000Y-80865000I40309J-1154296D01*
G01*
X121235121Y-80864052D02*
G75*
G02X120086000Y-79470000I-20121J1154052D01*
G01*
X112895000Y-76090000D02*
X122545000Y-76090000D01*
X112895000Y-81041000D02*
X122545000Y-81041000D01*
X112895000Y-76090000D02*
X112895000Y-81041000D01*
X122545000Y-76090000D02*
X122545000Y-81041000D01*
X122091000Y-78976000D02*
X120480000Y-80586000D01*
X121951000Y-78835000D02*
X120339000Y-80445000D01*
X121951000Y-85185000D02*
X120339000Y-86795000D01*
X122091000Y-85326000D02*
X120480000Y-86936000D01*
X122545000Y-82440000D02*
X122545000Y-87391000D01*
X112895000Y-82440000D02*
X112895000Y-87391000D01*
X112895000Y-87391000D02*
X122545000Y-87391000D01*
X112895000Y-82440000D02*
X122545000Y-82440000D01*
X121235121Y-87214052D02*
G75*
G02X120086000Y-85820000I-20121J1154052D01*
G01*
X121174691Y-84905704D02*
G75*
G02X121215000Y-87215000I40309J-1154296D01*
G01*
X121174691Y-91255704D02*
G75*
G02X121215000Y-93565000I40309J-1154296D01*
G01*
X121235121Y-93564052D02*
G75*
G02X120086000Y-92170000I-20121J1154052D01*
G01*
X112895000Y-88790000D02*
X122545000Y-88790000D01*
X112895000Y-93741000D02*
X122545000Y-93741000D01*
X112895000Y-88790000D02*
X112895000Y-93741000D01*
X122545000Y-88790000D02*
X122545000Y-93741000D01*
X122091000Y-91676000D02*
X120480000Y-93286000D01*
X121951000Y-91535000D02*
X120339000Y-93145000D01*
X121951000Y-97885000D02*
X120339000Y-99495000D01*
X122091000Y-98026000D02*
X120480000Y-99636000D01*
X122545000Y-95140000D02*
X122545000Y-100091000D01*
X112895000Y-95140000D02*
X112895000Y-100091000D01*
X112895000Y-100091000D02*
X122545000Y-100091000D01*
X112895000Y-95140000D02*
X122545000Y-95140000D01*
X121235121Y-99914052D02*
G75*
G02X120086000Y-98520000I-20121J1154052D01*
G01*
X121174691Y-97605704D02*
G75*
G02X121215000Y-99915000I40309J-1154296D01*
G01*
X121174691Y-103955704D02*
G75*
G02X121215000Y-106265000I40309J-1154296D01*
G01*
X121235121Y-106264052D02*
G75*
G02X120086000Y-104870000I-20121J1154052D01*
G01*
X112895000Y-101490000D02*
X122545000Y-101490000D01*
X112895000Y-106441000D02*
X122545000Y-106441000D01*
X112895000Y-101490000D02*
X112895000Y-106441000D01*
X122545000Y-101490000D02*
X122545000Y-106441000D01*
X122091000Y-104376000D02*
X120480000Y-105986000D01*
X121951000Y-104235000D02*
X120339000Y-105845000D01*
X121951000Y-110585000D02*
X120339000Y-112195000D01*
X122091000Y-110726000D02*
X120480000Y-112336000D01*
X122545000Y-107840000D02*
X122545000Y-112791000D01*
X112895000Y-107840000D02*
X112895000Y-112791000D01*
X112895000Y-112791000D02*
X122545000Y-112791000D01*
X112895000Y-107840000D02*
X122545000Y-107840000D01*
X121235121Y-112614052D02*
G75*
G02X120086000Y-111220000I-20121J1154052D01*
G01*
X121174691Y-110305704D02*
G75*
G02X121215000Y-112615000I40309J-1154296D01*
G01*
X121174691Y-116655704D02*
G75*
G02X121215000Y-118965000I40309J-1154296D01*
G01*
X121235121Y-118964052D02*
G75*
G02X120086000Y-117570000I-20121J1154052D01*
G01*
X112895000Y-114190000D02*
X122545000Y-114190000D01*
X112895000Y-119141000D02*
X122545000Y-119141000D01*
X112895000Y-114190000D02*
X112895000Y-119141000D01*
X122545000Y-114190000D02*
X122545000Y-119141000D01*
X122091000Y-117076000D02*
X120480000Y-118686000D01*
X121951000Y-116935000D02*
X120339000Y-118545000D01*
X121951000Y-123285000D02*
X120339000Y-124895000D01*
X122091000Y-123426000D02*
X120480000Y-125036000D01*
X122545000Y-120540000D02*
X122545000Y-125491000D01*
X112895000Y-120540000D02*
X112895000Y-125491000D01*
X112895000Y-125491000D02*
X122545000Y-125491000D01*
X112895000Y-120540000D02*
X122545000Y-120540000D01*
X121235121Y-125314052D02*
G75*
G02X120086000Y-123920000I-20121J1154052D01*
G01*
X121174691Y-123005704D02*
G75*
G02X121215000Y-125315000I40309J-1154296D01*
G01*
X121174691Y-129355704D02*
G75*
G02X121215000Y-131665000I40309J-1154296D01*
G01*
X121235121Y-131664052D02*
G75*
G02X120086000Y-130270000I-20121J1154052D01*
G01*
X112895000Y-126890000D02*
X122545000Y-126890000D01*
X112895000Y-131841000D02*
X122545000Y-131841000D01*
X112895000Y-126890000D02*
X112895000Y-131841000D01*
X122545000Y-126890000D02*
X122545000Y-131841000D01*
X122091000Y-129776000D02*
X120480000Y-131386000D01*
X121951000Y-129635000D02*
X120339000Y-131245000D01*
X121951000Y-135985000D02*
X120339000Y-137595000D01*
X122091000Y-136126000D02*
X120480000Y-137736000D01*
X122545000Y-133240000D02*
X122545000Y-138191000D01*
X112895000Y-133240000D02*
X112895000Y-138191000D01*
X112895000Y-138191000D02*
X122545000Y-138191000D01*
X112895000Y-133240000D02*
X122545000Y-133240000D01*
X121235121Y-138014052D02*
G75*
G02X120086000Y-136620000I-20121J1154052D01*
G01*
X121174691Y-135705704D02*
G75*
G02X121215000Y-138015000I40309J-1154296D01*
G01*
X136910000Y-81570000D02*
X136290000Y-81570000D01*
X136910000Y-83170000D02*
X136910000Y-81570000D01*
X136290000Y-83170000D02*
X136910000Y-83170000D01*
X136910000Y-84110000D02*
X136290000Y-84110000D01*
X136910000Y-85710000D02*
X136910000Y-84110000D01*
X136290000Y-85710000D02*
X136910000Y-85710000D01*
X136910000Y-86650000D02*
X136290000Y-86650000D01*
X136910000Y-88250000D02*
X136910000Y-86650000D01*
X136290000Y-88250000D02*
X136910000Y-88250000D01*
X136910000Y-89190000D02*
X136290000Y-89190000D01*
X136910000Y-90790000D02*
X136910000Y-89190000D01*
X136290000Y-90790000D02*
X136910000Y-90790000D01*
X136910000Y-91730000D02*
X136290000Y-91730000D01*
X136910000Y-93330000D02*
X136910000Y-91730000D01*
X136290000Y-93330000D02*
X136910000Y-93330000D01*
X136910000Y-94270000D02*
X136290000Y-94270000D01*
X136910000Y-95870000D02*
X136910000Y-94270000D01*
X136290000Y-95870000D02*
X136910000Y-95870000D01*
X136910000Y-96810000D02*
X136290000Y-96810000D01*
X136910000Y-98410000D02*
X136910000Y-96810000D01*
X136290000Y-98410000D02*
X136910000Y-98410000D01*
X136910000Y-99350000D02*
X136290000Y-99350000D01*
X136910000Y-100950000D02*
X136910000Y-99350000D01*
X136290000Y-100950000D02*
X136910000Y-100950000D01*
X136910000Y-101890000D02*
X136290000Y-101890000D01*
X136910000Y-103490000D02*
X136910000Y-101890000D01*
X136290000Y-103490000D02*
X136910000Y-103490000D01*
X136910000Y-104430000D02*
X136290000Y-104430000D01*
X136910000Y-106030000D02*
X136910000Y-104430000D01*
X136290000Y-106030000D02*
X136910000Y-106030000D01*
X136910000Y-106970000D02*
X136290000Y-106970000D01*
X136910000Y-108570000D02*
X136910000Y-106970000D01*
X136290000Y-108570000D02*
X136910000Y-108570000D01*
X136910000Y-109510000D02*
X136290000Y-109510000D01*
X136910000Y-111110000D02*
X136910000Y-109510000D01*
X136290000Y-111110000D02*
X136910000Y-111110000D01*
X136910000Y-112050000D02*
X136290000Y-112050000D01*
X136910000Y-113650000D02*
X136910000Y-112050000D01*
X136290000Y-113650000D02*
X136910000Y-113650000D01*
X142290000Y-82620000D02*
X141290000Y-82620000D01*
X140860000Y-87450000D02*
X141290000Y-87450000D01*
X140860000Y-82620000D02*
X140860000Y-87450000D01*
X141290000Y-82370000D02*
X140860000Y-82620000D01*
X141290000Y-87450000D02*
X142290000Y-87450000D01*
X141290000Y-82370000D02*
X141290000Y-87450000D01*
X142290000Y-82370000D02*
X141290000Y-82370000D01*
X142290000Y-112600000D02*
X141290000Y-112600000D01*
X140860000Y-107770000D02*
X141290000Y-107770000D01*
X140860000Y-112600000D02*
X140860000Y-107770000D01*
X141290000Y-112850000D02*
X140860000Y-112600000D01*
X141290000Y-107770000D02*
X142290000Y-107770000D01*
X141290000Y-112850000D02*
X141290000Y-107770000D01*
X142290000Y-112850000D02*
X141290000Y-112850000D01*
X136290000Y-81000000D02*
X136290000Y-114220000D01*
X142290000Y-81000000D02*
X136290000Y-81000000D01*
X142290000Y-114220000D02*
X142290000Y-81000000D01*
X136290000Y-114220000D02*
X142290000Y-114220000D01*
D12*
X116930000Y-143330000D02*
G75*
G03X116930000Y-143330000I-1750000J0D01*
G01*
X119470000Y-58240000D02*
G75*
G03X119470000Y-58240000I-1750000J0D01*
G01*
X110580000Y-65860000D02*
G75*
G03X110580000Y-65860000I-1750000J0D01*
G01*
X110580000Y-72210000D02*
G75*
G03X110580000Y-72210000I-1750000J0D01*
G01*
X110580000Y-78560000D02*
G75*
G03X110580000Y-78560000I-1750000J0D01*
G01*
X110580000Y-84910000D02*
G75*
G03X110580000Y-84910000I-1750000J0D01*
G01*
X110580000Y-91260000D02*
G75*
G03X110580000Y-91260000I-1750000J0D01*
G01*
X110580000Y-97610000D02*
G75*
G03X110580000Y-97610000I-1750000J0D01*
G01*
X110580000Y-103960000D02*
G75*
G03X110580000Y-103960000I-1750000J0D01*
G01*
X110580000Y-110310000D02*
G75*
G03X110580000Y-110310000I-1750000J0D01*
G01*
X110580000Y-129360000D02*
G75*
G03X110580000Y-129360000I-1750000J0D01*
G01*
X110580000Y-116660000D02*
G75*
G03X110580000Y-116660000I-1750000J0D01*
G01*
X110580000Y-123010000D02*
G75*
G03X110580000Y-123010000I-1750000J0D01*
G01*
D13*
G36*
X139275022Y-133617039D02*
X139582668Y-133699318D01*
X140209242Y-133973482D01*
X140813510Y-134393275D01*
X141362345Y-134935341D01*
X141401770Y-134981975D01*
X141614432Y-135247321D01*
X141784812Y-135479225D01*
X141892543Y-135647853D01*
X141917260Y-135723370D01*
X141908479Y-135724302D01*
X141837298Y-135670987D01*
X141668916Y-135534039D01*
X141435169Y-135339479D01*
X141349559Y-135267442D01*
X140637133Y-134738873D01*
X139919895Y-134358433D01*
X139183426Y-134124838D01*
X138413309Y-134036807D01*
X137595127Y-134093057D01*
X136714463Y-134292308D01*
X135756897Y-134633276D01*
X135490314Y-134746400D01*
X135121517Y-134901373D01*
X134896415Y-134982557D01*
X134808855Y-134995023D01*
X134852683Y-134943842D01*
X135021746Y-134834085D01*
X135309890Y-134670824D01*
X135710962Y-134459130D01*
X136042334Y-134291458D01*
X136821464Y-133934603D01*
X137507658Y-133693189D01*
X138127555Y-133562760D01*
X138707797Y-133538863D01*
X139275022Y-133617039D01*
X139275022Y-133617039D01*
G37*
X139275022Y-133617039D02*
X139582668Y-133699318D01*
X140209242Y-133973482D01*
X140813510Y-134393275D01*
X141362345Y-134935341D01*
X141401770Y-134981975D01*
X141614432Y-135247321D01*
X141784812Y-135479225D01*
X141892543Y-135647853D01*
X141917260Y-135723370D01*
X141908479Y-135724302D01*
X141837298Y-135670987D01*
X141668916Y-135534039D01*
X141435169Y-135339479D01*
X141349559Y-135267442D01*
X140637133Y-134738873D01*
X139919895Y-134358433D01*
X139183426Y-134124838D01*
X138413309Y-134036807D01*
X137595127Y-134093057D01*
X136714463Y-134292308D01*
X135756897Y-134633276D01*
X135490314Y-134746400D01*
X135121517Y-134901373D01*
X134896415Y-134982557D01*
X134808855Y-134995023D01*
X134852683Y-134943842D01*
X135021746Y-134834085D01*
X135309890Y-134670824D01*
X135710962Y-134459130D01*
X136042334Y-134291458D01*
X136821464Y-133934603D01*
X137507658Y-133693189D01*
X138127555Y-133562760D01*
X138707797Y-133538863D01*
X139275022Y-133617039D01*
G36*
X135388000Y-137008171D02*
X135578544Y-137035224D01*
X135642975Y-137084973D01*
X135640591Y-137105834D01*
X135537889Y-137201847D01*
X135421868Y-137238722D01*
X135278364Y-137310816D01*
X135236844Y-137492722D01*
X135207513Y-137807587D01*
X135131073Y-138021292D01*
X135019432Y-138100663D01*
X135018575Y-138100667D01*
X134958213Y-138075620D01*
X134936959Y-137980418D01*
X134955037Y-137784973D01*
X135012673Y-137459193D01*
X135023775Y-137402167D01*
X134991544Y-137277742D01*
X134898463Y-137254000D01*
X134752358Y-137208815D01*
X134712284Y-137158517D01*
X134661169Y-137178527D01*
X134556145Y-137320276D01*
X134418902Y-137553984D01*
X134403930Y-137581851D01*
X134250318Y-137840806D01*
X134110268Y-138026760D01*
X134013380Y-138100593D01*
X134011376Y-138100667D01*
X133921830Y-138023915D01*
X133821428Y-137819296D01*
X133762341Y-137643136D01*
X133673659Y-137320851D01*
X133638360Y-137127502D01*
X133656067Y-137031449D01*
X133726406Y-137001054D01*
X133754720Y-137000000D01*
X133861642Y-137072943D01*
X133931125Y-137232834D01*
X133997921Y-137502998D01*
X134057097Y-137614036D01*
X134128480Y-137573914D01*
X134231897Y-137390599D01*
X134247167Y-137359834D01*
X134424694Y-137000000D01*
X135050069Y-137000000D01*
X135388000Y-137008171D01*
X135388000Y-137008171D01*
G37*
X135388000Y-137008171D02*
X135578544Y-137035224D01*
X135642975Y-137084973D01*
X135640591Y-137105834D01*
X135537889Y-137201847D01*
X135421868Y-137238722D01*
X135278364Y-137310816D01*
X135236844Y-137492722D01*
X135207513Y-137807587D01*
X135131073Y-138021292D01*
X135019432Y-138100663D01*
X135018575Y-138100667D01*
X134958213Y-138075620D01*
X134936959Y-137980418D01*
X134955037Y-137784973D01*
X135012673Y-137459193D01*
X135023775Y-137402167D01*
X134991544Y-137277742D01*
X134898463Y-137254000D01*
X134752358Y-137208815D01*
X134712284Y-137158517D01*
X134661169Y-137178527D01*
X134556145Y-137320276D01*
X134418902Y-137553984D01*
X134403930Y-137581851D01*
X134250318Y-137840806D01*
X134110268Y-138026760D01*
X134013380Y-138100593D01*
X134011376Y-138100667D01*
X133921830Y-138023915D01*
X133821428Y-137819296D01*
X133762341Y-137643136D01*
X133673659Y-137320851D01*
X133638360Y-137127502D01*
X133656067Y-137031449D01*
X133726406Y-137001054D01*
X133754720Y-137000000D01*
X133861642Y-137072943D01*
X133931125Y-137232834D01*
X133997921Y-137502998D01*
X134057097Y-137614036D01*
X134128480Y-137573914D01*
X134231897Y-137390599D01*
X134247167Y-137359834D01*
X134424694Y-137000000D01*
X135050069Y-137000000D01*
X135388000Y-137008171D01*
G36*
X132456219Y-137013596D02*
X132586244Y-137060668D01*
X132613334Y-137127000D01*
X132543050Y-137230509D01*
X132446916Y-137254000D01*
X132341195Y-137285175D01*
X132274996Y-137404676D01*
X132227834Y-137651465D01*
X132224342Y-137677334D01*
X132164866Y-137963175D01*
X132081182Y-138091210D01*
X132044148Y-138100667D01*
X131973253Y-138068698D01*
X131952093Y-137948218D01*
X131974936Y-137702366D01*
X131978334Y-137677334D01*
X132004950Y-137423201D01*
X131989181Y-137295507D01*
X131923926Y-137255076D01*
X131901612Y-137254000D01*
X131784343Y-137189644D01*
X131766667Y-137127000D01*
X131811986Y-137047135D01*
X131968894Y-137008127D01*
X132190000Y-137000000D01*
X132456219Y-137013596D01*
X132456219Y-137013596D01*
G37*
X132456219Y-137013596D02*
X132586244Y-137060668D01*
X132613334Y-137127000D01*
X132543050Y-137230509D01*
X132446916Y-137254000D01*
X132341195Y-137285175D01*
X132274996Y-137404676D01*
X132227834Y-137651465D01*
X132224342Y-137677334D01*
X132164866Y-137963175D01*
X132081182Y-138091210D01*
X132044148Y-138100667D01*
X131973253Y-138068698D01*
X131952093Y-137948218D01*
X131974936Y-137702366D01*
X131978334Y-137677334D01*
X132004950Y-137423201D01*
X131989181Y-137295507D01*
X131923926Y-137255076D01*
X131901612Y-137254000D01*
X131784343Y-137189644D01*
X131766667Y-137127000D01*
X131811986Y-137047135D01*
X131968894Y-137008127D01*
X132190000Y-137000000D01*
X132456219Y-137013596D01*
G36*
X133417135Y-137043696D02*
X133438412Y-137105834D01*
X133335971Y-137188619D01*
X133206000Y-137211667D01*
X133023919Y-137251982D01*
X132989271Y-137348427D01*
X133107901Y-137464247D01*
X133161474Y-137491596D01*
X133335609Y-137639319D01*
X133360343Y-137828490D01*
X133233769Y-138017372D01*
X133187161Y-138053533D01*
X132976083Y-138167544D01*
X132804919Y-138159270D01*
X132708320Y-138108836D01*
X132627683Y-138007447D01*
X132682926Y-137927410D01*
X132840992Y-137901665D01*
X132907646Y-137910225D01*
X133075718Y-137900631D01*
X133121882Y-137815169D01*
X133042230Y-137699420D01*
X132931328Y-137633910D01*
X132755049Y-137484940D01*
X132712433Y-137284311D01*
X132786042Y-137122933D01*
X132914838Y-137044772D01*
X133101927Y-137004491D01*
X133288847Y-137003621D01*
X133417135Y-137043696D01*
X133417135Y-137043696D01*
G37*
X133417135Y-137043696D02*
X133438412Y-137105834D01*
X133335971Y-137188619D01*
X133206000Y-137211667D01*
X133023919Y-137251982D01*
X132989271Y-137348427D01*
X133107901Y-137464247D01*
X133161474Y-137491596D01*
X133335609Y-137639319D01*
X133360343Y-137828490D01*
X133233769Y-138017372D01*
X133187161Y-138053533D01*
X132976083Y-138167544D01*
X132804919Y-138159270D01*
X132708320Y-138108836D01*
X132627683Y-138007447D01*
X132682926Y-137927410D01*
X132840992Y-137901665D01*
X132907646Y-137910225D01*
X133075718Y-137900631D01*
X133121882Y-137815169D01*
X133042230Y-137699420D01*
X132931328Y-137633910D01*
X132755049Y-137484940D01*
X132712433Y-137284311D01*
X132786042Y-137122933D01*
X132914838Y-137044772D01*
X133101927Y-137004491D01*
X133288847Y-137003621D01*
X133417135Y-137043696D01*
G36*
X131578617Y-137069315D02*
X131595314Y-137148167D01*
X131571556Y-137362794D01*
X131516406Y-137622471D01*
X131447108Y-137860123D01*
X131380907Y-138008676D01*
X131371082Y-138020361D01*
X131181009Y-138115001D01*
X130932331Y-138143677D01*
X130729500Y-138095932D01*
X130630859Y-137960585D01*
X130580401Y-137736812D01*
X130575347Y-137476811D01*
X130612919Y-137232782D01*
X130690335Y-137056923D01*
X130787858Y-137000000D01*
X130847526Y-137058109D01*
X130864710Y-137246093D01*
X130852373Y-137473009D01*
X130834174Y-137740789D01*
X130846265Y-137878448D01*
X130902683Y-137924415D01*
X131014740Y-137917509D01*
X131138993Y-137875283D01*
X131217221Y-137763762D01*
X131274798Y-137539613D01*
X131291741Y-137444500D01*
X131361395Y-137158155D01*
X131445765Y-137013690D01*
X131482241Y-137000000D01*
X131578617Y-137069315D01*
X131578617Y-137069315D01*
G37*
X131578617Y-137069315D02*
X131595314Y-137148167D01*
X131571556Y-137362794D01*
X131516406Y-137622471D01*
X131447108Y-137860123D01*
X131380907Y-138008676D01*
X131371082Y-138020361D01*
X131181009Y-138115001D01*
X130932331Y-138143677D01*
X130729500Y-138095932D01*
X130630859Y-137960585D01*
X130580401Y-137736812D01*
X130575347Y-137476811D01*
X130612919Y-137232782D01*
X130690335Y-137056923D01*
X130787858Y-137000000D01*
X130847526Y-137058109D01*
X130864710Y-137246093D01*
X130852373Y-137473009D01*
X130834174Y-137740789D01*
X130846265Y-137878448D01*
X130902683Y-137924415D01*
X131014740Y-137917509D01*
X131138993Y-137875283D01*
X131217221Y-137763762D01*
X131274798Y-137539613D01*
X131291741Y-137444500D01*
X131361395Y-137158155D01*
X131445765Y-137013690D01*
X131482241Y-137000000D01*
X131578617Y-137069315D01*
G36*
X135003943Y-135755662D02*
X136618301Y-135809837D01*
X138386221Y-135895813D01*
X140306529Y-136013673D01*
X140572000Y-136031663D01*
X141224946Y-136077680D01*
X141915556Y-136128602D01*
X142593333Y-136180553D01*
X143207778Y-136229655D01*
X143708393Y-136272030D01*
X143747000Y-136275458D01*
X145017000Y-136388801D01*
X143112000Y-136334567D01*
X142295080Y-136314732D01*
X141409053Y-136299324D01*
X140473882Y-136288234D01*
X139509527Y-136281357D01*
X138535950Y-136278585D01*
X137573113Y-136279811D01*
X136640978Y-136284927D01*
X135759507Y-136293828D01*
X134948660Y-136306404D01*
X134228401Y-136322551D01*
X133618690Y-136342159D01*
X133139489Y-136365123D01*
X132825000Y-136389767D01*
X131850440Y-136509425D01*
X131037746Y-136642204D01*
X130379780Y-136790644D01*
X129869406Y-136957283D01*
X129499487Y-137144661D01*
X129262886Y-137355318D01*
X129152467Y-137591793D01*
X129142000Y-137700189D01*
X129191925Y-137942824D01*
X129312500Y-138186887D01*
X129317099Y-138193430D01*
X129415263Y-138345554D01*
X129425725Y-138413634D01*
X129335276Y-138395003D01*
X129130705Y-138286997D01*
X128803334Y-138089745D01*
X128374626Y-137799938D01*
X128010792Y-137505182D01*
X127738285Y-137229932D01*
X127583559Y-136998643D01*
X127564892Y-136944878D01*
X127578979Y-136685570D01*
X127758382Y-136457240D01*
X128101926Y-136259968D01*
X128608435Y-136093839D01*
X129276734Y-135958934D01*
X130105647Y-135855336D01*
X131094000Y-135783127D01*
X132240618Y-135742390D01*
X133544323Y-135733208D01*
X135003943Y-135755662D01*
X135003943Y-135755662D01*
G37*
X135003943Y-135755662D02*
X136618301Y-135809837D01*
X138386221Y-135895813D01*
X140306529Y-136013673D01*
X140572000Y-136031663D01*
X141224946Y-136077680D01*
X141915556Y-136128602D01*
X142593333Y-136180553D01*
X143207778Y-136229655D01*
X143708393Y-136272030D01*
X143747000Y-136275458D01*
X145017000Y-136388801D01*
X143112000Y-136334567D01*
X142295080Y-136314732D01*
X141409053Y-136299324D01*
X140473882Y-136288234D01*
X139509527Y-136281357D01*
X138535950Y-136278585D01*
X137573113Y-136279811D01*
X136640978Y-136284927D01*
X135759507Y-136293828D01*
X134948660Y-136306404D01*
X134228401Y-136322551D01*
X133618690Y-136342159D01*
X133139489Y-136365123D01*
X132825000Y-136389767D01*
X131850440Y-136509425D01*
X131037746Y-136642204D01*
X130379780Y-136790644D01*
X129869406Y-136957283D01*
X129499487Y-137144661D01*
X129262886Y-137355318D01*
X129152467Y-137591793D01*
X129142000Y-137700189D01*
X129191925Y-137942824D01*
X129312500Y-138186887D01*
X129317099Y-138193430D01*
X129415263Y-138345554D01*
X129425725Y-138413634D01*
X129335276Y-138395003D01*
X129130705Y-138286997D01*
X128803334Y-138089745D01*
X128374626Y-137799938D01*
X128010792Y-137505182D01*
X127738285Y-137229932D01*
X127583559Y-136998643D01*
X127564892Y-136944878D01*
X127578979Y-136685570D01*
X127758382Y-136457240D01*
X128101926Y-136259968D01*
X128608435Y-136093839D01*
X129276734Y-135958934D01*
X130105647Y-135855336D01*
X131094000Y-135783127D01*
X132240618Y-135742390D01*
X133544323Y-135733208D01*
X135003943Y-135755662D01*
G36*
X140226616Y-136594884D02*
X140993095Y-136676699D01*
X141664321Y-136821139D01*
X141799667Y-136862989D01*
X142436279Y-137119973D01*
X142931666Y-137417975D01*
X143281375Y-137748364D01*
X143480952Y-138102511D01*
X143525944Y-138471786D01*
X143411897Y-138847560D01*
X143134357Y-139221203D01*
X143056059Y-139297501D01*
X142596706Y-139619800D01*
X142014328Y-139861745D01*
X141338434Y-140016518D01*
X140598531Y-140077305D01*
X139843722Y-140039577D01*
X139451259Y-139975619D01*
X139045114Y-139880150D01*
X138773042Y-139794726D01*
X138404244Y-139630908D01*
X138002742Y-139411585D01*
X137619164Y-139168294D01*
X137304138Y-138932570D01*
X137143000Y-138779358D01*
X136973667Y-138585501D01*
X137227667Y-138714686D01*
X137882755Y-138977412D01*
X138626130Y-139157303D01*
X139415448Y-139252579D01*
X140208366Y-139261459D01*
X140962542Y-139182163D01*
X141635632Y-139012909D01*
X141892139Y-138910870D01*
X142318518Y-138668059D01*
X142580214Y-138408225D01*
X142680009Y-138139425D01*
X142620686Y-137869717D01*
X142405027Y-137607160D01*
X142035815Y-137359810D01*
X141515831Y-137135726D01*
X141249334Y-137049350D01*
X140433203Y-136875229D01*
X139530398Y-136802743D01*
X138588694Y-136830587D01*
X137655866Y-136957453D01*
X136814889Y-137170601D01*
X136482610Y-137273953D01*
X136217131Y-137349913D01*
X136054974Y-137388382D01*
X136022758Y-137389647D01*
X136065005Y-137335450D01*
X136238575Y-137248737D01*
X136511235Y-137140844D01*
X136850752Y-137023111D01*
X137224894Y-136906876D01*
X137601428Y-136803478D01*
X137866657Y-136741034D01*
X138612297Y-136625467D01*
X139415983Y-136577279D01*
X140226616Y-136594884D01*
X140226616Y-136594884D01*
G37*
X140226616Y-136594884D02*
X140993095Y-136676699D01*
X141664321Y-136821139D01*
X141799667Y-136862989D01*
X142436279Y-137119973D01*
X142931666Y-137417975D01*
X143281375Y-137748364D01*
X143480952Y-138102511D01*
X143525944Y-138471786D01*
X143411897Y-138847560D01*
X143134357Y-139221203D01*
X143056059Y-139297501D01*
X142596706Y-139619800D01*
X142014328Y-139861745D01*
X141338434Y-140016518D01*
X140598531Y-140077305D01*
X139843722Y-140039577D01*
X139451259Y-139975619D01*
X139045114Y-139880150D01*
X138773042Y-139794726D01*
X138404244Y-139630908D01*
X138002742Y-139411585D01*
X137619164Y-139168294D01*
X137304138Y-138932570D01*
X137143000Y-138779358D01*
X136973667Y-138585501D01*
X137227667Y-138714686D01*
X137882755Y-138977412D01*
X138626130Y-139157303D01*
X139415448Y-139252579D01*
X140208366Y-139261459D01*
X140962542Y-139182163D01*
X141635632Y-139012909D01*
X141892139Y-138910870D01*
X142318518Y-138668059D01*
X142580214Y-138408225D01*
X142680009Y-138139425D01*
X142620686Y-137869717D01*
X142405027Y-137607160D01*
X142035815Y-137359810D01*
X141515831Y-137135726D01*
X141249334Y-137049350D01*
X140433203Y-136875229D01*
X139530398Y-136802743D01*
X138588694Y-136830587D01*
X137655866Y-136957453D01*
X136814889Y-137170601D01*
X136482610Y-137273953D01*
X136217131Y-137349913D01*
X136054974Y-137388382D01*
X136022758Y-137389647D01*
X136065005Y-137335450D01*
X136238575Y-137248737D01*
X136511235Y-137140844D01*
X136850752Y-137023111D01*
X137224894Y-136906876D01*
X137601428Y-136803478D01*
X137866657Y-136741034D01*
X138612297Y-136625467D01*
X139415983Y-136577279D01*
X140226616Y-136594884D01*
G36*
X136948417Y-137959313D02*
X136764990Y-138093627D01*
X136494708Y-138278048D01*
X136166558Y-138493760D01*
X135809526Y-138721948D01*
X135452599Y-138943795D01*
X135124765Y-139140486D01*
X134887621Y-139275489D01*
X134140408Y-139642640D01*
X133410966Y-139921038D01*
X132722950Y-140105144D01*
X132100012Y-140189424D01*
X131565807Y-140168339D01*
X131320343Y-140110469D01*
X130836869Y-139864277D01*
X130435459Y-139472205D01*
X130149551Y-139000429D01*
X130034503Y-138733420D01*
X129951827Y-138497845D01*
X129905925Y-138318973D01*
X129901199Y-138222074D01*
X129942050Y-138232418D01*
X130032879Y-138375274D01*
X130044449Y-138397000D01*
X130377640Y-138860842D01*
X130826388Y-139234930D01*
X130962334Y-139314921D01*
X131135425Y-139396448D01*
X131320015Y-139449418D01*
X131557005Y-139479376D01*
X131887296Y-139491869D01*
X132274667Y-139492887D01*
X132736913Y-139485070D01*
X133092277Y-139460514D01*
X133403059Y-139409661D01*
X133731558Y-139322955D01*
X134052667Y-139220125D01*
X134445692Y-139074784D01*
X134927735Y-138874941D01*
X135438793Y-138646511D01*
X135918863Y-138415408D01*
X135936500Y-138406512D01*
X136320340Y-138214671D01*
X136644034Y-138057028D01*
X136880927Y-137946240D01*
X137004364Y-137894964D01*
X137016000Y-137893923D01*
X136948417Y-137959313D01*
X136948417Y-137959313D01*
G37*
X136948417Y-137959313D02*
X136764990Y-138093627D01*
X136494708Y-138278048D01*
X136166558Y-138493760D01*
X135809526Y-138721948D01*
X135452599Y-138943795D01*
X135124765Y-139140486D01*
X134887621Y-139275489D01*
X134140408Y-139642640D01*
X133410966Y-139921038D01*
X132722950Y-140105144D01*
X132100012Y-140189424D01*
X131565807Y-140168339D01*
X131320343Y-140110469D01*
X130836869Y-139864277D01*
X130435459Y-139472205D01*
X130149551Y-139000429D01*
X130034503Y-138733420D01*
X129951827Y-138497845D01*
X129905925Y-138318973D01*
X129901199Y-138222074D01*
X129942050Y-138232418D01*
X130032879Y-138375274D01*
X130044449Y-138397000D01*
X130377640Y-138860842D01*
X130826388Y-139234930D01*
X130962334Y-139314921D01*
X131135425Y-139396448D01*
X131320015Y-139449418D01*
X131557005Y-139479376D01*
X131887296Y-139491869D01*
X132274667Y-139492887D01*
X132736913Y-139485070D01*
X133092277Y-139460514D01*
X133403059Y-139409661D01*
X133731558Y-139322955D01*
X134052667Y-139220125D01*
X134445692Y-139074784D01*
X134927735Y-138874941D01*
X135438793Y-138646511D01*
X135918863Y-138415408D01*
X135936500Y-138406512D01*
X136320340Y-138214671D01*
X136644034Y-138057028D01*
X136880927Y-137946240D01*
X137004364Y-137894964D01*
X137016000Y-137893923D01*
X136948417Y-137959313D01*
D12*
X133563166Y-58780380D02*
X133563166Y-59494666D01*
X133515547Y-59637523D01*
X133420309Y-59732761D01*
X133277452Y-59780380D01*
X133182214Y-59780380D01*
X133991738Y-58875619D02*
X134039357Y-58828000D01*
X134134595Y-58780380D01*
X134372690Y-58780380D01*
X134467928Y-58828000D01*
X134515547Y-58875619D01*
X134563166Y-58970857D01*
X134563166Y-59066095D01*
X134515547Y-59208952D01*
X133944119Y-59780380D01*
X134563166Y-59780380D01*
X117029523Y-62652380D02*
X116458095Y-62652380D01*
X116743809Y-62652380D02*
X116743809Y-61652380D01*
X116648571Y-61795238D01*
X116553333Y-61890476D01*
X116458095Y-61938095D01*
X117458095Y-62652380D02*
X117458095Y-61652380D01*
X118029523Y-62652380D02*
X117600952Y-62080952D01*
X118029523Y-61652380D02*
X117458095Y-62223809D01*
X118981904Y-62652380D02*
X118410476Y-62652380D01*
X118696190Y-62652380D02*
X118696190Y-61652380D01*
X118600952Y-61795238D01*
X118505714Y-61890476D01*
X118410476Y-61938095D01*
X117029523Y-69002380D02*
X116458095Y-69002380D01*
X116743809Y-69002380D02*
X116743809Y-68002380D01*
X116648571Y-68145238D01*
X116553333Y-68240476D01*
X116458095Y-68288095D01*
X117458095Y-69002380D02*
X117458095Y-68002380D01*
X118029523Y-69002380D02*
X117600952Y-68430952D01*
X118029523Y-68002380D02*
X117458095Y-68573809D01*
X118410476Y-68097619D02*
X118458095Y-68050000D01*
X118553333Y-68002380D01*
X118791428Y-68002380D01*
X118886666Y-68050000D01*
X118934285Y-68097619D01*
X118981904Y-68192857D01*
X118981904Y-68288095D01*
X118934285Y-68430952D01*
X118362857Y-69002380D01*
X118981904Y-69002380D01*
X117029523Y-75352380D02*
X116458095Y-75352380D01*
X116743809Y-75352380D02*
X116743809Y-74352380D01*
X116648571Y-74495238D01*
X116553333Y-74590476D01*
X116458095Y-74638095D01*
X117458095Y-75352380D02*
X117458095Y-74352380D01*
X118029523Y-75352380D02*
X117600952Y-74780952D01*
X118029523Y-74352380D02*
X117458095Y-74923809D01*
X118362857Y-74352380D02*
X118981904Y-74352380D01*
X118648571Y-74733333D01*
X118791428Y-74733333D01*
X118886666Y-74780952D01*
X118934285Y-74828571D01*
X118981904Y-74923809D01*
X118981904Y-75161904D01*
X118934285Y-75257142D01*
X118886666Y-75304761D01*
X118791428Y-75352380D01*
X118505714Y-75352380D01*
X118410476Y-75304761D01*
X118362857Y-75257142D01*
X117029523Y-81702380D02*
X116458095Y-81702380D01*
X116743809Y-81702380D02*
X116743809Y-80702380D01*
X116648571Y-80845238D01*
X116553333Y-80940476D01*
X116458095Y-80988095D01*
X117458095Y-81702380D02*
X117458095Y-80702380D01*
X118029523Y-81702380D02*
X117600952Y-81130952D01*
X118029523Y-80702380D02*
X117458095Y-81273809D01*
X118886666Y-81035714D02*
X118886666Y-81702380D01*
X118648571Y-80654761D02*
X118410476Y-81369047D01*
X119029523Y-81369047D01*
X117029523Y-88052380D02*
X116458095Y-88052380D01*
X116743809Y-88052380D02*
X116743809Y-87052380D01*
X116648571Y-87195238D01*
X116553333Y-87290476D01*
X116458095Y-87338095D01*
X117458095Y-88052380D02*
X117458095Y-87052380D01*
X118029523Y-88052380D02*
X117600952Y-87480952D01*
X118029523Y-87052380D02*
X117458095Y-87623809D01*
X118934285Y-87052380D02*
X118458095Y-87052380D01*
X118410476Y-87528571D01*
X118458095Y-87480952D01*
X118553333Y-87433333D01*
X118791428Y-87433333D01*
X118886666Y-87480952D01*
X118934285Y-87528571D01*
X118981904Y-87623809D01*
X118981904Y-87861904D01*
X118934285Y-87957142D01*
X118886666Y-88004761D01*
X118791428Y-88052380D01*
X118553333Y-88052380D01*
X118458095Y-88004761D01*
X118410476Y-87957142D01*
X117029523Y-94402380D02*
X116458095Y-94402380D01*
X116743809Y-94402380D02*
X116743809Y-93402380D01*
X116648571Y-93545238D01*
X116553333Y-93640476D01*
X116458095Y-93688095D01*
X117458095Y-94402380D02*
X117458095Y-93402380D01*
X118029523Y-94402380D02*
X117600952Y-93830952D01*
X118029523Y-93402380D02*
X117458095Y-93973809D01*
X118886666Y-93402380D02*
X118696190Y-93402380D01*
X118600952Y-93450000D01*
X118553333Y-93497619D01*
X118458095Y-93640476D01*
X118410476Y-93830952D01*
X118410476Y-94211904D01*
X118458095Y-94307142D01*
X118505714Y-94354761D01*
X118600952Y-94402380D01*
X118791428Y-94402380D01*
X118886666Y-94354761D01*
X118934285Y-94307142D01*
X118981904Y-94211904D01*
X118981904Y-93973809D01*
X118934285Y-93878571D01*
X118886666Y-93830952D01*
X118791428Y-93783333D01*
X118600952Y-93783333D01*
X118505714Y-93830952D01*
X118458095Y-93878571D01*
X118410476Y-93973809D01*
X117029523Y-100752380D02*
X116458095Y-100752380D01*
X116743809Y-100752380D02*
X116743809Y-99752380D01*
X116648571Y-99895238D01*
X116553333Y-99990476D01*
X116458095Y-100038095D01*
X117458095Y-100752380D02*
X117458095Y-99752380D01*
X118029523Y-100752380D02*
X117600952Y-100180952D01*
X118029523Y-99752380D02*
X117458095Y-100323809D01*
X118362857Y-99752380D02*
X119029523Y-99752380D01*
X118600952Y-100752380D01*
X117029523Y-107102380D02*
X116458095Y-107102380D01*
X116743809Y-107102380D02*
X116743809Y-106102380D01*
X116648571Y-106245238D01*
X116553333Y-106340476D01*
X116458095Y-106388095D01*
X117458095Y-107102380D02*
X117458095Y-106102380D01*
X118029523Y-107102380D02*
X117600952Y-106530952D01*
X118029523Y-106102380D02*
X117458095Y-106673809D01*
X118600952Y-106530952D02*
X118505714Y-106483333D01*
X118458095Y-106435714D01*
X118410476Y-106340476D01*
X118410476Y-106292857D01*
X118458095Y-106197619D01*
X118505714Y-106150000D01*
X118600952Y-106102380D01*
X118791428Y-106102380D01*
X118886666Y-106150000D01*
X118934285Y-106197619D01*
X118981904Y-106292857D01*
X118981904Y-106340476D01*
X118934285Y-106435714D01*
X118886666Y-106483333D01*
X118791428Y-106530952D01*
X118600952Y-106530952D01*
X118505714Y-106578571D01*
X118458095Y-106626190D01*
X118410476Y-106721428D01*
X118410476Y-106911904D01*
X118458095Y-107007142D01*
X118505714Y-107054761D01*
X118600952Y-107102380D01*
X118791428Y-107102380D01*
X118886666Y-107054761D01*
X118934285Y-107007142D01*
X118981904Y-106911904D01*
X118981904Y-106721428D01*
X118934285Y-106626190D01*
X118886666Y-106578571D01*
X118791428Y-106530952D01*
X117029523Y-113452380D02*
X116458095Y-113452380D01*
X116743809Y-113452380D02*
X116743809Y-112452380D01*
X116648571Y-112595238D01*
X116553333Y-112690476D01*
X116458095Y-112738095D01*
X117458095Y-113452380D02*
X117458095Y-112452380D01*
X118029523Y-113452380D02*
X117600952Y-112880952D01*
X118029523Y-112452380D02*
X117458095Y-113023809D01*
X118505714Y-113452380D02*
X118696190Y-113452380D01*
X118791428Y-113404761D01*
X118839047Y-113357142D01*
X118934285Y-113214285D01*
X118981904Y-113023809D01*
X118981904Y-112642857D01*
X118934285Y-112547619D01*
X118886666Y-112500000D01*
X118791428Y-112452380D01*
X118600952Y-112452380D01*
X118505714Y-112500000D01*
X118458095Y-112547619D01*
X118410476Y-112642857D01*
X118410476Y-112880952D01*
X118458095Y-112976190D01*
X118505714Y-113023809D01*
X118600952Y-113071428D01*
X118791428Y-113071428D01*
X118886666Y-113023809D01*
X118934285Y-112976190D01*
X118981904Y-112880952D01*
X116553333Y-119802380D02*
X115981904Y-119802380D01*
X116267619Y-119802380D02*
X116267619Y-118802380D01*
X116172380Y-118945238D01*
X116077142Y-119040476D01*
X115981904Y-119088095D01*
X116981904Y-119802380D02*
X116981904Y-118802380D01*
X117553333Y-119802380D02*
X117124761Y-119230952D01*
X117553333Y-118802380D02*
X116981904Y-119373809D01*
X118505714Y-119802380D02*
X117934285Y-119802380D01*
X118220000Y-119802380D02*
X118220000Y-118802380D01*
X118124761Y-118945238D01*
X118029523Y-119040476D01*
X117934285Y-119088095D01*
X119124761Y-118802380D02*
X119220000Y-118802380D01*
X119315238Y-118850000D01*
X119362857Y-118897619D01*
X119410476Y-118992857D01*
X119458095Y-119183333D01*
X119458095Y-119421428D01*
X119410476Y-119611904D01*
X119362857Y-119707142D01*
X119315238Y-119754761D01*
X119220000Y-119802380D01*
X119124761Y-119802380D01*
X119029523Y-119754761D01*
X118981904Y-119707142D01*
X118934285Y-119611904D01*
X118886666Y-119421428D01*
X118886666Y-119183333D01*
X118934285Y-118992857D01*
X118981904Y-118897619D01*
X119029523Y-118850000D01*
X119124761Y-118802380D01*
X116553333Y-126152380D02*
X115981904Y-126152380D01*
X116267619Y-126152380D02*
X116267619Y-125152380D01*
X116172380Y-125295238D01*
X116077142Y-125390476D01*
X115981904Y-125438095D01*
X116981904Y-126152380D02*
X116981904Y-125152380D01*
X117553333Y-126152380D02*
X117124761Y-125580952D01*
X117553333Y-125152380D02*
X116981904Y-125723809D01*
X118505714Y-126152380D02*
X117934285Y-126152380D01*
X118220000Y-126152380D02*
X118220000Y-125152380D01*
X118124761Y-125295238D01*
X118029523Y-125390476D01*
X117934285Y-125438095D01*
X119458095Y-126152380D02*
X118886666Y-126152380D01*
X119172380Y-126152380D02*
X119172380Y-125152380D01*
X119077142Y-125295238D01*
X118981904Y-125390476D01*
X118886666Y-125438095D01*
X116553333Y-132502380D02*
X115981904Y-132502380D01*
X116267619Y-132502380D02*
X116267619Y-131502380D01*
X116172380Y-131645238D01*
X116077142Y-131740476D01*
X115981904Y-131788095D01*
X116981904Y-132502380D02*
X116981904Y-131502380D01*
X117553333Y-132502380D02*
X117124761Y-131930952D01*
X117553333Y-131502380D02*
X116981904Y-132073809D01*
X118505714Y-132502380D02*
X117934285Y-132502380D01*
X118220000Y-132502380D02*
X118220000Y-131502380D01*
X118124761Y-131645238D01*
X118029523Y-131740476D01*
X117934285Y-131788095D01*
X118886666Y-131597619D02*
X118934285Y-131550000D01*
X119029523Y-131502380D01*
X119267619Y-131502380D01*
X119362857Y-131550000D01*
X119410476Y-131597619D01*
X119458095Y-131692857D01*
X119458095Y-131788095D01*
X119410476Y-131930952D01*
X118839047Y-132502380D01*
X119458095Y-132502380D01*
X134262380Y-112183333D02*
X134976666Y-112183333D01*
X135119523Y-112230952D01*
X135214761Y-112326190D01*
X135262380Y-112469047D01*
X135262380Y-112564285D01*
X135262380Y-111183333D02*
X135262380Y-111754761D01*
X135262380Y-111469047D02*
X134262380Y-111469047D01*
X134405238Y-111564285D01*
X134500476Y-111659523D01*
X134548095Y-111754761D01*
X113918095Y-140032380D02*
X114489523Y-140032380D01*
X114203809Y-141032380D02*
X114203809Y-140032380D01*
X114822857Y-141032380D02*
X114822857Y-140032380D01*
X115203809Y-140032380D01*
X115299047Y-140080000D01*
X115346666Y-140127619D01*
X115394285Y-140222857D01*
X115394285Y-140365714D01*
X115346666Y-140460952D01*
X115299047Y-140508571D01*
X115203809Y-140556190D01*
X114822857Y-140556190D01*
X116346666Y-141032380D02*
X115775238Y-141032380D01*
X116060952Y-141032380D02*
X116060952Y-140032380D01*
X115965714Y-140175238D01*
X115870476Y-140270476D01*
X115775238Y-140318095D01*
X116458095Y-54942380D02*
X117029523Y-54942380D01*
X116743809Y-55942380D02*
X116743809Y-54942380D01*
X117362857Y-55942380D02*
X117362857Y-54942380D01*
X117743809Y-54942380D01*
X117839047Y-54990000D01*
X117886666Y-55037619D01*
X117934285Y-55132857D01*
X117934285Y-55275714D01*
X117886666Y-55370952D01*
X117839047Y-55418571D01*
X117743809Y-55466190D01*
X117362857Y-55466190D01*
X118315238Y-55037619D02*
X118362857Y-54990000D01*
X118458095Y-54942380D01*
X118696190Y-54942380D01*
X118791428Y-54990000D01*
X118839047Y-55037619D01*
X118886666Y-55132857D01*
X118886666Y-55228095D01*
X118839047Y-55370952D01*
X118267619Y-55942380D01*
X118886666Y-55942380D01*
X107568095Y-62562380D02*
X108139523Y-62562380D01*
X107853809Y-63562380D02*
X107853809Y-62562380D01*
X108472857Y-63562380D02*
X108472857Y-62562380D01*
X108853809Y-62562380D01*
X108949047Y-62610000D01*
X108996666Y-62657619D01*
X109044285Y-62752857D01*
X109044285Y-62895714D01*
X108996666Y-62990952D01*
X108949047Y-63038571D01*
X108853809Y-63086190D01*
X108472857Y-63086190D01*
X109377619Y-62562380D02*
X109996666Y-62562380D01*
X109663333Y-62943333D01*
X109806190Y-62943333D01*
X109901428Y-62990952D01*
X109949047Y-63038571D01*
X109996666Y-63133809D01*
X109996666Y-63371904D01*
X109949047Y-63467142D01*
X109901428Y-63514761D01*
X109806190Y-63562380D01*
X109520476Y-63562380D01*
X109425238Y-63514761D01*
X109377619Y-63467142D01*
X107568095Y-68912380D02*
X108139523Y-68912380D01*
X107853809Y-69912380D02*
X107853809Y-68912380D01*
X108472857Y-69912380D02*
X108472857Y-68912380D01*
X108853809Y-68912380D01*
X108949047Y-68960000D01*
X108996666Y-69007619D01*
X109044285Y-69102857D01*
X109044285Y-69245714D01*
X108996666Y-69340952D01*
X108949047Y-69388571D01*
X108853809Y-69436190D01*
X108472857Y-69436190D01*
X109901428Y-69245714D02*
X109901428Y-69912380D01*
X109663333Y-68864761D02*
X109425238Y-69579047D01*
X110044285Y-69579047D01*
X107568095Y-75262380D02*
X108139523Y-75262380D01*
X107853809Y-76262380D02*
X107853809Y-75262380D01*
X108472857Y-76262380D02*
X108472857Y-75262380D01*
X108853809Y-75262380D01*
X108949047Y-75310000D01*
X108996666Y-75357619D01*
X109044285Y-75452857D01*
X109044285Y-75595714D01*
X108996666Y-75690952D01*
X108949047Y-75738571D01*
X108853809Y-75786190D01*
X108472857Y-75786190D01*
X109949047Y-75262380D02*
X109472857Y-75262380D01*
X109425238Y-75738571D01*
X109472857Y-75690952D01*
X109568095Y-75643333D01*
X109806190Y-75643333D01*
X109901428Y-75690952D01*
X109949047Y-75738571D01*
X109996666Y-75833809D01*
X109996666Y-76071904D01*
X109949047Y-76167142D01*
X109901428Y-76214761D01*
X109806190Y-76262380D01*
X109568095Y-76262380D01*
X109472857Y-76214761D01*
X109425238Y-76167142D01*
X107568095Y-81612380D02*
X108139523Y-81612380D01*
X107853809Y-82612380D02*
X107853809Y-81612380D01*
X108472857Y-82612380D02*
X108472857Y-81612380D01*
X108853809Y-81612380D01*
X108949047Y-81660000D01*
X108996666Y-81707619D01*
X109044285Y-81802857D01*
X109044285Y-81945714D01*
X108996666Y-82040952D01*
X108949047Y-82088571D01*
X108853809Y-82136190D01*
X108472857Y-82136190D01*
X109901428Y-81612380D02*
X109710952Y-81612380D01*
X109615714Y-81660000D01*
X109568095Y-81707619D01*
X109472857Y-81850476D01*
X109425238Y-82040952D01*
X109425238Y-82421904D01*
X109472857Y-82517142D01*
X109520476Y-82564761D01*
X109615714Y-82612380D01*
X109806190Y-82612380D01*
X109901428Y-82564761D01*
X109949047Y-82517142D01*
X109996666Y-82421904D01*
X109996666Y-82183809D01*
X109949047Y-82088571D01*
X109901428Y-82040952D01*
X109806190Y-81993333D01*
X109615714Y-81993333D01*
X109520476Y-82040952D01*
X109472857Y-82088571D01*
X109425238Y-82183809D01*
X107568095Y-87962380D02*
X108139523Y-87962380D01*
X107853809Y-88962380D02*
X107853809Y-87962380D01*
X108472857Y-88962380D02*
X108472857Y-87962380D01*
X108853809Y-87962380D01*
X108949047Y-88010000D01*
X108996666Y-88057619D01*
X109044285Y-88152857D01*
X109044285Y-88295714D01*
X108996666Y-88390952D01*
X108949047Y-88438571D01*
X108853809Y-88486190D01*
X108472857Y-88486190D01*
X109377619Y-87962380D02*
X110044285Y-87962380D01*
X109615714Y-88962380D01*
X107568095Y-94312380D02*
X108139523Y-94312380D01*
X107853809Y-95312380D02*
X107853809Y-94312380D01*
X108472857Y-95312380D02*
X108472857Y-94312380D01*
X108853809Y-94312380D01*
X108949047Y-94360000D01*
X108996666Y-94407619D01*
X109044285Y-94502857D01*
X109044285Y-94645714D01*
X108996666Y-94740952D01*
X108949047Y-94788571D01*
X108853809Y-94836190D01*
X108472857Y-94836190D01*
X109615714Y-94740952D02*
X109520476Y-94693333D01*
X109472857Y-94645714D01*
X109425238Y-94550476D01*
X109425238Y-94502857D01*
X109472857Y-94407619D01*
X109520476Y-94360000D01*
X109615714Y-94312380D01*
X109806190Y-94312380D01*
X109901428Y-94360000D01*
X109949047Y-94407619D01*
X109996666Y-94502857D01*
X109996666Y-94550476D01*
X109949047Y-94645714D01*
X109901428Y-94693333D01*
X109806190Y-94740952D01*
X109615714Y-94740952D01*
X109520476Y-94788571D01*
X109472857Y-94836190D01*
X109425238Y-94931428D01*
X109425238Y-95121904D01*
X109472857Y-95217142D01*
X109520476Y-95264761D01*
X109615714Y-95312380D01*
X109806190Y-95312380D01*
X109901428Y-95264761D01*
X109949047Y-95217142D01*
X109996666Y-95121904D01*
X109996666Y-94931428D01*
X109949047Y-94836190D01*
X109901428Y-94788571D01*
X109806190Y-94740952D01*
X107568095Y-100662380D02*
X108139523Y-100662380D01*
X107853809Y-101662380D02*
X107853809Y-100662380D01*
X108472857Y-101662380D02*
X108472857Y-100662380D01*
X108853809Y-100662380D01*
X108949047Y-100710000D01*
X108996666Y-100757619D01*
X109044285Y-100852857D01*
X109044285Y-100995714D01*
X108996666Y-101090952D01*
X108949047Y-101138571D01*
X108853809Y-101186190D01*
X108472857Y-101186190D01*
X109520476Y-101662380D02*
X109710952Y-101662380D01*
X109806190Y-101614761D01*
X109853809Y-101567142D01*
X109949047Y-101424285D01*
X109996666Y-101233809D01*
X109996666Y-100852857D01*
X109949047Y-100757619D01*
X109901428Y-100710000D01*
X109806190Y-100662380D01*
X109615714Y-100662380D01*
X109520476Y-100710000D01*
X109472857Y-100757619D01*
X109425238Y-100852857D01*
X109425238Y-101090952D01*
X109472857Y-101186190D01*
X109520476Y-101233809D01*
X109615714Y-101281428D01*
X109806190Y-101281428D01*
X109901428Y-101233809D01*
X109949047Y-101186190D01*
X109996666Y-101090952D01*
X107091904Y-107012380D02*
X107663333Y-107012380D01*
X107377619Y-108012380D02*
X107377619Y-107012380D01*
X107996666Y-108012380D02*
X107996666Y-107012380D01*
X108377619Y-107012380D01*
X108472857Y-107060000D01*
X108520476Y-107107619D01*
X108568095Y-107202857D01*
X108568095Y-107345714D01*
X108520476Y-107440952D01*
X108472857Y-107488571D01*
X108377619Y-107536190D01*
X107996666Y-107536190D01*
X109520476Y-108012380D02*
X108949047Y-108012380D01*
X109234761Y-108012380D02*
X109234761Y-107012380D01*
X109139523Y-107155238D01*
X109044285Y-107250476D01*
X108949047Y-107298095D01*
X110139523Y-107012380D02*
X110234761Y-107012380D01*
X110330000Y-107060000D01*
X110377619Y-107107619D01*
X110425238Y-107202857D01*
X110472857Y-107393333D01*
X110472857Y-107631428D01*
X110425238Y-107821904D01*
X110377619Y-107917142D01*
X110330000Y-107964761D01*
X110234761Y-108012380D01*
X110139523Y-108012380D01*
X110044285Y-107964761D01*
X109996666Y-107917142D01*
X109949047Y-107821904D01*
X109901428Y-107631428D01*
X109901428Y-107393333D01*
X109949047Y-107202857D01*
X109996666Y-107107619D01*
X110044285Y-107060000D01*
X110139523Y-107012380D01*
X107091904Y-126062380D02*
X107663333Y-126062380D01*
X107377619Y-127062380D02*
X107377619Y-126062380D01*
X107996666Y-127062380D02*
X107996666Y-126062380D01*
X108377619Y-126062380D01*
X108472857Y-126110000D01*
X108520476Y-126157619D01*
X108568095Y-126252857D01*
X108568095Y-126395714D01*
X108520476Y-126490952D01*
X108472857Y-126538571D01*
X108377619Y-126586190D01*
X107996666Y-126586190D01*
X109520476Y-127062380D02*
X108949047Y-127062380D01*
X109234761Y-127062380D02*
X109234761Y-126062380D01*
X109139523Y-126205238D01*
X109044285Y-126300476D01*
X108949047Y-126348095D01*
X110472857Y-127062380D02*
X109901428Y-127062380D01*
X110187142Y-127062380D02*
X110187142Y-126062380D01*
X110091904Y-126205238D01*
X109996666Y-126300476D01*
X109901428Y-126348095D01*
X107091904Y-113362380D02*
X107663333Y-113362380D01*
X107377619Y-114362380D02*
X107377619Y-113362380D01*
X107996666Y-114362380D02*
X107996666Y-113362380D01*
X108377619Y-113362380D01*
X108472857Y-113410000D01*
X108520476Y-113457619D01*
X108568095Y-113552857D01*
X108568095Y-113695714D01*
X108520476Y-113790952D01*
X108472857Y-113838571D01*
X108377619Y-113886190D01*
X107996666Y-113886190D01*
X109520476Y-114362380D02*
X108949047Y-114362380D01*
X109234761Y-114362380D02*
X109234761Y-113362380D01*
X109139523Y-113505238D01*
X109044285Y-113600476D01*
X108949047Y-113648095D01*
X109901428Y-113457619D02*
X109949047Y-113410000D01*
X110044285Y-113362380D01*
X110282380Y-113362380D01*
X110377619Y-113410000D01*
X110425238Y-113457619D01*
X110472857Y-113552857D01*
X110472857Y-113648095D01*
X110425238Y-113790952D01*
X109853809Y-114362380D01*
X110472857Y-114362380D01*
X107091904Y-119712380D02*
X107663333Y-119712380D01*
X107377619Y-120712380D02*
X107377619Y-119712380D01*
X107996666Y-120712380D02*
X107996666Y-119712380D01*
X108377619Y-119712380D01*
X108472857Y-119760000D01*
X108520476Y-119807619D01*
X108568095Y-119902857D01*
X108568095Y-120045714D01*
X108520476Y-120140952D01*
X108472857Y-120188571D01*
X108377619Y-120236190D01*
X107996666Y-120236190D01*
X109520476Y-120712380D02*
X108949047Y-120712380D01*
X109234761Y-120712380D02*
X109234761Y-119712380D01*
X109139523Y-119855238D01*
X109044285Y-119950476D01*
X108949047Y-119998095D01*
X109853809Y-119712380D02*
X110472857Y-119712380D01*
X110139523Y-120093333D01*
X110282380Y-120093333D01*
X110377619Y-120140952D01*
X110425238Y-120188571D01*
X110472857Y-120283809D01*
X110472857Y-120521904D01*
X110425238Y-120617142D01*
X110377619Y-120664761D01*
X110282380Y-120712380D01*
X109996666Y-120712380D01*
X109901428Y-120664761D01*
X109853809Y-120617142D01*
M02*
