%TF.GenerationSoftware,KiCad,Pcbnew,(5.0.0)*%
%TF.CreationDate,2019-02-02T21:25:33-06:00*%
%TF.ProjectId,BPSTester,4250535465737465722E6B696361645F,rev?*%
%TF.SameCoordinates,Original*%
%TF.FileFunction,Soldermask,Top*%
%TF.FilePolarity,Negative*%
%FSLAX46Y46*%
G04 Gerber Fmt 4.6, Leading zero omitted, Abs format (unit mm)*
G04 Created by KiCad (PCBNEW (5.0.0)) date 02/02/19 21:25:33*
%MOMM*%
%LPD*%
G01*
G04 APERTURE LIST*
%ADD10C,0.100000*%
G04 APERTURE END LIST*
D10*
G36*
X147352527Y-145488736D02*
X147452410Y-145508604D01*
X147734674Y-145625521D01*
X147988705Y-145795259D01*
X148204741Y-146011295D01*
X148374479Y-146265326D01*
X148491396Y-146547590D01*
X148551000Y-146847240D01*
X148551000Y-147152760D01*
X148491396Y-147452410D01*
X148374479Y-147734674D01*
X148204741Y-147988705D01*
X147988705Y-148204741D01*
X147734674Y-148374479D01*
X147452410Y-148491396D01*
X147352527Y-148511264D01*
X147152762Y-148551000D01*
X146847238Y-148551000D01*
X146647473Y-148511264D01*
X146547590Y-148491396D01*
X146265326Y-148374479D01*
X146011295Y-148204741D01*
X145795259Y-147988705D01*
X145625521Y-147734674D01*
X145508604Y-147452410D01*
X145449000Y-147152760D01*
X145449000Y-146847240D01*
X145508604Y-146547590D01*
X145625521Y-146265326D01*
X145795259Y-146011295D01*
X146011295Y-145795259D01*
X146265326Y-145625521D01*
X146547590Y-145508604D01*
X146647473Y-145488736D01*
X146847238Y-145449000D01*
X147152762Y-145449000D01*
X147352527Y-145488736D01*
X147352527Y-145488736D01*
G37*
G36*
X103352527Y-145488736D02*
X103452410Y-145508604D01*
X103734674Y-145625521D01*
X103988705Y-145795259D01*
X104204741Y-146011295D01*
X104374479Y-146265326D01*
X104491396Y-146547590D01*
X104551000Y-146847240D01*
X104551000Y-147152760D01*
X104491396Y-147452410D01*
X104374479Y-147734674D01*
X104204741Y-147988705D01*
X103988705Y-148204741D01*
X103734674Y-148374479D01*
X103452410Y-148491396D01*
X103352527Y-148511264D01*
X103152762Y-148551000D01*
X102847238Y-148551000D01*
X102647473Y-148511264D01*
X102547590Y-148491396D01*
X102265326Y-148374479D01*
X102011295Y-148204741D01*
X101795259Y-147988705D01*
X101625521Y-147734674D01*
X101508604Y-147452410D01*
X101449000Y-147152760D01*
X101449000Y-146847240D01*
X101508604Y-146547590D01*
X101625521Y-146265326D01*
X101795259Y-146011295D01*
X102011295Y-145795259D01*
X102265326Y-145625521D01*
X102547590Y-145508604D01*
X102647473Y-145488736D01*
X102847238Y-145449000D01*
X103152762Y-145449000D01*
X103352527Y-145488736D01*
X103352527Y-145488736D01*
G37*
G36*
X115603238Y-141934760D02*
X115603240Y-141934761D01*
X115603241Y-141934761D01*
X115867306Y-142044140D01*
X115867307Y-142044141D01*
X116104962Y-142202937D01*
X116307063Y-142405038D01*
X116307065Y-142405041D01*
X116465860Y-142642694D01*
X116575239Y-142906759D01*
X116631000Y-143187089D01*
X116631000Y-143472911D01*
X116575239Y-143753241D01*
X116465860Y-144017306D01*
X116465859Y-144017307D01*
X116307063Y-144254962D01*
X116104962Y-144457063D01*
X116104959Y-144457065D01*
X115867306Y-144615860D01*
X115603241Y-144725239D01*
X115603240Y-144725239D01*
X115603238Y-144725240D01*
X115322912Y-144781000D01*
X115037088Y-144781000D01*
X114756762Y-144725240D01*
X114756760Y-144725239D01*
X114756759Y-144725239D01*
X114492694Y-144615860D01*
X114255041Y-144457065D01*
X114255038Y-144457063D01*
X114052937Y-144254962D01*
X113894141Y-144017307D01*
X113894140Y-144017306D01*
X113784761Y-143753241D01*
X113729000Y-143472911D01*
X113729000Y-143187089D01*
X113784761Y-142906759D01*
X113894140Y-142642694D01*
X114052935Y-142405041D01*
X114052937Y-142405038D01*
X114255038Y-142202937D01*
X114492693Y-142044141D01*
X114492694Y-142044140D01*
X114756759Y-141934761D01*
X114756760Y-141934761D01*
X114756762Y-141934760D01*
X115037088Y-141879000D01*
X115322912Y-141879000D01*
X115603238Y-141934760D01*
X115603238Y-141934760D01*
G37*
G36*
X117845589Y-134948876D02*
X117944893Y-134968629D01*
X118085206Y-135026748D01*
X118211484Y-135111125D01*
X118318875Y-135218516D01*
X118403252Y-135344794D01*
X118461371Y-135485107D01*
X118491000Y-135634063D01*
X118491000Y-135785937D01*
X118461371Y-135934893D01*
X118403252Y-136075206D01*
X118318875Y-136201484D01*
X118211484Y-136308875D01*
X118085206Y-136393252D01*
X117944893Y-136451371D01*
X117845589Y-136471124D01*
X117795938Y-136481000D01*
X117644062Y-136481000D01*
X117594411Y-136471124D01*
X117495107Y-136451371D01*
X117354794Y-136393252D01*
X117228516Y-136308875D01*
X117121125Y-136201484D01*
X117036748Y-136075206D01*
X116978629Y-135934893D01*
X116949000Y-135785937D01*
X116949000Y-135634063D01*
X116978629Y-135485107D01*
X117036748Y-135344794D01*
X117121125Y-135218516D01*
X117228516Y-135111125D01*
X117354794Y-135026748D01*
X117495107Y-134968629D01*
X117594411Y-134948876D01*
X117644062Y-134939000D01*
X117795938Y-134939000D01*
X117845589Y-134948876D01*
X117845589Y-134948876D01*
G37*
G36*
X120385589Y-134948876D02*
X120484893Y-134968629D01*
X120625206Y-135026748D01*
X120751484Y-135111125D01*
X120858875Y-135218516D01*
X120943252Y-135344794D01*
X121001371Y-135485107D01*
X121031000Y-135634063D01*
X121031000Y-135785937D01*
X121001371Y-135934893D01*
X120943252Y-136075206D01*
X120858875Y-136201484D01*
X120751484Y-136308875D01*
X120625206Y-136393252D01*
X120484893Y-136451371D01*
X120385589Y-136471124D01*
X120335938Y-136481000D01*
X120184062Y-136481000D01*
X120134411Y-136471124D01*
X120035107Y-136451371D01*
X119894794Y-136393252D01*
X119768516Y-136308875D01*
X119661125Y-136201484D01*
X119576748Y-136075206D01*
X119518629Y-135934893D01*
X119489000Y-135785937D01*
X119489000Y-135634063D01*
X119518629Y-135485107D01*
X119576748Y-135344794D01*
X119661125Y-135218516D01*
X119768516Y-135111125D01*
X119894794Y-135026748D01*
X120035107Y-134968629D01*
X120134411Y-134948876D01*
X120184062Y-134939000D01*
X120335938Y-134939000D01*
X120385589Y-134948876D01*
X120385589Y-134948876D01*
G37*
G36*
X115305589Y-134948876D02*
X115404893Y-134968629D01*
X115545206Y-135026748D01*
X115671484Y-135111125D01*
X115778875Y-135218516D01*
X115863252Y-135344794D01*
X115921371Y-135485107D01*
X115951000Y-135634063D01*
X115951000Y-135785937D01*
X115921371Y-135934893D01*
X115863252Y-136075206D01*
X115778875Y-136201484D01*
X115671484Y-136308875D01*
X115545206Y-136393252D01*
X115404893Y-136451371D01*
X115305589Y-136471124D01*
X115255938Y-136481000D01*
X115104062Y-136481000D01*
X115054411Y-136471124D01*
X114955107Y-136451371D01*
X114814794Y-136393252D01*
X114688516Y-136308875D01*
X114581125Y-136201484D01*
X114496748Y-136075206D01*
X114438629Y-135934893D01*
X114409000Y-135785937D01*
X114409000Y-135634063D01*
X114438629Y-135485107D01*
X114496748Y-135344794D01*
X114581125Y-135218516D01*
X114688516Y-135111125D01*
X114814794Y-135026748D01*
X114955107Y-134968629D01*
X115054411Y-134948876D01*
X115104062Y-134939000D01*
X115255938Y-134939000D01*
X115305589Y-134948876D01*
X115305589Y-134948876D01*
G37*
G36*
X109253238Y-127964760D02*
X109253240Y-127964761D01*
X109253241Y-127964761D01*
X109517306Y-128074140D01*
X109517307Y-128074141D01*
X109754962Y-128232937D01*
X109957063Y-128435038D01*
X109957065Y-128435041D01*
X110115860Y-128672694D01*
X110225239Y-128936759D01*
X110281000Y-129217089D01*
X110281000Y-129502911D01*
X110225239Y-129783241D01*
X110115860Y-130047306D01*
X110115859Y-130047307D01*
X109957063Y-130284962D01*
X109754962Y-130487063D01*
X109754959Y-130487065D01*
X109517306Y-130645860D01*
X109253241Y-130755239D01*
X109253240Y-130755239D01*
X109253238Y-130755240D01*
X108972912Y-130811000D01*
X108687088Y-130811000D01*
X108406762Y-130755240D01*
X108406760Y-130755239D01*
X108406759Y-130755239D01*
X108142694Y-130645860D01*
X107905041Y-130487065D01*
X107905038Y-130487063D01*
X107702937Y-130284962D01*
X107544141Y-130047307D01*
X107544140Y-130047306D01*
X107434761Y-129783241D01*
X107379000Y-129502911D01*
X107379000Y-129217089D01*
X107434761Y-128936759D01*
X107544140Y-128672694D01*
X107702935Y-128435041D01*
X107702937Y-128435038D01*
X107905038Y-128232937D01*
X108142693Y-128074141D01*
X108142694Y-128074140D01*
X108406759Y-127964761D01*
X108406760Y-127964761D01*
X108406762Y-127964760D01*
X108687088Y-127909000D01*
X108972912Y-127909000D01*
X109253238Y-127964760D01*
X109253238Y-127964760D01*
G37*
G36*
X115305589Y-128598876D02*
X115404893Y-128618629D01*
X115545206Y-128676748D01*
X115671484Y-128761125D01*
X115778875Y-128868516D01*
X115863252Y-128994794D01*
X115921371Y-129135107D01*
X115951000Y-129284063D01*
X115951000Y-129435937D01*
X115921371Y-129584893D01*
X115863252Y-129725206D01*
X115778875Y-129851484D01*
X115671484Y-129958875D01*
X115545206Y-130043252D01*
X115404893Y-130101371D01*
X115305589Y-130121124D01*
X115255938Y-130131000D01*
X115104062Y-130131000D01*
X115054411Y-130121124D01*
X114955107Y-130101371D01*
X114814794Y-130043252D01*
X114688516Y-129958875D01*
X114581125Y-129851484D01*
X114496748Y-129725206D01*
X114438629Y-129584893D01*
X114409000Y-129435937D01*
X114409000Y-129284063D01*
X114438629Y-129135107D01*
X114496748Y-128994794D01*
X114581125Y-128868516D01*
X114688516Y-128761125D01*
X114814794Y-128676748D01*
X114955107Y-128618629D01*
X115054411Y-128598876D01*
X115104062Y-128589000D01*
X115255938Y-128589000D01*
X115305589Y-128598876D01*
X115305589Y-128598876D01*
G37*
G36*
X117845589Y-128598876D02*
X117944893Y-128618629D01*
X118085206Y-128676748D01*
X118211484Y-128761125D01*
X118318875Y-128868516D01*
X118403252Y-128994794D01*
X118461371Y-129135107D01*
X118491000Y-129284063D01*
X118491000Y-129435937D01*
X118461371Y-129584893D01*
X118403252Y-129725206D01*
X118318875Y-129851484D01*
X118211484Y-129958875D01*
X118085206Y-130043252D01*
X117944893Y-130101371D01*
X117845589Y-130121124D01*
X117795938Y-130131000D01*
X117644062Y-130131000D01*
X117594411Y-130121124D01*
X117495107Y-130101371D01*
X117354794Y-130043252D01*
X117228516Y-129958875D01*
X117121125Y-129851484D01*
X117036748Y-129725206D01*
X116978629Y-129584893D01*
X116949000Y-129435937D01*
X116949000Y-129284063D01*
X116978629Y-129135107D01*
X117036748Y-128994794D01*
X117121125Y-128868516D01*
X117228516Y-128761125D01*
X117354794Y-128676748D01*
X117495107Y-128618629D01*
X117594411Y-128598876D01*
X117644062Y-128589000D01*
X117795938Y-128589000D01*
X117845589Y-128598876D01*
X117845589Y-128598876D01*
G37*
G36*
X120385589Y-128598876D02*
X120484893Y-128618629D01*
X120625206Y-128676748D01*
X120751484Y-128761125D01*
X120858875Y-128868516D01*
X120943252Y-128994794D01*
X121001371Y-129135107D01*
X121031000Y-129284063D01*
X121031000Y-129435937D01*
X121001371Y-129584893D01*
X120943252Y-129725206D01*
X120858875Y-129851484D01*
X120751484Y-129958875D01*
X120625206Y-130043252D01*
X120484893Y-130101371D01*
X120385589Y-130121124D01*
X120335938Y-130131000D01*
X120184062Y-130131000D01*
X120134411Y-130121124D01*
X120035107Y-130101371D01*
X119894794Y-130043252D01*
X119768516Y-129958875D01*
X119661125Y-129851484D01*
X119576748Y-129725206D01*
X119518629Y-129584893D01*
X119489000Y-129435937D01*
X119489000Y-129284063D01*
X119518629Y-129135107D01*
X119576748Y-128994794D01*
X119661125Y-128868516D01*
X119768516Y-128761125D01*
X119894794Y-128676748D01*
X120035107Y-128618629D01*
X120134411Y-128598876D01*
X120184062Y-128589000D01*
X120335938Y-128589000D01*
X120385589Y-128598876D01*
X120385589Y-128598876D01*
G37*
G36*
X109253238Y-121614760D02*
X109253240Y-121614761D01*
X109253241Y-121614761D01*
X109517306Y-121724140D01*
X109517307Y-121724141D01*
X109754962Y-121882937D01*
X109957063Y-122085038D01*
X109957065Y-122085041D01*
X110115860Y-122322694D01*
X110225239Y-122586759D01*
X110281000Y-122867089D01*
X110281000Y-123152911D01*
X110225239Y-123433241D01*
X110115860Y-123697306D01*
X110115859Y-123697307D01*
X109957063Y-123934962D01*
X109754962Y-124137063D01*
X109754959Y-124137065D01*
X109517306Y-124295860D01*
X109253241Y-124405239D01*
X109253240Y-124405239D01*
X109253238Y-124405240D01*
X108972912Y-124461000D01*
X108687088Y-124461000D01*
X108406762Y-124405240D01*
X108406760Y-124405239D01*
X108406759Y-124405239D01*
X108142694Y-124295860D01*
X107905041Y-124137065D01*
X107905038Y-124137063D01*
X107702937Y-123934962D01*
X107544141Y-123697307D01*
X107544140Y-123697306D01*
X107434761Y-123433241D01*
X107379000Y-123152911D01*
X107379000Y-122867089D01*
X107434761Y-122586759D01*
X107544140Y-122322694D01*
X107702935Y-122085041D01*
X107702937Y-122085038D01*
X107905038Y-121882937D01*
X108142693Y-121724141D01*
X108142694Y-121724140D01*
X108406759Y-121614761D01*
X108406760Y-121614761D01*
X108406762Y-121614760D01*
X108687088Y-121559000D01*
X108972912Y-121559000D01*
X109253238Y-121614760D01*
X109253238Y-121614760D01*
G37*
G36*
X120385589Y-122248876D02*
X120484893Y-122268629D01*
X120625206Y-122326748D01*
X120751484Y-122411125D01*
X120858875Y-122518516D01*
X120943252Y-122644794D01*
X121001371Y-122785107D01*
X121031000Y-122934063D01*
X121031000Y-123085937D01*
X121001371Y-123234893D01*
X120943252Y-123375206D01*
X120858875Y-123501484D01*
X120751484Y-123608875D01*
X120625206Y-123693252D01*
X120484893Y-123751371D01*
X120385589Y-123771124D01*
X120335938Y-123781000D01*
X120184062Y-123781000D01*
X120134411Y-123771124D01*
X120035107Y-123751371D01*
X119894794Y-123693252D01*
X119768516Y-123608875D01*
X119661125Y-123501484D01*
X119576748Y-123375206D01*
X119518629Y-123234893D01*
X119489000Y-123085937D01*
X119489000Y-122934063D01*
X119518629Y-122785107D01*
X119576748Y-122644794D01*
X119661125Y-122518516D01*
X119768516Y-122411125D01*
X119894794Y-122326748D01*
X120035107Y-122268629D01*
X120134411Y-122248876D01*
X120184062Y-122239000D01*
X120335938Y-122239000D01*
X120385589Y-122248876D01*
X120385589Y-122248876D01*
G37*
G36*
X117845589Y-122248876D02*
X117944893Y-122268629D01*
X118085206Y-122326748D01*
X118211484Y-122411125D01*
X118318875Y-122518516D01*
X118403252Y-122644794D01*
X118461371Y-122785107D01*
X118491000Y-122934063D01*
X118491000Y-123085937D01*
X118461371Y-123234893D01*
X118403252Y-123375206D01*
X118318875Y-123501484D01*
X118211484Y-123608875D01*
X118085206Y-123693252D01*
X117944893Y-123751371D01*
X117845589Y-123771124D01*
X117795938Y-123781000D01*
X117644062Y-123781000D01*
X117594411Y-123771124D01*
X117495107Y-123751371D01*
X117354794Y-123693252D01*
X117228516Y-123608875D01*
X117121125Y-123501484D01*
X117036748Y-123375206D01*
X116978629Y-123234893D01*
X116949000Y-123085937D01*
X116949000Y-122934063D01*
X116978629Y-122785107D01*
X117036748Y-122644794D01*
X117121125Y-122518516D01*
X117228516Y-122411125D01*
X117354794Y-122326748D01*
X117495107Y-122268629D01*
X117594411Y-122248876D01*
X117644062Y-122239000D01*
X117795938Y-122239000D01*
X117845589Y-122248876D01*
X117845589Y-122248876D01*
G37*
G36*
X115305589Y-122248876D02*
X115404893Y-122268629D01*
X115545206Y-122326748D01*
X115671484Y-122411125D01*
X115778875Y-122518516D01*
X115863252Y-122644794D01*
X115921371Y-122785107D01*
X115951000Y-122934063D01*
X115951000Y-123085937D01*
X115921371Y-123234893D01*
X115863252Y-123375206D01*
X115778875Y-123501484D01*
X115671484Y-123608875D01*
X115545206Y-123693252D01*
X115404893Y-123751371D01*
X115305589Y-123771124D01*
X115255938Y-123781000D01*
X115104062Y-123781000D01*
X115054411Y-123771124D01*
X114955107Y-123751371D01*
X114814794Y-123693252D01*
X114688516Y-123608875D01*
X114581125Y-123501484D01*
X114496748Y-123375206D01*
X114438629Y-123234893D01*
X114409000Y-123085937D01*
X114409000Y-122934063D01*
X114438629Y-122785107D01*
X114496748Y-122644794D01*
X114581125Y-122518516D01*
X114688516Y-122411125D01*
X114814794Y-122326748D01*
X114955107Y-122268629D01*
X115054411Y-122248876D01*
X115104062Y-122239000D01*
X115255938Y-122239000D01*
X115305589Y-122248876D01*
X115305589Y-122248876D01*
G37*
G36*
X109253238Y-115264760D02*
X109253240Y-115264761D01*
X109253241Y-115264761D01*
X109517306Y-115374140D01*
X109517307Y-115374141D01*
X109754962Y-115532937D01*
X109957063Y-115735038D01*
X109957065Y-115735041D01*
X110115860Y-115972694D01*
X110225239Y-116236759D01*
X110281000Y-116517089D01*
X110281000Y-116802911D01*
X110225239Y-117083241D01*
X110115860Y-117347306D01*
X110115859Y-117347307D01*
X109957063Y-117584962D01*
X109754962Y-117787063D01*
X109754959Y-117787065D01*
X109517306Y-117945860D01*
X109253241Y-118055239D01*
X109253240Y-118055239D01*
X109253238Y-118055240D01*
X108972912Y-118111000D01*
X108687088Y-118111000D01*
X108406762Y-118055240D01*
X108406760Y-118055239D01*
X108406759Y-118055239D01*
X108142694Y-117945860D01*
X107905041Y-117787065D01*
X107905038Y-117787063D01*
X107702937Y-117584962D01*
X107544141Y-117347307D01*
X107544140Y-117347306D01*
X107434761Y-117083241D01*
X107379000Y-116802911D01*
X107379000Y-116517089D01*
X107434761Y-116236759D01*
X107544140Y-115972694D01*
X107702935Y-115735041D01*
X107702937Y-115735038D01*
X107905038Y-115532937D01*
X108142693Y-115374141D01*
X108142694Y-115374140D01*
X108406759Y-115264761D01*
X108406760Y-115264761D01*
X108406762Y-115264760D01*
X108687088Y-115209000D01*
X108972912Y-115209000D01*
X109253238Y-115264760D01*
X109253238Y-115264760D01*
G37*
G36*
X115305589Y-115898876D02*
X115404893Y-115918629D01*
X115545206Y-115976748D01*
X115671484Y-116061125D01*
X115778875Y-116168516D01*
X115863252Y-116294794D01*
X115921371Y-116435107D01*
X115951000Y-116584063D01*
X115951000Y-116735937D01*
X115921371Y-116884893D01*
X115863252Y-117025206D01*
X115778875Y-117151484D01*
X115671484Y-117258875D01*
X115545206Y-117343252D01*
X115404893Y-117401371D01*
X115305589Y-117421124D01*
X115255938Y-117431000D01*
X115104062Y-117431000D01*
X115054411Y-117421124D01*
X114955107Y-117401371D01*
X114814794Y-117343252D01*
X114688516Y-117258875D01*
X114581125Y-117151484D01*
X114496748Y-117025206D01*
X114438629Y-116884893D01*
X114409000Y-116735937D01*
X114409000Y-116584063D01*
X114438629Y-116435107D01*
X114496748Y-116294794D01*
X114581125Y-116168516D01*
X114688516Y-116061125D01*
X114814794Y-115976748D01*
X114955107Y-115918629D01*
X115054411Y-115898876D01*
X115104062Y-115889000D01*
X115255938Y-115889000D01*
X115305589Y-115898876D01*
X115305589Y-115898876D01*
G37*
G36*
X117845589Y-115898876D02*
X117944893Y-115918629D01*
X118085206Y-115976748D01*
X118211484Y-116061125D01*
X118318875Y-116168516D01*
X118403252Y-116294794D01*
X118461371Y-116435107D01*
X118491000Y-116584063D01*
X118491000Y-116735937D01*
X118461371Y-116884893D01*
X118403252Y-117025206D01*
X118318875Y-117151484D01*
X118211484Y-117258875D01*
X118085206Y-117343252D01*
X117944893Y-117401371D01*
X117845589Y-117421124D01*
X117795938Y-117431000D01*
X117644062Y-117431000D01*
X117594411Y-117421124D01*
X117495107Y-117401371D01*
X117354794Y-117343252D01*
X117228516Y-117258875D01*
X117121125Y-117151484D01*
X117036748Y-117025206D01*
X116978629Y-116884893D01*
X116949000Y-116735937D01*
X116949000Y-116584063D01*
X116978629Y-116435107D01*
X117036748Y-116294794D01*
X117121125Y-116168516D01*
X117228516Y-116061125D01*
X117354794Y-115976748D01*
X117495107Y-115918629D01*
X117594411Y-115898876D01*
X117644062Y-115889000D01*
X117795938Y-115889000D01*
X117845589Y-115898876D01*
X117845589Y-115898876D01*
G37*
G36*
X120385589Y-115898876D02*
X120484893Y-115918629D01*
X120625206Y-115976748D01*
X120751484Y-116061125D01*
X120858875Y-116168516D01*
X120943252Y-116294794D01*
X121001371Y-116435107D01*
X121031000Y-116584063D01*
X121031000Y-116735937D01*
X121001371Y-116884893D01*
X120943252Y-117025206D01*
X120858875Y-117151484D01*
X120751484Y-117258875D01*
X120625206Y-117343252D01*
X120484893Y-117401371D01*
X120385589Y-117421124D01*
X120335938Y-117431000D01*
X120184062Y-117431000D01*
X120134411Y-117421124D01*
X120035107Y-117401371D01*
X119894794Y-117343252D01*
X119768516Y-117258875D01*
X119661125Y-117151484D01*
X119576748Y-117025206D01*
X119518629Y-116884893D01*
X119489000Y-116735937D01*
X119489000Y-116584063D01*
X119518629Y-116435107D01*
X119576748Y-116294794D01*
X119661125Y-116168516D01*
X119768516Y-116061125D01*
X119894794Y-115976748D01*
X120035107Y-115918629D01*
X120134411Y-115898876D01*
X120184062Y-115889000D01*
X120335938Y-115889000D01*
X120385589Y-115898876D01*
X120385589Y-115898876D01*
G37*
G36*
X140661000Y-113901000D02*
X137959000Y-113901000D01*
X137959000Y-111799000D01*
X140661000Y-111799000D01*
X140661000Y-113901000D01*
X140661000Y-113901000D01*
G37*
G36*
X109253238Y-108914760D02*
X109253240Y-108914761D01*
X109253241Y-108914761D01*
X109517306Y-109024140D01*
X109517307Y-109024141D01*
X109754962Y-109182937D01*
X109957063Y-109385038D01*
X109957065Y-109385041D01*
X110115860Y-109622694D01*
X110157519Y-109723269D01*
X110225240Y-109886762D01*
X110281000Y-110167088D01*
X110281000Y-110452912D01*
X110229038Y-110714146D01*
X110225239Y-110733241D01*
X110115860Y-110997306D01*
X110059937Y-111081000D01*
X109957063Y-111234962D01*
X109754962Y-111437063D01*
X109754959Y-111437065D01*
X109517306Y-111595860D01*
X109253241Y-111705239D01*
X109253240Y-111705239D01*
X109253238Y-111705240D01*
X108972912Y-111761000D01*
X108687088Y-111761000D01*
X108406762Y-111705240D01*
X108406760Y-111705239D01*
X108406759Y-111705239D01*
X108142694Y-111595860D01*
X107905041Y-111437065D01*
X107905038Y-111437063D01*
X107702937Y-111234962D01*
X107600063Y-111081000D01*
X107544140Y-110997306D01*
X107434761Y-110733241D01*
X107430963Y-110714146D01*
X107379000Y-110452912D01*
X107379000Y-110167088D01*
X107434760Y-109886762D01*
X107502481Y-109723269D01*
X107544140Y-109622694D01*
X107702935Y-109385041D01*
X107702937Y-109385038D01*
X107905038Y-109182937D01*
X108142693Y-109024141D01*
X108142694Y-109024140D01*
X108406759Y-108914761D01*
X108406760Y-108914761D01*
X108406762Y-108914760D01*
X108687088Y-108859000D01*
X108972912Y-108859000D01*
X109253238Y-108914760D01*
X109253238Y-108914760D01*
G37*
G36*
X139692510Y-109262041D02*
X139816032Y-109274207D01*
X140014146Y-109334305D01*
X140196729Y-109431897D01*
X140356765Y-109563235D01*
X140488103Y-109723271D01*
X140585695Y-109905854D01*
X140645793Y-110103968D01*
X140666085Y-110310000D01*
X140645793Y-110516032D01*
X140585695Y-110714146D01*
X140488103Y-110896729D01*
X140356765Y-111056765D01*
X140196729Y-111188103D01*
X140014146Y-111285695D01*
X139816032Y-111345793D01*
X139692510Y-111357959D01*
X139661631Y-111361000D01*
X138958369Y-111361000D01*
X138927490Y-111357959D01*
X138803968Y-111345793D01*
X138605854Y-111285695D01*
X138423271Y-111188103D01*
X138263235Y-111056765D01*
X138131897Y-110896729D01*
X138034305Y-110714146D01*
X137974207Y-110516032D01*
X137953915Y-110310000D01*
X137974207Y-110103968D01*
X138034305Y-109905854D01*
X138131897Y-109723271D01*
X138263235Y-109563235D01*
X138423271Y-109431897D01*
X138605854Y-109334305D01*
X138803968Y-109274207D01*
X138927490Y-109262041D01*
X138958369Y-109259000D01*
X139661631Y-109259000D01*
X139692510Y-109262041D01*
X139692510Y-109262041D01*
G37*
G36*
X115305589Y-109548876D02*
X115404893Y-109568629D01*
X115545206Y-109626748D01*
X115671484Y-109711125D01*
X115778875Y-109818516D01*
X115863252Y-109944794D01*
X115921371Y-110085107D01*
X115951000Y-110234063D01*
X115951000Y-110385937D01*
X115921371Y-110534893D01*
X115863252Y-110675206D01*
X115778875Y-110801484D01*
X115671484Y-110908875D01*
X115545206Y-110993252D01*
X115404893Y-111051371D01*
X115305589Y-111071124D01*
X115255938Y-111081000D01*
X115104062Y-111081000D01*
X115054411Y-111071124D01*
X114955107Y-111051371D01*
X114814794Y-110993252D01*
X114688516Y-110908875D01*
X114581125Y-110801484D01*
X114496748Y-110675206D01*
X114438629Y-110534893D01*
X114409000Y-110385937D01*
X114409000Y-110234063D01*
X114438629Y-110085107D01*
X114496748Y-109944794D01*
X114581125Y-109818516D01*
X114688516Y-109711125D01*
X114814794Y-109626748D01*
X114955107Y-109568629D01*
X115054411Y-109548876D01*
X115104062Y-109539000D01*
X115255938Y-109539000D01*
X115305589Y-109548876D01*
X115305589Y-109548876D01*
G37*
G36*
X117845589Y-109548876D02*
X117944893Y-109568629D01*
X118085206Y-109626748D01*
X118211484Y-109711125D01*
X118318875Y-109818516D01*
X118403252Y-109944794D01*
X118461371Y-110085107D01*
X118491000Y-110234063D01*
X118491000Y-110385937D01*
X118461371Y-110534893D01*
X118403252Y-110675206D01*
X118318875Y-110801484D01*
X118211484Y-110908875D01*
X118085206Y-110993252D01*
X117944893Y-111051371D01*
X117845589Y-111071124D01*
X117795938Y-111081000D01*
X117644062Y-111081000D01*
X117594411Y-111071124D01*
X117495107Y-111051371D01*
X117354794Y-110993252D01*
X117228516Y-110908875D01*
X117121125Y-110801484D01*
X117036748Y-110675206D01*
X116978629Y-110534893D01*
X116949000Y-110385937D01*
X116949000Y-110234063D01*
X116978629Y-110085107D01*
X117036748Y-109944794D01*
X117121125Y-109818516D01*
X117228516Y-109711125D01*
X117354794Y-109626748D01*
X117495107Y-109568629D01*
X117594411Y-109548876D01*
X117644062Y-109539000D01*
X117795938Y-109539000D01*
X117845589Y-109548876D01*
X117845589Y-109548876D01*
G37*
G36*
X120385589Y-109548876D02*
X120484893Y-109568629D01*
X120625206Y-109626748D01*
X120751484Y-109711125D01*
X120858875Y-109818516D01*
X120943252Y-109944794D01*
X121001371Y-110085107D01*
X121031000Y-110234063D01*
X121031000Y-110385937D01*
X121001371Y-110534893D01*
X120943252Y-110675206D01*
X120858875Y-110801484D01*
X120751484Y-110908875D01*
X120625206Y-110993252D01*
X120484893Y-111051371D01*
X120385589Y-111071124D01*
X120335938Y-111081000D01*
X120184062Y-111081000D01*
X120134411Y-111071124D01*
X120035107Y-111051371D01*
X119894794Y-110993252D01*
X119768516Y-110908875D01*
X119661125Y-110801484D01*
X119576748Y-110675206D01*
X119518629Y-110534893D01*
X119489000Y-110385937D01*
X119489000Y-110234063D01*
X119518629Y-110085107D01*
X119576748Y-109944794D01*
X119661125Y-109818516D01*
X119768516Y-109711125D01*
X119894794Y-109626748D01*
X120035107Y-109568629D01*
X120134411Y-109548876D01*
X120184062Y-109539000D01*
X120335938Y-109539000D01*
X120385589Y-109548876D01*
X120385589Y-109548876D01*
G37*
G36*
X139692510Y-106722041D02*
X139816032Y-106734207D01*
X140014146Y-106794305D01*
X140196729Y-106891897D01*
X140356765Y-107023235D01*
X140488103Y-107183271D01*
X140585695Y-107365854D01*
X140645793Y-107563968D01*
X140666085Y-107770000D01*
X140645793Y-107976032D01*
X140585695Y-108174146D01*
X140488103Y-108356729D01*
X140356765Y-108516765D01*
X140196729Y-108648103D01*
X140014146Y-108745695D01*
X139816032Y-108805793D01*
X139692510Y-108817959D01*
X139661631Y-108821000D01*
X138958369Y-108821000D01*
X138927490Y-108817959D01*
X138803968Y-108805793D01*
X138605854Y-108745695D01*
X138423271Y-108648103D01*
X138263235Y-108516765D01*
X138131897Y-108356729D01*
X138034305Y-108174146D01*
X137974207Y-107976032D01*
X137953915Y-107770000D01*
X137974207Y-107563968D01*
X138034305Y-107365854D01*
X138131897Y-107183271D01*
X138263235Y-107023235D01*
X138423271Y-106891897D01*
X138605854Y-106794305D01*
X138803968Y-106734207D01*
X138927490Y-106722041D01*
X138958369Y-106719000D01*
X139661631Y-106719000D01*
X139692510Y-106722041D01*
X139692510Y-106722041D01*
G37*
G36*
X139692510Y-104182041D02*
X139816032Y-104194207D01*
X140014146Y-104254305D01*
X140196729Y-104351897D01*
X140356765Y-104483235D01*
X140488103Y-104643271D01*
X140585695Y-104825854D01*
X140645793Y-105023968D01*
X140666085Y-105230000D01*
X140645793Y-105436032D01*
X140585695Y-105634146D01*
X140488103Y-105816729D01*
X140356765Y-105976765D01*
X140196729Y-106108103D01*
X140014146Y-106205695D01*
X139816032Y-106265793D01*
X139692510Y-106277959D01*
X139661631Y-106281000D01*
X138958369Y-106281000D01*
X138927490Y-106277959D01*
X138803968Y-106265793D01*
X138605854Y-106205695D01*
X138423271Y-106108103D01*
X138263235Y-105976765D01*
X138131897Y-105816729D01*
X138034305Y-105634146D01*
X137974207Y-105436032D01*
X137953915Y-105230000D01*
X137974207Y-105023968D01*
X138034305Y-104825854D01*
X138131897Y-104643271D01*
X138263235Y-104483235D01*
X138423271Y-104351897D01*
X138605854Y-104254305D01*
X138803968Y-104194207D01*
X138927490Y-104182041D01*
X138958369Y-104179000D01*
X139661631Y-104179000D01*
X139692510Y-104182041D01*
X139692510Y-104182041D01*
G37*
G36*
X109253238Y-102564760D02*
X109253240Y-102564761D01*
X109253241Y-102564761D01*
X109517306Y-102674140D01*
X109517307Y-102674141D01*
X109754962Y-102832937D01*
X109957063Y-103035038D01*
X109957065Y-103035041D01*
X110115860Y-103272694D01*
X110183820Y-103436765D01*
X110225240Y-103536762D01*
X110281000Y-103817088D01*
X110281000Y-104102912D01*
X110231474Y-104351899D01*
X110225239Y-104383241D01*
X110115860Y-104647306D01*
X110115859Y-104647307D01*
X109957063Y-104884962D01*
X109754962Y-105087063D01*
X109754959Y-105087065D01*
X109517306Y-105245860D01*
X109253241Y-105355239D01*
X109253240Y-105355239D01*
X109253238Y-105355240D01*
X108972912Y-105411000D01*
X108687088Y-105411000D01*
X108406762Y-105355240D01*
X108406760Y-105355239D01*
X108406759Y-105355239D01*
X108142694Y-105245860D01*
X107905041Y-105087065D01*
X107905038Y-105087063D01*
X107702937Y-104884962D01*
X107544141Y-104647307D01*
X107544140Y-104647306D01*
X107434761Y-104383241D01*
X107428527Y-104351899D01*
X107379000Y-104102912D01*
X107379000Y-103817088D01*
X107434760Y-103536762D01*
X107476180Y-103436765D01*
X107544140Y-103272694D01*
X107702935Y-103035041D01*
X107702937Y-103035038D01*
X107905038Y-102832937D01*
X108142693Y-102674141D01*
X108142694Y-102674140D01*
X108406759Y-102564761D01*
X108406760Y-102564761D01*
X108406762Y-102564760D01*
X108687088Y-102509000D01*
X108972912Y-102509000D01*
X109253238Y-102564760D01*
X109253238Y-102564760D01*
G37*
G36*
X115305589Y-103198876D02*
X115404893Y-103218629D01*
X115545206Y-103276748D01*
X115671484Y-103361125D01*
X115778875Y-103468516D01*
X115863252Y-103594794D01*
X115921371Y-103735107D01*
X115951000Y-103884063D01*
X115951000Y-104035937D01*
X115921371Y-104184893D01*
X115863252Y-104325206D01*
X115778875Y-104451484D01*
X115671484Y-104558875D01*
X115545206Y-104643252D01*
X115404893Y-104701371D01*
X115305589Y-104721124D01*
X115255938Y-104731000D01*
X115104062Y-104731000D01*
X115054411Y-104721124D01*
X114955107Y-104701371D01*
X114814794Y-104643252D01*
X114688516Y-104558875D01*
X114581125Y-104451484D01*
X114496748Y-104325206D01*
X114438629Y-104184893D01*
X114409000Y-104035937D01*
X114409000Y-103884063D01*
X114438629Y-103735107D01*
X114496748Y-103594794D01*
X114581125Y-103468516D01*
X114688516Y-103361125D01*
X114814794Y-103276748D01*
X114955107Y-103218629D01*
X115054411Y-103198876D01*
X115104062Y-103189000D01*
X115255938Y-103189000D01*
X115305589Y-103198876D01*
X115305589Y-103198876D01*
G37*
G36*
X117845589Y-103198876D02*
X117944893Y-103218629D01*
X118085206Y-103276748D01*
X118211484Y-103361125D01*
X118318875Y-103468516D01*
X118403252Y-103594794D01*
X118461371Y-103735107D01*
X118491000Y-103884063D01*
X118491000Y-104035937D01*
X118461371Y-104184893D01*
X118403252Y-104325206D01*
X118318875Y-104451484D01*
X118211484Y-104558875D01*
X118085206Y-104643252D01*
X117944893Y-104701371D01*
X117845589Y-104721124D01*
X117795938Y-104731000D01*
X117644062Y-104731000D01*
X117594411Y-104721124D01*
X117495107Y-104701371D01*
X117354794Y-104643252D01*
X117228516Y-104558875D01*
X117121125Y-104451484D01*
X117036748Y-104325206D01*
X116978629Y-104184893D01*
X116949000Y-104035937D01*
X116949000Y-103884063D01*
X116978629Y-103735107D01*
X117036748Y-103594794D01*
X117121125Y-103468516D01*
X117228516Y-103361125D01*
X117354794Y-103276748D01*
X117495107Y-103218629D01*
X117594411Y-103198876D01*
X117644062Y-103189000D01*
X117795938Y-103189000D01*
X117845589Y-103198876D01*
X117845589Y-103198876D01*
G37*
G36*
X120385589Y-103198876D02*
X120484893Y-103218629D01*
X120625206Y-103276748D01*
X120751484Y-103361125D01*
X120858875Y-103468516D01*
X120943252Y-103594794D01*
X121001371Y-103735107D01*
X121031000Y-103884063D01*
X121031000Y-104035937D01*
X121001371Y-104184893D01*
X120943252Y-104325206D01*
X120858875Y-104451484D01*
X120751484Y-104558875D01*
X120625206Y-104643252D01*
X120484893Y-104701371D01*
X120385589Y-104721124D01*
X120335938Y-104731000D01*
X120184062Y-104731000D01*
X120134411Y-104721124D01*
X120035107Y-104701371D01*
X119894794Y-104643252D01*
X119768516Y-104558875D01*
X119661125Y-104451484D01*
X119576748Y-104325206D01*
X119518629Y-104184893D01*
X119489000Y-104035937D01*
X119489000Y-103884063D01*
X119518629Y-103735107D01*
X119576748Y-103594794D01*
X119661125Y-103468516D01*
X119768516Y-103361125D01*
X119894794Y-103276748D01*
X120035107Y-103218629D01*
X120134411Y-103198876D01*
X120184062Y-103189000D01*
X120335938Y-103189000D01*
X120385589Y-103198876D01*
X120385589Y-103198876D01*
G37*
G36*
X139692510Y-101642041D02*
X139816032Y-101654207D01*
X140014146Y-101714305D01*
X140196729Y-101811897D01*
X140356765Y-101943235D01*
X140488103Y-102103271D01*
X140585695Y-102285854D01*
X140645793Y-102483968D01*
X140666085Y-102690000D01*
X140645793Y-102896032D01*
X140585695Y-103094146D01*
X140488103Y-103276729D01*
X140356765Y-103436765D01*
X140196729Y-103568103D01*
X140014146Y-103665695D01*
X139816032Y-103725793D01*
X139692510Y-103737959D01*
X139661631Y-103741000D01*
X138958369Y-103741000D01*
X138927490Y-103737959D01*
X138803968Y-103725793D01*
X138605854Y-103665695D01*
X138423271Y-103568103D01*
X138263235Y-103436765D01*
X138131897Y-103276729D01*
X138034305Y-103094146D01*
X137974207Y-102896032D01*
X137953915Y-102690000D01*
X137974207Y-102483968D01*
X138034305Y-102285854D01*
X138131897Y-102103271D01*
X138263235Y-101943235D01*
X138423271Y-101811897D01*
X138605854Y-101714305D01*
X138803968Y-101654207D01*
X138927490Y-101642041D01*
X138958369Y-101639000D01*
X139661631Y-101639000D01*
X139692510Y-101642041D01*
X139692510Y-101642041D01*
G37*
G36*
X139692510Y-99102041D02*
X139816032Y-99114207D01*
X140014146Y-99174305D01*
X140196729Y-99271897D01*
X140356765Y-99403235D01*
X140488103Y-99563271D01*
X140585695Y-99745854D01*
X140645793Y-99943968D01*
X140666085Y-100150000D01*
X140645793Y-100356032D01*
X140585695Y-100554146D01*
X140488103Y-100736729D01*
X140356765Y-100896765D01*
X140196729Y-101028103D01*
X140014146Y-101125695D01*
X139816032Y-101185793D01*
X139692510Y-101197959D01*
X139661631Y-101201000D01*
X138958369Y-101201000D01*
X138927490Y-101197959D01*
X138803968Y-101185793D01*
X138605854Y-101125695D01*
X138423271Y-101028103D01*
X138263235Y-100896765D01*
X138131897Y-100736729D01*
X138034305Y-100554146D01*
X137974207Y-100356032D01*
X137953915Y-100150000D01*
X137974207Y-99943968D01*
X138034305Y-99745854D01*
X138131897Y-99563271D01*
X138263235Y-99403235D01*
X138423271Y-99271897D01*
X138605854Y-99174305D01*
X138803968Y-99114207D01*
X138927490Y-99102041D01*
X138958369Y-99099000D01*
X139661631Y-99099000D01*
X139692510Y-99102041D01*
X139692510Y-99102041D01*
G37*
G36*
X109253238Y-96214760D02*
X109253240Y-96214761D01*
X109253241Y-96214761D01*
X109517306Y-96324140D01*
X109517307Y-96324141D01*
X109754962Y-96482937D01*
X109957063Y-96685038D01*
X109957065Y-96685041D01*
X110115860Y-96922694D01*
X110157519Y-97023269D01*
X110225240Y-97186762D01*
X110281000Y-97467088D01*
X110281000Y-97752912D01*
X110229038Y-98014146D01*
X110225239Y-98033241D01*
X110115860Y-98297306D01*
X110059937Y-98381000D01*
X109957063Y-98534962D01*
X109754962Y-98737063D01*
X109754959Y-98737065D01*
X109517306Y-98895860D01*
X109253241Y-99005239D01*
X109253240Y-99005239D01*
X109253238Y-99005240D01*
X108972912Y-99061000D01*
X108687088Y-99061000D01*
X108406762Y-99005240D01*
X108406760Y-99005239D01*
X108406759Y-99005239D01*
X108142694Y-98895860D01*
X107905041Y-98737065D01*
X107905038Y-98737063D01*
X107702937Y-98534962D01*
X107600063Y-98381000D01*
X107544140Y-98297306D01*
X107434761Y-98033241D01*
X107430963Y-98014146D01*
X107379000Y-97752912D01*
X107379000Y-97467088D01*
X107434760Y-97186762D01*
X107502481Y-97023269D01*
X107544140Y-96922694D01*
X107702935Y-96685041D01*
X107702937Y-96685038D01*
X107905038Y-96482937D01*
X108142693Y-96324141D01*
X108142694Y-96324140D01*
X108406759Y-96214761D01*
X108406760Y-96214761D01*
X108406762Y-96214760D01*
X108687088Y-96159000D01*
X108972912Y-96159000D01*
X109253238Y-96214760D01*
X109253238Y-96214760D01*
G37*
G36*
X139692510Y-96562041D02*
X139816032Y-96574207D01*
X140014146Y-96634305D01*
X140196729Y-96731897D01*
X140356765Y-96863235D01*
X140488103Y-97023271D01*
X140585695Y-97205854D01*
X140645793Y-97403968D01*
X140666085Y-97610000D01*
X140645793Y-97816032D01*
X140585695Y-98014146D01*
X140488103Y-98196729D01*
X140356765Y-98356765D01*
X140196729Y-98488103D01*
X140014146Y-98585695D01*
X139816032Y-98645793D01*
X139692510Y-98657959D01*
X139661631Y-98661000D01*
X138958369Y-98661000D01*
X138927490Y-98657959D01*
X138803968Y-98645793D01*
X138605854Y-98585695D01*
X138423271Y-98488103D01*
X138263235Y-98356765D01*
X138131897Y-98196729D01*
X138034305Y-98014146D01*
X137974207Y-97816032D01*
X137953915Y-97610000D01*
X137974207Y-97403968D01*
X138034305Y-97205854D01*
X138131897Y-97023271D01*
X138263235Y-96863235D01*
X138423271Y-96731897D01*
X138605854Y-96634305D01*
X138803968Y-96574207D01*
X138927490Y-96562041D01*
X138958369Y-96559000D01*
X139661631Y-96559000D01*
X139692510Y-96562041D01*
X139692510Y-96562041D01*
G37*
G36*
X115305589Y-96848876D02*
X115404893Y-96868629D01*
X115545206Y-96926748D01*
X115671484Y-97011125D01*
X115778875Y-97118516D01*
X115863252Y-97244794D01*
X115921371Y-97385107D01*
X115951000Y-97534063D01*
X115951000Y-97685937D01*
X115921371Y-97834893D01*
X115863252Y-97975206D01*
X115778875Y-98101484D01*
X115671484Y-98208875D01*
X115545206Y-98293252D01*
X115404893Y-98351371D01*
X115305589Y-98371124D01*
X115255938Y-98381000D01*
X115104062Y-98381000D01*
X115054411Y-98371124D01*
X114955107Y-98351371D01*
X114814794Y-98293252D01*
X114688516Y-98208875D01*
X114581125Y-98101484D01*
X114496748Y-97975206D01*
X114438629Y-97834893D01*
X114409000Y-97685937D01*
X114409000Y-97534063D01*
X114438629Y-97385107D01*
X114496748Y-97244794D01*
X114581125Y-97118516D01*
X114688516Y-97011125D01*
X114814794Y-96926748D01*
X114955107Y-96868629D01*
X115054411Y-96848876D01*
X115104062Y-96839000D01*
X115255938Y-96839000D01*
X115305589Y-96848876D01*
X115305589Y-96848876D01*
G37*
G36*
X120385589Y-96848876D02*
X120484893Y-96868629D01*
X120625206Y-96926748D01*
X120751484Y-97011125D01*
X120858875Y-97118516D01*
X120943252Y-97244794D01*
X121001371Y-97385107D01*
X121031000Y-97534063D01*
X121031000Y-97685937D01*
X121001371Y-97834893D01*
X120943252Y-97975206D01*
X120858875Y-98101484D01*
X120751484Y-98208875D01*
X120625206Y-98293252D01*
X120484893Y-98351371D01*
X120385589Y-98371124D01*
X120335938Y-98381000D01*
X120184062Y-98381000D01*
X120134411Y-98371124D01*
X120035107Y-98351371D01*
X119894794Y-98293252D01*
X119768516Y-98208875D01*
X119661125Y-98101484D01*
X119576748Y-97975206D01*
X119518629Y-97834893D01*
X119489000Y-97685937D01*
X119489000Y-97534063D01*
X119518629Y-97385107D01*
X119576748Y-97244794D01*
X119661125Y-97118516D01*
X119768516Y-97011125D01*
X119894794Y-96926748D01*
X120035107Y-96868629D01*
X120134411Y-96848876D01*
X120184062Y-96839000D01*
X120335938Y-96839000D01*
X120385589Y-96848876D01*
X120385589Y-96848876D01*
G37*
G36*
X117845589Y-96848876D02*
X117944893Y-96868629D01*
X118085206Y-96926748D01*
X118211484Y-97011125D01*
X118318875Y-97118516D01*
X118403252Y-97244794D01*
X118461371Y-97385107D01*
X118491000Y-97534063D01*
X118491000Y-97685937D01*
X118461371Y-97834893D01*
X118403252Y-97975206D01*
X118318875Y-98101484D01*
X118211484Y-98208875D01*
X118085206Y-98293252D01*
X117944893Y-98351371D01*
X117845589Y-98371124D01*
X117795938Y-98381000D01*
X117644062Y-98381000D01*
X117594411Y-98371124D01*
X117495107Y-98351371D01*
X117354794Y-98293252D01*
X117228516Y-98208875D01*
X117121125Y-98101484D01*
X117036748Y-97975206D01*
X116978629Y-97834893D01*
X116949000Y-97685937D01*
X116949000Y-97534063D01*
X116978629Y-97385107D01*
X117036748Y-97244794D01*
X117121125Y-97118516D01*
X117228516Y-97011125D01*
X117354794Y-96926748D01*
X117495107Y-96868629D01*
X117594411Y-96848876D01*
X117644062Y-96839000D01*
X117795938Y-96839000D01*
X117845589Y-96848876D01*
X117845589Y-96848876D01*
G37*
G36*
X139692510Y-94022041D02*
X139816032Y-94034207D01*
X140014146Y-94094305D01*
X140196729Y-94191897D01*
X140356765Y-94323235D01*
X140488103Y-94483271D01*
X140585695Y-94665854D01*
X140645793Y-94863968D01*
X140666085Y-95070000D01*
X140645793Y-95276032D01*
X140585695Y-95474146D01*
X140488103Y-95656729D01*
X140356765Y-95816765D01*
X140196729Y-95948103D01*
X140014146Y-96045695D01*
X139816032Y-96105793D01*
X139692510Y-96117959D01*
X139661631Y-96121000D01*
X138958369Y-96121000D01*
X138927490Y-96117959D01*
X138803968Y-96105793D01*
X138605854Y-96045695D01*
X138423271Y-95948103D01*
X138263235Y-95816765D01*
X138131897Y-95656729D01*
X138034305Y-95474146D01*
X137974207Y-95276032D01*
X137953915Y-95070000D01*
X137974207Y-94863968D01*
X138034305Y-94665854D01*
X138131897Y-94483271D01*
X138263235Y-94323235D01*
X138423271Y-94191897D01*
X138605854Y-94094305D01*
X138803968Y-94034207D01*
X138927490Y-94022041D01*
X138958369Y-94019000D01*
X139661631Y-94019000D01*
X139692510Y-94022041D01*
X139692510Y-94022041D01*
G37*
G36*
X139692510Y-91482041D02*
X139816032Y-91494207D01*
X140014146Y-91554305D01*
X140196729Y-91651897D01*
X140356765Y-91783235D01*
X140488103Y-91943271D01*
X140585695Y-92125854D01*
X140645793Y-92323968D01*
X140666085Y-92530000D01*
X140645793Y-92736032D01*
X140585695Y-92934146D01*
X140488103Y-93116729D01*
X140356765Y-93276765D01*
X140196729Y-93408103D01*
X140014146Y-93505695D01*
X139816032Y-93565793D01*
X139692510Y-93577959D01*
X139661631Y-93581000D01*
X138958369Y-93581000D01*
X138927490Y-93577959D01*
X138803968Y-93565793D01*
X138605854Y-93505695D01*
X138423271Y-93408103D01*
X138263235Y-93276765D01*
X138131897Y-93116729D01*
X138034305Y-92934146D01*
X137974207Y-92736032D01*
X137953915Y-92530000D01*
X137974207Y-92323968D01*
X138034305Y-92125854D01*
X138131897Y-91943271D01*
X138263235Y-91783235D01*
X138423271Y-91651897D01*
X138605854Y-91554305D01*
X138803968Y-91494207D01*
X138927490Y-91482041D01*
X138958369Y-91479000D01*
X139661631Y-91479000D01*
X139692510Y-91482041D01*
X139692510Y-91482041D01*
G37*
G36*
X109253238Y-89864760D02*
X109253240Y-89864761D01*
X109253241Y-89864761D01*
X109517306Y-89974140D01*
X109517307Y-89974141D01*
X109754962Y-90132937D01*
X109957063Y-90335038D01*
X109957065Y-90335041D01*
X110115860Y-90572694D01*
X110183820Y-90736765D01*
X110225240Y-90836762D01*
X110281000Y-91117088D01*
X110281000Y-91402912D01*
X110231474Y-91651899D01*
X110225239Y-91683241D01*
X110115860Y-91947306D01*
X110115859Y-91947307D01*
X109957063Y-92184962D01*
X109754962Y-92387063D01*
X109754959Y-92387065D01*
X109517306Y-92545860D01*
X109253241Y-92655239D01*
X109253240Y-92655239D01*
X109253238Y-92655240D01*
X108972912Y-92711000D01*
X108687088Y-92711000D01*
X108406762Y-92655240D01*
X108406760Y-92655239D01*
X108406759Y-92655239D01*
X108142694Y-92545860D01*
X107905041Y-92387065D01*
X107905038Y-92387063D01*
X107702937Y-92184962D01*
X107544141Y-91947307D01*
X107544140Y-91947306D01*
X107434761Y-91683241D01*
X107428527Y-91651899D01*
X107379000Y-91402912D01*
X107379000Y-91117088D01*
X107434760Y-90836762D01*
X107476180Y-90736765D01*
X107544140Y-90572694D01*
X107702935Y-90335041D01*
X107702937Y-90335038D01*
X107905038Y-90132937D01*
X108142693Y-89974141D01*
X108142694Y-89974140D01*
X108406759Y-89864761D01*
X108406760Y-89864761D01*
X108406762Y-89864760D01*
X108687088Y-89809000D01*
X108972912Y-89809000D01*
X109253238Y-89864760D01*
X109253238Y-89864760D01*
G37*
G36*
X115305589Y-90498876D02*
X115404893Y-90518629D01*
X115545206Y-90576748D01*
X115671484Y-90661125D01*
X115778875Y-90768516D01*
X115863252Y-90894794D01*
X115921371Y-91035107D01*
X115951000Y-91184063D01*
X115951000Y-91335937D01*
X115921371Y-91484893D01*
X115863252Y-91625206D01*
X115778875Y-91751484D01*
X115671484Y-91858875D01*
X115545206Y-91943252D01*
X115404893Y-92001371D01*
X115305589Y-92021124D01*
X115255938Y-92031000D01*
X115104062Y-92031000D01*
X115054411Y-92021124D01*
X114955107Y-92001371D01*
X114814794Y-91943252D01*
X114688516Y-91858875D01*
X114581125Y-91751484D01*
X114496748Y-91625206D01*
X114438629Y-91484893D01*
X114409000Y-91335937D01*
X114409000Y-91184063D01*
X114438629Y-91035107D01*
X114496748Y-90894794D01*
X114581125Y-90768516D01*
X114688516Y-90661125D01*
X114814794Y-90576748D01*
X114955107Y-90518629D01*
X115054411Y-90498876D01*
X115104062Y-90489000D01*
X115255938Y-90489000D01*
X115305589Y-90498876D01*
X115305589Y-90498876D01*
G37*
G36*
X120385589Y-90498876D02*
X120484893Y-90518629D01*
X120625206Y-90576748D01*
X120751484Y-90661125D01*
X120858875Y-90768516D01*
X120943252Y-90894794D01*
X121001371Y-91035107D01*
X121031000Y-91184063D01*
X121031000Y-91335937D01*
X121001371Y-91484893D01*
X120943252Y-91625206D01*
X120858875Y-91751484D01*
X120751484Y-91858875D01*
X120625206Y-91943252D01*
X120484893Y-92001371D01*
X120385589Y-92021124D01*
X120335938Y-92031000D01*
X120184062Y-92031000D01*
X120134411Y-92021124D01*
X120035107Y-92001371D01*
X119894794Y-91943252D01*
X119768516Y-91858875D01*
X119661125Y-91751484D01*
X119576748Y-91625206D01*
X119518629Y-91484893D01*
X119489000Y-91335937D01*
X119489000Y-91184063D01*
X119518629Y-91035107D01*
X119576748Y-90894794D01*
X119661125Y-90768516D01*
X119768516Y-90661125D01*
X119894794Y-90576748D01*
X120035107Y-90518629D01*
X120134411Y-90498876D01*
X120184062Y-90489000D01*
X120335938Y-90489000D01*
X120385589Y-90498876D01*
X120385589Y-90498876D01*
G37*
G36*
X117845589Y-90498876D02*
X117944893Y-90518629D01*
X118085206Y-90576748D01*
X118211484Y-90661125D01*
X118318875Y-90768516D01*
X118403252Y-90894794D01*
X118461371Y-91035107D01*
X118491000Y-91184063D01*
X118491000Y-91335937D01*
X118461371Y-91484893D01*
X118403252Y-91625206D01*
X118318875Y-91751484D01*
X118211484Y-91858875D01*
X118085206Y-91943252D01*
X117944893Y-92001371D01*
X117845589Y-92021124D01*
X117795938Y-92031000D01*
X117644062Y-92031000D01*
X117594411Y-92021124D01*
X117495107Y-92001371D01*
X117354794Y-91943252D01*
X117228516Y-91858875D01*
X117121125Y-91751484D01*
X117036748Y-91625206D01*
X116978629Y-91484893D01*
X116949000Y-91335937D01*
X116949000Y-91184063D01*
X116978629Y-91035107D01*
X117036748Y-90894794D01*
X117121125Y-90768516D01*
X117228516Y-90661125D01*
X117354794Y-90576748D01*
X117495107Y-90518629D01*
X117594411Y-90498876D01*
X117644062Y-90489000D01*
X117795938Y-90489000D01*
X117845589Y-90498876D01*
X117845589Y-90498876D01*
G37*
G36*
X139692510Y-88942041D02*
X139816032Y-88954207D01*
X140014146Y-89014305D01*
X140196729Y-89111897D01*
X140356765Y-89243235D01*
X140488103Y-89403271D01*
X140585695Y-89585854D01*
X140645793Y-89783968D01*
X140666085Y-89990000D01*
X140645793Y-90196032D01*
X140585695Y-90394146D01*
X140488103Y-90576729D01*
X140356765Y-90736765D01*
X140196729Y-90868103D01*
X140014146Y-90965695D01*
X139816032Y-91025793D01*
X139692510Y-91037959D01*
X139661631Y-91041000D01*
X138958369Y-91041000D01*
X138927490Y-91037959D01*
X138803968Y-91025793D01*
X138605854Y-90965695D01*
X138423271Y-90868103D01*
X138263235Y-90736765D01*
X138131897Y-90576729D01*
X138034305Y-90394146D01*
X137974207Y-90196032D01*
X137953915Y-89990000D01*
X137974207Y-89783968D01*
X138034305Y-89585854D01*
X138131897Y-89403271D01*
X138263235Y-89243235D01*
X138423271Y-89111897D01*
X138605854Y-89014305D01*
X138803968Y-88954207D01*
X138927490Y-88942041D01*
X138958369Y-88939000D01*
X139661631Y-88939000D01*
X139692510Y-88942041D01*
X139692510Y-88942041D01*
G37*
G36*
X139692510Y-86402041D02*
X139816032Y-86414207D01*
X140014146Y-86474305D01*
X140196729Y-86571897D01*
X140356765Y-86703235D01*
X140488103Y-86863271D01*
X140585695Y-87045854D01*
X140645793Y-87243968D01*
X140666085Y-87450000D01*
X140645793Y-87656032D01*
X140585695Y-87854146D01*
X140488103Y-88036729D01*
X140356765Y-88196765D01*
X140196729Y-88328103D01*
X140014146Y-88425695D01*
X139816032Y-88485793D01*
X139692510Y-88497959D01*
X139661631Y-88501000D01*
X138958369Y-88501000D01*
X138927490Y-88497959D01*
X138803968Y-88485793D01*
X138605854Y-88425695D01*
X138423271Y-88328103D01*
X138263235Y-88196765D01*
X138131897Y-88036729D01*
X138034305Y-87854146D01*
X137974207Y-87656032D01*
X137953915Y-87450000D01*
X137974207Y-87243968D01*
X138034305Y-87045854D01*
X138131897Y-86863271D01*
X138263235Y-86703235D01*
X138423271Y-86571897D01*
X138605854Y-86474305D01*
X138803968Y-86414207D01*
X138927490Y-86402041D01*
X138958369Y-86399000D01*
X139661631Y-86399000D01*
X139692510Y-86402041D01*
X139692510Y-86402041D01*
G37*
G36*
X109253238Y-83514760D02*
X109253240Y-83514761D01*
X109253241Y-83514761D01*
X109517306Y-83624140D01*
X109517307Y-83624141D01*
X109754962Y-83782937D01*
X109957063Y-83985038D01*
X109957065Y-83985041D01*
X110115860Y-84222694D01*
X110157519Y-84323269D01*
X110225240Y-84486762D01*
X110281000Y-84767088D01*
X110281000Y-85052912D01*
X110229038Y-85314146D01*
X110225239Y-85333241D01*
X110115860Y-85597306D01*
X110059937Y-85681000D01*
X109957063Y-85834962D01*
X109754962Y-86037063D01*
X109754959Y-86037065D01*
X109517306Y-86195860D01*
X109253241Y-86305239D01*
X109253240Y-86305239D01*
X109253238Y-86305240D01*
X108972912Y-86361000D01*
X108687088Y-86361000D01*
X108406762Y-86305240D01*
X108406760Y-86305239D01*
X108406759Y-86305239D01*
X108142694Y-86195860D01*
X107905041Y-86037065D01*
X107905038Y-86037063D01*
X107702937Y-85834962D01*
X107600063Y-85681000D01*
X107544140Y-85597306D01*
X107434761Y-85333241D01*
X107430963Y-85314146D01*
X107379000Y-85052912D01*
X107379000Y-84767088D01*
X107434760Y-84486762D01*
X107502481Y-84323269D01*
X107544140Y-84222694D01*
X107702935Y-83985041D01*
X107702937Y-83985038D01*
X107905038Y-83782937D01*
X108142693Y-83624141D01*
X108142694Y-83624140D01*
X108406759Y-83514761D01*
X108406760Y-83514761D01*
X108406762Y-83514760D01*
X108687088Y-83459000D01*
X108972912Y-83459000D01*
X109253238Y-83514760D01*
X109253238Y-83514760D01*
G37*
G36*
X139692510Y-83862041D02*
X139816032Y-83874207D01*
X140014146Y-83934305D01*
X140196729Y-84031897D01*
X140356765Y-84163235D01*
X140488103Y-84323271D01*
X140585695Y-84505854D01*
X140645793Y-84703968D01*
X140666085Y-84910000D01*
X140645793Y-85116032D01*
X140585695Y-85314146D01*
X140488103Y-85496729D01*
X140356765Y-85656765D01*
X140196729Y-85788103D01*
X140014146Y-85885695D01*
X139816032Y-85945793D01*
X139692510Y-85957959D01*
X139661631Y-85961000D01*
X138958369Y-85961000D01*
X138927490Y-85957959D01*
X138803968Y-85945793D01*
X138605854Y-85885695D01*
X138423271Y-85788103D01*
X138263235Y-85656765D01*
X138131897Y-85496729D01*
X138034305Y-85314146D01*
X137974207Y-85116032D01*
X137953915Y-84910000D01*
X137974207Y-84703968D01*
X138034305Y-84505854D01*
X138131897Y-84323271D01*
X138263235Y-84163235D01*
X138423271Y-84031897D01*
X138605854Y-83934305D01*
X138803968Y-83874207D01*
X138927490Y-83862041D01*
X138958369Y-83859000D01*
X139661631Y-83859000D01*
X139692510Y-83862041D01*
X139692510Y-83862041D01*
G37*
G36*
X117845589Y-84148876D02*
X117944893Y-84168629D01*
X118085206Y-84226748D01*
X118211484Y-84311125D01*
X118318875Y-84418516D01*
X118403252Y-84544794D01*
X118461371Y-84685107D01*
X118491000Y-84834063D01*
X118491000Y-84985937D01*
X118461371Y-85134893D01*
X118403252Y-85275206D01*
X118318875Y-85401484D01*
X118211484Y-85508875D01*
X118085206Y-85593252D01*
X117944893Y-85651371D01*
X117845589Y-85671124D01*
X117795938Y-85681000D01*
X117644062Y-85681000D01*
X117594411Y-85671124D01*
X117495107Y-85651371D01*
X117354794Y-85593252D01*
X117228516Y-85508875D01*
X117121125Y-85401484D01*
X117036748Y-85275206D01*
X116978629Y-85134893D01*
X116949000Y-84985937D01*
X116949000Y-84834063D01*
X116978629Y-84685107D01*
X117036748Y-84544794D01*
X117121125Y-84418516D01*
X117228516Y-84311125D01*
X117354794Y-84226748D01*
X117495107Y-84168629D01*
X117594411Y-84148876D01*
X117644062Y-84139000D01*
X117795938Y-84139000D01*
X117845589Y-84148876D01*
X117845589Y-84148876D01*
G37*
G36*
X120385589Y-84148876D02*
X120484893Y-84168629D01*
X120625206Y-84226748D01*
X120751484Y-84311125D01*
X120858875Y-84418516D01*
X120943252Y-84544794D01*
X121001371Y-84685107D01*
X121031000Y-84834063D01*
X121031000Y-84985937D01*
X121001371Y-85134893D01*
X120943252Y-85275206D01*
X120858875Y-85401484D01*
X120751484Y-85508875D01*
X120625206Y-85593252D01*
X120484893Y-85651371D01*
X120385589Y-85671124D01*
X120335938Y-85681000D01*
X120184062Y-85681000D01*
X120134411Y-85671124D01*
X120035107Y-85651371D01*
X119894794Y-85593252D01*
X119768516Y-85508875D01*
X119661125Y-85401484D01*
X119576748Y-85275206D01*
X119518629Y-85134893D01*
X119489000Y-84985937D01*
X119489000Y-84834063D01*
X119518629Y-84685107D01*
X119576748Y-84544794D01*
X119661125Y-84418516D01*
X119768516Y-84311125D01*
X119894794Y-84226748D01*
X120035107Y-84168629D01*
X120134411Y-84148876D01*
X120184062Y-84139000D01*
X120335938Y-84139000D01*
X120385589Y-84148876D01*
X120385589Y-84148876D01*
G37*
G36*
X115305589Y-84148876D02*
X115404893Y-84168629D01*
X115545206Y-84226748D01*
X115671484Y-84311125D01*
X115778875Y-84418516D01*
X115863252Y-84544794D01*
X115921371Y-84685107D01*
X115951000Y-84834063D01*
X115951000Y-84985937D01*
X115921371Y-85134893D01*
X115863252Y-85275206D01*
X115778875Y-85401484D01*
X115671484Y-85508875D01*
X115545206Y-85593252D01*
X115404893Y-85651371D01*
X115305589Y-85671124D01*
X115255938Y-85681000D01*
X115104062Y-85681000D01*
X115054411Y-85671124D01*
X114955107Y-85651371D01*
X114814794Y-85593252D01*
X114688516Y-85508875D01*
X114581125Y-85401484D01*
X114496748Y-85275206D01*
X114438629Y-85134893D01*
X114409000Y-84985937D01*
X114409000Y-84834063D01*
X114438629Y-84685107D01*
X114496748Y-84544794D01*
X114581125Y-84418516D01*
X114688516Y-84311125D01*
X114814794Y-84226748D01*
X114955107Y-84168629D01*
X115054411Y-84148876D01*
X115104062Y-84139000D01*
X115255938Y-84139000D01*
X115305589Y-84148876D01*
X115305589Y-84148876D01*
G37*
G36*
X139692510Y-81322041D02*
X139816032Y-81334207D01*
X140014146Y-81394305D01*
X140196729Y-81491897D01*
X140356765Y-81623235D01*
X140488103Y-81783271D01*
X140585695Y-81965854D01*
X140645793Y-82163968D01*
X140666085Y-82370000D01*
X140645793Y-82576032D01*
X140585695Y-82774146D01*
X140488103Y-82956729D01*
X140356765Y-83116765D01*
X140196729Y-83248103D01*
X140014146Y-83345695D01*
X139816032Y-83405793D01*
X139692510Y-83417959D01*
X139661631Y-83421000D01*
X138958369Y-83421000D01*
X138927490Y-83417959D01*
X138803968Y-83405793D01*
X138605854Y-83345695D01*
X138423271Y-83248103D01*
X138263235Y-83116765D01*
X138131897Y-82956729D01*
X138034305Y-82774146D01*
X137974207Y-82576032D01*
X137953915Y-82370000D01*
X137974207Y-82163968D01*
X138034305Y-81965854D01*
X138131897Y-81783271D01*
X138263235Y-81623235D01*
X138423271Y-81491897D01*
X138605854Y-81394305D01*
X138803968Y-81334207D01*
X138927490Y-81322041D01*
X138958369Y-81319000D01*
X139661631Y-81319000D01*
X139692510Y-81322041D01*
X139692510Y-81322041D01*
G37*
G36*
X109253238Y-77164760D02*
X109253240Y-77164761D01*
X109253241Y-77164761D01*
X109517306Y-77274140D01*
X109517307Y-77274141D01*
X109754962Y-77432937D01*
X109957063Y-77635038D01*
X109957065Y-77635041D01*
X110115860Y-77872694D01*
X110225239Y-78136759D01*
X110281000Y-78417089D01*
X110281000Y-78702911D01*
X110225239Y-78983241D01*
X110115860Y-79247306D01*
X110115859Y-79247307D01*
X109957063Y-79484962D01*
X109754962Y-79687063D01*
X109754959Y-79687065D01*
X109517306Y-79845860D01*
X109253241Y-79955239D01*
X109253240Y-79955239D01*
X109253238Y-79955240D01*
X108972912Y-80011000D01*
X108687088Y-80011000D01*
X108406762Y-79955240D01*
X108406760Y-79955239D01*
X108406759Y-79955239D01*
X108142694Y-79845860D01*
X107905041Y-79687065D01*
X107905038Y-79687063D01*
X107702937Y-79484962D01*
X107544141Y-79247307D01*
X107544140Y-79247306D01*
X107434761Y-78983241D01*
X107379000Y-78702911D01*
X107379000Y-78417089D01*
X107434761Y-78136759D01*
X107544140Y-77872694D01*
X107702935Y-77635041D01*
X107702937Y-77635038D01*
X107905038Y-77432937D01*
X108142693Y-77274141D01*
X108142694Y-77274140D01*
X108406759Y-77164761D01*
X108406760Y-77164761D01*
X108406762Y-77164760D01*
X108687088Y-77109000D01*
X108972912Y-77109000D01*
X109253238Y-77164760D01*
X109253238Y-77164760D01*
G37*
G36*
X115305589Y-77798876D02*
X115404893Y-77818629D01*
X115545206Y-77876748D01*
X115671484Y-77961125D01*
X115778875Y-78068516D01*
X115863252Y-78194794D01*
X115921371Y-78335107D01*
X115951000Y-78484063D01*
X115951000Y-78635937D01*
X115921371Y-78784893D01*
X115863252Y-78925206D01*
X115778875Y-79051484D01*
X115671484Y-79158875D01*
X115545206Y-79243252D01*
X115404893Y-79301371D01*
X115305589Y-79321124D01*
X115255938Y-79331000D01*
X115104062Y-79331000D01*
X115054411Y-79321124D01*
X114955107Y-79301371D01*
X114814794Y-79243252D01*
X114688516Y-79158875D01*
X114581125Y-79051484D01*
X114496748Y-78925206D01*
X114438629Y-78784893D01*
X114409000Y-78635937D01*
X114409000Y-78484063D01*
X114438629Y-78335107D01*
X114496748Y-78194794D01*
X114581125Y-78068516D01*
X114688516Y-77961125D01*
X114814794Y-77876748D01*
X114955107Y-77818629D01*
X115054411Y-77798876D01*
X115104062Y-77789000D01*
X115255938Y-77789000D01*
X115305589Y-77798876D01*
X115305589Y-77798876D01*
G37*
G36*
X120385589Y-77798876D02*
X120484893Y-77818629D01*
X120625206Y-77876748D01*
X120751484Y-77961125D01*
X120858875Y-78068516D01*
X120943252Y-78194794D01*
X121001371Y-78335107D01*
X121031000Y-78484063D01*
X121031000Y-78635937D01*
X121001371Y-78784893D01*
X120943252Y-78925206D01*
X120858875Y-79051484D01*
X120751484Y-79158875D01*
X120625206Y-79243252D01*
X120484893Y-79301371D01*
X120385589Y-79321124D01*
X120335938Y-79331000D01*
X120184062Y-79331000D01*
X120134411Y-79321124D01*
X120035107Y-79301371D01*
X119894794Y-79243252D01*
X119768516Y-79158875D01*
X119661125Y-79051484D01*
X119576748Y-78925206D01*
X119518629Y-78784893D01*
X119489000Y-78635937D01*
X119489000Y-78484063D01*
X119518629Y-78335107D01*
X119576748Y-78194794D01*
X119661125Y-78068516D01*
X119768516Y-77961125D01*
X119894794Y-77876748D01*
X120035107Y-77818629D01*
X120134411Y-77798876D01*
X120184062Y-77789000D01*
X120335938Y-77789000D01*
X120385589Y-77798876D01*
X120385589Y-77798876D01*
G37*
G36*
X117845589Y-77798876D02*
X117944893Y-77818629D01*
X118085206Y-77876748D01*
X118211484Y-77961125D01*
X118318875Y-78068516D01*
X118403252Y-78194794D01*
X118461371Y-78335107D01*
X118491000Y-78484063D01*
X118491000Y-78635937D01*
X118461371Y-78784893D01*
X118403252Y-78925206D01*
X118318875Y-79051484D01*
X118211484Y-79158875D01*
X118085206Y-79243252D01*
X117944893Y-79301371D01*
X117845589Y-79321124D01*
X117795938Y-79331000D01*
X117644062Y-79331000D01*
X117594411Y-79321124D01*
X117495107Y-79301371D01*
X117354794Y-79243252D01*
X117228516Y-79158875D01*
X117121125Y-79051484D01*
X117036748Y-78925206D01*
X116978629Y-78784893D01*
X116949000Y-78635937D01*
X116949000Y-78484063D01*
X116978629Y-78335107D01*
X117036748Y-78194794D01*
X117121125Y-78068516D01*
X117228516Y-77961125D01*
X117354794Y-77876748D01*
X117495107Y-77818629D01*
X117594411Y-77798876D01*
X117644062Y-77789000D01*
X117795938Y-77789000D01*
X117845589Y-77798876D01*
X117845589Y-77798876D01*
G37*
G36*
X109253238Y-70814760D02*
X109253240Y-70814761D01*
X109253241Y-70814761D01*
X109517306Y-70924140D01*
X109517307Y-70924141D01*
X109754962Y-71082937D01*
X109957063Y-71285038D01*
X109957065Y-71285041D01*
X110115860Y-71522694D01*
X110225239Y-71786759D01*
X110281000Y-72067089D01*
X110281000Y-72352911D01*
X110225239Y-72633241D01*
X110115860Y-72897306D01*
X110115859Y-72897307D01*
X109957063Y-73134962D01*
X109754962Y-73337063D01*
X109754959Y-73337065D01*
X109517306Y-73495860D01*
X109253241Y-73605239D01*
X109253240Y-73605239D01*
X109253238Y-73605240D01*
X108972912Y-73661000D01*
X108687088Y-73661000D01*
X108406762Y-73605240D01*
X108406760Y-73605239D01*
X108406759Y-73605239D01*
X108142694Y-73495860D01*
X107905041Y-73337065D01*
X107905038Y-73337063D01*
X107702937Y-73134962D01*
X107544141Y-72897307D01*
X107544140Y-72897306D01*
X107434761Y-72633241D01*
X107379000Y-72352911D01*
X107379000Y-72067089D01*
X107434761Y-71786759D01*
X107544140Y-71522694D01*
X107702935Y-71285041D01*
X107702937Y-71285038D01*
X107905038Y-71082937D01*
X108142693Y-70924141D01*
X108142694Y-70924140D01*
X108406759Y-70814761D01*
X108406760Y-70814761D01*
X108406762Y-70814760D01*
X108687088Y-70759000D01*
X108972912Y-70759000D01*
X109253238Y-70814760D01*
X109253238Y-70814760D01*
G37*
G36*
X120385589Y-71448876D02*
X120484893Y-71468629D01*
X120625206Y-71526748D01*
X120751484Y-71611125D01*
X120858875Y-71718516D01*
X120943252Y-71844794D01*
X121001371Y-71985107D01*
X121031000Y-72134063D01*
X121031000Y-72285937D01*
X121001371Y-72434893D01*
X120943252Y-72575206D01*
X120858875Y-72701484D01*
X120751484Y-72808875D01*
X120625206Y-72893252D01*
X120484893Y-72951371D01*
X120385589Y-72971124D01*
X120335938Y-72981000D01*
X120184062Y-72981000D01*
X120134411Y-72971124D01*
X120035107Y-72951371D01*
X119894794Y-72893252D01*
X119768516Y-72808875D01*
X119661125Y-72701484D01*
X119576748Y-72575206D01*
X119518629Y-72434893D01*
X119489000Y-72285937D01*
X119489000Y-72134063D01*
X119518629Y-71985107D01*
X119576748Y-71844794D01*
X119661125Y-71718516D01*
X119768516Y-71611125D01*
X119894794Y-71526748D01*
X120035107Y-71468629D01*
X120134411Y-71448876D01*
X120184062Y-71439000D01*
X120335938Y-71439000D01*
X120385589Y-71448876D01*
X120385589Y-71448876D01*
G37*
G36*
X117845589Y-71448876D02*
X117944893Y-71468629D01*
X118085206Y-71526748D01*
X118211484Y-71611125D01*
X118318875Y-71718516D01*
X118403252Y-71844794D01*
X118461371Y-71985107D01*
X118491000Y-72134063D01*
X118491000Y-72285937D01*
X118461371Y-72434893D01*
X118403252Y-72575206D01*
X118318875Y-72701484D01*
X118211484Y-72808875D01*
X118085206Y-72893252D01*
X117944893Y-72951371D01*
X117845589Y-72971124D01*
X117795938Y-72981000D01*
X117644062Y-72981000D01*
X117594411Y-72971124D01*
X117495107Y-72951371D01*
X117354794Y-72893252D01*
X117228516Y-72808875D01*
X117121125Y-72701484D01*
X117036748Y-72575206D01*
X116978629Y-72434893D01*
X116949000Y-72285937D01*
X116949000Y-72134063D01*
X116978629Y-71985107D01*
X117036748Y-71844794D01*
X117121125Y-71718516D01*
X117228516Y-71611125D01*
X117354794Y-71526748D01*
X117495107Y-71468629D01*
X117594411Y-71448876D01*
X117644062Y-71439000D01*
X117795938Y-71439000D01*
X117845589Y-71448876D01*
X117845589Y-71448876D01*
G37*
G36*
X115305589Y-71448876D02*
X115404893Y-71468629D01*
X115545206Y-71526748D01*
X115671484Y-71611125D01*
X115778875Y-71718516D01*
X115863252Y-71844794D01*
X115921371Y-71985107D01*
X115951000Y-72134063D01*
X115951000Y-72285937D01*
X115921371Y-72434893D01*
X115863252Y-72575206D01*
X115778875Y-72701484D01*
X115671484Y-72808875D01*
X115545206Y-72893252D01*
X115404893Y-72951371D01*
X115305589Y-72971124D01*
X115255938Y-72981000D01*
X115104062Y-72981000D01*
X115054411Y-72971124D01*
X114955107Y-72951371D01*
X114814794Y-72893252D01*
X114688516Y-72808875D01*
X114581125Y-72701484D01*
X114496748Y-72575206D01*
X114438629Y-72434893D01*
X114409000Y-72285937D01*
X114409000Y-72134063D01*
X114438629Y-71985107D01*
X114496748Y-71844794D01*
X114581125Y-71718516D01*
X114688516Y-71611125D01*
X114814794Y-71526748D01*
X114955107Y-71468629D01*
X115054411Y-71448876D01*
X115104062Y-71439000D01*
X115255938Y-71439000D01*
X115305589Y-71448876D01*
X115305589Y-71448876D01*
G37*
G36*
X109253238Y-64464760D02*
X109253240Y-64464761D01*
X109253241Y-64464761D01*
X109517306Y-64574140D01*
X109517307Y-64574141D01*
X109754962Y-64732937D01*
X109957063Y-64935038D01*
X109957065Y-64935041D01*
X110115860Y-65172694D01*
X110225239Y-65436759D01*
X110281000Y-65717089D01*
X110281000Y-66002911D01*
X110225239Y-66283241D01*
X110115860Y-66547306D01*
X110115859Y-66547307D01*
X109957063Y-66784962D01*
X109754962Y-66987063D01*
X109754959Y-66987065D01*
X109517306Y-67145860D01*
X109253241Y-67255239D01*
X109253240Y-67255239D01*
X109253238Y-67255240D01*
X108972912Y-67311000D01*
X108687088Y-67311000D01*
X108406762Y-67255240D01*
X108406760Y-67255239D01*
X108406759Y-67255239D01*
X108142694Y-67145860D01*
X107905041Y-66987065D01*
X107905038Y-66987063D01*
X107702937Y-66784962D01*
X107544141Y-66547307D01*
X107544140Y-66547306D01*
X107434761Y-66283241D01*
X107379000Y-66002911D01*
X107379000Y-65717089D01*
X107434761Y-65436759D01*
X107544140Y-65172694D01*
X107702935Y-64935041D01*
X107702937Y-64935038D01*
X107905038Y-64732937D01*
X108142693Y-64574141D01*
X108142694Y-64574140D01*
X108406759Y-64464761D01*
X108406760Y-64464761D01*
X108406762Y-64464760D01*
X108687088Y-64409000D01*
X108972912Y-64409000D01*
X109253238Y-64464760D01*
X109253238Y-64464760D01*
G37*
G36*
X120385589Y-65098876D02*
X120484893Y-65118629D01*
X120625206Y-65176748D01*
X120751484Y-65261125D01*
X120858875Y-65368516D01*
X120943252Y-65494794D01*
X121001371Y-65635107D01*
X121031000Y-65784063D01*
X121031000Y-65935937D01*
X121001371Y-66084893D01*
X120943252Y-66225206D01*
X120858875Y-66351484D01*
X120751484Y-66458875D01*
X120625206Y-66543252D01*
X120484893Y-66601371D01*
X120385589Y-66621124D01*
X120335938Y-66631000D01*
X120184062Y-66631000D01*
X120134411Y-66621124D01*
X120035107Y-66601371D01*
X119894794Y-66543252D01*
X119768516Y-66458875D01*
X119661125Y-66351484D01*
X119576748Y-66225206D01*
X119518629Y-66084893D01*
X119489000Y-65935937D01*
X119489000Y-65784063D01*
X119518629Y-65635107D01*
X119576748Y-65494794D01*
X119661125Y-65368516D01*
X119768516Y-65261125D01*
X119894794Y-65176748D01*
X120035107Y-65118629D01*
X120134411Y-65098876D01*
X120184062Y-65089000D01*
X120335938Y-65089000D01*
X120385589Y-65098876D01*
X120385589Y-65098876D01*
G37*
G36*
X115305589Y-65098876D02*
X115404893Y-65118629D01*
X115545206Y-65176748D01*
X115671484Y-65261125D01*
X115778875Y-65368516D01*
X115863252Y-65494794D01*
X115921371Y-65635107D01*
X115951000Y-65784063D01*
X115951000Y-65935937D01*
X115921371Y-66084893D01*
X115863252Y-66225206D01*
X115778875Y-66351484D01*
X115671484Y-66458875D01*
X115545206Y-66543252D01*
X115404893Y-66601371D01*
X115305589Y-66621124D01*
X115255938Y-66631000D01*
X115104062Y-66631000D01*
X115054411Y-66621124D01*
X114955107Y-66601371D01*
X114814794Y-66543252D01*
X114688516Y-66458875D01*
X114581125Y-66351484D01*
X114496748Y-66225206D01*
X114438629Y-66084893D01*
X114409000Y-65935937D01*
X114409000Y-65784063D01*
X114438629Y-65635107D01*
X114496748Y-65494794D01*
X114581125Y-65368516D01*
X114688516Y-65261125D01*
X114814794Y-65176748D01*
X114955107Y-65118629D01*
X115054411Y-65098876D01*
X115104062Y-65089000D01*
X115255938Y-65089000D01*
X115305589Y-65098876D01*
X115305589Y-65098876D01*
G37*
G36*
X117845589Y-65098876D02*
X117944893Y-65118629D01*
X118085206Y-65176748D01*
X118211484Y-65261125D01*
X118318875Y-65368516D01*
X118403252Y-65494794D01*
X118461371Y-65635107D01*
X118491000Y-65784063D01*
X118491000Y-65935937D01*
X118461371Y-66084893D01*
X118403252Y-66225206D01*
X118318875Y-66351484D01*
X118211484Y-66458875D01*
X118085206Y-66543252D01*
X117944893Y-66601371D01*
X117845589Y-66621124D01*
X117795938Y-66631000D01*
X117644062Y-66631000D01*
X117594411Y-66621124D01*
X117495107Y-66601371D01*
X117354794Y-66543252D01*
X117228516Y-66458875D01*
X117121125Y-66351484D01*
X117036748Y-66225206D01*
X116978629Y-66084893D01*
X116949000Y-65935937D01*
X116949000Y-65784063D01*
X116978629Y-65635107D01*
X117036748Y-65494794D01*
X117121125Y-65368516D01*
X117228516Y-65261125D01*
X117354794Y-65176748D01*
X117495107Y-65118629D01*
X117594411Y-65098876D01*
X117644062Y-65089000D01*
X117795938Y-65089000D01*
X117845589Y-65098876D01*
X117845589Y-65098876D01*
G37*
G36*
X135642531Y-62492207D02*
X135840645Y-62552305D01*
X136023229Y-62649897D01*
X136183265Y-62781235D01*
X136183266Y-62781237D01*
X136183268Y-62781238D01*
X136262068Y-62877257D01*
X136314603Y-62941271D01*
X136412195Y-63123854D01*
X136472293Y-63321968D01*
X136487500Y-63476370D01*
X136487500Y-64179629D01*
X136472293Y-64334031D01*
X136449551Y-64409000D01*
X136412195Y-64532147D01*
X136360031Y-64629739D01*
X136314603Y-64714729D01*
X136183265Y-64874765D01*
X136023229Y-65006103D01*
X135840646Y-65103695D01*
X135642532Y-65163793D01*
X135436500Y-65184085D01*
X135230469Y-65163793D01*
X135032355Y-65103695D01*
X134849772Y-65006103D01*
X134689736Y-64874765D01*
X134558399Y-64714731D01*
X134460806Y-64532148D01*
X134423449Y-64409000D01*
X134400707Y-64334032D01*
X134385500Y-64179630D01*
X134385500Y-63476371D01*
X134400707Y-63321969D01*
X134460805Y-63123855D01*
X134558397Y-62941271D01*
X134689735Y-62781235D01*
X134689737Y-62781234D01*
X134689738Y-62781232D01*
X134849769Y-62649899D01*
X134849771Y-62649897D01*
X135032354Y-62552305D01*
X135230468Y-62492207D01*
X135436500Y-62471915D01*
X135642531Y-62492207D01*
X135642531Y-62492207D01*
G37*
G36*
X133947500Y-65179000D02*
X131845500Y-65179000D01*
X131845500Y-62477000D01*
X133947500Y-62477000D01*
X133947500Y-65179000D01*
X133947500Y-65179000D01*
G37*
G36*
X118143238Y-56844760D02*
X118143240Y-56844761D01*
X118143241Y-56844761D01*
X118407306Y-56954140D01*
X118407307Y-56954141D01*
X118644962Y-57112937D01*
X118847063Y-57315038D01*
X118847065Y-57315041D01*
X119005860Y-57552694D01*
X119115239Y-57816759D01*
X119171000Y-58097089D01*
X119171000Y-58382911D01*
X119115239Y-58663241D01*
X119005860Y-58927306D01*
X119005859Y-58927307D01*
X118847063Y-59164962D01*
X118644962Y-59367063D01*
X118644959Y-59367065D01*
X118407306Y-59525860D01*
X118143241Y-59635239D01*
X118143240Y-59635239D01*
X118143238Y-59635240D01*
X117862912Y-59691000D01*
X117577088Y-59691000D01*
X117296762Y-59635240D01*
X117296760Y-59635239D01*
X117296759Y-59635239D01*
X117032694Y-59525860D01*
X116795041Y-59367065D01*
X116795038Y-59367063D01*
X116592937Y-59164962D01*
X116434141Y-58927307D01*
X116434140Y-58927306D01*
X116324761Y-58663241D01*
X116269000Y-58382911D01*
X116269000Y-58097089D01*
X116324761Y-57816759D01*
X116434140Y-57552694D01*
X116592935Y-57315041D01*
X116592937Y-57315038D01*
X116795038Y-57112937D01*
X117032693Y-56954141D01*
X117032694Y-56954140D01*
X117296759Y-56844761D01*
X117296760Y-56844761D01*
X117296762Y-56844760D01*
X117577088Y-56789000D01*
X117862912Y-56789000D01*
X118143238Y-56844760D01*
X118143238Y-56844760D01*
G37*
G36*
X147352527Y-51488736D02*
X147452410Y-51508604D01*
X147734674Y-51625521D01*
X147988705Y-51795259D01*
X148204741Y-52011295D01*
X148374479Y-52265326D01*
X148491396Y-52547590D01*
X148551000Y-52847240D01*
X148551000Y-53152760D01*
X148491396Y-53452410D01*
X148374479Y-53734674D01*
X148204741Y-53988705D01*
X147988705Y-54204741D01*
X147734674Y-54374479D01*
X147452410Y-54491396D01*
X147352527Y-54511264D01*
X147152762Y-54551000D01*
X146847238Y-54551000D01*
X146647473Y-54511264D01*
X146547590Y-54491396D01*
X146265326Y-54374479D01*
X146011295Y-54204741D01*
X145795259Y-53988705D01*
X145625521Y-53734674D01*
X145508604Y-53452410D01*
X145449000Y-53152760D01*
X145449000Y-52847240D01*
X145508604Y-52547590D01*
X145625521Y-52265326D01*
X145795259Y-52011295D01*
X146011295Y-51795259D01*
X146265326Y-51625521D01*
X146547590Y-51508604D01*
X146647473Y-51488736D01*
X146847238Y-51449000D01*
X147152762Y-51449000D01*
X147352527Y-51488736D01*
X147352527Y-51488736D01*
G37*
G36*
X103352527Y-51488736D02*
X103452410Y-51508604D01*
X103734674Y-51625521D01*
X103988705Y-51795259D01*
X104204741Y-52011295D01*
X104374479Y-52265326D01*
X104491396Y-52547590D01*
X104551000Y-52847240D01*
X104551000Y-53152760D01*
X104491396Y-53452410D01*
X104374479Y-53734674D01*
X104204741Y-53988705D01*
X103988705Y-54204741D01*
X103734674Y-54374479D01*
X103452410Y-54491396D01*
X103352527Y-54511264D01*
X103152762Y-54551000D01*
X102847238Y-54551000D01*
X102647473Y-54511264D01*
X102547590Y-54491396D01*
X102265326Y-54374479D01*
X102011295Y-54204741D01*
X101795259Y-53988705D01*
X101625521Y-53734674D01*
X101508604Y-53452410D01*
X101449000Y-53152760D01*
X101449000Y-52847240D01*
X101508604Y-52547590D01*
X101625521Y-52265326D01*
X101795259Y-52011295D01*
X102011295Y-51795259D01*
X102265326Y-51625521D01*
X102547590Y-51508604D01*
X102647473Y-51488736D01*
X102847238Y-51449000D01*
X103152762Y-51449000D01*
X103352527Y-51488736D01*
X103352527Y-51488736D01*
G37*
M02*
