%TF.GenerationSoftware,KiCad,Pcbnew,(5.0.0)*%
%TF.CreationDate,2019-02-02T21:25:33-06:00*%
%TF.ProjectId,BPSTester,4250535465737465722E6B696361645F,rev?*%
%TF.SameCoordinates,Original*%
%TF.FileFunction,Legend,Bot*%
%TF.FilePolarity,Positive*%
%FSLAX46Y46*%
G04 Gerber Fmt 4.6, Leading zero omitted, Abs format (unit mm)*
G04 Created by KiCad (PCBNEW (5.0.0)) date 02/02/19 21:25:33*
%MOMM*%
%LPD*%
G01*
G04 APERTURE LIST*
%ADD10C,0.300000*%
G04 APERTURE END LIST*
D10*
X125480714Y-118407142D02*
X125695000Y-118478571D01*
X126052142Y-118478571D01*
X126195000Y-118407142D01*
X126266428Y-118335714D01*
X126337857Y-118192857D01*
X126337857Y-118050000D01*
X126266428Y-117907142D01*
X126195000Y-117835714D01*
X126052142Y-117764285D01*
X125766428Y-117692857D01*
X125623571Y-117621428D01*
X125552142Y-117550000D01*
X125480714Y-117407142D01*
X125480714Y-117264285D01*
X125552142Y-117121428D01*
X125623571Y-117050000D01*
X125766428Y-116978571D01*
X126123571Y-116978571D01*
X126337857Y-117050000D01*
X126980714Y-117478571D02*
X126980714Y-118978571D01*
X126980714Y-117550000D02*
X127123571Y-117478571D01*
X127409285Y-117478571D01*
X127552142Y-117550000D01*
X127623571Y-117621428D01*
X127695000Y-117764285D01*
X127695000Y-118192857D01*
X127623571Y-118335714D01*
X127552142Y-118407142D01*
X127409285Y-118478571D01*
X127123571Y-118478571D01*
X126980714Y-118407142D01*
X128337857Y-118478571D02*
X128337857Y-117478571D01*
X128337857Y-117764285D02*
X128409285Y-117621428D01*
X128480714Y-117550000D01*
X128623571Y-117478571D01*
X128766428Y-117478571D01*
X129266428Y-118478571D02*
X129266428Y-117478571D01*
X129266428Y-116978571D02*
X129195000Y-117050000D01*
X129266428Y-117121428D01*
X129337857Y-117050000D01*
X129266428Y-116978571D01*
X129266428Y-117121428D01*
X129980714Y-117478571D02*
X129980714Y-118478571D01*
X129980714Y-117621428D02*
X130052142Y-117550000D01*
X130195000Y-117478571D01*
X130409285Y-117478571D01*
X130552142Y-117550000D01*
X130623571Y-117692857D01*
X130623571Y-118478571D01*
X131980714Y-117478571D02*
X131980714Y-118692857D01*
X131909285Y-118835714D01*
X131837857Y-118907142D01*
X131695000Y-118978571D01*
X131480714Y-118978571D01*
X131337857Y-118907142D01*
X131980714Y-118407142D02*
X131837857Y-118478571D01*
X131552142Y-118478571D01*
X131409285Y-118407142D01*
X131337857Y-118335714D01*
X131266428Y-118192857D01*
X131266428Y-117764285D01*
X131337857Y-117621428D01*
X131409285Y-117550000D01*
X131552142Y-117478571D01*
X131837857Y-117478571D01*
X131980714Y-117550000D01*
X133766428Y-117121428D02*
X133837857Y-117050000D01*
X133980714Y-116978571D01*
X134337857Y-116978571D01*
X134480714Y-117050000D01*
X134552142Y-117121428D01*
X134623571Y-117264285D01*
X134623571Y-117407142D01*
X134552142Y-117621428D01*
X133695000Y-118478571D01*
X134623571Y-118478571D01*
X135552142Y-116978571D02*
X135695000Y-116978571D01*
X135837857Y-117050000D01*
X135909285Y-117121428D01*
X135980714Y-117264285D01*
X136052142Y-117550000D01*
X136052142Y-117907142D01*
X135980714Y-118192857D01*
X135909285Y-118335714D01*
X135837857Y-118407142D01*
X135695000Y-118478571D01*
X135552142Y-118478571D01*
X135409285Y-118407142D01*
X135337857Y-118335714D01*
X135266428Y-118192857D01*
X135195000Y-117907142D01*
X135195000Y-117550000D01*
X135266428Y-117264285D01*
X135337857Y-117121428D01*
X135409285Y-117050000D01*
X135552142Y-116978571D01*
X137480714Y-118478571D02*
X136623571Y-118478571D01*
X137052142Y-118478571D02*
X137052142Y-116978571D01*
X136909285Y-117192857D01*
X136766428Y-117335714D01*
X136623571Y-117407142D01*
X138195000Y-118478571D02*
X138480714Y-118478571D01*
X138623571Y-118407142D01*
X138695000Y-118335714D01*
X138837857Y-118121428D01*
X138909285Y-117835714D01*
X138909285Y-117264285D01*
X138837857Y-117121428D01*
X138766428Y-117050000D01*
X138623571Y-116978571D01*
X138337857Y-116978571D01*
X138195000Y-117050000D01*
X138123571Y-117121428D01*
X138052142Y-117264285D01*
X138052142Y-117621428D01*
X138123571Y-117764285D01*
X138195000Y-117835714D01*
X138337857Y-117907142D01*
X138623571Y-117907142D01*
X138766428Y-117835714D01*
X138837857Y-117764285D01*
X138909285Y-117621428D01*
X139552142Y-118335714D02*
X139623571Y-118407142D01*
X139552142Y-118478571D01*
X139480714Y-118407142D01*
X139552142Y-118335714D01*
X139552142Y-118478571D01*
X139552142Y-117550000D02*
X139623571Y-117621428D01*
X139552142Y-117692857D01*
X139480714Y-117621428D01*
X139552142Y-117550000D01*
X139552142Y-117692857D01*
X125552142Y-121028571D02*
X125552142Y-119528571D01*
X126052142Y-120600000D01*
X126552142Y-119528571D01*
X126552142Y-121028571D01*
X127480714Y-121028571D02*
X127337857Y-120957142D01*
X127266428Y-120885714D01*
X127195000Y-120742857D01*
X127195000Y-120314285D01*
X127266428Y-120171428D01*
X127337857Y-120100000D01*
X127480714Y-120028571D01*
X127695000Y-120028571D01*
X127837857Y-120100000D01*
X127909285Y-120171428D01*
X127980714Y-120314285D01*
X127980714Y-120742857D01*
X127909285Y-120885714D01*
X127837857Y-120957142D01*
X127695000Y-121028571D01*
X127480714Y-121028571D01*
X128623571Y-120028571D02*
X128623571Y-121028571D01*
X128623571Y-120171428D02*
X128695000Y-120100000D01*
X128837857Y-120028571D01*
X129052142Y-120028571D01*
X129195000Y-120100000D01*
X129266428Y-120242857D01*
X129266428Y-121028571D01*
X130195000Y-121028571D02*
X130052142Y-120957142D01*
X129980714Y-120885714D01*
X129909285Y-120742857D01*
X129909285Y-120314285D01*
X129980714Y-120171428D01*
X130052142Y-120100000D01*
X130195000Y-120028571D01*
X130409285Y-120028571D01*
X130552142Y-120100000D01*
X130623571Y-120171428D01*
X130695000Y-120314285D01*
X130695000Y-120742857D01*
X130623571Y-120885714D01*
X130552142Y-120957142D01*
X130409285Y-121028571D01*
X130195000Y-121028571D01*
X131552142Y-121028571D02*
X131409285Y-120957142D01*
X131337857Y-120814285D01*
X131337857Y-119528571D01*
X132337857Y-121028571D02*
X132195000Y-120957142D01*
X132123571Y-120885714D01*
X132052142Y-120742857D01*
X132052142Y-120314285D01*
X132123571Y-120171428D01*
X132195000Y-120100000D01*
X132337857Y-120028571D01*
X132552142Y-120028571D01*
X132695000Y-120100000D01*
X132766428Y-120171428D01*
X132837857Y-120314285D01*
X132837857Y-120742857D01*
X132766428Y-120885714D01*
X132695000Y-120957142D01*
X132552142Y-121028571D01*
X132337857Y-121028571D01*
X134552142Y-120600000D02*
X135266428Y-120600000D01*
X134409285Y-121028571D02*
X134909285Y-119528571D01*
X135409285Y-121028571D01*
X136123571Y-121028571D02*
X135980714Y-120957142D01*
X135909285Y-120814285D01*
X135909285Y-119528571D01*
X136552142Y-120028571D02*
X136909285Y-121028571D01*
X137266428Y-120028571D01*
X138480714Y-121028571D02*
X138480714Y-120242857D01*
X138409285Y-120100000D01*
X138266428Y-120028571D01*
X137980714Y-120028571D01*
X137837857Y-120100000D01*
X138480714Y-120957142D02*
X138337857Y-121028571D01*
X137980714Y-121028571D01*
X137837857Y-120957142D01*
X137766428Y-120814285D01*
X137766428Y-120671428D01*
X137837857Y-120528571D01*
X137980714Y-120457142D01*
X138337857Y-120457142D01*
X138480714Y-120385714D01*
X139195000Y-121028571D02*
X139195000Y-120028571D01*
X139195000Y-120314285D02*
X139266428Y-120171428D01*
X139337857Y-120100000D01*
X139480714Y-120028571D01*
X139623571Y-120028571D01*
X140695000Y-120957142D02*
X140552142Y-121028571D01*
X140266428Y-121028571D01*
X140123571Y-120957142D01*
X140052142Y-120814285D01*
X140052142Y-120242857D01*
X140123571Y-120100000D01*
X140266428Y-120028571D01*
X140552142Y-120028571D01*
X140695000Y-120100000D01*
X140766428Y-120242857D01*
X140766428Y-120385714D01*
X140052142Y-120528571D01*
X141266428Y-120028571D02*
X142052142Y-120028571D01*
X141266428Y-121028571D01*
X142052142Y-121028571D01*
X126409285Y-123435714D02*
X126337857Y-123507142D01*
X126123571Y-123578571D01*
X125980714Y-123578571D01*
X125766428Y-123507142D01*
X125623571Y-123364285D01*
X125552142Y-123221428D01*
X125480714Y-122935714D01*
X125480714Y-122721428D01*
X125552142Y-122435714D01*
X125623571Y-122292857D01*
X125766428Y-122150000D01*
X125980714Y-122078571D01*
X126123571Y-122078571D01*
X126337857Y-122150000D01*
X126409285Y-122221428D01*
X127052142Y-123578571D02*
X127052142Y-122078571D01*
X127695000Y-123578571D02*
X127695000Y-122792857D01*
X127623571Y-122650000D01*
X127480714Y-122578571D01*
X127266428Y-122578571D01*
X127123571Y-122650000D01*
X127052142Y-122721428D01*
X129052142Y-123578571D02*
X129052142Y-122792857D01*
X128980714Y-122650000D01*
X128837857Y-122578571D01*
X128552142Y-122578571D01*
X128409285Y-122650000D01*
X129052142Y-123507142D02*
X128909285Y-123578571D01*
X128552142Y-123578571D01*
X128409285Y-123507142D01*
X128337857Y-123364285D01*
X128337857Y-123221428D01*
X128409285Y-123078571D01*
X128552142Y-123007142D01*
X128909285Y-123007142D01*
X129052142Y-122935714D01*
X129695000Y-123507142D02*
X129837857Y-123578571D01*
X130123571Y-123578571D01*
X130266428Y-123507142D01*
X130337857Y-123364285D01*
X130337857Y-123292857D01*
X130266428Y-123150000D01*
X130123571Y-123078571D01*
X129909285Y-123078571D01*
X129766428Y-123007142D01*
X129695000Y-122864285D01*
X129695000Y-122792857D01*
X129766428Y-122650000D01*
X129909285Y-122578571D01*
X130123571Y-122578571D01*
X130266428Y-122650000D01*
X131552142Y-123507142D02*
X131409285Y-123578571D01*
X131123571Y-123578571D01*
X130980714Y-123507142D01*
X130909285Y-123364285D01*
X130909285Y-122792857D01*
X130980714Y-122650000D01*
X131123571Y-122578571D01*
X131409285Y-122578571D01*
X131552142Y-122650000D01*
X131623571Y-122792857D01*
X131623571Y-122935714D01*
X130909285Y-123078571D01*
X133909285Y-122792857D02*
X134123571Y-122864285D01*
X134195000Y-122935714D01*
X134266428Y-123078571D01*
X134266428Y-123292857D01*
X134195000Y-123435714D01*
X134123571Y-123507142D01*
X133980714Y-123578571D01*
X133409285Y-123578571D01*
X133409285Y-122078571D01*
X133909285Y-122078571D01*
X134052142Y-122150000D01*
X134123571Y-122221428D01*
X134195000Y-122364285D01*
X134195000Y-122507142D01*
X134123571Y-122650000D01*
X134052142Y-122721428D01*
X133909285Y-122792857D01*
X133409285Y-122792857D01*
X135123571Y-123578571D02*
X134980714Y-123507142D01*
X134909285Y-123364285D01*
X134909285Y-122078571D01*
X135909285Y-123578571D02*
X135766428Y-123507142D01*
X135695000Y-123435714D01*
X135623571Y-123292857D01*
X135623571Y-122864285D01*
X135695000Y-122721428D01*
X135766428Y-122650000D01*
X135909285Y-122578571D01*
X136123571Y-122578571D01*
X136266428Y-122650000D01*
X136337857Y-122721428D01*
X136409285Y-122864285D01*
X136409285Y-123292857D01*
X136337857Y-123435714D01*
X136266428Y-123507142D01*
X136123571Y-123578571D01*
X135909285Y-123578571D01*
X137695000Y-123507142D02*
X137552142Y-123578571D01*
X137266428Y-123578571D01*
X137123571Y-123507142D01*
X137052142Y-123435714D01*
X136980714Y-123292857D01*
X136980714Y-122864285D01*
X137052142Y-122721428D01*
X137123571Y-122650000D01*
X137266428Y-122578571D01*
X137552142Y-122578571D01*
X137695000Y-122650000D01*
X138337857Y-123578571D02*
X138337857Y-122078571D01*
X138480714Y-123007142D02*
X138909285Y-123578571D01*
X138909285Y-122578571D02*
X138337857Y-123150000D01*
X126409285Y-125985714D02*
X126337857Y-126057142D01*
X126123571Y-126128571D01*
X125980714Y-126128571D01*
X125766428Y-126057142D01*
X125623571Y-125914285D01*
X125552142Y-125771428D01*
X125480714Y-125485714D01*
X125480714Y-125271428D01*
X125552142Y-124985714D01*
X125623571Y-124842857D01*
X125766428Y-124700000D01*
X125980714Y-124628571D01*
X126123571Y-124628571D01*
X126337857Y-124700000D01*
X126409285Y-124771428D01*
X127266428Y-126128571D02*
X127123571Y-126057142D01*
X127052142Y-125985714D01*
X126980714Y-125842857D01*
X126980714Y-125414285D01*
X127052142Y-125271428D01*
X127123571Y-125200000D01*
X127266428Y-125128571D01*
X127480714Y-125128571D01*
X127623571Y-125200000D01*
X127695000Y-125271428D01*
X127766428Y-125414285D01*
X127766428Y-125842857D01*
X127695000Y-125985714D01*
X127623571Y-126057142D01*
X127480714Y-126128571D01*
X127266428Y-126128571D01*
X128409285Y-126128571D02*
X128409285Y-125128571D01*
X128409285Y-125414285D02*
X128480714Y-125271428D01*
X128552142Y-125200000D01*
X128695000Y-125128571D01*
X128837857Y-125128571D01*
X129337857Y-126128571D02*
X129337857Y-124628571D01*
X129337857Y-125200000D02*
X129480714Y-125128571D01*
X129766428Y-125128571D01*
X129909285Y-125200000D01*
X129980714Y-125271428D01*
X130052142Y-125414285D01*
X130052142Y-125842857D01*
X129980714Y-125985714D01*
X129909285Y-126057142D01*
X129766428Y-126128571D01*
X129480714Y-126128571D01*
X129337857Y-126057142D01*
X130695000Y-126128571D02*
X130695000Y-125128571D01*
X130695000Y-124628571D02*
X130623571Y-124700000D01*
X130695000Y-124771428D01*
X130766428Y-124700000D01*
X130695000Y-124628571D01*
X130695000Y-124771428D01*
X131409285Y-125128571D02*
X131409285Y-126128571D01*
X131409285Y-125271428D02*
X131480714Y-125200000D01*
X131623571Y-125128571D01*
X131837857Y-125128571D01*
X131980714Y-125200000D01*
X132052142Y-125342857D01*
X132052142Y-126128571D01*
X134766428Y-125985714D02*
X134695000Y-126057142D01*
X134480714Y-126128571D01*
X134337857Y-126128571D01*
X134123571Y-126057142D01*
X133980714Y-125914285D01*
X133909285Y-125771428D01*
X133837857Y-125485714D01*
X133837857Y-125271428D01*
X133909285Y-124985714D01*
X133980714Y-124842857D01*
X134123571Y-124700000D01*
X134337857Y-124628571D01*
X134480714Y-124628571D01*
X134695000Y-124700000D01*
X134766428Y-124771428D01*
X136052142Y-126128571D02*
X136052142Y-125342857D01*
X135980714Y-125200000D01*
X135837857Y-125128571D01*
X135552142Y-125128571D01*
X135409285Y-125200000D01*
X136052142Y-126057142D02*
X135909285Y-126128571D01*
X135552142Y-126128571D01*
X135409285Y-126057142D01*
X135337857Y-125914285D01*
X135337857Y-125771428D01*
X135409285Y-125628571D01*
X135552142Y-125557142D01*
X135909285Y-125557142D01*
X136052142Y-125485714D01*
X136766428Y-125128571D02*
X136766428Y-126628571D01*
X136766428Y-125200000D02*
X136909285Y-125128571D01*
X137195000Y-125128571D01*
X137337857Y-125200000D01*
X137409285Y-125271428D01*
X137480714Y-125414285D01*
X137480714Y-125842857D01*
X137409285Y-125985714D01*
X137337857Y-126057142D01*
X137195000Y-126128571D01*
X136909285Y-126128571D01*
X136766428Y-126057142D01*
X138337857Y-126128571D02*
X138195000Y-126057142D01*
X138123571Y-125985714D01*
X138052142Y-125842857D01*
X138052142Y-125414285D01*
X138123571Y-125271428D01*
X138195000Y-125200000D01*
X138337857Y-125128571D01*
X138552142Y-125128571D01*
X138695000Y-125200000D01*
X138766428Y-125271428D01*
X138837857Y-125414285D01*
X138837857Y-125842857D01*
X138766428Y-125985714D01*
X138695000Y-126057142D01*
X138552142Y-126128571D01*
X138337857Y-126128571D01*
X126409285Y-128678571D02*
X125909285Y-127964285D01*
X125552142Y-128678571D02*
X125552142Y-127178571D01*
X126123571Y-127178571D01*
X126266428Y-127250000D01*
X126337857Y-127321428D01*
X126409285Y-127464285D01*
X126409285Y-127678571D01*
X126337857Y-127821428D01*
X126266428Y-127892857D01*
X126123571Y-127964285D01*
X125552142Y-127964285D01*
X127052142Y-128678571D02*
X127052142Y-127678571D01*
X127052142Y-127178571D02*
X126980714Y-127250000D01*
X127052142Y-127321428D01*
X127123571Y-127250000D01*
X127052142Y-127178571D01*
X127052142Y-127321428D01*
X128409285Y-128607142D02*
X128266428Y-128678571D01*
X127980714Y-128678571D01*
X127837857Y-128607142D01*
X127766428Y-128535714D01*
X127695000Y-128392857D01*
X127695000Y-127964285D01*
X127766428Y-127821428D01*
X127837857Y-127750000D01*
X127980714Y-127678571D01*
X128266428Y-127678571D01*
X128409285Y-127750000D01*
X129052142Y-128678571D02*
X129052142Y-127178571D01*
X129695000Y-128678571D02*
X129695000Y-127892857D01*
X129623571Y-127750000D01*
X129480714Y-127678571D01*
X129266428Y-127678571D01*
X129123571Y-127750000D01*
X129052142Y-127821428D01*
X131052142Y-128678571D02*
X131052142Y-127892857D01*
X130980714Y-127750000D01*
X130837857Y-127678571D01*
X130552142Y-127678571D01*
X130409285Y-127750000D01*
X131052142Y-128607142D02*
X130909285Y-128678571D01*
X130552142Y-128678571D01*
X130409285Y-128607142D01*
X130337857Y-128464285D01*
X130337857Y-128321428D01*
X130409285Y-128178571D01*
X130552142Y-128107142D01*
X130909285Y-128107142D01*
X131052142Y-128035714D01*
X131766428Y-128678571D02*
X131766428Y-127678571D01*
X131766428Y-127964285D02*
X131837857Y-127821428D01*
X131909285Y-127750000D01*
X132052142Y-127678571D01*
X132195000Y-127678571D01*
X133337857Y-128678571D02*
X133337857Y-127178571D01*
X133337857Y-128607142D02*
X133195000Y-128678571D01*
X132909285Y-128678571D01*
X132766428Y-128607142D01*
X132695000Y-128535714D01*
X132623571Y-128392857D01*
X132623571Y-127964285D01*
X132695000Y-127821428D01*
X132766428Y-127750000D01*
X132909285Y-127678571D01*
X133195000Y-127678571D01*
X133337857Y-127750000D01*
X135909285Y-128678571D02*
X135195000Y-128678571D01*
X135195000Y-127178571D01*
X136409285Y-128678571D02*
X136409285Y-127678571D01*
X136409285Y-127178571D02*
X136337857Y-127250000D01*
X136409285Y-127321428D01*
X136480714Y-127250000D01*
X136409285Y-127178571D01*
X136409285Y-127321428D01*
X125480714Y-130800000D02*
X126195000Y-130800000D01*
X125337857Y-131228571D02*
X125837857Y-129728571D01*
X126337857Y-131228571D01*
X127480714Y-130228571D02*
X127480714Y-131228571D01*
X126837857Y-130228571D02*
X126837857Y-131014285D01*
X126909285Y-131157142D01*
X127052142Y-131228571D01*
X127266428Y-131228571D01*
X127409285Y-131157142D01*
X127480714Y-131085714D01*
X128123571Y-131157142D02*
X128266428Y-131228571D01*
X128552142Y-131228571D01*
X128695000Y-131157142D01*
X128766428Y-131014285D01*
X128766428Y-130942857D01*
X128695000Y-130800000D01*
X128552142Y-130728571D01*
X128337857Y-130728571D01*
X128195000Y-130657142D01*
X128123571Y-130514285D01*
X128123571Y-130442857D01*
X128195000Y-130300000D01*
X128337857Y-130228571D01*
X128552142Y-130228571D01*
X128695000Y-130300000D01*
X129195000Y-130228571D02*
X129766428Y-130228571D01*
X129409285Y-129728571D02*
X129409285Y-131014285D01*
X129480714Y-131157142D01*
X129623571Y-131228571D01*
X129766428Y-131228571D01*
X130266428Y-131228571D02*
X130266428Y-130228571D01*
X130266428Y-129728571D02*
X130195000Y-129800000D01*
X130266428Y-129871428D01*
X130337857Y-129800000D01*
X130266428Y-129728571D01*
X130266428Y-129871428D01*
X130980714Y-130228571D02*
X130980714Y-131228571D01*
X130980714Y-130371428D02*
X131052142Y-130300000D01*
X131195000Y-130228571D01*
X131409285Y-130228571D01*
X131552142Y-130300000D01*
X131623571Y-130442857D01*
X131623571Y-131228571D01*
X133266428Y-129728571D02*
X134123571Y-129728571D01*
X133695000Y-131228571D02*
X133695000Y-129728571D01*
X134552142Y-131157142D02*
X134695000Y-131228571D01*
X134980714Y-131228571D01*
X135123571Y-131157142D01*
X135195000Y-131014285D01*
X135195000Y-130942857D01*
X135123571Y-130800000D01*
X134980714Y-130728571D01*
X134766428Y-130728571D01*
X134623571Y-130657142D01*
X134552142Y-130514285D01*
X134552142Y-130442857D01*
X134623571Y-130300000D01*
X134766428Y-130228571D01*
X134980714Y-130228571D01*
X135123571Y-130300000D01*
X136480714Y-131228571D02*
X136480714Y-130442857D01*
X136409285Y-130300000D01*
X136266428Y-130228571D01*
X135980714Y-130228571D01*
X135837857Y-130300000D01*
X136480714Y-131157142D02*
X136337857Y-131228571D01*
X135980714Y-131228571D01*
X135837857Y-131157142D01*
X135766428Y-131014285D01*
X135766428Y-130871428D01*
X135837857Y-130728571D01*
X135980714Y-130657142D01*
X136337857Y-130657142D01*
X136480714Y-130585714D01*
X137409285Y-131228571D02*
X137266428Y-131157142D01*
X137195000Y-131085714D01*
X137123571Y-130942857D01*
X137123571Y-130514285D01*
X137195000Y-130371428D01*
X137266428Y-130300000D01*
X137409285Y-130228571D01*
X137623571Y-130228571D01*
X137766428Y-130300000D01*
X137837857Y-130371428D01*
X137909285Y-130514285D01*
X137909285Y-130942857D01*
X137837857Y-131085714D01*
X137766428Y-131157142D01*
X137623571Y-131228571D01*
X137409285Y-131228571D01*
X126337857Y-132350000D02*
X126195000Y-132278571D01*
X125980714Y-132278571D01*
X125766428Y-132350000D01*
X125623571Y-132492857D01*
X125552142Y-132635714D01*
X125480714Y-132921428D01*
X125480714Y-133135714D01*
X125552142Y-133421428D01*
X125623571Y-133564285D01*
X125766428Y-133707142D01*
X125980714Y-133778571D01*
X126123571Y-133778571D01*
X126337857Y-133707142D01*
X126409285Y-133635714D01*
X126409285Y-133135714D01*
X126123571Y-133135714D01*
X127695000Y-133778571D02*
X127695000Y-132992857D01*
X127623571Y-132850000D01*
X127480714Y-132778571D01*
X127195000Y-132778571D01*
X127052142Y-132850000D01*
X127695000Y-133707142D02*
X127552142Y-133778571D01*
X127195000Y-133778571D01*
X127052142Y-133707142D01*
X126980714Y-133564285D01*
X126980714Y-133421428D01*
X127052142Y-133278571D01*
X127195000Y-133207142D01*
X127552142Y-133207142D01*
X127695000Y-133135714D01*
X128409285Y-133778571D02*
X128409285Y-132778571D01*
X128409285Y-133064285D02*
X128480714Y-132921428D01*
X128552142Y-132850000D01*
X128695000Y-132778571D01*
X128837857Y-132778571D01*
X129337857Y-133778571D02*
X129337857Y-132778571D01*
X129337857Y-133064285D02*
X129409285Y-132921428D01*
X129480714Y-132850000D01*
X129623571Y-132778571D01*
X129766428Y-132778571D01*
X130837857Y-133707142D02*
X130695000Y-133778571D01*
X130409285Y-133778571D01*
X130266428Y-133707142D01*
X130195000Y-133564285D01*
X130195000Y-132992857D01*
X130266428Y-132850000D01*
X130409285Y-132778571D01*
X130695000Y-132778571D01*
X130837857Y-132850000D01*
X130909285Y-132992857D01*
X130909285Y-133135714D01*
X130195000Y-133278571D01*
X131337857Y-132778571D02*
X131909285Y-132778571D01*
X131552142Y-132278571D02*
X131552142Y-133564285D01*
X131623571Y-133707142D01*
X131766428Y-133778571D01*
X131909285Y-133778571D01*
X132195000Y-132778571D02*
X132766428Y-132778571D01*
X132409285Y-132278571D02*
X132409285Y-133564285D01*
X132480714Y-133707142D01*
X132623571Y-133778571D01*
X132766428Y-133778571D01*
X134266428Y-132278571D02*
X134623571Y-133778571D01*
X134909285Y-132707142D01*
X135195000Y-133778571D01*
X135552142Y-132278571D01*
X136337857Y-133778571D02*
X136195000Y-133707142D01*
X136123571Y-133635714D01*
X136052142Y-133492857D01*
X136052142Y-133064285D01*
X136123571Y-132921428D01*
X136195000Y-132850000D01*
X136337857Y-132778571D01*
X136552142Y-132778571D01*
X136695000Y-132850000D01*
X136766428Y-132921428D01*
X136837857Y-133064285D01*
X136837857Y-133492857D01*
X136766428Y-133635714D01*
X136695000Y-133707142D01*
X136552142Y-133778571D01*
X136337857Y-133778571D01*
X137480714Y-132778571D02*
X137480714Y-133778571D01*
X137480714Y-132921428D02*
X137552142Y-132850000D01*
X137695000Y-132778571D01*
X137909285Y-132778571D01*
X138052142Y-132850000D01*
X138123571Y-132992857D01*
X138123571Y-133778571D01*
X139480714Y-132778571D02*
X139480714Y-133992857D01*
X139409285Y-134135714D01*
X139337857Y-134207142D01*
X139195000Y-134278571D01*
X138980714Y-134278571D01*
X138837857Y-134207142D01*
X139480714Y-133707142D02*
X139337857Y-133778571D01*
X139052142Y-133778571D01*
X138909285Y-133707142D01*
X138837857Y-133635714D01*
X138766428Y-133492857D01*
X138766428Y-133064285D01*
X138837857Y-132921428D01*
X138909285Y-132850000D01*
X139052142Y-132778571D01*
X139337857Y-132778571D01*
X139480714Y-132850000D01*
X125480714Y-136257142D02*
X125695000Y-136328571D01*
X126052142Y-136328571D01*
X126195000Y-136257142D01*
X126266428Y-136185714D01*
X126337857Y-136042857D01*
X126337857Y-135900000D01*
X126266428Y-135757142D01*
X126195000Y-135685714D01*
X126052142Y-135614285D01*
X125766428Y-135542857D01*
X125623571Y-135471428D01*
X125552142Y-135400000D01*
X125480714Y-135257142D01*
X125480714Y-135114285D01*
X125552142Y-134971428D01*
X125623571Y-134900000D01*
X125766428Y-134828571D01*
X126123571Y-134828571D01*
X126337857Y-134900000D01*
X126980714Y-136328571D02*
X126980714Y-135328571D01*
X126980714Y-134828571D02*
X126909285Y-134900000D01*
X126980714Y-134971428D01*
X127052142Y-134900000D01*
X126980714Y-134828571D01*
X126980714Y-134971428D01*
X127695000Y-136328571D02*
X127695000Y-134828571D01*
X128337857Y-136328571D02*
X128337857Y-135542857D01*
X128266428Y-135400000D01*
X128123571Y-135328571D01*
X127909285Y-135328571D01*
X127766428Y-135400000D01*
X127695000Y-135471428D01*
X128909285Y-135328571D02*
X129266428Y-136328571D01*
X129623571Y-135328571D02*
X129266428Y-136328571D01*
X129123571Y-136685714D01*
X129052142Y-136757142D01*
X128909285Y-136828571D01*
X130837857Y-135328571D02*
X130837857Y-136328571D01*
X130195000Y-135328571D02*
X130195000Y-136114285D01*
X130266428Y-136257142D01*
X130409285Y-136328571D01*
X130623571Y-136328571D01*
X130766428Y-136257142D01*
X130837857Y-136185714D01*
X131552142Y-135328571D02*
X131552142Y-136328571D01*
X131552142Y-135471428D02*
X131623571Y-135400000D01*
X131766428Y-135328571D01*
X131980714Y-135328571D01*
X132123571Y-135400000D01*
X132195000Y-135542857D01*
X132195000Y-136328571D01*
X133552142Y-135328571D02*
X133552142Y-136542857D01*
X133480714Y-136685714D01*
X133409285Y-136757142D01*
X133266428Y-136828571D01*
X133052142Y-136828571D01*
X132909285Y-136757142D01*
X133552142Y-136257142D02*
X133409285Y-136328571D01*
X133123571Y-136328571D01*
X132980714Y-136257142D01*
X132909285Y-136185714D01*
X132837857Y-136042857D01*
X132837857Y-135614285D01*
X132909285Y-135471428D01*
X132980714Y-135400000D01*
X133123571Y-135328571D01*
X133409285Y-135328571D01*
X133552142Y-135400000D01*
X135266428Y-134828571D02*
X135623571Y-136328571D01*
X135909285Y-135257142D01*
X136195000Y-136328571D01*
X136552142Y-134828571D01*
X137337857Y-136328571D02*
X137195000Y-136257142D01*
X137123571Y-136185714D01*
X137052142Y-136042857D01*
X137052142Y-135614285D01*
X137123571Y-135471428D01*
X137195000Y-135400000D01*
X137337857Y-135328571D01*
X137552142Y-135328571D01*
X137695000Y-135400000D01*
X137766428Y-135471428D01*
X137837857Y-135614285D01*
X137837857Y-136042857D01*
X137766428Y-136185714D01*
X137695000Y-136257142D01*
X137552142Y-136328571D01*
X137337857Y-136328571D01*
X138695000Y-136328571D02*
X138552142Y-136257142D01*
X138480714Y-136185714D01*
X138409285Y-136042857D01*
X138409285Y-135614285D01*
X138480714Y-135471428D01*
X138552142Y-135400000D01*
X138695000Y-135328571D01*
X138909285Y-135328571D01*
X139052142Y-135400000D01*
X139123571Y-135471428D01*
X139195000Y-135614285D01*
X139195000Y-136042857D01*
X139123571Y-136185714D01*
X139052142Y-136257142D01*
X138909285Y-136328571D01*
X138695000Y-136328571D01*
X125480714Y-138807142D02*
X125695000Y-138878571D01*
X126052142Y-138878571D01*
X126195000Y-138807142D01*
X126266428Y-138735714D01*
X126337857Y-138592857D01*
X126337857Y-138450000D01*
X126266428Y-138307142D01*
X126195000Y-138235714D01*
X126052142Y-138164285D01*
X125766428Y-138092857D01*
X125623571Y-138021428D01*
X125552142Y-137950000D01*
X125480714Y-137807142D01*
X125480714Y-137664285D01*
X125552142Y-137521428D01*
X125623571Y-137450000D01*
X125766428Y-137378571D01*
X126123571Y-137378571D01*
X126337857Y-137450000D01*
X126980714Y-138878571D02*
X126980714Y-137878571D01*
X126980714Y-137378571D02*
X126909285Y-137450000D01*
X126980714Y-137521428D01*
X127052142Y-137450000D01*
X126980714Y-137378571D01*
X126980714Y-137521428D01*
X127695000Y-137878571D02*
X127695000Y-139164285D01*
X127623571Y-139307142D01*
X127480714Y-139378571D01*
X127409285Y-139378571D01*
X127695000Y-137378571D02*
X127623571Y-137450000D01*
X127695000Y-137521428D01*
X127766428Y-137450000D01*
X127695000Y-137378571D01*
X127695000Y-137521428D01*
X128409285Y-138878571D02*
X128409285Y-137878571D01*
X128409285Y-137378571D02*
X128337857Y-137450000D01*
X128409285Y-137521428D01*
X128480714Y-137450000D01*
X128409285Y-137378571D01*
X128409285Y-137521428D01*
X129123571Y-137878571D02*
X129123571Y-138878571D01*
X129123571Y-138021428D02*
X129195000Y-137950000D01*
X129337857Y-137878571D01*
X129552142Y-137878571D01*
X129695000Y-137950000D01*
X129766428Y-138092857D01*
X129766428Y-138878571D01*
X131480714Y-137378571D02*
X131837857Y-138878571D01*
X132123571Y-137807142D01*
X132409285Y-138878571D01*
X132766428Y-137378571D01*
X133552142Y-138878571D02*
X133409285Y-138807142D01*
X133337857Y-138735714D01*
X133266428Y-138592857D01*
X133266428Y-138164285D01*
X133337857Y-138021428D01*
X133409285Y-137950000D01*
X133552142Y-137878571D01*
X133766428Y-137878571D01*
X133909285Y-137950000D01*
X133980714Y-138021428D01*
X134052142Y-138164285D01*
X134052142Y-138592857D01*
X133980714Y-138735714D01*
X133909285Y-138807142D01*
X133766428Y-138878571D01*
X133552142Y-138878571D01*
X134909285Y-138878571D02*
X134766428Y-138807142D01*
X134695000Y-138735714D01*
X134623571Y-138592857D01*
X134623571Y-138164285D01*
X134695000Y-138021428D01*
X134766428Y-137950000D01*
X134909285Y-137878571D01*
X135123571Y-137878571D01*
X135266428Y-137950000D01*
X135337857Y-138021428D01*
X135409285Y-138164285D01*
X135409285Y-138592857D01*
X135337857Y-138735714D01*
X135266428Y-138807142D01*
X135123571Y-138878571D01*
X134909285Y-138878571D01*
M02*
