M48
;DRILL file {KiCad (5.0.0)} date 02/02/19 21:25:36
;FORMAT={-:-/ absolute / inch / decimal}
FMAT,2
INCH,TZ
T1C0.0315
T2C0.0472
T3C0.0630
T4C0.1181
%
G90
G05
M72
T1
X4.5346Y-3.0929
X4.6346Y-3.0929
X4.7346Y-3.0929
X4.5346Y-4.5929
X4.6346Y-4.5929
X4.7346Y-4.5929
X4.5346Y-3.8429
X4.6346Y-3.8429
X4.7346Y-3.8429
X4.5346Y-4.0929
X4.6346Y-4.0929
X4.7346Y-4.0929
X4.5346Y-3.5929
X4.6346Y-3.5929
X4.7346Y-3.5929
X4.5346Y-5.3429
X4.6346Y-5.3429
X4.7346Y-5.3429
X4.5346Y-5.0929
X4.6346Y-5.0929
X4.7346Y-5.0929
X4.5346Y-2.8429
X4.6346Y-2.8429
X4.7346Y-2.8429
X4.5346Y-4.8429
X4.6346Y-4.8429
X4.7346Y-4.8429
X4.5346Y-3.3429
X4.6346Y-3.3429
X4.7346Y-3.3429
X4.5346Y-4.3429
X4.6346Y-4.3429
X4.7346Y-4.3429
X4.5346Y-2.5929
X4.6346Y-2.5929
X4.7346Y-2.5929
T2
X5.2321Y-2.5129
X5.3321Y-2.5129
X5.4846Y-3.2429
X5.4846Y-3.3429
X5.4846Y-3.4429
X5.4846Y-3.5429
X5.4846Y-3.6429
X5.4846Y-3.7429
X5.4846Y-3.8429
X5.4846Y-3.9429
X5.4846Y-4.0429
X5.4846Y-4.1429
X5.4846Y-4.2429
X5.4846Y-4.3429
X5.4846Y-4.4429
T3
X4.2846Y-3.8429
X4.2846Y-3.5929
X4.2846Y-3.3429
X4.2846Y-4.5929
X4.6346Y-2.2929
X4.2846Y-5.0929
X4.2846Y-4.3429
X4.2846Y-3.0929
X4.2846Y-4.0929
X4.2846Y-2.5929
X4.2846Y-2.8429
X4.5346Y-5.6429
X4.2846Y-4.8429
T4
X5.7874Y-2.0866
X5.7874Y-5.7874
X4.0551Y-2.0866
X4.0551Y-5.7874
T0
M30
