%TF.GenerationSoftware,KiCad,Pcbnew,(5.0.0)*%
%TF.CreationDate,2019-02-02T21:12:50-06:00*%
%TF.ProjectId,BPSVoltage,425053566F6C746167652E6B69636164,rev?*%
%TF.SameCoordinates,Original*%
%TF.FileFunction,Legend,Bot*%
%TF.FilePolarity,Positive*%
%FSLAX46Y46*%
G04 Gerber Fmt 4.6, Leading zero omitted, Abs format (unit mm)*
G04 Created by KiCad (PCBNEW (5.0.0)) date 02/02/19 21:12:50*
%MOMM*%
%LPD*%
G01*
G04 APERTURE LIST*
%ADD10C,0.300000*%
%ADD11C,0.150000*%
%ADD12C,0.120000*%
%ADD13C,0.010000*%
G04 APERTURE END LIST*
D10*
X108100000Y-103028571D02*
X108100000Y-101528571D01*
X107742857Y-101528571D01*
X107528571Y-101600000D01*
X107385714Y-101742857D01*
X107314285Y-101885714D01*
X107242857Y-102171428D01*
X107242857Y-102385714D01*
X107314285Y-102671428D01*
X107385714Y-102814285D01*
X107528571Y-102957142D01*
X107742857Y-103028571D01*
X108100000Y-103028571D01*
X106600000Y-103028571D02*
X106600000Y-102028571D01*
X106600000Y-102314285D02*
X106528571Y-102171428D01*
X106457142Y-102100000D01*
X106314285Y-102028571D01*
X106171428Y-102028571D01*
X105671428Y-102885714D02*
X105600000Y-102957142D01*
X105671428Y-103028571D01*
X105742857Y-102957142D01*
X105671428Y-102885714D01*
X105671428Y-103028571D01*
X103028571Y-101600000D02*
X103171428Y-101528571D01*
X103385714Y-101528571D01*
X103600000Y-101600000D01*
X103742857Y-101742857D01*
X103814285Y-101885714D01*
X103885714Y-102171428D01*
X103885714Y-102385714D01*
X103814285Y-102671428D01*
X103742857Y-102814285D01*
X103600000Y-102957142D01*
X103385714Y-103028571D01*
X103242857Y-103028571D01*
X103028571Y-102957142D01*
X102957142Y-102885714D01*
X102957142Y-102385714D01*
X103242857Y-102385714D01*
X101671428Y-103028571D02*
X101671428Y-102242857D01*
X101742857Y-102100000D01*
X101885714Y-102028571D01*
X102171428Y-102028571D01*
X102314285Y-102100000D01*
X101671428Y-102957142D02*
X101814285Y-103028571D01*
X102171428Y-103028571D01*
X102314285Y-102957142D01*
X102385714Y-102814285D01*
X102385714Y-102671428D01*
X102314285Y-102528571D01*
X102171428Y-102457142D01*
X101814285Y-102457142D01*
X101671428Y-102385714D01*
X100957142Y-103028571D02*
X100957142Y-102028571D01*
X100957142Y-102314285D02*
X100885714Y-102171428D01*
X100814285Y-102100000D01*
X100671428Y-102028571D01*
X100528571Y-102028571D01*
X100171428Y-102028571D02*
X99814285Y-103028571D01*
X99457142Y-102028571D02*
X99814285Y-103028571D01*
X99957142Y-103385714D01*
X100028571Y-103457142D01*
X100171428Y-103528571D01*
X97742857Y-103028571D02*
X97742857Y-101528571D01*
X97742857Y-102242857D02*
X96885714Y-102242857D01*
X96885714Y-103028571D02*
X96885714Y-101528571D01*
X95528571Y-103028571D02*
X95528571Y-102242857D01*
X95600000Y-102100000D01*
X95742857Y-102028571D01*
X96028571Y-102028571D01*
X96171428Y-102100000D01*
X95528571Y-102957142D02*
X95671428Y-103028571D01*
X96028571Y-103028571D01*
X96171428Y-102957142D01*
X96242857Y-102814285D01*
X96242857Y-102671428D01*
X96171428Y-102528571D01*
X96028571Y-102457142D01*
X95671428Y-102457142D01*
X95528571Y-102385714D01*
X94600000Y-103028571D02*
X94742857Y-102957142D01*
X94814285Y-102814285D01*
X94814285Y-101528571D01*
X93814285Y-103028571D02*
X93957142Y-102957142D01*
X94028571Y-102814285D01*
X94028571Y-101528571D01*
X93028571Y-103028571D02*
X93171428Y-102957142D01*
X93242857Y-102885714D01*
X93314285Y-102742857D01*
X93314285Y-102314285D01*
X93242857Y-102171428D01*
X93171428Y-102100000D01*
X93028571Y-102028571D01*
X92814285Y-102028571D01*
X92671428Y-102100000D01*
X92600000Y-102171428D01*
X92528571Y-102314285D01*
X92528571Y-102742857D01*
X92600000Y-102885714D01*
X92671428Y-102957142D01*
X92814285Y-103028571D01*
X93028571Y-103028571D01*
X91242857Y-102957142D02*
X91385714Y-103028571D01*
X91671428Y-103028571D01*
X91814285Y-102957142D01*
X91885714Y-102885714D01*
X91957142Y-102742857D01*
X91957142Y-102314285D01*
X91885714Y-102171428D01*
X91814285Y-102100000D01*
X91671428Y-102028571D01*
X91385714Y-102028571D01*
X91242857Y-102100000D01*
X90600000Y-103028571D02*
X90600000Y-101528571D01*
X90457142Y-102457142D02*
X90028571Y-103028571D01*
X90028571Y-102028571D02*
X90600000Y-102600000D01*
D11*
X91152023Y-64924761D02*
X91009166Y-64972380D01*
X90771071Y-64972380D01*
X90675833Y-64924761D01*
X90628214Y-64877142D01*
X90580595Y-64781904D01*
X90580595Y-64686666D01*
X90628214Y-64591428D01*
X90675833Y-64543809D01*
X90771071Y-64496190D01*
X90961547Y-64448571D01*
X91056785Y-64400952D01*
X91104404Y-64353333D01*
X91152023Y-64258095D01*
X91152023Y-64162857D01*
X91104404Y-64067619D01*
X91056785Y-64020000D01*
X90961547Y-63972380D01*
X90723452Y-63972380D01*
X90580595Y-64020000D01*
X90152023Y-64305714D02*
X90152023Y-65305714D01*
X90152023Y-64353333D02*
X90056785Y-64305714D01*
X89866309Y-64305714D01*
X89771071Y-64353333D01*
X89723452Y-64400952D01*
X89675833Y-64496190D01*
X89675833Y-64781904D01*
X89723452Y-64877142D01*
X89771071Y-64924761D01*
X89866309Y-64972380D01*
X90056785Y-64972380D01*
X90152023Y-64924761D01*
X89247261Y-64972380D02*
X89247261Y-64305714D01*
X89247261Y-64496190D02*
X89199642Y-64400952D01*
X89152023Y-64353333D01*
X89056785Y-64305714D01*
X88961547Y-64305714D01*
X88628214Y-64972380D02*
X88628214Y-64305714D01*
X88628214Y-63972380D02*
X88675833Y-64020000D01*
X88628214Y-64067619D01*
X88580595Y-64020000D01*
X88628214Y-63972380D01*
X88628214Y-64067619D01*
X88152023Y-64305714D02*
X88152023Y-64972380D01*
X88152023Y-64400952D02*
X88104404Y-64353333D01*
X88009166Y-64305714D01*
X87866309Y-64305714D01*
X87771071Y-64353333D01*
X87723452Y-64448571D01*
X87723452Y-64972380D01*
X86818690Y-64305714D02*
X86818690Y-65115238D01*
X86866309Y-65210476D01*
X86913928Y-65258095D01*
X87009166Y-65305714D01*
X87152023Y-65305714D01*
X87247261Y-65258095D01*
X86818690Y-64924761D02*
X86913928Y-64972380D01*
X87104404Y-64972380D01*
X87199642Y-64924761D01*
X87247261Y-64877142D01*
X87294880Y-64781904D01*
X87294880Y-64496190D01*
X87247261Y-64400952D01*
X87199642Y-64353333D01*
X87104404Y-64305714D01*
X86913928Y-64305714D01*
X86818690Y-64353333D01*
X85628214Y-64067619D02*
X85580595Y-64020000D01*
X85485357Y-63972380D01*
X85247261Y-63972380D01*
X85152023Y-64020000D01*
X85104404Y-64067619D01*
X85056785Y-64162857D01*
X85056785Y-64258095D01*
X85104404Y-64400952D01*
X85675833Y-64972380D01*
X85056785Y-64972380D01*
X84437738Y-63972380D02*
X84342500Y-63972380D01*
X84247261Y-64020000D01*
X84199642Y-64067619D01*
X84152023Y-64162857D01*
X84104404Y-64353333D01*
X84104404Y-64591428D01*
X84152023Y-64781904D01*
X84199642Y-64877142D01*
X84247261Y-64924761D01*
X84342500Y-64972380D01*
X84437738Y-64972380D01*
X84532976Y-64924761D01*
X84580595Y-64877142D01*
X84628214Y-64781904D01*
X84675833Y-64591428D01*
X84675833Y-64353333D01*
X84628214Y-64162857D01*
X84580595Y-64067619D01*
X84532976Y-64020000D01*
X84437738Y-63972380D01*
X83152023Y-64972380D02*
X83723452Y-64972380D01*
X83437738Y-64972380D02*
X83437738Y-63972380D01*
X83532976Y-64115238D01*
X83628214Y-64210476D01*
X83723452Y-64258095D01*
X82675833Y-64972380D02*
X82485357Y-64972380D01*
X82390119Y-64924761D01*
X82342500Y-64877142D01*
X82247261Y-64734285D01*
X82199642Y-64543809D01*
X82199642Y-64162857D01*
X82247261Y-64067619D01*
X82294880Y-64020000D01*
X82390119Y-63972380D01*
X82580595Y-63972380D01*
X82675833Y-64020000D01*
X82723452Y-64067619D01*
X82771071Y-64162857D01*
X82771071Y-64400952D01*
X82723452Y-64496190D01*
X82675833Y-64543809D01*
X82580595Y-64591428D01*
X82390119Y-64591428D01*
X82294880Y-64543809D01*
X82247261Y-64496190D01*
X82199642Y-64400952D01*
X81771071Y-64877142D02*
X81723452Y-64924761D01*
X81771071Y-64972380D01*
X81818690Y-64924761D01*
X81771071Y-64877142D01*
X81771071Y-64972380D01*
X81771071Y-64353333D02*
X81723452Y-64400952D01*
X81771071Y-64448571D01*
X81818690Y-64400952D01*
X81771071Y-64353333D01*
X81771071Y-64448571D01*
X91104404Y-66622380D02*
X91104404Y-65622380D01*
X90771071Y-66336666D01*
X90437738Y-65622380D01*
X90437738Y-66622380D01*
X89818690Y-66622380D02*
X89913928Y-66574761D01*
X89961547Y-66527142D01*
X90009166Y-66431904D01*
X90009166Y-66146190D01*
X89961547Y-66050952D01*
X89913928Y-66003333D01*
X89818690Y-65955714D01*
X89675833Y-65955714D01*
X89580595Y-66003333D01*
X89532976Y-66050952D01*
X89485357Y-66146190D01*
X89485357Y-66431904D01*
X89532976Y-66527142D01*
X89580595Y-66574761D01*
X89675833Y-66622380D01*
X89818690Y-66622380D01*
X89056785Y-65955714D02*
X89056785Y-66622380D01*
X89056785Y-66050952D02*
X89009166Y-66003333D01*
X88913928Y-65955714D01*
X88771071Y-65955714D01*
X88675833Y-66003333D01*
X88628214Y-66098571D01*
X88628214Y-66622380D01*
X88009166Y-66622380D02*
X88104404Y-66574761D01*
X88152023Y-66527142D01*
X88199642Y-66431904D01*
X88199642Y-66146190D01*
X88152023Y-66050952D01*
X88104404Y-66003333D01*
X88009166Y-65955714D01*
X87866309Y-65955714D01*
X87771071Y-66003333D01*
X87723452Y-66050952D01*
X87675833Y-66146190D01*
X87675833Y-66431904D01*
X87723452Y-66527142D01*
X87771071Y-66574761D01*
X87866309Y-66622380D01*
X88009166Y-66622380D01*
X87104404Y-66622380D02*
X87199642Y-66574761D01*
X87247261Y-66479523D01*
X87247261Y-65622380D01*
X86580595Y-66622380D02*
X86675833Y-66574761D01*
X86723452Y-66527142D01*
X86771071Y-66431904D01*
X86771071Y-66146190D01*
X86723452Y-66050952D01*
X86675833Y-66003333D01*
X86580595Y-65955714D01*
X86437738Y-65955714D01*
X86342500Y-66003333D01*
X86294880Y-66050952D01*
X86247261Y-66146190D01*
X86247261Y-66431904D01*
X86294880Y-66527142D01*
X86342500Y-66574761D01*
X86437738Y-66622380D01*
X86580595Y-66622380D01*
X85104404Y-66336666D02*
X84628214Y-66336666D01*
X85199642Y-66622380D02*
X84866309Y-65622380D01*
X84532976Y-66622380D01*
X84056785Y-66622380D02*
X84152023Y-66574761D01*
X84199642Y-66479523D01*
X84199642Y-65622380D01*
X83771071Y-65955714D02*
X83532976Y-66622380D01*
X83294880Y-65955714D01*
X82485357Y-66622380D02*
X82485357Y-66098571D01*
X82532976Y-66003333D01*
X82628214Y-65955714D01*
X82818690Y-65955714D01*
X82913928Y-66003333D01*
X82485357Y-66574761D02*
X82580595Y-66622380D01*
X82818690Y-66622380D01*
X82913928Y-66574761D01*
X82961547Y-66479523D01*
X82961547Y-66384285D01*
X82913928Y-66289047D01*
X82818690Y-66241428D01*
X82580595Y-66241428D01*
X82485357Y-66193809D01*
X82009166Y-66622380D02*
X82009166Y-65955714D01*
X82009166Y-66146190D02*
X81961547Y-66050952D01*
X81913928Y-66003333D01*
X81818690Y-65955714D01*
X81723452Y-65955714D01*
X81009166Y-66574761D02*
X81104404Y-66622380D01*
X81294880Y-66622380D01*
X81390119Y-66574761D01*
X81437738Y-66479523D01*
X81437738Y-66098571D01*
X81390119Y-66003333D01*
X81294880Y-65955714D01*
X81104404Y-65955714D01*
X81009166Y-66003333D01*
X80961547Y-66098571D01*
X80961547Y-66193809D01*
X81437738Y-66289047D01*
X80628214Y-65955714D02*
X80104404Y-65955714D01*
X80628214Y-66622380D01*
X80104404Y-66622380D01*
X90532976Y-68177142D02*
X90580595Y-68224761D01*
X90723452Y-68272380D01*
X90818690Y-68272380D01*
X90961547Y-68224761D01*
X91056785Y-68129523D01*
X91104404Y-68034285D01*
X91152023Y-67843809D01*
X91152023Y-67700952D01*
X91104404Y-67510476D01*
X91056785Y-67415238D01*
X90961547Y-67320000D01*
X90818690Y-67272380D01*
X90723452Y-67272380D01*
X90580595Y-67320000D01*
X90532976Y-67367619D01*
X90104404Y-68272380D02*
X90104404Y-67272380D01*
X89675833Y-68272380D02*
X89675833Y-67748571D01*
X89723452Y-67653333D01*
X89818690Y-67605714D01*
X89961547Y-67605714D01*
X90056785Y-67653333D01*
X90104404Y-67700952D01*
X88771071Y-68272380D02*
X88771071Y-67748571D01*
X88818690Y-67653333D01*
X88913928Y-67605714D01*
X89104404Y-67605714D01*
X89199642Y-67653333D01*
X88771071Y-68224761D02*
X88866309Y-68272380D01*
X89104404Y-68272380D01*
X89199642Y-68224761D01*
X89247261Y-68129523D01*
X89247261Y-68034285D01*
X89199642Y-67939047D01*
X89104404Y-67891428D01*
X88866309Y-67891428D01*
X88771071Y-67843809D01*
X88342500Y-68224761D02*
X88247261Y-68272380D01*
X88056785Y-68272380D01*
X87961547Y-68224761D01*
X87913928Y-68129523D01*
X87913928Y-68081904D01*
X87961547Y-67986666D01*
X88056785Y-67939047D01*
X88199642Y-67939047D01*
X88294880Y-67891428D01*
X88342500Y-67796190D01*
X88342500Y-67748571D01*
X88294880Y-67653333D01*
X88199642Y-67605714D01*
X88056785Y-67605714D01*
X87961547Y-67653333D01*
X87104404Y-68224761D02*
X87199642Y-68272380D01*
X87390119Y-68272380D01*
X87485357Y-68224761D01*
X87532976Y-68129523D01*
X87532976Y-67748571D01*
X87485357Y-67653333D01*
X87390119Y-67605714D01*
X87199642Y-67605714D01*
X87104404Y-67653333D01*
X87056785Y-67748571D01*
X87056785Y-67843809D01*
X87532976Y-67939047D01*
X85532976Y-67748571D02*
X85390119Y-67796190D01*
X85342500Y-67843809D01*
X85294880Y-67939047D01*
X85294880Y-68081904D01*
X85342500Y-68177142D01*
X85390119Y-68224761D01*
X85485357Y-68272380D01*
X85866309Y-68272380D01*
X85866309Y-67272380D01*
X85532976Y-67272380D01*
X85437738Y-67320000D01*
X85390119Y-67367619D01*
X85342500Y-67462857D01*
X85342500Y-67558095D01*
X85390119Y-67653333D01*
X85437738Y-67700952D01*
X85532976Y-67748571D01*
X85866309Y-67748571D01*
X84723452Y-68272380D02*
X84818690Y-68224761D01*
X84866309Y-68129523D01*
X84866309Y-67272380D01*
X84199642Y-68272380D02*
X84294880Y-68224761D01*
X84342500Y-68177142D01*
X84390119Y-68081904D01*
X84390119Y-67796190D01*
X84342500Y-67700952D01*
X84294880Y-67653333D01*
X84199642Y-67605714D01*
X84056785Y-67605714D01*
X83961547Y-67653333D01*
X83913928Y-67700952D01*
X83866309Y-67796190D01*
X83866309Y-68081904D01*
X83913928Y-68177142D01*
X83961547Y-68224761D01*
X84056785Y-68272380D01*
X84199642Y-68272380D01*
X83009166Y-68224761D02*
X83104404Y-68272380D01*
X83294880Y-68272380D01*
X83390119Y-68224761D01*
X83437738Y-68177142D01*
X83485357Y-68081904D01*
X83485357Y-67796190D01*
X83437738Y-67700952D01*
X83390119Y-67653333D01*
X83294880Y-67605714D01*
X83104404Y-67605714D01*
X83009166Y-67653333D01*
X82580595Y-68272380D02*
X82580595Y-67272380D01*
X82485357Y-67891428D02*
X82199642Y-68272380D01*
X82199642Y-67605714D02*
X82580595Y-67986666D01*
X90532976Y-69827142D02*
X90580595Y-69874761D01*
X90723452Y-69922380D01*
X90818690Y-69922380D01*
X90961547Y-69874761D01*
X91056785Y-69779523D01*
X91104404Y-69684285D01*
X91152023Y-69493809D01*
X91152023Y-69350952D01*
X91104404Y-69160476D01*
X91056785Y-69065238D01*
X90961547Y-68970000D01*
X90818690Y-68922380D01*
X90723452Y-68922380D01*
X90580595Y-68970000D01*
X90532976Y-69017619D01*
X89961547Y-69922380D02*
X90056785Y-69874761D01*
X90104404Y-69827142D01*
X90152023Y-69731904D01*
X90152023Y-69446190D01*
X90104404Y-69350952D01*
X90056785Y-69303333D01*
X89961547Y-69255714D01*
X89818690Y-69255714D01*
X89723452Y-69303333D01*
X89675833Y-69350952D01*
X89628214Y-69446190D01*
X89628214Y-69731904D01*
X89675833Y-69827142D01*
X89723452Y-69874761D01*
X89818690Y-69922380D01*
X89961547Y-69922380D01*
X89199642Y-69922380D02*
X89199642Y-69255714D01*
X89199642Y-69446190D02*
X89152023Y-69350952D01*
X89104404Y-69303333D01*
X89009166Y-69255714D01*
X88913928Y-69255714D01*
X88580595Y-69922380D02*
X88580595Y-68922380D01*
X88580595Y-69303333D02*
X88485357Y-69255714D01*
X88294880Y-69255714D01*
X88199642Y-69303333D01*
X88152023Y-69350952D01*
X88104404Y-69446190D01*
X88104404Y-69731904D01*
X88152023Y-69827142D01*
X88199642Y-69874761D01*
X88294880Y-69922380D01*
X88485357Y-69922380D01*
X88580595Y-69874761D01*
X87675833Y-69922380D02*
X87675833Y-69255714D01*
X87675833Y-68922380D02*
X87723452Y-68970000D01*
X87675833Y-69017619D01*
X87628214Y-68970000D01*
X87675833Y-68922380D01*
X87675833Y-69017619D01*
X87199642Y-69255714D02*
X87199642Y-69922380D01*
X87199642Y-69350952D02*
X87152023Y-69303333D01*
X87056785Y-69255714D01*
X86913928Y-69255714D01*
X86818690Y-69303333D01*
X86771071Y-69398571D01*
X86771071Y-69922380D01*
X84961547Y-69827142D02*
X85009166Y-69874761D01*
X85152023Y-69922380D01*
X85247261Y-69922380D01*
X85390119Y-69874761D01*
X85485357Y-69779523D01*
X85532976Y-69684285D01*
X85580595Y-69493809D01*
X85580595Y-69350952D01*
X85532976Y-69160476D01*
X85485357Y-69065238D01*
X85390119Y-68970000D01*
X85247261Y-68922380D01*
X85152023Y-68922380D01*
X85009166Y-68970000D01*
X84961547Y-69017619D01*
X84104404Y-69922380D02*
X84104404Y-69398571D01*
X84152023Y-69303333D01*
X84247261Y-69255714D01*
X84437738Y-69255714D01*
X84532976Y-69303333D01*
X84104404Y-69874761D02*
X84199642Y-69922380D01*
X84437738Y-69922380D01*
X84532976Y-69874761D01*
X84580595Y-69779523D01*
X84580595Y-69684285D01*
X84532976Y-69589047D01*
X84437738Y-69541428D01*
X84199642Y-69541428D01*
X84104404Y-69493809D01*
X83628214Y-69255714D02*
X83628214Y-70255714D01*
X83628214Y-69303333D02*
X83532976Y-69255714D01*
X83342500Y-69255714D01*
X83247261Y-69303333D01*
X83199642Y-69350952D01*
X83152023Y-69446190D01*
X83152023Y-69731904D01*
X83199642Y-69827142D01*
X83247261Y-69874761D01*
X83342500Y-69922380D01*
X83532976Y-69922380D01*
X83628214Y-69874761D01*
X82580595Y-69922380D02*
X82675833Y-69874761D01*
X82723452Y-69827142D01*
X82771071Y-69731904D01*
X82771071Y-69446190D01*
X82723452Y-69350952D01*
X82675833Y-69303333D01*
X82580595Y-69255714D01*
X82437738Y-69255714D01*
X82342500Y-69303333D01*
X82294880Y-69350952D01*
X82247261Y-69446190D01*
X82247261Y-69731904D01*
X82294880Y-69827142D01*
X82342500Y-69874761D01*
X82437738Y-69922380D01*
X82580595Y-69922380D01*
X90532976Y-71572380D02*
X90866309Y-71096190D01*
X91104404Y-71572380D02*
X91104404Y-70572380D01*
X90723452Y-70572380D01*
X90628214Y-70620000D01*
X90580595Y-70667619D01*
X90532976Y-70762857D01*
X90532976Y-70905714D01*
X90580595Y-71000952D01*
X90628214Y-71048571D01*
X90723452Y-71096190D01*
X91104404Y-71096190D01*
X90104404Y-71572380D02*
X90104404Y-70905714D01*
X90104404Y-70572380D02*
X90152023Y-70620000D01*
X90104404Y-70667619D01*
X90056785Y-70620000D01*
X90104404Y-70572380D01*
X90104404Y-70667619D01*
X89199642Y-71524761D02*
X89294880Y-71572380D01*
X89485357Y-71572380D01*
X89580595Y-71524761D01*
X89628214Y-71477142D01*
X89675833Y-71381904D01*
X89675833Y-71096190D01*
X89628214Y-71000952D01*
X89580595Y-70953333D01*
X89485357Y-70905714D01*
X89294880Y-70905714D01*
X89199642Y-70953333D01*
X88771071Y-71572380D02*
X88771071Y-70572380D01*
X88342500Y-71572380D02*
X88342500Y-71048571D01*
X88390119Y-70953333D01*
X88485357Y-70905714D01*
X88628214Y-70905714D01*
X88723452Y-70953333D01*
X88771071Y-71000952D01*
X87437738Y-71572380D02*
X87437738Y-71048571D01*
X87485357Y-70953333D01*
X87580595Y-70905714D01*
X87771071Y-70905714D01*
X87866309Y-70953333D01*
X87437738Y-71524761D02*
X87532976Y-71572380D01*
X87771071Y-71572380D01*
X87866309Y-71524761D01*
X87913928Y-71429523D01*
X87913928Y-71334285D01*
X87866309Y-71239047D01*
X87771071Y-71191428D01*
X87532976Y-71191428D01*
X87437738Y-71143809D01*
X86961547Y-71572380D02*
X86961547Y-70905714D01*
X86961547Y-71096190D02*
X86913928Y-71000952D01*
X86866309Y-70953333D01*
X86771071Y-70905714D01*
X86675833Y-70905714D01*
X85913928Y-71572380D02*
X85913928Y-70572380D01*
X85913928Y-71524761D02*
X86009166Y-71572380D01*
X86199642Y-71572380D01*
X86294880Y-71524761D01*
X86342500Y-71477142D01*
X86390119Y-71381904D01*
X86390119Y-71096190D01*
X86342500Y-71000952D01*
X86294880Y-70953333D01*
X86199642Y-70905714D01*
X86009166Y-70905714D01*
X85913928Y-70953333D01*
X84199642Y-71572380D02*
X84675833Y-71572380D01*
X84675833Y-70572380D01*
X83866309Y-71572380D02*
X83866309Y-70905714D01*
X83866309Y-70572380D02*
X83913928Y-70620000D01*
X83866309Y-70667619D01*
X83818690Y-70620000D01*
X83866309Y-70572380D01*
X83866309Y-70667619D01*
X91152023Y-72936666D02*
X90675833Y-72936666D01*
X91247261Y-73222380D02*
X90913928Y-72222380D01*
X90580595Y-73222380D01*
X89818690Y-72555714D02*
X89818690Y-73222380D01*
X90247261Y-72555714D02*
X90247261Y-73079523D01*
X90199642Y-73174761D01*
X90104404Y-73222380D01*
X89961547Y-73222380D01*
X89866309Y-73174761D01*
X89818690Y-73127142D01*
X89390119Y-73174761D02*
X89294880Y-73222380D01*
X89104404Y-73222380D01*
X89009166Y-73174761D01*
X88961547Y-73079523D01*
X88961547Y-73031904D01*
X89009166Y-72936666D01*
X89104404Y-72889047D01*
X89247261Y-72889047D01*
X89342500Y-72841428D01*
X89390119Y-72746190D01*
X89390119Y-72698571D01*
X89342500Y-72603333D01*
X89247261Y-72555714D01*
X89104404Y-72555714D01*
X89009166Y-72603333D01*
X88675833Y-72555714D02*
X88294880Y-72555714D01*
X88532976Y-72222380D02*
X88532976Y-73079523D01*
X88485357Y-73174761D01*
X88390119Y-73222380D01*
X88294880Y-73222380D01*
X87961547Y-73222380D02*
X87961547Y-72555714D01*
X87961547Y-72222380D02*
X88009166Y-72270000D01*
X87961547Y-72317619D01*
X87913928Y-72270000D01*
X87961547Y-72222380D01*
X87961547Y-72317619D01*
X87485357Y-72555714D02*
X87485357Y-73222380D01*
X87485357Y-72650952D02*
X87437738Y-72603333D01*
X87342500Y-72555714D01*
X87199642Y-72555714D01*
X87104404Y-72603333D01*
X87056785Y-72698571D01*
X87056785Y-73222380D01*
X85961547Y-72222380D02*
X85390119Y-72222380D01*
X85675833Y-73222380D02*
X85675833Y-72222380D01*
X85104404Y-73174761D02*
X85009166Y-73222380D01*
X84818690Y-73222380D01*
X84723452Y-73174761D01*
X84675833Y-73079523D01*
X84675833Y-73031904D01*
X84723452Y-72936666D01*
X84818690Y-72889047D01*
X84961547Y-72889047D01*
X85056785Y-72841428D01*
X85104404Y-72746190D01*
X85104404Y-72698571D01*
X85056785Y-72603333D01*
X84961547Y-72555714D01*
X84818690Y-72555714D01*
X84723452Y-72603333D01*
X83818690Y-73222380D02*
X83818690Y-72698571D01*
X83866309Y-72603333D01*
X83961547Y-72555714D01*
X84152023Y-72555714D01*
X84247261Y-72603333D01*
X83818690Y-73174761D02*
X83913928Y-73222380D01*
X84152023Y-73222380D01*
X84247261Y-73174761D01*
X84294880Y-73079523D01*
X84294880Y-72984285D01*
X84247261Y-72889047D01*
X84152023Y-72841428D01*
X83913928Y-72841428D01*
X83818690Y-72793809D01*
X83199642Y-73222380D02*
X83294880Y-73174761D01*
X83342500Y-73127142D01*
X83390119Y-73031904D01*
X83390119Y-72746190D01*
X83342500Y-72650952D01*
X83294880Y-72603333D01*
X83199642Y-72555714D01*
X83056785Y-72555714D01*
X82961547Y-72603333D01*
X82913928Y-72650952D01*
X82866309Y-72746190D01*
X82866309Y-73031904D01*
X82913928Y-73127142D01*
X82961547Y-73174761D01*
X83056785Y-73222380D01*
X83199642Y-73222380D01*
X90580595Y-73920000D02*
X90675833Y-73872380D01*
X90818690Y-73872380D01*
X90961547Y-73920000D01*
X91056785Y-74015238D01*
X91104404Y-74110476D01*
X91152023Y-74300952D01*
X91152023Y-74443809D01*
X91104404Y-74634285D01*
X91056785Y-74729523D01*
X90961547Y-74824761D01*
X90818690Y-74872380D01*
X90723452Y-74872380D01*
X90580595Y-74824761D01*
X90532976Y-74777142D01*
X90532976Y-74443809D01*
X90723452Y-74443809D01*
X89675833Y-74872380D02*
X89675833Y-74348571D01*
X89723452Y-74253333D01*
X89818690Y-74205714D01*
X90009166Y-74205714D01*
X90104404Y-74253333D01*
X89675833Y-74824761D02*
X89771071Y-74872380D01*
X90009166Y-74872380D01*
X90104404Y-74824761D01*
X90152023Y-74729523D01*
X90152023Y-74634285D01*
X90104404Y-74539047D01*
X90009166Y-74491428D01*
X89771071Y-74491428D01*
X89675833Y-74443809D01*
X89199642Y-74872380D02*
X89199642Y-74205714D01*
X89199642Y-74396190D02*
X89152023Y-74300952D01*
X89104404Y-74253333D01*
X89009166Y-74205714D01*
X88913928Y-74205714D01*
X88580595Y-74872380D02*
X88580595Y-74205714D01*
X88580595Y-74396190D02*
X88532976Y-74300952D01*
X88485357Y-74253333D01*
X88390119Y-74205714D01*
X88294880Y-74205714D01*
X87580595Y-74824761D02*
X87675833Y-74872380D01*
X87866309Y-74872380D01*
X87961547Y-74824761D01*
X88009166Y-74729523D01*
X88009166Y-74348571D01*
X87961547Y-74253333D01*
X87866309Y-74205714D01*
X87675833Y-74205714D01*
X87580595Y-74253333D01*
X87532976Y-74348571D01*
X87532976Y-74443809D01*
X88009166Y-74539047D01*
X87247261Y-74205714D02*
X86866309Y-74205714D01*
X87104404Y-73872380D02*
X87104404Y-74729523D01*
X87056785Y-74824761D01*
X86961547Y-74872380D01*
X86866309Y-74872380D01*
X86675833Y-74205714D02*
X86294880Y-74205714D01*
X86532976Y-73872380D02*
X86532976Y-74729523D01*
X86485357Y-74824761D01*
X86390119Y-74872380D01*
X86294880Y-74872380D01*
X85294880Y-73872380D02*
X85056785Y-74872380D01*
X84866309Y-74158095D01*
X84675833Y-74872380D01*
X84437738Y-73872380D01*
X83913928Y-74872380D02*
X84009166Y-74824761D01*
X84056785Y-74777142D01*
X84104404Y-74681904D01*
X84104404Y-74396190D01*
X84056785Y-74300952D01*
X84009166Y-74253333D01*
X83913928Y-74205714D01*
X83771071Y-74205714D01*
X83675833Y-74253333D01*
X83628214Y-74300952D01*
X83580595Y-74396190D01*
X83580595Y-74681904D01*
X83628214Y-74777142D01*
X83675833Y-74824761D01*
X83771071Y-74872380D01*
X83913928Y-74872380D01*
X83152023Y-74205714D02*
X83152023Y-74872380D01*
X83152023Y-74300952D02*
X83104404Y-74253333D01*
X83009166Y-74205714D01*
X82866309Y-74205714D01*
X82771071Y-74253333D01*
X82723452Y-74348571D01*
X82723452Y-74872380D01*
X81818690Y-74205714D02*
X81818690Y-75015238D01*
X81866309Y-75110476D01*
X81913928Y-75158095D01*
X82009166Y-75205714D01*
X82152023Y-75205714D01*
X82247261Y-75158095D01*
X81818690Y-74824761D02*
X81913928Y-74872380D01*
X82104404Y-74872380D01*
X82199642Y-74824761D01*
X82247261Y-74777142D01*
X82294880Y-74681904D01*
X82294880Y-74396190D01*
X82247261Y-74300952D01*
X82199642Y-74253333D01*
X82104404Y-74205714D01*
X81913928Y-74205714D01*
X81818690Y-74253333D01*
X91152023Y-76474761D02*
X91009166Y-76522380D01*
X90771071Y-76522380D01*
X90675833Y-76474761D01*
X90628214Y-76427142D01*
X90580595Y-76331904D01*
X90580595Y-76236666D01*
X90628214Y-76141428D01*
X90675833Y-76093809D01*
X90771071Y-76046190D01*
X90961547Y-75998571D01*
X91056785Y-75950952D01*
X91104404Y-75903333D01*
X91152023Y-75808095D01*
X91152023Y-75712857D01*
X91104404Y-75617619D01*
X91056785Y-75570000D01*
X90961547Y-75522380D01*
X90723452Y-75522380D01*
X90580595Y-75570000D01*
X90152023Y-76522380D02*
X90152023Y-75855714D01*
X90152023Y-75522380D02*
X90199642Y-75570000D01*
X90152023Y-75617619D01*
X90104404Y-75570000D01*
X90152023Y-75522380D01*
X90152023Y-75617619D01*
X89675833Y-76522380D02*
X89675833Y-75522380D01*
X89247261Y-76522380D02*
X89247261Y-75998571D01*
X89294880Y-75903333D01*
X89390119Y-75855714D01*
X89532976Y-75855714D01*
X89628214Y-75903333D01*
X89675833Y-75950952D01*
X88866309Y-75855714D02*
X88628214Y-76522380D01*
X88390119Y-75855714D02*
X88628214Y-76522380D01*
X88723452Y-76760476D01*
X88771071Y-76808095D01*
X88866309Y-76855714D01*
X87580595Y-75855714D02*
X87580595Y-76522380D01*
X88009166Y-75855714D02*
X88009166Y-76379523D01*
X87961547Y-76474761D01*
X87866309Y-76522380D01*
X87723452Y-76522380D01*
X87628214Y-76474761D01*
X87580595Y-76427142D01*
X87104404Y-75855714D02*
X87104404Y-76522380D01*
X87104404Y-75950952D02*
X87056785Y-75903333D01*
X86961547Y-75855714D01*
X86818690Y-75855714D01*
X86723452Y-75903333D01*
X86675833Y-75998571D01*
X86675833Y-76522380D01*
X85771071Y-75855714D02*
X85771071Y-76665238D01*
X85818690Y-76760476D01*
X85866309Y-76808095D01*
X85961547Y-76855714D01*
X86104404Y-76855714D01*
X86199642Y-76808095D01*
X85771071Y-76474761D02*
X85866309Y-76522380D01*
X86056785Y-76522380D01*
X86152023Y-76474761D01*
X86199642Y-76427142D01*
X86247261Y-76331904D01*
X86247261Y-76046190D01*
X86199642Y-75950952D01*
X86152023Y-75903333D01*
X86056785Y-75855714D01*
X85866309Y-75855714D01*
X85771071Y-75903333D01*
X84628214Y-75522380D02*
X84390119Y-76522380D01*
X84199642Y-75808095D01*
X84009166Y-76522380D01*
X83771071Y-75522380D01*
X83247261Y-76522380D02*
X83342500Y-76474761D01*
X83390119Y-76427142D01*
X83437738Y-76331904D01*
X83437738Y-76046190D01*
X83390119Y-75950952D01*
X83342500Y-75903333D01*
X83247261Y-75855714D01*
X83104404Y-75855714D01*
X83009166Y-75903333D01*
X82961547Y-75950952D01*
X82913928Y-76046190D01*
X82913928Y-76331904D01*
X82961547Y-76427142D01*
X83009166Y-76474761D01*
X83104404Y-76522380D01*
X83247261Y-76522380D01*
X82342500Y-76522380D02*
X82437738Y-76474761D01*
X82485357Y-76427142D01*
X82532976Y-76331904D01*
X82532976Y-76046190D01*
X82485357Y-75950952D01*
X82437738Y-75903333D01*
X82342500Y-75855714D01*
X82199642Y-75855714D01*
X82104404Y-75903333D01*
X82056785Y-75950952D01*
X82009166Y-76046190D01*
X82009166Y-76331904D01*
X82056785Y-76427142D01*
X82104404Y-76474761D01*
X82199642Y-76522380D01*
X82342500Y-76522380D01*
X91152023Y-78124761D02*
X91009166Y-78172380D01*
X90771071Y-78172380D01*
X90675833Y-78124761D01*
X90628214Y-78077142D01*
X90580595Y-77981904D01*
X90580595Y-77886666D01*
X90628214Y-77791428D01*
X90675833Y-77743809D01*
X90771071Y-77696190D01*
X90961547Y-77648571D01*
X91056785Y-77600952D01*
X91104404Y-77553333D01*
X91152023Y-77458095D01*
X91152023Y-77362857D01*
X91104404Y-77267619D01*
X91056785Y-77220000D01*
X90961547Y-77172380D01*
X90723452Y-77172380D01*
X90580595Y-77220000D01*
X90152023Y-78172380D02*
X90152023Y-77505714D01*
X90152023Y-77172380D02*
X90199642Y-77220000D01*
X90152023Y-77267619D01*
X90104404Y-77220000D01*
X90152023Y-77172380D01*
X90152023Y-77267619D01*
X89675833Y-77505714D02*
X89675833Y-78362857D01*
X89723452Y-78458095D01*
X89818690Y-78505714D01*
X89866309Y-78505714D01*
X89675833Y-77172380D02*
X89723452Y-77220000D01*
X89675833Y-77267619D01*
X89628214Y-77220000D01*
X89675833Y-77172380D01*
X89675833Y-77267619D01*
X89199642Y-78172380D02*
X89199642Y-77505714D01*
X89199642Y-77172380D02*
X89247261Y-77220000D01*
X89199642Y-77267619D01*
X89152023Y-77220000D01*
X89199642Y-77172380D01*
X89199642Y-77267619D01*
X88723452Y-77505714D02*
X88723452Y-78172380D01*
X88723452Y-77600952D02*
X88675833Y-77553333D01*
X88580595Y-77505714D01*
X88437738Y-77505714D01*
X88342500Y-77553333D01*
X88294880Y-77648571D01*
X88294880Y-78172380D01*
X87152023Y-77172380D02*
X86913928Y-78172380D01*
X86723452Y-77458095D01*
X86532976Y-78172380D01*
X86294880Y-77172380D01*
X85771071Y-78172380D02*
X85866309Y-78124761D01*
X85913928Y-78077142D01*
X85961547Y-77981904D01*
X85961547Y-77696190D01*
X85913928Y-77600952D01*
X85866309Y-77553333D01*
X85771071Y-77505714D01*
X85628214Y-77505714D01*
X85532976Y-77553333D01*
X85485357Y-77600952D01*
X85437738Y-77696190D01*
X85437738Y-77981904D01*
X85485357Y-78077142D01*
X85532976Y-78124761D01*
X85628214Y-78172380D01*
X85771071Y-78172380D01*
X84866309Y-78172380D02*
X84961547Y-78124761D01*
X85009166Y-78077142D01*
X85056785Y-77981904D01*
X85056785Y-77696190D01*
X85009166Y-77600952D01*
X84961547Y-77553333D01*
X84866309Y-77505714D01*
X84723452Y-77505714D01*
X84628214Y-77553333D01*
X84580595Y-77600952D01*
X84532976Y-77696190D01*
X84532976Y-77981904D01*
X84580595Y-78077142D01*
X84628214Y-78124761D01*
X84723452Y-78172380D01*
X84866309Y-78172380D01*
D12*
X77142078Y-61162000D02*
X76624922Y-61162000D01*
X77142078Y-59742000D02*
X76624922Y-59742000D01*
X77142078Y-63044000D02*
X76624922Y-63044000D01*
X77142078Y-64464000D02*
X76624922Y-64464000D01*
X77142078Y-67766000D02*
X76624922Y-67766000D01*
X77142078Y-66346000D02*
X76624922Y-66346000D01*
X77142078Y-71068000D02*
X76624922Y-71068000D01*
X77142078Y-69648000D02*
X76624922Y-69648000D01*
X77142078Y-72950000D02*
X76624922Y-72950000D01*
X77142078Y-74370000D02*
X76624922Y-74370000D01*
X77142078Y-77672000D02*
X76624922Y-77672000D01*
X77142078Y-76252000D02*
X76624922Y-76252000D01*
X77142078Y-80974000D02*
X76624922Y-80974000D01*
X77142078Y-79554000D02*
X76624922Y-79554000D01*
X77142078Y-82856000D02*
X76624922Y-82856000D01*
X77142078Y-84276000D02*
X76624922Y-84276000D01*
X77142078Y-86158000D02*
X76624922Y-86158000D01*
X77142078Y-87578000D02*
X76624922Y-87578000D01*
X77142078Y-89460000D02*
X76624922Y-89460000D01*
X77142078Y-90880000D02*
X76624922Y-90880000D01*
X77142078Y-94182000D02*
X76624922Y-94182000D01*
X77142078Y-92762000D02*
X76624922Y-92762000D01*
X77142078Y-97484000D02*
X76624922Y-97484000D01*
X77142078Y-96064000D02*
X76624922Y-96064000D01*
X60177936Y-62044000D02*
X64282064Y-62044000D01*
X60177936Y-65464000D02*
X64282064Y-65464000D01*
X68051936Y-68766000D02*
X72156064Y-68766000D01*
X68051936Y-65346000D02*
X72156064Y-65346000D01*
X60177936Y-68648000D02*
X64282064Y-68648000D01*
X60177936Y-72068000D02*
X64282064Y-72068000D01*
X68051936Y-75370000D02*
X72156064Y-75370000D01*
X68051936Y-71950000D02*
X72156064Y-71950000D01*
X60177936Y-75252000D02*
X64282064Y-75252000D01*
X60177936Y-78672000D02*
X64282064Y-78672000D01*
X68051936Y-81974000D02*
X72156064Y-81974000D01*
X68051936Y-78554000D02*
X72156064Y-78554000D01*
X60177936Y-81856000D02*
X64282064Y-81856000D01*
X60177936Y-85276000D02*
X64282064Y-85276000D01*
X68051936Y-85158000D02*
X72156064Y-85158000D01*
X68051936Y-88578000D02*
X72156064Y-88578000D01*
X60177936Y-88460000D02*
X64282064Y-88460000D01*
X60177936Y-91880000D02*
X64282064Y-91880000D01*
X68051936Y-95182000D02*
X72156064Y-95182000D01*
X68051936Y-91762000D02*
X72156064Y-91762000D01*
X60177936Y-98484000D02*
X64282064Y-98484000D01*
X60177936Y-95064000D02*
X64282064Y-95064000D01*
X68051936Y-101786000D02*
X72156064Y-101786000D01*
X68051936Y-98366000D02*
X72156064Y-98366000D01*
D13*
G36*
X92961624Y-77936559D02*
X92851592Y-78211611D01*
X92799716Y-78640435D01*
X92794667Y-78872512D01*
X92810394Y-79220866D01*
X92855634Y-79413929D01*
X92927479Y-79447885D01*
X93023018Y-79318916D01*
X93064749Y-79226834D01*
X93116575Y-79010563D01*
X93145037Y-78707822D01*
X93146680Y-78507167D01*
X93144604Y-78231423D01*
X93168047Y-78084914D01*
X93229648Y-78028033D01*
X93302027Y-78020334D01*
X93443797Y-77979514D01*
X93460949Y-77894282D01*
X93366167Y-77829502D01*
X93132315Y-77810711D01*
X92961624Y-77936559D01*
X92961624Y-77936559D01*
G37*
X92961624Y-77936559D02*
X92851592Y-78211611D01*
X92799716Y-78640435D01*
X92794667Y-78872512D01*
X92810394Y-79220866D01*
X92855634Y-79413929D01*
X92927479Y-79447885D01*
X93023018Y-79318916D01*
X93064749Y-79226834D01*
X93116575Y-79010563D01*
X93145037Y-78707822D01*
X93146680Y-78507167D01*
X93144604Y-78231423D01*
X93168047Y-78084914D01*
X93229648Y-78028033D01*
X93302027Y-78020334D01*
X93443797Y-77979514D01*
X93460949Y-77894282D01*
X93366167Y-77829502D01*
X93132315Y-77810711D01*
X92961624Y-77936559D01*
G36*
X94085191Y-79255656D02*
X93921260Y-79371380D01*
X93780213Y-79501473D01*
X93726000Y-79589965D01*
X93728652Y-79616681D01*
X93766088Y-79612841D01*
X93882532Y-79565196D01*
X94043500Y-79494851D01*
X94232908Y-79384882D01*
X94317072Y-79281746D01*
X94278915Y-79215529D01*
X94207632Y-79205667D01*
X94085191Y-79255656D01*
X94085191Y-79255656D01*
G37*
X94085191Y-79255656D02*
X93921260Y-79371380D01*
X93780213Y-79501473D01*
X93726000Y-79589965D01*
X93728652Y-79616681D01*
X93766088Y-79612841D01*
X93882532Y-79565196D01*
X94043500Y-79494851D01*
X94232908Y-79384882D01*
X94317072Y-79281746D01*
X94278915Y-79215529D01*
X94207632Y-79205667D01*
X94085191Y-79255656D01*
G36*
X95285596Y-79515024D02*
X95273023Y-79565500D01*
X95261076Y-79781534D01*
X95273023Y-79861834D01*
X95307350Y-79965640D01*
X95350484Y-79912309D01*
X95372956Y-79861834D01*
X95396477Y-79659325D01*
X95372956Y-79565500D01*
X95318272Y-79461694D01*
X95285596Y-79515024D01*
X95285596Y-79515024D01*
G37*
X95285596Y-79515024D02*
X95273023Y-79565500D01*
X95261076Y-79781534D01*
X95273023Y-79861834D01*
X95307350Y-79965640D01*
X95350484Y-79912309D01*
X95372956Y-79861834D01*
X95396477Y-79659325D01*
X95372956Y-79565500D01*
X95318272Y-79461694D01*
X95285596Y-79515024D01*
G36*
X93441785Y-79678399D02*
X93324365Y-79798044D01*
X93302667Y-79892059D01*
X93314670Y-80023897D01*
X93370579Y-80026498D01*
X93500246Y-79898516D01*
X93514804Y-79882481D01*
X93619482Y-79726114D01*
X93591046Y-79652652D01*
X93441785Y-79678399D01*
X93441785Y-79678399D01*
G37*
X93441785Y-79678399D02*
X93324365Y-79798044D01*
X93302667Y-79892059D01*
X93314670Y-80023897D01*
X93370579Y-80026498D01*
X93500246Y-79898516D01*
X93514804Y-79882481D01*
X93619482Y-79726114D01*
X93591046Y-79652652D01*
X93441785Y-79678399D01*
G36*
X95334667Y-80264000D02*
X95377000Y-80306334D01*
X95419334Y-80264000D01*
X95377000Y-80221667D01*
X95334667Y-80264000D01*
X95334667Y-80264000D01*
G37*
X95334667Y-80264000D02*
X95377000Y-80306334D01*
X95419334Y-80264000D01*
X95377000Y-80221667D01*
X95334667Y-80264000D01*
G36*
X93838889Y-80588556D02*
X93850512Y-80638890D01*
X93895334Y-80645000D01*
X93965024Y-80614022D01*
X93951778Y-80588556D01*
X93851299Y-80578423D01*
X93838889Y-80588556D01*
X93838889Y-80588556D01*
G37*
X93838889Y-80588556D02*
X93850512Y-80638890D01*
X93895334Y-80645000D01*
X93965024Y-80614022D01*
X93951778Y-80588556D01*
X93851299Y-80578423D01*
X93838889Y-80588556D01*
G36*
X94188954Y-80903070D02*
X94169087Y-81022972D01*
X94187108Y-81060956D01*
X94294342Y-81131436D01*
X94444620Y-81150855D01*
X94556506Y-81115466D01*
X94572667Y-81078700D01*
X94514671Y-80968891D01*
X94442079Y-80896022D01*
X94300267Y-80847611D01*
X94188954Y-80903070D01*
X94188954Y-80903070D01*
G37*
X94188954Y-80903070D02*
X94169087Y-81022972D01*
X94187108Y-81060956D01*
X94294342Y-81131436D01*
X94444620Y-81150855D01*
X94556506Y-81115466D01*
X94572667Y-81078700D01*
X94514671Y-80968891D01*
X94442079Y-80896022D01*
X94300267Y-80847611D01*
X94188954Y-80903070D01*
G36*
X94732512Y-82253530D02*
X94708079Y-82262153D01*
X94512082Y-82354518D01*
X94408296Y-82445331D01*
X94403334Y-82463503D01*
X94455981Y-82613142D01*
X94581289Y-82810009D01*
X94730314Y-82983496D01*
X94805794Y-83044064D01*
X94932280Y-83175128D01*
X95003792Y-83298064D01*
X95063563Y-83426516D01*
X95068625Y-83397999D01*
X95048649Y-83290834D01*
X95040622Y-83143582D01*
X95067427Y-83100334D01*
X95113185Y-83028701D01*
X95146560Y-82807084D01*
X95167220Y-82473878D01*
X95129260Y-82276552D01*
X94987399Y-82204505D01*
X94732512Y-82253530D01*
X94732512Y-82253530D01*
G37*
X94732512Y-82253530D02*
X94708079Y-82262153D01*
X94512082Y-82354518D01*
X94408296Y-82445331D01*
X94403334Y-82463503D01*
X94455981Y-82613142D01*
X94581289Y-82810009D01*
X94730314Y-82983496D01*
X94805794Y-83044064D01*
X94932280Y-83175128D01*
X95003792Y-83298064D01*
X95063563Y-83426516D01*
X95068625Y-83397999D01*
X95048649Y-83290834D01*
X95040622Y-83143582D01*
X95067427Y-83100334D01*
X95113185Y-83028701D01*
X95146560Y-82807084D01*
X95167220Y-82473878D01*
X95129260Y-82276552D01*
X94987399Y-82204505D01*
X94732512Y-82253530D01*
G36*
X95758000Y-83735334D02*
X95800334Y-83777667D01*
X95842667Y-83735334D01*
X95800334Y-83693000D01*
X95758000Y-83735334D01*
X95758000Y-83735334D01*
G37*
X95758000Y-83735334D02*
X95800334Y-83777667D01*
X95842667Y-83735334D01*
X95800334Y-83693000D01*
X95758000Y-83735334D01*
G36*
X95105539Y-83603640D02*
X95094511Y-83752979D01*
X95090684Y-83883500D01*
X95100809Y-84117808D01*
X95137810Y-84262773D01*
X95165334Y-84285667D01*
X95232213Y-84216448D01*
X95239983Y-84137500D01*
X95212073Y-83948357D01*
X95165334Y-83735334D01*
X95126759Y-83602498D01*
X95105539Y-83603640D01*
X95105539Y-83603640D01*
G37*
X95105539Y-83603640D02*
X95094511Y-83752979D01*
X95090684Y-83883500D01*
X95100809Y-84117808D01*
X95137810Y-84262773D01*
X95165334Y-84285667D01*
X95232213Y-84216448D01*
X95239983Y-84137500D01*
X95212073Y-83948357D01*
X95165334Y-83735334D01*
X95126759Y-83602498D01*
X95105539Y-83603640D01*
G36*
X96309392Y-84399641D02*
X96327226Y-84493823D01*
X96350712Y-84539750D01*
X96484039Y-84678683D01*
X96636745Y-84701219D01*
X96728051Y-84630184D01*
X96712170Y-84526553D01*
X96568025Y-84435036D01*
X96411233Y-84394033D01*
X96309392Y-84399641D01*
X96309392Y-84399641D01*
G37*
X96309392Y-84399641D02*
X96327226Y-84493823D01*
X96350712Y-84539750D01*
X96484039Y-84678683D01*
X96636745Y-84701219D01*
X96728051Y-84630184D01*
X96712170Y-84526553D01*
X96568025Y-84435036D01*
X96411233Y-84394033D01*
X96309392Y-84399641D01*
G36*
X95086821Y-84458542D02*
X95148415Y-84589981D01*
X95204974Y-84671651D01*
X95300839Y-84764242D01*
X95331974Y-84724119D01*
X95278970Y-84576730D01*
X95207667Y-84485238D01*
X95106723Y-84413147D01*
X95086821Y-84458542D01*
X95086821Y-84458542D01*
G37*
X95086821Y-84458542D02*
X95148415Y-84589981D01*
X95204974Y-84671651D01*
X95300839Y-84764242D01*
X95331974Y-84724119D01*
X95278970Y-84576730D01*
X95207667Y-84485238D01*
X95106723Y-84413147D01*
X95086821Y-84458542D01*
G36*
X96898147Y-85389845D02*
X96908121Y-85416691D01*
X96984267Y-85520730D01*
X97074441Y-85564819D01*
X97112667Y-85523700D01*
X97056499Y-85450734D01*
X96983729Y-85384725D01*
X96891938Y-85322951D01*
X96898147Y-85389845D01*
X96898147Y-85389845D01*
G37*
X96898147Y-85389845D02*
X96908121Y-85416691D01*
X96984267Y-85520730D01*
X97074441Y-85564819D01*
X97112667Y-85523700D01*
X97056499Y-85450734D01*
X96983729Y-85384725D01*
X96891938Y-85322951D01*
X96898147Y-85389845D01*
G36*
X97140889Y-85668556D02*
X97152512Y-85718890D01*
X97197334Y-85725000D01*
X97267024Y-85694022D01*
X97253778Y-85668556D01*
X97153299Y-85658423D01*
X97140889Y-85668556D01*
X97140889Y-85668556D01*
G37*
X97140889Y-85668556D02*
X97152512Y-85718890D01*
X97197334Y-85725000D01*
X97267024Y-85694022D01*
X97253778Y-85668556D01*
X97153299Y-85658423D01*
X97140889Y-85668556D01*
G36*
X97112667Y-86444667D02*
X97155000Y-86487000D01*
X97197334Y-86444667D01*
X97155000Y-86402334D01*
X97112667Y-86444667D01*
X97112667Y-86444667D01*
G37*
X97112667Y-86444667D02*
X97155000Y-86487000D01*
X97197334Y-86444667D01*
X97155000Y-86402334D01*
X97112667Y-86444667D01*
G36*
X101504719Y-85936211D02*
X101381639Y-86032815D01*
X101255834Y-86198793D01*
X101163574Y-86374597D01*
X101141130Y-86500682D01*
X101150676Y-86517453D01*
X101241806Y-86565823D01*
X101365473Y-86524771D01*
X101561322Y-86379290D01*
X101599270Y-86347623D01*
X101762042Y-86195283D01*
X101804309Y-86095066D01*
X101747798Y-86005845D01*
X101592880Y-85929248D01*
X101504719Y-85936211D01*
X101504719Y-85936211D01*
G37*
X101504719Y-85936211D02*
X101381639Y-86032815D01*
X101255834Y-86198793D01*
X101163574Y-86374597D01*
X101141130Y-86500682D01*
X101150676Y-86517453D01*
X101241806Y-86565823D01*
X101365473Y-86524771D01*
X101561322Y-86379290D01*
X101599270Y-86347623D01*
X101762042Y-86195283D01*
X101804309Y-86095066D01*
X101747798Y-86005845D01*
X101592880Y-85929248D01*
X101504719Y-85936211D01*
G36*
X95758000Y-86698667D02*
X95800334Y-86741000D01*
X95842667Y-86698667D01*
X95800334Y-86656334D01*
X95758000Y-86698667D01*
X95758000Y-86698667D01*
G37*
X95758000Y-86698667D02*
X95800334Y-86741000D01*
X95842667Y-86698667D01*
X95800334Y-86656334D01*
X95758000Y-86698667D01*
G36*
X97790018Y-87150221D02*
X97790000Y-87151617D01*
X97857395Y-87253644D01*
X98015112Y-87374863D01*
X98196457Y-87471077D01*
X98316188Y-87500307D01*
X98345678Y-87458738D01*
X98255667Y-87367104D01*
X98013567Y-87198628D01*
X97850751Y-87122817D01*
X97790018Y-87150221D01*
X97790018Y-87150221D01*
G37*
X97790018Y-87150221D02*
X97790000Y-87151617D01*
X97857395Y-87253644D01*
X98015112Y-87374863D01*
X98196457Y-87471077D01*
X98316188Y-87500307D01*
X98345678Y-87458738D01*
X98255667Y-87367104D01*
X98013567Y-87198628D01*
X97850751Y-87122817D01*
X97790018Y-87150221D01*
G36*
X94517104Y-88232203D02*
X94530334Y-88265000D01*
X94606416Y-88345771D01*
X94619997Y-88349667D01*
X94656363Y-88284161D01*
X94657334Y-88265000D01*
X94592246Y-88183587D01*
X94567670Y-88180334D01*
X94517104Y-88232203D01*
X94517104Y-88232203D01*
G37*
X94517104Y-88232203D02*
X94530334Y-88265000D01*
X94606416Y-88345771D01*
X94619997Y-88349667D01*
X94656363Y-88284161D01*
X94657334Y-88265000D01*
X94592246Y-88183587D01*
X94567670Y-88180334D01*
X94517104Y-88232203D01*
G36*
X98975334Y-89069334D02*
X99017667Y-89111667D01*
X99060000Y-89069334D01*
X99017667Y-89027000D01*
X98975334Y-89069334D01*
X98975334Y-89069334D01*
G37*
X98975334Y-89069334D02*
X99017667Y-89111667D01*
X99060000Y-89069334D01*
X99017667Y-89027000D01*
X98975334Y-89069334D01*
G36*
X99144667Y-89154000D02*
X99187000Y-89196334D01*
X99229334Y-89154000D01*
X99187000Y-89111667D01*
X99144667Y-89154000D01*
X99144667Y-89154000D01*
G37*
X99144667Y-89154000D02*
X99187000Y-89196334D01*
X99229334Y-89154000D01*
X99187000Y-89111667D01*
X99144667Y-89154000D01*
G36*
X88184533Y-91771318D02*
X88026619Y-91827376D01*
X87968667Y-91907280D01*
X88039594Y-91974765D01*
X88138000Y-91990334D01*
X88275518Y-91951133D01*
X88307334Y-91896608D01*
X88370041Y-91842450D01*
X88455500Y-91859291D01*
X88550937Y-91882775D01*
X88506967Y-91818250D01*
X88504033Y-91815282D01*
X88368601Y-91763003D01*
X88184533Y-91771318D01*
X88184533Y-91771318D01*
G37*
X88184533Y-91771318D02*
X88026619Y-91827376D01*
X87968667Y-91907280D01*
X88039594Y-91974765D01*
X88138000Y-91990334D01*
X88275518Y-91951133D01*
X88307334Y-91896608D01*
X88370041Y-91842450D01*
X88455500Y-91859291D01*
X88550937Y-91882775D01*
X88506967Y-91818250D01*
X88504033Y-91815282D01*
X88368601Y-91763003D01*
X88184533Y-91771318D01*
G36*
X87718113Y-92051794D02*
X87714667Y-92075000D01*
X87743554Y-92157466D01*
X87752004Y-92159667D01*
X87824290Y-92100338D01*
X87841667Y-92075000D01*
X87834954Y-91996981D01*
X87804331Y-91990334D01*
X87718113Y-92051794D01*
X87718113Y-92051794D01*
G37*
X87718113Y-92051794D02*
X87714667Y-92075000D01*
X87743554Y-92157466D01*
X87752004Y-92159667D01*
X87824290Y-92100338D01*
X87841667Y-92075000D01*
X87834954Y-91996981D01*
X87804331Y-91990334D01*
X87718113Y-92051794D01*
G36*
X88680369Y-92031379D02*
X88688334Y-92075000D01*
X88796577Y-92156437D01*
X88820331Y-92159667D01*
X88897720Y-92095088D01*
X88900000Y-92075000D01*
X88831085Y-92000696D01*
X88768004Y-91990334D01*
X88680369Y-92031379D01*
X88680369Y-92031379D01*
G37*
X88680369Y-92031379D02*
X88688334Y-92075000D01*
X88796577Y-92156437D01*
X88820331Y-92159667D01*
X88897720Y-92095088D01*
X88900000Y-92075000D01*
X88831085Y-92000696D01*
X88768004Y-91990334D01*
X88680369Y-92031379D01*
G36*
X88222667Y-92100917D02*
X88047648Y-92182626D01*
X87969000Y-92250264D01*
X87968667Y-92253286D01*
X88042105Y-92303701D01*
X88219097Y-92346531D01*
X88222667Y-92347060D01*
X88402092Y-92355031D01*
X88469317Y-92284837D01*
X88476667Y-92194691D01*
X88461786Y-92070099D01*
X88384589Y-92048190D01*
X88222667Y-92100917D01*
X88222667Y-92100917D01*
G37*
X88222667Y-92100917D02*
X88047648Y-92182626D01*
X87969000Y-92250264D01*
X87968667Y-92253286D01*
X88042105Y-92303701D01*
X88219097Y-92346531D01*
X88222667Y-92347060D01*
X88402092Y-92355031D01*
X88469317Y-92284837D01*
X88476667Y-92194691D01*
X88461786Y-92070099D01*
X88384589Y-92048190D01*
X88222667Y-92100917D01*
G36*
X98961387Y-68952891D02*
X98516694Y-69000539D01*
X98057214Y-69079268D01*
X97632107Y-69183299D01*
X97513111Y-69220407D01*
X96765415Y-69542188D01*
X96039083Y-69991703D01*
X95394000Y-70531791D01*
X95384114Y-70541510D01*
X95051121Y-70895288D01*
X94765822Y-71246780D01*
X94549968Y-71565212D01*
X94425308Y-71819809D01*
X94403334Y-71929278D01*
X94347557Y-72045398D01*
X94196617Y-72250003D01*
X93975098Y-72511851D01*
X93766779Y-72738202D01*
X93435606Y-73109447D01*
X93177450Y-73464745D01*
X92986278Y-73829954D01*
X92856059Y-74230933D01*
X92780761Y-74693539D01*
X92754351Y-75243630D01*
X92770797Y-75907064D01*
X92824067Y-76709700D01*
X92828204Y-76761618D01*
X92893655Y-77577236D01*
X93231083Y-77581893D01*
X93442989Y-77606294D01*
X93644453Y-77689749D01*
X93885576Y-77857315D01*
X94049423Y-77991186D01*
X94400660Y-78288570D01*
X94645939Y-78503843D01*
X94809874Y-78662710D01*
X94917079Y-78790878D01*
X94992167Y-78914054D01*
X95050154Y-79036334D01*
X95138962Y-79219991D01*
X95195155Y-79264519D01*
X95250204Y-79187528D01*
X95265030Y-79156577D01*
X95395988Y-78988792D01*
X95590023Y-78837334D01*
X95775903Y-78687944D01*
X95885055Y-78528137D01*
X95885554Y-78526590D01*
X96002101Y-78395394D01*
X96194789Y-78361744D01*
X96397967Y-78430620D01*
X96462418Y-78482847D01*
X96551505Y-78633169D01*
X96644168Y-78882524D01*
X96690900Y-79054347D01*
X96893764Y-79708406D01*
X97166925Y-80213258D01*
X97520295Y-80577895D01*
X97963787Y-80811312D01*
X98507314Y-80922500D01*
X98763667Y-80934872D01*
X99327007Y-80922680D01*
X99758826Y-80866715D01*
X100093147Y-80758837D01*
X100363990Y-80590908D01*
X100427790Y-80536782D01*
X100613752Y-80341485D01*
X100828223Y-80073576D01*
X101044157Y-79772815D01*
X101234507Y-79478959D01*
X101372228Y-79231764D01*
X101430274Y-79070989D01*
X101430667Y-79062562D01*
X101485951Y-78871821D01*
X101617944Y-78679492D01*
X101775856Y-78549763D01*
X101853371Y-78528334D01*
X101979904Y-78552741D01*
X102083213Y-78644016D01*
X102178795Y-78829235D01*
X102282148Y-79135475D01*
X102362227Y-79417334D01*
X102464348Y-79765423D01*
X102567541Y-80075784D01*
X102652536Y-80291272D01*
X102666415Y-80319397D01*
X102778410Y-80666839D01*
X102744297Y-80968690D01*
X102585517Y-81203866D01*
X102323515Y-81351280D01*
X101979731Y-81389845D01*
X101645469Y-81323368D01*
X101387318Y-81266579D01*
X101129105Y-81288887D01*
X100959742Y-81333025D01*
X100743845Y-81415247D01*
X100623061Y-81497821D01*
X100612922Y-81531558D01*
X100657083Y-81584363D01*
X100765067Y-81605576D01*
X100973010Y-81597210D01*
X101261334Y-81567665D01*
X101557667Y-81534000D01*
X101549794Y-81901492D01*
X101551535Y-82129021D01*
X101589852Y-82229438D01*
X101694771Y-82244835D01*
X101786355Y-82233109D01*
X101975168Y-82228914D01*
X102074392Y-82267783D01*
X102186144Y-82327980D01*
X102273272Y-82338334D01*
X102428843Y-82399027D01*
X102477285Y-82465333D01*
X102590436Y-82577964D01*
X102655677Y-82592334D01*
X102771009Y-82640159D01*
X102768640Y-82757428D01*
X102660663Y-82904826D01*
X102528803Y-83004828D01*
X102415576Y-83063458D01*
X102281604Y-83103866D01*
X102097755Y-83128193D01*
X101834900Y-83138581D01*
X101463907Y-83137171D01*
X100955646Y-83126103D01*
X100898970Y-83124622D01*
X100422164Y-83113107D01*
X99995512Y-83104780D01*
X99651954Y-83100130D01*
X99424431Y-83099649D01*
X99356334Y-83101640D01*
X99126254Y-83118848D01*
X99028812Y-83125745D01*
X98882476Y-83208931D01*
X98751427Y-83395439D01*
X98668633Y-83620184D01*
X98667060Y-83818080D01*
X98671544Y-83831098D01*
X98733258Y-83929116D01*
X98799118Y-83873470D01*
X98924049Y-83751763D01*
X99069730Y-83660079D01*
X99245806Y-83603954D01*
X99424272Y-83647360D01*
X99525667Y-83699700D01*
X99715665Y-83779095D01*
X99986175Y-83860996D01*
X100288441Y-83934697D01*
X100573708Y-83989491D01*
X100793222Y-84014673D01*
X100897043Y-84000846D01*
X100907560Y-83904705D01*
X100821421Y-83819979D01*
X100708627Y-83809195D01*
X100573881Y-83799754D01*
X100471316Y-83706702D01*
X100446029Y-83589287D01*
X100493854Y-83527053D01*
X100682172Y-83472751D01*
X100956697Y-83456379D01*
X101238803Y-83477094D01*
X101449864Y-83534053D01*
X101456283Y-83537376D01*
X101676781Y-83618515D01*
X101828133Y-83648287D01*
X102052739Y-83715553D01*
X102162409Y-83827772D01*
X102152875Y-83942993D01*
X102019873Y-84019268D01*
X101866771Y-84028196D01*
X101513654Y-84018746D01*
X101290000Y-84042080D01*
X101212287Y-84095956D01*
X101219000Y-84116334D01*
X101198895Y-84188063D01*
X101134334Y-84201000D01*
X101042886Y-84240824D01*
X101049667Y-84285667D01*
X101163114Y-84344332D01*
X101364837Y-84369041D01*
X101372164Y-84369037D01*
X101540227Y-84356973D01*
X101556072Y-84316931D01*
X101515334Y-84285667D01*
X101448202Y-84223686D01*
X101532055Y-84203185D01*
X101576177Y-84202297D01*
X101711796Y-84232723D01*
X101713951Y-84346240D01*
X101712953Y-84349167D01*
X101689885Y-84439334D01*
X101739778Y-84395948D01*
X101788033Y-84335410D01*
X101937041Y-84229281D01*
X102079560Y-84241385D01*
X102156665Y-84356799D01*
X102155984Y-84428596D01*
X102074521Y-84547326D01*
X101951040Y-84555512D01*
X101799912Y-84580453D01*
X101769334Y-84661345D01*
X101697646Y-84770041D01*
X101585501Y-84793667D01*
X101378362Y-84849285D01*
X101244833Y-84935600D01*
X101101717Y-85025934D01*
X100991389Y-84980885D01*
X100988400Y-84977933D01*
X100813020Y-84878485D01*
X100647629Y-84892106D01*
X100543551Y-84996947D01*
X100549577Y-85164750D01*
X100658102Y-85279251D01*
X100876342Y-85417360D01*
X101151863Y-85553897D01*
X101432227Y-85663681D01*
X101664999Y-85721533D01*
X101716246Y-85725000D01*
X102068871Y-85778778D01*
X102308610Y-85924715D01*
X102419925Y-86139719D01*
X102387275Y-86400694D01*
X102288222Y-86575048D01*
X102168041Y-86754532D01*
X102108763Y-86876239D01*
X102107465Y-86885738D01*
X102040848Y-86968442D01*
X101878637Y-87082244D01*
X101853465Y-87096896D01*
X101681472Y-87172405D01*
X101601550Y-87160436D01*
X101600000Y-87150521D01*
X101533263Y-87094975D01*
X101437002Y-87102542D01*
X101318071Y-87104168D01*
X101317700Y-87006584D01*
X101296987Y-86979434D01*
X101195405Y-87065179D01*
X101115019Y-87153002D01*
X100923409Y-87340861D01*
X100729472Y-87423193D01*
X100493488Y-87440585D01*
X100207016Y-87432463D01*
X99957252Y-87409062D01*
X99906667Y-87400480D01*
X99664821Y-87324561D01*
X99403353Y-87202539D01*
X99170310Y-87062325D01*
X99013739Y-86931829D01*
X98975334Y-86859452D01*
X98904669Y-86763892D01*
X98803343Y-86741000D01*
X98640538Y-86685829D01*
X98582618Y-86614000D01*
X98457449Y-86517779D01*
X98209272Y-86487000D01*
X97984443Y-86463554D01*
X97838867Y-86405551D01*
X97824249Y-86389252D01*
X97814270Y-86331315D01*
X97861585Y-86351915D01*
X97948590Y-86355318D01*
X97959334Y-86320006D01*
X97890568Y-86216787D01*
X97811167Y-86173019D01*
X97652656Y-86080373D01*
X97603026Y-86028217D01*
X97511745Y-85987675D01*
X97445559Y-86035575D01*
X97425180Y-86119450D01*
X97500613Y-86258216D01*
X97685810Y-86473493D01*
X97813865Y-86606367D01*
X98050701Y-86831170D01*
X98256321Y-86998142D01*
X98392782Y-87077094D01*
X98408777Y-87079667D01*
X98540070Y-87126028D01*
X98566112Y-87163052D01*
X98658065Y-87221239D01*
X98868547Y-87288287D01*
X99102334Y-87339866D01*
X99405033Y-87401503D01*
X99659929Y-87463803D01*
X99779667Y-87501525D01*
X100259846Y-87680293D01*
X100652278Y-87796452D01*
X100927540Y-87841404D01*
X100943792Y-87841667D01*
X101160397Y-87874996D01*
X101404061Y-87958202D01*
X101619486Y-88066116D01*
X101751374Y-88173568D01*
X101768776Y-88217181D01*
X101725104Y-88344387D01*
X101619586Y-88532560D01*
X101608409Y-88549732D01*
X101517507Y-88757513D01*
X101458512Y-89027251D01*
X101433272Y-89311968D01*
X101443637Y-89564685D01*
X101491458Y-89738422D01*
X101559617Y-89789000D01*
X101660639Y-89816455D01*
X101670071Y-89918751D01*
X101587492Y-90125783D01*
X101553901Y-90194444D01*
X101473410Y-90400039D01*
X101488959Y-90550291D01*
X101531934Y-90630785D01*
X101659790Y-90782718D01*
X101764999Y-90775957D01*
X101817254Y-90711294D01*
X101893687Y-90672651D01*
X101947954Y-90732461D01*
X102002577Y-90773682D01*
X102022904Y-90657545D01*
X102023334Y-90635667D01*
X102037208Y-90499350D01*
X102084248Y-90515619D01*
X102109297Y-90551000D01*
X102189226Y-90635376D01*
X102267330Y-90569695D01*
X102280475Y-90551000D01*
X102328082Y-90523108D01*
X102332777Y-90622666D01*
X102301233Y-90815216D01*
X102240121Y-91066296D01*
X102156114Y-91341447D01*
X102094514Y-91511443D01*
X101982052Y-91761820D01*
X101863625Y-91967697D01*
X101761094Y-92098787D01*
X101696321Y-92124805D01*
X101694411Y-92117334D01*
X101515334Y-92117334D01*
X101473000Y-92159667D01*
X101430667Y-92117334D01*
X101473000Y-92075000D01*
X101515334Y-92117334D01*
X101694411Y-92117334D01*
X101684667Y-92079233D01*
X101615433Y-91982331D01*
X101452995Y-91882685D01*
X101234169Y-91761971D01*
X101086507Y-91651667D01*
X100801124Y-91397597D01*
X100571265Y-91221834D01*
X100424770Y-91145305D01*
X100410650Y-91143667D01*
X100250346Y-91098027D01*
X100006860Y-90980561D01*
X99732917Y-90820449D01*
X99481244Y-90646874D01*
X99409973Y-90589854D01*
X99219663Y-90440455D01*
X99135065Y-90397053D01*
X99144738Y-90443379D01*
X99237239Y-90563167D01*
X99401125Y-90740149D01*
X99624955Y-90958056D01*
X99747804Y-91070159D01*
X100054277Y-91344347D01*
X100352170Y-91611227D01*
X100592058Y-91826505D01*
X100657971Y-91885789D01*
X100894511Y-92076606D01*
X101125995Y-92229299D01*
X101197834Y-92266290D01*
X101362433Y-92356250D01*
X101430667Y-92426052D01*
X101501629Y-92488983D01*
X101674057Y-92566509D01*
X101690044Y-92572188D01*
X101865372Y-92619828D01*
X101965664Y-92578702D01*
X102052012Y-92416635D01*
X102071044Y-92371523D01*
X102151974Y-92148408D01*
X102191806Y-91980881D01*
X102192667Y-91965113D01*
X102228415Y-91844052D01*
X102324757Y-91610239D01*
X102465344Y-91301763D01*
X102574471Y-91075680D01*
X102746702Y-90720940D01*
X102854870Y-90467555D01*
X102910751Y-90265479D01*
X102926117Y-90064665D01*
X102912745Y-89815066D01*
X102901551Y-89685453D01*
X102864364Y-89360302D01*
X102818379Y-89088408D01*
X102773226Y-88926140D01*
X102771043Y-88921681D01*
X102740774Y-88750634D01*
X102745569Y-88466718D01*
X102778643Y-88121142D01*
X102833210Y-87765117D01*
X102902484Y-87449853D01*
X102979679Y-87226560D01*
X103000601Y-87189289D01*
X103123732Y-86989496D01*
X103275578Y-86727953D01*
X103329463Y-86631683D01*
X103749742Y-85864824D01*
X104092008Y-85222760D01*
X104365057Y-84684895D01*
X104577682Y-84230634D01*
X104738678Y-83839383D01*
X104856842Y-83490546D01*
X104940966Y-83163527D01*
X104999847Y-82837733D01*
X105022909Y-82666070D01*
X105095784Y-82306645D01*
X105220495Y-82066929D01*
X105281483Y-82001093D01*
X105422926Y-81803590D01*
X105544626Y-81526383D01*
X105579359Y-81406893D01*
X105658827Y-81151065D01*
X105685959Y-81110667D01*
X104648000Y-81110667D01*
X104605667Y-81153000D01*
X104563334Y-81110667D01*
X104605667Y-81068334D01*
X104648000Y-81110667D01*
X105685959Y-81110667D01*
X105778071Y-80973522D01*
X105985958Y-80810443D01*
X106083822Y-80748003D01*
X106291617Y-80607076D01*
X106439733Y-80462828D01*
X106560888Y-80269553D01*
X106687801Y-79981544D01*
X106754799Y-79810697D01*
X106874846Y-79486509D01*
X106966318Y-79214939D01*
X107014640Y-79040241D01*
X107018667Y-79009435D01*
X107065564Y-78877147D01*
X107185151Y-78669785D01*
X107272667Y-78541770D01*
X107475446Y-78169663D01*
X107526667Y-77895680D01*
X107525739Y-77886278D01*
X96174650Y-77886278D01*
X96159083Y-77996092D01*
X96130181Y-77997403D01*
X96111620Y-77893334D01*
X95165334Y-77893334D01*
X95123000Y-77935667D01*
X95080667Y-77893334D01*
X95123000Y-77851000D01*
X95165334Y-77893334D01*
X96111620Y-77893334D01*
X96109970Y-77884086D01*
X96123497Y-77835125D01*
X96161092Y-77803055D01*
X96174650Y-77886278D01*
X107525739Y-77886278D01*
X107506154Y-77687962D01*
X107417680Y-77586829D01*
X107293834Y-77547098D01*
X106843918Y-77441039D01*
X106537227Y-77358759D01*
X106350739Y-77291845D01*
X106261434Y-77231887D01*
X106246291Y-77170470D01*
X106247713Y-77164817D01*
X106289024Y-77020517D01*
X106359002Y-76777760D01*
X106410773Y-76598715D01*
X106463011Y-76383458D01*
X104643000Y-76383458D01*
X104616590Y-76512375D01*
X104540420Y-76616009D01*
X104207405Y-76836815D01*
X103816062Y-76919622D01*
X103806900Y-76919667D01*
X103626095Y-76938476D01*
X103547443Y-76983924D01*
X103547334Y-76985849D01*
X103473815Y-77046521D01*
X103287217Y-77125401D01*
X103166334Y-77164528D01*
X102941988Y-77244111D01*
X102805076Y-77318397D01*
X102785334Y-77346137D01*
X102739706Y-77412485D01*
X102589104Y-77458253D01*
X102312949Y-77486820D01*
X101890665Y-77501565D01*
X101832834Y-77502512D01*
X101471872Y-77496700D01*
X101247882Y-77467893D01*
X101176667Y-77421961D01*
X101110967Y-77369947D01*
X101011341Y-77384062D01*
X100888542Y-77394157D01*
X100875389Y-77284926D01*
X100878375Y-77268503D01*
X100871769Y-77163390D01*
X100778721Y-77089834D01*
X100563694Y-77024671D01*
X100472201Y-77003763D01*
X100093526Y-76930482D01*
X99648935Y-76859773D01*
X99195864Y-76799276D01*
X98791749Y-76756635D01*
X98494026Y-76739491D01*
X98485616Y-76739445D01*
X98197481Y-76805189D01*
X98062283Y-76914098D01*
X97896193Y-77036843D01*
X97606065Y-77144067D01*
X97175928Y-77240478D01*
X96697815Y-77316120D01*
X96472221Y-77339319D01*
X96382163Y-77320158D01*
X96397646Y-77251958D01*
X96399101Y-77249608D01*
X96474755Y-77076998D01*
X96536864Y-76847368D01*
X96578795Y-76607376D01*
X96593915Y-76403681D01*
X96575590Y-76282940D01*
X96537853Y-76273634D01*
X96491123Y-76253188D01*
X96498414Y-76134833D01*
X96548289Y-75976830D01*
X96621591Y-75847001D01*
X96634608Y-75730512D01*
X96572468Y-75677346D01*
X96529556Y-75627866D01*
X96496116Y-75519935D01*
X96470538Y-75333423D01*
X96451212Y-75048199D01*
X96436529Y-74644133D01*
X96424880Y-74101096D01*
X96419606Y-73765423D01*
X96413687Y-73227262D01*
X96411999Y-72750673D01*
X96414335Y-72360045D01*
X96420486Y-72079766D01*
X96430245Y-71934223D01*
X96435334Y-71919144D01*
X96537559Y-71908566D01*
X96749290Y-71887373D01*
X96881101Y-71874322D01*
X97176358Y-71831886D01*
X97437190Y-71772756D01*
X97506677Y-71750054D01*
X97690096Y-71705681D01*
X97785939Y-71726889D01*
X97761806Y-71798337D01*
X97702882Y-71842974D01*
X97639268Y-71902719D01*
X97728023Y-71922385D01*
X97763837Y-71923037D01*
X97934683Y-71958730D01*
X98001667Y-72009000D01*
X97981562Y-72080729D01*
X97917000Y-72093667D01*
X97827205Y-72135891D01*
X97835901Y-72184106D01*
X97951453Y-72239406D01*
X98012152Y-72228359D01*
X98154225Y-72248615D01*
X98301442Y-72351108D01*
X98508692Y-72499242D01*
X98831493Y-72636845D01*
X99287989Y-72770283D01*
X99864334Y-72899459D01*
X100464254Y-73033769D01*
X100908409Y-73162679D01*
X101210089Y-73290462D01*
X101331614Y-73371166D01*
X101476050Y-73466736D01*
X101722258Y-73606263D01*
X102019128Y-73760899D01*
X102044171Y-73773374D01*
X102382955Y-73960847D01*
X102645638Y-74163991D01*
X102894433Y-74435831D01*
X103037544Y-74620040D01*
X103254330Y-74918788D01*
X103444630Y-75199124D01*
X103573221Y-75408772D01*
X103588627Y-75438000D01*
X103756134Y-75735118D01*
X103912210Y-75903757D01*
X104097127Y-75976685D01*
X104265042Y-75988334D01*
X104470790Y-76000219D01*
X104547739Y-76052296D01*
X104538802Y-76157667D01*
X104534053Y-76292675D01*
X104571260Y-76327000D01*
X104643000Y-76383458D01*
X106463011Y-76383458D01*
X106464605Y-76376892D01*
X106494713Y-76141585D01*
X106502333Y-75852975D01*
X106488706Y-75471246D01*
X106459814Y-75022371D01*
X106425222Y-74562130D01*
X106391751Y-74230731D01*
X106349508Y-73988040D01*
X106288601Y-73793925D01*
X106199136Y-73608251D01*
X106071221Y-73390886D01*
X106048466Y-73353656D01*
X105394312Y-72390000D01*
X98636667Y-72390000D01*
X98594334Y-72432334D01*
X98552000Y-72390000D01*
X98594334Y-72347667D01*
X98636667Y-72390000D01*
X105394312Y-72390000D01*
X105319947Y-72280451D01*
X104976626Y-71863936D01*
X100485686Y-71863936D01*
X100465085Y-71911252D01*
X100379835Y-72002145D01*
X100330825Y-71983500D01*
X100330000Y-71971664D01*
X100390137Y-71900051D01*
X100427749Y-71873915D01*
X100485686Y-71863936D01*
X104976626Y-71863936D01*
X104796297Y-71645163D01*
X100531137Y-71645163D01*
X100414667Y-71656965D01*
X100294472Y-71643660D01*
X100308834Y-71614260D01*
X100482176Y-71603078D01*
X100520500Y-71614260D01*
X100531137Y-71645163D01*
X104796297Y-71645163D01*
X104630941Y-71444556D01*
X101487112Y-71444556D01*
X101475489Y-71494890D01*
X101430667Y-71501000D01*
X101360977Y-71470022D01*
X101374223Y-71444556D01*
X101474702Y-71434423D01*
X101487112Y-71444556D01*
X104630941Y-71444556D01*
X104574083Y-71375576D01*
X101125143Y-71375576D01*
X101103875Y-71397278D01*
X100929153Y-71407130D01*
X100901500Y-71407894D01*
X100697542Y-71393408D01*
X100589289Y-71346911D01*
X100584000Y-71331667D01*
X100636668Y-71263889D01*
X100807084Y-71275720D01*
X101007334Y-71331667D01*
X101125143Y-71375576D01*
X104574083Y-71375576D01*
X104522975Y-71313574D01*
X101782486Y-71313574D01*
X101672678Y-71304536D01*
X101478056Y-71251791D01*
X101346000Y-71204667D01*
X101182220Y-71129213D01*
X101178383Y-71091669D01*
X101219000Y-71087927D01*
X101415507Y-71120859D01*
X101642334Y-71201609D01*
X101781149Y-71279174D01*
X101782486Y-71313574D01*
X104522975Y-71313574D01*
X104509443Y-71297158D01*
X104238157Y-71009026D01*
X103965167Y-70738623D01*
X103832254Y-70623652D01*
X101217085Y-70623652D01*
X101176667Y-70654334D01*
X101083259Y-70710658D01*
X100998329Y-70727760D01*
X100868628Y-70701562D01*
X100640909Y-70627982D01*
X100584000Y-70608922D01*
X100380410Y-70537580D01*
X100331612Y-70509012D01*
X100430348Y-70516864D01*
X100488750Y-70525540D01*
X100780774Y-70558102D01*
X101039084Y-70570963D01*
X101204172Y-70583111D01*
X101217085Y-70623652D01*
X103832254Y-70623652D01*
X103722314Y-70528554D01*
X103466184Y-70349438D01*
X103431820Y-70329934D01*
X101922209Y-70329934D01*
X101899604Y-70371155D01*
X101811667Y-70408926D01*
X101591067Y-70445948D01*
X101473000Y-70432981D01*
X101281286Y-70384089D01*
X101022209Y-70319242D01*
X100965000Y-70305061D01*
X100731427Y-70233553D01*
X100568926Y-70159192D01*
X100545900Y-70141478D01*
X100487563Y-70114611D01*
X99579750Y-70114611D01*
X99467293Y-70129269D01*
X99441000Y-70129828D01*
X99296405Y-70120676D01*
X99283674Y-70094172D01*
X99291222Y-70090798D01*
X99459302Y-70074049D01*
X99545222Y-70087660D01*
X99579750Y-70114611D01*
X100487563Y-70114611D01*
X100405122Y-70076643D01*
X100249567Y-70052600D01*
X100164801Y-70036420D01*
X100242614Y-70000497D01*
X100396985Y-69962261D01*
X100704387Y-69924126D01*
X100992118Y-69974103D01*
X101131312Y-70022680D01*
X101373351Y-70094397D01*
X101558480Y-70112683D01*
X101606576Y-70099936D01*
X101671581Y-70083652D01*
X101654186Y-70127156D01*
X101677727Y-70218512D01*
X101789271Y-70279765D01*
X101922209Y-70329934D01*
X103431820Y-70329934D01*
X103153361Y-70171893D01*
X102740430Y-69966535D01*
X102596238Y-69897812D01*
X101948517Y-69606789D01*
X101921414Y-69596000D01*
X99314000Y-69596000D01*
X99271667Y-69638334D01*
X99229334Y-69596000D01*
X99271667Y-69553667D01*
X99314000Y-69596000D01*
X101921414Y-69596000D01*
X101346967Y-69367330D01*
X100817289Y-69188223D01*
X100385184Y-69078260D01*
X100104631Y-69045667D01*
X99836241Y-69021094D01*
X99609775Y-68973952D01*
X99342133Y-68942103D01*
X98961387Y-68952891D01*
X98961387Y-68952891D01*
G37*
X98961387Y-68952891D02*
X98516694Y-69000539D01*
X98057214Y-69079268D01*
X97632107Y-69183299D01*
X97513111Y-69220407D01*
X96765415Y-69542188D01*
X96039083Y-69991703D01*
X95394000Y-70531791D01*
X95384114Y-70541510D01*
X95051121Y-70895288D01*
X94765822Y-71246780D01*
X94549968Y-71565212D01*
X94425308Y-71819809D01*
X94403334Y-71929278D01*
X94347557Y-72045398D01*
X94196617Y-72250003D01*
X93975098Y-72511851D01*
X93766779Y-72738202D01*
X93435606Y-73109447D01*
X93177450Y-73464745D01*
X92986278Y-73829954D01*
X92856059Y-74230933D01*
X92780761Y-74693539D01*
X92754351Y-75243630D01*
X92770797Y-75907064D01*
X92824067Y-76709700D01*
X92828204Y-76761618D01*
X92893655Y-77577236D01*
X93231083Y-77581893D01*
X93442989Y-77606294D01*
X93644453Y-77689749D01*
X93885576Y-77857315D01*
X94049423Y-77991186D01*
X94400660Y-78288570D01*
X94645939Y-78503843D01*
X94809874Y-78662710D01*
X94917079Y-78790878D01*
X94992167Y-78914054D01*
X95050154Y-79036334D01*
X95138962Y-79219991D01*
X95195155Y-79264519D01*
X95250204Y-79187528D01*
X95265030Y-79156577D01*
X95395988Y-78988792D01*
X95590023Y-78837334D01*
X95775903Y-78687944D01*
X95885055Y-78528137D01*
X95885554Y-78526590D01*
X96002101Y-78395394D01*
X96194789Y-78361744D01*
X96397967Y-78430620D01*
X96462418Y-78482847D01*
X96551505Y-78633169D01*
X96644168Y-78882524D01*
X96690900Y-79054347D01*
X96893764Y-79708406D01*
X97166925Y-80213258D01*
X97520295Y-80577895D01*
X97963787Y-80811312D01*
X98507314Y-80922500D01*
X98763667Y-80934872D01*
X99327007Y-80922680D01*
X99758826Y-80866715D01*
X100093147Y-80758837D01*
X100363990Y-80590908D01*
X100427790Y-80536782D01*
X100613752Y-80341485D01*
X100828223Y-80073576D01*
X101044157Y-79772815D01*
X101234507Y-79478959D01*
X101372228Y-79231764D01*
X101430274Y-79070989D01*
X101430667Y-79062562D01*
X101485951Y-78871821D01*
X101617944Y-78679492D01*
X101775856Y-78549763D01*
X101853371Y-78528334D01*
X101979904Y-78552741D01*
X102083213Y-78644016D01*
X102178795Y-78829235D01*
X102282148Y-79135475D01*
X102362227Y-79417334D01*
X102464348Y-79765423D01*
X102567541Y-80075784D01*
X102652536Y-80291272D01*
X102666415Y-80319397D01*
X102778410Y-80666839D01*
X102744297Y-80968690D01*
X102585517Y-81203866D01*
X102323515Y-81351280D01*
X101979731Y-81389845D01*
X101645469Y-81323368D01*
X101387318Y-81266579D01*
X101129105Y-81288887D01*
X100959742Y-81333025D01*
X100743845Y-81415247D01*
X100623061Y-81497821D01*
X100612922Y-81531558D01*
X100657083Y-81584363D01*
X100765067Y-81605576D01*
X100973010Y-81597210D01*
X101261334Y-81567665D01*
X101557667Y-81534000D01*
X101549794Y-81901492D01*
X101551535Y-82129021D01*
X101589852Y-82229438D01*
X101694771Y-82244835D01*
X101786355Y-82233109D01*
X101975168Y-82228914D01*
X102074392Y-82267783D01*
X102186144Y-82327980D01*
X102273272Y-82338334D01*
X102428843Y-82399027D01*
X102477285Y-82465333D01*
X102590436Y-82577964D01*
X102655677Y-82592334D01*
X102771009Y-82640159D01*
X102768640Y-82757428D01*
X102660663Y-82904826D01*
X102528803Y-83004828D01*
X102415576Y-83063458D01*
X102281604Y-83103866D01*
X102097755Y-83128193D01*
X101834900Y-83138581D01*
X101463907Y-83137171D01*
X100955646Y-83126103D01*
X100898970Y-83124622D01*
X100422164Y-83113107D01*
X99995512Y-83104780D01*
X99651954Y-83100130D01*
X99424431Y-83099649D01*
X99356334Y-83101640D01*
X99126254Y-83118848D01*
X99028812Y-83125745D01*
X98882476Y-83208931D01*
X98751427Y-83395439D01*
X98668633Y-83620184D01*
X98667060Y-83818080D01*
X98671544Y-83831098D01*
X98733258Y-83929116D01*
X98799118Y-83873470D01*
X98924049Y-83751763D01*
X99069730Y-83660079D01*
X99245806Y-83603954D01*
X99424272Y-83647360D01*
X99525667Y-83699700D01*
X99715665Y-83779095D01*
X99986175Y-83860996D01*
X100288441Y-83934697D01*
X100573708Y-83989491D01*
X100793222Y-84014673D01*
X100897043Y-84000846D01*
X100907560Y-83904705D01*
X100821421Y-83819979D01*
X100708627Y-83809195D01*
X100573881Y-83799754D01*
X100471316Y-83706702D01*
X100446029Y-83589287D01*
X100493854Y-83527053D01*
X100682172Y-83472751D01*
X100956697Y-83456379D01*
X101238803Y-83477094D01*
X101449864Y-83534053D01*
X101456283Y-83537376D01*
X101676781Y-83618515D01*
X101828133Y-83648287D01*
X102052739Y-83715553D01*
X102162409Y-83827772D01*
X102152875Y-83942993D01*
X102019873Y-84019268D01*
X101866771Y-84028196D01*
X101513654Y-84018746D01*
X101290000Y-84042080D01*
X101212287Y-84095956D01*
X101219000Y-84116334D01*
X101198895Y-84188063D01*
X101134334Y-84201000D01*
X101042886Y-84240824D01*
X101049667Y-84285667D01*
X101163114Y-84344332D01*
X101364837Y-84369041D01*
X101372164Y-84369037D01*
X101540227Y-84356973D01*
X101556072Y-84316931D01*
X101515334Y-84285667D01*
X101448202Y-84223686D01*
X101532055Y-84203185D01*
X101576177Y-84202297D01*
X101711796Y-84232723D01*
X101713951Y-84346240D01*
X101712953Y-84349167D01*
X101689885Y-84439334D01*
X101739778Y-84395948D01*
X101788033Y-84335410D01*
X101937041Y-84229281D01*
X102079560Y-84241385D01*
X102156665Y-84356799D01*
X102155984Y-84428596D01*
X102074521Y-84547326D01*
X101951040Y-84555512D01*
X101799912Y-84580453D01*
X101769334Y-84661345D01*
X101697646Y-84770041D01*
X101585501Y-84793667D01*
X101378362Y-84849285D01*
X101244833Y-84935600D01*
X101101717Y-85025934D01*
X100991389Y-84980885D01*
X100988400Y-84977933D01*
X100813020Y-84878485D01*
X100647629Y-84892106D01*
X100543551Y-84996947D01*
X100549577Y-85164750D01*
X100658102Y-85279251D01*
X100876342Y-85417360D01*
X101151863Y-85553897D01*
X101432227Y-85663681D01*
X101664999Y-85721533D01*
X101716246Y-85725000D01*
X102068871Y-85778778D01*
X102308610Y-85924715D01*
X102419925Y-86139719D01*
X102387275Y-86400694D01*
X102288222Y-86575048D01*
X102168041Y-86754532D01*
X102108763Y-86876239D01*
X102107465Y-86885738D01*
X102040848Y-86968442D01*
X101878637Y-87082244D01*
X101853465Y-87096896D01*
X101681472Y-87172405D01*
X101601550Y-87160436D01*
X101600000Y-87150521D01*
X101533263Y-87094975D01*
X101437002Y-87102542D01*
X101318071Y-87104168D01*
X101317700Y-87006584D01*
X101296987Y-86979434D01*
X101195405Y-87065179D01*
X101115019Y-87153002D01*
X100923409Y-87340861D01*
X100729472Y-87423193D01*
X100493488Y-87440585D01*
X100207016Y-87432463D01*
X99957252Y-87409062D01*
X99906667Y-87400480D01*
X99664821Y-87324561D01*
X99403353Y-87202539D01*
X99170310Y-87062325D01*
X99013739Y-86931829D01*
X98975334Y-86859452D01*
X98904669Y-86763892D01*
X98803343Y-86741000D01*
X98640538Y-86685829D01*
X98582618Y-86614000D01*
X98457449Y-86517779D01*
X98209272Y-86487000D01*
X97984443Y-86463554D01*
X97838867Y-86405551D01*
X97824249Y-86389252D01*
X97814270Y-86331315D01*
X97861585Y-86351915D01*
X97948590Y-86355318D01*
X97959334Y-86320006D01*
X97890568Y-86216787D01*
X97811167Y-86173019D01*
X97652656Y-86080373D01*
X97603026Y-86028217D01*
X97511745Y-85987675D01*
X97445559Y-86035575D01*
X97425180Y-86119450D01*
X97500613Y-86258216D01*
X97685810Y-86473493D01*
X97813865Y-86606367D01*
X98050701Y-86831170D01*
X98256321Y-86998142D01*
X98392782Y-87077094D01*
X98408777Y-87079667D01*
X98540070Y-87126028D01*
X98566112Y-87163052D01*
X98658065Y-87221239D01*
X98868547Y-87288287D01*
X99102334Y-87339866D01*
X99405033Y-87401503D01*
X99659929Y-87463803D01*
X99779667Y-87501525D01*
X100259846Y-87680293D01*
X100652278Y-87796452D01*
X100927540Y-87841404D01*
X100943792Y-87841667D01*
X101160397Y-87874996D01*
X101404061Y-87958202D01*
X101619486Y-88066116D01*
X101751374Y-88173568D01*
X101768776Y-88217181D01*
X101725104Y-88344387D01*
X101619586Y-88532560D01*
X101608409Y-88549732D01*
X101517507Y-88757513D01*
X101458512Y-89027251D01*
X101433272Y-89311968D01*
X101443637Y-89564685D01*
X101491458Y-89738422D01*
X101559617Y-89789000D01*
X101660639Y-89816455D01*
X101670071Y-89918751D01*
X101587492Y-90125783D01*
X101553901Y-90194444D01*
X101473410Y-90400039D01*
X101488959Y-90550291D01*
X101531934Y-90630785D01*
X101659790Y-90782718D01*
X101764999Y-90775957D01*
X101817254Y-90711294D01*
X101893687Y-90672651D01*
X101947954Y-90732461D01*
X102002577Y-90773682D01*
X102022904Y-90657545D01*
X102023334Y-90635667D01*
X102037208Y-90499350D01*
X102084248Y-90515619D01*
X102109297Y-90551000D01*
X102189226Y-90635376D01*
X102267330Y-90569695D01*
X102280475Y-90551000D01*
X102328082Y-90523108D01*
X102332777Y-90622666D01*
X102301233Y-90815216D01*
X102240121Y-91066296D01*
X102156114Y-91341447D01*
X102094514Y-91511443D01*
X101982052Y-91761820D01*
X101863625Y-91967697D01*
X101761094Y-92098787D01*
X101696321Y-92124805D01*
X101694411Y-92117334D01*
X101515334Y-92117334D01*
X101473000Y-92159667D01*
X101430667Y-92117334D01*
X101473000Y-92075000D01*
X101515334Y-92117334D01*
X101694411Y-92117334D01*
X101684667Y-92079233D01*
X101615433Y-91982331D01*
X101452995Y-91882685D01*
X101234169Y-91761971D01*
X101086507Y-91651667D01*
X100801124Y-91397597D01*
X100571265Y-91221834D01*
X100424770Y-91145305D01*
X100410650Y-91143667D01*
X100250346Y-91098027D01*
X100006860Y-90980561D01*
X99732917Y-90820449D01*
X99481244Y-90646874D01*
X99409973Y-90589854D01*
X99219663Y-90440455D01*
X99135065Y-90397053D01*
X99144738Y-90443379D01*
X99237239Y-90563167D01*
X99401125Y-90740149D01*
X99624955Y-90958056D01*
X99747804Y-91070159D01*
X100054277Y-91344347D01*
X100352170Y-91611227D01*
X100592058Y-91826505D01*
X100657971Y-91885789D01*
X100894511Y-92076606D01*
X101125995Y-92229299D01*
X101197834Y-92266290D01*
X101362433Y-92356250D01*
X101430667Y-92426052D01*
X101501629Y-92488983D01*
X101674057Y-92566509D01*
X101690044Y-92572188D01*
X101865372Y-92619828D01*
X101965664Y-92578702D01*
X102052012Y-92416635D01*
X102071044Y-92371523D01*
X102151974Y-92148408D01*
X102191806Y-91980881D01*
X102192667Y-91965113D01*
X102228415Y-91844052D01*
X102324757Y-91610239D01*
X102465344Y-91301763D01*
X102574471Y-91075680D01*
X102746702Y-90720940D01*
X102854870Y-90467555D01*
X102910751Y-90265479D01*
X102926117Y-90064665D01*
X102912745Y-89815066D01*
X102901551Y-89685453D01*
X102864364Y-89360302D01*
X102818379Y-89088408D01*
X102773226Y-88926140D01*
X102771043Y-88921681D01*
X102740774Y-88750634D01*
X102745569Y-88466718D01*
X102778643Y-88121142D01*
X102833210Y-87765117D01*
X102902484Y-87449853D01*
X102979679Y-87226560D01*
X103000601Y-87189289D01*
X103123732Y-86989496D01*
X103275578Y-86727953D01*
X103329463Y-86631683D01*
X103749742Y-85864824D01*
X104092008Y-85222760D01*
X104365057Y-84684895D01*
X104577682Y-84230634D01*
X104738678Y-83839383D01*
X104856842Y-83490546D01*
X104940966Y-83163527D01*
X104999847Y-82837733D01*
X105022909Y-82666070D01*
X105095784Y-82306645D01*
X105220495Y-82066929D01*
X105281483Y-82001093D01*
X105422926Y-81803590D01*
X105544626Y-81526383D01*
X105579359Y-81406893D01*
X105658827Y-81151065D01*
X105685959Y-81110667D01*
X104648000Y-81110667D01*
X104605667Y-81153000D01*
X104563334Y-81110667D01*
X104605667Y-81068334D01*
X104648000Y-81110667D01*
X105685959Y-81110667D01*
X105778071Y-80973522D01*
X105985958Y-80810443D01*
X106083822Y-80748003D01*
X106291617Y-80607076D01*
X106439733Y-80462828D01*
X106560888Y-80269553D01*
X106687801Y-79981544D01*
X106754799Y-79810697D01*
X106874846Y-79486509D01*
X106966318Y-79214939D01*
X107014640Y-79040241D01*
X107018667Y-79009435D01*
X107065564Y-78877147D01*
X107185151Y-78669785D01*
X107272667Y-78541770D01*
X107475446Y-78169663D01*
X107526667Y-77895680D01*
X107525739Y-77886278D01*
X96174650Y-77886278D01*
X96159083Y-77996092D01*
X96130181Y-77997403D01*
X96111620Y-77893334D01*
X95165334Y-77893334D01*
X95123000Y-77935667D01*
X95080667Y-77893334D01*
X95123000Y-77851000D01*
X95165334Y-77893334D01*
X96111620Y-77893334D01*
X96109970Y-77884086D01*
X96123497Y-77835125D01*
X96161092Y-77803055D01*
X96174650Y-77886278D01*
X107525739Y-77886278D01*
X107506154Y-77687962D01*
X107417680Y-77586829D01*
X107293834Y-77547098D01*
X106843918Y-77441039D01*
X106537227Y-77358759D01*
X106350739Y-77291845D01*
X106261434Y-77231887D01*
X106246291Y-77170470D01*
X106247713Y-77164817D01*
X106289024Y-77020517D01*
X106359002Y-76777760D01*
X106410773Y-76598715D01*
X106463011Y-76383458D01*
X104643000Y-76383458D01*
X104616590Y-76512375D01*
X104540420Y-76616009D01*
X104207405Y-76836815D01*
X103816062Y-76919622D01*
X103806900Y-76919667D01*
X103626095Y-76938476D01*
X103547443Y-76983924D01*
X103547334Y-76985849D01*
X103473815Y-77046521D01*
X103287217Y-77125401D01*
X103166334Y-77164528D01*
X102941988Y-77244111D01*
X102805076Y-77318397D01*
X102785334Y-77346137D01*
X102739706Y-77412485D01*
X102589104Y-77458253D01*
X102312949Y-77486820D01*
X101890665Y-77501565D01*
X101832834Y-77502512D01*
X101471872Y-77496700D01*
X101247882Y-77467893D01*
X101176667Y-77421961D01*
X101110967Y-77369947D01*
X101011341Y-77384062D01*
X100888542Y-77394157D01*
X100875389Y-77284926D01*
X100878375Y-77268503D01*
X100871769Y-77163390D01*
X100778721Y-77089834D01*
X100563694Y-77024671D01*
X100472201Y-77003763D01*
X100093526Y-76930482D01*
X99648935Y-76859773D01*
X99195864Y-76799276D01*
X98791749Y-76756635D01*
X98494026Y-76739491D01*
X98485616Y-76739445D01*
X98197481Y-76805189D01*
X98062283Y-76914098D01*
X97896193Y-77036843D01*
X97606065Y-77144067D01*
X97175928Y-77240478D01*
X96697815Y-77316120D01*
X96472221Y-77339319D01*
X96382163Y-77320158D01*
X96397646Y-77251958D01*
X96399101Y-77249608D01*
X96474755Y-77076998D01*
X96536864Y-76847368D01*
X96578795Y-76607376D01*
X96593915Y-76403681D01*
X96575590Y-76282940D01*
X96537853Y-76273634D01*
X96491123Y-76253188D01*
X96498414Y-76134833D01*
X96548289Y-75976830D01*
X96621591Y-75847001D01*
X96634608Y-75730512D01*
X96572468Y-75677346D01*
X96529556Y-75627866D01*
X96496116Y-75519935D01*
X96470538Y-75333423D01*
X96451212Y-75048199D01*
X96436529Y-74644133D01*
X96424880Y-74101096D01*
X96419606Y-73765423D01*
X96413687Y-73227262D01*
X96411999Y-72750673D01*
X96414335Y-72360045D01*
X96420486Y-72079766D01*
X96430245Y-71934223D01*
X96435334Y-71919144D01*
X96537559Y-71908566D01*
X96749290Y-71887373D01*
X96881101Y-71874322D01*
X97176358Y-71831886D01*
X97437190Y-71772756D01*
X97506677Y-71750054D01*
X97690096Y-71705681D01*
X97785939Y-71726889D01*
X97761806Y-71798337D01*
X97702882Y-71842974D01*
X97639268Y-71902719D01*
X97728023Y-71922385D01*
X97763837Y-71923037D01*
X97934683Y-71958730D01*
X98001667Y-72009000D01*
X97981562Y-72080729D01*
X97917000Y-72093667D01*
X97827205Y-72135891D01*
X97835901Y-72184106D01*
X97951453Y-72239406D01*
X98012152Y-72228359D01*
X98154225Y-72248615D01*
X98301442Y-72351108D01*
X98508692Y-72499242D01*
X98831493Y-72636845D01*
X99287989Y-72770283D01*
X99864334Y-72899459D01*
X100464254Y-73033769D01*
X100908409Y-73162679D01*
X101210089Y-73290462D01*
X101331614Y-73371166D01*
X101476050Y-73466736D01*
X101722258Y-73606263D01*
X102019128Y-73760899D01*
X102044171Y-73773374D01*
X102382955Y-73960847D01*
X102645638Y-74163991D01*
X102894433Y-74435831D01*
X103037544Y-74620040D01*
X103254330Y-74918788D01*
X103444630Y-75199124D01*
X103573221Y-75408772D01*
X103588627Y-75438000D01*
X103756134Y-75735118D01*
X103912210Y-75903757D01*
X104097127Y-75976685D01*
X104265042Y-75988334D01*
X104470790Y-76000219D01*
X104547739Y-76052296D01*
X104538802Y-76157667D01*
X104534053Y-76292675D01*
X104571260Y-76327000D01*
X104643000Y-76383458D01*
X106463011Y-76383458D01*
X106464605Y-76376892D01*
X106494713Y-76141585D01*
X106502333Y-75852975D01*
X106488706Y-75471246D01*
X106459814Y-75022371D01*
X106425222Y-74562130D01*
X106391751Y-74230731D01*
X106349508Y-73988040D01*
X106288601Y-73793925D01*
X106199136Y-73608251D01*
X106071221Y-73390886D01*
X106048466Y-73353656D01*
X105394312Y-72390000D01*
X98636667Y-72390000D01*
X98594334Y-72432334D01*
X98552000Y-72390000D01*
X98594334Y-72347667D01*
X98636667Y-72390000D01*
X105394312Y-72390000D01*
X105319947Y-72280451D01*
X104976626Y-71863936D01*
X100485686Y-71863936D01*
X100465085Y-71911252D01*
X100379835Y-72002145D01*
X100330825Y-71983500D01*
X100330000Y-71971664D01*
X100390137Y-71900051D01*
X100427749Y-71873915D01*
X100485686Y-71863936D01*
X104976626Y-71863936D01*
X104796297Y-71645163D01*
X100531137Y-71645163D01*
X100414667Y-71656965D01*
X100294472Y-71643660D01*
X100308834Y-71614260D01*
X100482176Y-71603078D01*
X100520500Y-71614260D01*
X100531137Y-71645163D01*
X104796297Y-71645163D01*
X104630941Y-71444556D01*
X101487112Y-71444556D01*
X101475489Y-71494890D01*
X101430667Y-71501000D01*
X101360977Y-71470022D01*
X101374223Y-71444556D01*
X101474702Y-71434423D01*
X101487112Y-71444556D01*
X104630941Y-71444556D01*
X104574083Y-71375576D01*
X101125143Y-71375576D01*
X101103875Y-71397278D01*
X100929153Y-71407130D01*
X100901500Y-71407894D01*
X100697542Y-71393408D01*
X100589289Y-71346911D01*
X100584000Y-71331667D01*
X100636668Y-71263889D01*
X100807084Y-71275720D01*
X101007334Y-71331667D01*
X101125143Y-71375576D01*
X104574083Y-71375576D01*
X104522975Y-71313574D01*
X101782486Y-71313574D01*
X101672678Y-71304536D01*
X101478056Y-71251791D01*
X101346000Y-71204667D01*
X101182220Y-71129213D01*
X101178383Y-71091669D01*
X101219000Y-71087927D01*
X101415507Y-71120859D01*
X101642334Y-71201609D01*
X101781149Y-71279174D01*
X101782486Y-71313574D01*
X104522975Y-71313574D01*
X104509443Y-71297158D01*
X104238157Y-71009026D01*
X103965167Y-70738623D01*
X103832254Y-70623652D01*
X101217085Y-70623652D01*
X101176667Y-70654334D01*
X101083259Y-70710658D01*
X100998329Y-70727760D01*
X100868628Y-70701562D01*
X100640909Y-70627982D01*
X100584000Y-70608922D01*
X100380410Y-70537580D01*
X100331612Y-70509012D01*
X100430348Y-70516864D01*
X100488750Y-70525540D01*
X100780774Y-70558102D01*
X101039084Y-70570963D01*
X101204172Y-70583111D01*
X101217085Y-70623652D01*
X103832254Y-70623652D01*
X103722314Y-70528554D01*
X103466184Y-70349438D01*
X103431820Y-70329934D01*
X101922209Y-70329934D01*
X101899604Y-70371155D01*
X101811667Y-70408926D01*
X101591067Y-70445948D01*
X101473000Y-70432981D01*
X101281286Y-70384089D01*
X101022209Y-70319242D01*
X100965000Y-70305061D01*
X100731427Y-70233553D01*
X100568926Y-70159192D01*
X100545900Y-70141478D01*
X100487563Y-70114611D01*
X99579750Y-70114611D01*
X99467293Y-70129269D01*
X99441000Y-70129828D01*
X99296405Y-70120676D01*
X99283674Y-70094172D01*
X99291222Y-70090798D01*
X99459302Y-70074049D01*
X99545222Y-70087660D01*
X99579750Y-70114611D01*
X100487563Y-70114611D01*
X100405122Y-70076643D01*
X100249567Y-70052600D01*
X100164801Y-70036420D01*
X100242614Y-70000497D01*
X100396985Y-69962261D01*
X100704387Y-69924126D01*
X100992118Y-69974103D01*
X101131312Y-70022680D01*
X101373351Y-70094397D01*
X101558480Y-70112683D01*
X101606576Y-70099936D01*
X101671581Y-70083652D01*
X101654186Y-70127156D01*
X101677727Y-70218512D01*
X101789271Y-70279765D01*
X101922209Y-70329934D01*
X103431820Y-70329934D01*
X103153361Y-70171893D01*
X102740430Y-69966535D01*
X102596238Y-69897812D01*
X101948517Y-69606789D01*
X101921414Y-69596000D01*
X99314000Y-69596000D01*
X99271667Y-69638334D01*
X99229334Y-69596000D01*
X99271667Y-69553667D01*
X99314000Y-69596000D01*
X101921414Y-69596000D01*
X101346967Y-69367330D01*
X100817289Y-69188223D01*
X100385184Y-69078260D01*
X100104631Y-69045667D01*
X99836241Y-69021094D01*
X99609775Y-68973952D01*
X99342133Y-68942103D01*
X98961387Y-68952891D01*
G36*
X86901350Y-92498378D02*
X86783334Y-92553357D01*
X86584521Y-92669517D01*
X86544202Y-92734637D01*
X86657509Y-92742249D01*
X86889167Y-92693971D01*
X87014969Y-92606993D01*
X87037334Y-92540948D01*
X87009856Y-92476023D01*
X86901350Y-92498378D01*
X86901350Y-92498378D01*
G37*
X86901350Y-92498378D02*
X86783334Y-92553357D01*
X86584521Y-92669517D01*
X86544202Y-92734637D01*
X86657509Y-92742249D01*
X86889167Y-92693971D01*
X87014969Y-92606993D01*
X87037334Y-92540948D01*
X87009856Y-92476023D01*
X86901350Y-92498378D01*
G36*
X87312046Y-92254271D02*
X87306705Y-92257949D01*
X87193247Y-92394062D01*
X87215383Y-92561834D01*
X87302120Y-92701090D01*
X87399854Y-92755470D01*
X87458143Y-92702181D01*
X87460667Y-92672664D01*
X87399050Y-92558203D01*
X87374619Y-92539813D01*
X87317945Y-92451372D01*
X87381874Y-92378732D01*
X87519944Y-92365320D01*
X87552459Y-92373595D01*
X87684467Y-92377995D01*
X87714667Y-92332048D01*
X87648673Y-92218643D01*
X87493207Y-92188856D01*
X87312046Y-92254271D01*
X87312046Y-92254271D01*
G37*
X87312046Y-92254271D02*
X87306705Y-92257949D01*
X87193247Y-92394062D01*
X87215383Y-92561834D01*
X87302120Y-92701090D01*
X87399854Y-92755470D01*
X87458143Y-92702181D01*
X87460667Y-92672664D01*
X87399050Y-92558203D01*
X87374619Y-92539813D01*
X87317945Y-92451372D01*
X87381874Y-92378732D01*
X87519944Y-92365320D01*
X87552459Y-92373595D01*
X87684467Y-92377995D01*
X87714667Y-92332048D01*
X87648673Y-92218643D01*
X87493207Y-92188856D01*
X87312046Y-92254271D01*
G36*
X87566532Y-92886229D02*
X87564737Y-92937542D01*
X87649009Y-93049350D01*
X87750463Y-93063566D01*
X87799334Y-92971056D01*
X87731164Y-92854424D01*
X87665278Y-92837000D01*
X87566532Y-92886229D01*
X87566532Y-92886229D01*
G37*
X87566532Y-92886229D02*
X87564737Y-92937542D01*
X87649009Y-93049350D01*
X87750463Y-93063566D01*
X87799334Y-92971056D01*
X87731164Y-92854424D01*
X87665278Y-92837000D01*
X87566532Y-92886229D01*
G36*
X101798104Y-93058499D02*
X101811667Y-93091000D01*
X101923826Y-93172506D01*
X101948661Y-93175667D01*
X101994564Y-93123501D01*
X101981000Y-93091000D01*
X101868841Y-93009494D01*
X101844007Y-93006334D01*
X101798104Y-93058499D01*
X101798104Y-93058499D01*
G37*
X101798104Y-93058499D02*
X101811667Y-93091000D01*
X101923826Y-93172506D01*
X101948661Y-93175667D01*
X101994564Y-93123501D01*
X101981000Y-93091000D01*
X101868841Y-93009494D01*
X101844007Y-93006334D01*
X101798104Y-93058499D01*
G36*
X86698667Y-93133334D02*
X86617897Y-93209416D01*
X86614000Y-93222997D01*
X86679506Y-93259363D01*
X86698667Y-93260334D01*
X86780080Y-93195246D01*
X86783334Y-93170670D01*
X86731464Y-93120104D01*
X86698667Y-93133334D01*
X86698667Y-93133334D01*
G37*
X86698667Y-93133334D02*
X86617897Y-93209416D01*
X86614000Y-93222997D01*
X86679506Y-93259363D01*
X86698667Y-93260334D01*
X86780080Y-93195246D01*
X86783334Y-93170670D01*
X86731464Y-93120104D01*
X86698667Y-93133334D01*
G36*
X86416316Y-92850716D02*
X86319246Y-92894841D01*
X86326560Y-92936055D01*
X86330661Y-92999655D01*
X86247093Y-92981124D01*
X86086374Y-92987186D01*
X85864610Y-93071891D01*
X85809871Y-93102099D01*
X85590476Y-93246247D01*
X85513783Y-93329138D01*
X85579804Y-93341062D01*
X85788552Y-93272312D01*
X85809667Y-93263754D01*
X86020708Y-93226677D01*
X86215614Y-93238711D01*
X86389175Y-93247101D01*
X86427971Y-93176196D01*
X86427280Y-93172977D01*
X86483623Y-93079167D01*
X86668353Y-93005152D01*
X86681797Y-93002119D01*
X86925544Y-92935884D01*
X87000812Y-92883154D01*
X86908068Y-92848635D01*
X86665448Y-92837000D01*
X86416316Y-92850716D01*
X86416316Y-92850716D01*
G37*
X86416316Y-92850716D02*
X86319246Y-92894841D01*
X86326560Y-92936055D01*
X86330661Y-92999655D01*
X86247093Y-92981124D01*
X86086374Y-92987186D01*
X85864610Y-93071891D01*
X85809871Y-93102099D01*
X85590476Y-93246247D01*
X85513783Y-93329138D01*
X85579804Y-93341062D01*
X85788552Y-93272312D01*
X85809667Y-93263754D01*
X86020708Y-93226677D01*
X86215614Y-93238711D01*
X86389175Y-93247101D01*
X86427971Y-93176196D01*
X86427280Y-93172977D01*
X86483623Y-93079167D01*
X86668353Y-93005152D01*
X86681797Y-93002119D01*
X86925544Y-92935884D01*
X87000812Y-92883154D01*
X86908068Y-92848635D01*
X86665448Y-92837000D01*
X86416316Y-92850716D01*
G36*
X102558960Y-92950485D02*
X102560947Y-93048491D01*
X102606709Y-93122138D01*
X102738117Y-93225995D01*
X102894707Y-93289281D01*
X103013015Y-93292601D01*
X103039334Y-93254359D01*
X102976972Y-93157796D01*
X102833593Y-93046471D01*
X102674758Y-92961856D01*
X102566025Y-92945422D01*
X102558960Y-92950485D01*
X102558960Y-92950485D01*
G37*
X102558960Y-92950485D02*
X102560947Y-93048491D01*
X102606709Y-93122138D01*
X102738117Y-93225995D01*
X102894707Y-93289281D01*
X103013015Y-93292601D01*
X103039334Y-93254359D01*
X102976972Y-93157796D01*
X102833593Y-93046471D01*
X102674758Y-92961856D01*
X102566025Y-92945422D01*
X102558960Y-92950485D01*
G36*
X86614000Y-93472000D02*
X86656334Y-93514334D01*
X86698667Y-93472000D01*
X86656334Y-93429667D01*
X86614000Y-93472000D01*
X86614000Y-93472000D01*
G37*
X86614000Y-93472000D02*
X86656334Y-93514334D01*
X86698667Y-93472000D01*
X86656334Y-93429667D01*
X86614000Y-93472000D01*
G36*
X86952667Y-93472000D02*
X86995000Y-93514334D01*
X87037334Y-93472000D01*
X86995000Y-93429667D01*
X86952667Y-93472000D01*
X86952667Y-93472000D01*
G37*
X86952667Y-93472000D02*
X86995000Y-93514334D01*
X87037334Y-93472000D01*
X86995000Y-93429667D01*
X86952667Y-93472000D01*
G36*
X103208667Y-93641334D02*
X103251000Y-93683667D01*
X103293334Y-93641334D01*
X103251000Y-93599000D01*
X103208667Y-93641334D01*
X103208667Y-93641334D01*
G37*
X103208667Y-93641334D02*
X103251000Y-93683667D01*
X103293334Y-93641334D01*
X103251000Y-93599000D01*
X103208667Y-93641334D01*
G36*
X86698667Y-93726000D02*
X86741000Y-93768334D01*
X86783334Y-93726000D01*
X86741000Y-93683667D01*
X86698667Y-93726000D01*
X86698667Y-93726000D01*
G37*
X86698667Y-93726000D02*
X86741000Y-93768334D01*
X86783334Y-93726000D01*
X86741000Y-93683667D01*
X86698667Y-93726000D01*
G36*
X85821501Y-93458452D02*
X85817910Y-93527670D01*
X85815137Y-93591720D01*
X85695907Y-93577930D01*
X85553274Y-93574025D01*
X85513355Y-93686884D01*
X85513334Y-93691593D01*
X85522540Y-93820811D01*
X85534500Y-93844357D01*
X85620825Y-93815364D01*
X85803142Y-93756179D01*
X85825936Y-93748847D01*
X86038362Y-93650845D01*
X86140804Y-93545433D01*
X86119895Y-93461949D01*
X85971346Y-93429667D01*
X85821501Y-93458452D01*
X85821501Y-93458452D01*
G37*
X85821501Y-93458452D02*
X85817910Y-93527670D01*
X85815137Y-93591720D01*
X85695907Y-93577930D01*
X85553274Y-93574025D01*
X85513355Y-93686884D01*
X85513334Y-93691593D01*
X85522540Y-93820811D01*
X85534500Y-93844357D01*
X85620825Y-93815364D01*
X85803142Y-93756179D01*
X85825936Y-93748847D01*
X86038362Y-93650845D01*
X86140804Y-93545433D01*
X86119895Y-93461949D01*
X85971346Y-93429667D01*
X85821501Y-93458452D01*
G36*
X86979230Y-93738357D02*
X86995000Y-93768334D01*
X87074775Y-93849190D01*
X87089661Y-93853000D01*
X87095437Y-93798310D01*
X87079667Y-93768334D01*
X86999893Y-93687477D01*
X86985007Y-93683667D01*
X86979230Y-93738357D01*
X86979230Y-93738357D01*
G37*
X86979230Y-93738357D02*
X86995000Y-93768334D01*
X87074775Y-93849190D01*
X87089661Y-93853000D01*
X87095437Y-93798310D01*
X87079667Y-93768334D01*
X86999893Y-93687477D01*
X86985007Y-93683667D01*
X86979230Y-93738357D01*
G36*
X85370304Y-93620167D02*
X85357137Y-93834901D01*
X85370304Y-93916500D01*
X85394845Y-93942851D01*
X85408205Y-93825778D01*
X85409024Y-93768334D01*
X85400197Y-93614298D01*
X85378220Y-93596144D01*
X85370304Y-93620167D01*
X85370304Y-93620167D01*
G37*
X85370304Y-93620167D02*
X85357137Y-93834901D01*
X85370304Y-93916500D01*
X85394845Y-93942851D01*
X85408205Y-93825778D01*
X85409024Y-93768334D01*
X85400197Y-93614298D01*
X85378220Y-93596144D01*
X85370304Y-93620167D01*
G36*
X85541556Y-94304556D02*
X85553178Y-94354890D01*
X85598000Y-94361000D01*
X85667691Y-94330022D01*
X85654445Y-94304556D01*
X85553965Y-94294423D01*
X85541556Y-94304556D01*
X85541556Y-94304556D01*
G37*
X85541556Y-94304556D02*
X85553178Y-94354890D01*
X85598000Y-94361000D01*
X85667691Y-94330022D01*
X85654445Y-94304556D01*
X85553965Y-94294423D01*
X85541556Y-94304556D01*
G36*
X85344697Y-94478890D02*
X85344000Y-94519967D01*
X85394557Y-94665951D01*
X85471000Y-94699667D01*
X85583751Y-94659459D01*
X85598000Y-94625367D01*
X85540075Y-94515025D01*
X85471000Y-94445667D01*
X85373687Y-94391133D01*
X85344697Y-94478890D01*
X85344697Y-94478890D01*
G37*
X85344697Y-94478890D02*
X85344000Y-94519967D01*
X85394557Y-94665951D01*
X85471000Y-94699667D01*
X85583751Y-94659459D01*
X85598000Y-94625367D01*
X85540075Y-94515025D01*
X85471000Y-94445667D01*
X85373687Y-94391133D01*
X85344697Y-94478890D01*
G36*
X85541556Y-95151222D02*
X85553178Y-95201557D01*
X85598000Y-95207667D01*
X85667691Y-95176689D01*
X85654445Y-95151222D01*
X85553965Y-95141089D01*
X85541556Y-95151222D01*
X85541556Y-95151222D01*
G37*
X85541556Y-95151222D02*
X85553178Y-95201557D01*
X85598000Y-95207667D01*
X85667691Y-95176689D01*
X85654445Y-95151222D01*
X85553965Y-95141089D01*
X85541556Y-95151222D01*
G36*
X103467077Y-93892339D02*
X103462667Y-93932413D01*
X103481199Y-94053319D01*
X103530159Y-94294126D01*
X103599598Y-94610286D01*
X103679567Y-94957251D01*
X103760113Y-95290474D01*
X103807791Y-95477551D01*
X103944993Y-95763630D01*
X104141841Y-95915561D01*
X104318807Y-95988527D01*
X104388709Y-95968222D01*
X104394000Y-95934394D01*
X104365793Y-95799586D01*
X104291152Y-95549903D01*
X104185048Y-95228278D01*
X104062451Y-94877646D01*
X103938332Y-94540939D01*
X103827661Y-94261091D01*
X103752244Y-94093935D01*
X103636211Y-93925021D01*
X103529093Y-93851094D01*
X103467077Y-93892339D01*
X103467077Y-93892339D01*
G37*
X103467077Y-93892339D02*
X103462667Y-93932413D01*
X103481199Y-94053319D01*
X103530159Y-94294126D01*
X103599598Y-94610286D01*
X103679567Y-94957251D01*
X103760113Y-95290474D01*
X103807791Y-95477551D01*
X103944993Y-95763630D01*
X104141841Y-95915561D01*
X104318807Y-95988527D01*
X104388709Y-95968222D01*
X104394000Y-95934394D01*
X104365793Y-95799586D01*
X104291152Y-95549903D01*
X104185048Y-95228278D01*
X104062451Y-94877646D01*
X103938332Y-94540939D01*
X103827661Y-94261091D01*
X103752244Y-94093935D01*
X103636211Y-93925021D01*
X103529093Y-93851094D01*
X103467077Y-93892339D01*
G36*
X101415924Y-94228633D02*
X101309988Y-94412657D01*
X101187088Y-94677334D01*
X101177672Y-94699667D01*
X100947259Y-95250000D01*
X101141852Y-95631000D01*
X101320879Y-95947309D01*
X101499037Y-96204522D01*
X101654454Y-96376361D01*
X101765256Y-96436549D01*
X101796518Y-96417513D01*
X101805929Y-96290908D01*
X101769509Y-96065672D01*
X101731256Y-95916615D01*
X101608441Y-95358643D01*
X101584204Y-94834157D01*
X101587233Y-94771093D01*
X101623163Y-94610163D01*
X101725513Y-94580444D01*
X101758600Y-94587661D01*
X101901410Y-94659520D01*
X102140235Y-94814362D01*
X102441156Y-95026587D01*
X102770251Y-95270595D01*
X103093599Y-95520785D01*
X103377280Y-95751558D01*
X103587373Y-95937313D01*
X103681512Y-96038888D01*
X103822126Y-96178175D01*
X103935839Y-96223667D01*
X104008449Y-96173947D01*
X103964946Y-96040105D01*
X103820378Y-95845117D01*
X103589795Y-95611959D01*
X103462667Y-95501279D01*
X103256777Y-95340723D01*
X102973749Y-95134564D01*
X102646045Y-94904731D01*
X102306129Y-94673152D01*
X101986463Y-94461757D01*
X101719510Y-94292475D01*
X101537734Y-94187234D01*
X101482876Y-94163916D01*
X101415924Y-94228633D01*
X101415924Y-94228633D01*
G37*
X101415924Y-94228633D02*
X101309988Y-94412657D01*
X101187088Y-94677334D01*
X101177672Y-94699667D01*
X100947259Y-95250000D01*
X101141852Y-95631000D01*
X101320879Y-95947309D01*
X101499037Y-96204522D01*
X101654454Y-96376361D01*
X101765256Y-96436549D01*
X101796518Y-96417513D01*
X101805929Y-96290908D01*
X101769509Y-96065672D01*
X101731256Y-95916615D01*
X101608441Y-95358643D01*
X101584204Y-94834157D01*
X101587233Y-94771093D01*
X101623163Y-94610163D01*
X101725513Y-94580444D01*
X101758600Y-94587661D01*
X101901410Y-94659520D01*
X102140235Y-94814362D01*
X102441156Y-95026587D01*
X102770251Y-95270595D01*
X103093599Y-95520785D01*
X103377280Y-95751558D01*
X103587373Y-95937313D01*
X103681512Y-96038888D01*
X103822126Y-96178175D01*
X103935839Y-96223667D01*
X104008449Y-96173947D01*
X103964946Y-96040105D01*
X103820378Y-95845117D01*
X103589795Y-95611959D01*
X103462667Y-95501279D01*
X103256777Y-95340723D01*
X102973749Y-95134564D01*
X102646045Y-94904731D01*
X102306129Y-94673152D01*
X101986463Y-94461757D01*
X101719510Y-94292475D01*
X101537734Y-94187234D01*
X101482876Y-94163916D01*
X101415924Y-94228633D01*
G36*
X103646010Y-96382550D02*
X103599405Y-96446817D01*
X103707397Y-96500625D01*
X103730677Y-96507098D01*
X103939693Y-96553693D01*
X104033008Y-96536016D01*
X104055281Y-96444197D01*
X104055334Y-96435334D01*
X103989151Y-96334685D01*
X103831743Y-96314691D01*
X103646010Y-96382550D01*
X103646010Y-96382550D01*
G37*
X103646010Y-96382550D02*
X103599405Y-96446817D01*
X103707397Y-96500625D01*
X103730677Y-96507098D01*
X103939693Y-96553693D01*
X104033008Y-96536016D01*
X104055281Y-96444197D01*
X104055334Y-96435334D01*
X103989151Y-96334685D01*
X103831743Y-96314691D01*
X103646010Y-96382550D01*
G36*
X104012487Y-96811375D02*
X104020580Y-96996018D01*
X104023010Y-97010591D01*
X104085569Y-97285897D01*
X104155297Y-97509723D01*
X104201312Y-97702452D01*
X104189108Y-97821373D01*
X104196661Y-97934779D01*
X104223286Y-97958480D01*
X104296346Y-98079057D01*
X104309334Y-98171000D01*
X104346395Y-98331119D01*
X104427881Y-98382157D01*
X104509240Y-98297841D01*
X104512129Y-98290589D01*
X104558444Y-98073299D01*
X104533926Y-97808804D01*
X104432919Y-97453929D01*
X104384651Y-97317330D01*
X104263132Y-97031477D01*
X104149864Y-96842762D01*
X104060948Y-96764842D01*
X104012487Y-96811375D01*
X104012487Y-96811375D01*
G37*
X104012487Y-96811375D02*
X104020580Y-96996018D01*
X104023010Y-97010591D01*
X104085569Y-97285897D01*
X104155297Y-97509723D01*
X104201312Y-97702452D01*
X104189108Y-97821373D01*
X104196661Y-97934779D01*
X104223286Y-97958480D01*
X104296346Y-98079057D01*
X104309334Y-98171000D01*
X104346395Y-98331119D01*
X104427881Y-98382157D01*
X104509240Y-98297841D01*
X104512129Y-98290589D01*
X104558444Y-98073299D01*
X104533926Y-97808804D01*
X104432919Y-97453929D01*
X104384651Y-97317330D01*
X104263132Y-97031477D01*
X104149864Y-96842762D01*
X104060948Y-96764842D01*
X104012487Y-96811375D01*
G36*
X102977847Y-96472322D02*
X102810805Y-96673753D01*
X102624132Y-96969353D01*
X102453094Y-97300292D01*
X102305527Y-97566417D01*
X102099905Y-97879338D01*
X101942908Y-98091062D01*
X101732079Y-98384572D01*
X101616677Y-98605143D01*
X101604394Y-98734343D01*
X101663500Y-98760454D01*
X101744346Y-98695008D01*
X101881882Y-98531043D01*
X101977885Y-98400620D01*
X102143062Y-98158516D01*
X102344083Y-97853064D01*
X102561216Y-97515652D01*
X102774729Y-97177671D01*
X102964889Y-96870509D01*
X103111965Y-96625556D01*
X103196225Y-96474200D01*
X103208667Y-96442727D01*
X103141434Y-96398516D01*
X103102834Y-96396262D01*
X102977847Y-96472322D01*
X102977847Y-96472322D01*
G37*
X102977847Y-96472322D02*
X102810805Y-96673753D01*
X102624132Y-96969353D01*
X102453094Y-97300292D01*
X102305527Y-97566417D01*
X102099905Y-97879338D01*
X101942908Y-98091062D01*
X101732079Y-98384572D01*
X101616677Y-98605143D01*
X101604394Y-98734343D01*
X101663500Y-98760454D01*
X101744346Y-98695008D01*
X101881882Y-98531043D01*
X101977885Y-98400620D01*
X102143062Y-98158516D01*
X102344083Y-97853064D01*
X102561216Y-97515652D01*
X102774729Y-97177671D01*
X102964889Y-96870509D01*
X103111965Y-96625556D01*
X103196225Y-96474200D01*
X103208667Y-96442727D01*
X103141434Y-96398516D01*
X103102834Y-96396262D01*
X102977847Y-96472322D01*
G36*
X105082777Y-98811786D02*
X105076627Y-98817402D01*
X105009332Y-98968997D01*
X105010302Y-99113735D01*
X105041433Y-99214710D01*
X105059804Y-99172758D01*
X105098330Y-98968596D01*
X105126128Y-98876425D01*
X105147993Y-98774966D01*
X105082777Y-98811786D01*
X105082777Y-98811786D01*
G37*
X105082777Y-98811786D02*
X105076627Y-98817402D01*
X105009332Y-98968997D01*
X105010302Y-99113735D01*
X105041433Y-99214710D01*
X105059804Y-99172758D01*
X105098330Y-98968596D01*
X105126128Y-98876425D01*
X105147993Y-98774966D01*
X105082777Y-98811786D01*
G36*
X94335939Y-86938783D02*
X94176142Y-87121847D01*
X93987413Y-87381011D01*
X93830573Y-87625657D01*
X93475133Y-88195830D01*
X93182189Y-88627486D01*
X92940494Y-88934541D01*
X92738801Y-89130912D01*
X92565864Y-89230515D01*
X92524110Y-89242303D01*
X92240003Y-89354040D01*
X91890328Y-89567277D01*
X91521495Y-89853262D01*
X91282936Y-90050054D01*
X91019557Y-90254314D01*
X90769197Y-90438333D01*
X90569694Y-90574403D01*
X90458886Y-90634815D01*
X90453083Y-90635667D01*
X90348227Y-90679674D01*
X90151507Y-90793799D01*
X89957204Y-90919118D01*
X89664019Y-91096867D01*
X89368371Y-91246412D01*
X89216721Y-91306941D01*
X89028319Y-91389424D01*
X88943939Y-91468825D01*
X88946551Y-91489157D01*
X88911279Y-91545220D01*
X88767630Y-91567000D01*
X88615463Y-91580477D01*
X88606059Y-91639605D01*
X88648595Y-91697126D01*
X88801246Y-91800474D01*
X88891795Y-91814377D01*
X89194455Y-91807808D01*
X89359263Y-91865205D01*
X89408000Y-91990334D01*
X89352392Y-92130360D01*
X89274953Y-92159667D01*
X89101981Y-92215998D01*
X89033663Y-92267909D01*
X88968540Y-92380816D01*
X89036137Y-92479576D01*
X89177083Y-92569460D01*
X89235094Y-92583000D01*
X89301418Y-92655434D01*
X89323334Y-92794667D01*
X89277030Y-92967661D01*
X89187275Y-93006334D01*
X89090916Y-92953772D01*
X89098297Y-92883645D01*
X89094540Y-92797736D01*
X89022689Y-92808037D01*
X88918576Y-92790059D01*
X88900000Y-92712003D01*
X88851091Y-92607809D01*
X88794167Y-92604167D01*
X88697100Y-92708105D01*
X88688334Y-92758230D01*
X88627659Y-92867712D01*
X88501670Y-92905347D01*
X88394417Y-92854880D01*
X88377973Y-92818243D01*
X88325665Y-92765540D01*
X88210390Y-92846987D01*
X88188129Y-92869115D01*
X88080059Y-92985407D01*
X88096978Y-93011281D01*
X88209296Y-92985298D01*
X88351394Y-92974195D01*
X88392000Y-93007335D01*
X88415875Y-93140246D01*
X88442321Y-93232242D01*
X88467149Y-93332708D01*
X88418274Y-93283653D01*
X88401284Y-93260334D01*
X88325783Y-93190114D01*
X88308630Y-93239167D01*
X88239670Y-93334407D01*
X88187389Y-93345000D01*
X88054151Y-93281405D01*
X88028639Y-93239167D01*
X87970798Y-93179951D01*
X87873417Y-93249750D01*
X87803233Y-93352779D01*
X87862834Y-93404972D01*
X87959627Y-93506962D01*
X87937377Y-93641377D01*
X87848239Y-93711763D01*
X87765389Y-93821601D01*
X87770949Y-93922932D01*
X87770100Y-94073563D01*
X87706059Y-94149265D01*
X87624355Y-94112595D01*
X87599196Y-94064181D01*
X87486838Y-93964528D01*
X87315057Y-93940808D01*
X87177336Y-94003359D01*
X87167950Y-94016483D01*
X87178567Y-94125223D01*
X87205286Y-94148480D01*
X87289248Y-94258556D01*
X87227382Y-94345552D01*
X87140817Y-94361000D01*
X86973913Y-94300489D01*
X86845312Y-94191667D01*
X86700854Y-94063627D01*
X86600071Y-94022334D01*
X86583109Y-94073999D01*
X86669299Y-94201496D01*
X86698354Y-94233666D01*
X86816167Y-94389349D01*
X86844986Y-94494252D01*
X86839778Y-94502111D01*
X86747401Y-94489239D01*
X86745635Y-94488000D01*
X86444667Y-94488000D01*
X86402334Y-94530334D01*
X86360000Y-94488000D01*
X86402334Y-94445667D01*
X86444667Y-94488000D01*
X86745635Y-94488000D01*
X86595726Y-94382886D01*
X86571333Y-94360687D01*
X86433093Y-94256269D01*
X86362454Y-94252923D01*
X86360000Y-94266572D01*
X86310663Y-94330976D01*
X86275508Y-94318774D01*
X86155944Y-94324813D01*
X85973229Y-94399539D01*
X85795264Y-94506692D01*
X85689948Y-94610012D01*
X85682667Y-94635372D01*
X85755893Y-94697507D01*
X85933152Y-94753944D01*
X85943496Y-94756066D01*
X86108370Y-94805923D01*
X86116603Y-94863793D01*
X86091663Y-94883521D01*
X86065110Y-94925380D01*
X86192335Y-94909343D01*
X86204497Y-94906568D01*
X86436666Y-94912205D01*
X86603840Y-95028173D01*
X86777687Y-95202020D01*
X86604959Y-95323004D01*
X86496395Y-95437789D01*
X86526824Y-95502449D01*
X86665109Y-95506766D01*
X86731858Y-95469255D01*
X86852775Y-95432675D01*
X86969271Y-95525466D01*
X87078714Y-95667244D01*
X87163395Y-95799184D01*
X87198011Y-95877346D01*
X87164531Y-95864568D01*
X87049536Y-95854239D01*
X86992355Y-95887195D01*
X86834238Y-95931996D01*
X86809000Y-95927334D01*
X86444667Y-95927334D01*
X86402334Y-95969667D01*
X86360000Y-95927334D01*
X86402334Y-95885000D01*
X86444667Y-95927334D01*
X86809000Y-95927334D01*
X86736756Y-95913989D01*
X86632479Y-95862717D01*
X86682775Y-95817720D01*
X86747191Y-95791479D01*
X86839163Y-95744750D01*
X86783116Y-95720711D01*
X86677500Y-95711034D01*
X86483274Y-95691428D01*
X86381167Y-95672527D01*
X86257168Y-95631145D01*
X86127167Y-95588569D01*
X85979673Y-95512985D01*
X85936667Y-95451792D01*
X85988883Y-95380767D01*
X86109895Y-95422860D01*
X86164178Y-95469044D01*
X86267682Y-95511242D01*
X86321046Y-95456200D01*
X86313944Y-95336126D01*
X86200318Y-95217247D01*
X86036900Y-95145722D01*
X85938305Y-95144789D01*
X85837768Y-95235900D01*
X85831952Y-95305275D01*
X85791974Y-95467650D01*
X85729528Y-95542576D01*
X85639464Y-95596008D01*
X85631224Y-95512524D01*
X85638882Y-95469204D01*
X85623264Y-95323216D01*
X85557861Y-95292334D01*
X85425071Y-95225986D01*
X85401205Y-95186500D01*
X85391117Y-95242097D01*
X85381470Y-95448343D01*
X85372604Y-95786553D01*
X85364856Y-96238045D01*
X85358565Y-96784133D01*
X85354070Y-97406134D01*
X85352121Y-97895834D01*
X85344611Y-100711000D01*
X86508472Y-100712949D01*
X86858760Y-100713883D01*
X87351543Y-100715696D01*
X87959987Y-100718265D01*
X88657258Y-100721466D01*
X89416521Y-100725176D01*
X90210941Y-100729270D01*
X91013684Y-100733626D01*
X91101334Y-100734116D01*
X92022781Y-100738101D01*
X93042253Y-100740468D01*
X94112056Y-100741240D01*
X95184496Y-100740439D01*
X96211877Y-100738086D01*
X97146505Y-100734203D01*
X97647206Y-100731118D01*
X100764079Y-100708903D01*
X100726419Y-100584000D01*
X87122000Y-100584000D01*
X87079667Y-100626334D01*
X87037334Y-100584000D01*
X87079667Y-100541667D01*
X87122000Y-100584000D01*
X100726419Y-100584000D01*
X100706956Y-100519451D01*
X100631793Y-100301187D01*
X100543678Y-100076000D01*
X100473220Y-99906667D01*
X86614000Y-99906667D01*
X86571667Y-99949000D01*
X86529334Y-99906667D01*
X86571667Y-99864334D01*
X86614000Y-99906667D01*
X100473220Y-99906667D01*
X100372789Y-99665299D01*
X86529334Y-99665299D01*
X86483009Y-99744228D01*
X86388316Y-99864431D01*
X86311676Y-99942692D01*
X86305457Y-99945780D01*
X86300486Y-99876259D01*
X86305457Y-99748134D01*
X86351065Y-99603063D01*
X86423500Y-99587859D01*
X86521159Y-99648001D01*
X86529334Y-99665299D01*
X100372789Y-99665299D01*
X100233962Y-99331655D01*
X86494890Y-99331655D01*
X86483385Y-99362184D01*
X86401651Y-99437258D01*
X86361657Y-99351751D01*
X86360000Y-99309003D01*
X86401657Y-99221801D01*
X86446048Y-99230187D01*
X86494890Y-99331655D01*
X100233962Y-99331655D01*
X100209523Y-99272923D01*
X100174223Y-99187000D01*
X86190667Y-99187000D01*
X86159689Y-99256690D01*
X86134223Y-99243445D01*
X86124090Y-99142965D01*
X86134223Y-99130556D01*
X86184557Y-99142178D01*
X86190667Y-99187000D01*
X100174223Y-99187000D01*
X99939017Y-98614499D01*
X99743601Y-98128667D01*
X85767334Y-98128667D01*
X85725000Y-98171000D01*
X85682667Y-98128667D01*
X85725000Y-98086334D01*
X85767334Y-98128667D01*
X99743601Y-98128667D01*
X99728115Y-98090167D01*
X99693815Y-98001667D01*
X87799334Y-98001667D01*
X87768356Y-98071357D01*
X87742889Y-98058111D01*
X87732756Y-97957632D01*
X87742889Y-97945222D01*
X87793224Y-97956845D01*
X87799334Y-98001667D01*
X99693815Y-98001667D01*
X99598712Y-97756286D01*
X85567950Y-97756286D01*
X85538995Y-97883715D01*
X85487036Y-97995494D01*
X85457871Y-97950198D01*
X85444851Y-97889207D01*
X85441892Y-97734629D01*
X85463516Y-97684596D01*
X85541383Y-97662173D01*
X85567950Y-97756286D01*
X99598712Y-97756286D01*
X99572774Y-97689363D01*
X99484371Y-97444278D01*
X85506650Y-97444278D01*
X85491083Y-97554092D01*
X85462181Y-97555403D01*
X85441970Y-97442086D01*
X85455497Y-97393125D01*
X85493092Y-97361055D01*
X85506650Y-97444278D01*
X99484371Y-97444278D01*
X99468950Y-97401527D01*
X99412598Y-97216097D01*
X99399674Y-97122512D01*
X99407043Y-97107491D01*
X99417516Y-97013889D01*
X87940445Y-97013889D01*
X87928823Y-97064223D01*
X87884000Y-97070334D01*
X87814310Y-97039355D01*
X87827556Y-97013889D01*
X87928036Y-97003756D01*
X87940445Y-97013889D01*
X99417516Y-97013889D01*
X99417910Y-97010373D01*
X99404133Y-96980670D01*
X87376000Y-96980670D01*
X87314540Y-97066888D01*
X87291334Y-97070334D01*
X87208868Y-97041447D01*
X87206667Y-97032997D01*
X87265996Y-96960711D01*
X87291334Y-96943334D01*
X87369353Y-96950046D01*
X87376000Y-96980670D01*
X99404133Y-96980670D01*
X99340996Y-96844556D01*
X87009112Y-96844556D01*
X86997489Y-96894890D01*
X86952667Y-96901000D01*
X86882977Y-96870022D01*
X86896223Y-96844556D01*
X86996702Y-96834423D01*
X87009112Y-96844556D01*
X99340996Y-96844556D01*
X99330442Y-96821804D01*
X99211853Y-96647000D01*
X88138000Y-96647000D01*
X88107022Y-96716690D01*
X88081556Y-96703445D01*
X88071423Y-96602965D01*
X88081556Y-96590556D01*
X88131890Y-96602178D01*
X88138000Y-96647000D01*
X99211853Y-96647000D01*
X99162191Y-96573798D01*
X99133454Y-96538420D01*
X87742149Y-96538420D01*
X87741608Y-96614250D01*
X87652653Y-96706330D01*
X87532885Y-96729847D01*
X87462122Y-96672688D01*
X87460667Y-96656875D01*
X87530915Y-96577092D01*
X87623666Y-96539458D01*
X87742149Y-96538420D01*
X99133454Y-96538420D01*
X99015328Y-96393000D01*
X98993806Y-96362371D01*
X87452454Y-96362371D01*
X87370834Y-96492012D01*
X87348427Y-96518470D01*
X87179452Y-96683068D01*
X87076690Y-96724066D01*
X87056786Y-96635284D01*
X87058500Y-96626140D01*
X87155385Y-96467832D01*
X87326846Y-96341017D01*
X87433094Y-96311026D01*
X87452454Y-96362371D01*
X98993806Y-96362371D01*
X98885192Y-96207800D01*
X98809945Y-96078603D01*
X87785686Y-96078603D01*
X87765085Y-96125918D01*
X87679835Y-96216812D01*
X87630825Y-96198166D01*
X87630000Y-96186330D01*
X87690137Y-96114718D01*
X87727749Y-96088582D01*
X87785686Y-96078603D01*
X98809945Y-96078603D01*
X98722948Y-95929232D01*
X98690941Y-95866693D01*
X87570420Y-95866693D01*
X87476215Y-95951087D01*
X87450502Y-95969667D01*
X87278124Y-96110910D01*
X87066073Y-96306103D01*
X87007637Y-96363540D01*
X86795848Y-96558940D01*
X86672671Y-96635313D01*
X86646788Y-96588189D01*
X86662536Y-96541167D01*
X86750428Y-96434265D01*
X86930746Y-96271495D01*
X87044212Y-96181334D01*
X86698667Y-96181334D01*
X86656334Y-96223667D01*
X86614000Y-96181334D01*
X86656334Y-96139000D01*
X86698667Y-96181334D01*
X87044212Y-96181334D01*
X87085675Y-96148388D01*
X87298258Y-95982425D01*
X87394312Y-95877161D01*
X87393647Y-95792865D01*
X87316071Y-95689808D01*
X87314963Y-95688535D01*
X87164334Y-95515628D01*
X87395532Y-95679148D01*
X87546982Y-95794315D01*
X87570420Y-95866693D01*
X98690941Y-95866693D01*
X98570314Y-95631000D01*
X98529934Y-95546334D01*
X93373965Y-95546334D01*
X93360660Y-95666529D01*
X93331261Y-95652167D01*
X93320078Y-95478825D01*
X93328168Y-95451097D01*
X87100001Y-95451097D01*
X87037979Y-95410517D01*
X87026828Y-95399578D01*
X86959951Y-95288570D01*
X86969019Y-95247760D01*
X87032000Y-95273168D01*
X87074224Y-95352182D01*
X87100001Y-95451097D01*
X93328168Y-95451097D01*
X93331261Y-95440500D01*
X93362163Y-95429864D01*
X93373965Y-95546334D01*
X98529934Y-95546334D01*
X98341487Y-95151222D01*
X95899112Y-95151222D01*
X95887489Y-95201557D01*
X95842667Y-95207667D01*
X95772977Y-95176689D01*
X95786223Y-95151222D01*
X95886702Y-95141089D01*
X95899112Y-95151222D01*
X98341487Y-95151222D01*
X98238023Y-94934293D01*
X98213516Y-94883320D01*
X87037334Y-94883320D01*
X86980445Y-94894959D01*
X86842614Y-94816174D01*
X86833504Y-94809453D01*
X86714837Y-94696155D01*
X86705988Y-94629619D01*
X86709350Y-94628162D01*
X86836749Y-94654157D01*
X86973185Y-94760087D01*
X87037331Y-94882684D01*
X87037334Y-94883320D01*
X98213516Y-94883320D01*
X98145568Y-94742000D01*
X88053334Y-94742000D01*
X88011000Y-94784334D01*
X87968667Y-94742000D01*
X88011000Y-94699667D01*
X88053334Y-94742000D01*
X98145568Y-94742000D01*
X97964969Y-94366384D01*
X97738747Y-93902640D01*
X97735100Y-93895334D01*
X88392000Y-93895334D01*
X88349667Y-93937667D01*
X88307334Y-93895334D01*
X88349667Y-93853000D01*
X88392000Y-93895334D01*
X97735100Y-93895334D01*
X97671704Y-93768334D01*
X88180334Y-93768334D01*
X88173621Y-93846352D01*
X88142997Y-93853000D01*
X88056779Y-93791540D01*
X88053334Y-93768334D01*
X88082221Y-93685868D01*
X88090670Y-93683667D01*
X88162956Y-93742996D01*
X88180334Y-93768334D01*
X97671704Y-93768334D01*
X97546954Y-93518427D01*
X97432088Y-93295611D01*
X93380650Y-93295611D01*
X93365083Y-93405425D01*
X93336181Y-93406736D01*
X93315970Y-93293419D01*
X93329497Y-93244459D01*
X93367092Y-93212388D01*
X93380650Y-93295611D01*
X97432088Y-93295611D01*
X97403466Y-93240091D01*
X94874612Y-93240091D01*
X94791389Y-93253649D01*
X94681575Y-93238083D01*
X94680264Y-93209181D01*
X94793581Y-93188969D01*
X94842542Y-93202497D01*
X94874612Y-93240091D01*
X97403466Y-93240091D01*
X97377185Y-93189112D01*
X97217036Y-92890063D01*
X97164063Y-92794667D01*
X95927334Y-92794667D01*
X95885000Y-92837000D01*
X95842667Y-92794667D01*
X95885000Y-92752334D01*
X95927334Y-92794667D01*
X97164063Y-92794667D01*
X97054101Y-92596644D01*
X97022315Y-92540667D01*
X95927334Y-92540667D01*
X95885000Y-92583000D01*
X95842667Y-92540667D01*
X93810667Y-92540667D01*
X93768334Y-92583000D01*
X93726000Y-92540667D01*
X93768334Y-92498334D01*
X93810667Y-92540667D01*
X95842667Y-92540667D01*
X95885000Y-92498334D01*
X95927334Y-92540667D01*
X97022315Y-92540667D01*
X96950198Y-92413667D01*
X96878009Y-92286667D01*
X95842667Y-92286667D01*
X95800334Y-92329000D01*
X95758000Y-92286667D01*
X95800334Y-92244334D01*
X95842667Y-92286667D01*
X96878009Y-92286667D01*
X96747275Y-92056671D01*
X96690167Y-91955056D01*
X94488000Y-91955056D01*
X94438647Y-92047774D01*
X94337097Y-92032989D01*
X94253403Y-91921542D01*
X94278237Y-91863334D01*
X93641334Y-91863334D01*
X93599000Y-91905667D01*
X93556667Y-91863334D01*
X93599000Y-91821000D01*
X93641334Y-91863334D01*
X94278237Y-91863334D01*
X94290252Y-91835175D01*
X94353945Y-91821000D01*
X94470577Y-91889170D01*
X94488000Y-91955056D01*
X96690167Y-91955056D01*
X96651033Y-91885425D01*
X95721279Y-91885425D01*
X95638056Y-91898983D01*
X95528242Y-91883416D01*
X95527332Y-91863334D01*
X95250000Y-91863334D01*
X95207667Y-91905667D01*
X95165334Y-91863334D01*
X95207667Y-91821000D01*
X95250000Y-91863334D01*
X95527332Y-91863334D01*
X95526931Y-91854514D01*
X95640248Y-91834303D01*
X95689209Y-91847830D01*
X95721279Y-91885425D01*
X96651033Y-91885425D01*
X96588480Y-91774122D01*
X93888563Y-91774122D01*
X93799879Y-91784648D01*
X93768334Y-91776010D01*
X93717193Y-91759881D01*
X93111139Y-91759881D01*
X93095560Y-91813623D01*
X93011811Y-91900521D01*
X92991453Y-91863334D01*
X89916000Y-91863334D01*
X89873667Y-91905667D01*
X89831334Y-91863334D01*
X89873667Y-91821000D01*
X89916000Y-91863334D01*
X92991453Y-91863334D01*
X92969541Y-91823312D01*
X92965909Y-91755194D01*
X89746667Y-91755194D01*
X89726299Y-91856579D01*
X89634949Y-91835607D01*
X89577334Y-91801351D01*
X89445887Y-91702119D01*
X89408000Y-91649443D01*
X89479190Y-91611887D01*
X89577334Y-91603286D01*
X89720126Y-91663734D01*
X89746667Y-91755194D01*
X92965909Y-91755194D01*
X92964000Y-91719400D01*
X92984743Y-91596567D01*
X93056258Y-91625405D01*
X93058223Y-91627356D01*
X93111139Y-91759881D01*
X93717193Y-91759881D01*
X93571440Y-91713913D01*
X93500176Y-91691225D01*
X93411239Y-91624604D01*
X93447861Y-91557273D01*
X93579943Y-91519456D01*
X93716018Y-91580415D01*
X93857646Y-91694965D01*
X93888563Y-91774122D01*
X96588480Y-91774122D01*
X96572438Y-91745579D01*
X96543931Y-91694000D01*
X95588667Y-91694000D01*
X95546334Y-91736334D01*
X95504000Y-91694000D01*
X95546334Y-91651667D01*
X95588667Y-91694000D01*
X96543931Y-91694000D01*
X96509109Y-91630996D01*
X94184963Y-91630996D01*
X94133516Y-91632283D01*
X94013389Y-91528686D01*
X94005070Y-91510556D01*
X90565112Y-91510556D01*
X90553489Y-91560890D01*
X90508667Y-91567000D01*
X90438977Y-91536022D01*
X90452223Y-91510556D01*
X90552702Y-91500423D01*
X90565112Y-91510556D01*
X94005070Y-91510556D01*
X93999403Y-91498209D01*
X94004460Y-91440000D01*
X92964000Y-91440000D01*
X92921667Y-91482334D01*
X92879334Y-91440000D01*
X92921667Y-91397667D01*
X89662000Y-91397667D01*
X89593085Y-91471971D01*
X89530004Y-91482334D01*
X89442369Y-91441288D01*
X89450334Y-91397667D01*
X89558577Y-91316230D01*
X89582331Y-91313000D01*
X89659720Y-91377579D01*
X89662000Y-91397667D01*
X92921667Y-91397667D01*
X92964000Y-91440000D01*
X94004460Y-91440000D01*
X94007272Y-91407640D01*
X94084534Y-91412883D01*
X94169427Y-91502637D01*
X94182666Y-91531742D01*
X94184963Y-91630996D01*
X96509109Y-91630996D01*
X96450341Y-91524667D01*
X95165334Y-91524667D01*
X95123000Y-91567000D01*
X95080667Y-91524667D01*
X95123000Y-91482334D01*
X95165334Y-91524667D01*
X96450341Y-91524667D01*
X96444589Y-91514261D01*
X96383132Y-91397667D01*
X96365982Y-91364574D01*
X94646943Y-91364574D01*
X94625923Y-91481668D01*
X94600889Y-91510556D01*
X94476966Y-91564487D01*
X94406173Y-91476365D01*
X94403334Y-91440000D01*
X94471107Y-91327752D01*
X94530334Y-91313000D01*
X94646943Y-91364574D01*
X96365982Y-91364574D01*
X96320540Y-91276890D01*
X96263886Y-91171889D01*
X95645112Y-91171889D01*
X95633489Y-91222223D01*
X95588667Y-91228334D01*
X95518977Y-91197355D01*
X95532223Y-91171889D01*
X95632702Y-91161756D01*
X95645112Y-91171889D01*
X96263886Y-91171889D01*
X96193900Y-91042180D01*
X96170760Y-90999896D01*
X95289477Y-90999896D01*
X95270640Y-91030582D01*
X95201945Y-91113824D01*
X95212136Y-91150898D01*
X95236811Y-91225086D01*
X95175398Y-91197545D01*
X95122349Y-91143667D01*
X94191667Y-91143667D01*
X94187797Y-91221810D01*
X94159327Y-91228334D01*
X94039636Y-91166548D01*
X94022334Y-91143667D01*
X94024430Y-91101334D01*
X93810667Y-91101334D01*
X93768334Y-91143667D01*
X93726000Y-91101334D01*
X93740112Y-91087222D01*
X93443778Y-91087222D01*
X93432156Y-91137557D01*
X93387334Y-91143667D01*
X93317644Y-91112689D01*
X93330889Y-91087222D01*
X93431369Y-91077089D01*
X93443778Y-91087222D01*
X93740112Y-91087222D01*
X93768334Y-91059000D01*
X93810667Y-91101334D01*
X94024430Y-91101334D01*
X94026204Y-91065523D01*
X94054674Y-91059000D01*
X94174365Y-91120786D01*
X94191667Y-91143667D01*
X95122349Y-91143667D01*
X95080667Y-91101334D01*
X95027603Y-91007733D01*
X95043256Y-91002556D01*
X94883112Y-91002556D01*
X94871489Y-91052890D01*
X94826667Y-91059000D01*
X94756977Y-91028022D01*
X94770223Y-91002556D01*
X94870702Y-90992423D01*
X94883112Y-91002556D01*
X95043256Y-91002556D01*
X95110386Y-90980355D01*
X95176134Y-90981018D01*
X95289477Y-90999896D01*
X96170760Y-90999896D01*
X96103082Y-90876230D01*
X94878547Y-90876230D01*
X94754021Y-90867975D01*
X94712295Y-90858068D01*
X94549800Y-90837623D01*
X94487621Y-90866887D01*
X94412788Y-90913804D01*
X94229354Y-90944660D01*
X94191288Y-90947148D01*
X93995886Y-90937446D01*
X93901458Y-90895541D01*
X93550783Y-90895541D01*
X93500354Y-90971714D01*
X93472000Y-90974334D01*
X93406421Y-90902625D01*
X93404481Y-90889667D01*
X93218000Y-90889667D01*
X93187022Y-90959357D01*
X93161556Y-90946111D01*
X93160666Y-90937279D01*
X92950920Y-90937279D01*
X92929986Y-91041120D01*
X92866253Y-91040529D01*
X92839680Y-91016667D01*
X90254667Y-91016667D01*
X90212334Y-91059000D01*
X90170000Y-91016667D01*
X90212334Y-90974334D01*
X90254667Y-91016667D01*
X92839680Y-91016667D01*
X92762148Y-90947046D01*
X92752334Y-90903778D01*
X92782023Y-90841636D01*
X91769694Y-90841636D01*
X91720420Y-90881754D01*
X91604337Y-90889667D01*
X91486292Y-90858408D01*
X91480049Y-90808698D01*
X91590191Y-90762573D01*
X91654379Y-90775423D01*
X91769694Y-90841636D01*
X92782023Y-90841636D01*
X92797853Y-90808504D01*
X92887854Y-90826370D01*
X92950920Y-90937279D01*
X93160666Y-90937279D01*
X93151423Y-90845632D01*
X93161556Y-90833222D01*
X93211890Y-90844845D01*
X93218000Y-90889667D01*
X93404481Y-90889667D01*
X93388630Y-90783834D01*
X93400065Y-90678000D01*
X91186000Y-90678000D01*
X91143667Y-90720334D01*
X91101334Y-90678000D01*
X91143667Y-90635667D01*
X91186000Y-90678000D01*
X93400065Y-90678000D01*
X93401998Y-90660119D01*
X93451800Y-90690535D01*
X93472000Y-90720334D01*
X93550783Y-90895541D01*
X93901458Y-90895541D01*
X93897969Y-90893993D01*
X93895334Y-90883648D01*
X93961827Y-90809728D01*
X93996183Y-90805000D01*
X94016966Y-90764518D01*
X93932683Y-90680693D01*
X93834130Y-90595841D01*
X93864307Y-90561482D01*
X94040843Y-90553693D01*
X94225185Y-90569504D01*
X94274922Y-90634651D01*
X94262329Y-90683965D01*
X94254529Y-90767635D01*
X94346997Y-90785411D01*
X94509290Y-90761029D01*
X94765140Y-90747895D01*
X94871933Y-90809745D01*
X94878547Y-90876230D01*
X96103082Y-90876230D01*
X96033209Y-90748556D01*
X95306445Y-90748556D01*
X95294823Y-90798890D01*
X95250000Y-90805000D01*
X95180310Y-90774022D01*
X95193556Y-90748556D01*
X95294036Y-90738423D01*
X95306445Y-90748556D01*
X96033209Y-90748556D01*
X96021671Y-90727475D01*
X95865996Y-90445748D01*
X95371138Y-90445748D01*
X95261565Y-90540539D01*
X95073727Y-90605673D01*
X94911334Y-90618897D01*
X94615000Y-90608567D01*
X94737748Y-90593334D01*
X94572667Y-90593334D01*
X94530334Y-90635667D01*
X94488000Y-90593334D01*
X94530334Y-90551000D01*
X94572667Y-90593334D01*
X94737748Y-90593334D01*
X94890167Y-90574419D01*
X95092880Y-90514973D01*
X95165334Y-90418636D01*
X95169472Y-90409889D01*
X94629112Y-90409889D01*
X94617489Y-90460223D01*
X94572667Y-90466334D01*
X94502977Y-90435355D01*
X94506409Y-90428756D01*
X94216438Y-90428756D01*
X94114674Y-90442786D01*
X94022334Y-90444982D01*
X93848083Y-90438167D01*
X93803108Y-90418980D01*
X93830847Y-90408161D01*
X94034168Y-90392390D01*
X94169513Y-90406452D01*
X94216438Y-90428756D01*
X94506409Y-90428756D01*
X94516223Y-90409889D01*
X94616702Y-90399756D01*
X94629112Y-90409889D01*
X95169472Y-90409889D01*
X95209532Y-90325222D01*
X94883112Y-90325222D01*
X94871489Y-90375557D01*
X94826667Y-90381667D01*
X94756977Y-90350689D01*
X94770223Y-90325222D01*
X94870702Y-90315089D01*
X94883112Y-90325222D01*
X95209532Y-90325222D01*
X95218509Y-90306251D01*
X95335206Y-90328454D01*
X95357800Y-90348355D01*
X95371138Y-90445748D01*
X95865996Y-90445748D01*
X95824040Y-90369820D01*
X95758837Y-90254667D01*
X95504000Y-90254667D01*
X95461667Y-90297000D01*
X95441425Y-90276758D01*
X94451279Y-90276758D01*
X94368056Y-90290316D01*
X94258242Y-90274749D01*
X94257719Y-90263204D01*
X93596170Y-90263204D01*
X93534833Y-90287252D01*
X93387334Y-90297000D01*
X93207803Y-90311168D01*
X93181102Y-90339988D01*
X93260334Y-90381667D01*
X93372553Y-90437586D01*
X93331268Y-90457388D01*
X93276504Y-90460383D01*
X93173321Y-90501709D01*
X93175667Y-90551000D01*
X93185701Y-90626705D01*
X93103544Y-90619419D01*
X92981445Y-90534533D01*
X92977408Y-90530541D01*
X92873348Y-90470623D01*
X92800608Y-90541388D01*
X92699146Y-90618975D01*
X92613328Y-90560136D01*
X92581267Y-90396283D01*
X92582302Y-90381667D01*
X91397667Y-90381667D01*
X91393797Y-90459810D01*
X91365327Y-90466334D01*
X91245636Y-90404548D01*
X91228334Y-90381667D01*
X91232204Y-90303523D01*
X91260674Y-90297000D01*
X91380365Y-90358786D01*
X91397667Y-90381667D01*
X92582302Y-90381667D01*
X92583655Y-90362586D01*
X92605642Y-90111117D01*
X92607382Y-90085334D01*
X91609334Y-90085334D01*
X91567000Y-90127667D01*
X91524667Y-90085334D01*
X91567000Y-90043000D01*
X91609334Y-90085334D01*
X92607382Y-90085334D01*
X92614528Y-89979500D01*
X92634117Y-89916000D01*
X91863334Y-89916000D01*
X91821000Y-89958334D01*
X91778667Y-89916000D01*
X91821000Y-89873667D01*
X91863334Y-89916000D01*
X92634117Y-89916000D01*
X92663513Y-89820712D01*
X92776279Y-89812854D01*
X92941455Y-89955116D01*
X92983175Y-90005814D01*
X93126520Y-90144844D01*
X93243461Y-90188589D01*
X93249361Y-90186864D01*
X93400367Y-90186283D01*
X93514334Y-90218099D01*
X93596170Y-90263204D01*
X94257719Y-90263204D01*
X94256931Y-90245847D01*
X94370248Y-90225636D01*
X94419209Y-90239163D01*
X94451279Y-90276758D01*
X95441425Y-90276758D01*
X95419334Y-90254667D01*
X95461667Y-90212334D01*
X95504000Y-90254667D01*
X95758837Y-90254667D01*
X95615013Y-90000667D01*
X94488000Y-90000667D01*
X94445667Y-90043000D01*
X94403334Y-90000667D01*
X94445667Y-89958334D01*
X94488000Y-90000667D01*
X95615013Y-90000667D01*
X95606278Y-89985242D01*
X95563403Y-89916000D01*
X95165334Y-89916000D01*
X95123000Y-89958334D01*
X95080667Y-89916000D01*
X95123000Y-89873667D01*
X95165334Y-89916000D01*
X95563403Y-89916000D01*
X95510976Y-89831334D01*
X94911334Y-89831334D01*
X94869000Y-89873667D01*
X94826667Y-89831334D01*
X94869000Y-89789000D01*
X94911334Y-89831334D01*
X95510976Y-89831334D01*
X95466777Y-89759956D01*
X94418347Y-89759956D01*
X94360777Y-89842658D01*
X94333480Y-89872965D01*
X94104858Y-89999242D01*
X93853000Y-90023930D01*
X93514334Y-90018971D01*
X93853000Y-89958334D01*
X94027722Y-89918816D01*
X94043644Y-89892774D01*
X93987056Y-89885681D01*
X93836063Y-89864856D01*
X93850161Y-89831575D01*
X94025763Y-89788282D01*
X94164146Y-89765005D01*
X94361549Y-89739647D01*
X94418347Y-89759956D01*
X95466777Y-89759956D01*
X95447504Y-89728832D01*
X95362361Y-89619667D01*
X94107000Y-89619667D01*
X94081077Y-89686307D01*
X93984997Y-89704334D01*
X93844726Y-89669790D01*
X93810667Y-89619667D01*
X93878882Y-89543728D01*
X93932670Y-89535000D01*
X94076819Y-89586600D01*
X94107000Y-89619667D01*
X95362361Y-89619667D01*
X95329787Y-89577904D01*
X95235196Y-89509769D01*
X95145798Y-89501743D01*
X95138839Y-89502925D01*
X95035954Y-89511251D01*
X95059500Y-89486550D01*
X95160667Y-89378128D01*
X95121724Y-89253761D01*
X94958769Y-89162876D01*
X94953667Y-89161566D01*
X94905616Y-89139889D01*
X94290445Y-89139889D01*
X94278823Y-89190223D01*
X94234000Y-89196334D01*
X94164310Y-89165355D01*
X94170216Y-89154000D01*
X93895334Y-89154000D01*
X93853000Y-89196334D01*
X93810667Y-89154000D01*
X93853000Y-89111667D01*
X93895334Y-89154000D01*
X94170216Y-89154000D01*
X94177556Y-89139889D01*
X94278036Y-89129756D01*
X94290445Y-89139889D01*
X94905616Y-89139889D01*
X94794996Y-89089986D01*
X94780397Y-89069334D01*
X93556667Y-89069334D01*
X93514334Y-89111667D01*
X93472000Y-89069334D01*
X93514334Y-89027000D01*
X93556667Y-89069334D01*
X94780397Y-89069334D01*
X94742000Y-89015020D01*
X94774797Y-88984667D01*
X93810667Y-88984667D01*
X93768334Y-89027000D01*
X93726000Y-88984667D01*
X93768334Y-88942334D01*
X93810667Y-88984667D01*
X94774797Y-88984667D01*
X94786541Y-88973799D01*
X94869000Y-89027000D01*
X94969340Y-89088682D01*
X94993401Y-89021270D01*
X94993308Y-89016200D01*
X94939257Y-88849973D01*
X94820858Y-88688545D01*
X94693714Y-88604997D01*
X94679438Y-88603667D01*
X94587822Y-88537753D01*
X94499831Y-88383272D01*
X94440187Y-88205115D01*
X94433612Y-88068170D01*
X94462283Y-88033684D01*
X94519398Y-87939603D01*
X94511720Y-87838560D01*
X94444186Y-87727295D01*
X94386818Y-87724874D01*
X94331407Y-87701138D01*
X94330831Y-87618088D01*
X94319865Y-87428590D01*
X94289989Y-87354184D01*
X94288856Y-87212473D01*
X94355602Y-87115303D01*
X94462532Y-86970567D01*
X94488000Y-86891164D01*
X94446621Y-86854371D01*
X94335939Y-86938783D01*
X94335939Y-86938783D01*
G37*
X94335939Y-86938783D02*
X94176142Y-87121847D01*
X93987413Y-87381011D01*
X93830573Y-87625657D01*
X93475133Y-88195830D01*
X93182189Y-88627486D01*
X92940494Y-88934541D01*
X92738801Y-89130912D01*
X92565864Y-89230515D01*
X92524110Y-89242303D01*
X92240003Y-89354040D01*
X91890328Y-89567277D01*
X91521495Y-89853262D01*
X91282936Y-90050054D01*
X91019557Y-90254314D01*
X90769197Y-90438333D01*
X90569694Y-90574403D01*
X90458886Y-90634815D01*
X90453083Y-90635667D01*
X90348227Y-90679674D01*
X90151507Y-90793799D01*
X89957204Y-90919118D01*
X89664019Y-91096867D01*
X89368371Y-91246412D01*
X89216721Y-91306941D01*
X89028319Y-91389424D01*
X88943939Y-91468825D01*
X88946551Y-91489157D01*
X88911279Y-91545220D01*
X88767630Y-91567000D01*
X88615463Y-91580477D01*
X88606059Y-91639605D01*
X88648595Y-91697126D01*
X88801246Y-91800474D01*
X88891795Y-91814377D01*
X89194455Y-91807808D01*
X89359263Y-91865205D01*
X89408000Y-91990334D01*
X89352392Y-92130360D01*
X89274953Y-92159667D01*
X89101981Y-92215998D01*
X89033663Y-92267909D01*
X88968540Y-92380816D01*
X89036137Y-92479576D01*
X89177083Y-92569460D01*
X89235094Y-92583000D01*
X89301418Y-92655434D01*
X89323334Y-92794667D01*
X89277030Y-92967661D01*
X89187275Y-93006334D01*
X89090916Y-92953772D01*
X89098297Y-92883645D01*
X89094540Y-92797736D01*
X89022689Y-92808037D01*
X88918576Y-92790059D01*
X88900000Y-92712003D01*
X88851091Y-92607809D01*
X88794167Y-92604167D01*
X88697100Y-92708105D01*
X88688334Y-92758230D01*
X88627659Y-92867712D01*
X88501670Y-92905347D01*
X88394417Y-92854880D01*
X88377973Y-92818243D01*
X88325665Y-92765540D01*
X88210390Y-92846987D01*
X88188129Y-92869115D01*
X88080059Y-92985407D01*
X88096978Y-93011281D01*
X88209296Y-92985298D01*
X88351394Y-92974195D01*
X88392000Y-93007335D01*
X88415875Y-93140246D01*
X88442321Y-93232242D01*
X88467149Y-93332708D01*
X88418274Y-93283653D01*
X88401284Y-93260334D01*
X88325783Y-93190114D01*
X88308630Y-93239167D01*
X88239670Y-93334407D01*
X88187389Y-93345000D01*
X88054151Y-93281405D01*
X88028639Y-93239167D01*
X87970798Y-93179951D01*
X87873417Y-93249750D01*
X87803233Y-93352779D01*
X87862834Y-93404972D01*
X87959627Y-93506962D01*
X87937377Y-93641377D01*
X87848239Y-93711763D01*
X87765389Y-93821601D01*
X87770949Y-93922932D01*
X87770100Y-94073563D01*
X87706059Y-94149265D01*
X87624355Y-94112595D01*
X87599196Y-94064181D01*
X87486838Y-93964528D01*
X87315057Y-93940808D01*
X87177336Y-94003359D01*
X87167950Y-94016483D01*
X87178567Y-94125223D01*
X87205286Y-94148480D01*
X87289248Y-94258556D01*
X87227382Y-94345552D01*
X87140817Y-94361000D01*
X86973913Y-94300489D01*
X86845312Y-94191667D01*
X86700854Y-94063627D01*
X86600071Y-94022334D01*
X86583109Y-94073999D01*
X86669299Y-94201496D01*
X86698354Y-94233666D01*
X86816167Y-94389349D01*
X86844986Y-94494252D01*
X86839778Y-94502111D01*
X86747401Y-94489239D01*
X86745635Y-94488000D01*
X86444667Y-94488000D01*
X86402334Y-94530334D01*
X86360000Y-94488000D01*
X86402334Y-94445667D01*
X86444667Y-94488000D01*
X86745635Y-94488000D01*
X86595726Y-94382886D01*
X86571333Y-94360687D01*
X86433093Y-94256269D01*
X86362454Y-94252923D01*
X86360000Y-94266572D01*
X86310663Y-94330976D01*
X86275508Y-94318774D01*
X86155944Y-94324813D01*
X85973229Y-94399539D01*
X85795264Y-94506692D01*
X85689948Y-94610012D01*
X85682667Y-94635372D01*
X85755893Y-94697507D01*
X85933152Y-94753944D01*
X85943496Y-94756066D01*
X86108370Y-94805923D01*
X86116603Y-94863793D01*
X86091663Y-94883521D01*
X86065110Y-94925380D01*
X86192335Y-94909343D01*
X86204497Y-94906568D01*
X86436666Y-94912205D01*
X86603840Y-95028173D01*
X86777687Y-95202020D01*
X86604959Y-95323004D01*
X86496395Y-95437789D01*
X86526824Y-95502449D01*
X86665109Y-95506766D01*
X86731858Y-95469255D01*
X86852775Y-95432675D01*
X86969271Y-95525466D01*
X87078714Y-95667244D01*
X87163395Y-95799184D01*
X87198011Y-95877346D01*
X87164531Y-95864568D01*
X87049536Y-95854239D01*
X86992355Y-95887195D01*
X86834238Y-95931996D01*
X86809000Y-95927334D01*
X86444667Y-95927334D01*
X86402334Y-95969667D01*
X86360000Y-95927334D01*
X86402334Y-95885000D01*
X86444667Y-95927334D01*
X86809000Y-95927334D01*
X86736756Y-95913989D01*
X86632479Y-95862717D01*
X86682775Y-95817720D01*
X86747191Y-95791479D01*
X86839163Y-95744750D01*
X86783116Y-95720711D01*
X86677500Y-95711034D01*
X86483274Y-95691428D01*
X86381167Y-95672527D01*
X86257168Y-95631145D01*
X86127167Y-95588569D01*
X85979673Y-95512985D01*
X85936667Y-95451792D01*
X85988883Y-95380767D01*
X86109895Y-95422860D01*
X86164178Y-95469044D01*
X86267682Y-95511242D01*
X86321046Y-95456200D01*
X86313944Y-95336126D01*
X86200318Y-95217247D01*
X86036900Y-95145722D01*
X85938305Y-95144789D01*
X85837768Y-95235900D01*
X85831952Y-95305275D01*
X85791974Y-95467650D01*
X85729528Y-95542576D01*
X85639464Y-95596008D01*
X85631224Y-95512524D01*
X85638882Y-95469204D01*
X85623264Y-95323216D01*
X85557861Y-95292334D01*
X85425071Y-95225986D01*
X85401205Y-95186500D01*
X85391117Y-95242097D01*
X85381470Y-95448343D01*
X85372604Y-95786553D01*
X85364856Y-96238045D01*
X85358565Y-96784133D01*
X85354070Y-97406134D01*
X85352121Y-97895834D01*
X85344611Y-100711000D01*
X86508472Y-100712949D01*
X86858760Y-100713883D01*
X87351543Y-100715696D01*
X87959987Y-100718265D01*
X88657258Y-100721466D01*
X89416521Y-100725176D01*
X90210941Y-100729270D01*
X91013684Y-100733626D01*
X91101334Y-100734116D01*
X92022781Y-100738101D01*
X93042253Y-100740468D01*
X94112056Y-100741240D01*
X95184496Y-100740439D01*
X96211877Y-100738086D01*
X97146505Y-100734203D01*
X97647206Y-100731118D01*
X100764079Y-100708903D01*
X100726419Y-100584000D01*
X87122000Y-100584000D01*
X87079667Y-100626334D01*
X87037334Y-100584000D01*
X87079667Y-100541667D01*
X87122000Y-100584000D01*
X100726419Y-100584000D01*
X100706956Y-100519451D01*
X100631793Y-100301187D01*
X100543678Y-100076000D01*
X100473220Y-99906667D01*
X86614000Y-99906667D01*
X86571667Y-99949000D01*
X86529334Y-99906667D01*
X86571667Y-99864334D01*
X86614000Y-99906667D01*
X100473220Y-99906667D01*
X100372789Y-99665299D01*
X86529334Y-99665299D01*
X86483009Y-99744228D01*
X86388316Y-99864431D01*
X86311676Y-99942692D01*
X86305457Y-99945780D01*
X86300486Y-99876259D01*
X86305457Y-99748134D01*
X86351065Y-99603063D01*
X86423500Y-99587859D01*
X86521159Y-99648001D01*
X86529334Y-99665299D01*
X100372789Y-99665299D01*
X100233962Y-99331655D01*
X86494890Y-99331655D01*
X86483385Y-99362184D01*
X86401651Y-99437258D01*
X86361657Y-99351751D01*
X86360000Y-99309003D01*
X86401657Y-99221801D01*
X86446048Y-99230187D01*
X86494890Y-99331655D01*
X100233962Y-99331655D01*
X100209523Y-99272923D01*
X100174223Y-99187000D01*
X86190667Y-99187000D01*
X86159689Y-99256690D01*
X86134223Y-99243445D01*
X86124090Y-99142965D01*
X86134223Y-99130556D01*
X86184557Y-99142178D01*
X86190667Y-99187000D01*
X100174223Y-99187000D01*
X99939017Y-98614499D01*
X99743601Y-98128667D01*
X85767334Y-98128667D01*
X85725000Y-98171000D01*
X85682667Y-98128667D01*
X85725000Y-98086334D01*
X85767334Y-98128667D01*
X99743601Y-98128667D01*
X99728115Y-98090167D01*
X99693815Y-98001667D01*
X87799334Y-98001667D01*
X87768356Y-98071357D01*
X87742889Y-98058111D01*
X87732756Y-97957632D01*
X87742889Y-97945222D01*
X87793224Y-97956845D01*
X87799334Y-98001667D01*
X99693815Y-98001667D01*
X99598712Y-97756286D01*
X85567950Y-97756286D01*
X85538995Y-97883715D01*
X85487036Y-97995494D01*
X85457871Y-97950198D01*
X85444851Y-97889207D01*
X85441892Y-97734629D01*
X85463516Y-97684596D01*
X85541383Y-97662173D01*
X85567950Y-97756286D01*
X99598712Y-97756286D01*
X99572774Y-97689363D01*
X99484371Y-97444278D01*
X85506650Y-97444278D01*
X85491083Y-97554092D01*
X85462181Y-97555403D01*
X85441970Y-97442086D01*
X85455497Y-97393125D01*
X85493092Y-97361055D01*
X85506650Y-97444278D01*
X99484371Y-97444278D01*
X99468950Y-97401527D01*
X99412598Y-97216097D01*
X99399674Y-97122512D01*
X99407043Y-97107491D01*
X99417516Y-97013889D01*
X87940445Y-97013889D01*
X87928823Y-97064223D01*
X87884000Y-97070334D01*
X87814310Y-97039355D01*
X87827556Y-97013889D01*
X87928036Y-97003756D01*
X87940445Y-97013889D01*
X99417516Y-97013889D01*
X99417910Y-97010373D01*
X99404133Y-96980670D01*
X87376000Y-96980670D01*
X87314540Y-97066888D01*
X87291334Y-97070334D01*
X87208868Y-97041447D01*
X87206667Y-97032997D01*
X87265996Y-96960711D01*
X87291334Y-96943334D01*
X87369353Y-96950046D01*
X87376000Y-96980670D01*
X99404133Y-96980670D01*
X99340996Y-96844556D01*
X87009112Y-96844556D01*
X86997489Y-96894890D01*
X86952667Y-96901000D01*
X86882977Y-96870022D01*
X86896223Y-96844556D01*
X86996702Y-96834423D01*
X87009112Y-96844556D01*
X99340996Y-96844556D01*
X99330442Y-96821804D01*
X99211853Y-96647000D01*
X88138000Y-96647000D01*
X88107022Y-96716690D01*
X88081556Y-96703445D01*
X88071423Y-96602965D01*
X88081556Y-96590556D01*
X88131890Y-96602178D01*
X88138000Y-96647000D01*
X99211853Y-96647000D01*
X99162191Y-96573798D01*
X99133454Y-96538420D01*
X87742149Y-96538420D01*
X87741608Y-96614250D01*
X87652653Y-96706330D01*
X87532885Y-96729847D01*
X87462122Y-96672688D01*
X87460667Y-96656875D01*
X87530915Y-96577092D01*
X87623666Y-96539458D01*
X87742149Y-96538420D01*
X99133454Y-96538420D01*
X99015328Y-96393000D01*
X98993806Y-96362371D01*
X87452454Y-96362371D01*
X87370834Y-96492012D01*
X87348427Y-96518470D01*
X87179452Y-96683068D01*
X87076690Y-96724066D01*
X87056786Y-96635284D01*
X87058500Y-96626140D01*
X87155385Y-96467832D01*
X87326846Y-96341017D01*
X87433094Y-96311026D01*
X87452454Y-96362371D01*
X98993806Y-96362371D01*
X98885192Y-96207800D01*
X98809945Y-96078603D01*
X87785686Y-96078603D01*
X87765085Y-96125918D01*
X87679835Y-96216812D01*
X87630825Y-96198166D01*
X87630000Y-96186330D01*
X87690137Y-96114718D01*
X87727749Y-96088582D01*
X87785686Y-96078603D01*
X98809945Y-96078603D01*
X98722948Y-95929232D01*
X98690941Y-95866693D01*
X87570420Y-95866693D01*
X87476215Y-95951087D01*
X87450502Y-95969667D01*
X87278124Y-96110910D01*
X87066073Y-96306103D01*
X87007637Y-96363540D01*
X86795848Y-96558940D01*
X86672671Y-96635313D01*
X86646788Y-96588189D01*
X86662536Y-96541167D01*
X86750428Y-96434265D01*
X86930746Y-96271495D01*
X87044212Y-96181334D01*
X86698667Y-96181334D01*
X86656334Y-96223667D01*
X86614000Y-96181334D01*
X86656334Y-96139000D01*
X86698667Y-96181334D01*
X87044212Y-96181334D01*
X87085675Y-96148388D01*
X87298258Y-95982425D01*
X87394312Y-95877161D01*
X87393647Y-95792865D01*
X87316071Y-95689808D01*
X87314963Y-95688535D01*
X87164334Y-95515628D01*
X87395532Y-95679148D01*
X87546982Y-95794315D01*
X87570420Y-95866693D01*
X98690941Y-95866693D01*
X98570314Y-95631000D01*
X98529934Y-95546334D01*
X93373965Y-95546334D01*
X93360660Y-95666529D01*
X93331261Y-95652167D01*
X93320078Y-95478825D01*
X93328168Y-95451097D01*
X87100001Y-95451097D01*
X87037979Y-95410517D01*
X87026828Y-95399578D01*
X86959951Y-95288570D01*
X86969019Y-95247760D01*
X87032000Y-95273168D01*
X87074224Y-95352182D01*
X87100001Y-95451097D01*
X93328168Y-95451097D01*
X93331261Y-95440500D01*
X93362163Y-95429864D01*
X93373965Y-95546334D01*
X98529934Y-95546334D01*
X98341487Y-95151222D01*
X95899112Y-95151222D01*
X95887489Y-95201557D01*
X95842667Y-95207667D01*
X95772977Y-95176689D01*
X95786223Y-95151222D01*
X95886702Y-95141089D01*
X95899112Y-95151222D01*
X98341487Y-95151222D01*
X98238023Y-94934293D01*
X98213516Y-94883320D01*
X87037334Y-94883320D01*
X86980445Y-94894959D01*
X86842614Y-94816174D01*
X86833504Y-94809453D01*
X86714837Y-94696155D01*
X86705988Y-94629619D01*
X86709350Y-94628162D01*
X86836749Y-94654157D01*
X86973185Y-94760087D01*
X87037331Y-94882684D01*
X87037334Y-94883320D01*
X98213516Y-94883320D01*
X98145568Y-94742000D01*
X88053334Y-94742000D01*
X88011000Y-94784334D01*
X87968667Y-94742000D01*
X88011000Y-94699667D01*
X88053334Y-94742000D01*
X98145568Y-94742000D01*
X97964969Y-94366384D01*
X97738747Y-93902640D01*
X97735100Y-93895334D01*
X88392000Y-93895334D01*
X88349667Y-93937667D01*
X88307334Y-93895334D01*
X88349667Y-93853000D01*
X88392000Y-93895334D01*
X97735100Y-93895334D01*
X97671704Y-93768334D01*
X88180334Y-93768334D01*
X88173621Y-93846352D01*
X88142997Y-93853000D01*
X88056779Y-93791540D01*
X88053334Y-93768334D01*
X88082221Y-93685868D01*
X88090670Y-93683667D01*
X88162956Y-93742996D01*
X88180334Y-93768334D01*
X97671704Y-93768334D01*
X97546954Y-93518427D01*
X97432088Y-93295611D01*
X93380650Y-93295611D01*
X93365083Y-93405425D01*
X93336181Y-93406736D01*
X93315970Y-93293419D01*
X93329497Y-93244459D01*
X93367092Y-93212388D01*
X93380650Y-93295611D01*
X97432088Y-93295611D01*
X97403466Y-93240091D01*
X94874612Y-93240091D01*
X94791389Y-93253649D01*
X94681575Y-93238083D01*
X94680264Y-93209181D01*
X94793581Y-93188969D01*
X94842542Y-93202497D01*
X94874612Y-93240091D01*
X97403466Y-93240091D01*
X97377185Y-93189112D01*
X97217036Y-92890063D01*
X97164063Y-92794667D01*
X95927334Y-92794667D01*
X95885000Y-92837000D01*
X95842667Y-92794667D01*
X95885000Y-92752334D01*
X95927334Y-92794667D01*
X97164063Y-92794667D01*
X97054101Y-92596644D01*
X97022315Y-92540667D01*
X95927334Y-92540667D01*
X95885000Y-92583000D01*
X95842667Y-92540667D01*
X93810667Y-92540667D01*
X93768334Y-92583000D01*
X93726000Y-92540667D01*
X93768334Y-92498334D01*
X93810667Y-92540667D01*
X95842667Y-92540667D01*
X95885000Y-92498334D01*
X95927334Y-92540667D01*
X97022315Y-92540667D01*
X96950198Y-92413667D01*
X96878009Y-92286667D01*
X95842667Y-92286667D01*
X95800334Y-92329000D01*
X95758000Y-92286667D01*
X95800334Y-92244334D01*
X95842667Y-92286667D01*
X96878009Y-92286667D01*
X96747275Y-92056671D01*
X96690167Y-91955056D01*
X94488000Y-91955056D01*
X94438647Y-92047774D01*
X94337097Y-92032989D01*
X94253403Y-91921542D01*
X94278237Y-91863334D01*
X93641334Y-91863334D01*
X93599000Y-91905667D01*
X93556667Y-91863334D01*
X93599000Y-91821000D01*
X93641334Y-91863334D01*
X94278237Y-91863334D01*
X94290252Y-91835175D01*
X94353945Y-91821000D01*
X94470577Y-91889170D01*
X94488000Y-91955056D01*
X96690167Y-91955056D01*
X96651033Y-91885425D01*
X95721279Y-91885425D01*
X95638056Y-91898983D01*
X95528242Y-91883416D01*
X95527332Y-91863334D01*
X95250000Y-91863334D01*
X95207667Y-91905667D01*
X95165334Y-91863334D01*
X95207667Y-91821000D01*
X95250000Y-91863334D01*
X95527332Y-91863334D01*
X95526931Y-91854514D01*
X95640248Y-91834303D01*
X95689209Y-91847830D01*
X95721279Y-91885425D01*
X96651033Y-91885425D01*
X96588480Y-91774122D01*
X93888563Y-91774122D01*
X93799879Y-91784648D01*
X93768334Y-91776010D01*
X93717193Y-91759881D01*
X93111139Y-91759881D01*
X93095560Y-91813623D01*
X93011811Y-91900521D01*
X92991453Y-91863334D01*
X89916000Y-91863334D01*
X89873667Y-91905667D01*
X89831334Y-91863334D01*
X89873667Y-91821000D01*
X89916000Y-91863334D01*
X92991453Y-91863334D01*
X92969541Y-91823312D01*
X92965909Y-91755194D01*
X89746667Y-91755194D01*
X89726299Y-91856579D01*
X89634949Y-91835607D01*
X89577334Y-91801351D01*
X89445887Y-91702119D01*
X89408000Y-91649443D01*
X89479190Y-91611887D01*
X89577334Y-91603286D01*
X89720126Y-91663734D01*
X89746667Y-91755194D01*
X92965909Y-91755194D01*
X92964000Y-91719400D01*
X92984743Y-91596567D01*
X93056258Y-91625405D01*
X93058223Y-91627356D01*
X93111139Y-91759881D01*
X93717193Y-91759881D01*
X93571440Y-91713913D01*
X93500176Y-91691225D01*
X93411239Y-91624604D01*
X93447861Y-91557273D01*
X93579943Y-91519456D01*
X93716018Y-91580415D01*
X93857646Y-91694965D01*
X93888563Y-91774122D01*
X96588480Y-91774122D01*
X96572438Y-91745579D01*
X96543931Y-91694000D01*
X95588667Y-91694000D01*
X95546334Y-91736334D01*
X95504000Y-91694000D01*
X95546334Y-91651667D01*
X95588667Y-91694000D01*
X96543931Y-91694000D01*
X96509109Y-91630996D01*
X94184963Y-91630996D01*
X94133516Y-91632283D01*
X94013389Y-91528686D01*
X94005070Y-91510556D01*
X90565112Y-91510556D01*
X90553489Y-91560890D01*
X90508667Y-91567000D01*
X90438977Y-91536022D01*
X90452223Y-91510556D01*
X90552702Y-91500423D01*
X90565112Y-91510556D01*
X94005070Y-91510556D01*
X93999403Y-91498209D01*
X94004460Y-91440000D01*
X92964000Y-91440000D01*
X92921667Y-91482334D01*
X92879334Y-91440000D01*
X92921667Y-91397667D01*
X89662000Y-91397667D01*
X89593085Y-91471971D01*
X89530004Y-91482334D01*
X89442369Y-91441288D01*
X89450334Y-91397667D01*
X89558577Y-91316230D01*
X89582331Y-91313000D01*
X89659720Y-91377579D01*
X89662000Y-91397667D01*
X92921667Y-91397667D01*
X92964000Y-91440000D01*
X94004460Y-91440000D01*
X94007272Y-91407640D01*
X94084534Y-91412883D01*
X94169427Y-91502637D01*
X94182666Y-91531742D01*
X94184963Y-91630996D01*
X96509109Y-91630996D01*
X96450341Y-91524667D01*
X95165334Y-91524667D01*
X95123000Y-91567000D01*
X95080667Y-91524667D01*
X95123000Y-91482334D01*
X95165334Y-91524667D01*
X96450341Y-91524667D01*
X96444589Y-91514261D01*
X96383132Y-91397667D01*
X96365982Y-91364574D01*
X94646943Y-91364574D01*
X94625923Y-91481668D01*
X94600889Y-91510556D01*
X94476966Y-91564487D01*
X94406173Y-91476365D01*
X94403334Y-91440000D01*
X94471107Y-91327752D01*
X94530334Y-91313000D01*
X94646943Y-91364574D01*
X96365982Y-91364574D01*
X96320540Y-91276890D01*
X96263886Y-91171889D01*
X95645112Y-91171889D01*
X95633489Y-91222223D01*
X95588667Y-91228334D01*
X95518977Y-91197355D01*
X95532223Y-91171889D01*
X95632702Y-91161756D01*
X95645112Y-91171889D01*
X96263886Y-91171889D01*
X96193900Y-91042180D01*
X96170760Y-90999896D01*
X95289477Y-90999896D01*
X95270640Y-91030582D01*
X95201945Y-91113824D01*
X95212136Y-91150898D01*
X95236811Y-91225086D01*
X95175398Y-91197545D01*
X95122349Y-91143667D01*
X94191667Y-91143667D01*
X94187797Y-91221810D01*
X94159327Y-91228334D01*
X94039636Y-91166548D01*
X94022334Y-91143667D01*
X94024430Y-91101334D01*
X93810667Y-91101334D01*
X93768334Y-91143667D01*
X93726000Y-91101334D01*
X93740112Y-91087222D01*
X93443778Y-91087222D01*
X93432156Y-91137557D01*
X93387334Y-91143667D01*
X93317644Y-91112689D01*
X93330889Y-91087222D01*
X93431369Y-91077089D01*
X93443778Y-91087222D01*
X93740112Y-91087222D01*
X93768334Y-91059000D01*
X93810667Y-91101334D01*
X94024430Y-91101334D01*
X94026204Y-91065523D01*
X94054674Y-91059000D01*
X94174365Y-91120786D01*
X94191667Y-91143667D01*
X95122349Y-91143667D01*
X95080667Y-91101334D01*
X95027603Y-91007733D01*
X95043256Y-91002556D01*
X94883112Y-91002556D01*
X94871489Y-91052890D01*
X94826667Y-91059000D01*
X94756977Y-91028022D01*
X94770223Y-91002556D01*
X94870702Y-90992423D01*
X94883112Y-91002556D01*
X95043256Y-91002556D01*
X95110386Y-90980355D01*
X95176134Y-90981018D01*
X95289477Y-90999896D01*
X96170760Y-90999896D01*
X96103082Y-90876230D01*
X94878547Y-90876230D01*
X94754021Y-90867975D01*
X94712295Y-90858068D01*
X94549800Y-90837623D01*
X94487621Y-90866887D01*
X94412788Y-90913804D01*
X94229354Y-90944660D01*
X94191288Y-90947148D01*
X93995886Y-90937446D01*
X93901458Y-90895541D01*
X93550783Y-90895541D01*
X93500354Y-90971714D01*
X93472000Y-90974334D01*
X93406421Y-90902625D01*
X93404481Y-90889667D01*
X93218000Y-90889667D01*
X93187022Y-90959357D01*
X93161556Y-90946111D01*
X93160666Y-90937279D01*
X92950920Y-90937279D01*
X92929986Y-91041120D01*
X92866253Y-91040529D01*
X92839680Y-91016667D01*
X90254667Y-91016667D01*
X90212334Y-91059000D01*
X90170000Y-91016667D01*
X90212334Y-90974334D01*
X90254667Y-91016667D01*
X92839680Y-91016667D01*
X92762148Y-90947046D01*
X92752334Y-90903778D01*
X92782023Y-90841636D01*
X91769694Y-90841636D01*
X91720420Y-90881754D01*
X91604337Y-90889667D01*
X91486292Y-90858408D01*
X91480049Y-90808698D01*
X91590191Y-90762573D01*
X91654379Y-90775423D01*
X91769694Y-90841636D01*
X92782023Y-90841636D01*
X92797853Y-90808504D01*
X92887854Y-90826370D01*
X92950920Y-90937279D01*
X93160666Y-90937279D01*
X93151423Y-90845632D01*
X93161556Y-90833222D01*
X93211890Y-90844845D01*
X93218000Y-90889667D01*
X93404481Y-90889667D01*
X93388630Y-90783834D01*
X93400065Y-90678000D01*
X91186000Y-90678000D01*
X91143667Y-90720334D01*
X91101334Y-90678000D01*
X91143667Y-90635667D01*
X91186000Y-90678000D01*
X93400065Y-90678000D01*
X93401998Y-90660119D01*
X93451800Y-90690535D01*
X93472000Y-90720334D01*
X93550783Y-90895541D01*
X93901458Y-90895541D01*
X93897969Y-90893993D01*
X93895334Y-90883648D01*
X93961827Y-90809728D01*
X93996183Y-90805000D01*
X94016966Y-90764518D01*
X93932683Y-90680693D01*
X93834130Y-90595841D01*
X93864307Y-90561482D01*
X94040843Y-90553693D01*
X94225185Y-90569504D01*
X94274922Y-90634651D01*
X94262329Y-90683965D01*
X94254529Y-90767635D01*
X94346997Y-90785411D01*
X94509290Y-90761029D01*
X94765140Y-90747895D01*
X94871933Y-90809745D01*
X94878547Y-90876230D01*
X96103082Y-90876230D01*
X96033209Y-90748556D01*
X95306445Y-90748556D01*
X95294823Y-90798890D01*
X95250000Y-90805000D01*
X95180310Y-90774022D01*
X95193556Y-90748556D01*
X95294036Y-90738423D01*
X95306445Y-90748556D01*
X96033209Y-90748556D01*
X96021671Y-90727475D01*
X95865996Y-90445748D01*
X95371138Y-90445748D01*
X95261565Y-90540539D01*
X95073727Y-90605673D01*
X94911334Y-90618897D01*
X94615000Y-90608567D01*
X94737748Y-90593334D01*
X94572667Y-90593334D01*
X94530334Y-90635667D01*
X94488000Y-90593334D01*
X94530334Y-90551000D01*
X94572667Y-90593334D01*
X94737748Y-90593334D01*
X94890167Y-90574419D01*
X95092880Y-90514973D01*
X95165334Y-90418636D01*
X95169472Y-90409889D01*
X94629112Y-90409889D01*
X94617489Y-90460223D01*
X94572667Y-90466334D01*
X94502977Y-90435355D01*
X94506409Y-90428756D01*
X94216438Y-90428756D01*
X94114674Y-90442786D01*
X94022334Y-90444982D01*
X93848083Y-90438167D01*
X93803108Y-90418980D01*
X93830847Y-90408161D01*
X94034168Y-90392390D01*
X94169513Y-90406452D01*
X94216438Y-90428756D01*
X94506409Y-90428756D01*
X94516223Y-90409889D01*
X94616702Y-90399756D01*
X94629112Y-90409889D01*
X95169472Y-90409889D01*
X95209532Y-90325222D01*
X94883112Y-90325222D01*
X94871489Y-90375557D01*
X94826667Y-90381667D01*
X94756977Y-90350689D01*
X94770223Y-90325222D01*
X94870702Y-90315089D01*
X94883112Y-90325222D01*
X95209532Y-90325222D01*
X95218509Y-90306251D01*
X95335206Y-90328454D01*
X95357800Y-90348355D01*
X95371138Y-90445748D01*
X95865996Y-90445748D01*
X95824040Y-90369820D01*
X95758837Y-90254667D01*
X95504000Y-90254667D01*
X95461667Y-90297000D01*
X95441425Y-90276758D01*
X94451279Y-90276758D01*
X94368056Y-90290316D01*
X94258242Y-90274749D01*
X94257719Y-90263204D01*
X93596170Y-90263204D01*
X93534833Y-90287252D01*
X93387334Y-90297000D01*
X93207803Y-90311168D01*
X93181102Y-90339988D01*
X93260334Y-90381667D01*
X93372553Y-90437586D01*
X93331268Y-90457388D01*
X93276504Y-90460383D01*
X93173321Y-90501709D01*
X93175667Y-90551000D01*
X93185701Y-90626705D01*
X93103544Y-90619419D01*
X92981445Y-90534533D01*
X92977408Y-90530541D01*
X92873348Y-90470623D01*
X92800608Y-90541388D01*
X92699146Y-90618975D01*
X92613328Y-90560136D01*
X92581267Y-90396283D01*
X92582302Y-90381667D01*
X91397667Y-90381667D01*
X91393797Y-90459810D01*
X91365327Y-90466334D01*
X91245636Y-90404548D01*
X91228334Y-90381667D01*
X91232204Y-90303523D01*
X91260674Y-90297000D01*
X91380365Y-90358786D01*
X91397667Y-90381667D01*
X92582302Y-90381667D01*
X92583655Y-90362586D01*
X92605642Y-90111117D01*
X92607382Y-90085334D01*
X91609334Y-90085334D01*
X91567000Y-90127667D01*
X91524667Y-90085334D01*
X91567000Y-90043000D01*
X91609334Y-90085334D01*
X92607382Y-90085334D01*
X92614528Y-89979500D01*
X92634117Y-89916000D01*
X91863334Y-89916000D01*
X91821000Y-89958334D01*
X91778667Y-89916000D01*
X91821000Y-89873667D01*
X91863334Y-89916000D01*
X92634117Y-89916000D01*
X92663513Y-89820712D01*
X92776279Y-89812854D01*
X92941455Y-89955116D01*
X92983175Y-90005814D01*
X93126520Y-90144844D01*
X93243461Y-90188589D01*
X93249361Y-90186864D01*
X93400367Y-90186283D01*
X93514334Y-90218099D01*
X93596170Y-90263204D01*
X94257719Y-90263204D01*
X94256931Y-90245847D01*
X94370248Y-90225636D01*
X94419209Y-90239163D01*
X94451279Y-90276758D01*
X95441425Y-90276758D01*
X95419334Y-90254667D01*
X95461667Y-90212334D01*
X95504000Y-90254667D01*
X95758837Y-90254667D01*
X95615013Y-90000667D01*
X94488000Y-90000667D01*
X94445667Y-90043000D01*
X94403334Y-90000667D01*
X94445667Y-89958334D01*
X94488000Y-90000667D01*
X95615013Y-90000667D01*
X95606278Y-89985242D01*
X95563403Y-89916000D01*
X95165334Y-89916000D01*
X95123000Y-89958334D01*
X95080667Y-89916000D01*
X95123000Y-89873667D01*
X95165334Y-89916000D01*
X95563403Y-89916000D01*
X95510976Y-89831334D01*
X94911334Y-89831334D01*
X94869000Y-89873667D01*
X94826667Y-89831334D01*
X94869000Y-89789000D01*
X94911334Y-89831334D01*
X95510976Y-89831334D01*
X95466777Y-89759956D01*
X94418347Y-89759956D01*
X94360777Y-89842658D01*
X94333480Y-89872965D01*
X94104858Y-89999242D01*
X93853000Y-90023930D01*
X93514334Y-90018971D01*
X93853000Y-89958334D01*
X94027722Y-89918816D01*
X94043644Y-89892774D01*
X93987056Y-89885681D01*
X93836063Y-89864856D01*
X93850161Y-89831575D01*
X94025763Y-89788282D01*
X94164146Y-89765005D01*
X94361549Y-89739647D01*
X94418347Y-89759956D01*
X95466777Y-89759956D01*
X95447504Y-89728832D01*
X95362361Y-89619667D01*
X94107000Y-89619667D01*
X94081077Y-89686307D01*
X93984997Y-89704334D01*
X93844726Y-89669790D01*
X93810667Y-89619667D01*
X93878882Y-89543728D01*
X93932670Y-89535000D01*
X94076819Y-89586600D01*
X94107000Y-89619667D01*
X95362361Y-89619667D01*
X95329787Y-89577904D01*
X95235196Y-89509769D01*
X95145798Y-89501743D01*
X95138839Y-89502925D01*
X95035954Y-89511251D01*
X95059500Y-89486550D01*
X95160667Y-89378128D01*
X95121724Y-89253761D01*
X94958769Y-89162876D01*
X94953667Y-89161566D01*
X94905616Y-89139889D01*
X94290445Y-89139889D01*
X94278823Y-89190223D01*
X94234000Y-89196334D01*
X94164310Y-89165355D01*
X94170216Y-89154000D01*
X93895334Y-89154000D01*
X93853000Y-89196334D01*
X93810667Y-89154000D01*
X93853000Y-89111667D01*
X93895334Y-89154000D01*
X94170216Y-89154000D01*
X94177556Y-89139889D01*
X94278036Y-89129756D01*
X94290445Y-89139889D01*
X94905616Y-89139889D01*
X94794996Y-89089986D01*
X94780397Y-89069334D01*
X93556667Y-89069334D01*
X93514334Y-89111667D01*
X93472000Y-89069334D01*
X93514334Y-89027000D01*
X93556667Y-89069334D01*
X94780397Y-89069334D01*
X94742000Y-89015020D01*
X94774797Y-88984667D01*
X93810667Y-88984667D01*
X93768334Y-89027000D01*
X93726000Y-88984667D01*
X93768334Y-88942334D01*
X93810667Y-88984667D01*
X94774797Y-88984667D01*
X94786541Y-88973799D01*
X94869000Y-89027000D01*
X94969340Y-89088682D01*
X94993401Y-89021270D01*
X94993308Y-89016200D01*
X94939257Y-88849973D01*
X94820858Y-88688545D01*
X94693714Y-88604997D01*
X94679438Y-88603667D01*
X94587822Y-88537753D01*
X94499831Y-88383272D01*
X94440187Y-88205115D01*
X94433612Y-88068170D01*
X94462283Y-88033684D01*
X94519398Y-87939603D01*
X94511720Y-87838560D01*
X94444186Y-87727295D01*
X94386818Y-87724874D01*
X94331407Y-87701138D01*
X94330831Y-87618088D01*
X94319865Y-87428590D01*
X94289989Y-87354184D01*
X94288856Y-87212473D01*
X94355602Y-87115303D01*
X94462532Y-86970567D01*
X94488000Y-86891164D01*
X94446621Y-86854371D01*
X94335939Y-86938783D01*
G36*
X103484236Y-90101283D02*
X103486449Y-90290303D01*
X103497069Y-90360500D01*
X103551438Y-90645914D01*
X103639850Y-91064212D01*
X103755170Y-91584027D01*
X103890263Y-92173994D01*
X104037995Y-92802744D01*
X104191230Y-93438912D01*
X104272230Y-93768334D01*
X104394189Y-94260772D01*
X104519005Y-94765249D01*
X104632319Y-95223702D01*
X104719771Y-95578064D01*
X104722383Y-95588667D01*
X104821205Y-96020689D01*
X104918304Y-96495847D01*
X104990915Y-96901000D01*
X105051044Y-97221205D01*
X105144531Y-97653305D01*
X105259687Y-98145960D01*
X105384825Y-98647833D01*
X105414970Y-98763667D01*
X105534124Y-99223954D01*
X105641723Y-99651784D01*
X105728206Y-100008246D01*
X105784009Y-100254433D01*
X105794963Y-100309769D01*
X105850559Y-100527705D01*
X105915076Y-100663032D01*
X105928273Y-100675015D01*
X106026651Y-100685782D01*
X106271230Y-100696237D01*
X106638876Y-100706181D01*
X107106457Y-100715419D01*
X107650839Y-100723753D01*
X108248890Y-100730986D01*
X108877476Y-100736920D01*
X109513465Y-100741359D01*
X110133723Y-100744105D01*
X110715119Y-100744961D01*
X111234518Y-100743730D01*
X111668787Y-100740214D01*
X111994795Y-100734217D01*
X112152561Y-100728075D01*
X112587455Y-100702817D01*
X112426882Y-100008409D01*
X112351011Y-99674974D01*
X112250504Y-99225675D01*
X112136387Y-98710183D01*
X112019686Y-98178169D01*
X111972029Y-97959334D01*
X111733820Y-96896287D01*
X111512813Y-95985892D01*
X111303617Y-95212984D01*
X111100834Y-94562395D01*
X110899073Y-94018959D01*
X110692937Y-93567510D01*
X110477034Y-93192882D01*
X110245969Y-92879908D01*
X110112246Y-92730420D01*
X109931444Y-92554376D01*
X109747531Y-92414323D01*
X109524535Y-92291855D01*
X109226484Y-92168568D01*
X108817408Y-92026055D01*
X108590092Y-91951583D01*
X108244040Y-91833016D01*
X107776898Y-91663644D01*
X107224262Y-91456879D01*
X106621727Y-91226134D01*
X106004888Y-90984822D01*
X105660253Y-90847575D01*
X105110763Y-90628780D01*
X104610475Y-90432614D01*
X104181636Y-90267555D01*
X103846496Y-90142082D01*
X103627303Y-90064675D01*
X103549034Y-90043000D01*
X103484236Y-90101283D01*
X103484236Y-90101283D01*
G37*
X103484236Y-90101283D02*
X103486449Y-90290303D01*
X103497069Y-90360500D01*
X103551438Y-90645914D01*
X103639850Y-91064212D01*
X103755170Y-91584027D01*
X103890263Y-92173994D01*
X104037995Y-92802744D01*
X104191230Y-93438912D01*
X104272230Y-93768334D01*
X104394189Y-94260772D01*
X104519005Y-94765249D01*
X104632319Y-95223702D01*
X104719771Y-95578064D01*
X104722383Y-95588667D01*
X104821205Y-96020689D01*
X104918304Y-96495847D01*
X104990915Y-96901000D01*
X105051044Y-97221205D01*
X105144531Y-97653305D01*
X105259687Y-98145960D01*
X105384825Y-98647833D01*
X105414970Y-98763667D01*
X105534124Y-99223954D01*
X105641723Y-99651784D01*
X105728206Y-100008246D01*
X105784009Y-100254433D01*
X105794963Y-100309769D01*
X105850559Y-100527705D01*
X105915076Y-100663032D01*
X105928273Y-100675015D01*
X106026651Y-100685782D01*
X106271230Y-100696237D01*
X106638876Y-100706181D01*
X107106457Y-100715419D01*
X107650839Y-100723753D01*
X108248890Y-100730986D01*
X108877476Y-100736920D01*
X109513465Y-100741359D01*
X110133723Y-100744105D01*
X110715119Y-100744961D01*
X111234518Y-100743730D01*
X111668787Y-100740214D01*
X111994795Y-100734217D01*
X112152561Y-100728075D01*
X112587455Y-100702817D01*
X112426882Y-100008409D01*
X112351011Y-99674974D01*
X112250504Y-99225675D01*
X112136387Y-98710183D01*
X112019686Y-98178169D01*
X111972029Y-97959334D01*
X111733820Y-96896287D01*
X111512813Y-95985892D01*
X111303617Y-95212984D01*
X111100834Y-94562395D01*
X110899073Y-94018959D01*
X110692937Y-93567510D01*
X110477034Y-93192882D01*
X110245969Y-92879908D01*
X110112246Y-92730420D01*
X109931444Y-92554376D01*
X109747531Y-92414323D01*
X109524535Y-92291855D01*
X109226484Y-92168568D01*
X108817408Y-92026055D01*
X108590092Y-91951583D01*
X108244040Y-91833016D01*
X107776898Y-91663644D01*
X107224262Y-91456879D01*
X106621727Y-91226134D01*
X106004888Y-90984822D01*
X105660253Y-90847575D01*
X105110763Y-90628780D01*
X104610475Y-90432614D01*
X104181636Y-90267555D01*
X103846496Y-90142082D01*
X103627303Y-90064675D01*
X103549034Y-90043000D01*
X103484236Y-90101283D01*
D11*
X77050166Y-59159142D02*
X77097785Y-59206761D01*
X77240642Y-59254380D01*
X77335880Y-59254380D01*
X77478738Y-59206761D01*
X77573976Y-59111523D01*
X77621595Y-59016285D01*
X77669214Y-58825809D01*
X77669214Y-58682952D01*
X77621595Y-58492476D01*
X77573976Y-58397238D01*
X77478738Y-58302000D01*
X77335880Y-58254380D01*
X77240642Y-58254380D01*
X77097785Y-58302000D01*
X77050166Y-58349619D01*
X76669214Y-58349619D02*
X76621595Y-58302000D01*
X76526357Y-58254380D01*
X76288261Y-58254380D01*
X76193023Y-58302000D01*
X76145404Y-58349619D01*
X76097785Y-58444857D01*
X76097785Y-58540095D01*
X76145404Y-58682952D01*
X76716833Y-59254380D01*
X76097785Y-59254380D01*
X77050166Y-62461142D02*
X77097785Y-62508761D01*
X77240642Y-62556380D01*
X77335880Y-62556380D01*
X77478738Y-62508761D01*
X77573976Y-62413523D01*
X77621595Y-62318285D01*
X77669214Y-62127809D01*
X77669214Y-61984952D01*
X77621595Y-61794476D01*
X77573976Y-61699238D01*
X77478738Y-61604000D01*
X77335880Y-61556380D01*
X77240642Y-61556380D01*
X77097785Y-61604000D01*
X77050166Y-61651619D01*
X76193023Y-61889714D02*
X76193023Y-62556380D01*
X76431119Y-61508761D02*
X76669214Y-62223047D01*
X76050166Y-62223047D01*
X77050166Y-65763142D02*
X77097785Y-65810761D01*
X77240642Y-65858380D01*
X77335880Y-65858380D01*
X77478738Y-65810761D01*
X77573976Y-65715523D01*
X77621595Y-65620285D01*
X77669214Y-65429809D01*
X77669214Y-65286952D01*
X77621595Y-65096476D01*
X77573976Y-65001238D01*
X77478738Y-64906000D01*
X77335880Y-64858380D01*
X77240642Y-64858380D01*
X77097785Y-64906000D01*
X77050166Y-64953619D01*
X76145404Y-64858380D02*
X76621595Y-64858380D01*
X76669214Y-65334571D01*
X76621595Y-65286952D01*
X76526357Y-65239333D01*
X76288261Y-65239333D01*
X76193023Y-65286952D01*
X76145404Y-65334571D01*
X76097785Y-65429809D01*
X76097785Y-65667904D01*
X76145404Y-65763142D01*
X76193023Y-65810761D01*
X76288261Y-65858380D01*
X76526357Y-65858380D01*
X76621595Y-65810761D01*
X76669214Y-65763142D01*
X77050166Y-69065142D02*
X77097785Y-69112761D01*
X77240642Y-69160380D01*
X77335880Y-69160380D01*
X77478738Y-69112761D01*
X77573976Y-69017523D01*
X77621595Y-68922285D01*
X77669214Y-68731809D01*
X77669214Y-68588952D01*
X77621595Y-68398476D01*
X77573976Y-68303238D01*
X77478738Y-68208000D01*
X77335880Y-68160380D01*
X77240642Y-68160380D01*
X77097785Y-68208000D01*
X77050166Y-68255619D01*
X76193023Y-68160380D02*
X76383500Y-68160380D01*
X76478738Y-68208000D01*
X76526357Y-68255619D01*
X76621595Y-68398476D01*
X76669214Y-68588952D01*
X76669214Y-68969904D01*
X76621595Y-69065142D01*
X76573976Y-69112761D01*
X76478738Y-69160380D01*
X76288261Y-69160380D01*
X76193023Y-69112761D01*
X76145404Y-69065142D01*
X76097785Y-68969904D01*
X76097785Y-68731809D01*
X76145404Y-68636571D01*
X76193023Y-68588952D01*
X76288261Y-68541333D01*
X76478738Y-68541333D01*
X76573976Y-68588952D01*
X76621595Y-68636571D01*
X76669214Y-68731809D01*
X77050166Y-72367142D02*
X77097785Y-72414761D01*
X77240642Y-72462380D01*
X77335880Y-72462380D01*
X77478738Y-72414761D01*
X77573976Y-72319523D01*
X77621595Y-72224285D01*
X77669214Y-72033809D01*
X77669214Y-71890952D01*
X77621595Y-71700476D01*
X77573976Y-71605238D01*
X77478738Y-71510000D01*
X77335880Y-71462380D01*
X77240642Y-71462380D01*
X77097785Y-71510000D01*
X77050166Y-71557619D01*
X76716833Y-71462380D02*
X76050166Y-71462380D01*
X76478738Y-72462380D01*
X77526357Y-75669142D02*
X77573976Y-75716761D01*
X77716833Y-75764380D01*
X77812071Y-75764380D01*
X77954928Y-75716761D01*
X78050166Y-75621523D01*
X78097785Y-75526285D01*
X78145404Y-75335809D01*
X78145404Y-75192952D01*
X78097785Y-75002476D01*
X78050166Y-74907238D01*
X77954928Y-74812000D01*
X77812071Y-74764380D01*
X77716833Y-74764380D01*
X77573976Y-74812000D01*
X77526357Y-74859619D01*
X76573976Y-75764380D02*
X77145404Y-75764380D01*
X76859690Y-75764380D02*
X76859690Y-74764380D01*
X76954928Y-74907238D01*
X77050166Y-75002476D01*
X77145404Y-75050095D01*
X75621595Y-75764380D02*
X76193023Y-75764380D01*
X75907309Y-75764380D02*
X75907309Y-74764380D01*
X76002547Y-74907238D01*
X76097785Y-75002476D01*
X76193023Y-75050095D01*
X77526357Y-78971142D02*
X77573976Y-79018761D01*
X77716833Y-79066380D01*
X77812071Y-79066380D01*
X77954928Y-79018761D01*
X78050166Y-78923523D01*
X78097785Y-78828285D01*
X78145404Y-78637809D01*
X78145404Y-78494952D01*
X78097785Y-78304476D01*
X78050166Y-78209238D01*
X77954928Y-78114000D01*
X77812071Y-78066380D01*
X77716833Y-78066380D01*
X77573976Y-78114000D01*
X77526357Y-78161619D01*
X76573976Y-79066380D02*
X77145404Y-79066380D01*
X76859690Y-79066380D02*
X76859690Y-78066380D01*
X76954928Y-78209238D01*
X77050166Y-78304476D01*
X77145404Y-78352095D01*
X76193023Y-78161619D02*
X76145404Y-78114000D01*
X76050166Y-78066380D01*
X75812071Y-78066380D01*
X75716833Y-78114000D01*
X75669214Y-78161619D01*
X75621595Y-78256857D01*
X75621595Y-78352095D01*
X75669214Y-78494952D01*
X76240642Y-79066380D01*
X75621595Y-79066380D01*
X77526357Y-82273142D02*
X77573976Y-82320761D01*
X77716833Y-82368380D01*
X77812071Y-82368380D01*
X77954928Y-82320761D01*
X78050166Y-82225523D01*
X78097785Y-82130285D01*
X78145404Y-81939809D01*
X78145404Y-81796952D01*
X78097785Y-81606476D01*
X78050166Y-81511238D01*
X77954928Y-81416000D01*
X77812071Y-81368380D01*
X77716833Y-81368380D01*
X77573976Y-81416000D01*
X77526357Y-81463619D01*
X76573976Y-82368380D02*
X77145404Y-82368380D01*
X76859690Y-82368380D02*
X76859690Y-81368380D01*
X76954928Y-81511238D01*
X77050166Y-81606476D01*
X77145404Y-81654095D01*
X76240642Y-81368380D02*
X75621595Y-81368380D01*
X75954928Y-81749333D01*
X75812071Y-81749333D01*
X75716833Y-81796952D01*
X75669214Y-81844571D01*
X75621595Y-81939809D01*
X75621595Y-82177904D01*
X75669214Y-82273142D01*
X75716833Y-82320761D01*
X75812071Y-82368380D01*
X76097785Y-82368380D01*
X76193023Y-82320761D01*
X76240642Y-82273142D01*
X77526357Y-85575142D02*
X77573976Y-85622761D01*
X77716833Y-85670380D01*
X77812071Y-85670380D01*
X77954928Y-85622761D01*
X78050166Y-85527523D01*
X78097785Y-85432285D01*
X78145404Y-85241809D01*
X78145404Y-85098952D01*
X78097785Y-84908476D01*
X78050166Y-84813238D01*
X77954928Y-84718000D01*
X77812071Y-84670380D01*
X77716833Y-84670380D01*
X77573976Y-84718000D01*
X77526357Y-84765619D01*
X76573976Y-85670380D02*
X77145404Y-85670380D01*
X76859690Y-85670380D02*
X76859690Y-84670380D01*
X76954928Y-84813238D01*
X77050166Y-84908476D01*
X77145404Y-84956095D01*
X75716833Y-84670380D02*
X75907309Y-84670380D01*
X76002547Y-84718000D01*
X76050166Y-84765619D01*
X76145404Y-84908476D01*
X76193023Y-85098952D01*
X76193023Y-85479904D01*
X76145404Y-85575142D01*
X76097785Y-85622761D01*
X76002547Y-85670380D01*
X75812071Y-85670380D01*
X75716833Y-85622761D01*
X75669214Y-85575142D01*
X75621595Y-85479904D01*
X75621595Y-85241809D01*
X75669214Y-85146571D01*
X75716833Y-85098952D01*
X75812071Y-85051333D01*
X76002547Y-85051333D01*
X76097785Y-85098952D01*
X76145404Y-85146571D01*
X76193023Y-85241809D01*
X77526357Y-88877142D02*
X77573976Y-88924761D01*
X77716833Y-88972380D01*
X77812071Y-88972380D01*
X77954928Y-88924761D01*
X78050166Y-88829523D01*
X78097785Y-88734285D01*
X78145404Y-88543809D01*
X78145404Y-88400952D01*
X78097785Y-88210476D01*
X78050166Y-88115238D01*
X77954928Y-88020000D01*
X77812071Y-87972380D01*
X77716833Y-87972380D01*
X77573976Y-88020000D01*
X77526357Y-88067619D01*
X76573976Y-88972380D02*
X77145404Y-88972380D01*
X76859690Y-88972380D02*
X76859690Y-87972380D01*
X76954928Y-88115238D01*
X77050166Y-88210476D01*
X77145404Y-88258095D01*
X76097785Y-88972380D02*
X75907309Y-88972380D01*
X75812071Y-88924761D01*
X75764452Y-88877142D01*
X75669214Y-88734285D01*
X75621595Y-88543809D01*
X75621595Y-88162857D01*
X75669214Y-88067619D01*
X75716833Y-88020000D01*
X75812071Y-87972380D01*
X76002547Y-87972380D01*
X76097785Y-88020000D01*
X76145404Y-88067619D01*
X76193023Y-88162857D01*
X76193023Y-88400952D01*
X76145404Y-88496190D01*
X76097785Y-88543809D01*
X76002547Y-88591428D01*
X75812071Y-88591428D01*
X75716833Y-88543809D01*
X75669214Y-88496190D01*
X75621595Y-88400952D01*
X77526357Y-92179142D02*
X77573976Y-92226761D01*
X77716833Y-92274380D01*
X77812071Y-92274380D01*
X77954928Y-92226761D01*
X78050166Y-92131523D01*
X78097785Y-92036285D01*
X78145404Y-91845809D01*
X78145404Y-91702952D01*
X78097785Y-91512476D01*
X78050166Y-91417238D01*
X77954928Y-91322000D01*
X77812071Y-91274380D01*
X77716833Y-91274380D01*
X77573976Y-91322000D01*
X77526357Y-91369619D01*
X77145404Y-91369619D02*
X77097785Y-91322000D01*
X77002547Y-91274380D01*
X76764452Y-91274380D01*
X76669214Y-91322000D01*
X76621595Y-91369619D01*
X76573976Y-91464857D01*
X76573976Y-91560095D01*
X76621595Y-91702952D01*
X77193023Y-92274380D01*
X76573976Y-92274380D01*
X75954928Y-91274380D02*
X75859690Y-91274380D01*
X75764452Y-91322000D01*
X75716833Y-91369619D01*
X75669214Y-91464857D01*
X75621595Y-91655333D01*
X75621595Y-91893428D01*
X75669214Y-92083904D01*
X75716833Y-92179142D01*
X75764452Y-92226761D01*
X75859690Y-92274380D01*
X75954928Y-92274380D01*
X76050166Y-92226761D01*
X76097785Y-92179142D01*
X76145404Y-92083904D01*
X76193023Y-91893428D01*
X76193023Y-91655333D01*
X76145404Y-91464857D01*
X76097785Y-91369619D01*
X76050166Y-91322000D01*
X75954928Y-91274380D01*
X77526357Y-95481142D02*
X77573976Y-95528761D01*
X77716833Y-95576380D01*
X77812071Y-95576380D01*
X77954928Y-95528761D01*
X78050166Y-95433523D01*
X78097785Y-95338285D01*
X78145404Y-95147809D01*
X78145404Y-95004952D01*
X78097785Y-94814476D01*
X78050166Y-94719238D01*
X77954928Y-94624000D01*
X77812071Y-94576380D01*
X77716833Y-94576380D01*
X77573976Y-94624000D01*
X77526357Y-94671619D01*
X77145404Y-94671619D02*
X77097785Y-94624000D01*
X77002547Y-94576380D01*
X76764452Y-94576380D01*
X76669214Y-94624000D01*
X76621595Y-94671619D01*
X76573976Y-94766857D01*
X76573976Y-94862095D01*
X76621595Y-95004952D01*
X77193023Y-95576380D01*
X76573976Y-95576380D01*
X75621595Y-95576380D02*
X76193023Y-95576380D01*
X75907309Y-95576380D02*
X75907309Y-94576380D01*
X76002547Y-94719238D01*
X76097785Y-94814476D01*
X76193023Y-94862095D01*
X62396666Y-66826380D02*
X62730000Y-66350190D01*
X62968095Y-66826380D02*
X62968095Y-65826380D01*
X62587142Y-65826380D01*
X62491904Y-65874000D01*
X62444285Y-65921619D01*
X62396666Y-66016857D01*
X62396666Y-66159714D01*
X62444285Y-66254952D01*
X62491904Y-66302571D01*
X62587142Y-66350190D01*
X62968095Y-66350190D01*
X61539523Y-66159714D02*
X61539523Y-66826380D01*
X61777619Y-65778761D02*
X62015714Y-66493047D01*
X61396666Y-66493047D01*
X70270666Y-70128380D02*
X70604000Y-69652190D01*
X70842095Y-70128380D02*
X70842095Y-69128380D01*
X70461142Y-69128380D01*
X70365904Y-69176000D01*
X70318285Y-69223619D01*
X70270666Y-69318857D01*
X70270666Y-69461714D01*
X70318285Y-69556952D01*
X70365904Y-69604571D01*
X70461142Y-69652190D01*
X70842095Y-69652190D01*
X69413523Y-69128380D02*
X69604000Y-69128380D01*
X69699238Y-69176000D01*
X69746857Y-69223619D01*
X69842095Y-69366476D01*
X69889714Y-69556952D01*
X69889714Y-69937904D01*
X69842095Y-70033142D01*
X69794476Y-70080761D01*
X69699238Y-70128380D01*
X69508761Y-70128380D01*
X69413523Y-70080761D01*
X69365904Y-70033142D01*
X69318285Y-69937904D01*
X69318285Y-69699809D01*
X69365904Y-69604571D01*
X69413523Y-69556952D01*
X69508761Y-69509333D01*
X69699238Y-69509333D01*
X69794476Y-69556952D01*
X69842095Y-69604571D01*
X69889714Y-69699809D01*
X62396666Y-73430380D02*
X62730000Y-72954190D01*
X62968095Y-73430380D02*
X62968095Y-72430380D01*
X62587142Y-72430380D01*
X62491904Y-72478000D01*
X62444285Y-72525619D01*
X62396666Y-72620857D01*
X62396666Y-72763714D01*
X62444285Y-72858952D01*
X62491904Y-72906571D01*
X62587142Y-72954190D01*
X62968095Y-72954190D01*
X61825238Y-72858952D02*
X61920476Y-72811333D01*
X61968095Y-72763714D01*
X62015714Y-72668476D01*
X62015714Y-72620857D01*
X61968095Y-72525619D01*
X61920476Y-72478000D01*
X61825238Y-72430380D01*
X61634761Y-72430380D01*
X61539523Y-72478000D01*
X61491904Y-72525619D01*
X61444285Y-72620857D01*
X61444285Y-72668476D01*
X61491904Y-72763714D01*
X61539523Y-72811333D01*
X61634761Y-72858952D01*
X61825238Y-72858952D01*
X61920476Y-72906571D01*
X61968095Y-72954190D01*
X62015714Y-73049428D01*
X62015714Y-73239904D01*
X61968095Y-73335142D01*
X61920476Y-73382761D01*
X61825238Y-73430380D01*
X61634761Y-73430380D01*
X61539523Y-73382761D01*
X61491904Y-73335142D01*
X61444285Y-73239904D01*
X61444285Y-73049428D01*
X61491904Y-72954190D01*
X61539523Y-72906571D01*
X61634761Y-72858952D01*
X70746857Y-76732380D02*
X71080190Y-76256190D01*
X71318285Y-76732380D02*
X71318285Y-75732380D01*
X70937333Y-75732380D01*
X70842095Y-75780000D01*
X70794476Y-75827619D01*
X70746857Y-75922857D01*
X70746857Y-76065714D01*
X70794476Y-76160952D01*
X70842095Y-76208571D01*
X70937333Y-76256190D01*
X71318285Y-76256190D01*
X69794476Y-76732380D02*
X70365904Y-76732380D01*
X70080190Y-76732380D02*
X70080190Y-75732380D01*
X70175428Y-75875238D01*
X70270666Y-75970476D01*
X70365904Y-76018095D01*
X69175428Y-75732380D02*
X69080190Y-75732380D01*
X68984952Y-75780000D01*
X68937333Y-75827619D01*
X68889714Y-75922857D01*
X68842095Y-76113333D01*
X68842095Y-76351428D01*
X68889714Y-76541904D01*
X68937333Y-76637142D01*
X68984952Y-76684761D01*
X69080190Y-76732380D01*
X69175428Y-76732380D01*
X69270666Y-76684761D01*
X69318285Y-76637142D01*
X69365904Y-76541904D01*
X69413523Y-76351428D01*
X69413523Y-76113333D01*
X69365904Y-75922857D01*
X69318285Y-75827619D01*
X69270666Y-75780000D01*
X69175428Y-75732380D01*
X62872857Y-80034380D02*
X63206190Y-79558190D01*
X63444285Y-80034380D02*
X63444285Y-79034380D01*
X63063333Y-79034380D01*
X62968095Y-79082000D01*
X62920476Y-79129619D01*
X62872857Y-79224857D01*
X62872857Y-79367714D01*
X62920476Y-79462952D01*
X62968095Y-79510571D01*
X63063333Y-79558190D01*
X63444285Y-79558190D01*
X61920476Y-80034380D02*
X62491904Y-80034380D01*
X62206190Y-80034380D02*
X62206190Y-79034380D01*
X62301428Y-79177238D01*
X62396666Y-79272476D01*
X62491904Y-79320095D01*
X61539523Y-79129619D02*
X61491904Y-79082000D01*
X61396666Y-79034380D01*
X61158571Y-79034380D01*
X61063333Y-79082000D01*
X61015714Y-79129619D01*
X60968095Y-79224857D01*
X60968095Y-79320095D01*
X61015714Y-79462952D01*
X61587142Y-80034380D01*
X60968095Y-80034380D01*
X70746857Y-83336380D02*
X71080190Y-82860190D01*
X71318285Y-83336380D02*
X71318285Y-82336380D01*
X70937333Y-82336380D01*
X70842095Y-82384000D01*
X70794476Y-82431619D01*
X70746857Y-82526857D01*
X70746857Y-82669714D01*
X70794476Y-82764952D01*
X70842095Y-82812571D01*
X70937333Y-82860190D01*
X71318285Y-82860190D01*
X69794476Y-83336380D02*
X70365904Y-83336380D01*
X70080190Y-83336380D02*
X70080190Y-82336380D01*
X70175428Y-82479238D01*
X70270666Y-82574476D01*
X70365904Y-82622095D01*
X68937333Y-82669714D02*
X68937333Y-83336380D01*
X69175428Y-82288761D02*
X69413523Y-83003047D01*
X68794476Y-83003047D01*
X62872857Y-86638380D02*
X63206190Y-86162190D01*
X63444285Y-86638380D02*
X63444285Y-85638380D01*
X63063333Y-85638380D01*
X62968095Y-85686000D01*
X62920476Y-85733619D01*
X62872857Y-85828857D01*
X62872857Y-85971714D01*
X62920476Y-86066952D01*
X62968095Y-86114571D01*
X63063333Y-86162190D01*
X63444285Y-86162190D01*
X61920476Y-86638380D02*
X62491904Y-86638380D01*
X62206190Y-86638380D02*
X62206190Y-85638380D01*
X62301428Y-85781238D01*
X62396666Y-85876476D01*
X62491904Y-85924095D01*
X61349047Y-86066952D02*
X61444285Y-86019333D01*
X61491904Y-85971714D01*
X61539523Y-85876476D01*
X61539523Y-85828857D01*
X61491904Y-85733619D01*
X61444285Y-85686000D01*
X61349047Y-85638380D01*
X61158571Y-85638380D01*
X61063333Y-85686000D01*
X61015714Y-85733619D01*
X60968095Y-85828857D01*
X60968095Y-85876476D01*
X61015714Y-85971714D01*
X61063333Y-86019333D01*
X61158571Y-86066952D01*
X61349047Y-86066952D01*
X61444285Y-86114571D01*
X61491904Y-86162190D01*
X61539523Y-86257428D01*
X61539523Y-86447904D01*
X61491904Y-86543142D01*
X61444285Y-86590761D01*
X61349047Y-86638380D01*
X61158571Y-86638380D01*
X61063333Y-86590761D01*
X61015714Y-86543142D01*
X60968095Y-86447904D01*
X60968095Y-86257428D01*
X61015714Y-86162190D01*
X61063333Y-86114571D01*
X61158571Y-86066952D01*
X70746857Y-89940380D02*
X71080190Y-89464190D01*
X71318285Y-89940380D02*
X71318285Y-88940380D01*
X70937333Y-88940380D01*
X70842095Y-88988000D01*
X70794476Y-89035619D01*
X70746857Y-89130857D01*
X70746857Y-89273714D01*
X70794476Y-89368952D01*
X70842095Y-89416571D01*
X70937333Y-89464190D01*
X71318285Y-89464190D01*
X70365904Y-89035619D02*
X70318285Y-88988000D01*
X70223047Y-88940380D01*
X69984952Y-88940380D01*
X69889714Y-88988000D01*
X69842095Y-89035619D01*
X69794476Y-89130857D01*
X69794476Y-89226095D01*
X69842095Y-89368952D01*
X70413523Y-89940380D01*
X69794476Y-89940380D01*
X68842095Y-89940380D02*
X69413523Y-89940380D01*
X69127809Y-89940380D02*
X69127809Y-88940380D01*
X69223047Y-89083238D01*
X69318285Y-89178476D01*
X69413523Y-89226095D01*
X62872857Y-93242380D02*
X63206190Y-92766190D01*
X63444285Y-93242380D02*
X63444285Y-92242380D01*
X63063333Y-92242380D01*
X62968095Y-92290000D01*
X62920476Y-92337619D01*
X62872857Y-92432857D01*
X62872857Y-92575714D01*
X62920476Y-92670952D01*
X62968095Y-92718571D01*
X63063333Y-92766190D01*
X63444285Y-92766190D01*
X62491904Y-92337619D02*
X62444285Y-92290000D01*
X62349047Y-92242380D01*
X62110952Y-92242380D01*
X62015714Y-92290000D01*
X61968095Y-92337619D01*
X61920476Y-92432857D01*
X61920476Y-92528095D01*
X61968095Y-92670952D01*
X62539523Y-93242380D01*
X61920476Y-93242380D01*
X61015714Y-92242380D02*
X61491904Y-92242380D01*
X61539523Y-92718571D01*
X61491904Y-92670952D01*
X61396666Y-92623333D01*
X61158571Y-92623333D01*
X61063333Y-92670952D01*
X61015714Y-92718571D01*
X60968095Y-92813809D01*
X60968095Y-93051904D01*
X61015714Y-93147142D01*
X61063333Y-93194761D01*
X61158571Y-93242380D01*
X61396666Y-93242380D01*
X61491904Y-93194761D01*
X61539523Y-93147142D01*
X70746857Y-96544380D02*
X71080190Y-96068190D01*
X71318285Y-96544380D02*
X71318285Y-95544380D01*
X70937333Y-95544380D01*
X70842095Y-95592000D01*
X70794476Y-95639619D01*
X70746857Y-95734857D01*
X70746857Y-95877714D01*
X70794476Y-95972952D01*
X70842095Y-96020571D01*
X70937333Y-96068190D01*
X71318285Y-96068190D01*
X70365904Y-95639619D02*
X70318285Y-95592000D01*
X70223047Y-95544380D01*
X69984952Y-95544380D01*
X69889714Y-95592000D01*
X69842095Y-95639619D01*
X69794476Y-95734857D01*
X69794476Y-95830095D01*
X69842095Y-95972952D01*
X70413523Y-96544380D01*
X69794476Y-96544380D01*
X69223047Y-95972952D02*
X69318285Y-95925333D01*
X69365904Y-95877714D01*
X69413523Y-95782476D01*
X69413523Y-95734857D01*
X69365904Y-95639619D01*
X69318285Y-95592000D01*
X69223047Y-95544380D01*
X69032571Y-95544380D01*
X68937333Y-95592000D01*
X68889714Y-95639619D01*
X68842095Y-95734857D01*
X68842095Y-95782476D01*
X68889714Y-95877714D01*
X68937333Y-95925333D01*
X69032571Y-95972952D01*
X69223047Y-95972952D01*
X69318285Y-96020571D01*
X69365904Y-96068190D01*
X69413523Y-96163428D01*
X69413523Y-96353904D01*
X69365904Y-96449142D01*
X69318285Y-96496761D01*
X69223047Y-96544380D01*
X69032571Y-96544380D01*
X68937333Y-96496761D01*
X68889714Y-96449142D01*
X68842095Y-96353904D01*
X68842095Y-96163428D01*
X68889714Y-96068190D01*
X68937333Y-96020571D01*
X69032571Y-95972952D01*
X62872857Y-99846380D02*
X63206190Y-99370190D01*
X63444285Y-99846380D02*
X63444285Y-98846380D01*
X63063333Y-98846380D01*
X62968095Y-98894000D01*
X62920476Y-98941619D01*
X62872857Y-99036857D01*
X62872857Y-99179714D01*
X62920476Y-99274952D01*
X62968095Y-99322571D01*
X63063333Y-99370190D01*
X63444285Y-99370190D01*
X62539523Y-98846380D02*
X61920476Y-98846380D01*
X62253809Y-99227333D01*
X62110952Y-99227333D01*
X62015714Y-99274952D01*
X61968095Y-99322571D01*
X61920476Y-99417809D01*
X61920476Y-99655904D01*
X61968095Y-99751142D01*
X62015714Y-99798761D01*
X62110952Y-99846380D01*
X62396666Y-99846380D01*
X62491904Y-99798761D01*
X62539523Y-99751142D01*
X61301428Y-98846380D02*
X61206190Y-98846380D01*
X61110952Y-98894000D01*
X61063333Y-98941619D01*
X61015714Y-99036857D01*
X60968095Y-99227333D01*
X60968095Y-99465428D01*
X61015714Y-99655904D01*
X61063333Y-99751142D01*
X61110952Y-99798761D01*
X61206190Y-99846380D01*
X61301428Y-99846380D01*
X61396666Y-99798761D01*
X61444285Y-99751142D01*
X61491904Y-99655904D01*
X61539523Y-99465428D01*
X61539523Y-99227333D01*
X61491904Y-99036857D01*
X61444285Y-98941619D01*
X61396666Y-98894000D01*
X61301428Y-98846380D01*
X70746857Y-103148380D02*
X71080190Y-102672190D01*
X71318285Y-103148380D02*
X71318285Y-102148380D01*
X70937333Y-102148380D01*
X70842095Y-102196000D01*
X70794476Y-102243619D01*
X70746857Y-102338857D01*
X70746857Y-102481714D01*
X70794476Y-102576952D01*
X70842095Y-102624571D01*
X70937333Y-102672190D01*
X71318285Y-102672190D01*
X70413523Y-102148380D02*
X69794476Y-102148380D01*
X70127809Y-102529333D01*
X69984952Y-102529333D01*
X69889714Y-102576952D01*
X69842095Y-102624571D01*
X69794476Y-102719809D01*
X69794476Y-102957904D01*
X69842095Y-103053142D01*
X69889714Y-103100761D01*
X69984952Y-103148380D01*
X70270666Y-103148380D01*
X70365904Y-103100761D01*
X70413523Y-103053142D01*
X69413523Y-102243619D02*
X69365904Y-102196000D01*
X69270666Y-102148380D01*
X69032571Y-102148380D01*
X68937333Y-102196000D01*
X68889714Y-102243619D01*
X68842095Y-102338857D01*
X68842095Y-102434095D01*
X68889714Y-102576952D01*
X69461142Y-103148380D01*
X68842095Y-103148380D01*
M02*
