%TF.GenerationSoftware,KiCad,Pcbnew,(5.0.0)*%
%TF.CreationDate,2019-02-02T21:12:50-06:00*%
%TF.ProjectId,BPSVoltage,425053566F6C746167652E6B69636164,rev?*%
%TF.SameCoordinates,Original*%
%TF.FileFunction,Soldermask,Top*%
%TF.FilePolarity,Negative*%
%FSLAX46Y46*%
G04 Gerber Fmt 4.6, Leading zero omitted, Abs format (unit mm)*
G04 Created by KiCad (PCBNEW (5.0.0)) date 02/02/19 21:12:50*
%MOMM*%
%LPD*%
G01*
G04 APERTURE LIST*
%ADD10C,0.100000*%
G04 APERTURE END LIST*
D10*
G36*
X117386393Y-110343553D02*
X117495872Y-110365330D01*
X117805252Y-110493479D01*
X118083687Y-110679523D01*
X118320477Y-110916313D01*
X118506521Y-111194748D01*
X118634670Y-111504128D01*
X118700000Y-111832565D01*
X118700000Y-112167435D01*
X118634670Y-112495872D01*
X118506521Y-112805252D01*
X118320477Y-113083687D01*
X118083687Y-113320477D01*
X117805252Y-113506521D01*
X117495872Y-113634670D01*
X117386393Y-113656447D01*
X117167437Y-113700000D01*
X116832563Y-113700000D01*
X116613607Y-113656447D01*
X116504128Y-113634670D01*
X116194748Y-113506521D01*
X115916313Y-113320477D01*
X115679523Y-113083687D01*
X115493479Y-112805252D01*
X115365330Y-112495872D01*
X115300000Y-112167435D01*
X115300000Y-111832565D01*
X115365330Y-111504128D01*
X115493479Y-111194748D01*
X115679523Y-110916313D01*
X115916313Y-110679523D01*
X116194748Y-110493479D01*
X116504128Y-110365330D01*
X116613607Y-110343553D01*
X116832563Y-110300000D01*
X117167437Y-110300000D01*
X117386393Y-110343553D01*
X117386393Y-110343553D01*
G37*
G36*
X48386393Y-110343553D02*
X48495872Y-110365330D01*
X48805252Y-110493479D01*
X49083687Y-110679523D01*
X49320477Y-110916313D01*
X49506521Y-111194748D01*
X49634670Y-111504128D01*
X49700000Y-111832565D01*
X49700000Y-112167435D01*
X49634670Y-112495872D01*
X49506521Y-112805252D01*
X49320477Y-113083687D01*
X49083687Y-113320477D01*
X48805252Y-113506521D01*
X48495872Y-113634670D01*
X48386393Y-113656447D01*
X48167437Y-113700000D01*
X47832563Y-113700000D01*
X47613607Y-113656447D01*
X47504128Y-113634670D01*
X47194748Y-113506521D01*
X46916313Y-113320477D01*
X46679523Y-113083687D01*
X46493479Y-112805252D01*
X46365330Y-112495872D01*
X46300000Y-112167435D01*
X46300000Y-111832565D01*
X46365330Y-111504128D01*
X46493479Y-111194748D01*
X46679523Y-110916313D01*
X46916313Y-110679523D01*
X47194748Y-110493479D01*
X47504128Y-110365330D01*
X47613607Y-110343553D01*
X47832563Y-110300000D01*
X48167437Y-110300000D01*
X48386393Y-110343553D01*
X48386393Y-110343553D01*
G37*
G36*
X90048707Y-110957597D02*
X90125836Y-110965193D01*
X90257787Y-111005220D01*
X90323763Y-111025233D01*
X90506172Y-111122733D01*
X90666054Y-111253946D01*
X90797267Y-111413828D01*
X90894767Y-111596237D01*
X90894767Y-111596238D01*
X90954807Y-111794164D01*
X90975080Y-112000000D01*
X90954807Y-112205836D01*
X90914780Y-112337787D01*
X90894767Y-112403763D01*
X90797267Y-112586172D01*
X90666054Y-112746054D01*
X90506172Y-112877267D01*
X90323763Y-112974767D01*
X90257787Y-112994780D01*
X90125836Y-113034807D01*
X90048707Y-113042404D01*
X89971580Y-113050000D01*
X89868420Y-113050000D01*
X89791293Y-113042404D01*
X89714164Y-113034807D01*
X89582213Y-112994780D01*
X89516237Y-112974767D01*
X89333828Y-112877267D01*
X89173946Y-112746054D01*
X89042733Y-112586172D01*
X88945233Y-112403763D01*
X88925220Y-112337787D01*
X88885193Y-112205836D01*
X88864920Y-112000000D01*
X88885193Y-111794164D01*
X88945233Y-111596238D01*
X88945233Y-111596237D01*
X89042733Y-111413828D01*
X89173946Y-111253946D01*
X89333828Y-111122733D01*
X89516237Y-111025233D01*
X89582213Y-111005220D01*
X89714164Y-110965193D01*
X89791293Y-110957597D01*
X89868420Y-110950000D01*
X89971580Y-110950000D01*
X90048707Y-110957597D01*
X90048707Y-110957597D01*
G37*
G36*
X92588707Y-110957597D02*
X92665836Y-110965193D01*
X92797787Y-111005220D01*
X92863763Y-111025233D01*
X93046172Y-111122733D01*
X93206054Y-111253946D01*
X93337267Y-111413828D01*
X93434767Y-111596237D01*
X93434767Y-111596238D01*
X93494807Y-111794164D01*
X93515080Y-112000000D01*
X93494807Y-112205836D01*
X93454780Y-112337787D01*
X93434767Y-112403763D01*
X93337267Y-112586172D01*
X93206054Y-112746054D01*
X93046172Y-112877267D01*
X92863763Y-112974767D01*
X92797787Y-112994780D01*
X92665836Y-113034807D01*
X92588707Y-113042404D01*
X92511580Y-113050000D01*
X92408420Y-113050000D01*
X92331293Y-113042404D01*
X92254164Y-113034807D01*
X92122213Y-112994780D01*
X92056237Y-112974767D01*
X91873828Y-112877267D01*
X91713946Y-112746054D01*
X91582733Y-112586172D01*
X91485233Y-112403763D01*
X91465220Y-112337787D01*
X91425193Y-112205836D01*
X91404920Y-112000000D01*
X91425193Y-111794164D01*
X91485233Y-111596238D01*
X91485233Y-111596237D01*
X91582733Y-111413828D01*
X91713946Y-111253946D01*
X91873828Y-111122733D01*
X92056237Y-111025233D01*
X92122213Y-111005220D01*
X92254164Y-110965193D01*
X92331293Y-110957597D01*
X92408420Y-110950000D01*
X92511580Y-110950000D01*
X92588707Y-110957597D01*
X92588707Y-110957597D01*
G37*
G36*
X95128707Y-110957597D02*
X95205836Y-110965193D01*
X95337787Y-111005220D01*
X95403763Y-111025233D01*
X95586172Y-111122733D01*
X95746054Y-111253946D01*
X95877267Y-111413828D01*
X95974767Y-111596237D01*
X95974767Y-111596238D01*
X96034807Y-111794164D01*
X96055080Y-112000000D01*
X96034807Y-112205836D01*
X95994780Y-112337787D01*
X95974767Y-112403763D01*
X95877267Y-112586172D01*
X95746054Y-112746054D01*
X95586172Y-112877267D01*
X95403763Y-112974767D01*
X95337787Y-112994780D01*
X95205836Y-113034807D01*
X95128707Y-113042404D01*
X95051580Y-113050000D01*
X94948420Y-113050000D01*
X94871293Y-113042404D01*
X94794164Y-113034807D01*
X94662213Y-112994780D01*
X94596237Y-112974767D01*
X94413828Y-112877267D01*
X94253946Y-112746054D01*
X94122733Y-112586172D01*
X94025233Y-112403763D01*
X94005220Y-112337787D01*
X93965193Y-112205836D01*
X93944920Y-112000000D01*
X93965193Y-111794164D01*
X94025233Y-111596238D01*
X94025233Y-111596237D01*
X94122733Y-111413828D01*
X94253946Y-111253946D01*
X94413828Y-111122733D01*
X94596237Y-111025233D01*
X94662213Y-111005220D01*
X94794164Y-110965193D01*
X94871293Y-110957597D01*
X94948420Y-110950000D01*
X95051580Y-110950000D01*
X95128707Y-110957597D01*
X95128707Y-110957597D01*
G37*
G36*
X97668707Y-110957597D02*
X97745836Y-110965193D01*
X97877787Y-111005220D01*
X97943763Y-111025233D01*
X98126172Y-111122733D01*
X98286054Y-111253946D01*
X98417267Y-111413828D01*
X98514767Y-111596237D01*
X98514767Y-111596238D01*
X98574807Y-111794164D01*
X98595080Y-112000000D01*
X98574807Y-112205836D01*
X98534780Y-112337787D01*
X98514767Y-112403763D01*
X98417267Y-112586172D01*
X98286054Y-112746054D01*
X98126172Y-112877267D01*
X97943763Y-112974767D01*
X97877787Y-112994780D01*
X97745836Y-113034807D01*
X97668707Y-113042404D01*
X97591580Y-113050000D01*
X97488420Y-113050000D01*
X97411293Y-113042404D01*
X97334164Y-113034807D01*
X97202213Y-112994780D01*
X97136237Y-112974767D01*
X96953828Y-112877267D01*
X96793946Y-112746054D01*
X96662733Y-112586172D01*
X96565233Y-112403763D01*
X96545220Y-112337787D01*
X96505193Y-112205836D01*
X96484920Y-112000000D01*
X96505193Y-111794164D01*
X96565233Y-111596238D01*
X96565233Y-111596237D01*
X96662733Y-111413828D01*
X96793946Y-111253946D01*
X96953828Y-111122733D01*
X97136237Y-111025233D01*
X97202213Y-111005220D01*
X97334164Y-110965193D01*
X97411293Y-110957597D01*
X97488420Y-110950000D01*
X97591580Y-110950000D01*
X97668707Y-110957597D01*
X97668707Y-110957597D01*
G37*
G36*
X101130000Y-113050000D02*
X99030000Y-113050000D01*
X99030000Y-110950000D01*
X101130000Y-110950000D01*
X101130000Y-113050000D01*
X101130000Y-113050000D01*
G37*
G36*
X55418497Y-102483997D02*
X55471153Y-102499970D01*
X55519665Y-102525900D01*
X55562196Y-102560804D01*
X55597100Y-102603335D01*
X55623030Y-102651847D01*
X55639003Y-102704503D01*
X55645000Y-102765390D01*
X55645000Y-103990610D01*
X55639003Y-104051497D01*
X55623030Y-104104153D01*
X55597100Y-104152665D01*
X55562196Y-104195196D01*
X55519665Y-104230100D01*
X55471153Y-104256030D01*
X55418497Y-104272003D01*
X55357610Y-104278000D01*
X54557390Y-104278000D01*
X54496503Y-104272003D01*
X54443847Y-104256030D01*
X54395335Y-104230100D01*
X54352804Y-104195196D01*
X54317900Y-104152665D01*
X54291970Y-104104153D01*
X54275997Y-104051497D01*
X54270000Y-103990610D01*
X54270000Y-102765390D01*
X54275997Y-102704503D01*
X54291970Y-102651847D01*
X54317900Y-102603335D01*
X54352804Y-102560804D01*
X54395335Y-102525900D01*
X54443847Y-102499970D01*
X54496503Y-102483997D01*
X54557390Y-102478000D01*
X55357610Y-102478000D01*
X55418497Y-102483997D01*
X55418497Y-102483997D01*
G37*
G36*
X57293497Y-102483997D02*
X57346153Y-102499970D01*
X57394665Y-102525900D01*
X57437196Y-102560804D01*
X57472100Y-102603335D01*
X57498030Y-102651847D01*
X57514003Y-102704503D01*
X57520000Y-102765390D01*
X57520000Y-103990610D01*
X57514003Y-104051497D01*
X57498030Y-104104153D01*
X57472100Y-104152665D01*
X57437196Y-104195196D01*
X57394665Y-104230100D01*
X57346153Y-104256030D01*
X57293497Y-104272003D01*
X57232610Y-104278000D01*
X56432390Y-104278000D01*
X56371503Y-104272003D01*
X56318847Y-104256030D01*
X56270335Y-104230100D01*
X56227804Y-104195196D01*
X56192900Y-104152665D01*
X56166970Y-104104153D01*
X56150997Y-104051497D01*
X56145000Y-103990610D01*
X56145000Y-102765390D01*
X56150997Y-102704503D01*
X56166970Y-102651847D01*
X56192900Y-102603335D01*
X56227804Y-102560804D01*
X56270335Y-102525900D01*
X56318847Y-102499970D01*
X56371503Y-102483997D01*
X56432390Y-102478000D01*
X57232610Y-102478000D01*
X57293497Y-102483997D01*
X57293497Y-102483997D01*
G37*
G36*
X93792997Y-101769997D02*
X93845653Y-101785970D01*
X93894165Y-101811900D01*
X93936696Y-101846804D01*
X93971600Y-101889335D01*
X93997530Y-101937847D01*
X94013503Y-101990503D01*
X94019500Y-102051390D01*
X94019500Y-103276610D01*
X94013503Y-103337497D01*
X93997530Y-103390153D01*
X93971600Y-103438665D01*
X93936696Y-103481196D01*
X93894165Y-103516100D01*
X93845653Y-103542030D01*
X93792997Y-103558003D01*
X93732110Y-103564000D01*
X92931890Y-103564000D01*
X92871003Y-103558003D01*
X92818347Y-103542030D01*
X92769835Y-103516100D01*
X92727304Y-103481196D01*
X92692400Y-103438665D01*
X92666470Y-103390153D01*
X92650497Y-103337497D01*
X92644500Y-103276610D01*
X92644500Y-102051390D01*
X92650497Y-101990503D01*
X92666470Y-101937847D01*
X92692400Y-101889335D01*
X92727304Y-101846804D01*
X92769835Y-101811900D01*
X92818347Y-101785970D01*
X92871003Y-101769997D01*
X92931890Y-101764000D01*
X93732110Y-101764000D01*
X93792997Y-101769997D01*
X93792997Y-101769997D01*
G37*
G36*
X95667997Y-101769997D02*
X95720653Y-101785970D01*
X95769165Y-101811900D01*
X95811696Y-101846804D01*
X95846600Y-101889335D01*
X95872530Y-101937847D01*
X95888503Y-101990503D01*
X95894500Y-102051390D01*
X95894500Y-103276610D01*
X95888503Y-103337497D01*
X95872530Y-103390153D01*
X95846600Y-103438665D01*
X95811696Y-103481196D01*
X95769165Y-103516100D01*
X95720653Y-103542030D01*
X95667997Y-103558003D01*
X95607110Y-103564000D01*
X94806890Y-103564000D01*
X94746003Y-103558003D01*
X94693347Y-103542030D01*
X94644835Y-103516100D01*
X94602304Y-103481196D01*
X94567400Y-103438665D01*
X94541470Y-103390153D01*
X94525497Y-103337497D01*
X94519500Y-103276610D01*
X94519500Y-102051390D01*
X94525497Y-101990503D01*
X94541470Y-101937847D01*
X94567400Y-101889335D01*
X94602304Y-101846804D01*
X94644835Y-101811900D01*
X94693347Y-101785970D01*
X94746003Y-101769997D01*
X94806890Y-101764000D01*
X95607110Y-101764000D01*
X95667997Y-101769997D01*
X95667997Y-101769997D01*
G37*
G36*
X52336451Y-100434627D02*
X52474105Y-100462008D01*
X52646994Y-100533621D01*
X52802590Y-100637587D01*
X52934913Y-100769910D01*
X53038879Y-100925506D01*
X53110492Y-101098395D01*
X53147000Y-101281933D01*
X53147000Y-101469067D01*
X53110492Y-101652605D01*
X53038879Y-101825494D01*
X52934913Y-101981090D01*
X52802590Y-102113413D01*
X52646994Y-102217379D01*
X52474105Y-102288992D01*
X52336451Y-102316373D01*
X52290568Y-102325500D01*
X52103432Y-102325500D01*
X52057549Y-102316373D01*
X51919895Y-102288992D01*
X51747006Y-102217379D01*
X51591410Y-102113413D01*
X51459087Y-101981090D01*
X51355121Y-101825494D01*
X51283508Y-101652605D01*
X51247000Y-101469067D01*
X51247000Y-101281933D01*
X51283508Y-101098395D01*
X51355121Y-100925506D01*
X51459087Y-100769910D01*
X51591410Y-100637587D01*
X51747006Y-100533621D01*
X51919895Y-100462008D01*
X52057548Y-100434627D01*
X52103432Y-100425500D01*
X52290568Y-100425500D01*
X52336451Y-100434627D01*
X52336451Y-100434627D01*
G37*
G36*
X109681500Y-102228000D02*
X107081500Y-102228000D01*
X107081500Y-92178000D01*
X109681500Y-92178000D01*
X109681500Y-102228000D01*
X109681500Y-102228000D01*
G37*
G36*
X101426500Y-102228000D02*
X98826500Y-102228000D01*
X98826500Y-92178000D01*
X101426500Y-92178000D01*
X101426500Y-102228000D01*
X101426500Y-102228000D01*
G37*
G36*
X118203558Y-99697088D02*
X118355522Y-99760033D01*
X118492284Y-99851415D01*
X118608585Y-99967716D01*
X118699967Y-100104478D01*
X118762912Y-100256442D01*
X118795000Y-100417758D01*
X118795000Y-100582242D01*
X118762912Y-100743558D01*
X118699967Y-100895522D01*
X118608585Y-101032284D01*
X118492284Y-101148585D01*
X118355522Y-101239967D01*
X118203558Y-101302912D01*
X118042242Y-101335000D01*
X117877758Y-101335000D01*
X117716442Y-101302912D01*
X117564478Y-101239967D01*
X117427716Y-101148585D01*
X117311415Y-101032284D01*
X117220033Y-100895522D01*
X117157088Y-100743558D01*
X117125000Y-100582242D01*
X117125000Y-100417758D01*
X117157088Y-100256442D01*
X117220033Y-100104478D01*
X117311415Y-99967716D01*
X117427716Y-99851415D01*
X117564478Y-99760033D01*
X117716442Y-99697088D01*
X117877758Y-99665000D01*
X118042242Y-99665000D01*
X118203558Y-99697088D01*
X118203558Y-99697088D01*
G37*
G36*
X97887997Y-99483997D02*
X97940653Y-99499970D01*
X97989165Y-99525900D01*
X98031696Y-99560804D01*
X98066600Y-99603335D01*
X98092530Y-99651847D01*
X98108503Y-99704503D01*
X98114500Y-99765390D01*
X98114500Y-100990610D01*
X98108503Y-101051497D01*
X98092530Y-101104153D01*
X98066600Y-101152665D01*
X98031696Y-101195196D01*
X97989165Y-101230100D01*
X97940653Y-101256030D01*
X97887997Y-101272003D01*
X97827110Y-101278000D01*
X97026890Y-101278000D01*
X96966003Y-101272003D01*
X96913347Y-101256030D01*
X96864835Y-101230100D01*
X96822304Y-101195196D01*
X96787400Y-101152665D01*
X96761470Y-101104153D01*
X96745497Y-101051497D01*
X96739500Y-100990610D01*
X96739500Y-99765390D01*
X96745497Y-99704503D01*
X96761470Y-99651847D01*
X96787400Y-99603335D01*
X96822304Y-99560804D01*
X96864835Y-99525900D01*
X96913347Y-99499970D01*
X96966003Y-99483997D01*
X97026890Y-99478000D01*
X97827110Y-99478000D01*
X97887997Y-99483997D01*
X97887997Y-99483997D01*
G37*
G36*
X95667997Y-97451997D02*
X95720653Y-97467970D01*
X95769165Y-97493900D01*
X95811696Y-97528804D01*
X95846600Y-97571335D01*
X95872530Y-97619847D01*
X95888503Y-97672503D01*
X95894500Y-97733390D01*
X95894500Y-98958610D01*
X95888503Y-99019497D01*
X95872530Y-99072153D01*
X95846600Y-99120665D01*
X95811696Y-99163196D01*
X95769165Y-99198100D01*
X95720652Y-99224031D01*
X95689825Y-99233382D01*
X95667186Y-99242760D01*
X95646811Y-99256374D01*
X95629484Y-99273701D01*
X95615870Y-99294075D01*
X95606493Y-99316714D01*
X95601712Y-99340748D01*
X95601712Y-99365252D01*
X95606492Y-99389285D01*
X95615870Y-99411924D01*
X95629484Y-99432299D01*
X95646811Y-99449626D01*
X95667185Y-99463240D01*
X95689824Y-99472617D01*
X95713858Y-99477398D01*
X95726110Y-99478000D01*
X95952110Y-99478000D01*
X96012997Y-99483997D01*
X96065653Y-99499970D01*
X96114165Y-99525900D01*
X96156696Y-99560804D01*
X96191600Y-99603335D01*
X96217530Y-99651847D01*
X96233503Y-99704503D01*
X96239500Y-99765390D01*
X96239500Y-100990610D01*
X96233503Y-101051497D01*
X96217530Y-101104153D01*
X96191600Y-101152665D01*
X96156696Y-101195196D01*
X96114165Y-101230100D01*
X96065653Y-101256030D01*
X96012997Y-101272003D01*
X95952110Y-101278000D01*
X95151890Y-101278000D01*
X95091003Y-101272003D01*
X95038347Y-101256030D01*
X94989835Y-101230100D01*
X94947304Y-101195196D01*
X94912400Y-101152665D01*
X94886470Y-101104153D01*
X94870497Y-101051497D01*
X94864500Y-100990610D01*
X94864500Y-99765390D01*
X94870497Y-99704503D01*
X94886470Y-99651847D01*
X94912400Y-99603335D01*
X94947304Y-99560804D01*
X94989835Y-99525900D01*
X95038348Y-99499969D01*
X95069175Y-99490618D01*
X95091814Y-99481240D01*
X95112189Y-99467626D01*
X95129516Y-99450299D01*
X95143130Y-99429925D01*
X95152507Y-99407286D01*
X95157288Y-99383252D01*
X95157288Y-99358748D01*
X95152508Y-99334715D01*
X95143130Y-99312076D01*
X95129516Y-99291701D01*
X95112189Y-99274374D01*
X95091815Y-99260760D01*
X95069176Y-99251383D01*
X95045142Y-99246602D01*
X95032890Y-99246000D01*
X94806890Y-99246000D01*
X94746003Y-99240003D01*
X94693347Y-99224030D01*
X94644835Y-99198100D01*
X94602304Y-99163196D01*
X94567400Y-99120665D01*
X94541470Y-99072153D01*
X94525497Y-99019497D01*
X94519500Y-98958610D01*
X94519500Y-97733390D01*
X94525497Y-97672503D01*
X94541470Y-97619847D01*
X94567400Y-97571335D01*
X94602304Y-97528804D01*
X94644835Y-97493900D01*
X94693347Y-97467970D01*
X94746003Y-97451997D01*
X94806890Y-97446000D01*
X95607110Y-97446000D01*
X95667997Y-97451997D01*
X95667997Y-97451997D01*
G37*
G36*
X48447793Y-97341437D02*
X48802670Y-97488432D01*
X49122055Y-97701838D01*
X49393662Y-97973445D01*
X49607068Y-98292830D01*
X49754063Y-98647707D01*
X49829000Y-99024440D01*
X49829000Y-99408560D01*
X49754063Y-99785293D01*
X49607068Y-100140170D01*
X49393662Y-100459555D01*
X49122055Y-100731162D01*
X48802670Y-100944568D01*
X48447793Y-101091563D01*
X48071060Y-101166500D01*
X47686940Y-101166500D01*
X47310207Y-101091563D01*
X46955330Y-100944568D01*
X46635945Y-100731162D01*
X46364338Y-100459555D01*
X46150932Y-100140170D01*
X46003937Y-99785293D01*
X45929000Y-99408560D01*
X45929000Y-99024440D01*
X46003937Y-98647707D01*
X46150932Y-98292830D01*
X46364338Y-97973445D01*
X46635945Y-97701838D01*
X46955330Y-97488432D01*
X47310207Y-97341437D01*
X47686940Y-97266500D01*
X48071060Y-97266500D01*
X48447793Y-97341437D01*
X48447793Y-97341437D01*
G37*
G36*
X57293497Y-99181997D02*
X57346153Y-99197970D01*
X57394665Y-99223900D01*
X57437196Y-99258804D01*
X57472100Y-99301335D01*
X57498030Y-99349847D01*
X57514003Y-99402503D01*
X57520000Y-99463390D01*
X57520000Y-100688610D01*
X57514003Y-100749497D01*
X57498030Y-100802153D01*
X57472100Y-100850665D01*
X57437196Y-100893196D01*
X57394665Y-100928100D01*
X57346153Y-100954030D01*
X57293497Y-100970003D01*
X57232610Y-100976000D01*
X56432390Y-100976000D01*
X56371503Y-100970003D01*
X56318847Y-100954030D01*
X56270335Y-100928100D01*
X56227804Y-100893196D01*
X56192900Y-100850665D01*
X56166970Y-100802153D01*
X56150997Y-100749497D01*
X56145000Y-100688610D01*
X56145000Y-99463390D01*
X56150997Y-99402503D01*
X56166970Y-99349847D01*
X56192900Y-99301335D01*
X56227804Y-99258804D01*
X56270335Y-99223900D01*
X56318847Y-99197970D01*
X56371503Y-99181997D01*
X56432390Y-99176000D01*
X57232610Y-99176000D01*
X57293497Y-99181997D01*
X57293497Y-99181997D01*
G37*
G36*
X65738997Y-99181997D02*
X65791653Y-99197970D01*
X65840165Y-99223900D01*
X65882696Y-99258804D01*
X65917600Y-99301335D01*
X65943530Y-99349847D01*
X65959503Y-99402503D01*
X65965500Y-99463390D01*
X65965500Y-100688610D01*
X65959503Y-100749497D01*
X65943530Y-100802153D01*
X65917600Y-100850665D01*
X65882696Y-100893196D01*
X65840165Y-100928100D01*
X65791653Y-100954030D01*
X65738997Y-100970003D01*
X65678110Y-100976000D01*
X64877890Y-100976000D01*
X64817003Y-100970003D01*
X64764347Y-100954030D01*
X64715835Y-100928100D01*
X64673304Y-100893196D01*
X64638400Y-100850665D01*
X64612470Y-100802153D01*
X64596497Y-100749497D01*
X64590500Y-100688610D01*
X64590500Y-99463390D01*
X64596497Y-99402503D01*
X64612470Y-99349847D01*
X64638400Y-99301335D01*
X64673304Y-99258804D01*
X64715835Y-99223900D01*
X64764347Y-99197970D01*
X64817003Y-99181997D01*
X64877890Y-99176000D01*
X65678110Y-99176000D01*
X65738997Y-99181997D01*
X65738997Y-99181997D01*
G37*
G36*
X55418497Y-99181997D02*
X55471153Y-99197970D01*
X55519665Y-99223900D01*
X55562196Y-99258804D01*
X55597100Y-99301335D01*
X55623030Y-99349847D01*
X55639003Y-99402503D01*
X55645000Y-99463390D01*
X55645000Y-100688610D01*
X55639003Y-100749497D01*
X55623030Y-100802153D01*
X55597100Y-100850665D01*
X55562196Y-100893196D01*
X55519665Y-100928100D01*
X55471153Y-100954030D01*
X55418497Y-100970003D01*
X55357610Y-100976000D01*
X54557390Y-100976000D01*
X54496503Y-100970003D01*
X54443847Y-100954030D01*
X54395335Y-100928100D01*
X54352804Y-100893196D01*
X54317900Y-100850665D01*
X54291970Y-100802153D01*
X54275997Y-100749497D01*
X54270000Y-100688610D01*
X54270000Y-99463390D01*
X54275997Y-99402503D01*
X54291970Y-99349847D01*
X54317900Y-99301335D01*
X54352804Y-99258804D01*
X54395335Y-99223900D01*
X54443847Y-99197970D01*
X54496503Y-99181997D01*
X54557390Y-99176000D01*
X55357610Y-99176000D01*
X55418497Y-99181997D01*
X55418497Y-99181997D01*
G37*
G36*
X63863997Y-99181997D02*
X63916653Y-99197970D01*
X63965165Y-99223900D01*
X64007696Y-99258804D01*
X64042600Y-99301335D01*
X64068530Y-99349847D01*
X64084503Y-99402503D01*
X64090500Y-99463390D01*
X64090500Y-100688610D01*
X64084503Y-100749497D01*
X64068530Y-100802153D01*
X64042600Y-100850665D01*
X64007696Y-100893196D01*
X63965165Y-100928100D01*
X63916653Y-100954030D01*
X63863997Y-100970003D01*
X63803110Y-100976000D01*
X63002890Y-100976000D01*
X62942003Y-100970003D01*
X62889347Y-100954030D01*
X62840835Y-100928100D01*
X62798304Y-100893196D01*
X62763400Y-100850665D01*
X62737470Y-100802153D01*
X62721497Y-100749497D01*
X62715500Y-100688610D01*
X62715500Y-99463390D01*
X62721497Y-99402503D01*
X62737470Y-99349847D01*
X62763400Y-99301335D01*
X62798304Y-99258804D01*
X62840835Y-99223900D01*
X62889347Y-99197970D01*
X62942003Y-99181997D01*
X63002890Y-99176000D01*
X63803110Y-99176000D01*
X63863997Y-99181997D01*
X63863997Y-99181997D01*
G37*
G36*
X59896997Y-99181997D02*
X59949653Y-99197970D01*
X59998165Y-99223900D01*
X60040696Y-99258804D01*
X60075600Y-99301335D01*
X60101530Y-99349847D01*
X60117503Y-99402503D01*
X60123500Y-99463390D01*
X60123500Y-100688610D01*
X60117503Y-100749497D01*
X60101530Y-100802153D01*
X60075600Y-100850665D01*
X60040696Y-100893196D01*
X59998165Y-100928100D01*
X59949653Y-100954030D01*
X59896997Y-100970003D01*
X59836110Y-100976000D01*
X59035890Y-100976000D01*
X58975003Y-100970003D01*
X58922347Y-100954030D01*
X58873835Y-100928100D01*
X58831304Y-100893196D01*
X58796400Y-100850665D01*
X58770470Y-100802153D01*
X58754497Y-100749497D01*
X58748500Y-100688610D01*
X58748500Y-99463390D01*
X58754497Y-99402503D01*
X58770470Y-99349847D01*
X58796400Y-99301335D01*
X58831304Y-99258804D01*
X58873835Y-99223900D01*
X58922347Y-99197970D01*
X58975003Y-99181997D01*
X59035890Y-99176000D01*
X59836110Y-99176000D01*
X59896997Y-99181997D01*
X59896997Y-99181997D01*
G37*
G36*
X61771997Y-99181997D02*
X61824653Y-99197970D01*
X61873165Y-99223900D01*
X61915696Y-99258804D01*
X61950600Y-99301335D01*
X61976530Y-99349847D01*
X61992503Y-99402503D01*
X61998500Y-99463390D01*
X61998500Y-100688610D01*
X61992503Y-100749497D01*
X61976530Y-100802153D01*
X61950600Y-100850665D01*
X61915696Y-100893196D01*
X61873165Y-100928100D01*
X61824653Y-100954030D01*
X61771997Y-100970003D01*
X61711110Y-100976000D01*
X60910890Y-100976000D01*
X60850003Y-100970003D01*
X60797347Y-100954030D01*
X60748835Y-100928100D01*
X60706304Y-100893196D01*
X60671400Y-100850665D01*
X60645470Y-100802153D01*
X60629497Y-100749497D01*
X60623500Y-100688610D01*
X60623500Y-99463390D01*
X60629497Y-99402503D01*
X60645470Y-99349847D01*
X60671400Y-99301335D01*
X60706304Y-99258804D01*
X60748835Y-99223900D01*
X60797347Y-99197970D01*
X60850003Y-99181997D01*
X60910890Y-99176000D01*
X61711110Y-99176000D01*
X61771997Y-99181997D01*
X61771997Y-99181997D01*
G37*
G36*
X77562000Y-100726000D02*
X76362000Y-100726000D01*
X76362000Y-99426000D01*
X77562000Y-99426000D01*
X77562000Y-100726000D01*
X77562000Y-100726000D01*
G37*
G36*
X52336452Y-97434627D02*
X52474105Y-97462008D01*
X52646994Y-97533621D01*
X52802590Y-97637587D01*
X52934913Y-97769910D01*
X53038879Y-97925506D01*
X53110492Y-98098395D01*
X53147000Y-98281933D01*
X53147000Y-98469067D01*
X53110492Y-98652605D01*
X53038879Y-98825494D01*
X52934913Y-98981090D01*
X52802590Y-99113413D01*
X52646994Y-99217379D01*
X52474105Y-99288992D01*
X52336451Y-99316373D01*
X52290568Y-99325500D01*
X52103432Y-99325500D01*
X52057548Y-99316373D01*
X51919895Y-99288992D01*
X51747006Y-99217379D01*
X51591410Y-99113413D01*
X51459087Y-98981090D01*
X51355121Y-98825494D01*
X51283508Y-98652605D01*
X51247000Y-98469067D01*
X51247000Y-98281933D01*
X51283508Y-98098395D01*
X51355121Y-97925506D01*
X51459087Y-97769910D01*
X51591410Y-97637587D01*
X51747006Y-97533621D01*
X51919895Y-97462008D01*
X52057549Y-97434627D01*
X52103432Y-97425500D01*
X52290568Y-97425500D01*
X52336452Y-97434627D01*
X52336452Y-97434627D01*
G37*
G36*
X93792997Y-97451997D02*
X93845653Y-97467970D01*
X93894165Y-97493900D01*
X93936696Y-97528804D01*
X93971600Y-97571335D01*
X93997530Y-97619847D01*
X94013503Y-97672503D01*
X94019500Y-97733390D01*
X94019500Y-98958610D01*
X94013503Y-99019497D01*
X93997530Y-99072153D01*
X93971600Y-99120665D01*
X93936696Y-99163196D01*
X93894165Y-99198100D01*
X93845653Y-99224030D01*
X93792997Y-99240003D01*
X93732110Y-99246000D01*
X92931890Y-99246000D01*
X92871003Y-99240003D01*
X92818347Y-99224030D01*
X92769835Y-99198100D01*
X92727304Y-99163196D01*
X92692400Y-99120665D01*
X92666470Y-99072153D01*
X92650497Y-99019497D01*
X92644500Y-98958610D01*
X92644500Y-97733390D01*
X92650497Y-97672503D01*
X92666470Y-97619847D01*
X92692400Y-97571335D01*
X92727304Y-97528804D01*
X92769835Y-97493900D01*
X92818347Y-97467970D01*
X92871003Y-97451997D01*
X92931890Y-97446000D01*
X93732110Y-97446000D01*
X93792997Y-97451997D01*
X93792997Y-97451997D01*
G37*
G36*
X87091997Y-97451997D02*
X87144653Y-97467970D01*
X87193165Y-97493900D01*
X87235696Y-97528804D01*
X87270600Y-97571335D01*
X87296530Y-97619847D01*
X87312503Y-97672503D01*
X87318500Y-97733390D01*
X87318500Y-98958610D01*
X87312503Y-99019497D01*
X87296530Y-99072153D01*
X87270600Y-99120665D01*
X87235696Y-99163196D01*
X87193165Y-99198100D01*
X87144653Y-99224030D01*
X87091997Y-99240003D01*
X87031110Y-99246000D01*
X86230890Y-99246000D01*
X86170003Y-99240003D01*
X86117347Y-99224030D01*
X86068835Y-99198100D01*
X86026304Y-99163196D01*
X85991400Y-99120665D01*
X85965470Y-99072153D01*
X85949497Y-99019497D01*
X85943500Y-98958610D01*
X85943500Y-97733390D01*
X85949497Y-97672503D01*
X85965470Y-97619847D01*
X85991400Y-97571335D01*
X86026304Y-97528804D01*
X86068835Y-97493900D01*
X86117347Y-97467970D01*
X86170003Y-97451997D01*
X86230890Y-97446000D01*
X87031110Y-97446000D01*
X87091997Y-97451997D01*
X87091997Y-97451997D01*
G37*
G36*
X88966997Y-97451997D02*
X89019653Y-97467970D01*
X89068165Y-97493900D01*
X89110696Y-97528804D01*
X89145600Y-97571335D01*
X89171530Y-97619847D01*
X89187503Y-97672503D01*
X89193500Y-97733390D01*
X89193500Y-98958610D01*
X89187503Y-99019497D01*
X89171530Y-99072153D01*
X89145600Y-99120665D01*
X89110696Y-99163196D01*
X89068165Y-99198100D01*
X89019653Y-99224030D01*
X88966997Y-99240003D01*
X88906110Y-99246000D01*
X88105890Y-99246000D01*
X88045003Y-99240003D01*
X87992347Y-99224030D01*
X87943835Y-99198100D01*
X87901304Y-99163196D01*
X87866400Y-99120665D01*
X87840470Y-99072153D01*
X87824497Y-99019497D01*
X87818500Y-98958610D01*
X87818500Y-97733390D01*
X87824497Y-97672503D01*
X87840470Y-97619847D01*
X87866400Y-97571335D01*
X87901304Y-97528804D01*
X87943835Y-97493900D01*
X87992347Y-97467970D01*
X88045003Y-97451997D01*
X88105890Y-97446000D01*
X88906110Y-97446000D01*
X88966997Y-97451997D01*
X88966997Y-97451997D01*
G37*
G36*
X76612000Y-98726000D02*
X75412000Y-98726000D01*
X75412000Y-97426000D01*
X76612000Y-97426000D01*
X76612000Y-98726000D01*
X76612000Y-98726000D01*
G37*
G36*
X78512000Y-98726000D02*
X77312000Y-98726000D01*
X77312000Y-97426000D01*
X78512000Y-97426000D01*
X78512000Y-98726000D01*
X78512000Y-98726000D01*
G37*
G36*
X116125888Y-96454470D02*
X116306274Y-96490350D01*
X116497362Y-96569502D01*
X116669336Y-96684411D01*
X116815589Y-96830664D01*
X116930498Y-97002638D01*
X117009650Y-97193726D01*
X117039031Y-97341437D01*
X117050000Y-97396583D01*
X117050000Y-97603417D01*
X117046732Y-97619847D01*
X117009650Y-97806274D01*
X116930498Y-97997362D01*
X116815589Y-98169336D01*
X116669336Y-98315589D01*
X116497362Y-98430498D01*
X116306274Y-98509650D01*
X116125888Y-98545530D01*
X116103417Y-98550000D01*
X115896583Y-98550000D01*
X115874112Y-98545530D01*
X115693726Y-98509650D01*
X115502638Y-98430498D01*
X115330664Y-98315589D01*
X115184411Y-98169336D01*
X115069502Y-97997362D01*
X114990350Y-97806274D01*
X114953268Y-97619847D01*
X114950000Y-97603417D01*
X114950000Y-97396583D01*
X114960969Y-97341437D01*
X114990350Y-97193726D01*
X115069502Y-97002638D01*
X115184411Y-96830664D01*
X115330664Y-96684411D01*
X115502638Y-96569502D01*
X115693726Y-96490350D01*
X115874112Y-96454470D01*
X115896583Y-96450000D01*
X116103417Y-96450000D01*
X116125888Y-96454470D01*
X116125888Y-96454470D01*
G37*
G36*
X65738997Y-95879997D02*
X65791653Y-95895970D01*
X65840165Y-95921900D01*
X65882696Y-95956804D01*
X65917600Y-95999335D01*
X65943530Y-96047847D01*
X65959503Y-96100503D01*
X65965500Y-96161390D01*
X65965500Y-97386610D01*
X65959503Y-97447497D01*
X65943530Y-97500153D01*
X65917600Y-97548665D01*
X65882696Y-97591196D01*
X65840165Y-97626100D01*
X65791653Y-97652030D01*
X65738997Y-97668003D01*
X65678110Y-97674000D01*
X64877890Y-97674000D01*
X64817003Y-97668003D01*
X64764347Y-97652030D01*
X64715835Y-97626100D01*
X64673304Y-97591196D01*
X64638400Y-97548665D01*
X64612470Y-97500153D01*
X64596497Y-97447497D01*
X64590500Y-97386610D01*
X64590500Y-96161390D01*
X64596497Y-96100503D01*
X64612470Y-96047847D01*
X64638400Y-95999335D01*
X64673304Y-95956804D01*
X64715835Y-95921900D01*
X64764347Y-95895970D01*
X64817003Y-95879997D01*
X64877890Y-95874000D01*
X65678110Y-95874000D01*
X65738997Y-95879997D01*
X65738997Y-95879997D01*
G37*
G36*
X55418497Y-95879997D02*
X55471153Y-95895970D01*
X55519665Y-95921900D01*
X55562196Y-95956804D01*
X55597100Y-95999335D01*
X55623030Y-96047847D01*
X55639003Y-96100503D01*
X55645000Y-96161390D01*
X55645000Y-97386610D01*
X55639003Y-97447497D01*
X55623030Y-97500153D01*
X55597100Y-97548665D01*
X55562196Y-97591196D01*
X55519665Y-97626100D01*
X55471153Y-97652030D01*
X55418497Y-97668003D01*
X55357610Y-97674000D01*
X54557390Y-97674000D01*
X54496503Y-97668003D01*
X54443847Y-97652030D01*
X54395335Y-97626100D01*
X54352804Y-97591196D01*
X54317900Y-97548665D01*
X54291970Y-97500153D01*
X54275997Y-97447497D01*
X54270000Y-97386610D01*
X54270000Y-96161390D01*
X54275997Y-96100503D01*
X54291970Y-96047847D01*
X54317900Y-95999335D01*
X54352804Y-95956804D01*
X54395335Y-95921900D01*
X54443847Y-95895970D01*
X54496503Y-95879997D01*
X54557390Y-95874000D01*
X55357610Y-95874000D01*
X55418497Y-95879997D01*
X55418497Y-95879997D01*
G37*
G36*
X63863997Y-95879997D02*
X63916653Y-95895970D01*
X63965165Y-95921900D01*
X64007696Y-95956804D01*
X64042600Y-95999335D01*
X64068530Y-96047847D01*
X64084503Y-96100503D01*
X64090500Y-96161390D01*
X64090500Y-97386610D01*
X64084503Y-97447497D01*
X64068530Y-97500153D01*
X64042600Y-97548665D01*
X64007696Y-97591196D01*
X63965165Y-97626100D01*
X63916653Y-97652030D01*
X63863997Y-97668003D01*
X63803110Y-97674000D01*
X63002890Y-97674000D01*
X62942003Y-97668003D01*
X62889347Y-97652030D01*
X62840835Y-97626100D01*
X62798304Y-97591196D01*
X62763400Y-97548665D01*
X62737470Y-97500153D01*
X62721497Y-97447497D01*
X62715500Y-97386610D01*
X62715500Y-96161390D01*
X62721497Y-96100503D01*
X62737470Y-96047847D01*
X62763400Y-95999335D01*
X62798304Y-95956804D01*
X62840835Y-95921900D01*
X62889347Y-95895970D01*
X62942003Y-95879997D01*
X63002890Y-95874000D01*
X63803110Y-95874000D01*
X63863997Y-95879997D01*
X63863997Y-95879997D01*
G37*
G36*
X61771997Y-95879997D02*
X61824653Y-95895970D01*
X61873165Y-95921900D01*
X61915696Y-95956804D01*
X61950600Y-95999335D01*
X61976530Y-96047847D01*
X61992503Y-96100503D01*
X61998500Y-96161390D01*
X61998500Y-97386610D01*
X61992503Y-97447497D01*
X61976530Y-97500153D01*
X61950600Y-97548665D01*
X61915696Y-97591196D01*
X61873165Y-97626100D01*
X61824653Y-97652030D01*
X61771997Y-97668003D01*
X61711110Y-97674000D01*
X60910890Y-97674000D01*
X60850003Y-97668003D01*
X60797347Y-97652030D01*
X60748835Y-97626100D01*
X60706304Y-97591196D01*
X60671400Y-97548665D01*
X60645470Y-97500153D01*
X60629497Y-97447497D01*
X60623500Y-97386610D01*
X60623500Y-96161390D01*
X60629497Y-96100503D01*
X60645470Y-96047847D01*
X60671400Y-95999335D01*
X60706304Y-95956804D01*
X60748835Y-95921900D01*
X60797347Y-95895970D01*
X60850003Y-95879997D01*
X60910890Y-95874000D01*
X61711110Y-95874000D01*
X61771997Y-95879997D01*
X61771997Y-95879997D01*
G37*
G36*
X59896997Y-95879997D02*
X59949653Y-95895970D01*
X59998165Y-95921900D01*
X60040696Y-95956804D01*
X60075600Y-95999335D01*
X60101530Y-96047847D01*
X60117503Y-96100503D01*
X60123500Y-96161390D01*
X60123500Y-97386610D01*
X60117503Y-97447497D01*
X60101530Y-97500153D01*
X60075600Y-97548665D01*
X60040696Y-97591196D01*
X59998165Y-97626100D01*
X59949653Y-97652030D01*
X59896997Y-97668003D01*
X59836110Y-97674000D01*
X59035890Y-97674000D01*
X58975003Y-97668003D01*
X58922347Y-97652030D01*
X58873835Y-97626100D01*
X58831304Y-97591196D01*
X58796400Y-97548665D01*
X58770470Y-97500153D01*
X58754497Y-97447497D01*
X58748500Y-97386610D01*
X58748500Y-96161390D01*
X58754497Y-96100503D01*
X58770470Y-96047847D01*
X58796400Y-95999335D01*
X58831304Y-95956804D01*
X58873835Y-95921900D01*
X58922347Y-95895970D01*
X58975003Y-95879997D01*
X59035890Y-95874000D01*
X59836110Y-95874000D01*
X59896997Y-95879997D01*
X59896997Y-95879997D01*
G37*
G36*
X57293497Y-95879997D02*
X57346153Y-95895970D01*
X57394665Y-95921900D01*
X57437196Y-95956804D01*
X57472100Y-95999335D01*
X57498030Y-96047847D01*
X57514003Y-96100503D01*
X57520000Y-96161390D01*
X57520000Y-97386610D01*
X57514003Y-97447497D01*
X57498030Y-97500153D01*
X57472100Y-97548665D01*
X57437196Y-97591196D01*
X57394665Y-97626100D01*
X57346153Y-97652030D01*
X57293497Y-97668003D01*
X57232610Y-97674000D01*
X56432390Y-97674000D01*
X56371503Y-97668003D01*
X56318847Y-97652030D01*
X56270335Y-97626100D01*
X56227804Y-97591196D01*
X56192900Y-97548665D01*
X56166970Y-97500153D01*
X56150997Y-97447497D01*
X56145000Y-97386610D01*
X56145000Y-96161390D01*
X56150997Y-96100503D01*
X56166970Y-96047847D01*
X56192900Y-95999335D01*
X56227804Y-95956804D01*
X56270335Y-95921900D01*
X56318847Y-95895970D01*
X56371503Y-95879997D01*
X56432390Y-95874000D01*
X57232610Y-95874000D01*
X57293497Y-95879997D01*
X57293497Y-95879997D01*
G37*
G36*
X67770997Y-95879997D02*
X67823653Y-95895970D01*
X67872165Y-95921900D01*
X67914696Y-95956804D01*
X67949600Y-95999335D01*
X67975530Y-96047847D01*
X67991503Y-96100503D01*
X67997500Y-96161390D01*
X67997500Y-97386610D01*
X67991503Y-97447497D01*
X67975530Y-97500153D01*
X67949600Y-97548665D01*
X67914696Y-97591196D01*
X67872165Y-97626100D01*
X67823653Y-97652030D01*
X67770997Y-97668003D01*
X67710110Y-97674000D01*
X66909890Y-97674000D01*
X66849003Y-97668003D01*
X66796347Y-97652030D01*
X66747835Y-97626100D01*
X66705304Y-97591196D01*
X66670400Y-97548665D01*
X66644470Y-97500153D01*
X66628497Y-97447497D01*
X66622500Y-97386610D01*
X66622500Y-96161390D01*
X66628497Y-96100503D01*
X66644470Y-96047847D01*
X66670400Y-95999335D01*
X66705304Y-95956804D01*
X66747835Y-95921900D01*
X66796347Y-95895970D01*
X66849003Y-95879997D01*
X66909890Y-95874000D01*
X67710110Y-95874000D01*
X67770997Y-95879997D01*
X67770997Y-95879997D01*
G37*
G36*
X69645997Y-95879997D02*
X69698653Y-95895970D01*
X69747165Y-95921900D01*
X69789696Y-95956804D01*
X69824600Y-95999335D01*
X69850530Y-96047847D01*
X69866503Y-96100503D01*
X69872500Y-96161390D01*
X69872500Y-97386610D01*
X69866503Y-97447497D01*
X69850530Y-97500153D01*
X69824600Y-97548665D01*
X69789696Y-97591196D01*
X69747165Y-97626100D01*
X69698653Y-97652030D01*
X69645997Y-97668003D01*
X69585110Y-97674000D01*
X68784890Y-97674000D01*
X68724003Y-97668003D01*
X68671347Y-97652030D01*
X68622835Y-97626100D01*
X68580304Y-97591196D01*
X68545400Y-97548665D01*
X68519470Y-97500153D01*
X68503497Y-97447497D01*
X68497500Y-97386610D01*
X68497500Y-96161390D01*
X68503497Y-96100503D01*
X68519470Y-96047847D01*
X68545400Y-95999335D01*
X68580304Y-95956804D01*
X68622835Y-95921900D01*
X68671347Y-95895970D01*
X68724003Y-95879997D01*
X68784890Y-95874000D01*
X69585110Y-95874000D01*
X69645997Y-95879997D01*
X69645997Y-95879997D01*
G37*
G36*
X77562000Y-97170000D02*
X76362000Y-97170000D01*
X76362000Y-95870000D01*
X77562000Y-95870000D01*
X77562000Y-97170000D01*
X77562000Y-97170000D01*
G37*
G36*
X96012997Y-93133997D02*
X96065653Y-93149970D01*
X96114165Y-93175900D01*
X96156696Y-93210804D01*
X96191600Y-93253335D01*
X96217530Y-93301847D01*
X96233503Y-93354503D01*
X96239500Y-93415390D01*
X96239500Y-94640610D01*
X96233503Y-94701497D01*
X96217530Y-94754153D01*
X96191600Y-94802665D01*
X96156696Y-94845196D01*
X96114165Y-94880100D01*
X96065653Y-94906030D01*
X96012997Y-94922003D01*
X95952110Y-94928000D01*
X95726110Y-94928000D01*
X95701724Y-94930402D01*
X95678275Y-94937515D01*
X95656664Y-94949066D01*
X95637722Y-94964612D01*
X95622176Y-94983554D01*
X95610625Y-95005165D01*
X95603512Y-95028614D01*
X95601110Y-95053000D01*
X95603512Y-95077386D01*
X95610625Y-95100835D01*
X95622176Y-95122446D01*
X95637722Y-95141388D01*
X95656664Y-95156934D01*
X95678275Y-95168485D01*
X95689825Y-95172618D01*
X95720652Y-95181969D01*
X95769165Y-95207900D01*
X95811696Y-95242804D01*
X95846600Y-95285335D01*
X95872530Y-95333847D01*
X95888503Y-95386503D01*
X95894500Y-95447390D01*
X95894500Y-96672610D01*
X95888503Y-96733497D01*
X95872530Y-96786153D01*
X95846600Y-96834665D01*
X95811696Y-96877196D01*
X95769165Y-96912100D01*
X95720653Y-96938030D01*
X95667997Y-96954003D01*
X95607110Y-96960000D01*
X94806890Y-96960000D01*
X94746003Y-96954003D01*
X94693347Y-96938030D01*
X94644835Y-96912100D01*
X94602304Y-96877196D01*
X94567400Y-96834665D01*
X94541470Y-96786153D01*
X94525497Y-96733497D01*
X94519500Y-96672610D01*
X94519500Y-95447390D01*
X94525497Y-95386503D01*
X94541470Y-95333847D01*
X94567400Y-95285335D01*
X94602304Y-95242804D01*
X94644835Y-95207900D01*
X94693347Y-95181970D01*
X94746003Y-95165997D01*
X94806890Y-95160000D01*
X95032890Y-95160000D01*
X95057276Y-95157598D01*
X95080725Y-95150485D01*
X95102336Y-95138934D01*
X95121278Y-95123388D01*
X95136824Y-95104446D01*
X95148375Y-95082835D01*
X95155488Y-95059386D01*
X95157890Y-95035000D01*
X95155488Y-95010614D01*
X95148375Y-94987165D01*
X95136824Y-94965554D01*
X95121278Y-94946612D01*
X95102336Y-94931066D01*
X95080725Y-94919515D01*
X95069175Y-94915382D01*
X95038348Y-94906031D01*
X94989835Y-94880100D01*
X94947304Y-94845196D01*
X94912400Y-94802665D01*
X94886470Y-94754153D01*
X94870497Y-94701497D01*
X94864500Y-94640610D01*
X94864500Y-93415390D01*
X94870497Y-93354503D01*
X94886470Y-93301847D01*
X94912400Y-93253335D01*
X94947304Y-93210804D01*
X94989835Y-93175900D01*
X95038347Y-93149970D01*
X95091003Y-93133997D01*
X95151890Y-93128000D01*
X95952110Y-93128000D01*
X96012997Y-93133997D01*
X96012997Y-93133997D01*
G37*
G36*
X93792997Y-95165997D02*
X93845653Y-95181970D01*
X93894165Y-95207900D01*
X93936696Y-95242804D01*
X93971600Y-95285335D01*
X93997530Y-95333847D01*
X94013503Y-95386503D01*
X94019500Y-95447390D01*
X94019500Y-96672610D01*
X94013503Y-96733497D01*
X93997530Y-96786153D01*
X93971600Y-96834665D01*
X93936696Y-96877196D01*
X93894165Y-96912100D01*
X93845653Y-96938030D01*
X93792997Y-96954003D01*
X93732110Y-96960000D01*
X92931890Y-96960000D01*
X92871003Y-96954003D01*
X92818347Y-96938030D01*
X92769835Y-96912100D01*
X92727304Y-96877196D01*
X92692400Y-96834665D01*
X92666470Y-96786153D01*
X92650497Y-96733497D01*
X92644500Y-96672610D01*
X92644500Y-95447390D01*
X92650497Y-95386503D01*
X92666470Y-95333847D01*
X92692400Y-95285335D01*
X92727304Y-95242804D01*
X92769835Y-95207900D01*
X92818347Y-95181970D01*
X92871003Y-95165997D01*
X92931890Y-95160000D01*
X93732110Y-95160000D01*
X93792997Y-95165997D01*
X93792997Y-95165997D01*
G37*
G36*
X88966997Y-95165997D02*
X89019653Y-95181970D01*
X89068165Y-95207900D01*
X89110696Y-95242804D01*
X89145600Y-95285335D01*
X89171530Y-95333847D01*
X89187503Y-95386503D01*
X89193500Y-95447390D01*
X89193500Y-96672610D01*
X89187503Y-96733497D01*
X89171530Y-96786153D01*
X89145600Y-96834665D01*
X89110696Y-96877196D01*
X89068165Y-96912100D01*
X89019653Y-96938030D01*
X88966997Y-96954003D01*
X88906110Y-96960000D01*
X88105890Y-96960000D01*
X88045003Y-96954003D01*
X87992347Y-96938030D01*
X87943835Y-96912100D01*
X87901304Y-96877196D01*
X87866400Y-96834665D01*
X87840470Y-96786153D01*
X87824497Y-96733497D01*
X87818500Y-96672610D01*
X87818500Y-95447390D01*
X87824497Y-95386503D01*
X87840470Y-95333847D01*
X87866400Y-95285335D01*
X87901304Y-95242804D01*
X87943835Y-95207900D01*
X87992347Y-95181970D01*
X88045003Y-95165997D01*
X88105890Y-95160000D01*
X88906110Y-95160000D01*
X88966997Y-95165997D01*
X88966997Y-95165997D01*
G37*
G36*
X87091997Y-95165997D02*
X87144653Y-95181970D01*
X87193165Y-95207900D01*
X87235696Y-95242804D01*
X87270600Y-95285335D01*
X87296530Y-95333847D01*
X87312503Y-95386503D01*
X87318500Y-95447390D01*
X87318500Y-96672610D01*
X87312503Y-96733497D01*
X87296530Y-96786153D01*
X87270600Y-96834665D01*
X87235696Y-96877196D01*
X87193165Y-96912100D01*
X87144653Y-96938030D01*
X87091997Y-96954003D01*
X87031110Y-96960000D01*
X86230890Y-96960000D01*
X86170003Y-96954003D01*
X86117347Y-96938030D01*
X86068835Y-96912100D01*
X86026304Y-96877196D01*
X85991400Y-96834665D01*
X85965470Y-96786153D01*
X85949497Y-96733497D01*
X85943500Y-96672610D01*
X85943500Y-95447390D01*
X85949497Y-95386503D01*
X85965470Y-95333847D01*
X85991400Y-95285335D01*
X86026304Y-95242804D01*
X86068835Y-95207900D01*
X86117347Y-95181970D01*
X86170003Y-95165997D01*
X86230890Y-95160000D01*
X87031110Y-95160000D01*
X87091997Y-95165997D01*
X87091997Y-95165997D01*
G37*
G36*
X52336452Y-94434627D02*
X52474105Y-94462008D01*
X52646994Y-94533621D01*
X52802590Y-94637587D01*
X52934913Y-94769910D01*
X53038879Y-94925506D01*
X53110492Y-95098395D01*
X53147000Y-95281933D01*
X53147000Y-95469067D01*
X53110492Y-95652605D01*
X53038879Y-95825494D01*
X52934913Y-95981090D01*
X52802590Y-96113413D01*
X52646994Y-96217379D01*
X52474105Y-96288992D01*
X52336451Y-96316373D01*
X52290568Y-96325500D01*
X52103432Y-96325500D01*
X52057549Y-96316373D01*
X51919895Y-96288992D01*
X51747006Y-96217379D01*
X51591410Y-96113413D01*
X51459087Y-95981090D01*
X51355121Y-95825494D01*
X51283508Y-95652605D01*
X51247000Y-95469067D01*
X51247000Y-95281933D01*
X51283508Y-95098395D01*
X51355121Y-94925506D01*
X51459087Y-94769910D01*
X51591410Y-94637587D01*
X51747006Y-94533621D01*
X51919895Y-94462008D01*
X52057548Y-94434627D01*
X52103432Y-94425500D01*
X52290568Y-94425500D01*
X52336452Y-94434627D01*
X52336452Y-94434627D01*
G37*
G36*
X116125888Y-93454470D02*
X116306274Y-93490350D01*
X116497362Y-93569502D01*
X116669336Y-93684411D01*
X116815589Y-93830664D01*
X116930498Y-94002638D01*
X117009650Y-94193726D01*
X117050000Y-94396584D01*
X117050000Y-94603416D01*
X117009650Y-94806274D01*
X116930498Y-94997362D01*
X116815589Y-95169336D01*
X116669336Y-95315589D01*
X116497362Y-95430498D01*
X116306274Y-95509650D01*
X116125888Y-95545530D01*
X116103417Y-95550000D01*
X115896583Y-95550000D01*
X115874112Y-95545530D01*
X115693726Y-95509650D01*
X115502638Y-95430498D01*
X115330664Y-95315589D01*
X115184411Y-95169336D01*
X115069502Y-94997362D01*
X114990350Y-94806274D01*
X114950000Y-94603416D01*
X114950000Y-94396584D01*
X114990350Y-94193726D01*
X115069502Y-94002638D01*
X115184411Y-93830664D01*
X115330664Y-93684411D01*
X115502638Y-93569502D01*
X115693726Y-93490350D01*
X115874112Y-93454470D01*
X115896583Y-93450000D01*
X116103417Y-93450000D01*
X116125888Y-93454470D01*
X116125888Y-93454470D01*
G37*
G36*
X78512000Y-95170000D02*
X77312000Y-95170000D01*
X77312000Y-93870000D01*
X78512000Y-93870000D01*
X78512000Y-95170000D01*
X78512000Y-95170000D01*
G37*
G36*
X76612000Y-95170000D02*
X75412000Y-95170000D01*
X75412000Y-93870000D01*
X76612000Y-93870000D01*
X76612000Y-95170000D01*
X76612000Y-95170000D01*
G37*
G36*
X97887997Y-93133997D02*
X97940653Y-93149970D01*
X97989165Y-93175900D01*
X98031696Y-93210804D01*
X98066600Y-93253335D01*
X98092530Y-93301847D01*
X98108503Y-93354503D01*
X98114500Y-93415390D01*
X98114500Y-94640610D01*
X98108503Y-94701497D01*
X98092530Y-94754153D01*
X98066600Y-94802665D01*
X98031696Y-94845196D01*
X97989165Y-94880100D01*
X97940653Y-94906030D01*
X97887997Y-94922003D01*
X97827110Y-94928000D01*
X97026890Y-94928000D01*
X96966003Y-94922003D01*
X96913347Y-94906030D01*
X96864835Y-94880100D01*
X96822304Y-94845196D01*
X96787400Y-94802665D01*
X96761470Y-94754153D01*
X96745497Y-94701497D01*
X96739500Y-94640610D01*
X96739500Y-93415390D01*
X96745497Y-93354503D01*
X96761470Y-93301847D01*
X96787400Y-93253335D01*
X96822304Y-93210804D01*
X96864835Y-93175900D01*
X96913347Y-93149970D01*
X96966003Y-93133997D01*
X97026890Y-93128000D01*
X97827110Y-93128000D01*
X97887997Y-93133997D01*
X97887997Y-93133997D01*
G37*
G36*
X67770997Y-92577997D02*
X67823653Y-92593970D01*
X67872165Y-92619900D01*
X67914696Y-92654804D01*
X67949600Y-92697335D01*
X67975530Y-92745847D01*
X67991503Y-92798503D01*
X67997500Y-92859390D01*
X67997500Y-94084610D01*
X67991503Y-94145497D01*
X67975530Y-94198153D01*
X67949600Y-94246665D01*
X67914696Y-94289196D01*
X67872165Y-94324100D01*
X67823653Y-94350030D01*
X67770997Y-94366003D01*
X67710110Y-94372000D01*
X66909890Y-94372000D01*
X66849003Y-94366003D01*
X66796347Y-94350030D01*
X66747835Y-94324100D01*
X66705304Y-94289196D01*
X66670400Y-94246665D01*
X66644470Y-94198153D01*
X66628497Y-94145497D01*
X66622500Y-94084610D01*
X66622500Y-92859390D01*
X66628497Y-92798503D01*
X66644470Y-92745847D01*
X66670400Y-92697335D01*
X66705304Y-92654804D01*
X66747835Y-92619900D01*
X66796347Y-92593970D01*
X66849003Y-92577997D01*
X66909890Y-92572000D01*
X67710110Y-92572000D01*
X67770997Y-92577997D01*
X67770997Y-92577997D01*
G37*
G36*
X61771997Y-92577997D02*
X61824653Y-92593970D01*
X61873165Y-92619900D01*
X61915696Y-92654804D01*
X61950600Y-92697335D01*
X61976530Y-92745847D01*
X61992503Y-92798503D01*
X61998500Y-92859390D01*
X61998500Y-94084610D01*
X61992503Y-94145497D01*
X61976530Y-94198153D01*
X61950600Y-94246665D01*
X61915696Y-94289196D01*
X61873165Y-94324100D01*
X61824653Y-94350030D01*
X61771997Y-94366003D01*
X61711110Y-94372000D01*
X60910890Y-94372000D01*
X60850003Y-94366003D01*
X60797347Y-94350030D01*
X60748835Y-94324100D01*
X60706304Y-94289196D01*
X60671400Y-94246665D01*
X60645470Y-94198153D01*
X60629497Y-94145497D01*
X60623500Y-94084610D01*
X60623500Y-92859390D01*
X60629497Y-92798503D01*
X60645470Y-92745847D01*
X60671400Y-92697335D01*
X60706304Y-92654804D01*
X60748835Y-92619900D01*
X60797347Y-92593970D01*
X60850003Y-92577997D01*
X60910890Y-92572000D01*
X61711110Y-92572000D01*
X61771997Y-92577997D01*
X61771997Y-92577997D01*
G37*
G36*
X55418497Y-92577997D02*
X55471153Y-92593970D01*
X55519665Y-92619900D01*
X55562196Y-92654804D01*
X55597100Y-92697335D01*
X55623030Y-92745847D01*
X55639003Y-92798503D01*
X55645000Y-92859390D01*
X55645000Y-94084610D01*
X55639003Y-94145497D01*
X55623030Y-94198153D01*
X55597100Y-94246665D01*
X55562196Y-94289196D01*
X55519665Y-94324100D01*
X55471153Y-94350030D01*
X55418497Y-94366003D01*
X55357610Y-94372000D01*
X54557390Y-94372000D01*
X54496503Y-94366003D01*
X54443847Y-94350030D01*
X54395335Y-94324100D01*
X54352804Y-94289196D01*
X54317900Y-94246665D01*
X54291970Y-94198153D01*
X54275997Y-94145497D01*
X54270000Y-94084610D01*
X54270000Y-92859390D01*
X54275997Y-92798503D01*
X54291970Y-92745847D01*
X54317900Y-92697335D01*
X54352804Y-92654804D01*
X54395335Y-92619900D01*
X54443847Y-92593970D01*
X54496503Y-92577997D01*
X54557390Y-92572000D01*
X55357610Y-92572000D01*
X55418497Y-92577997D01*
X55418497Y-92577997D01*
G37*
G36*
X57293497Y-92577997D02*
X57346153Y-92593970D01*
X57394665Y-92619900D01*
X57437196Y-92654804D01*
X57472100Y-92697335D01*
X57498030Y-92745847D01*
X57514003Y-92798503D01*
X57520000Y-92859390D01*
X57520000Y-94084610D01*
X57514003Y-94145497D01*
X57498030Y-94198153D01*
X57472100Y-94246665D01*
X57437196Y-94289196D01*
X57394665Y-94324100D01*
X57346153Y-94350030D01*
X57293497Y-94366003D01*
X57232610Y-94372000D01*
X56432390Y-94372000D01*
X56371503Y-94366003D01*
X56318847Y-94350030D01*
X56270335Y-94324100D01*
X56227804Y-94289196D01*
X56192900Y-94246665D01*
X56166970Y-94198153D01*
X56150997Y-94145497D01*
X56145000Y-94084610D01*
X56145000Y-92859390D01*
X56150997Y-92798503D01*
X56166970Y-92745847D01*
X56192900Y-92697335D01*
X56227804Y-92654804D01*
X56270335Y-92619900D01*
X56318847Y-92593970D01*
X56371503Y-92577997D01*
X56432390Y-92572000D01*
X57232610Y-92572000D01*
X57293497Y-92577997D01*
X57293497Y-92577997D01*
G37*
G36*
X69645997Y-92577997D02*
X69698653Y-92593970D01*
X69747165Y-92619900D01*
X69789696Y-92654804D01*
X69824600Y-92697335D01*
X69850530Y-92745847D01*
X69866503Y-92798503D01*
X69872500Y-92859390D01*
X69872500Y-94084610D01*
X69866503Y-94145497D01*
X69850530Y-94198153D01*
X69824600Y-94246665D01*
X69789696Y-94289196D01*
X69747165Y-94324100D01*
X69698653Y-94350030D01*
X69645997Y-94366003D01*
X69585110Y-94372000D01*
X68784890Y-94372000D01*
X68724003Y-94366003D01*
X68671347Y-94350030D01*
X68622835Y-94324100D01*
X68580304Y-94289196D01*
X68545400Y-94246665D01*
X68519470Y-94198153D01*
X68503497Y-94145497D01*
X68497500Y-94084610D01*
X68497500Y-92859390D01*
X68503497Y-92798503D01*
X68519470Y-92745847D01*
X68545400Y-92697335D01*
X68580304Y-92654804D01*
X68622835Y-92619900D01*
X68671347Y-92593970D01*
X68724003Y-92577997D01*
X68784890Y-92572000D01*
X69585110Y-92572000D01*
X69645997Y-92577997D01*
X69645997Y-92577997D01*
G37*
G36*
X63863997Y-92577997D02*
X63916653Y-92593970D01*
X63965165Y-92619900D01*
X64007696Y-92654804D01*
X64042600Y-92697335D01*
X64068530Y-92745847D01*
X64084503Y-92798503D01*
X64090500Y-92859390D01*
X64090500Y-94084610D01*
X64084503Y-94145497D01*
X64068530Y-94198153D01*
X64042600Y-94246665D01*
X64007696Y-94289196D01*
X63965165Y-94324100D01*
X63916653Y-94350030D01*
X63863997Y-94366003D01*
X63803110Y-94372000D01*
X63002890Y-94372000D01*
X62942003Y-94366003D01*
X62889347Y-94350030D01*
X62840835Y-94324100D01*
X62798304Y-94289196D01*
X62763400Y-94246665D01*
X62737470Y-94198153D01*
X62721497Y-94145497D01*
X62715500Y-94084610D01*
X62715500Y-92859390D01*
X62721497Y-92798503D01*
X62737470Y-92745847D01*
X62763400Y-92697335D01*
X62798304Y-92654804D01*
X62840835Y-92619900D01*
X62889347Y-92593970D01*
X62942003Y-92577997D01*
X63002890Y-92572000D01*
X63803110Y-92572000D01*
X63863997Y-92577997D01*
X63863997Y-92577997D01*
G37*
G36*
X65738997Y-92577997D02*
X65791653Y-92593970D01*
X65840165Y-92619900D01*
X65882696Y-92654804D01*
X65917600Y-92697335D01*
X65943530Y-92745847D01*
X65959503Y-92798503D01*
X65965500Y-92859390D01*
X65965500Y-94084610D01*
X65959503Y-94145497D01*
X65943530Y-94198153D01*
X65917600Y-94246665D01*
X65882696Y-94289196D01*
X65840165Y-94324100D01*
X65791653Y-94350030D01*
X65738997Y-94366003D01*
X65678110Y-94372000D01*
X64877890Y-94372000D01*
X64817003Y-94366003D01*
X64764347Y-94350030D01*
X64715835Y-94324100D01*
X64673304Y-94289196D01*
X64638400Y-94246665D01*
X64612470Y-94198153D01*
X64596497Y-94145497D01*
X64590500Y-94084610D01*
X64590500Y-92859390D01*
X64596497Y-92798503D01*
X64612470Y-92745847D01*
X64638400Y-92697335D01*
X64673304Y-92654804D01*
X64715835Y-92619900D01*
X64764347Y-92593970D01*
X64817003Y-92577997D01*
X64877890Y-92572000D01*
X65678110Y-92572000D01*
X65738997Y-92577997D01*
X65738997Y-92577997D01*
G37*
G36*
X59896997Y-92577997D02*
X59949653Y-92593970D01*
X59998165Y-92619900D01*
X60040696Y-92654804D01*
X60075600Y-92697335D01*
X60101530Y-92745847D01*
X60117503Y-92798503D01*
X60123500Y-92859390D01*
X60123500Y-94084610D01*
X60117503Y-94145497D01*
X60101530Y-94198153D01*
X60075600Y-94246665D01*
X60040696Y-94289196D01*
X59998165Y-94324100D01*
X59949653Y-94350030D01*
X59896997Y-94366003D01*
X59836110Y-94372000D01*
X59035890Y-94372000D01*
X58975003Y-94366003D01*
X58922347Y-94350030D01*
X58873835Y-94324100D01*
X58831304Y-94289196D01*
X58796400Y-94246665D01*
X58770470Y-94198153D01*
X58754497Y-94145497D01*
X58748500Y-94084610D01*
X58748500Y-92859390D01*
X58754497Y-92798503D01*
X58770470Y-92745847D01*
X58796400Y-92697335D01*
X58831304Y-92654804D01*
X58873835Y-92619900D01*
X58922347Y-92593970D01*
X58975003Y-92577997D01*
X59035890Y-92572000D01*
X59836110Y-92572000D01*
X59896997Y-92577997D01*
X59896997Y-92577997D01*
G37*
G36*
X77562000Y-93614000D02*
X76362000Y-93614000D01*
X76362000Y-92314000D01*
X77562000Y-92314000D01*
X77562000Y-93614000D01*
X77562000Y-93614000D01*
G37*
G36*
X52336452Y-91434627D02*
X52474105Y-91462008D01*
X52646994Y-91533621D01*
X52802590Y-91637587D01*
X52934913Y-91769910D01*
X53038879Y-91925506D01*
X53110492Y-92098395D01*
X53147000Y-92281933D01*
X53147000Y-92469067D01*
X53110492Y-92652605D01*
X53038879Y-92825494D01*
X52934913Y-92981090D01*
X52802590Y-93113413D01*
X52646994Y-93217379D01*
X52474105Y-93288992D01*
X52336452Y-93316373D01*
X52290568Y-93325500D01*
X52103432Y-93325500D01*
X52057548Y-93316373D01*
X51919895Y-93288992D01*
X51747006Y-93217379D01*
X51591410Y-93113413D01*
X51459087Y-92981090D01*
X51355121Y-92825494D01*
X51283508Y-92652605D01*
X51247000Y-92469067D01*
X51247000Y-92281933D01*
X51283508Y-92098395D01*
X51355121Y-91925506D01*
X51459087Y-91769910D01*
X51591410Y-91637587D01*
X51747006Y-91533621D01*
X51919895Y-91462008D01*
X52057548Y-91434627D01*
X52103432Y-91425500D01*
X52290568Y-91425500D01*
X52336452Y-91434627D01*
X52336452Y-91434627D01*
G37*
G36*
X95667997Y-90847997D02*
X95720653Y-90863970D01*
X95769165Y-90889900D01*
X95811696Y-90924804D01*
X95846600Y-90967335D01*
X95872530Y-91015847D01*
X95888503Y-91068503D01*
X95894500Y-91129390D01*
X95894500Y-92354610D01*
X95888503Y-92415497D01*
X95872530Y-92468153D01*
X95846600Y-92516665D01*
X95811696Y-92559196D01*
X95769165Y-92594100D01*
X95720653Y-92620030D01*
X95667997Y-92636003D01*
X95607110Y-92642000D01*
X94806890Y-92642000D01*
X94746003Y-92636003D01*
X94693347Y-92620030D01*
X94644835Y-92594100D01*
X94602304Y-92559196D01*
X94567400Y-92516665D01*
X94541470Y-92468153D01*
X94525497Y-92415497D01*
X94519500Y-92354610D01*
X94519500Y-91129390D01*
X94525497Y-91068503D01*
X94541470Y-91015847D01*
X94567400Y-90967335D01*
X94602304Y-90924804D01*
X94644835Y-90889900D01*
X94693347Y-90863970D01*
X94746003Y-90847997D01*
X94806890Y-90842000D01*
X95607110Y-90842000D01*
X95667997Y-90847997D01*
X95667997Y-90847997D01*
G37*
G36*
X93792997Y-90847997D02*
X93845653Y-90863970D01*
X93894165Y-90889900D01*
X93936696Y-90924804D01*
X93971600Y-90967335D01*
X93997530Y-91015847D01*
X94013503Y-91068503D01*
X94019500Y-91129390D01*
X94019500Y-92354610D01*
X94013503Y-92415497D01*
X93997530Y-92468153D01*
X93971600Y-92516665D01*
X93936696Y-92559196D01*
X93894165Y-92594100D01*
X93845653Y-92620030D01*
X93792997Y-92636003D01*
X93732110Y-92642000D01*
X92931890Y-92642000D01*
X92871003Y-92636003D01*
X92818347Y-92620030D01*
X92769835Y-92594100D01*
X92727304Y-92559196D01*
X92692400Y-92516665D01*
X92666470Y-92468153D01*
X92650497Y-92415497D01*
X92644500Y-92354610D01*
X92644500Y-91129390D01*
X92650497Y-91068503D01*
X92666470Y-91015847D01*
X92692400Y-90967335D01*
X92727304Y-90924804D01*
X92769835Y-90889900D01*
X92818347Y-90863970D01*
X92871003Y-90847997D01*
X92931890Y-90842000D01*
X93732110Y-90842000D01*
X93792997Y-90847997D01*
X93792997Y-90847997D01*
G37*
G36*
X118203558Y-90697088D02*
X118355522Y-90760033D01*
X118492284Y-90851415D01*
X118608585Y-90967716D01*
X118699967Y-91104478D01*
X118762912Y-91256442D01*
X118795000Y-91417758D01*
X118795000Y-91582242D01*
X118762912Y-91743558D01*
X118699967Y-91895522D01*
X118608585Y-92032284D01*
X118492284Y-92148585D01*
X118355522Y-92239967D01*
X118203558Y-92302912D01*
X118042242Y-92335000D01*
X117877758Y-92335000D01*
X117716442Y-92302912D01*
X117564478Y-92239967D01*
X117427716Y-92148585D01*
X117311415Y-92032284D01*
X117220033Y-91895522D01*
X117157088Y-91743558D01*
X117125000Y-91582242D01*
X117125000Y-91417758D01*
X117157088Y-91256442D01*
X117220033Y-91104478D01*
X117311415Y-90967716D01*
X117427716Y-90851415D01*
X117564478Y-90760033D01*
X117716442Y-90697088D01*
X117877758Y-90665000D01*
X118042242Y-90665000D01*
X118203558Y-90697088D01*
X118203558Y-90697088D01*
G37*
G36*
X78512000Y-91614000D02*
X77312000Y-91614000D01*
X77312000Y-90314000D01*
X78512000Y-90314000D01*
X78512000Y-91614000D01*
X78512000Y-91614000D01*
G37*
G36*
X76612000Y-91614000D02*
X75412000Y-91614000D01*
X75412000Y-90314000D01*
X76612000Y-90314000D01*
X76612000Y-91614000D01*
X76612000Y-91614000D01*
G37*
G36*
X61771997Y-89275997D02*
X61824653Y-89291970D01*
X61873165Y-89317900D01*
X61915696Y-89352804D01*
X61950600Y-89395335D01*
X61976530Y-89443847D01*
X61992503Y-89496503D01*
X61998500Y-89557390D01*
X61998500Y-90782610D01*
X61992503Y-90843497D01*
X61976530Y-90896153D01*
X61950600Y-90944665D01*
X61915696Y-90987196D01*
X61873165Y-91022100D01*
X61824653Y-91048030D01*
X61771997Y-91064003D01*
X61711110Y-91070000D01*
X60910890Y-91070000D01*
X60850003Y-91064003D01*
X60797347Y-91048030D01*
X60748835Y-91022100D01*
X60706304Y-90987196D01*
X60671400Y-90944665D01*
X60645470Y-90896153D01*
X60629497Y-90843497D01*
X60623500Y-90782610D01*
X60623500Y-89557390D01*
X60629497Y-89496503D01*
X60645470Y-89443847D01*
X60671400Y-89395335D01*
X60706304Y-89352804D01*
X60748835Y-89317900D01*
X60797347Y-89291970D01*
X60850003Y-89275997D01*
X60910890Y-89270000D01*
X61711110Y-89270000D01*
X61771997Y-89275997D01*
X61771997Y-89275997D01*
G37*
G36*
X63863997Y-89275997D02*
X63916653Y-89291970D01*
X63965165Y-89317900D01*
X64007696Y-89352804D01*
X64042600Y-89395335D01*
X64068530Y-89443847D01*
X64084503Y-89496503D01*
X64090500Y-89557390D01*
X64090500Y-90782610D01*
X64084503Y-90843497D01*
X64068530Y-90896153D01*
X64042600Y-90944665D01*
X64007696Y-90987196D01*
X63965165Y-91022100D01*
X63916653Y-91048030D01*
X63863997Y-91064003D01*
X63803110Y-91070000D01*
X63002890Y-91070000D01*
X62942003Y-91064003D01*
X62889347Y-91048030D01*
X62840835Y-91022100D01*
X62798304Y-90987196D01*
X62763400Y-90944665D01*
X62737470Y-90896153D01*
X62721497Y-90843497D01*
X62715500Y-90782610D01*
X62715500Y-89557390D01*
X62721497Y-89496503D01*
X62737470Y-89443847D01*
X62763400Y-89395335D01*
X62798304Y-89352804D01*
X62840835Y-89317900D01*
X62889347Y-89291970D01*
X62942003Y-89275997D01*
X63002890Y-89270000D01*
X63803110Y-89270000D01*
X63863997Y-89275997D01*
X63863997Y-89275997D01*
G37*
G36*
X65738997Y-89275997D02*
X65791653Y-89291970D01*
X65840165Y-89317900D01*
X65882696Y-89352804D01*
X65917600Y-89395335D01*
X65943530Y-89443847D01*
X65959503Y-89496503D01*
X65965500Y-89557390D01*
X65965500Y-90782610D01*
X65959503Y-90843497D01*
X65943530Y-90896153D01*
X65917600Y-90944665D01*
X65882696Y-90987196D01*
X65840165Y-91022100D01*
X65791653Y-91048030D01*
X65738997Y-91064003D01*
X65678110Y-91070000D01*
X64877890Y-91070000D01*
X64817003Y-91064003D01*
X64764347Y-91048030D01*
X64715835Y-91022100D01*
X64673304Y-90987196D01*
X64638400Y-90944665D01*
X64612470Y-90896153D01*
X64596497Y-90843497D01*
X64590500Y-90782610D01*
X64590500Y-89557390D01*
X64596497Y-89496503D01*
X64612470Y-89443847D01*
X64638400Y-89395335D01*
X64673304Y-89352804D01*
X64715835Y-89317900D01*
X64764347Y-89291970D01*
X64817003Y-89275997D01*
X64877890Y-89270000D01*
X65678110Y-89270000D01*
X65738997Y-89275997D01*
X65738997Y-89275997D01*
G37*
G36*
X67770997Y-89275997D02*
X67823653Y-89291970D01*
X67872165Y-89317900D01*
X67914696Y-89352804D01*
X67949600Y-89395335D01*
X67975530Y-89443847D01*
X67991503Y-89496503D01*
X67997500Y-89557390D01*
X67997500Y-90782610D01*
X67991503Y-90843497D01*
X67975530Y-90896153D01*
X67949600Y-90944665D01*
X67914696Y-90987196D01*
X67872165Y-91022100D01*
X67823653Y-91048030D01*
X67770997Y-91064003D01*
X67710110Y-91070000D01*
X66909890Y-91070000D01*
X66849003Y-91064003D01*
X66796347Y-91048030D01*
X66747835Y-91022100D01*
X66705304Y-90987196D01*
X66670400Y-90944665D01*
X66644470Y-90896153D01*
X66628497Y-90843497D01*
X66622500Y-90782610D01*
X66622500Y-89557390D01*
X66628497Y-89496503D01*
X66644470Y-89443847D01*
X66670400Y-89395335D01*
X66705304Y-89352804D01*
X66747835Y-89317900D01*
X66796347Y-89291970D01*
X66849003Y-89275997D01*
X66909890Y-89270000D01*
X67710110Y-89270000D01*
X67770997Y-89275997D01*
X67770997Y-89275997D01*
G37*
G36*
X57293497Y-89275997D02*
X57346153Y-89291970D01*
X57394665Y-89317900D01*
X57437196Y-89352804D01*
X57472100Y-89395335D01*
X57498030Y-89443847D01*
X57514003Y-89496503D01*
X57520000Y-89557390D01*
X57520000Y-90782610D01*
X57514003Y-90843497D01*
X57498030Y-90896153D01*
X57472100Y-90944665D01*
X57437196Y-90987196D01*
X57394665Y-91022100D01*
X57346153Y-91048030D01*
X57293497Y-91064003D01*
X57232610Y-91070000D01*
X56432390Y-91070000D01*
X56371503Y-91064003D01*
X56318847Y-91048030D01*
X56270335Y-91022100D01*
X56227804Y-90987196D01*
X56192900Y-90944665D01*
X56166970Y-90896153D01*
X56150997Y-90843497D01*
X56145000Y-90782610D01*
X56145000Y-89557390D01*
X56150997Y-89496503D01*
X56166970Y-89443847D01*
X56192900Y-89395335D01*
X56227804Y-89352804D01*
X56270335Y-89317900D01*
X56318847Y-89291970D01*
X56371503Y-89275997D01*
X56432390Y-89270000D01*
X57232610Y-89270000D01*
X57293497Y-89275997D01*
X57293497Y-89275997D01*
G37*
G36*
X59896997Y-89275997D02*
X59949653Y-89291970D01*
X59998165Y-89317900D01*
X60040696Y-89352804D01*
X60075600Y-89395335D01*
X60101530Y-89443847D01*
X60117503Y-89496503D01*
X60123500Y-89557390D01*
X60123500Y-90782610D01*
X60117503Y-90843497D01*
X60101530Y-90896153D01*
X60075600Y-90944665D01*
X60040696Y-90987196D01*
X59998165Y-91022100D01*
X59949653Y-91048030D01*
X59896997Y-91064003D01*
X59836110Y-91070000D01*
X59035890Y-91070000D01*
X58975003Y-91064003D01*
X58922347Y-91048030D01*
X58873835Y-91022100D01*
X58831304Y-90987196D01*
X58796400Y-90944665D01*
X58770470Y-90896153D01*
X58754497Y-90843497D01*
X58748500Y-90782610D01*
X58748500Y-89557390D01*
X58754497Y-89496503D01*
X58770470Y-89443847D01*
X58796400Y-89395335D01*
X58831304Y-89352804D01*
X58873835Y-89317900D01*
X58922347Y-89291970D01*
X58975003Y-89275997D01*
X59035890Y-89270000D01*
X59836110Y-89270000D01*
X59896997Y-89275997D01*
X59896997Y-89275997D01*
G37*
G36*
X55418497Y-89275997D02*
X55471153Y-89291970D01*
X55519665Y-89317900D01*
X55562196Y-89352804D01*
X55597100Y-89395335D01*
X55623030Y-89443847D01*
X55639003Y-89496503D01*
X55645000Y-89557390D01*
X55645000Y-90782610D01*
X55639003Y-90843497D01*
X55623030Y-90896153D01*
X55597100Y-90944665D01*
X55562196Y-90987196D01*
X55519665Y-91022100D01*
X55471153Y-91048030D01*
X55418497Y-91064003D01*
X55357610Y-91070000D01*
X54557390Y-91070000D01*
X54496503Y-91064003D01*
X54443847Y-91048030D01*
X54395335Y-91022100D01*
X54352804Y-90987196D01*
X54317900Y-90944665D01*
X54291970Y-90896153D01*
X54275997Y-90843497D01*
X54270000Y-90782610D01*
X54270000Y-89557390D01*
X54275997Y-89496503D01*
X54291970Y-89443847D01*
X54317900Y-89395335D01*
X54352804Y-89352804D01*
X54395335Y-89317900D01*
X54443847Y-89291970D01*
X54496503Y-89275997D01*
X54557390Y-89270000D01*
X55357610Y-89270000D01*
X55418497Y-89275997D01*
X55418497Y-89275997D01*
G37*
G36*
X69645997Y-89275997D02*
X69698653Y-89291970D01*
X69747165Y-89317900D01*
X69789696Y-89352804D01*
X69824600Y-89395335D01*
X69850530Y-89443847D01*
X69866503Y-89496503D01*
X69872500Y-89557390D01*
X69872500Y-90782610D01*
X69866503Y-90843497D01*
X69850530Y-90896153D01*
X69824600Y-90944665D01*
X69789696Y-90987196D01*
X69747165Y-91022100D01*
X69698653Y-91048030D01*
X69645997Y-91064003D01*
X69585110Y-91070000D01*
X68784890Y-91070000D01*
X68724003Y-91064003D01*
X68671347Y-91048030D01*
X68622835Y-91022100D01*
X68580304Y-90987196D01*
X68545400Y-90944665D01*
X68519470Y-90896153D01*
X68503497Y-90843497D01*
X68497500Y-90782610D01*
X68497500Y-89557390D01*
X68503497Y-89496503D01*
X68519470Y-89443847D01*
X68545400Y-89395335D01*
X68580304Y-89352804D01*
X68622835Y-89317900D01*
X68671347Y-89291970D01*
X68724003Y-89275997D01*
X68784890Y-89270000D01*
X69585110Y-89270000D01*
X69645997Y-89275997D01*
X69645997Y-89275997D01*
G37*
G36*
X52336451Y-88434627D02*
X52474105Y-88462008D01*
X52646994Y-88533621D01*
X52802590Y-88637587D01*
X52934913Y-88769910D01*
X53038879Y-88925506D01*
X53110492Y-89098395D01*
X53137873Y-89236049D01*
X53144627Y-89270000D01*
X53147000Y-89281933D01*
X53147000Y-89469067D01*
X53110492Y-89652605D01*
X53038879Y-89825494D01*
X52934913Y-89981090D01*
X52802590Y-90113413D01*
X52646994Y-90217379D01*
X52474105Y-90288992D01*
X52348381Y-90314000D01*
X52290568Y-90325500D01*
X52103432Y-90325500D01*
X52045619Y-90314000D01*
X51919895Y-90288992D01*
X51747006Y-90217379D01*
X51591410Y-90113413D01*
X51459087Y-89981090D01*
X51355121Y-89825494D01*
X51283508Y-89652605D01*
X51247000Y-89469067D01*
X51247000Y-89281933D01*
X51249374Y-89270000D01*
X51256127Y-89236049D01*
X51283508Y-89098395D01*
X51355121Y-88925506D01*
X51459087Y-88769910D01*
X51591410Y-88637587D01*
X51747006Y-88533621D01*
X51919895Y-88462008D01*
X52057549Y-88434627D01*
X52103432Y-88425500D01*
X52290568Y-88425500D01*
X52336451Y-88434627D01*
X52336451Y-88434627D01*
G37*
G36*
X77562000Y-90058000D02*
X76362000Y-90058000D01*
X76362000Y-88758000D01*
X77562000Y-88758000D01*
X77562000Y-90058000D01*
X77562000Y-90058000D01*
G37*
G36*
X118203558Y-86697088D02*
X118355522Y-86760033D01*
X118492284Y-86851415D01*
X118608585Y-86967716D01*
X118699967Y-87104478D01*
X118762912Y-87256442D01*
X118795000Y-87417758D01*
X118795000Y-87582242D01*
X118762912Y-87743558D01*
X118699967Y-87895522D01*
X118608585Y-88032284D01*
X118492284Y-88148585D01*
X118355522Y-88239967D01*
X118203558Y-88302912D01*
X118042242Y-88335000D01*
X117877758Y-88335000D01*
X117716442Y-88302912D01*
X117564478Y-88239967D01*
X117427716Y-88148585D01*
X117311415Y-88032284D01*
X117220033Y-87895522D01*
X117157088Y-87743558D01*
X117125000Y-87582242D01*
X117125000Y-87417758D01*
X117157088Y-87256442D01*
X117220033Y-87104478D01*
X117311415Y-86967716D01*
X117427716Y-86851415D01*
X117564478Y-86760033D01*
X117716442Y-86697088D01*
X117877758Y-86665000D01*
X118042242Y-86665000D01*
X118203558Y-86697088D01*
X118203558Y-86697088D01*
G37*
G36*
X76612000Y-88058000D02*
X75412000Y-88058000D01*
X75412000Y-86758000D01*
X76612000Y-86758000D01*
X76612000Y-88058000D01*
X76612000Y-88058000D01*
G37*
G36*
X78512000Y-88058000D02*
X77312000Y-88058000D01*
X77312000Y-86758000D01*
X78512000Y-86758000D01*
X78512000Y-88058000D01*
X78512000Y-88058000D01*
G37*
G36*
X65738997Y-85973997D02*
X65791653Y-85989970D01*
X65840165Y-86015900D01*
X65882696Y-86050804D01*
X65917600Y-86093335D01*
X65943530Y-86141847D01*
X65959503Y-86194503D01*
X65965500Y-86255390D01*
X65965500Y-87480610D01*
X65959503Y-87541497D01*
X65943530Y-87594153D01*
X65917600Y-87642665D01*
X65882696Y-87685196D01*
X65840165Y-87720100D01*
X65791653Y-87746030D01*
X65738997Y-87762003D01*
X65678110Y-87768000D01*
X64877890Y-87768000D01*
X64817003Y-87762003D01*
X64764347Y-87746030D01*
X64715835Y-87720100D01*
X64673304Y-87685196D01*
X64638400Y-87642665D01*
X64612470Y-87594153D01*
X64596497Y-87541497D01*
X64590500Y-87480610D01*
X64590500Y-86255390D01*
X64596497Y-86194503D01*
X64612470Y-86141847D01*
X64638400Y-86093335D01*
X64673304Y-86050804D01*
X64715835Y-86015900D01*
X64764347Y-85989970D01*
X64817003Y-85973997D01*
X64877890Y-85968000D01*
X65678110Y-85968000D01*
X65738997Y-85973997D01*
X65738997Y-85973997D01*
G37*
G36*
X67770997Y-85973997D02*
X67823653Y-85989970D01*
X67872165Y-86015900D01*
X67914696Y-86050804D01*
X67949600Y-86093335D01*
X67975530Y-86141847D01*
X67991503Y-86194503D01*
X67997500Y-86255390D01*
X67997500Y-87480610D01*
X67991503Y-87541497D01*
X67975530Y-87594153D01*
X67949600Y-87642665D01*
X67914696Y-87685196D01*
X67872165Y-87720100D01*
X67823653Y-87746030D01*
X67770997Y-87762003D01*
X67710110Y-87768000D01*
X66909890Y-87768000D01*
X66849003Y-87762003D01*
X66796347Y-87746030D01*
X66747835Y-87720100D01*
X66705304Y-87685196D01*
X66670400Y-87642665D01*
X66644470Y-87594153D01*
X66628497Y-87541497D01*
X66622500Y-87480610D01*
X66622500Y-86255390D01*
X66628497Y-86194503D01*
X66644470Y-86141847D01*
X66670400Y-86093335D01*
X66705304Y-86050804D01*
X66747835Y-86015900D01*
X66796347Y-85989970D01*
X66849003Y-85973997D01*
X66909890Y-85968000D01*
X67710110Y-85968000D01*
X67770997Y-85973997D01*
X67770997Y-85973997D01*
G37*
G36*
X69645997Y-85973997D02*
X69698653Y-85989970D01*
X69747165Y-86015900D01*
X69789696Y-86050804D01*
X69824600Y-86093335D01*
X69850530Y-86141847D01*
X69866503Y-86194503D01*
X69872500Y-86255390D01*
X69872500Y-87480610D01*
X69866503Y-87541497D01*
X69850530Y-87594153D01*
X69824600Y-87642665D01*
X69789696Y-87685196D01*
X69747165Y-87720100D01*
X69698653Y-87746030D01*
X69645997Y-87762003D01*
X69585110Y-87768000D01*
X68784890Y-87768000D01*
X68724003Y-87762003D01*
X68671347Y-87746030D01*
X68622835Y-87720100D01*
X68580304Y-87685196D01*
X68545400Y-87642665D01*
X68519470Y-87594153D01*
X68503497Y-87541497D01*
X68497500Y-87480610D01*
X68497500Y-86255390D01*
X68503497Y-86194503D01*
X68519470Y-86141847D01*
X68545400Y-86093335D01*
X68580304Y-86050804D01*
X68622835Y-86015900D01*
X68671347Y-85989970D01*
X68724003Y-85973997D01*
X68784890Y-85968000D01*
X69585110Y-85968000D01*
X69645997Y-85973997D01*
X69645997Y-85973997D01*
G37*
G36*
X61771997Y-85973997D02*
X61824653Y-85989970D01*
X61873165Y-86015900D01*
X61915696Y-86050804D01*
X61950600Y-86093335D01*
X61976530Y-86141847D01*
X61992503Y-86194503D01*
X61998500Y-86255390D01*
X61998500Y-87480610D01*
X61992503Y-87541497D01*
X61976530Y-87594153D01*
X61950600Y-87642665D01*
X61915696Y-87685196D01*
X61873165Y-87720100D01*
X61824653Y-87746030D01*
X61771997Y-87762003D01*
X61711110Y-87768000D01*
X60910890Y-87768000D01*
X60850003Y-87762003D01*
X60797347Y-87746030D01*
X60748835Y-87720100D01*
X60706304Y-87685196D01*
X60671400Y-87642665D01*
X60645470Y-87594153D01*
X60629497Y-87541497D01*
X60623500Y-87480610D01*
X60623500Y-86255390D01*
X60629497Y-86194503D01*
X60645470Y-86141847D01*
X60671400Y-86093335D01*
X60706304Y-86050804D01*
X60748835Y-86015900D01*
X60797347Y-85989970D01*
X60850003Y-85973997D01*
X60910890Y-85968000D01*
X61711110Y-85968000D01*
X61771997Y-85973997D01*
X61771997Y-85973997D01*
G37*
G36*
X63863997Y-85973997D02*
X63916653Y-85989970D01*
X63965165Y-86015900D01*
X64007696Y-86050804D01*
X64042600Y-86093335D01*
X64068530Y-86141847D01*
X64084503Y-86194503D01*
X64090500Y-86255390D01*
X64090500Y-87480610D01*
X64084503Y-87541497D01*
X64068530Y-87594153D01*
X64042600Y-87642665D01*
X64007696Y-87685196D01*
X63965165Y-87720100D01*
X63916653Y-87746030D01*
X63863997Y-87762003D01*
X63803110Y-87768000D01*
X63002890Y-87768000D01*
X62942003Y-87762003D01*
X62889347Y-87746030D01*
X62840835Y-87720100D01*
X62798304Y-87685196D01*
X62763400Y-87642665D01*
X62737470Y-87594153D01*
X62721497Y-87541497D01*
X62715500Y-87480610D01*
X62715500Y-86255390D01*
X62721497Y-86194503D01*
X62737470Y-86141847D01*
X62763400Y-86093335D01*
X62798304Y-86050804D01*
X62840835Y-86015900D01*
X62889347Y-85989970D01*
X62942003Y-85973997D01*
X63002890Y-85968000D01*
X63803110Y-85968000D01*
X63863997Y-85973997D01*
X63863997Y-85973997D01*
G37*
G36*
X59896997Y-85973997D02*
X59949653Y-85989970D01*
X59998165Y-86015900D01*
X60040696Y-86050804D01*
X60075600Y-86093335D01*
X60101530Y-86141847D01*
X60117503Y-86194503D01*
X60123500Y-86255390D01*
X60123500Y-87480610D01*
X60117503Y-87541497D01*
X60101530Y-87594153D01*
X60075600Y-87642665D01*
X60040696Y-87685196D01*
X59998165Y-87720100D01*
X59949653Y-87746030D01*
X59896997Y-87762003D01*
X59836110Y-87768000D01*
X59035890Y-87768000D01*
X58975003Y-87762003D01*
X58922347Y-87746030D01*
X58873835Y-87720100D01*
X58831304Y-87685196D01*
X58796400Y-87642665D01*
X58770470Y-87594153D01*
X58754497Y-87541497D01*
X58748500Y-87480610D01*
X58748500Y-86255390D01*
X58754497Y-86194503D01*
X58770470Y-86141847D01*
X58796400Y-86093335D01*
X58831304Y-86050804D01*
X58873835Y-86015900D01*
X58922347Y-85989970D01*
X58975003Y-85973997D01*
X59035890Y-85968000D01*
X59836110Y-85968000D01*
X59896997Y-85973997D01*
X59896997Y-85973997D01*
G37*
G36*
X57293497Y-85973997D02*
X57346153Y-85989970D01*
X57394665Y-86015900D01*
X57437196Y-86050804D01*
X57472100Y-86093335D01*
X57498030Y-86141847D01*
X57514003Y-86194503D01*
X57520000Y-86255390D01*
X57520000Y-87480610D01*
X57514003Y-87541497D01*
X57498030Y-87594153D01*
X57472100Y-87642665D01*
X57437196Y-87685196D01*
X57394665Y-87720100D01*
X57346153Y-87746030D01*
X57293497Y-87762003D01*
X57232610Y-87768000D01*
X56432390Y-87768000D01*
X56371503Y-87762003D01*
X56318847Y-87746030D01*
X56270335Y-87720100D01*
X56227804Y-87685196D01*
X56192900Y-87642665D01*
X56166970Y-87594153D01*
X56150997Y-87541497D01*
X56145000Y-87480610D01*
X56145000Y-86255390D01*
X56150997Y-86194503D01*
X56166970Y-86141847D01*
X56192900Y-86093335D01*
X56227804Y-86050804D01*
X56270335Y-86015900D01*
X56318847Y-85989970D01*
X56371503Y-85973997D01*
X56432390Y-85968000D01*
X57232610Y-85968000D01*
X57293497Y-85973997D01*
X57293497Y-85973997D01*
G37*
G36*
X55418497Y-85973997D02*
X55471153Y-85989970D01*
X55519665Y-86015900D01*
X55562196Y-86050804D01*
X55597100Y-86093335D01*
X55623030Y-86141847D01*
X55639003Y-86194503D01*
X55645000Y-86255390D01*
X55645000Y-87480610D01*
X55639003Y-87541497D01*
X55623030Y-87594153D01*
X55597100Y-87642665D01*
X55562196Y-87685196D01*
X55519665Y-87720100D01*
X55471153Y-87746030D01*
X55418497Y-87762003D01*
X55357610Y-87768000D01*
X54557390Y-87768000D01*
X54496503Y-87762003D01*
X54443847Y-87746030D01*
X54395335Y-87720100D01*
X54352804Y-87685196D01*
X54317900Y-87642665D01*
X54291970Y-87594153D01*
X54275997Y-87541497D01*
X54270000Y-87480610D01*
X54270000Y-86255390D01*
X54275997Y-86194503D01*
X54291970Y-86141847D01*
X54317900Y-86093335D01*
X54352804Y-86050804D01*
X54395335Y-86015900D01*
X54443847Y-85989970D01*
X54496503Y-85973997D01*
X54557390Y-85968000D01*
X55357610Y-85968000D01*
X55418497Y-85973997D01*
X55418497Y-85973997D01*
G37*
G36*
X48447793Y-83659437D02*
X48802670Y-83806432D01*
X49122055Y-84019838D01*
X49393662Y-84291445D01*
X49607068Y-84610830D01*
X49754063Y-84965707D01*
X49829000Y-85342440D01*
X49829000Y-85726560D01*
X49754063Y-86103293D01*
X49607068Y-86458170D01*
X49393662Y-86777555D01*
X49122055Y-87049162D01*
X48802670Y-87262568D01*
X48447793Y-87409563D01*
X48071060Y-87484500D01*
X47686940Y-87484500D01*
X47310207Y-87409563D01*
X46955330Y-87262568D01*
X46635945Y-87049162D01*
X46364338Y-86777555D01*
X46150932Y-86458170D01*
X46003937Y-86103293D01*
X45929000Y-85726560D01*
X45929000Y-85342440D01*
X46003937Y-84965707D01*
X46150932Y-84610830D01*
X46364338Y-84291445D01*
X46635945Y-84019838D01*
X46955330Y-83806432D01*
X47310207Y-83659437D01*
X47686940Y-83584500D01*
X48071060Y-83584500D01*
X48447793Y-83659437D01*
X48447793Y-83659437D01*
G37*
G36*
X52315689Y-85430497D02*
X52474105Y-85462008D01*
X52646994Y-85533621D01*
X52802590Y-85637587D01*
X52934913Y-85769910D01*
X53038879Y-85925506D01*
X53110492Y-86098395D01*
X53147000Y-86281933D01*
X53147000Y-86469067D01*
X53110492Y-86652605D01*
X53038879Y-86825494D01*
X52934913Y-86981090D01*
X52802590Y-87113413D01*
X52646994Y-87217379D01*
X52474105Y-87288992D01*
X52336451Y-87316373D01*
X52290568Y-87325500D01*
X52103432Y-87325500D01*
X52057549Y-87316373D01*
X51919895Y-87288992D01*
X51747006Y-87217379D01*
X51591410Y-87113413D01*
X51459087Y-86981090D01*
X51355121Y-86825494D01*
X51283508Y-86652605D01*
X51247000Y-86469067D01*
X51247000Y-86281933D01*
X51283508Y-86098395D01*
X51355121Y-85925506D01*
X51459087Y-85769910D01*
X51591410Y-85637587D01*
X51747006Y-85533621D01*
X51919895Y-85462008D01*
X52078311Y-85430497D01*
X52103432Y-85425500D01*
X52290568Y-85425500D01*
X52315689Y-85430497D01*
X52315689Y-85430497D01*
G37*
G36*
X77562000Y-86502000D02*
X76362000Y-86502000D01*
X76362000Y-85202000D01*
X77562000Y-85202000D01*
X77562000Y-86502000D01*
X77562000Y-86502000D01*
G37*
G36*
X116125888Y-83454470D02*
X116306274Y-83490350D01*
X116497362Y-83569502D01*
X116669336Y-83684411D01*
X116815589Y-83830664D01*
X116930498Y-84002638D01*
X117009650Y-84193726D01*
X117038877Y-84340665D01*
X117050000Y-84396583D01*
X117050000Y-84603417D01*
X117048525Y-84610830D01*
X117009650Y-84806274D01*
X116930498Y-84997362D01*
X116815589Y-85169336D01*
X116669336Y-85315589D01*
X116497362Y-85430498D01*
X116306274Y-85509650D01*
X116125888Y-85545530D01*
X116103417Y-85550000D01*
X115896583Y-85550000D01*
X115874112Y-85545530D01*
X115693726Y-85509650D01*
X115502638Y-85430498D01*
X115330664Y-85315589D01*
X115184411Y-85169336D01*
X115069502Y-84997362D01*
X114990350Y-84806274D01*
X114951475Y-84610830D01*
X114950000Y-84603417D01*
X114950000Y-84396583D01*
X114961123Y-84340665D01*
X114990350Y-84193726D01*
X115069502Y-84002638D01*
X115184411Y-83830664D01*
X115330664Y-83684411D01*
X115502638Y-83569502D01*
X115693726Y-83490350D01*
X115874112Y-83454470D01*
X115896583Y-83450000D01*
X116103417Y-83450000D01*
X116125888Y-83454470D01*
X116125888Y-83454470D01*
G37*
G36*
X76612000Y-84502000D02*
X75412000Y-84502000D01*
X75412000Y-83202000D01*
X76612000Y-83202000D01*
X76612000Y-84502000D01*
X76612000Y-84502000D01*
G37*
G36*
X78512000Y-84502000D02*
X77312000Y-84502000D01*
X77312000Y-83202000D01*
X78512000Y-83202000D01*
X78512000Y-84502000D01*
X78512000Y-84502000D01*
G37*
G36*
X57293497Y-82671997D02*
X57346153Y-82687970D01*
X57394665Y-82713900D01*
X57437196Y-82748804D01*
X57472100Y-82791335D01*
X57498030Y-82839847D01*
X57514003Y-82892503D01*
X57520000Y-82953390D01*
X57520000Y-84178610D01*
X57514003Y-84239497D01*
X57498030Y-84292153D01*
X57472100Y-84340665D01*
X57437196Y-84383196D01*
X57394665Y-84418100D01*
X57346153Y-84444030D01*
X57293497Y-84460003D01*
X57232610Y-84466000D01*
X56432390Y-84466000D01*
X56371503Y-84460003D01*
X56318847Y-84444030D01*
X56270335Y-84418100D01*
X56227804Y-84383196D01*
X56192900Y-84340665D01*
X56166970Y-84292153D01*
X56150997Y-84239497D01*
X56145000Y-84178610D01*
X56145000Y-82953390D01*
X56150997Y-82892503D01*
X56166970Y-82839847D01*
X56192900Y-82791335D01*
X56227804Y-82748804D01*
X56270335Y-82713900D01*
X56318847Y-82687970D01*
X56371503Y-82671997D01*
X56432390Y-82666000D01*
X57232610Y-82666000D01*
X57293497Y-82671997D01*
X57293497Y-82671997D01*
G37*
G36*
X59896997Y-82671997D02*
X59949653Y-82687970D01*
X59998165Y-82713900D01*
X60040696Y-82748804D01*
X60075600Y-82791335D01*
X60101530Y-82839847D01*
X60117503Y-82892503D01*
X60123500Y-82953390D01*
X60123500Y-84178610D01*
X60117503Y-84239497D01*
X60101530Y-84292153D01*
X60075600Y-84340665D01*
X60040696Y-84383196D01*
X59998165Y-84418100D01*
X59949653Y-84444030D01*
X59896997Y-84460003D01*
X59836110Y-84466000D01*
X59035890Y-84466000D01*
X58975003Y-84460003D01*
X58922347Y-84444030D01*
X58873835Y-84418100D01*
X58831304Y-84383196D01*
X58796400Y-84340665D01*
X58770470Y-84292153D01*
X58754497Y-84239497D01*
X58748500Y-84178610D01*
X58748500Y-82953390D01*
X58754497Y-82892503D01*
X58770470Y-82839847D01*
X58796400Y-82791335D01*
X58831304Y-82748804D01*
X58873835Y-82713900D01*
X58922347Y-82687970D01*
X58975003Y-82671997D01*
X59035890Y-82666000D01*
X59836110Y-82666000D01*
X59896997Y-82671997D01*
X59896997Y-82671997D01*
G37*
G36*
X63863997Y-82671997D02*
X63916653Y-82687970D01*
X63965165Y-82713900D01*
X64007696Y-82748804D01*
X64042600Y-82791335D01*
X64068530Y-82839847D01*
X64084503Y-82892503D01*
X64090500Y-82953390D01*
X64090500Y-84178610D01*
X64084503Y-84239497D01*
X64068530Y-84292153D01*
X64042600Y-84340665D01*
X64007696Y-84383196D01*
X63965165Y-84418100D01*
X63916653Y-84444030D01*
X63863997Y-84460003D01*
X63803110Y-84466000D01*
X63002890Y-84466000D01*
X62942003Y-84460003D01*
X62889347Y-84444030D01*
X62840835Y-84418100D01*
X62798304Y-84383196D01*
X62763400Y-84340665D01*
X62737470Y-84292153D01*
X62721497Y-84239497D01*
X62715500Y-84178610D01*
X62715500Y-82953390D01*
X62721497Y-82892503D01*
X62737470Y-82839847D01*
X62763400Y-82791335D01*
X62798304Y-82748804D01*
X62840835Y-82713900D01*
X62889347Y-82687970D01*
X62942003Y-82671997D01*
X63002890Y-82666000D01*
X63803110Y-82666000D01*
X63863997Y-82671997D01*
X63863997Y-82671997D01*
G37*
G36*
X65738997Y-82671997D02*
X65791653Y-82687970D01*
X65840165Y-82713900D01*
X65882696Y-82748804D01*
X65917600Y-82791335D01*
X65943530Y-82839847D01*
X65959503Y-82892503D01*
X65965500Y-82953390D01*
X65965500Y-84178610D01*
X65959503Y-84239497D01*
X65943530Y-84292153D01*
X65917600Y-84340665D01*
X65882696Y-84383196D01*
X65840165Y-84418100D01*
X65791653Y-84444030D01*
X65738997Y-84460003D01*
X65678110Y-84466000D01*
X64877890Y-84466000D01*
X64817003Y-84460003D01*
X64764347Y-84444030D01*
X64715835Y-84418100D01*
X64673304Y-84383196D01*
X64638400Y-84340665D01*
X64612470Y-84292153D01*
X64596497Y-84239497D01*
X64590500Y-84178610D01*
X64590500Y-82953390D01*
X64596497Y-82892503D01*
X64612470Y-82839847D01*
X64638400Y-82791335D01*
X64673304Y-82748804D01*
X64715835Y-82713900D01*
X64764347Y-82687970D01*
X64817003Y-82671997D01*
X64877890Y-82666000D01*
X65678110Y-82666000D01*
X65738997Y-82671997D01*
X65738997Y-82671997D01*
G37*
G36*
X67770997Y-82671997D02*
X67823653Y-82687970D01*
X67872165Y-82713900D01*
X67914696Y-82748804D01*
X67949600Y-82791335D01*
X67975530Y-82839847D01*
X67991503Y-82892503D01*
X67997500Y-82953390D01*
X67997500Y-84178610D01*
X67991503Y-84239497D01*
X67975530Y-84292153D01*
X67949600Y-84340665D01*
X67914696Y-84383196D01*
X67872165Y-84418100D01*
X67823653Y-84444030D01*
X67770997Y-84460003D01*
X67710110Y-84466000D01*
X66909890Y-84466000D01*
X66849003Y-84460003D01*
X66796347Y-84444030D01*
X66747835Y-84418100D01*
X66705304Y-84383196D01*
X66670400Y-84340665D01*
X66644470Y-84292153D01*
X66628497Y-84239497D01*
X66622500Y-84178610D01*
X66622500Y-82953390D01*
X66628497Y-82892503D01*
X66644470Y-82839847D01*
X66670400Y-82791335D01*
X66705304Y-82748804D01*
X66747835Y-82713900D01*
X66796347Y-82687970D01*
X66849003Y-82671997D01*
X66909890Y-82666000D01*
X67710110Y-82666000D01*
X67770997Y-82671997D01*
X67770997Y-82671997D01*
G37*
G36*
X55418497Y-82671997D02*
X55471153Y-82687970D01*
X55519665Y-82713900D01*
X55562196Y-82748804D01*
X55597100Y-82791335D01*
X55623030Y-82839847D01*
X55639003Y-82892503D01*
X55645000Y-82953390D01*
X55645000Y-84178610D01*
X55639003Y-84239497D01*
X55623030Y-84292153D01*
X55597100Y-84340665D01*
X55562196Y-84383196D01*
X55519665Y-84418100D01*
X55471153Y-84444030D01*
X55418497Y-84460003D01*
X55357610Y-84466000D01*
X54557390Y-84466000D01*
X54496503Y-84460003D01*
X54443847Y-84444030D01*
X54395335Y-84418100D01*
X54352804Y-84383196D01*
X54317900Y-84340665D01*
X54291970Y-84292153D01*
X54275997Y-84239497D01*
X54270000Y-84178610D01*
X54270000Y-82953390D01*
X54275997Y-82892503D01*
X54291970Y-82839847D01*
X54317900Y-82791335D01*
X54352804Y-82748804D01*
X54395335Y-82713900D01*
X54443847Y-82687970D01*
X54496503Y-82671997D01*
X54557390Y-82666000D01*
X55357610Y-82666000D01*
X55418497Y-82671997D01*
X55418497Y-82671997D01*
G37*
G36*
X61771997Y-82671997D02*
X61824653Y-82687970D01*
X61873165Y-82713900D01*
X61915696Y-82748804D01*
X61950600Y-82791335D01*
X61976530Y-82839847D01*
X61992503Y-82892503D01*
X61998500Y-82953390D01*
X61998500Y-84178610D01*
X61992503Y-84239497D01*
X61976530Y-84292153D01*
X61950600Y-84340665D01*
X61915696Y-84383196D01*
X61873165Y-84418100D01*
X61824653Y-84444030D01*
X61771997Y-84460003D01*
X61711110Y-84466000D01*
X60910890Y-84466000D01*
X60850003Y-84460003D01*
X60797347Y-84444030D01*
X60748835Y-84418100D01*
X60706304Y-84383196D01*
X60671400Y-84340665D01*
X60645470Y-84292153D01*
X60629497Y-84239497D01*
X60623500Y-84178610D01*
X60623500Y-82953390D01*
X60629497Y-82892503D01*
X60645470Y-82839847D01*
X60671400Y-82791335D01*
X60706304Y-82748804D01*
X60748835Y-82713900D01*
X60797347Y-82687970D01*
X60850003Y-82671997D01*
X60910890Y-82666000D01*
X61711110Y-82666000D01*
X61771997Y-82671997D01*
X61771997Y-82671997D01*
G37*
G36*
X69645997Y-82671997D02*
X69698653Y-82687970D01*
X69747165Y-82713900D01*
X69789696Y-82748804D01*
X69824600Y-82791335D01*
X69850530Y-82839847D01*
X69866503Y-82892503D01*
X69872500Y-82953390D01*
X69872500Y-84178610D01*
X69866503Y-84239497D01*
X69850530Y-84292153D01*
X69824600Y-84340665D01*
X69789696Y-84383196D01*
X69747165Y-84418100D01*
X69698653Y-84444030D01*
X69645997Y-84460003D01*
X69585110Y-84466000D01*
X68784890Y-84466000D01*
X68724003Y-84460003D01*
X68671347Y-84444030D01*
X68622835Y-84418100D01*
X68580304Y-84383196D01*
X68545400Y-84340665D01*
X68519470Y-84292153D01*
X68503497Y-84239497D01*
X68497500Y-84178610D01*
X68497500Y-82953390D01*
X68503497Y-82892503D01*
X68519470Y-82839847D01*
X68545400Y-82791335D01*
X68580304Y-82748804D01*
X68622835Y-82713900D01*
X68671347Y-82687970D01*
X68724003Y-82671997D01*
X68784890Y-82666000D01*
X69585110Y-82666000D01*
X69645997Y-82671997D01*
X69645997Y-82671997D01*
G37*
G36*
X52315689Y-82430497D02*
X52474105Y-82462008D01*
X52646994Y-82533621D01*
X52802590Y-82637587D01*
X52934913Y-82769910D01*
X53038879Y-82925506D01*
X53110492Y-83098395D01*
X53147000Y-83281933D01*
X53147000Y-83469067D01*
X53110492Y-83652605D01*
X53038879Y-83825494D01*
X52934913Y-83981090D01*
X52802590Y-84113413D01*
X52646994Y-84217379D01*
X52474105Y-84288992D01*
X52336451Y-84316373D01*
X52290568Y-84325500D01*
X52103432Y-84325500D01*
X52057549Y-84316373D01*
X51919895Y-84288992D01*
X51747006Y-84217379D01*
X51591410Y-84113413D01*
X51459087Y-83981090D01*
X51355121Y-83825494D01*
X51283508Y-83652605D01*
X51247000Y-83469067D01*
X51247000Y-83281933D01*
X51283508Y-83098395D01*
X51355121Y-82925506D01*
X51459087Y-82769910D01*
X51591410Y-82637587D01*
X51747006Y-82533621D01*
X51919895Y-82462008D01*
X52078311Y-82430497D01*
X52103432Y-82425500D01*
X52290568Y-82425500D01*
X52315689Y-82430497D01*
X52315689Y-82430497D01*
G37*
G36*
X98592000Y-84093000D02*
X96992000Y-84093000D01*
X96992000Y-68688000D01*
X98592000Y-68688000D01*
X98592000Y-84093000D01*
X98592000Y-84093000D01*
G37*
G36*
X89192000Y-84093000D02*
X87592000Y-84093000D01*
X87592000Y-68688000D01*
X89192000Y-68688000D01*
X89192000Y-84093000D01*
X89192000Y-84093000D01*
G37*
G36*
X77562000Y-82946000D02*
X76362000Y-82946000D01*
X76362000Y-81646000D01*
X77562000Y-81646000D01*
X77562000Y-82946000D01*
X77562000Y-82946000D01*
G37*
G36*
X116125888Y-80454470D02*
X116306274Y-80490350D01*
X116497362Y-80569502D01*
X116669336Y-80684411D01*
X116815589Y-80830664D01*
X116930498Y-81002638D01*
X117009650Y-81193726D01*
X117050000Y-81396584D01*
X117050000Y-81603416D01*
X117009650Y-81806274D01*
X116930498Y-81997362D01*
X116815589Y-82169336D01*
X116669336Y-82315589D01*
X116497362Y-82430498D01*
X116306274Y-82509650D01*
X116125888Y-82545530D01*
X116103417Y-82550000D01*
X115896583Y-82550000D01*
X115874112Y-82545530D01*
X115693726Y-82509650D01*
X115502638Y-82430498D01*
X115330664Y-82315589D01*
X115184411Y-82169336D01*
X115069502Y-81997362D01*
X114990350Y-81806274D01*
X114950000Y-81603416D01*
X114950000Y-81396584D01*
X114990350Y-81193726D01*
X115069502Y-81002638D01*
X115184411Y-80830664D01*
X115330664Y-80684411D01*
X115502638Y-80569502D01*
X115693726Y-80490350D01*
X115874112Y-80454470D01*
X115896583Y-80450000D01*
X116103417Y-80450000D01*
X116125888Y-80454470D01*
X116125888Y-80454470D01*
G37*
G36*
X55418497Y-79369997D02*
X55471153Y-79385970D01*
X55519665Y-79411900D01*
X55562196Y-79446804D01*
X55597100Y-79489335D01*
X55623030Y-79537847D01*
X55639003Y-79590503D01*
X55645000Y-79651390D01*
X55645000Y-80876610D01*
X55639003Y-80937497D01*
X55623030Y-80990153D01*
X55597100Y-81038665D01*
X55562196Y-81081196D01*
X55519665Y-81116100D01*
X55471153Y-81142030D01*
X55418497Y-81158003D01*
X55357610Y-81164000D01*
X54557390Y-81164000D01*
X54496503Y-81158003D01*
X54443847Y-81142030D01*
X54395335Y-81116100D01*
X54352804Y-81081196D01*
X54317900Y-81038665D01*
X54291970Y-80990153D01*
X54275997Y-80937497D01*
X54270000Y-80876610D01*
X54270000Y-79651390D01*
X54275997Y-79590503D01*
X54291970Y-79537847D01*
X54317900Y-79489335D01*
X54352804Y-79446804D01*
X54395335Y-79411900D01*
X54443847Y-79385970D01*
X54496503Y-79369997D01*
X54557390Y-79364000D01*
X55357610Y-79364000D01*
X55418497Y-79369997D01*
X55418497Y-79369997D01*
G37*
G36*
X63863997Y-79369997D02*
X63916653Y-79385970D01*
X63965165Y-79411900D01*
X64007696Y-79446804D01*
X64042600Y-79489335D01*
X64068530Y-79537847D01*
X64084503Y-79590503D01*
X64090500Y-79651390D01*
X64090500Y-80876610D01*
X64084503Y-80937497D01*
X64068530Y-80990153D01*
X64042600Y-81038665D01*
X64007696Y-81081196D01*
X63965165Y-81116100D01*
X63916653Y-81142030D01*
X63863997Y-81158003D01*
X63803110Y-81164000D01*
X63002890Y-81164000D01*
X62942003Y-81158003D01*
X62889347Y-81142030D01*
X62840835Y-81116100D01*
X62798304Y-81081196D01*
X62763400Y-81038665D01*
X62737470Y-80990153D01*
X62721497Y-80937497D01*
X62715500Y-80876610D01*
X62715500Y-79651390D01*
X62721497Y-79590503D01*
X62737470Y-79537847D01*
X62763400Y-79489335D01*
X62798304Y-79446804D01*
X62840835Y-79411900D01*
X62889347Y-79385970D01*
X62942003Y-79369997D01*
X63002890Y-79364000D01*
X63803110Y-79364000D01*
X63863997Y-79369997D01*
X63863997Y-79369997D01*
G37*
G36*
X65738997Y-79369997D02*
X65791653Y-79385970D01*
X65840165Y-79411900D01*
X65882696Y-79446804D01*
X65917600Y-79489335D01*
X65943530Y-79537847D01*
X65959503Y-79590503D01*
X65965500Y-79651390D01*
X65965500Y-80876610D01*
X65959503Y-80937497D01*
X65943530Y-80990153D01*
X65917600Y-81038665D01*
X65882696Y-81081196D01*
X65840165Y-81116100D01*
X65791653Y-81142030D01*
X65738997Y-81158003D01*
X65678110Y-81164000D01*
X64877890Y-81164000D01*
X64817003Y-81158003D01*
X64764347Y-81142030D01*
X64715835Y-81116100D01*
X64673304Y-81081196D01*
X64638400Y-81038665D01*
X64612470Y-80990153D01*
X64596497Y-80937497D01*
X64590500Y-80876610D01*
X64590500Y-79651390D01*
X64596497Y-79590503D01*
X64612470Y-79537847D01*
X64638400Y-79489335D01*
X64673304Y-79446804D01*
X64715835Y-79411900D01*
X64764347Y-79385970D01*
X64817003Y-79369997D01*
X64877890Y-79364000D01*
X65678110Y-79364000D01*
X65738997Y-79369997D01*
X65738997Y-79369997D01*
G37*
G36*
X69645997Y-79369997D02*
X69698653Y-79385970D01*
X69747165Y-79411900D01*
X69789696Y-79446804D01*
X69824600Y-79489335D01*
X69850530Y-79537847D01*
X69866503Y-79590503D01*
X69872500Y-79651390D01*
X69872500Y-80876610D01*
X69866503Y-80937497D01*
X69850530Y-80990153D01*
X69824600Y-81038665D01*
X69789696Y-81081196D01*
X69747165Y-81116100D01*
X69698653Y-81142030D01*
X69645997Y-81158003D01*
X69585110Y-81164000D01*
X68784890Y-81164000D01*
X68724003Y-81158003D01*
X68671347Y-81142030D01*
X68622835Y-81116100D01*
X68580304Y-81081196D01*
X68545400Y-81038665D01*
X68519470Y-80990153D01*
X68503497Y-80937497D01*
X68497500Y-80876610D01*
X68497500Y-79651390D01*
X68503497Y-79590503D01*
X68519470Y-79537847D01*
X68545400Y-79489335D01*
X68580304Y-79446804D01*
X68622835Y-79411900D01*
X68671347Y-79385970D01*
X68724003Y-79369997D01*
X68784890Y-79364000D01*
X69585110Y-79364000D01*
X69645997Y-79369997D01*
X69645997Y-79369997D01*
G37*
G36*
X67770997Y-79369997D02*
X67823653Y-79385970D01*
X67872165Y-79411900D01*
X67914696Y-79446804D01*
X67949600Y-79489335D01*
X67975530Y-79537847D01*
X67991503Y-79590503D01*
X67997500Y-79651390D01*
X67997500Y-80876610D01*
X67991503Y-80937497D01*
X67975530Y-80990153D01*
X67949600Y-81038665D01*
X67914696Y-81081196D01*
X67872165Y-81116100D01*
X67823653Y-81142030D01*
X67770997Y-81158003D01*
X67710110Y-81164000D01*
X66909890Y-81164000D01*
X66849003Y-81158003D01*
X66796347Y-81142030D01*
X66747835Y-81116100D01*
X66705304Y-81081196D01*
X66670400Y-81038665D01*
X66644470Y-80990153D01*
X66628497Y-80937497D01*
X66622500Y-80876610D01*
X66622500Y-79651390D01*
X66628497Y-79590503D01*
X66644470Y-79537847D01*
X66670400Y-79489335D01*
X66705304Y-79446804D01*
X66747835Y-79411900D01*
X66796347Y-79385970D01*
X66849003Y-79369997D01*
X66909890Y-79364000D01*
X67710110Y-79364000D01*
X67770997Y-79369997D01*
X67770997Y-79369997D01*
G37*
G36*
X57293497Y-79369997D02*
X57346153Y-79385970D01*
X57394665Y-79411900D01*
X57437196Y-79446804D01*
X57472100Y-79489335D01*
X57498030Y-79537847D01*
X57514003Y-79590503D01*
X57520000Y-79651390D01*
X57520000Y-80876610D01*
X57514003Y-80937497D01*
X57498030Y-80990153D01*
X57472100Y-81038665D01*
X57437196Y-81081196D01*
X57394665Y-81116100D01*
X57346153Y-81142030D01*
X57293497Y-81158003D01*
X57232610Y-81164000D01*
X56432390Y-81164000D01*
X56371503Y-81158003D01*
X56318847Y-81142030D01*
X56270335Y-81116100D01*
X56227804Y-81081196D01*
X56192900Y-81038665D01*
X56166970Y-80990153D01*
X56150997Y-80937497D01*
X56145000Y-80876610D01*
X56145000Y-79651390D01*
X56150997Y-79590503D01*
X56166970Y-79537847D01*
X56192900Y-79489335D01*
X56227804Y-79446804D01*
X56270335Y-79411900D01*
X56318847Y-79385970D01*
X56371503Y-79369997D01*
X56432390Y-79364000D01*
X57232610Y-79364000D01*
X57293497Y-79369997D01*
X57293497Y-79369997D01*
G37*
G36*
X59896997Y-79369997D02*
X59949653Y-79385970D01*
X59998165Y-79411900D01*
X60040696Y-79446804D01*
X60075600Y-79489335D01*
X60101530Y-79537847D01*
X60117503Y-79590503D01*
X60123500Y-79651390D01*
X60123500Y-80876610D01*
X60117503Y-80937497D01*
X60101530Y-80990153D01*
X60075600Y-81038665D01*
X60040696Y-81081196D01*
X59998165Y-81116100D01*
X59949653Y-81142030D01*
X59896997Y-81158003D01*
X59836110Y-81164000D01*
X59035890Y-81164000D01*
X58975003Y-81158003D01*
X58922347Y-81142030D01*
X58873835Y-81116100D01*
X58831304Y-81081196D01*
X58796400Y-81038665D01*
X58770470Y-80990153D01*
X58754497Y-80937497D01*
X58748500Y-80876610D01*
X58748500Y-79651390D01*
X58754497Y-79590503D01*
X58770470Y-79537847D01*
X58796400Y-79489335D01*
X58831304Y-79446804D01*
X58873835Y-79411900D01*
X58922347Y-79385970D01*
X58975003Y-79369997D01*
X59035890Y-79364000D01*
X59836110Y-79364000D01*
X59896997Y-79369997D01*
X59896997Y-79369997D01*
G37*
G36*
X61771997Y-79369997D02*
X61824653Y-79385970D01*
X61873165Y-79411900D01*
X61915696Y-79446804D01*
X61950600Y-79489335D01*
X61976530Y-79537847D01*
X61992503Y-79590503D01*
X61998500Y-79651390D01*
X61998500Y-80876610D01*
X61992503Y-80937497D01*
X61976530Y-80990153D01*
X61950600Y-81038665D01*
X61915696Y-81081196D01*
X61873165Y-81116100D01*
X61824653Y-81142030D01*
X61771997Y-81158003D01*
X61711110Y-81164000D01*
X60910890Y-81164000D01*
X60850003Y-81158003D01*
X60797347Y-81142030D01*
X60748835Y-81116100D01*
X60706304Y-81081196D01*
X60671400Y-81038665D01*
X60645470Y-80990153D01*
X60629497Y-80937497D01*
X60623500Y-80876610D01*
X60623500Y-79651390D01*
X60629497Y-79590503D01*
X60645470Y-79537847D01*
X60671400Y-79489335D01*
X60706304Y-79446804D01*
X60748835Y-79411900D01*
X60797347Y-79385970D01*
X60850003Y-79369997D01*
X60910890Y-79364000D01*
X61711110Y-79364000D01*
X61771997Y-79369997D01*
X61771997Y-79369997D01*
G37*
G36*
X78512000Y-80946000D02*
X77312000Y-80946000D01*
X77312000Y-79646000D01*
X78512000Y-79646000D01*
X78512000Y-80946000D01*
X78512000Y-80946000D01*
G37*
G36*
X76612000Y-80946000D02*
X75412000Y-80946000D01*
X75412000Y-79646000D01*
X76612000Y-79646000D01*
X76612000Y-80946000D01*
X76612000Y-80946000D01*
G37*
G36*
X101298997Y-75051997D02*
X101351653Y-75067970D01*
X101400165Y-75093900D01*
X101442696Y-75128804D01*
X101477600Y-75171335D01*
X101503530Y-75219847D01*
X101519503Y-75272503D01*
X101525500Y-75333390D01*
X101525500Y-76558610D01*
X101519503Y-76619497D01*
X101503530Y-76672153D01*
X101477600Y-76720665D01*
X101442696Y-76763196D01*
X101400165Y-76798100D01*
X101351652Y-76824031D01*
X101291156Y-76842382D01*
X101268517Y-76851760D01*
X101248142Y-76865374D01*
X101230815Y-76882701D01*
X101217201Y-76903075D01*
X101207823Y-76925714D01*
X101203043Y-76949748D01*
X101203043Y-76974252D01*
X101207823Y-76998285D01*
X101217201Y-77020924D01*
X101230815Y-77041299D01*
X101248142Y-77058626D01*
X101268516Y-77072240D01*
X101291156Y-77081618D01*
X101351652Y-77099969D01*
X101400165Y-77125900D01*
X101442696Y-77160804D01*
X101477600Y-77203335D01*
X101503530Y-77251847D01*
X101519503Y-77304503D01*
X101525500Y-77365390D01*
X101525500Y-78590610D01*
X101519503Y-78651497D01*
X101503530Y-78704153D01*
X101477600Y-78752665D01*
X101442696Y-78795196D01*
X101400165Y-78830100D01*
X101351652Y-78856031D01*
X101291156Y-78874382D01*
X101268517Y-78883760D01*
X101248142Y-78897374D01*
X101230815Y-78914701D01*
X101217201Y-78935075D01*
X101207823Y-78957714D01*
X101203043Y-78981748D01*
X101203043Y-79006252D01*
X101207823Y-79030285D01*
X101217201Y-79052924D01*
X101230815Y-79073299D01*
X101248142Y-79090626D01*
X101268516Y-79104240D01*
X101291156Y-79113618D01*
X101351652Y-79131969D01*
X101400165Y-79157900D01*
X101442696Y-79192804D01*
X101477600Y-79235335D01*
X101503530Y-79283847D01*
X101519503Y-79336503D01*
X101525500Y-79397390D01*
X101525500Y-80622610D01*
X101519503Y-80683497D01*
X101503530Y-80736153D01*
X101477600Y-80784665D01*
X101442696Y-80827196D01*
X101400165Y-80862100D01*
X101351653Y-80888030D01*
X101298997Y-80904003D01*
X101238110Y-80910000D01*
X100437890Y-80910000D01*
X100377003Y-80904003D01*
X100324347Y-80888030D01*
X100275835Y-80862100D01*
X100233304Y-80827196D01*
X100198400Y-80784665D01*
X100172470Y-80736153D01*
X100156497Y-80683497D01*
X100150500Y-80622610D01*
X100150500Y-79397390D01*
X100156497Y-79336503D01*
X100172470Y-79283847D01*
X100198400Y-79235335D01*
X100233304Y-79192804D01*
X100275835Y-79157900D01*
X100324348Y-79131969D01*
X100384844Y-79113618D01*
X100407483Y-79104240D01*
X100427858Y-79090626D01*
X100445185Y-79073299D01*
X100458799Y-79052925D01*
X100468177Y-79030286D01*
X100472957Y-79006252D01*
X100472957Y-78981748D01*
X100468177Y-78957715D01*
X100458799Y-78935076D01*
X100445185Y-78914701D01*
X100427858Y-78897374D01*
X100407484Y-78883760D01*
X100384844Y-78874382D01*
X100324348Y-78856031D01*
X100275835Y-78830100D01*
X100233304Y-78795196D01*
X100198400Y-78752665D01*
X100172470Y-78704153D01*
X100156497Y-78651497D01*
X100150500Y-78590610D01*
X100150500Y-77365390D01*
X100156497Y-77304503D01*
X100172470Y-77251847D01*
X100198400Y-77203335D01*
X100233304Y-77160804D01*
X100275835Y-77125900D01*
X100324348Y-77099969D01*
X100384844Y-77081618D01*
X100407483Y-77072240D01*
X100427858Y-77058626D01*
X100445185Y-77041299D01*
X100458799Y-77020925D01*
X100468177Y-76998286D01*
X100472957Y-76974252D01*
X100472957Y-76949748D01*
X100468177Y-76925715D01*
X100458799Y-76903076D01*
X100445185Y-76882701D01*
X100427858Y-76865374D01*
X100407484Y-76851760D01*
X100384844Y-76842382D01*
X100324348Y-76824031D01*
X100275835Y-76798100D01*
X100233304Y-76763196D01*
X100198400Y-76720665D01*
X100172470Y-76672153D01*
X100156497Y-76619497D01*
X100150500Y-76558610D01*
X100150500Y-75333390D01*
X100156497Y-75272503D01*
X100172470Y-75219847D01*
X100198400Y-75171335D01*
X100233304Y-75128804D01*
X100275835Y-75093900D01*
X100324347Y-75067970D01*
X100377003Y-75051997D01*
X100437890Y-75046000D01*
X101238110Y-75046000D01*
X101298997Y-75051997D01*
X101298997Y-75051997D01*
G37*
G36*
X103173997Y-75051997D02*
X103226653Y-75067970D01*
X103275165Y-75093900D01*
X103317696Y-75128804D01*
X103352600Y-75171335D01*
X103378530Y-75219847D01*
X103394503Y-75272503D01*
X103400500Y-75333390D01*
X103400500Y-76558610D01*
X103394503Y-76619497D01*
X103378530Y-76672153D01*
X103352600Y-76720665D01*
X103317696Y-76763196D01*
X103275165Y-76798100D01*
X103226652Y-76824031D01*
X103166156Y-76842382D01*
X103143517Y-76851760D01*
X103123142Y-76865374D01*
X103105815Y-76882701D01*
X103092201Y-76903075D01*
X103082823Y-76925714D01*
X103078043Y-76949748D01*
X103078043Y-76974252D01*
X103082823Y-76998285D01*
X103092201Y-77020924D01*
X103105815Y-77041299D01*
X103123142Y-77058626D01*
X103143516Y-77072240D01*
X103166156Y-77081618D01*
X103226652Y-77099969D01*
X103275165Y-77125900D01*
X103317696Y-77160804D01*
X103352600Y-77203335D01*
X103378530Y-77251847D01*
X103394503Y-77304503D01*
X103400500Y-77365390D01*
X103400500Y-78590610D01*
X103394503Y-78651497D01*
X103378530Y-78704153D01*
X103352600Y-78752665D01*
X103317696Y-78795196D01*
X103275165Y-78830100D01*
X103226652Y-78856031D01*
X103166156Y-78874382D01*
X103143517Y-78883760D01*
X103123142Y-78897374D01*
X103105815Y-78914701D01*
X103092201Y-78935075D01*
X103082823Y-78957714D01*
X103078043Y-78981748D01*
X103078043Y-79006252D01*
X103082823Y-79030285D01*
X103092201Y-79052924D01*
X103105815Y-79073299D01*
X103123142Y-79090626D01*
X103143516Y-79104240D01*
X103166156Y-79113618D01*
X103226652Y-79131969D01*
X103275165Y-79157900D01*
X103317696Y-79192804D01*
X103352600Y-79235335D01*
X103378530Y-79283847D01*
X103394503Y-79336503D01*
X103400500Y-79397390D01*
X103400500Y-80622610D01*
X103394503Y-80683497D01*
X103378530Y-80736153D01*
X103352600Y-80784665D01*
X103317696Y-80827196D01*
X103275165Y-80862100D01*
X103226653Y-80888030D01*
X103173997Y-80904003D01*
X103113110Y-80910000D01*
X102312890Y-80910000D01*
X102252003Y-80904003D01*
X102199347Y-80888030D01*
X102150835Y-80862100D01*
X102108304Y-80827196D01*
X102073400Y-80784665D01*
X102047470Y-80736153D01*
X102031497Y-80683497D01*
X102025500Y-80622610D01*
X102025500Y-79397390D01*
X102031497Y-79336503D01*
X102047470Y-79283847D01*
X102073400Y-79235335D01*
X102108304Y-79192804D01*
X102150835Y-79157900D01*
X102199348Y-79131969D01*
X102259844Y-79113618D01*
X102282483Y-79104240D01*
X102302858Y-79090626D01*
X102320185Y-79073299D01*
X102333799Y-79052925D01*
X102343177Y-79030286D01*
X102347957Y-79006252D01*
X102347957Y-78981748D01*
X102343177Y-78957715D01*
X102333799Y-78935076D01*
X102320185Y-78914701D01*
X102302858Y-78897374D01*
X102282484Y-78883760D01*
X102259844Y-78874382D01*
X102199348Y-78856031D01*
X102150835Y-78830100D01*
X102108304Y-78795196D01*
X102073400Y-78752665D01*
X102047470Y-78704153D01*
X102031497Y-78651497D01*
X102025500Y-78590610D01*
X102025500Y-77365390D01*
X102031497Y-77304503D01*
X102047470Y-77251847D01*
X102073400Y-77203335D01*
X102108304Y-77160804D01*
X102150835Y-77125900D01*
X102199348Y-77099969D01*
X102259844Y-77081618D01*
X102282483Y-77072240D01*
X102302858Y-77058626D01*
X102320185Y-77041299D01*
X102333799Y-77020925D01*
X102343177Y-76998286D01*
X102347957Y-76974252D01*
X102347957Y-76949748D01*
X102343177Y-76925715D01*
X102333799Y-76903076D01*
X102320185Y-76882701D01*
X102302858Y-76865374D01*
X102282484Y-76851760D01*
X102259844Y-76842382D01*
X102199348Y-76824031D01*
X102150835Y-76798100D01*
X102108304Y-76763196D01*
X102073400Y-76720665D01*
X102047470Y-76672153D01*
X102031497Y-76619497D01*
X102025500Y-76558610D01*
X102025500Y-75333390D01*
X102031497Y-75272503D01*
X102047470Y-75219847D01*
X102073400Y-75171335D01*
X102108304Y-75128804D01*
X102150835Y-75093900D01*
X102199347Y-75067970D01*
X102252003Y-75051997D01*
X102312890Y-75046000D01*
X103113110Y-75046000D01*
X103173997Y-75051997D01*
X103173997Y-75051997D01*
G37*
G36*
X77562000Y-79390000D02*
X76362000Y-79390000D01*
X76362000Y-78090000D01*
X77562000Y-78090000D01*
X77562000Y-79390000D01*
X77562000Y-79390000D01*
G37*
G36*
X118203558Y-77697088D02*
X118355522Y-77760033D01*
X118492284Y-77851415D01*
X118608585Y-77967716D01*
X118699967Y-78104478D01*
X118762912Y-78256442D01*
X118795000Y-78417758D01*
X118795000Y-78582242D01*
X118762912Y-78743558D01*
X118699967Y-78895522D01*
X118608585Y-79032284D01*
X118492284Y-79148585D01*
X118355522Y-79239967D01*
X118203558Y-79302912D01*
X118042242Y-79335000D01*
X117877758Y-79335000D01*
X117716442Y-79302912D01*
X117564478Y-79239967D01*
X117427716Y-79148585D01*
X117311415Y-79032284D01*
X117220033Y-78895522D01*
X117157088Y-78743558D01*
X117125000Y-78582242D01*
X117125000Y-78417758D01*
X117157088Y-78256442D01*
X117220033Y-78104478D01*
X117311415Y-77967716D01*
X117427716Y-77851415D01*
X117564478Y-77760033D01*
X117716442Y-77697088D01*
X117877758Y-77665000D01*
X118042242Y-77665000D01*
X118203558Y-77697088D01*
X118203558Y-77697088D01*
G37*
G36*
X59896997Y-76067997D02*
X59949653Y-76083970D01*
X59998165Y-76109900D01*
X60040696Y-76144804D01*
X60075600Y-76187335D01*
X60101530Y-76235847D01*
X60117503Y-76288503D01*
X60123500Y-76349390D01*
X60123500Y-77574610D01*
X60117503Y-77635497D01*
X60101530Y-77688153D01*
X60075600Y-77736665D01*
X60040696Y-77779196D01*
X59998165Y-77814100D01*
X59949653Y-77840030D01*
X59896997Y-77856003D01*
X59836110Y-77862000D01*
X59035890Y-77862000D01*
X58975003Y-77856003D01*
X58922347Y-77840030D01*
X58873835Y-77814100D01*
X58831304Y-77779196D01*
X58796400Y-77736665D01*
X58770470Y-77688153D01*
X58754497Y-77635497D01*
X58748500Y-77574610D01*
X58748500Y-76349390D01*
X58754497Y-76288503D01*
X58770470Y-76235847D01*
X58796400Y-76187335D01*
X58831304Y-76144804D01*
X58873835Y-76109900D01*
X58922347Y-76083970D01*
X58975003Y-76067997D01*
X59035890Y-76062000D01*
X59836110Y-76062000D01*
X59896997Y-76067997D01*
X59896997Y-76067997D01*
G37*
G36*
X63863997Y-76067997D02*
X63916653Y-76083970D01*
X63965165Y-76109900D01*
X64007696Y-76144804D01*
X64042600Y-76187335D01*
X64068530Y-76235847D01*
X64084503Y-76288503D01*
X64090500Y-76349390D01*
X64090500Y-77574610D01*
X64084503Y-77635497D01*
X64068530Y-77688153D01*
X64042600Y-77736665D01*
X64007696Y-77779196D01*
X63965165Y-77814100D01*
X63916653Y-77840030D01*
X63863997Y-77856003D01*
X63803110Y-77862000D01*
X63002890Y-77862000D01*
X62942003Y-77856003D01*
X62889347Y-77840030D01*
X62840835Y-77814100D01*
X62798304Y-77779196D01*
X62763400Y-77736665D01*
X62737470Y-77688153D01*
X62721497Y-77635497D01*
X62715500Y-77574610D01*
X62715500Y-76349390D01*
X62721497Y-76288503D01*
X62737470Y-76235847D01*
X62763400Y-76187335D01*
X62798304Y-76144804D01*
X62840835Y-76109900D01*
X62889347Y-76083970D01*
X62942003Y-76067997D01*
X63002890Y-76062000D01*
X63803110Y-76062000D01*
X63863997Y-76067997D01*
X63863997Y-76067997D01*
G37*
G36*
X65738997Y-76067997D02*
X65791653Y-76083970D01*
X65840165Y-76109900D01*
X65882696Y-76144804D01*
X65917600Y-76187335D01*
X65943530Y-76235847D01*
X65959503Y-76288503D01*
X65965500Y-76349390D01*
X65965500Y-77574610D01*
X65959503Y-77635497D01*
X65943530Y-77688153D01*
X65917600Y-77736665D01*
X65882696Y-77779196D01*
X65840165Y-77814100D01*
X65791653Y-77840030D01*
X65738997Y-77856003D01*
X65678110Y-77862000D01*
X64877890Y-77862000D01*
X64817003Y-77856003D01*
X64764347Y-77840030D01*
X64715835Y-77814100D01*
X64673304Y-77779196D01*
X64638400Y-77736665D01*
X64612470Y-77688153D01*
X64596497Y-77635497D01*
X64590500Y-77574610D01*
X64590500Y-76349390D01*
X64596497Y-76288503D01*
X64612470Y-76235847D01*
X64638400Y-76187335D01*
X64673304Y-76144804D01*
X64715835Y-76109900D01*
X64764347Y-76083970D01*
X64817003Y-76067997D01*
X64877890Y-76062000D01*
X65678110Y-76062000D01*
X65738997Y-76067997D01*
X65738997Y-76067997D01*
G37*
G36*
X61771997Y-76067997D02*
X61824653Y-76083970D01*
X61873165Y-76109900D01*
X61915696Y-76144804D01*
X61950600Y-76187335D01*
X61976530Y-76235847D01*
X61992503Y-76288503D01*
X61998500Y-76349390D01*
X61998500Y-77574610D01*
X61992503Y-77635497D01*
X61976530Y-77688153D01*
X61950600Y-77736665D01*
X61915696Y-77779196D01*
X61873165Y-77814100D01*
X61824653Y-77840030D01*
X61771997Y-77856003D01*
X61711110Y-77862000D01*
X60910890Y-77862000D01*
X60850003Y-77856003D01*
X60797347Y-77840030D01*
X60748835Y-77814100D01*
X60706304Y-77779196D01*
X60671400Y-77736665D01*
X60645470Y-77688153D01*
X60629497Y-77635497D01*
X60623500Y-77574610D01*
X60623500Y-76349390D01*
X60629497Y-76288503D01*
X60645470Y-76235847D01*
X60671400Y-76187335D01*
X60706304Y-76144804D01*
X60748835Y-76109900D01*
X60797347Y-76083970D01*
X60850003Y-76067997D01*
X60910890Y-76062000D01*
X61711110Y-76062000D01*
X61771997Y-76067997D01*
X61771997Y-76067997D01*
G37*
G36*
X67770997Y-76067997D02*
X67823653Y-76083970D01*
X67872165Y-76109900D01*
X67914696Y-76144804D01*
X67949600Y-76187335D01*
X67975530Y-76235847D01*
X67991503Y-76288503D01*
X67997500Y-76349390D01*
X67997500Y-77574610D01*
X67991503Y-77635497D01*
X67975530Y-77688153D01*
X67949600Y-77736665D01*
X67914696Y-77779196D01*
X67872165Y-77814100D01*
X67823653Y-77840030D01*
X67770997Y-77856003D01*
X67710110Y-77862000D01*
X66909890Y-77862000D01*
X66849003Y-77856003D01*
X66796347Y-77840030D01*
X66747835Y-77814100D01*
X66705304Y-77779196D01*
X66670400Y-77736665D01*
X66644470Y-77688153D01*
X66628497Y-77635497D01*
X66622500Y-77574610D01*
X66622500Y-76349390D01*
X66628497Y-76288503D01*
X66644470Y-76235847D01*
X66670400Y-76187335D01*
X66705304Y-76144804D01*
X66747835Y-76109900D01*
X66796347Y-76083970D01*
X66849003Y-76067997D01*
X66909890Y-76062000D01*
X67710110Y-76062000D01*
X67770997Y-76067997D01*
X67770997Y-76067997D01*
G37*
G36*
X55418497Y-76067997D02*
X55471153Y-76083970D01*
X55519665Y-76109900D01*
X55562196Y-76144804D01*
X55597100Y-76187335D01*
X55623030Y-76235847D01*
X55639003Y-76288503D01*
X55645000Y-76349390D01*
X55645000Y-77574610D01*
X55639003Y-77635497D01*
X55623030Y-77688153D01*
X55597100Y-77736665D01*
X55562196Y-77779196D01*
X55519665Y-77814100D01*
X55471153Y-77840030D01*
X55418497Y-77856003D01*
X55357610Y-77862000D01*
X54557390Y-77862000D01*
X54496503Y-77856003D01*
X54443847Y-77840030D01*
X54395335Y-77814100D01*
X54352804Y-77779196D01*
X54317900Y-77736665D01*
X54291970Y-77688153D01*
X54275997Y-77635497D01*
X54270000Y-77574610D01*
X54270000Y-76349390D01*
X54275997Y-76288503D01*
X54291970Y-76235847D01*
X54317900Y-76187335D01*
X54352804Y-76144804D01*
X54395335Y-76109900D01*
X54443847Y-76083970D01*
X54496503Y-76067997D01*
X54557390Y-76062000D01*
X55357610Y-76062000D01*
X55418497Y-76067997D01*
X55418497Y-76067997D01*
G37*
G36*
X57293497Y-76067997D02*
X57346153Y-76083970D01*
X57394665Y-76109900D01*
X57437196Y-76144804D01*
X57472100Y-76187335D01*
X57498030Y-76235847D01*
X57514003Y-76288503D01*
X57520000Y-76349390D01*
X57520000Y-77574610D01*
X57514003Y-77635497D01*
X57498030Y-77688153D01*
X57472100Y-77736665D01*
X57437196Y-77779196D01*
X57394665Y-77814100D01*
X57346153Y-77840030D01*
X57293497Y-77856003D01*
X57232610Y-77862000D01*
X56432390Y-77862000D01*
X56371503Y-77856003D01*
X56318847Y-77840030D01*
X56270335Y-77814100D01*
X56227804Y-77779196D01*
X56192900Y-77736665D01*
X56166970Y-77688153D01*
X56150997Y-77635497D01*
X56145000Y-77574610D01*
X56145000Y-76349390D01*
X56150997Y-76288503D01*
X56166970Y-76235847D01*
X56192900Y-76187335D01*
X56227804Y-76144804D01*
X56270335Y-76109900D01*
X56318847Y-76083970D01*
X56371503Y-76067997D01*
X56432390Y-76062000D01*
X57232610Y-76062000D01*
X57293497Y-76067997D01*
X57293497Y-76067997D01*
G37*
G36*
X69645997Y-76067997D02*
X69698653Y-76083970D01*
X69747165Y-76109900D01*
X69789696Y-76144804D01*
X69824600Y-76187335D01*
X69850530Y-76235847D01*
X69866503Y-76288503D01*
X69872500Y-76349390D01*
X69872500Y-77574610D01*
X69866503Y-77635497D01*
X69850530Y-77688153D01*
X69824600Y-77736665D01*
X69789696Y-77779196D01*
X69747165Y-77814100D01*
X69698653Y-77840030D01*
X69645997Y-77856003D01*
X69585110Y-77862000D01*
X68784890Y-77862000D01*
X68724003Y-77856003D01*
X68671347Y-77840030D01*
X68622835Y-77814100D01*
X68580304Y-77779196D01*
X68545400Y-77736665D01*
X68519470Y-77688153D01*
X68503497Y-77635497D01*
X68497500Y-77574610D01*
X68497500Y-76349390D01*
X68503497Y-76288503D01*
X68519470Y-76235847D01*
X68545400Y-76187335D01*
X68580304Y-76144804D01*
X68622835Y-76109900D01*
X68671347Y-76083970D01*
X68724003Y-76067997D01*
X68784890Y-76062000D01*
X69585110Y-76062000D01*
X69645997Y-76067997D01*
X69645997Y-76067997D01*
G37*
G36*
X110110707Y-75665597D02*
X110187836Y-75673193D01*
X110309173Y-75710000D01*
X110385763Y-75733233D01*
X110568172Y-75830733D01*
X110728054Y-75961946D01*
X110859267Y-76121828D01*
X110956767Y-76304237D01*
X110956767Y-76304238D01*
X111016807Y-76502164D01*
X111037080Y-76708000D01*
X111016807Y-76913836D01*
X110998480Y-76974252D01*
X110956767Y-77111763D01*
X110859267Y-77294172D01*
X110728054Y-77454054D01*
X110568172Y-77585267D01*
X110385763Y-77682767D01*
X110368007Y-77688153D01*
X110187836Y-77742807D01*
X110110707Y-77750404D01*
X110033580Y-77758000D01*
X109930420Y-77758000D01*
X109853293Y-77750404D01*
X109776164Y-77742807D01*
X109595993Y-77688153D01*
X109578237Y-77682767D01*
X109395828Y-77585267D01*
X109235946Y-77454054D01*
X109104733Y-77294172D01*
X109007233Y-77111763D01*
X108965520Y-76974252D01*
X108947193Y-76913836D01*
X108926920Y-76708000D01*
X108947193Y-76502164D01*
X109007233Y-76304238D01*
X109007233Y-76304237D01*
X109104733Y-76121828D01*
X109235946Y-75961946D01*
X109395828Y-75830733D01*
X109578237Y-75733233D01*
X109654827Y-75710000D01*
X109776164Y-75673193D01*
X109853293Y-75665597D01*
X109930420Y-75658000D01*
X110033580Y-75658000D01*
X110110707Y-75665597D01*
X110110707Y-75665597D01*
G37*
G36*
X76612000Y-77390000D02*
X75412000Y-77390000D01*
X75412000Y-76090000D01*
X76612000Y-76090000D01*
X76612000Y-77390000D01*
X76612000Y-77390000D01*
G37*
G36*
X78512000Y-77390000D02*
X77312000Y-77390000D01*
X77312000Y-76090000D01*
X78512000Y-76090000D01*
X78512000Y-77390000D01*
X78512000Y-77390000D01*
G37*
G36*
X52336451Y-75417127D02*
X52474105Y-75444508D01*
X52646994Y-75516121D01*
X52802590Y-75620087D01*
X52934913Y-75752410D01*
X53038879Y-75908006D01*
X53110492Y-76080895D01*
X53147000Y-76264433D01*
X53147000Y-76451567D01*
X53110492Y-76635105D01*
X53038879Y-76807994D01*
X52934913Y-76963590D01*
X52802590Y-77095913D01*
X52646994Y-77199879D01*
X52474105Y-77271492D01*
X52336452Y-77298873D01*
X52290568Y-77308000D01*
X52103432Y-77308000D01*
X52057548Y-77298873D01*
X51919895Y-77271492D01*
X51747006Y-77199879D01*
X51591410Y-77095913D01*
X51459087Y-76963590D01*
X51355121Y-76807994D01*
X51283508Y-76635105D01*
X51247000Y-76451567D01*
X51247000Y-76264433D01*
X51283508Y-76080895D01*
X51355121Y-75908006D01*
X51459087Y-75752410D01*
X51591410Y-75620087D01*
X51747006Y-75516121D01*
X51919895Y-75444508D01*
X52057549Y-75417127D01*
X52103432Y-75408000D01*
X52290568Y-75408000D01*
X52336451Y-75417127D01*
X52336451Y-75417127D01*
G37*
G36*
X48447793Y-72323937D02*
X48802670Y-72470932D01*
X49122055Y-72684338D01*
X49393662Y-72955945D01*
X49607068Y-73275330D01*
X49754063Y-73630207D01*
X49829000Y-74006940D01*
X49829000Y-74391060D01*
X49754063Y-74767793D01*
X49607068Y-75122670D01*
X49393662Y-75442055D01*
X49122055Y-75713662D01*
X48802670Y-75927068D01*
X48447793Y-76074063D01*
X48071060Y-76149000D01*
X47686940Y-76149000D01*
X47310207Y-76074063D01*
X46955330Y-75927068D01*
X46635945Y-75713662D01*
X46364338Y-75442055D01*
X46150932Y-75122670D01*
X46003937Y-74767793D01*
X45929000Y-74391060D01*
X45929000Y-74006940D01*
X46003937Y-73630207D01*
X46150932Y-73275330D01*
X46364338Y-72955945D01*
X46635945Y-72684338D01*
X46955330Y-72470932D01*
X47310207Y-72323937D01*
X47686940Y-72249000D01*
X48071060Y-72249000D01*
X48447793Y-72323937D01*
X48447793Y-72323937D01*
G37*
G36*
X77562000Y-75834000D02*
X76362000Y-75834000D01*
X76362000Y-74534000D01*
X77562000Y-74534000D01*
X77562000Y-75834000D01*
X77562000Y-75834000D01*
G37*
G36*
X118050000Y-75710000D02*
X115950000Y-75710000D01*
X115950000Y-73610000D01*
X118050000Y-73610000D01*
X118050000Y-75710000D01*
X118050000Y-75710000D01*
G37*
G36*
X110110707Y-73125597D02*
X110187836Y-73133193D01*
X110304238Y-73168503D01*
X110385763Y-73193233D01*
X110568172Y-73290733D01*
X110728054Y-73421946D01*
X110859267Y-73581828D01*
X110956767Y-73764237D01*
X110956767Y-73764238D01*
X111016807Y-73962164D01*
X111037080Y-74168000D01*
X111016807Y-74373836D01*
X110990876Y-74459318D01*
X110956767Y-74571763D01*
X110859267Y-74754172D01*
X110728054Y-74914054D01*
X110568172Y-75045267D01*
X110385763Y-75142767D01*
X110319787Y-75162780D01*
X110187836Y-75202807D01*
X110110707Y-75210404D01*
X110033580Y-75218000D01*
X109930420Y-75218000D01*
X109853293Y-75210404D01*
X109776164Y-75202807D01*
X109644213Y-75162780D01*
X109578237Y-75142767D01*
X109395828Y-75045267D01*
X109235946Y-74914054D01*
X109104733Y-74754172D01*
X109007233Y-74571763D01*
X108973124Y-74459318D01*
X108947193Y-74373836D01*
X108926920Y-74168000D01*
X108947193Y-73962164D01*
X109007233Y-73764238D01*
X109007233Y-73764237D01*
X109104733Y-73581828D01*
X109235946Y-73421946D01*
X109395828Y-73290733D01*
X109578237Y-73193233D01*
X109659762Y-73168503D01*
X109776164Y-73133193D01*
X109853293Y-73125597D01*
X109930420Y-73118000D01*
X110033580Y-73118000D01*
X110110707Y-73125597D01*
X110110707Y-73125597D01*
G37*
G36*
X55418497Y-72765997D02*
X55471153Y-72781970D01*
X55519665Y-72807900D01*
X55562196Y-72842804D01*
X55597100Y-72885335D01*
X55623030Y-72933847D01*
X55639003Y-72986503D01*
X55645000Y-73047390D01*
X55645000Y-74272610D01*
X55639003Y-74333497D01*
X55623030Y-74386153D01*
X55597100Y-74434665D01*
X55562196Y-74477196D01*
X55519665Y-74512100D01*
X55471153Y-74538030D01*
X55418497Y-74554003D01*
X55357610Y-74560000D01*
X54557390Y-74560000D01*
X54496503Y-74554003D01*
X54443847Y-74538030D01*
X54395335Y-74512100D01*
X54352804Y-74477196D01*
X54317900Y-74434665D01*
X54291970Y-74386153D01*
X54275997Y-74333497D01*
X54270000Y-74272610D01*
X54270000Y-73047390D01*
X54275997Y-72986503D01*
X54291970Y-72933847D01*
X54317900Y-72885335D01*
X54352804Y-72842804D01*
X54395335Y-72807900D01*
X54443847Y-72781970D01*
X54496503Y-72765997D01*
X54557390Y-72760000D01*
X55357610Y-72760000D01*
X55418497Y-72765997D01*
X55418497Y-72765997D01*
G37*
G36*
X67770997Y-72765997D02*
X67823653Y-72781970D01*
X67872165Y-72807900D01*
X67914696Y-72842804D01*
X67949600Y-72885335D01*
X67975530Y-72933847D01*
X67991503Y-72986503D01*
X67997500Y-73047390D01*
X67997500Y-74272610D01*
X67991503Y-74333497D01*
X67975530Y-74386153D01*
X67949600Y-74434665D01*
X67914696Y-74477196D01*
X67872165Y-74512100D01*
X67823653Y-74538030D01*
X67770997Y-74554003D01*
X67710110Y-74560000D01*
X66909890Y-74560000D01*
X66849003Y-74554003D01*
X66796347Y-74538030D01*
X66747835Y-74512100D01*
X66705304Y-74477196D01*
X66670400Y-74434665D01*
X66644470Y-74386153D01*
X66628497Y-74333497D01*
X66622500Y-74272610D01*
X66622500Y-73047390D01*
X66628497Y-72986503D01*
X66644470Y-72933847D01*
X66670400Y-72885335D01*
X66705304Y-72842804D01*
X66747835Y-72807900D01*
X66796347Y-72781970D01*
X66849003Y-72765997D01*
X66909890Y-72760000D01*
X67710110Y-72760000D01*
X67770997Y-72765997D01*
X67770997Y-72765997D01*
G37*
G36*
X65738997Y-72765997D02*
X65791653Y-72781970D01*
X65840165Y-72807900D01*
X65882696Y-72842804D01*
X65917600Y-72885335D01*
X65943530Y-72933847D01*
X65959503Y-72986503D01*
X65965500Y-73047390D01*
X65965500Y-74272610D01*
X65959503Y-74333497D01*
X65943530Y-74386153D01*
X65917600Y-74434665D01*
X65882696Y-74477196D01*
X65840165Y-74512100D01*
X65791653Y-74538030D01*
X65738997Y-74554003D01*
X65678110Y-74560000D01*
X64877890Y-74560000D01*
X64817003Y-74554003D01*
X64764347Y-74538030D01*
X64715835Y-74512100D01*
X64673304Y-74477196D01*
X64638400Y-74434665D01*
X64612470Y-74386153D01*
X64596497Y-74333497D01*
X64590500Y-74272610D01*
X64590500Y-73047390D01*
X64596497Y-72986503D01*
X64612470Y-72933847D01*
X64638400Y-72885335D01*
X64673304Y-72842804D01*
X64715835Y-72807900D01*
X64764347Y-72781970D01*
X64817003Y-72765997D01*
X64877890Y-72760000D01*
X65678110Y-72760000D01*
X65738997Y-72765997D01*
X65738997Y-72765997D01*
G37*
G36*
X61771997Y-72765997D02*
X61824653Y-72781970D01*
X61873165Y-72807900D01*
X61915696Y-72842804D01*
X61950600Y-72885335D01*
X61976530Y-72933847D01*
X61992503Y-72986503D01*
X61998500Y-73047390D01*
X61998500Y-74272610D01*
X61992503Y-74333497D01*
X61976530Y-74386153D01*
X61950600Y-74434665D01*
X61915696Y-74477196D01*
X61873165Y-74512100D01*
X61824653Y-74538030D01*
X61771997Y-74554003D01*
X61711110Y-74560000D01*
X60910890Y-74560000D01*
X60850003Y-74554003D01*
X60797347Y-74538030D01*
X60748835Y-74512100D01*
X60706304Y-74477196D01*
X60671400Y-74434665D01*
X60645470Y-74386153D01*
X60629497Y-74333497D01*
X60623500Y-74272610D01*
X60623500Y-73047390D01*
X60629497Y-72986503D01*
X60645470Y-72933847D01*
X60671400Y-72885335D01*
X60706304Y-72842804D01*
X60748835Y-72807900D01*
X60797347Y-72781970D01*
X60850003Y-72765997D01*
X60910890Y-72760000D01*
X61711110Y-72760000D01*
X61771997Y-72765997D01*
X61771997Y-72765997D01*
G37*
G36*
X59896997Y-72765997D02*
X59949653Y-72781970D01*
X59998165Y-72807900D01*
X60040696Y-72842804D01*
X60075600Y-72885335D01*
X60101530Y-72933847D01*
X60117503Y-72986503D01*
X60123500Y-73047390D01*
X60123500Y-74272610D01*
X60117503Y-74333497D01*
X60101530Y-74386153D01*
X60075600Y-74434665D01*
X60040696Y-74477196D01*
X59998165Y-74512100D01*
X59949653Y-74538030D01*
X59896997Y-74554003D01*
X59836110Y-74560000D01*
X59035890Y-74560000D01*
X58975003Y-74554003D01*
X58922347Y-74538030D01*
X58873835Y-74512100D01*
X58831304Y-74477196D01*
X58796400Y-74434665D01*
X58770470Y-74386153D01*
X58754497Y-74333497D01*
X58748500Y-74272610D01*
X58748500Y-73047390D01*
X58754497Y-72986503D01*
X58770470Y-72933847D01*
X58796400Y-72885335D01*
X58831304Y-72842804D01*
X58873835Y-72807900D01*
X58922347Y-72781970D01*
X58975003Y-72765997D01*
X59035890Y-72760000D01*
X59836110Y-72760000D01*
X59896997Y-72765997D01*
X59896997Y-72765997D01*
G37*
G36*
X69645997Y-72765997D02*
X69698653Y-72781970D01*
X69747165Y-72807900D01*
X69789696Y-72842804D01*
X69824600Y-72885335D01*
X69850530Y-72933847D01*
X69866503Y-72986503D01*
X69872500Y-73047390D01*
X69872500Y-74272610D01*
X69866503Y-74333497D01*
X69850530Y-74386153D01*
X69824600Y-74434665D01*
X69789696Y-74477196D01*
X69747165Y-74512100D01*
X69698653Y-74538030D01*
X69645997Y-74554003D01*
X69585110Y-74560000D01*
X68784890Y-74560000D01*
X68724003Y-74554003D01*
X68671347Y-74538030D01*
X68622835Y-74512100D01*
X68580304Y-74477196D01*
X68545400Y-74434665D01*
X68519470Y-74386153D01*
X68503497Y-74333497D01*
X68497500Y-74272610D01*
X68497500Y-73047390D01*
X68503497Y-72986503D01*
X68519470Y-72933847D01*
X68545400Y-72885335D01*
X68580304Y-72842804D01*
X68622835Y-72807900D01*
X68671347Y-72781970D01*
X68724003Y-72765997D01*
X68784890Y-72760000D01*
X69585110Y-72760000D01*
X69645997Y-72765997D01*
X69645997Y-72765997D01*
G37*
G36*
X57293497Y-72765997D02*
X57346153Y-72781970D01*
X57394665Y-72807900D01*
X57437196Y-72842804D01*
X57472100Y-72885335D01*
X57498030Y-72933847D01*
X57514003Y-72986503D01*
X57520000Y-73047390D01*
X57520000Y-74272610D01*
X57514003Y-74333497D01*
X57498030Y-74386153D01*
X57472100Y-74434665D01*
X57437196Y-74477196D01*
X57394665Y-74512100D01*
X57346153Y-74538030D01*
X57293497Y-74554003D01*
X57232610Y-74560000D01*
X56432390Y-74560000D01*
X56371503Y-74554003D01*
X56318847Y-74538030D01*
X56270335Y-74512100D01*
X56227804Y-74477196D01*
X56192900Y-74434665D01*
X56166970Y-74386153D01*
X56150997Y-74333497D01*
X56145000Y-74272610D01*
X56145000Y-73047390D01*
X56150997Y-72986503D01*
X56166970Y-72933847D01*
X56192900Y-72885335D01*
X56227804Y-72842804D01*
X56270335Y-72807900D01*
X56318847Y-72781970D01*
X56371503Y-72765997D01*
X56432390Y-72760000D01*
X57232610Y-72760000D01*
X57293497Y-72765997D01*
X57293497Y-72765997D01*
G37*
G36*
X63863997Y-72765997D02*
X63916653Y-72781970D01*
X63965165Y-72807900D01*
X64007696Y-72842804D01*
X64042600Y-72885335D01*
X64068530Y-72933847D01*
X64084503Y-72986503D01*
X64090500Y-73047390D01*
X64090500Y-74272610D01*
X64084503Y-74333497D01*
X64068530Y-74386153D01*
X64042600Y-74434665D01*
X64007696Y-74477196D01*
X63965165Y-74512100D01*
X63916653Y-74538030D01*
X63863997Y-74554003D01*
X63803110Y-74560000D01*
X63002890Y-74560000D01*
X62942003Y-74554003D01*
X62889347Y-74538030D01*
X62840835Y-74512100D01*
X62798304Y-74477196D01*
X62763400Y-74434665D01*
X62737470Y-74386153D01*
X62721497Y-74333497D01*
X62715500Y-74272610D01*
X62715500Y-73047390D01*
X62721497Y-72986503D01*
X62737470Y-72933847D01*
X62763400Y-72885335D01*
X62798304Y-72842804D01*
X62840835Y-72807900D01*
X62889347Y-72781970D01*
X62942003Y-72765997D01*
X63002890Y-72760000D01*
X63803110Y-72760000D01*
X63863997Y-72765997D01*
X63863997Y-72765997D01*
G37*
G36*
X52336452Y-72417127D02*
X52474105Y-72444508D01*
X52646994Y-72516121D01*
X52802590Y-72620087D01*
X52934913Y-72752410D01*
X53038879Y-72908006D01*
X53110492Y-73080895D01*
X53147000Y-73264433D01*
X53147000Y-73451567D01*
X53110492Y-73635105D01*
X53038879Y-73807994D01*
X52934913Y-73963590D01*
X52802590Y-74095913D01*
X52646994Y-74199879D01*
X52474105Y-74271492D01*
X52336451Y-74298873D01*
X52290568Y-74308000D01*
X52103432Y-74308000D01*
X52057549Y-74298873D01*
X51919895Y-74271492D01*
X51747006Y-74199879D01*
X51591410Y-74095913D01*
X51459087Y-73963590D01*
X51355121Y-73807994D01*
X51283508Y-73635105D01*
X51247000Y-73451567D01*
X51247000Y-73264433D01*
X51283508Y-73080895D01*
X51355121Y-72908006D01*
X51459087Y-72752410D01*
X51591410Y-72620087D01*
X51747006Y-72516121D01*
X51919895Y-72444508D01*
X52057548Y-72417127D01*
X52103432Y-72408000D01*
X52290568Y-72408000D01*
X52336452Y-72417127D01*
X52336452Y-72417127D01*
G37*
G36*
X78512000Y-73834000D02*
X77312000Y-73834000D01*
X77312000Y-72534000D01*
X78512000Y-72534000D01*
X78512000Y-73834000D01*
X78512000Y-73834000D01*
G37*
G36*
X76612000Y-73834000D02*
X75412000Y-73834000D01*
X75412000Y-72534000D01*
X76612000Y-72534000D01*
X76612000Y-73834000D01*
X76612000Y-73834000D01*
G37*
G36*
X102273497Y-71805497D02*
X102326153Y-71821470D01*
X102374665Y-71847400D01*
X102417196Y-71882304D01*
X102452100Y-71924835D01*
X102478030Y-71973347D01*
X102494003Y-72026003D01*
X102500000Y-72086890D01*
X102500000Y-72887110D01*
X102494003Y-72947997D01*
X102478030Y-73000653D01*
X102452100Y-73049165D01*
X102417196Y-73091696D01*
X102374665Y-73126600D01*
X102326153Y-73152530D01*
X102273497Y-73168503D01*
X102212610Y-73174500D01*
X100987390Y-73174500D01*
X100926503Y-73168503D01*
X100873847Y-73152530D01*
X100825335Y-73126600D01*
X100782804Y-73091696D01*
X100747900Y-73049165D01*
X100721970Y-73000653D01*
X100705997Y-72947997D01*
X100700000Y-72887110D01*
X100700000Y-72086890D01*
X100705997Y-72026003D01*
X100721970Y-71973347D01*
X100747900Y-71924835D01*
X100782804Y-71882304D01*
X100825335Y-71847400D01*
X100873847Y-71821470D01*
X100926503Y-71805497D01*
X100987390Y-71799500D01*
X102212610Y-71799500D01*
X102273497Y-71805497D01*
X102273497Y-71805497D01*
G37*
G36*
X106845497Y-71805497D02*
X106898153Y-71821470D01*
X106946665Y-71847400D01*
X106989196Y-71882304D01*
X107024100Y-71924835D01*
X107050030Y-71973347D01*
X107066003Y-72026003D01*
X107072000Y-72086890D01*
X107072000Y-72887110D01*
X107066003Y-72947997D01*
X107050030Y-73000653D01*
X107024100Y-73049165D01*
X106989196Y-73091696D01*
X106946665Y-73126600D01*
X106898153Y-73152530D01*
X106845497Y-73168503D01*
X106784610Y-73174500D01*
X105559390Y-73174500D01*
X105498503Y-73168503D01*
X105445847Y-73152530D01*
X105397335Y-73126600D01*
X105354804Y-73091696D01*
X105319900Y-73049165D01*
X105293970Y-73000653D01*
X105277997Y-72947997D01*
X105272000Y-72887110D01*
X105272000Y-72086890D01*
X105277997Y-72026003D01*
X105293970Y-71973347D01*
X105319900Y-71924835D01*
X105354804Y-71882304D01*
X105397335Y-71847400D01*
X105445847Y-71821470D01*
X105498503Y-71805497D01*
X105559390Y-71799500D01*
X106784610Y-71799500D01*
X106845497Y-71805497D01*
X106845497Y-71805497D01*
G37*
G36*
X117128707Y-71077597D02*
X117205836Y-71085193D01*
X117337787Y-71125220D01*
X117403763Y-71145233D01*
X117586172Y-71242733D01*
X117746054Y-71373946D01*
X117877267Y-71533828D01*
X117974767Y-71716237D01*
X117974767Y-71716238D01*
X118034807Y-71914164D01*
X118055080Y-72120000D01*
X118034807Y-72325836D01*
X118009883Y-72408000D01*
X117974767Y-72523763D01*
X117877267Y-72706172D01*
X117746054Y-72866054D01*
X117586172Y-72997267D01*
X117403763Y-73094767D01*
X117374149Y-73103750D01*
X117205836Y-73154807D01*
X117128707Y-73162404D01*
X117051580Y-73170000D01*
X116948420Y-73170000D01*
X116871293Y-73162404D01*
X116794164Y-73154807D01*
X116625851Y-73103750D01*
X116596237Y-73094767D01*
X116413828Y-72997267D01*
X116253946Y-72866054D01*
X116122733Y-72706172D01*
X116025233Y-72523763D01*
X115990117Y-72408000D01*
X115965193Y-72325836D01*
X115944920Y-72120000D01*
X115965193Y-71914164D01*
X116025233Y-71716238D01*
X116025233Y-71716237D01*
X116122733Y-71533828D01*
X116253946Y-71373946D01*
X116413828Y-71242733D01*
X116596237Y-71145233D01*
X116662213Y-71125220D01*
X116794164Y-71085193D01*
X116871293Y-71077597D01*
X116948420Y-71070000D01*
X117051580Y-71070000D01*
X117128707Y-71077597D01*
X117128707Y-71077597D01*
G37*
G36*
X111032000Y-72678000D02*
X108932000Y-72678000D01*
X108932000Y-70578000D01*
X111032000Y-70578000D01*
X111032000Y-72678000D01*
X111032000Y-72678000D01*
G37*
G36*
X77562000Y-72278000D02*
X76362000Y-72278000D01*
X76362000Y-70978000D01*
X77562000Y-70978000D01*
X77562000Y-72278000D01*
X77562000Y-72278000D01*
G37*
G36*
X52336452Y-69417127D02*
X52474105Y-69444508D01*
X52646994Y-69516121D01*
X52802590Y-69620087D01*
X52934913Y-69752410D01*
X53038879Y-69908006D01*
X53110492Y-70080895D01*
X53147000Y-70264433D01*
X53147000Y-70451567D01*
X53110492Y-70635105D01*
X53038879Y-70807994D01*
X52934913Y-70963590D01*
X52802590Y-71095913D01*
X52646994Y-71199879D01*
X52474105Y-71271492D01*
X52363448Y-71293503D01*
X52290568Y-71308000D01*
X52103432Y-71308000D01*
X52030552Y-71293503D01*
X51919895Y-71271492D01*
X51747006Y-71199879D01*
X51591410Y-71095913D01*
X51459087Y-70963590D01*
X51355121Y-70807994D01*
X51283508Y-70635105D01*
X51247000Y-70451567D01*
X51247000Y-70264433D01*
X51283508Y-70080895D01*
X51355121Y-69908006D01*
X51459087Y-69752410D01*
X51591410Y-69620087D01*
X51747006Y-69516121D01*
X51919895Y-69444508D01*
X52057548Y-69417127D01*
X52103432Y-69408000D01*
X52290568Y-69408000D01*
X52336452Y-69417127D01*
X52336452Y-69417127D01*
G37*
G36*
X106845497Y-69930497D02*
X106898153Y-69946470D01*
X106946665Y-69972400D01*
X106989196Y-70007304D01*
X107024100Y-70049835D01*
X107050030Y-70098347D01*
X107066003Y-70151003D01*
X107072000Y-70211890D01*
X107072000Y-71012110D01*
X107066003Y-71072997D01*
X107050030Y-71125653D01*
X107024100Y-71174165D01*
X106989196Y-71216696D01*
X106946665Y-71251600D01*
X106898153Y-71277530D01*
X106845497Y-71293503D01*
X106784610Y-71299500D01*
X105559390Y-71299500D01*
X105498503Y-71293503D01*
X105445847Y-71277530D01*
X105397335Y-71251600D01*
X105354804Y-71216696D01*
X105319900Y-71174165D01*
X105293970Y-71125653D01*
X105277997Y-71072997D01*
X105272000Y-71012110D01*
X105272000Y-70211890D01*
X105277997Y-70151003D01*
X105293970Y-70098347D01*
X105319900Y-70049835D01*
X105354804Y-70007304D01*
X105397335Y-69972400D01*
X105445847Y-69946470D01*
X105498503Y-69930497D01*
X105559390Y-69924500D01*
X106784610Y-69924500D01*
X106845497Y-69930497D01*
X106845497Y-69930497D01*
G37*
G36*
X102273497Y-69930497D02*
X102326153Y-69946470D01*
X102374665Y-69972400D01*
X102417196Y-70007304D01*
X102452100Y-70049835D01*
X102478030Y-70098347D01*
X102494003Y-70151003D01*
X102500000Y-70211890D01*
X102500000Y-71012110D01*
X102494003Y-71072997D01*
X102478030Y-71125653D01*
X102452100Y-71174165D01*
X102417196Y-71216696D01*
X102374665Y-71251600D01*
X102326153Y-71277530D01*
X102273497Y-71293503D01*
X102212610Y-71299500D01*
X100987390Y-71299500D01*
X100926503Y-71293503D01*
X100873847Y-71277530D01*
X100825335Y-71251600D01*
X100782804Y-71216696D01*
X100747900Y-71174165D01*
X100721970Y-71125653D01*
X100705997Y-71072997D01*
X100700000Y-71012110D01*
X100700000Y-70211890D01*
X100705997Y-70151003D01*
X100721970Y-70098347D01*
X100747900Y-70049835D01*
X100782804Y-70007304D01*
X100825335Y-69972400D01*
X100873847Y-69946470D01*
X100926503Y-69930497D01*
X100987390Y-69924500D01*
X102212610Y-69924500D01*
X102273497Y-69930497D01*
X102273497Y-69930497D01*
G37*
G36*
X65738997Y-69463997D02*
X65791653Y-69479970D01*
X65840165Y-69505900D01*
X65882696Y-69540804D01*
X65917600Y-69583335D01*
X65943530Y-69631847D01*
X65959503Y-69684503D01*
X65965500Y-69745390D01*
X65965500Y-70970610D01*
X65959503Y-71031497D01*
X65943530Y-71084153D01*
X65917600Y-71132665D01*
X65882696Y-71175196D01*
X65840165Y-71210100D01*
X65791653Y-71236030D01*
X65738997Y-71252003D01*
X65678110Y-71258000D01*
X64877890Y-71258000D01*
X64817003Y-71252003D01*
X64764347Y-71236030D01*
X64715835Y-71210100D01*
X64673304Y-71175196D01*
X64638400Y-71132665D01*
X64612470Y-71084153D01*
X64596497Y-71031497D01*
X64590500Y-70970610D01*
X64590500Y-69745390D01*
X64596497Y-69684503D01*
X64612470Y-69631847D01*
X64638400Y-69583335D01*
X64673304Y-69540804D01*
X64715835Y-69505900D01*
X64764347Y-69479970D01*
X64817003Y-69463997D01*
X64877890Y-69458000D01*
X65678110Y-69458000D01*
X65738997Y-69463997D01*
X65738997Y-69463997D01*
G37*
G36*
X63863997Y-69463997D02*
X63916653Y-69479970D01*
X63965165Y-69505900D01*
X64007696Y-69540804D01*
X64042600Y-69583335D01*
X64068530Y-69631847D01*
X64084503Y-69684503D01*
X64090500Y-69745390D01*
X64090500Y-70970610D01*
X64084503Y-71031497D01*
X64068530Y-71084153D01*
X64042600Y-71132665D01*
X64007696Y-71175196D01*
X63965165Y-71210100D01*
X63916653Y-71236030D01*
X63863997Y-71252003D01*
X63803110Y-71258000D01*
X63002890Y-71258000D01*
X62942003Y-71252003D01*
X62889347Y-71236030D01*
X62840835Y-71210100D01*
X62798304Y-71175196D01*
X62763400Y-71132665D01*
X62737470Y-71084153D01*
X62721497Y-71031497D01*
X62715500Y-70970610D01*
X62715500Y-69745390D01*
X62721497Y-69684503D01*
X62737470Y-69631847D01*
X62763400Y-69583335D01*
X62798304Y-69540804D01*
X62840835Y-69505900D01*
X62889347Y-69479970D01*
X62942003Y-69463997D01*
X63002890Y-69458000D01*
X63803110Y-69458000D01*
X63863997Y-69463997D01*
X63863997Y-69463997D01*
G37*
G36*
X67770997Y-69463997D02*
X67823653Y-69479970D01*
X67872165Y-69505900D01*
X67914696Y-69540804D01*
X67949600Y-69583335D01*
X67975530Y-69631847D01*
X67991503Y-69684503D01*
X67997500Y-69745390D01*
X67997500Y-70970610D01*
X67991503Y-71031497D01*
X67975530Y-71084153D01*
X67949600Y-71132665D01*
X67914696Y-71175196D01*
X67872165Y-71210100D01*
X67823653Y-71236030D01*
X67770997Y-71252003D01*
X67710110Y-71258000D01*
X66909890Y-71258000D01*
X66849003Y-71252003D01*
X66796347Y-71236030D01*
X66747835Y-71210100D01*
X66705304Y-71175196D01*
X66670400Y-71132665D01*
X66644470Y-71084153D01*
X66628497Y-71031497D01*
X66622500Y-70970610D01*
X66622500Y-69745390D01*
X66628497Y-69684503D01*
X66644470Y-69631847D01*
X66670400Y-69583335D01*
X66705304Y-69540804D01*
X66747835Y-69505900D01*
X66796347Y-69479970D01*
X66849003Y-69463997D01*
X66909890Y-69458000D01*
X67710110Y-69458000D01*
X67770997Y-69463997D01*
X67770997Y-69463997D01*
G37*
G36*
X61771997Y-69463997D02*
X61824653Y-69479970D01*
X61873165Y-69505900D01*
X61915696Y-69540804D01*
X61950600Y-69583335D01*
X61976530Y-69631847D01*
X61992503Y-69684503D01*
X61998500Y-69745390D01*
X61998500Y-70970610D01*
X61992503Y-71031497D01*
X61976530Y-71084153D01*
X61950600Y-71132665D01*
X61915696Y-71175196D01*
X61873165Y-71210100D01*
X61824653Y-71236030D01*
X61771997Y-71252003D01*
X61711110Y-71258000D01*
X60910890Y-71258000D01*
X60850003Y-71252003D01*
X60797347Y-71236030D01*
X60748835Y-71210100D01*
X60706304Y-71175196D01*
X60671400Y-71132665D01*
X60645470Y-71084153D01*
X60629497Y-71031497D01*
X60623500Y-70970610D01*
X60623500Y-69745390D01*
X60629497Y-69684503D01*
X60645470Y-69631847D01*
X60671400Y-69583335D01*
X60706304Y-69540804D01*
X60748835Y-69505900D01*
X60797347Y-69479970D01*
X60850003Y-69463997D01*
X60910890Y-69458000D01*
X61711110Y-69458000D01*
X61771997Y-69463997D01*
X61771997Y-69463997D01*
G37*
G36*
X59896997Y-69463997D02*
X59949653Y-69479970D01*
X59998165Y-69505900D01*
X60040696Y-69540804D01*
X60075600Y-69583335D01*
X60101530Y-69631847D01*
X60117503Y-69684503D01*
X60123500Y-69745390D01*
X60123500Y-70970610D01*
X60117503Y-71031497D01*
X60101530Y-71084153D01*
X60075600Y-71132665D01*
X60040696Y-71175196D01*
X59998165Y-71210100D01*
X59949653Y-71236030D01*
X59896997Y-71252003D01*
X59836110Y-71258000D01*
X59035890Y-71258000D01*
X58975003Y-71252003D01*
X58922347Y-71236030D01*
X58873835Y-71210100D01*
X58831304Y-71175196D01*
X58796400Y-71132665D01*
X58770470Y-71084153D01*
X58754497Y-71031497D01*
X58748500Y-70970610D01*
X58748500Y-69745390D01*
X58754497Y-69684503D01*
X58770470Y-69631847D01*
X58796400Y-69583335D01*
X58831304Y-69540804D01*
X58873835Y-69505900D01*
X58922347Y-69479970D01*
X58975003Y-69463997D01*
X59035890Y-69458000D01*
X59836110Y-69458000D01*
X59896997Y-69463997D01*
X59896997Y-69463997D01*
G37*
G36*
X55418497Y-69463997D02*
X55471153Y-69479970D01*
X55519665Y-69505900D01*
X55562196Y-69540804D01*
X55597100Y-69583335D01*
X55623030Y-69631847D01*
X55639003Y-69684503D01*
X55645000Y-69745390D01*
X55645000Y-70970610D01*
X55639003Y-71031497D01*
X55623030Y-71084153D01*
X55597100Y-71132665D01*
X55562196Y-71175196D01*
X55519665Y-71210100D01*
X55471153Y-71236030D01*
X55418497Y-71252003D01*
X55357610Y-71258000D01*
X54557390Y-71258000D01*
X54496503Y-71252003D01*
X54443847Y-71236030D01*
X54395335Y-71210100D01*
X54352804Y-71175196D01*
X54317900Y-71132665D01*
X54291970Y-71084153D01*
X54275997Y-71031497D01*
X54270000Y-70970610D01*
X54270000Y-69745390D01*
X54275997Y-69684503D01*
X54291970Y-69631847D01*
X54317900Y-69583335D01*
X54352804Y-69540804D01*
X54395335Y-69505900D01*
X54443847Y-69479970D01*
X54496503Y-69463997D01*
X54557390Y-69458000D01*
X55357610Y-69458000D01*
X55418497Y-69463997D01*
X55418497Y-69463997D01*
G37*
G36*
X57293497Y-69463997D02*
X57346153Y-69479970D01*
X57394665Y-69505900D01*
X57437196Y-69540804D01*
X57472100Y-69583335D01*
X57498030Y-69631847D01*
X57514003Y-69684503D01*
X57520000Y-69745390D01*
X57520000Y-70970610D01*
X57514003Y-71031497D01*
X57498030Y-71084153D01*
X57472100Y-71132665D01*
X57437196Y-71175196D01*
X57394665Y-71210100D01*
X57346153Y-71236030D01*
X57293497Y-71252003D01*
X57232610Y-71258000D01*
X56432390Y-71258000D01*
X56371503Y-71252003D01*
X56318847Y-71236030D01*
X56270335Y-71210100D01*
X56227804Y-71175196D01*
X56192900Y-71132665D01*
X56166970Y-71084153D01*
X56150997Y-71031497D01*
X56145000Y-70970610D01*
X56145000Y-69745390D01*
X56150997Y-69684503D01*
X56166970Y-69631847D01*
X56192900Y-69583335D01*
X56227804Y-69540804D01*
X56270335Y-69505900D01*
X56318847Y-69479970D01*
X56371503Y-69463997D01*
X56432390Y-69458000D01*
X57232610Y-69458000D01*
X57293497Y-69463997D01*
X57293497Y-69463997D01*
G37*
G36*
X69645997Y-69463997D02*
X69698653Y-69479970D01*
X69747165Y-69505900D01*
X69789696Y-69540804D01*
X69824600Y-69583335D01*
X69850530Y-69631847D01*
X69866503Y-69684503D01*
X69872500Y-69745390D01*
X69872500Y-70970610D01*
X69866503Y-71031497D01*
X69850530Y-71084153D01*
X69824600Y-71132665D01*
X69789696Y-71175196D01*
X69747165Y-71210100D01*
X69698653Y-71236030D01*
X69645997Y-71252003D01*
X69585110Y-71258000D01*
X68784890Y-71258000D01*
X68724003Y-71252003D01*
X68671347Y-71236030D01*
X68622835Y-71210100D01*
X68580304Y-71175196D01*
X68545400Y-71132665D01*
X68519470Y-71084153D01*
X68503497Y-71031497D01*
X68497500Y-70970610D01*
X68497500Y-69745390D01*
X68503497Y-69684503D01*
X68519470Y-69631847D01*
X68545400Y-69583335D01*
X68580304Y-69540804D01*
X68622835Y-69505900D01*
X68671347Y-69479970D01*
X68724003Y-69463997D01*
X68784890Y-69458000D01*
X69585110Y-69458000D01*
X69645997Y-69463997D01*
X69645997Y-69463997D01*
G37*
G36*
X117128707Y-68537596D02*
X117205836Y-68545193D01*
X117337787Y-68585220D01*
X117403763Y-68605233D01*
X117586172Y-68702733D01*
X117746054Y-68833946D01*
X117877267Y-68993828D01*
X117974767Y-69176237D01*
X117974767Y-69176238D01*
X118034807Y-69374164D01*
X118055080Y-69580000D01*
X118034807Y-69785836D01*
X117997747Y-69908006D01*
X117974767Y-69983763D01*
X117877267Y-70166172D01*
X117746054Y-70326054D01*
X117586172Y-70457267D01*
X117403763Y-70554767D01*
X117337787Y-70574780D01*
X117205836Y-70614807D01*
X117128707Y-70622404D01*
X117051580Y-70630000D01*
X116948420Y-70630000D01*
X116871293Y-70622404D01*
X116794164Y-70614807D01*
X116662213Y-70574780D01*
X116596237Y-70554767D01*
X116413828Y-70457267D01*
X116253946Y-70326054D01*
X116122733Y-70166172D01*
X116025233Y-69983763D01*
X116002253Y-69908006D01*
X115965193Y-69785836D01*
X115944920Y-69580000D01*
X115965193Y-69374164D01*
X116025233Y-69176238D01*
X116025233Y-69176237D01*
X116122733Y-68993828D01*
X116253946Y-68833946D01*
X116413828Y-68702733D01*
X116596237Y-68605233D01*
X116662213Y-68585220D01*
X116794164Y-68545193D01*
X116871293Y-68537596D01*
X116948420Y-68530000D01*
X117051580Y-68530000D01*
X117128707Y-68537596D01*
X117128707Y-68537596D01*
G37*
G36*
X78512000Y-70278000D02*
X77312000Y-70278000D01*
X77312000Y-68978000D01*
X78512000Y-68978000D01*
X78512000Y-70278000D01*
X78512000Y-70278000D01*
G37*
G36*
X76612000Y-70278000D02*
X75412000Y-70278000D01*
X75412000Y-68978000D01*
X76612000Y-68978000D01*
X76612000Y-70278000D01*
X76612000Y-70278000D01*
G37*
G36*
X77562000Y-68722000D02*
X76362000Y-68722000D01*
X76362000Y-67422000D01*
X77562000Y-67422000D01*
X77562000Y-68722000D01*
X77562000Y-68722000D01*
G37*
G36*
X52336451Y-66417127D02*
X52474105Y-66444508D01*
X52646994Y-66516121D01*
X52802590Y-66620087D01*
X52934913Y-66752410D01*
X53038879Y-66908006D01*
X53110492Y-67080895D01*
X53137873Y-67218549D01*
X53143301Y-67245834D01*
X53147000Y-67264433D01*
X53147000Y-67451567D01*
X53110492Y-67635105D01*
X53038879Y-67807994D01*
X52934913Y-67963590D01*
X52802590Y-68095913D01*
X52646994Y-68199879D01*
X52474105Y-68271492D01*
X52336452Y-68298873D01*
X52290568Y-68308000D01*
X52103432Y-68308000D01*
X52057548Y-68298873D01*
X51919895Y-68271492D01*
X51747006Y-68199879D01*
X51591410Y-68095913D01*
X51459087Y-67963590D01*
X51355121Y-67807994D01*
X51283508Y-67635105D01*
X51247000Y-67451567D01*
X51247000Y-67264433D01*
X51250700Y-67245834D01*
X51256127Y-67218549D01*
X51283508Y-67080895D01*
X51355121Y-66908006D01*
X51459087Y-66752410D01*
X51591410Y-66620087D01*
X51747006Y-66516121D01*
X51919895Y-66444508D01*
X52057549Y-66417127D01*
X52103432Y-66408000D01*
X52290568Y-66408000D01*
X52336451Y-66417127D01*
X52336451Y-66417127D01*
G37*
G36*
X117128707Y-65997596D02*
X117205836Y-66005193D01*
X117337787Y-66045220D01*
X117403763Y-66065233D01*
X117586172Y-66162733D01*
X117746054Y-66293946D01*
X117877267Y-66453828D01*
X117974767Y-66636237D01*
X117982980Y-66663312D01*
X118034807Y-66834164D01*
X118055080Y-67040000D01*
X118034807Y-67245836D01*
X117994780Y-67377787D01*
X117974767Y-67443763D01*
X117877267Y-67626172D01*
X117746054Y-67786054D01*
X117586172Y-67917267D01*
X117403763Y-68014767D01*
X117337787Y-68034780D01*
X117205836Y-68074807D01*
X117128707Y-68082404D01*
X117051580Y-68090000D01*
X116948420Y-68090000D01*
X116871293Y-68082404D01*
X116794164Y-68074807D01*
X116662213Y-68034780D01*
X116596237Y-68014767D01*
X116413828Y-67917267D01*
X116253946Y-67786054D01*
X116122733Y-67626172D01*
X116025233Y-67443763D01*
X116005220Y-67377787D01*
X115965193Y-67245836D01*
X115944920Y-67040000D01*
X115965193Y-66834164D01*
X116017020Y-66663312D01*
X116025233Y-66636237D01*
X116122733Y-66453828D01*
X116253946Y-66293946D01*
X116413828Y-66162733D01*
X116596237Y-66065233D01*
X116662213Y-66045220D01*
X116794164Y-66005193D01*
X116871293Y-65997596D01*
X116948420Y-65990000D01*
X117051580Y-65990000D01*
X117128707Y-65997596D01*
X117128707Y-65997596D01*
G37*
G36*
X67770997Y-66161997D02*
X67823653Y-66177970D01*
X67872165Y-66203900D01*
X67914696Y-66238804D01*
X67949600Y-66281335D01*
X67975530Y-66329847D01*
X67991503Y-66382503D01*
X67997500Y-66443390D01*
X67997500Y-67668610D01*
X67991503Y-67729497D01*
X67975530Y-67782153D01*
X67949600Y-67830665D01*
X67914696Y-67873196D01*
X67872165Y-67908100D01*
X67823653Y-67934030D01*
X67770997Y-67950003D01*
X67710110Y-67956000D01*
X66909890Y-67956000D01*
X66849003Y-67950003D01*
X66796347Y-67934030D01*
X66747835Y-67908100D01*
X66705304Y-67873196D01*
X66670400Y-67830665D01*
X66644470Y-67782153D01*
X66628497Y-67729497D01*
X66622500Y-67668610D01*
X66622500Y-66443390D01*
X66628497Y-66382503D01*
X66644470Y-66329847D01*
X66670400Y-66281335D01*
X66705304Y-66238804D01*
X66747835Y-66203900D01*
X66796347Y-66177970D01*
X66849003Y-66161997D01*
X66909890Y-66156000D01*
X67710110Y-66156000D01*
X67770997Y-66161997D01*
X67770997Y-66161997D01*
G37*
G36*
X57293497Y-66161997D02*
X57346153Y-66177970D01*
X57394665Y-66203900D01*
X57437196Y-66238804D01*
X57472100Y-66281335D01*
X57498030Y-66329847D01*
X57514003Y-66382503D01*
X57520000Y-66443390D01*
X57520000Y-67668610D01*
X57514003Y-67729497D01*
X57498030Y-67782153D01*
X57472100Y-67830665D01*
X57437196Y-67873196D01*
X57394665Y-67908100D01*
X57346153Y-67934030D01*
X57293497Y-67950003D01*
X57232610Y-67956000D01*
X56432390Y-67956000D01*
X56371503Y-67950003D01*
X56318847Y-67934030D01*
X56270335Y-67908100D01*
X56227804Y-67873196D01*
X56192900Y-67830665D01*
X56166970Y-67782153D01*
X56150997Y-67729497D01*
X56145000Y-67668610D01*
X56145000Y-66443390D01*
X56150997Y-66382503D01*
X56166970Y-66329847D01*
X56192900Y-66281335D01*
X56227804Y-66238804D01*
X56270335Y-66203900D01*
X56318847Y-66177970D01*
X56371503Y-66161997D01*
X56432390Y-66156000D01*
X57232610Y-66156000D01*
X57293497Y-66161997D01*
X57293497Y-66161997D01*
G37*
G36*
X61771997Y-66161997D02*
X61824653Y-66177970D01*
X61873165Y-66203900D01*
X61915696Y-66238804D01*
X61950600Y-66281335D01*
X61976530Y-66329847D01*
X61992503Y-66382503D01*
X61998500Y-66443390D01*
X61998500Y-67668610D01*
X61992503Y-67729497D01*
X61976530Y-67782153D01*
X61950600Y-67830665D01*
X61915696Y-67873196D01*
X61873165Y-67908100D01*
X61824653Y-67934030D01*
X61771997Y-67950003D01*
X61711110Y-67956000D01*
X60910890Y-67956000D01*
X60850003Y-67950003D01*
X60797347Y-67934030D01*
X60748835Y-67908100D01*
X60706304Y-67873196D01*
X60671400Y-67830665D01*
X60645470Y-67782153D01*
X60629497Y-67729497D01*
X60623500Y-67668610D01*
X60623500Y-66443390D01*
X60629497Y-66382503D01*
X60645470Y-66329847D01*
X60671400Y-66281335D01*
X60706304Y-66238804D01*
X60748835Y-66203900D01*
X60797347Y-66177970D01*
X60850003Y-66161997D01*
X60910890Y-66156000D01*
X61711110Y-66156000D01*
X61771997Y-66161997D01*
X61771997Y-66161997D01*
G37*
G36*
X65738997Y-66161997D02*
X65791653Y-66177970D01*
X65840165Y-66203900D01*
X65882696Y-66238804D01*
X65917600Y-66281335D01*
X65943530Y-66329847D01*
X65959503Y-66382503D01*
X65965500Y-66443390D01*
X65965500Y-67668610D01*
X65959503Y-67729497D01*
X65943530Y-67782153D01*
X65917600Y-67830665D01*
X65882696Y-67873196D01*
X65840165Y-67908100D01*
X65791653Y-67934030D01*
X65738997Y-67950003D01*
X65678110Y-67956000D01*
X64877890Y-67956000D01*
X64817003Y-67950003D01*
X64764347Y-67934030D01*
X64715835Y-67908100D01*
X64673304Y-67873196D01*
X64638400Y-67830665D01*
X64612470Y-67782153D01*
X64596497Y-67729497D01*
X64590500Y-67668610D01*
X64590500Y-66443390D01*
X64596497Y-66382503D01*
X64612470Y-66329847D01*
X64638400Y-66281335D01*
X64673304Y-66238804D01*
X64715835Y-66203900D01*
X64764347Y-66177970D01*
X64817003Y-66161997D01*
X64877890Y-66156000D01*
X65678110Y-66156000D01*
X65738997Y-66161997D01*
X65738997Y-66161997D01*
G37*
G36*
X63863997Y-66161997D02*
X63916653Y-66177970D01*
X63965165Y-66203900D01*
X64007696Y-66238804D01*
X64042600Y-66281335D01*
X64068530Y-66329847D01*
X64084503Y-66382503D01*
X64090500Y-66443390D01*
X64090500Y-67668610D01*
X64084503Y-67729497D01*
X64068530Y-67782153D01*
X64042600Y-67830665D01*
X64007696Y-67873196D01*
X63965165Y-67908100D01*
X63916653Y-67934030D01*
X63863997Y-67950003D01*
X63803110Y-67956000D01*
X63002890Y-67956000D01*
X62942003Y-67950003D01*
X62889347Y-67934030D01*
X62840835Y-67908100D01*
X62798304Y-67873196D01*
X62763400Y-67830665D01*
X62737470Y-67782153D01*
X62721497Y-67729497D01*
X62715500Y-67668610D01*
X62715500Y-66443390D01*
X62721497Y-66382503D01*
X62737470Y-66329847D01*
X62763400Y-66281335D01*
X62798304Y-66238804D01*
X62840835Y-66203900D01*
X62889347Y-66177970D01*
X62942003Y-66161997D01*
X63002890Y-66156000D01*
X63803110Y-66156000D01*
X63863997Y-66161997D01*
X63863997Y-66161997D01*
G37*
G36*
X59896997Y-66161997D02*
X59949653Y-66177970D01*
X59998165Y-66203900D01*
X60040696Y-66238804D01*
X60075600Y-66281335D01*
X60101530Y-66329847D01*
X60117503Y-66382503D01*
X60123500Y-66443390D01*
X60123500Y-67668610D01*
X60117503Y-67729497D01*
X60101530Y-67782153D01*
X60075600Y-67830665D01*
X60040696Y-67873196D01*
X59998165Y-67908100D01*
X59949653Y-67934030D01*
X59896997Y-67950003D01*
X59836110Y-67956000D01*
X59035890Y-67956000D01*
X58975003Y-67950003D01*
X58922347Y-67934030D01*
X58873835Y-67908100D01*
X58831304Y-67873196D01*
X58796400Y-67830665D01*
X58770470Y-67782153D01*
X58754497Y-67729497D01*
X58748500Y-67668610D01*
X58748500Y-66443390D01*
X58754497Y-66382503D01*
X58770470Y-66329847D01*
X58796400Y-66281335D01*
X58831304Y-66238804D01*
X58873835Y-66203900D01*
X58922347Y-66177970D01*
X58975003Y-66161997D01*
X59035890Y-66156000D01*
X59836110Y-66156000D01*
X59896997Y-66161997D01*
X59896997Y-66161997D01*
G37*
G36*
X69645997Y-66161997D02*
X69698653Y-66177970D01*
X69747165Y-66203900D01*
X69789696Y-66238804D01*
X69824600Y-66281335D01*
X69850530Y-66329847D01*
X69866503Y-66382503D01*
X69872500Y-66443390D01*
X69872500Y-67668610D01*
X69866503Y-67729497D01*
X69850530Y-67782153D01*
X69824600Y-67830665D01*
X69789696Y-67873196D01*
X69747165Y-67908100D01*
X69698653Y-67934030D01*
X69645997Y-67950003D01*
X69585110Y-67956000D01*
X68784890Y-67956000D01*
X68724003Y-67950003D01*
X68671347Y-67934030D01*
X68622835Y-67908100D01*
X68580304Y-67873196D01*
X68545400Y-67830665D01*
X68519470Y-67782153D01*
X68503497Y-67729497D01*
X68497500Y-67668610D01*
X68497500Y-66443390D01*
X68503497Y-66382503D01*
X68519470Y-66329847D01*
X68545400Y-66281335D01*
X68580304Y-66238804D01*
X68622835Y-66203900D01*
X68671347Y-66177970D01*
X68724003Y-66161997D01*
X68784890Y-66156000D01*
X69585110Y-66156000D01*
X69645997Y-66161997D01*
X69645997Y-66161997D01*
G37*
G36*
X55418497Y-66161997D02*
X55471153Y-66177970D01*
X55519665Y-66203900D01*
X55562196Y-66238804D01*
X55597100Y-66281335D01*
X55623030Y-66329847D01*
X55639003Y-66382503D01*
X55645000Y-66443390D01*
X55645000Y-67668610D01*
X55639003Y-67729497D01*
X55623030Y-67782153D01*
X55597100Y-67830665D01*
X55562196Y-67873196D01*
X55519665Y-67908100D01*
X55471153Y-67934030D01*
X55418497Y-67950003D01*
X55357610Y-67956000D01*
X54557390Y-67956000D01*
X54496503Y-67950003D01*
X54443847Y-67934030D01*
X54395335Y-67908100D01*
X54352804Y-67873196D01*
X54317900Y-67830665D01*
X54291970Y-67782153D01*
X54275997Y-67729497D01*
X54270000Y-67668610D01*
X54270000Y-66443390D01*
X54275997Y-66382503D01*
X54291970Y-66329847D01*
X54317900Y-66281335D01*
X54352804Y-66238804D01*
X54395335Y-66203900D01*
X54443847Y-66177970D01*
X54496503Y-66161997D01*
X54557390Y-66156000D01*
X55357610Y-66156000D01*
X55418497Y-66161997D01*
X55418497Y-66161997D01*
G37*
G36*
X90727997Y-66161997D02*
X90780653Y-66177970D01*
X90829165Y-66203900D01*
X90871696Y-66238804D01*
X90906600Y-66281335D01*
X90932530Y-66329847D01*
X90948503Y-66382503D01*
X90954500Y-66443390D01*
X90954500Y-67668610D01*
X90948503Y-67729497D01*
X90932530Y-67782153D01*
X90906600Y-67830665D01*
X90871696Y-67873196D01*
X90829165Y-67908100D01*
X90780653Y-67934030D01*
X90727997Y-67950003D01*
X90667110Y-67956000D01*
X89866890Y-67956000D01*
X89806003Y-67950003D01*
X89753347Y-67934030D01*
X89704835Y-67908100D01*
X89662304Y-67873196D01*
X89627400Y-67830665D01*
X89601470Y-67782153D01*
X89585497Y-67729497D01*
X89579500Y-67668610D01*
X89579500Y-66443390D01*
X89585497Y-66382503D01*
X89601470Y-66329847D01*
X89627400Y-66281335D01*
X89662304Y-66238804D01*
X89704835Y-66203900D01*
X89753347Y-66177970D01*
X89806003Y-66161997D01*
X89866890Y-66156000D01*
X90667110Y-66156000D01*
X90727997Y-66161997D01*
X90727997Y-66161997D01*
G37*
G36*
X88852997Y-66161997D02*
X88905653Y-66177970D01*
X88954165Y-66203900D01*
X88996696Y-66238804D01*
X89031600Y-66281335D01*
X89057530Y-66329847D01*
X89073503Y-66382503D01*
X89079500Y-66443390D01*
X89079500Y-67668610D01*
X89073503Y-67729497D01*
X89057530Y-67782153D01*
X89031600Y-67830665D01*
X88996696Y-67873196D01*
X88954165Y-67908100D01*
X88905653Y-67934030D01*
X88852997Y-67950003D01*
X88792110Y-67956000D01*
X87991890Y-67956000D01*
X87931003Y-67950003D01*
X87878347Y-67934030D01*
X87829835Y-67908100D01*
X87787304Y-67873196D01*
X87752400Y-67830665D01*
X87726470Y-67782153D01*
X87710497Y-67729497D01*
X87704500Y-67668610D01*
X87704500Y-66443390D01*
X87710497Y-66382503D01*
X87726470Y-66329847D01*
X87752400Y-66281335D01*
X87787304Y-66238804D01*
X87829835Y-66203900D01*
X87878347Y-66177970D01*
X87931003Y-66161997D01*
X87991890Y-66156000D01*
X88792110Y-66156000D01*
X88852997Y-66161997D01*
X88852997Y-66161997D01*
G37*
G36*
X113236997Y-65145997D02*
X113289653Y-65161970D01*
X113338165Y-65187900D01*
X113380696Y-65222804D01*
X113415600Y-65265335D01*
X113441530Y-65313847D01*
X113457503Y-65366503D01*
X113463500Y-65427390D01*
X113463500Y-66652610D01*
X113457503Y-66713497D01*
X113441530Y-66766153D01*
X113415600Y-66814665D01*
X113380696Y-66857196D01*
X113338165Y-66892100D01*
X113289653Y-66918030D01*
X113236997Y-66934003D01*
X113176110Y-66940000D01*
X112375890Y-66940000D01*
X112315003Y-66934003D01*
X112262347Y-66918030D01*
X112213835Y-66892100D01*
X112171304Y-66857196D01*
X112136400Y-66814665D01*
X112110470Y-66766153D01*
X112094497Y-66713497D01*
X112088500Y-66652610D01*
X112088500Y-65427390D01*
X112094497Y-65366503D01*
X112110470Y-65313847D01*
X112136400Y-65265335D01*
X112171304Y-65222804D01*
X112213835Y-65187900D01*
X112262347Y-65161970D01*
X112315003Y-65145997D01*
X112375890Y-65140000D01*
X113176110Y-65140000D01*
X113236997Y-65145997D01*
X113236997Y-65145997D01*
G37*
G36*
X111361997Y-65145997D02*
X111414653Y-65161970D01*
X111463165Y-65187900D01*
X111505696Y-65222804D01*
X111540600Y-65265335D01*
X111566530Y-65313847D01*
X111582503Y-65366503D01*
X111588500Y-65427390D01*
X111588500Y-66652610D01*
X111582503Y-66713497D01*
X111566530Y-66766153D01*
X111540600Y-66814665D01*
X111505696Y-66857196D01*
X111463165Y-66892100D01*
X111414653Y-66918030D01*
X111361997Y-66934003D01*
X111301110Y-66940000D01*
X110500890Y-66940000D01*
X110440003Y-66934003D01*
X110387347Y-66918030D01*
X110338835Y-66892100D01*
X110296304Y-66857196D01*
X110261400Y-66814665D01*
X110235470Y-66766153D01*
X110219497Y-66713497D01*
X110213500Y-66652610D01*
X110213500Y-65427390D01*
X110219497Y-65366503D01*
X110235470Y-65313847D01*
X110261400Y-65265335D01*
X110296304Y-65222804D01*
X110338835Y-65187900D01*
X110387347Y-65161970D01*
X110440003Y-65145997D01*
X110500890Y-65140000D01*
X111301110Y-65140000D01*
X111361997Y-65145997D01*
X111361997Y-65145997D01*
G37*
G36*
X78512000Y-66722000D02*
X77312000Y-66722000D01*
X77312000Y-65422000D01*
X78512000Y-65422000D01*
X78512000Y-66722000D01*
X78512000Y-66722000D01*
G37*
G36*
X76612000Y-66722000D02*
X75412000Y-66722000D01*
X75412000Y-65422000D01*
X76612000Y-65422000D01*
X76612000Y-66722000D01*
X76612000Y-66722000D01*
G37*
G36*
X104274000Y-66242000D02*
X101874000Y-66242000D01*
X101874000Y-64342000D01*
X104274000Y-64342000D01*
X104274000Y-66242000D01*
X104274000Y-66242000D01*
G37*
G36*
X117128707Y-63457596D02*
X117205836Y-63465193D01*
X117337787Y-63505220D01*
X117403763Y-63525233D01*
X117586172Y-63622733D01*
X117746054Y-63753946D01*
X117877267Y-63913828D01*
X117974767Y-64096237D01*
X117974767Y-64096238D01*
X118034807Y-64294164D01*
X118055080Y-64500000D01*
X118034807Y-64705836D01*
X118018360Y-64760055D01*
X117974767Y-64903763D01*
X117877267Y-65086172D01*
X117746054Y-65246054D01*
X117586172Y-65377267D01*
X117403763Y-65474767D01*
X117374149Y-65483750D01*
X117205836Y-65534807D01*
X117128707Y-65542404D01*
X117051580Y-65550000D01*
X116948420Y-65550000D01*
X116871293Y-65542404D01*
X116794164Y-65534807D01*
X116625851Y-65483750D01*
X116596237Y-65474767D01*
X116413828Y-65377267D01*
X116253946Y-65246054D01*
X116122733Y-65086172D01*
X116025233Y-64903763D01*
X115981640Y-64760055D01*
X115965193Y-64705836D01*
X115944920Y-64500000D01*
X115965193Y-64294164D01*
X116025233Y-64096238D01*
X116025233Y-64096237D01*
X116122733Y-63913828D01*
X116253946Y-63753946D01*
X116413828Y-63622733D01*
X116596237Y-63525233D01*
X116662213Y-63505220D01*
X116794164Y-63465193D01*
X116871293Y-63457596D01*
X116948420Y-63450000D01*
X117051580Y-63450000D01*
X117128707Y-63457596D01*
X117128707Y-63457596D01*
G37*
G36*
X48447793Y-61641937D02*
X48802670Y-61788932D01*
X49122055Y-62002338D01*
X49393662Y-62273945D01*
X49607068Y-62593330D01*
X49754063Y-62948207D01*
X49829000Y-63324940D01*
X49829000Y-63709060D01*
X49754063Y-64085793D01*
X49607068Y-64440670D01*
X49393662Y-64760055D01*
X49122055Y-65031662D01*
X48802670Y-65245068D01*
X48447793Y-65392063D01*
X48071060Y-65467000D01*
X47686940Y-65467000D01*
X47310207Y-65392063D01*
X46955330Y-65245068D01*
X46635945Y-65031662D01*
X46364338Y-64760055D01*
X46150932Y-64440670D01*
X46003937Y-64085793D01*
X45929000Y-63709060D01*
X45929000Y-63324940D01*
X46003937Y-62948207D01*
X46150932Y-62593330D01*
X46364338Y-62273945D01*
X46635945Y-62002338D01*
X46955330Y-61788932D01*
X47310207Y-61641937D01*
X47686940Y-61567000D01*
X48071060Y-61567000D01*
X48447793Y-61641937D01*
X48447793Y-61641937D01*
G37*
G36*
X52336451Y-63417127D02*
X52474105Y-63444508D01*
X52646994Y-63516121D01*
X52802590Y-63620087D01*
X52934913Y-63752410D01*
X53038879Y-63908006D01*
X53110492Y-64080895D01*
X53147000Y-64264433D01*
X53147000Y-64451567D01*
X53110492Y-64635105D01*
X53038879Y-64807994D01*
X52934913Y-64963590D01*
X52802590Y-65095913D01*
X52646994Y-65199879D01*
X52474105Y-65271492D01*
X52367118Y-65292773D01*
X52290568Y-65308000D01*
X52103432Y-65308000D01*
X52026882Y-65292773D01*
X51919895Y-65271492D01*
X51747006Y-65199879D01*
X51591410Y-65095913D01*
X51459087Y-64963590D01*
X51355121Y-64807994D01*
X51283508Y-64635105D01*
X51247000Y-64451567D01*
X51247000Y-64264433D01*
X51283508Y-64080895D01*
X51355121Y-63908006D01*
X51459087Y-63752410D01*
X51591410Y-63620087D01*
X51747006Y-63516121D01*
X51919895Y-63444508D01*
X52057549Y-63417127D01*
X52103432Y-63408000D01*
X52290568Y-63408000D01*
X52336451Y-63417127D01*
X52336451Y-63417127D01*
G37*
G36*
X77562000Y-65166000D02*
X76362000Y-65166000D01*
X76362000Y-63866000D01*
X77562000Y-63866000D01*
X77562000Y-65166000D01*
X77562000Y-65166000D01*
G37*
G36*
X97974000Y-65092000D02*
X95574000Y-65092000D01*
X95574000Y-60892000D01*
X97974000Y-60892000D01*
X97974000Y-65092000D01*
X97974000Y-65092000D01*
G37*
G36*
X69645997Y-62859997D02*
X69698653Y-62875970D01*
X69747165Y-62901900D01*
X69789696Y-62936804D01*
X69824600Y-62979335D01*
X69850530Y-63027847D01*
X69866503Y-63080503D01*
X69872500Y-63141390D01*
X69872500Y-64366610D01*
X69866503Y-64427497D01*
X69850530Y-64480153D01*
X69824600Y-64528665D01*
X69789696Y-64571196D01*
X69747165Y-64606100D01*
X69698653Y-64632030D01*
X69645997Y-64648003D01*
X69585110Y-64654000D01*
X68784890Y-64654000D01*
X68724003Y-64648003D01*
X68671347Y-64632030D01*
X68622835Y-64606100D01*
X68580304Y-64571196D01*
X68545400Y-64528665D01*
X68519470Y-64480153D01*
X68503497Y-64427497D01*
X68497500Y-64366610D01*
X68497500Y-63141390D01*
X68503497Y-63080503D01*
X68519470Y-63027847D01*
X68545400Y-62979335D01*
X68580304Y-62936804D01*
X68622835Y-62901900D01*
X68671347Y-62875970D01*
X68724003Y-62859997D01*
X68784890Y-62854000D01*
X69585110Y-62854000D01*
X69645997Y-62859997D01*
X69645997Y-62859997D01*
G37*
G36*
X59896997Y-62859997D02*
X59949653Y-62875970D01*
X59998165Y-62901900D01*
X60040696Y-62936804D01*
X60075600Y-62979335D01*
X60101530Y-63027847D01*
X60117503Y-63080503D01*
X60123500Y-63141390D01*
X60123500Y-64366610D01*
X60117503Y-64427497D01*
X60101530Y-64480153D01*
X60075600Y-64528665D01*
X60040696Y-64571196D01*
X59998165Y-64606100D01*
X59949653Y-64632030D01*
X59896997Y-64648003D01*
X59836110Y-64654000D01*
X59035890Y-64654000D01*
X58975003Y-64648003D01*
X58922347Y-64632030D01*
X58873835Y-64606100D01*
X58831304Y-64571196D01*
X58796400Y-64528665D01*
X58770470Y-64480153D01*
X58754497Y-64427497D01*
X58748500Y-64366610D01*
X58748500Y-63141390D01*
X58754497Y-63080503D01*
X58770470Y-63027847D01*
X58796400Y-62979335D01*
X58831304Y-62936804D01*
X58873835Y-62901900D01*
X58922347Y-62875970D01*
X58975003Y-62859997D01*
X59035890Y-62854000D01*
X59836110Y-62854000D01*
X59896997Y-62859997D01*
X59896997Y-62859997D01*
G37*
G36*
X61771997Y-62859997D02*
X61824653Y-62875970D01*
X61873165Y-62901900D01*
X61915696Y-62936804D01*
X61950600Y-62979335D01*
X61976530Y-63027847D01*
X61992503Y-63080503D01*
X61998500Y-63141390D01*
X61998500Y-64366610D01*
X61992503Y-64427497D01*
X61976530Y-64480153D01*
X61950600Y-64528665D01*
X61915696Y-64571196D01*
X61873165Y-64606100D01*
X61824653Y-64632030D01*
X61771997Y-64648003D01*
X61711110Y-64654000D01*
X60910890Y-64654000D01*
X60850003Y-64648003D01*
X60797347Y-64632030D01*
X60748835Y-64606100D01*
X60706304Y-64571196D01*
X60671400Y-64528665D01*
X60645470Y-64480153D01*
X60629497Y-64427497D01*
X60623500Y-64366610D01*
X60623500Y-63141390D01*
X60629497Y-63080503D01*
X60645470Y-63027847D01*
X60671400Y-62979335D01*
X60706304Y-62936804D01*
X60748835Y-62901900D01*
X60797347Y-62875970D01*
X60850003Y-62859997D01*
X60910890Y-62854000D01*
X61711110Y-62854000D01*
X61771997Y-62859997D01*
X61771997Y-62859997D01*
G37*
G36*
X55418497Y-62859997D02*
X55471153Y-62875970D01*
X55519665Y-62901900D01*
X55562196Y-62936804D01*
X55597100Y-62979335D01*
X55623030Y-63027847D01*
X55639003Y-63080503D01*
X55645000Y-63141390D01*
X55645000Y-64366610D01*
X55639003Y-64427497D01*
X55623030Y-64480153D01*
X55597100Y-64528665D01*
X55562196Y-64571196D01*
X55519665Y-64606100D01*
X55471153Y-64632030D01*
X55418497Y-64648003D01*
X55357610Y-64654000D01*
X54557390Y-64654000D01*
X54496503Y-64648003D01*
X54443847Y-64632030D01*
X54395335Y-64606100D01*
X54352804Y-64571196D01*
X54317900Y-64528665D01*
X54291970Y-64480153D01*
X54275997Y-64427497D01*
X54270000Y-64366610D01*
X54270000Y-63141390D01*
X54275997Y-63080503D01*
X54291970Y-63027847D01*
X54317900Y-62979335D01*
X54352804Y-62936804D01*
X54395335Y-62901900D01*
X54443847Y-62875970D01*
X54496503Y-62859997D01*
X54557390Y-62854000D01*
X55357610Y-62854000D01*
X55418497Y-62859997D01*
X55418497Y-62859997D01*
G37*
G36*
X65738997Y-62859997D02*
X65791653Y-62875970D01*
X65840165Y-62901900D01*
X65882696Y-62936804D01*
X65917600Y-62979335D01*
X65943530Y-63027847D01*
X65959503Y-63080503D01*
X65965500Y-63141390D01*
X65965500Y-64366610D01*
X65959503Y-64427497D01*
X65943530Y-64480153D01*
X65917600Y-64528665D01*
X65882696Y-64571196D01*
X65840165Y-64606100D01*
X65791653Y-64632030D01*
X65738997Y-64648003D01*
X65678110Y-64654000D01*
X64877890Y-64654000D01*
X64817003Y-64648003D01*
X64764347Y-64632030D01*
X64715835Y-64606100D01*
X64673304Y-64571196D01*
X64638400Y-64528665D01*
X64612470Y-64480153D01*
X64596497Y-64427497D01*
X64590500Y-64366610D01*
X64590500Y-63141390D01*
X64596497Y-63080503D01*
X64612470Y-63027847D01*
X64638400Y-62979335D01*
X64673304Y-62936804D01*
X64715835Y-62901900D01*
X64764347Y-62875970D01*
X64817003Y-62859997D01*
X64877890Y-62854000D01*
X65678110Y-62854000D01*
X65738997Y-62859997D01*
X65738997Y-62859997D01*
G37*
G36*
X63863997Y-62859997D02*
X63916653Y-62875970D01*
X63965165Y-62901900D01*
X64007696Y-62936804D01*
X64042600Y-62979335D01*
X64068530Y-63027847D01*
X64084503Y-63080503D01*
X64090500Y-63141390D01*
X64090500Y-64366610D01*
X64084503Y-64427497D01*
X64068530Y-64480153D01*
X64042600Y-64528665D01*
X64007696Y-64571196D01*
X63965165Y-64606100D01*
X63916653Y-64632030D01*
X63863997Y-64648003D01*
X63803110Y-64654000D01*
X63002890Y-64654000D01*
X62942003Y-64648003D01*
X62889347Y-64632030D01*
X62840835Y-64606100D01*
X62798304Y-64571196D01*
X62763400Y-64528665D01*
X62737470Y-64480153D01*
X62721497Y-64427497D01*
X62715500Y-64366610D01*
X62715500Y-63141390D01*
X62721497Y-63080503D01*
X62737470Y-63027847D01*
X62763400Y-62979335D01*
X62798304Y-62936804D01*
X62840835Y-62901900D01*
X62889347Y-62875970D01*
X62942003Y-62859997D01*
X63002890Y-62854000D01*
X63803110Y-62854000D01*
X63863997Y-62859997D01*
X63863997Y-62859997D01*
G37*
G36*
X67770997Y-62859997D02*
X67823653Y-62875970D01*
X67872165Y-62901900D01*
X67914696Y-62936804D01*
X67949600Y-62979335D01*
X67975530Y-63027847D01*
X67991503Y-63080503D01*
X67997500Y-63141390D01*
X67997500Y-64366610D01*
X67991503Y-64427497D01*
X67975530Y-64480153D01*
X67949600Y-64528665D01*
X67914696Y-64571196D01*
X67872165Y-64606100D01*
X67823653Y-64632030D01*
X67770997Y-64648003D01*
X67710110Y-64654000D01*
X66909890Y-64654000D01*
X66849003Y-64648003D01*
X66796347Y-64632030D01*
X66747835Y-64606100D01*
X66705304Y-64571196D01*
X66670400Y-64528665D01*
X66644470Y-64480153D01*
X66628497Y-64427497D01*
X66622500Y-64366610D01*
X66622500Y-63141390D01*
X66628497Y-63080503D01*
X66644470Y-63027847D01*
X66670400Y-62979335D01*
X66705304Y-62936804D01*
X66747835Y-62901900D01*
X66796347Y-62875970D01*
X66849003Y-62859997D01*
X66909890Y-62854000D01*
X67710110Y-62854000D01*
X67770997Y-62859997D01*
X67770997Y-62859997D01*
G37*
G36*
X57293497Y-62859997D02*
X57346153Y-62875970D01*
X57394665Y-62901900D01*
X57437196Y-62936804D01*
X57472100Y-62979335D01*
X57498030Y-63027847D01*
X57514003Y-63080503D01*
X57520000Y-63141390D01*
X57520000Y-64366610D01*
X57514003Y-64427497D01*
X57498030Y-64480153D01*
X57472100Y-64528665D01*
X57437196Y-64571196D01*
X57394665Y-64606100D01*
X57346153Y-64632030D01*
X57293497Y-64648003D01*
X57232610Y-64654000D01*
X56432390Y-64654000D01*
X56371503Y-64648003D01*
X56318847Y-64632030D01*
X56270335Y-64606100D01*
X56227804Y-64571196D01*
X56192900Y-64528665D01*
X56166970Y-64480153D01*
X56150997Y-64427497D01*
X56145000Y-64366610D01*
X56145000Y-63141390D01*
X56150997Y-63080503D01*
X56166970Y-63027847D01*
X56192900Y-62979335D01*
X56227804Y-62936804D01*
X56270335Y-62901900D01*
X56318847Y-62875970D01*
X56371503Y-62859997D01*
X56432390Y-62854000D01*
X57232610Y-62854000D01*
X57293497Y-62859997D01*
X57293497Y-62859997D01*
G37*
G36*
X89065497Y-62661497D02*
X89118153Y-62677470D01*
X89166665Y-62703400D01*
X89209196Y-62738304D01*
X89244100Y-62780835D01*
X89270030Y-62829347D01*
X89286003Y-62882003D01*
X89292000Y-62942890D01*
X89292000Y-63743110D01*
X89286003Y-63803997D01*
X89270030Y-63856653D01*
X89244100Y-63905165D01*
X89209196Y-63947696D01*
X89166665Y-63982600D01*
X89118153Y-64008530D01*
X89065497Y-64024503D01*
X89004610Y-64030500D01*
X87779390Y-64030500D01*
X87718503Y-64024503D01*
X87665847Y-64008530D01*
X87617335Y-63982600D01*
X87574804Y-63947696D01*
X87539900Y-63905165D01*
X87513970Y-63856653D01*
X87497997Y-63803997D01*
X87492000Y-63743110D01*
X87492000Y-62942890D01*
X87497997Y-62882003D01*
X87513970Y-62829347D01*
X87539900Y-62780835D01*
X87574804Y-62738304D01*
X87617335Y-62703400D01*
X87665847Y-62677470D01*
X87718503Y-62661497D01*
X87779390Y-62655500D01*
X89004610Y-62655500D01*
X89065497Y-62661497D01*
X89065497Y-62661497D01*
G37*
G36*
X104274000Y-63942000D02*
X101874000Y-63942000D01*
X101874000Y-62042000D01*
X104274000Y-62042000D01*
X104274000Y-63942000D01*
X104274000Y-63942000D01*
G37*
G36*
X94694997Y-62097997D02*
X94747653Y-62113970D01*
X94796165Y-62139900D01*
X94838696Y-62174804D01*
X94873600Y-62217335D01*
X94899530Y-62265847D01*
X94915503Y-62318503D01*
X94921500Y-62379390D01*
X94921500Y-63604610D01*
X94915503Y-63665497D01*
X94899530Y-63718153D01*
X94873600Y-63766665D01*
X94838696Y-63809196D01*
X94796165Y-63844100D01*
X94747653Y-63870030D01*
X94694997Y-63886003D01*
X94634110Y-63892000D01*
X93833890Y-63892000D01*
X93773003Y-63886003D01*
X93720347Y-63870030D01*
X93671835Y-63844100D01*
X93629304Y-63809196D01*
X93594400Y-63766665D01*
X93568470Y-63718153D01*
X93552497Y-63665497D01*
X93546500Y-63604610D01*
X93546500Y-62379390D01*
X93552497Y-62318503D01*
X93568470Y-62265847D01*
X93594400Y-62217335D01*
X93629304Y-62174804D01*
X93671835Y-62139900D01*
X93720347Y-62113970D01*
X93773003Y-62097997D01*
X93833890Y-62092000D01*
X94634110Y-62092000D01*
X94694997Y-62097997D01*
X94694997Y-62097997D01*
G37*
G36*
X92819997Y-62097997D02*
X92872653Y-62113970D01*
X92921165Y-62139900D01*
X92963696Y-62174804D01*
X92998600Y-62217335D01*
X93024530Y-62265847D01*
X93040503Y-62318503D01*
X93046500Y-62379390D01*
X93046500Y-63604610D01*
X93040503Y-63665497D01*
X93024530Y-63718153D01*
X92998600Y-63766665D01*
X92963696Y-63809196D01*
X92921165Y-63844100D01*
X92872653Y-63870030D01*
X92819997Y-63886003D01*
X92759110Y-63892000D01*
X91958890Y-63892000D01*
X91898003Y-63886003D01*
X91845347Y-63870030D01*
X91796835Y-63844100D01*
X91754304Y-63809196D01*
X91719400Y-63766665D01*
X91693470Y-63718153D01*
X91677497Y-63665497D01*
X91671500Y-63604610D01*
X91671500Y-62379390D01*
X91677497Y-62318503D01*
X91693470Y-62265847D01*
X91719400Y-62217335D01*
X91754304Y-62174804D01*
X91796835Y-62139900D01*
X91845347Y-62113970D01*
X91898003Y-62097997D01*
X91958890Y-62092000D01*
X92759110Y-62092000D01*
X92819997Y-62097997D01*
X92819997Y-62097997D01*
G37*
G36*
X113449497Y-61899497D02*
X113502153Y-61915470D01*
X113550665Y-61941400D01*
X113593196Y-61976304D01*
X113628100Y-62018835D01*
X113654030Y-62067347D01*
X113670003Y-62120003D01*
X113676000Y-62180890D01*
X113676000Y-62981110D01*
X113670003Y-63041997D01*
X113654030Y-63094653D01*
X113628100Y-63143165D01*
X113593196Y-63185696D01*
X113550665Y-63220600D01*
X113502153Y-63246530D01*
X113449497Y-63262503D01*
X113388610Y-63268500D01*
X112163390Y-63268500D01*
X112102503Y-63262503D01*
X112049847Y-63246530D01*
X112001335Y-63220600D01*
X111958804Y-63185696D01*
X111923900Y-63143165D01*
X111897970Y-63094653D01*
X111881997Y-63041997D01*
X111876000Y-62981110D01*
X111876000Y-62180890D01*
X111881997Y-62120003D01*
X111897970Y-62067347D01*
X111923900Y-62018835D01*
X111958804Y-61976304D01*
X112001335Y-61941400D01*
X112049847Y-61915470D01*
X112102503Y-61899497D01*
X112163390Y-61893500D01*
X113388610Y-61893500D01*
X113449497Y-61899497D01*
X113449497Y-61899497D01*
G37*
G36*
X78512000Y-63166000D02*
X77312000Y-63166000D01*
X77312000Y-61866000D01*
X78512000Y-61866000D01*
X78512000Y-63166000D01*
X78512000Y-63166000D01*
G37*
G36*
X76612000Y-63166000D02*
X75412000Y-63166000D01*
X75412000Y-61866000D01*
X76612000Y-61866000D01*
X76612000Y-63166000D01*
X76612000Y-63166000D01*
G37*
G36*
X83778703Y-59929486D02*
X84069883Y-60050097D01*
X84331944Y-60225201D01*
X84554799Y-60448056D01*
X84729903Y-60710117D01*
X84850514Y-61001297D01*
X84912000Y-61310412D01*
X84912000Y-61625588D01*
X84850514Y-61934703D01*
X84729903Y-62225883D01*
X84554799Y-62487944D01*
X84331944Y-62710799D01*
X84069883Y-62885903D01*
X83778703Y-63006514D01*
X83469588Y-63068000D01*
X83154412Y-63068000D01*
X82845297Y-63006514D01*
X82554117Y-62885903D01*
X82292056Y-62710799D01*
X82069201Y-62487944D01*
X81894097Y-62225883D01*
X81773486Y-61934703D01*
X81712000Y-61625588D01*
X81712000Y-61310412D01*
X81773486Y-61001297D01*
X81894097Y-60710117D01*
X82069201Y-60448056D01*
X82292056Y-60225201D01*
X82554117Y-60050097D01*
X82845297Y-59929486D01*
X83154412Y-59868000D01*
X83469588Y-59868000D01*
X83778703Y-59929486D01*
X83778703Y-59929486D01*
G37*
G36*
X52331555Y-60416153D02*
X52474105Y-60444508D01*
X52646994Y-60516121D01*
X52802590Y-60620087D01*
X52934913Y-60752410D01*
X53038879Y-60908006D01*
X53110492Y-61080895D01*
X53122208Y-61139797D01*
X53139488Y-61226665D01*
X53147000Y-61264433D01*
X53147000Y-61451567D01*
X53110492Y-61635105D01*
X53038879Y-61807994D01*
X52934913Y-61963590D01*
X52802590Y-62095913D01*
X52646994Y-62199879D01*
X52474105Y-62271492D01*
X52336451Y-62298873D01*
X52290568Y-62308000D01*
X52103432Y-62308000D01*
X52057549Y-62298873D01*
X51919895Y-62271492D01*
X51747006Y-62199879D01*
X51591410Y-62095913D01*
X51459087Y-61963590D01*
X51355121Y-61807994D01*
X51283508Y-61635105D01*
X51247000Y-61451567D01*
X51247000Y-61264433D01*
X51254513Y-61226665D01*
X51271792Y-61139797D01*
X51283508Y-61080895D01*
X51355121Y-60908006D01*
X51459087Y-60752410D01*
X51591410Y-60620087D01*
X51747006Y-60516121D01*
X51919895Y-60444508D01*
X52062445Y-60416153D01*
X52103432Y-60408000D01*
X52290568Y-60408000D01*
X52331555Y-60416153D01*
X52331555Y-60416153D01*
G37*
G36*
X109178703Y-59167486D02*
X109469883Y-59288097D01*
X109731944Y-59463201D01*
X109954799Y-59686056D01*
X110129903Y-59948117D01*
X110250514Y-60239297D01*
X110312000Y-60548412D01*
X110312000Y-60863588D01*
X110250514Y-61172703D01*
X110129903Y-61463883D01*
X109954799Y-61725944D01*
X109731944Y-61948799D01*
X109469883Y-62123903D01*
X109178703Y-62244514D01*
X108869588Y-62306000D01*
X108554412Y-62306000D01*
X108245297Y-62244514D01*
X107954117Y-62123903D01*
X107692056Y-61948799D01*
X107469201Y-61725944D01*
X107294097Y-61463883D01*
X107173486Y-61172703D01*
X107112000Y-60863588D01*
X107112000Y-60548412D01*
X107173486Y-60239297D01*
X107294097Y-59948117D01*
X107469201Y-59686056D01*
X107692056Y-59463201D01*
X107954117Y-59288097D01*
X108245297Y-59167486D01*
X108554412Y-59106000D01*
X108869588Y-59106000D01*
X109178703Y-59167486D01*
X109178703Y-59167486D01*
G37*
G36*
X89065497Y-60786497D02*
X89118153Y-60802470D01*
X89166665Y-60828400D01*
X89209196Y-60863304D01*
X89244100Y-60905835D01*
X89270030Y-60954347D01*
X89286003Y-61007003D01*
X89292000Y-61067890D01*
X89292000Y-61868110D01*
X89286003Y-61928997D01*
X89270030Y-61981653D01*
X89244100Y-62030165D01*
X89209196Y-62072696D01*
X89166665Y-62107600D01*
X89118153Y-62133530D01*
X89065497Y-62149503D01*
X89004610Y-62155500D01*
X87779390Y-62155500D01*
X87718503Y-62149503D01*
X87665847Y-62133530D01*
X87617335Y-62107600D01*
X87574804Y-62072696D01*
X87539900Y-62030165D01*
X87513970Y-61981653D01*
X87497997Y-61928997D01*
X87492000Y-61868110D01*
X87492000Y-61067890D01*
X87497997Y-61007003D01*
X87513970Y-60954347D01*
X87539900Y-60905835D01*
X87574804Y-60863304D01*
X87617335Y-60828400D01*
X87665847Y-60802470D01*
X87718503Y-60786497D01*
X87779390Y-60780500D01*
X89004610Y-60780500D01*
X89065497Y-60786497D01*
X89065497Y-60786497D01*
G37*
G36*
X104274000Y-61642000D02*
X101874000Y-61642000D01*
X101874000Y-59742000D01*
X104274000Y-59742000D01*
X104274000Y-61642000D01*
X104274000Y-61642000D01*
G37*
G36*
X77562000Y-61578000D02*
X76362000Y-61578000D01*
X76362000Y-60278000D01*
X77562000Y-60278000D01*
X77562000Y-61578000D01*
X77562000Y-61578000D01*
G37*
G36*
X113449497Y-60024497D02*
X113502153Y-60040470D01*
X113550665Y-60066400D01*
X113593196Y-60101304D01*
X113628100Y-60143835D01*
X113654030Y-60192347D01*
X113670003Y-60245003D01*
X113676000Y-60305890D01*
X113676000Y-61106110D01*
X113670003Y-61166997D01*
X113654030Y-61219653D01*
X113628100Y-61268165D01*
X113593196Y-61310696D01*
X113550665Y-61345600D01*
X113502153Y-61371530D01*
X113449497Y-61387503D01*
X113388610Y-61393500D01*
X112163390Y-61393500D01*
X112102503Y-61387503D01*
X112049847Y-61371530D01*
X112001335Y-61345600D01*
X111958804Y-61310696D01*
X111923900Y-61268165D01*
X111897970Y-61219653D01*
X111881997Y-61166997D01*
X111876000Y-61106110D01*
X111876000Y-60305890D01*
X111881997Y-60245003D01*
X111897970Y-60192347D01*
X111923900Y-60143835D01*
X111958804Y-60101304D01*
X112001335Y-60066400D01*
X112049847Y-60040470D01*
X112102503Y-60024497D01*
X112163390Y-60018500D01*
X113388610Y-60018500D01*
X113449497Y-60024497D01*
X113449497Y-60024497D01*
G37*
G36*
X69645997Y-59557997D02*
X69698653Y-59573970D01*
X69747165Y-59599900D01*
X69789696Y-59634804D01*
X69824600Y-59677335D01*
X69850530Y-59725847D01*
X69866503Y-59778503D01*
X69872500Y-59839390D01*
X69872500Y-61064610D01*
X69866503Y-61125497D01*
X69850530Y-61178153D01*
X69824600Y-61226665D01*
X69789696Y-61269196D01*
X69747165Y-61304100D01*
X69698653Y-61330030D01*
X69645997Y-61346003D01*
X69585110Y-61352000D01*
X68784890Y-61352000D01*
X68724003Y-61346003D01*
X68671347Y-61330030D01*
X68622835Y-61304100D01*
X68580304Y-61269196D01*
X68545400Y-61226665D01*
X68519470Y-61178153D01*
X68503497Y-61125497D01*
X68497500Y-61064610D01*
X68497500Y-59839390D01*
X68503497Y-59778503D01*
X68519470Y-59725847D01*
X68545400Y-59677335D01*
X68580304Y-59634804D01*
X68622835Y-59599900D01*
X68671347Y-59573970D01*
X68724003Y-59557997D01*
X68784890Y-59552000D01*
X69585110Y-59552000D01*
X69645997Y-59557997D01*
X69645997Y-59557997D01*
G37*
G36*
X67770997Y-59557997D02*
X67823653Y-59573970D01*
X67872165Y-59599900D01*
X67914696Y-59634804D01*
X67949600Y-59677335D01*
X67975530Y-59725847D01*
X67991503Y-59778503D01*
X67997500Y-59839390D01*
X67997500Y-61064610D01*
X67991503Y-61125497D01*
X67975530Y-61178153D01*
X67949600Y-61226665D01*
X67914696Y-61269196D01*
X67872165Y-61304100D01*
X67823653Y-61330030D01*
X67770997Y-61346003D01*
X67710110Y-61352000D01*
X66909890Y-61352000D01*
X66849003Y-61346003D01*
X66796347Y-61330030D01*
X66747835Y-61304100D01*
X66705304Y-61269196D01*
X66670400Y-61226665D01*
X66644470Y-61178153D01*
X66628497Y-61125497D01*
X66622500Y-61064610D01*
X66622500Y-59839390D01*
X66628497Y-59778503D01*
X66644470Y-59725847D01*
X66670400Y-59677335D01*
X66705304Y-59634804D01*
X66747835Y-59599900D01*
X66796347Y-59573970D01*
X66849003Y-59557997D01*
X66909890Y-59552000D01*
X67710110Y-59552000D01*
X67770997Y-59557997D01*
X67770997Y-59557997D01*
G37*
G36*
X57293497Y-59557997D02*
X57346153Y-59573970D01*
X57394665Y-59599900D01*
X57437196Y-59634804D01*
X57472100Y-59677335D01*
X57498030Y-59725847D01*
X57514003Y-59778503D01*
X57520000Y-59839390D01*
X57520000Y-61064610D01*
X57514003Y-61125497D01*
X57498030Y-61178153D01*
X57472100Y-61226665D01*
X57437196Y-61269196D01*
X57394665Y-61304100D01*
X57346153Y-61330030D01*
X57293497Y-61346003D01*
X57232610Y-61352000D01*
X56432390Y-61352000D01*
X56371503Y-61346003D01*
X56318847Y-61330030D01*
X56270335Y-61304100D01*
X56227804Y-61269196D01*
X56192900Y-61226665D01*
X56166970Y-61178153D01*
X56150997Y-61125497D01*
X56145000Y-61064610D01*
X56145000Y-59839390D01*
X56150997Y-59778503D01*
X56166970Y-59725847D01*
X56192900Y-59677335D01*
X56227804Y-59634804D01*
X56270335Y-59599900D01*
X56318847Y-59573970D01*
X56371503Y-59557997D01*
X56432390Y-59552000D01*
X57232610Y-59552000D01*
X57293497Y-59557997D01*
X57293497Y-59557997D01*
G37*
G36*
X55418497Y-59557997D02*
X55471153Y-59573970D01*
X55519665Y-59599900D01*
X55562196Y-59634804D01*
X55597100Y-59677335D01*
X55623030Y-59725847D01*
X55639003Y-59778503D01*
X55645000Y-59839390D01*
X55645000Y-61064610D01*
X55639003Y-61125497D01*
X55623030Y-61178153D01*
X55597100Y-61226665D01*
X55562196Y-61269196D01*
X55519665Y-61304100D01*
X55471153Y-61330030D01*
X55418497Y-61346003D01*
X55357610Y-61352000D01*
X54557390Y-61352000D01*
X54496503Y-61346003D01*
X54443847Y-61330030D01*
X54395335Y-61304100D01*
X54352804Y-61269196D01*
X54317900Y-61226665D01*
X54291970Y-61178153D01*
X54275997Y-61125497D01*
X54270000Y-61064610D01*
X54270000Y-59839390D01*
X54275997Y-59778503D01*
X54291970Y-59725847D01*
X54317900Y-59677335D01*
X54352804Y-59634804D01*
X54395335Y-59599900D01*
X54443847Y-59573970D01*
X54496503Y-59557997D01*
X54557390Y-59552000D01*
X55357610Y-59552000D01*
X55418497Y-59557997D01*
X55418497Y-59557997D01*
G37*
G36*
X94694997Y-58795997D02*
X94747653Y-58811970D01*
X94796165Y-58837900D01*
X94838696Y-58872804D01*
X94873600Y-58915335D01*
X94899530Y-58963847D01*
X94915503Y-59016503D01*
X94921500Y-59077390D01*
X94921500Y-60302610D01*
X94915503Y-60363497D01*
X94899530Y-60416153D01*
X94873600Y-60464665D01*
X94838696Y-60507196D01*
X94796165Y-60542100D01*
X94747653Y-60568030D01*
X94694997Y-60584003D01*
X94634110Y-60590000D01*
X93833890Y-60590000D01*
X93773003Y-60584003D01*
X93720347Y-60568030D01*
X93671835Y-60542100D01*
X93629304Y-60507196D01*
X93594400Y-60464665D01*
X93568470Y-60416153D01*
X93552497Y-60363497D01*
X93546500Y-60302610D01*
X93546500Y-59077390D01*
X93552497Y-59016503D01*
X93568470Y-58963847D01*
X93594400Y-58915335D01*
X93629304Y-58872804D01*
X93671835Y-58837900D01*
X93720347Y-58811970D01*
X93773003Y-58795997D01*
X93833890Y-58790000D01*
X94634110Y-58790000D01*
X94694997Y-58795997D01*
X94694997Y-58795997D01*
G37*
G36*
X92819997Y-58795997D02*
X92872653Y-58811970D01*
X92921165Y-58837900D01*
X92963696Y-58872804D01*
X92998600Y-58915335D01*
X93024530Y-58963847D01*
X93040503Y-59016503D01*
X93046500Y-59077390D01*
X93046500Y-60302610D01*
X93040503Y-60363497D01*
X93024530Y-60416153D01*
X92998600Y-60464665D01*
X92963696Y-60507196D01*
X92921165Y-60542100D01*
X92872653Y-60568030D01*
X92819997Y-60584003D01*
X92759110Y-60590000D01*
X91958890Y-60590000D01*
X91898003Y-60584003D01*
X91845347Y-60568030D01*
X91796835Y-60542100D01*
X91754304Y-60507196D01*
X91719400Y-60464665D01*
X91693470Y-60416153D01*
X91677497Y-60363497D01*
X91671500Y-60302610D01*
X91671500Y-59077390D01*
X91677497Y-59016503D01*
X91693470Y-58963847D01*
X91719400Y-58915335D01*
X91754304Y-58872804D01*
X91796835Y-58837900D01*
X91845347Y-58811970D01*
X91898003Y-58795997D01*
X91958890Y-58790000D01*
X92759110Y-58790000D01*
X92819997Y-58795997D01*
X92819997Y-58795997D01*
G37*
G36*
X78512000Y-59578000D02*
X77312000Y-59578000D01*
X77312000Y-58278000D01*
X78512000Y-58278000D01*
X78512000Y-59578000D01*
X78512000Y-59578000D01*
G37*
G36*
X76612000Y-59578000D02*
X75412000Y-59578000D01*
X75412000Y-58278000D01*
X76612000Y-58278000D01*
X76612000Y-59578000D01*
X76612000Y-59578000D01*
G37*
G36*
X100466703Y-54461486D02*
X100757883Y-54582097D01*
X101019944Y-54757201D01*
X101242799Y-54980056D01*
X101417903Y-55242117D01*
X101538514Y-55533297D01*
X101600000Y-55842412D01*
X101600000Y-56157588D01*
X101538514Y-56466703D01*
X101417903Y-56757883D01*
X101242799Y-57019944D01*
X101019944Y-57242799D01*
X100757883Y-57417903D01*
X100466703Y-57538514D01*
X100157588Y-57600000D01*
X99842412Y-57600000D01*
X99533297Y-57538514D01*
X99242117Y-57417903D01*
X98980056Y-57242799D01*
X98757201Y-57019944D01*
X98582097Y-56757883D01*
X98461486Y-56466703D01*
X98400000Y-56157588D01*
X98400000Y-55842412D01*
X98461486Y-55533297D01*
X98582097Y-55242117D01*
X98757201Y-54980056D01*
X98980056Y-54757201D01*
X99242117Y-54582097D01*
X99533297Y-54461486D01*
X99842412Y-54400000D01*
X100157588Y-54400000D01*
X100466703Y-54461486D01*
X100466703Y-54461486D01*
G37*
G36*
X117386393Y-51343553D02*
X117495872Y-51365330D01*
X117805252Y-51493479D01*
X118083687Y-51679523D01*
X118320477Y-51916313D01*
X118506521Y-52194748D01*
X118634670Y-52504128D01*
X118700000Y-52832565D01*
X118700000Y-53167435D01*
X118634670Y-53495872D01*
X118506521Y-53805252D01*
X118320477Y-54083687D01*
X118083687Y-54320477D01*
X117805252Y-54506521D01*
X117495872Y-54634670D01*
X117386393Y-54656447D01*
X117167437Y-54700000D01*
X116832563Y-54700000D01*
X116613607Y-54656447D01*
X116504128Y-54634670D01*
X116194748Y-54506521D01*
X115916313Y-54320477D01*
X115679523Y-54083687D01*
X115493479Y-53805252D01*
X115365330Y-53495872D01*
X115300000Y-53167435D01*
X115300000Y-52832565D01*
X115365330Y-52504128D01*
X115493479Y-52194748D01*
X115679523Y-51916313D01*
X115916313Y-51679523D01*
X116194748Y-51493479D01*
X116504128Y-51365330D01*
X116613607Y-51343553D01*
X116832563Y-51300000D01*
X117167437Y-51300000D01*
X117386393Y-51343553D01*
X117386393Y-51343553D01*
G37*
G36*
X48386393Y-51343553D02*
X48495872Y-51365330D01*
X48805252Y-51493479D01*
X49083687Y-51679523D01*
X49320477Y-51916313D01*
X49506521Y-52194748D01*
X49634670Y-52504128D01*
X49700000Y-52832565D01*
X49700000Y-53167435D01*
X49634670Y-53495872D01*
X49506521Y-53805252D01*
X49320477Y-54083687D01*
X49083687Y-54320477D01*
X48805252Y-54506521D01*
X48495872Y-54634670D01*
X48386393Y-54656447D01*
X48167437Y-54700000D01*
X47832563Y-54700000D01*
X47613607Y-54656447D01*
X47504128Y-54634670D01*
X47194748Y-54506521D01*
X46916313Y-54320477D01*
X46679523Y-54083687D01*
X46493479Y-53805252D01*
X46365330Y-53495872D01*
X46300000Y-53167435D01*
X46300000Y-52832565D01*
X46365330Y-52504128D01*
X46493479Y-52194748D01*
X46679523Y-51916313D01*
X46916313Y-51679523D01*
X47194748Y-51493479D01*
X47504128Y-51365330D01*
X47613607Y-51343553D01*
X47832563Y-51300000D01*
X48167437Y-51300000D01*
X48386393Y-51343553D01*
X48386393Y-51343553D01*
G37*
M02*
