%TF.GenerationSoftware,KiCad,Pcbnew,(5.0.0)*%
%TF.CreationDate,2019-02-02T21:12:50-06:00*%
%TF.ProjectId,BPSVoltage,425053566F6C746167652E6B69636164,rev?*%
%TF.SameCoordinates,Original*%
%TF.FileFunction,Soldermask,Bot*%
%TF.FilePolarity,Negative*%
%FSLAX46Y46*%
G04 Gerber Fmt 4.6, Leading zero omitted, Abs format (unit mm)*
G04 Created by KiCad (PCBNEW (5.0.0)) date 02/02/19 21:12:50*
%MOMM*%
%LPD*%
G01*
G04 APERTURE LIST*
%ADD10C,0.100000*%
G04 APERTURE END LIST*
D10*
G36*
X117386393Y-110343553D02*
X117495872Y-110365330D01*
X117805252Y-110493479D01*
X118083687Y-110679523D01*
X118320477Y-110916313D01*
X118506521Y-111194748D01*
X118634670Y-111504128D01*
X118700000Y-111832565D01*
X118700000Y-112167435D01*
X118634670Y-112495872D01*
X118506521Y-112805252D01*
X118320477Y-113083687D01*
X118083687Y-113320477D01*
X117805252Y-113506521D01*
X117495872Y-113634670D01*
X117386393Y-113656447D01*
X117167437Y-113700000D01*
X116832563Y-113700000D01*
X116613607Y-113656447D01*
X116504128Y-113634670D01*
X116194748Y-113506521D01*
X115916313Y-113320477D01*
X115679523Y-113083687D01*
X115493479Y-112805252D01*
X115365330Y-112495872D01*
X115300000Y-112167435D01*
X115300000Y-111832565D01*
X115365330Y-111504128D01*
X115493479Y-111194748D01*
X115679523Y-110916313D01*
X115916313Y-110679523D01*
X116194748Y-110493479D01*
X116504128Y-110365330D01*
X116613607Y-110343553D01*
X116832563Y-110300000D01*
X117167437Y-110300000D01*
X117386393Y-110343553D01*
X117386393Y-110343553D01*
G37*
G36*
X48386393Y-110343553D02*
X48495872Y-110365330D01*
X48805252Y-110493479D01*
X49083687Y-110679523D01*
X49320477Y-110916313D01*
X49506521Y-111194748D01*
X49634670Y-111504128D01*
X49700000Y-111832565D01*
X49700000Y-112167435D01*
X49634670Y-112495872D01*
X49506521Y-112805252D01*
X49320477Y-113083687D01*
X49083687Y-113320477D01*
X48805252Y-113506521D01*
X48495872Y-113634670D01*
X48386393Y-113656447D01*
X48167437Y-113700000D01*
X47832563Y-113700000D01*
X47613607Y-113656447D01*
X47504128Y-113634670D01*
X47194748Y-113506521D01*
X46916313Y-113320477D01*
X46679523Y-113083687D01*
X46493479Y-112805252D01*
X46365330Y-112495872D01*
X46300000Y-112167435D01*
X46300000Y-111832565D01*
X46365330Y-111504128D01*
X46493479Y-111194748D01*
X46679523Y-110916313D01*
X46916313Y-110679523D01*
X47194748Y-110493479D01*
X47504128Y-110365330D01*
X47613607Y-110343553D01*
X47832563Y-110300000D01*
X48167437Y-110300000D01*
X48386393Y-110343553D01*
X48386393Y-110343553D01*
G37*
G36*
X92588707Y-110957597D02*
X92665836Y-110965193D01*
X92797787Y-111005220D01*
X92863763Y-111025233D01*
X93046172Y-111122733D01*
X93206054Y-111253946D01*
X93337267Y-111413828D01*
X93434767Y-111596237D01*
X93434767Y-111596238D01*
X93494807Y-111794164D01*
X93515080Y-112000000D01*
X93494807Y-112205836D01*
X93454780Y-112337787D01*
X93434767Y-112403763D01*
X93337267Y-112586172D01*
X93206054Y-112746054D01*
X93046172Y-112877267D01*
X92863763Y-112974767D01*
X92797787Y-112994780D01*
X92665836Y-113034807D01*
X92588707Y-113042404D01*
X92511580Y-113050000D01*
X92408420Y-113050000D01*
X92331293Y-113042404D01*
X92254164Y-113034807D01*
X92122213Y-112994780D01*
X92056237Y-112974767D01*
X91873828Y-112877267D01*
X91713946Y-112746054D01*
X91582733Y-112586172D01*
X91485233Y-112403763D01*
X91465220Y-112337787D01*
X91425193Y-112205836D01*
X91404920Y-112000000D01*
X91425193Y-111794164D01*
X91485233Y-111596238D01*
X91485233Y-111596237D01*
X91582733Y-111413828D01*
X91713946Y-111253946D01*
X91873828Y-111122733D01*
X92056237Y-111025233D01*
X92122213Y-111005220D01*
X92254164Y-110965193D01*
X92331293Y-110957597D01*
X92408420Y-110950000D01*
X92511580Y-110950000D01*
X92588707Y-110957597D01*
X92588707Y-110957597D01*
G37*
G36*
X90048707Y-110957597D02*
X90125836Y-110965193D01*
X90257787Y-111005220D01*
X90323763Y-111025233D01*
X90506172Y-111122733D01*
X90666054Y-111253946D01*
X90797267Y-111413828D01*
X90894767Y-111596237D01*
X90894767Y-111596238D01*
X90954807Y-111794164D01*
X90975080Y-112000000D01*
X90954807Y-112205836D01*
X90914780Y-112337787D01*
X90894767Y-112403763D01*
X90797267Y-112586172D01*
X90666054Y-112746054D01*
X90506172Y-112877267D01*
X90323763Y-112974767D01*
X90257787Y-112994780D01*
X90125836Y-113034807D01*
X90048707Y-113042404D01*
X89971580Y-113050000D01*
X89868420Y-113050000D01*
X89791293Y-113042404D01*
X89714164Y-113034807D01*
X89582213Y-112994780D01*
X89516237Y-112974767D01*
X89333828Y-112877267D01*
X89173946Y-112746054D01*
X89042733Y-112586172D01*
X88945233Y-112403763D01*
X88925220Y-112337787D01*
X88885193Y-112205836D01*
X88864920Y-112000000D01*
X88885193Y-111794164D01*
X88945233Y-111596238D01*
X88945233Y-111596237D01*
X89042733Y-111413828D01*
X89173946Y-111253946D01*
X89333828Y-111122733D01*
X89516237Y-111025233D01*
X89582213Y-111005220D01*
X89714164Y-110965193D01*
X89791293Y-110957597D01*
X89868420Y-110950000D01*
X89971580Y-110950000D01*
X90048707Y-110957597D01*
X90048707Y-110957597D01*
G37*
G36*
X101130000Y-113050000D02*
X99030000Y-113050000D01*
X99030000Y-110950000D01*
X101130000Y-110950000D01*
X101130000Y-113050000D01*
X101130000Y-113050000D01*
G37*
G36*
X95128707Y-110957597D02*
X95205836Y-110965193D01*
X95337787Y-111005220D01*
X95403763Y-111025233D01*
X95586172Y-111122733D01*
X95746054Y-111253946D01*
X95877267Y-111413828D01*
X95974767Y-111596237D01*
X95974767Y-111596238D01*
X96034807Y-111794164D01*
X96055080Y-112000000D01*
X96034807Y-112205836D01*
X95994780Y-112337787D01*
X95974767Y-112403763D01*
X95877267Y-112586172D01*
X95746054Y-112746054D01*
X95586172Y-112877267D01*
X95403763Y-112974767D01*
X95337787Y-112994780D01*
X95205836Y-113034807D01*
X95128707Y-113042404D01*
X95051580Y-113050000D01*
X94948420Y-113050000D01*
X94871293Y-113042404D01*
X94794164Y-113034807D01*
X94662213Y-112994780D01*
X94596237Y-112974767D01*
X94413828Y-112877267D01*
X94253946Y-112746054D01*
X94122733Y-112586172D01*
X94025233Y-112403763D01*
X94005220Y-112337787D01*
X93965193Y-112205836D01*
X93944920Y-112000000D01*
X93965193Y-111794164D01*
X94025233Y-111596238D01*
X94025233Y-111596237D01*
X94122733Y-111413828D01*
X94253946Y-111253946D01*
X94413828Y-111122733D01*
X94596237Y-111025233D01*
X94662213Y-111005220D01*
X94794164Y-110965193D01*
X94871293Y-110957597D01*
X94948420Y-110950000D01*
X95051580Y-110950000D01*
X95128707Y-110957597D01*
X95128707Y-110957597D01*
G37*
G36*
X97668707Y-110957597D02*
X97745836Y-110965193D01*
X97877787Y-111005220D01*
X97943763Y-111025233D01*
X98126172Y-111122733D01*
X98286054Y-111253946D01*
X98417267Y-111413828D01*
X98514767Y-111596237D01*
X98514767Y-111596238D01*
X98574807Y-111794164D01*
X98595080Y-112000000D01*
X98574807Y-112205836D01*
X98534780Y-112337787D01*
X98514767Y-112403763D01*
X98417267Y-112586172D01*
X98286054Y-112746054D01*
X98126172Y-112877267D01*
X97943763Y-112974767D01*
X97877787Y-112994780D01*
X97745836Y-113034807D01*
X97668707Y-113042404D01*
X97591580Y-113050000D01*
X97488420Y-113050000D01*
X97411293Y-113042404D01*
X97334164Y-113034807D01*
X97202213Y-112994780D01*
X97136237Y-112974767D01*
X96953828Y-112877267D01*
X96793946Y-112746054D01*
X96662733Y-112586172D01*
X96565233Y-112403763D01*
X96545220Y-112337787D01*
X96505193Y-112205836D01*
X96484920Y-112000000D01*
X96505193Y-111794164D01*
X96565233Y-111596238D01*
X96565233Y-111596237D01*
X96662733Y-111413828D01*
X96793946Y-111253946D01*
X96953828Y-111122733D01*
X97136237Y-111025233D01*
X97202213Y-111005220D01*
X97334164Y-110965193D01*
X97411293Y-110957597D01*
X97488420Y-110950000D01*
X97591580Y-110950000D01*
X97668707Y-110957597D01*
X97668707Y-110957597D01*
G37*
G36*
X52336451Y-100434627D02*
X52474105Y-100462008D01*
X52646994Y-100533621D01*
X52802590Y-100637587D01*
X52934913Y-100769910D01*
X53038879Y-100925506D01*
X53110492Y-101098395D01*
X53147000Y-101281933D01*
X53147000Y-101469067D01*
X53110492Y-101652605D01*
X53038879Y-101825494D01*
X52934913Y-101981090D01*
X52802590Y-102113413D01*
X52646994Y-102217379D01*
X52474105Y-102288992D01*
X52336451Y-102316373D01*
X52290568Y-102325500D01*
X52103432Y-102325500D01*
X52057549Y-102316373D01*
X51919895Y-102288992D01*
X51747006Y-102217379D01*
X51591410Y-102113413D01*
X51459087Y-101981090D01*
X51355121Y-101825494D01*
X51283508Y-101652605D01*
X51247000Y-101469067D01*
X51247000Y-101281933D01*
X51283508Y-101098395D01*
X51355121Y-100925506D01*
X51459087Y-100769910D01*
X51591410Y-100637587D01*
X51747006Y-100533621D01*
X51919895Y-100462008D01*
X52057548Y-100434627D01*
X52103432Y-100425500D01*
X52290568Y-100425500D01*
X52336451Y-100434627D01*
X52336451Y-100434627D01*
G37*
G36*
X67881378Y-98206308D02*
X67927302Y-98220239D01*
X67969615Y-98242855D01*
X68006705Y-98273295D01*
X68037145Y-98310385D01*
X68059761Y-98352698D01*
X68073692Y-98398622D01*
X68079000Y-98452511D01*
X68079000Y-101699489D01*
X68073692Y-101753378D01*
X68059761Y-101799302D01*
X68037145Y-101841615D01*
X68006705Y-101878705D01*
X67969615Y-101909145D01*
X67927302Y-101931761D01*
X67881378Y-101945692D01*
X67827489Y-101951000D01*
X66580511Y-101951000D01*
X66526622Y-101945692D01*
X66480698Y-101931761D01*
X66438385Y-101909145D01*
X66401295Y-101878705D01*
X66370855Y-101841615D01*
X66348239Y-101799302D01*
X66334308Y-101753378D01*
X66329000Y-101699489D01*
X66329000Y-98452511D01*
X66334308Y-98398622D01*
X66348239Y-98352698D01*
X66370855Y-98310385D01*
X66401295Y-98273295D01*
X66438385Y-98242855D01*
X66480698Y-98220239D01*
X66526622Y-98206308D01*
X66580511Y-98201000D01*
X67827489Y-98201000D01*
X67881378Y-98206308D01*
X67881378Y-98206308D01*
G37*
G36*
X73681378Y-98206308D02*
X73727302Y-98220239D01*
X73769615Y-98242855D01*
X73806705Y-98273295D01*
X73837145Y-98310385D01*
X73859761Y-98352698D01*
X73873692Y-98398622D01*
X73879000Y-98452511D01*
X73879000Y-101699489D01*
X73873692Y-101753378D01*
X73859761Y-101799302D01*
X73837145Y-101841615D01*
X73806705Y-101878705D01*
X73769615Y-101909145D01*
X73727302Y-101931761D01*
X73681378Y-101945692D01*
X73627489Y-101951000D01*
X72380511Y-101951000D01*
X72326622Y-101945692D01*
X72280698Y-101931761D01*
X72238385Y-101909145D01*
X72201295Y-101878705D01*
X72170855Y-101841615D01*
X72148239Y-101799302D01*
X72134308Y-101753378D01*
X72129000Y-101699489D01*
X72129000Y-98452511D01*
X72134308Y-98398622D01*
X72148239Y-98352698D01*
X72170855Y-98310385D01*
X72201295Y-98273295D01*
X72238385Y-98242855D01*
X72280698Y-98220239D01*
X72326622Y-98206308D01*
X72380511Y-98201000D01*
X73627489Y-98201000D01*
X73681378Y-98206308D01*
X73681378Y-98206308D01*
G37*
G36*
X118203558Y-99697088D02*
X118355522Y-99760033D01*
X118492284Y-99851415D01*
X118608585Y-99967716D01*
X118699967Y-100104478D01*
X118762912Y-100256442D01*
X118795000Y-100417758D01*
X118795000Y-100582242D01*
X118762912Y-100743558D01*
X118699967Y-100895522D01*
X118608585Y-101032284D01*
X118492284Y-101148585D01*
X118355522Y-101239967D01*
X118203558Y-101302912D01*
X118042242Y-101335000D01*
X117877758Y-101335000D01*
X117716442Y-101302912D01*
X117564478Y-101239967D01*
X117427716Y-101148585D01*
X117311415Y-101032284D01*
X117220033Y-100895522D01*
X117157088Y-100743558D01*
X117125000Y-100582242D01*
X117125000Y-100417758D01*
X117157088Y-100256442D01*
X117220033Y-100104478D01*
X117311415Y-99967716D01*
X117427716Y-99851415D01*
X117564478Y-99760033D01*
X117716442Y-99697088D01*
X117877758Y-99665000D01*
X118042242Y-99665000D01*
X118203558Y-99697088D01*
X118203558Y-99697088D01*
G37*
G36*
X48447793Y-97341437D02*
X48802670Y-97488432D01*
X49122055Y-97701838D01*
X49393662Y-97973445D01*
X49607068Y-98292830D01*
X49754063Y-98647707D01*
X49829000Y-99024440D01*
X49829000Y-99408560D01*
X49754063Y-99785293D01*
X49607068Y-100140170D01*
X49393662Y-100459555D01*
X49122055Y-100731162D01*
X48802670Y-100944568D01*
X48447793Y-101091563D01*
X48071060Y-101166500D01*
X47686940Y-101166500D01*
X47310207Y-101091563D01*
X46955330Y-100944568D01*
X46635945Y-100731162D01*
X46364338Y-100459555D01*
X46150932Y-100140170D01*
X46003937Y-99785293D01*
X45929000Y-99408560D01*
X45929000Y-99024440D01*
X46003937Y-98647707D01*
X46150932Y-98292830D01*
X46364338Y-97973445D01*
X46635945Y-97701838D01*
X46955330Y-97488432D01*
X47310207Y-97341437D01*
X47686940Y-97266500D01*
X48071060Y-97266500D01*
X48447793Y-97341437D01*
X48447793Y-97341437D01*
G37*
G36*
X52336452Y-97434627D02*
X52474105Y-97462008D01*
X52646994Y-97533621D01*
X52802590Y-97637587D01*
X52934913Y-97769910D01*
X53038879Y-97925506D01*
X53110492Y-98098395D01*
X53147000Y-98281933D01*
X53147000Y-98469067D01*
X53110492Y-98652605D01*
X53038879Y-98825494D01*
X52934913Y-98981090D01*
X52802590Y-99113413D01*
X52646994Y-99217379D01*
X52474105Y-99288992D01*
X52336451Y-99316373D01*
X52290568Y-99325500D01*
X52103432Y-99325500D01*
X52057548Y-99316373D01*
X51919895Y-99288992D01*
X51747006Y-99217379D01*
X51591410Y-99113413D01*
X51459087Y-98981090D01*
X51355121Y-98825494D01*
X51283508Y-98652605D01*
X51247000Y-98469067D01*
X51247000Y-98281933D01*
X51283508Y-98098395D01*
X51355121Y-97925506D01*
X51459087Y-97769910D01*
X51591410Y-97637587D01*
X51747006Y-97533621D01*
X51919895Y-97462008D01*
X52057549Y-97434627D01*
X52103432Y-97425500D01*
X52290568Y-97425500D01*
X52336452Y-97434627D01*
X52336452Y-97434627D01*
G37*
G36*
X65807378Y-94904308D02*
X65853302Y-94918239D01*
X65895615Y-94940855D01*
X65932705Y-94971295D01*
X65963145Y-95008385D01*
X65985761Y-95050698D01*
X65999692Y-95096622D01*
X66005000Y-95150511D01*
X66005000Y-98397489D01*
X65999692Y-98451378D01*
X65985761Y-98497302D01*
X65963145Y-98539615D01*
X65932705Y-98576705D01*
X65895615Y-98607145D01*
X65853302Y-98629761D01*
X65807378Y-98643692D01*
X65753489Y-98649000D01*
X64506511Y-98649000D01*
X64452622Y-98643692D01*
X64406698Y-98629761D01*
X64364385Y-98607145D01*
X64327295Y-98576705D01*
X64296855Y-98539615D01*
X64274239Y-98497302D01*
X64260308Y-98451378D01*
X64255000Y-98397489D01*
X64255000Y-95150511D01*
X64260308Y-95096622D01*
X64274239Y-95050698D01*
X64296855Y-95008385D01*
X64327295Y-94971295D01*
X64364385Y-94940855D01*
X64406698Y-94918239D01*
X64452622Y-94904308D01*
X64506511Y-94899000D01*
X65753489Y-94899000D01*
X65807378Y-94904308D01*
X65807378Y-94904308D01*
G37*
G36*
X60007378Y-94904308D02*
X60053302Y-94918239D01*
X60095615Y-94940855D01*
X60132705Y-94971295D01*
X60163145Y-95008385D01*
X60185761Y-95050698D01*
X60199692Y-95096622D01*
X60205000Y-95150511D01*
X60205000Y-98397489D01*
X60199692Y-98451378D01*
X60185761Y-98497302D01*
X60163145Y-98539615D01*
X60132705Y-98576705D01*
X60095615Y-98607145D01*
X60053302Y-98629761D01*
X60007378Y-98643692D01*
X59953489Y-98649000D01*
X58706511Y-98649000D01*
X58652622Y-98643692D01*
X58606698Y-98629761D01*
X58564385Y-98607145D01*
X58527295Y-98576705D01*
X58496855Y-98539615D01*
X58474239Y-98497302D01*
X58460308Y-98451378D01*
X58455000Y-98397489D01*
X58455000Y-95150511D01*
X58460308Y-95096622D01*
X58474239Y-95050698D01*
X58496855Y-95008385D01*
X58527295Y-94971295D01*
X58564385Y-94940855D01*
X58606698Y-94918239D01*
X58652622Y-94904308D01*
X58706511Y-94899000D01*
X59953489Y-94899000D01*
X60007378Y-94904308D01*
X60007378Y-94904308D01*
G37*
G36*
X116125888Y-96454470D02*
X116306274Y-96490350D01*
X116497362Y-96569502D01*
X116669336Y-96684411D01*
X116815589Y-96830664D01*
X116930498Y-97002638D01*
X117009650Y-97193726D01*
X117039031Y-97341437D01*
X117050000Y-97396583D01*
X117050000Y-97603417D01*
X117045530Y-97625888D01*
X117009650Y-97806274D01*
X116930498Y-97997362D01*
X116815589Y-98169336D01*
X116669336Y-98315589D01*
X116497362Y-98430498D01*
X116306274Y-98509650D01*
X116125888Y-98545530D01*
X116103417Y-98550000D01*
X115896583Y-98550000D01*
X115874112Y-98545530D01*
X115693726Y-98509650D01*
X115502638Y-98430498D01*
X115330664Y-98315589D01*
X115184411Y-98169336D01*
X115069502Y-97997362D01*
X114990350Y-97806274D01*
X114954470Y-97625888D01*
X114950000Y-97603417D01*
X114950000Y-97396583D01*
X114960969Y-97341437D01*
X114990350Y-97193726D01*
X115069502Y-97002638D01*
X115184411Y-96830664D01*
X115330664Y-96684411D01*
X115502638Y-96569502D01*
X115693726Y-96490350D01*
X115874112Y-96454470D01*
X115896583Y-96450000D01*
X116103417Y-96450000D01*
X116125888Y-96454470D01*
X116125888Y-96454470D01*
G37*
G36*
X78281997Y-95879997D02*
X78334653Y-95895970D01*
X78383165Y-95921900D01*
X78425696Y-95956804D01*
X78460600Y-95999335D01*
X78486530Y-96047847D01*
X78502503Y-96100503D01*
X78508500Y-96161390D01*
X78508500Y-97386610D01*
X78502503Y-97447497D01*
X78486530Y-97500153D01*
X78460600Y-97548665D01*
X78425696Y-97591196D01*
X78383165Y-97626100D01*
X78334653Y-97652030D01*
X78281997Y-97668003D01*
X78221110Y-97674000D01*
X77420890Y-97674000D01*
X77360003Y-97668003D01*
X77307347Y-97652030D01*
X77258835Y-97626100D01*
X77216304Y-97591196D01*
X77181400Y-97548665D01*
X77155470Y-97500153D01*
X77139497Y-97447497D01*
X77133500Y-97386610D01*
X77133500Y-96161390D01*
X77139497Y-96100503D01*
X77155470Y-96047847D01*
X77181400Y-95999335D01*
X77216304Y-95956804D01*
X77258835Y-95921900D01*
X77307347Y-95895970D01*
X77360003Y-95879997D01*
X77420890Y-95874000D01*
X78221110Y-95874000D01*
X78281997Y-95879997D01*
X78281997Y-95879997D01*
G37*
G36*
X76406997Y-95879997D02*
X76459653Y-95895970D01*
X76508165Y-95921900D01*
X76550696Y-95956804D01*
X76585600Y-95999335D01*
X76611530Y-96047847D01*
X76627503Y-96100503D01*
X76633500Y-96161390D01*
X76633500Y-97386610D01*
X76627503Y-97447497D01*
X76611530Y-97500153D01*
X76585600Y-97548665D01*
X76550696Y-97591196D01*
X76508165Y-97626100D01*
X76459653Y-97652030D01*
X76406997Y-97668003D01*
X76346110Y-97674000D01*
X75545890Y-97674000D01*
X75485003Y-97668003D01*
X75432347Y-97652030D01*
X75383835Y-97626100D01*
X75341304Y-97591196D01*
X75306400Y-97548665D01*
X75280470Y-97500153D01*
X75264497Y-97447497D01*
X75258500Y-97386610D01*
X75258500Y-96161390D01*
X75264497Y-96100503D01*
X75280470Y-96047847D01*
X75306400Y-95999335D01*
X75341304Y-95956804D01*
X75383835Y-95921900D01*
X75432347Y-95895970D01*
X75485003Y-95879997D01*
X75545890Y-95874000D01*
X76346110Y-95874000D01*
X76406997Y-95879997D01*
X76406997Y-95879997D01*
G37*
G36*
X52336452Y-94434627D02*
X52474105Y-94462008D01*
X52646994Y-94533621D01*
X52802590Y-94637587D01*
X52934913Y-94769910D01*
X53038879Y-94925506D01*
X53110492Y-95098395D01*
X53147000Y-95281933D01*
X53147000Y-95469067D01*
X53110492Y-95652605D01*
X53038879Y-95825494D01*
X52934913Y-95981090D01*
X52802590Y-96113413D01*
X52646994Y-96217379D01*
X52474105Y-96288992D01*
X52336451Y-96316373D01*
X52290568Y-96325500D01*
X52103432Y-96325500D01*
X52057549Y-96316373D01*
X51919895Y-96288992D01*
X51747006Y-96217379D01*
X51591410Y-96113413D01*
X51459087Y-95981090D01*
X51355121Y-95825494D01*
X51283508Y-95652605D01*
X51247000Y-95469067D01*
X51247000Y-95281933D01*
X51283508Y-95098395D01*
X51355121Y-94925506D01*
X51459087Y-94769910D01*
X51591410Y-94637587D01*
X51747006Y-94533621D01*
X51919895Y-94462008D01*
X52057548Y-94434627D01*
X52103432Y-94425500D01*
X52290568Y-94425500D01*
X52336452Y-94434627D01*
X52336452Y-94434627D01*
G37*
G36*
X116125888Y-93454470D02*
X116306274Y-93490350D01*
X116497362Y-93569502D01*
X116669336Y-93684411D01*
X116815589Y-93830664D01*
X116930498Y-94002638D01*
X117009650Y-94193726D01*
X117050000Y-94396584D01*
X117050000Y-94603416D01*
X117009650Y-94806274D01*
X116930498Y-94997362D01*
X116815589Y-95169336D01*
X116669336Y-95315589D01*
X116497362Y-95430498D01*
X116306274Y-95509650D01*
X116125888Y-95545530D01*
X116103417Y-95550000D01*
X115896583Y-95550000D01*
X115874112Y-95545530D01*
X115693726Y-95509650D01*
X115502638Y-95430498D01*
X115330664Y-95315589D01*
X115184411Y-95169336D01*
X115069502Y-94997362D01*
X114990350Y-94806274D01*
X114950000Y-94603416D01*
X114950000Y-94396584D01*
X114990350Y-94193726D01*
X115069502Y-94002638D01*
X115184411Y-93830664D01*
X115330664Y-93684411D01*
X115502638Y-93569502D01*
X115693726Y-93490350D01*
X115874112Y-93454470D01*
X115896583Y-93450000D01*
X116103417Y-93450000D01*
X116125888Y-93454470D01*
X116125888Y-93454470D01*
G37*
G36*
X67881378Y-91602308D02*
X67927302Y-91616239D01*
X67969615Y-91638855D01*
X68006705Y-91669295D01*
X68037145Y-91706385D01*
X68059761Y-91748698D01*
X68073692Y-91794622D01*
X68079000Y-91848511D01*
X68079000Y-95095489D01*
X68073692Y-95149378D01*
X68059761Y-95195302D01*
X68037145Y-95237615D01*
X68006705Y-95274705D01*
X67969615Y-95305145D01*
X67927302Y-95327761D01*
X67881378Y-95341692D01*
X67827489Y-95347000D01*
X66580511Y-95347000D01*
X66526622Y-95341692D01*
X66480698Y-95327761D01*
X66438385Y-95305145D01*
X66401295Y-95274705D01*
X66370855Y-95237615D01*
X66348239Y-95195302D01*
X66334308Y-95149378D01*
X66329000Y-95095489D01*
X66329000Y-91848511D01*
X66334308Y-91794622D01*
X66348239Y-91748698D01*
X66370855Y-91706385D01*
X66401295Y-91669295D01*
X66438385Y-91638855D01*
X66480698Y-91616239D01*
X66526622Y-91602308D01*
X66580511Y-91597000D01*
X67827489Y-91597000D01*
X67881378Y-91602308D01*
X67881378Y-91602308D01*
G37*
G36*
X73681378Y-91602308D02*
X73727302Y-91616239D01*
X73769615Y-91638855D01*
X73806705Y-91669295D01*
X73837145Y-91706385D01*
X73859761Y-91748698D01*
X73873692Y-91794622D01*
X73879000Y-91848511D01*
X73879000Y-95095489D01*
X73873692Y-95149378D01*
X73859761Y-95195302D01*
X73837145Y-95237615D01*
X73806705Y-95274705D01*
X73769615Y-95305145D01*
X73727302Y-95327761D01*
X73681378Y-95341692D01*
X73627489Y-95347000D01*
X72380511Y-95347000D01*
X72326622Y-95341692D01*
X72280698Y-95327761D01*
X72238385Y-95305145D01*
X72201295Y-95274705D01*
X72170855Y-95237615D01*
X72148239Y-95195302D01*
X72134308Y-95149378D01*
X72129000Y-95095489D01*
X72129000Y-91848511D01*
X72134308Y-91794622D01*
X72148239Y-91748698D01*
X72170855Y-91706385D01*
X72201295Y-91669295D01*
X72238385Y-91638855D01*
X72280698Y-91616239D01*
X72326622Y-91602308D01*
X72380511Y-91597000D01*
X73627489Y-91597000D01*
X73681378Y-91602308D01*
X73681378Y-91602308D01*
G37*
G36*
X78281997Y-92577997D02*
X78334653Y-92593970D01*
X78383165Y-92619900D01*
X78425696Y-92654804D01*
X78460600Y-92697335D01*
X78486530Y-92745847D01*
X78502503Y-92798503D01*
X78508500Y-92859390D01*
X78508500Y-94084610D01*
X78502503Y-94145497D01*
X78486530Y-94198153D01*
X78460600Y-94246665D01*
X78425696Y-94289196D01*
X78383165Y-94324100D01*
X78334653Y-94350030D01*
X78281997Y-94366003D01*
X78221110Y-94372000D01*
X77420890Y-94372000D01*
X77360003Y-94366003D01*
X77307347Y-94350030D01*
X77258835Y-94324100D01*
X77216304Y-94289196D01*
X77181400Y-94246665D01*
X77155470Y-94198153D01*
X77139497Y-94145497D01*
X77133500Y-94084610D01*
X77133500Y-92859390D01*
X77139497Y-92798503D01*
X77155470Y-92745847D01*
X77181400Y-92697335D01*
X77216304Y-92654804D01*
X77258835Y-92619900D01*
X77307347Y-92593970D01*
X77360003Y-92577997D01*
X77420890Y-92572000D01*
X78221110Y-92572000D01*
X78281997Y-92577997D01*
X78281997Y-92577997D01*
G37*
G36*
X76406997Y-92577997D02*
X76459653Y-92593970D01*
X76508165Y-92619900D01*
X76550696Y-92654804D01*
X76585600Y-92697335D01*
X76611530Y-92745847D01*
X76627503Y-92798503D01*
X76633500Y-92859390D01*
X76633500Y-94084610D01*
X76627503Y-94145497D01*
X76611530Y-94198153D01*
X76585600Y-94246665D01*
X76550696Y-94289196D01*
X76508165Y-94324100D01*
X76459653Y-94350030D01*
X76406997Y-94366003D01*
X76346110Y-94372000D01*
X75545890Y-94372000D01*
X75485003Y-94366003D01*
X75432347Y-94350030D01*
X75383835Y-94324100D01*
X75341304Y-94289196D01*
X75306400Y-94246665D01*
X75280470Y-94198153D01*
X75264497Y-94145497D01*
X75258500Y-94084610D01*
X75258500Y-92859390D01*
X75264497Y-92798503D01*
X75280470Y-92745847D01*
X75306400Y-92697335D01*
X75341304Y-92654804D01*
X75383835Y-92619900D01*
X75432347Y-92593970D01*
X75485003Y-92577997D01*
X75545890Y-92572000D01*
X76346110Y-92572000D01*
X76406997Y-92577997D01*
X76406997Y-92577997D01*
G37*
G36*
X52336452Y-91434627D02*
X52474105Y-91462008D01*
X52646994Y-91533621D01*
X52802590Y-91637587D01*
X52934913Y-91769910D01*
X53038879Y-91925506D01*
X53110492Y-92098395D01*
X53147000Y-92281933D01*
X53147000Y-92469067D01*
X53110492Y-92652605D01*
X53038879Y-92825494D01*
X52934913Y-92981090D01*
X52802590Y-93113413D01*
X52646994Y-93217379D01*
X52474105Y-93288992D01*
X52336452Y-93316373D01*
X52290568Y-93325500D01*
X52103432Y-93325500D01*
X52057548Y-93316373D01*
X51919895Y-93288992D01*
X51747006Y-93217379D01*
X51591410Y-93113413D01*
X51459087Y-92981090D01*
X51355121Y-92825494D01*
X51283508Y-92652605D01*
X51247000Y-92469067D01*
X51247000Y-92281933D01*
X51283508Y-92098395D01*
X51355121Y-91925506D01*
X51459087Y-91769910D01*
X51591410Y-91637587D01*
X51747006Y-91533621D01*
X51919895Y-91462008D01*
X52057548Y-91434627D01*
X52103432Y-91425500D01*
X52290568Y-91425500D01*
X52336452Y-91434627D01*
X52336452Y-91434627D01*
G37*
G36*
X118203558Y-90697088D02*
X118355522Y-90760033D01*
X118492284Y-90851415D01*
X118608585Y-90967716D01*
X118699967Y-91104478D01*
X118762912Y-91256442D01*
X118795000Y-91417758D01*
X118795000Y-91582242D01*
X118762912Y-91743558D01*
X118699967Y-91895522D01*
X118608585Y-92032284D01*
X118492284Y-92148585D01*
X118355522Y-92239967D01*
X118203558Y-92302912D01*
X118042242Y-92335000D01*
X117877758Y-92335000D01*
X117716442Y-92302912D01*
X117564478Y-92239967D01*
X117427716Y-92148585D01*
X117311415Y-92032284D01*
X117220033Y-91895522D01*
X117157088Y-91743558D01*
X117125000Y-91582242D01*
X117125000Y-91417758D01*
X117157088Y-91256442D01*
X117220033Y-91104478D01*
X117311415Y-90967716D01*
X117427716Y-90851415D01*
X117564478Y-90760033D01*
X117716442Y-90697088D01*
X117877758Y-90665000D01*
X118042242Y-90665000D01*
X118203558Y-90697088D01*
X118203558Y-90697088D01*
G37*
G36*
X65807378Y-88300308D02*
X65853302Y-88314239D01*
X65895615Y-88336855D01*
X65932705Y-88367295D01*
X65963145Y-88404385D01*
X65985761Y-88446698D01*
X65999692Y-88492622D01*
X66005000Y-88546511D01*
X66005000Y-91793489D01*
X65999692Y-91847378D01*
X65985761Y-91893302D01*
X65963145Y-91935615D01*
X65932705Y-91972705D01*
X65895615Y-92003145D01*
X65853302Y-92025761D01*
X65807378Y-92039692D01*
X65753489Y-92045000D01*
X64506511Y-92045000D01*
X64452622Y-92039692D01*
X64406698Y-92025761D01*
X64364385Y-92003145D01*
X64327295Y-91972705D01*
X64296855Y-91935615D01*
X64274239Y-91893302D01*
X64260308Y-91847378D01*
X64255000Y-91793489D01*
X64255000Y-88546511D01*
X64260308Y-88492622D01*
X64274239Y-88446698D01*
X64296855Y-88404385D01*
X64327295Y-88367295D01*
X64364385Y-88336855D01*
X64406698Y-88314239D01*
X64452622Y-88300308D01*
X64506511Y-88295000D01*
X65753489Y-88295000D01*
X65807378Y-88300308D01*
X65807378Y-88300308D01*
G37*
G36*
X60007378Y-88300308D02*
X60053302Y-88314239D01*
X60095615Y-88336855D01*
X60132705Y-88367295D01*
X60163145Y-88404385D01*
X60185761Y-88446698D01*
X60199692Y-88492622D01*
X60205000Y-88546511D01*
X60205000Y-91793489D01*
X60199692Y-91847378D01*
X60185761Y-91893302D01*
X60163145Y-91935615D01*
X60132705Y-91972705D01*
X60095615Y-92003145D01*
X60053302Y-92025761D01*
X60007378Y-92039692D01*
X59953489Y-92045000D01*
X58706511Y-92045000D01*
X58652622Y-92039692D01*
X58606698Y-92025761D01*
X58564385Y-92003145D01*
X58527295Y-91972705D01*
X58496855Y-91935615D01*
X58474239Y-91893302D01*
X58460308Y-91847378D01*
X58455000Y-91793489D01*
X58455000Y-88546511D01*
X58460308Y-88492622D01*
X58474239Y-88446698D01*
X58496855Y-88404385D01*
X58527295Y-88367295D01*
X58564385Y-88336855D01*
X58606698Y-88314239D01*
X58652622Y-88300308D01*
X58706511Y-88295000D01*
X59953489Y-88295000D01*
X60007378Y-88300308D01*
X60007378Y-88300308D01*
G37*
G36*
X76406997Y-89275997D02*
X76459653Y-89291970D01*
X76508165Y-89317900D01*
X76550696Y-89352804D01*
X76585600Y-89395335D01*
X76611530Y-89443847D01*
X76627503Y-89496503D01*
X76633500Y-89557390D01*
X76633500Y-90782610D01*
X76627503Y-90843497D01*
X76611530Y-90896153D01*
X76585600Y-90944665D01*
X76550696Y-90987196D01*
X76508165Y-91022100D01*
X76459653Y-91048030D01*
X76406997Y-91064003D01*
X76346110Y-91070000D01*
X75545890Y-91070000D01*
X75485003Y-91064003D01*
X75432347Y-91048030D01*
X75383835Y-91022100D01*
X75341304Y-90987196D01*
X75306400Y-90944665D01*
X75280470Y-90896153D01*
X75264497Y-90843497D01*
X75258500Y-90782610D01*
X75258500Y-89557390D01*
X75264497Y-89496503D01*
X75280470Y-89443847D01*
X75306400Y-89395335D01*
X75341304Y-89352804D01*
X75383835Y-89317900D01*
X75432347Y-89291970D01*
X75485003Y-89275997D01*
X75545890Y-89270000D01*
X76346110Y-89270000D01*
X76406997Y-89275997D01*
X76406997Y-89275997D01*
G37*
G36*
X78281997Y-89275997D02*
X78334653Y-89291970D01*
X78383165Y-89317900D01*
X78425696Y-89352804D01*
X78460600Y-89395335D01*
X78486530Y-89443847D01*
X78502503Y-89496503D01*
X78508500Y-89557390D01*
X78508500Y-90782610D01*
X78502503Y-90843497D01*
X78486530Y-90896153D01*
X78460600Y-90944665D01*
X78425696Y-90987196D01*
X78383165Y-91022100D01*
X78334653Y-91048030D01*
X78281997Y-91064003D01*
X78221110Y-91070000D01*
X77420890Y-91070000D01*
X77360003Y-91064003D01*
X77307347Y-91048030D01*
X77258835Y-91022100D01*
X77216304Y-90987196D01*
X77181400Y-90944665D01*
X77155470Y-90896153D01*
X77139497Y-90843497D01*
X77133500Y-90782610D01*
X77133500Y-89557390D01*
X77139497Y-89496503D01*
X77155470Y-89443847D01*
X77181400Y-89395335D01*
X77216304Y-89352804D01*
X77258835Y-89317900D01*
X77307347Y-89291970D01*
X77360003Y-89275997D01*
X77420890Y-89270000D01*
X78221110Y-89270000D01*
X78281997Y-89275997D01*
X78281997Y-89275997D01*
G37*
G36*
X52336451Y-88434627D02*
X52474105Y-88462008D01*
X52646994Y-88533621D01*
X52802590Y-88637587D01*
X52934913Y-88769910D01*
X53038879Y-88925506D01*
X53110492Y-89098395D01*
X53137873Y-89236049D01*
X53144627Y-89270000D01*
X53147000Y-89281933D01*
X53147000Y-89469067D01*
X53110492Y-89652605D01*
X53038879Y-89825494D01*
X52934913Y-89981090D01*
X52802590Y-90113413D01*
X52646994Y-90217379D01*
X52474105Y-90288992D01*
X52336452Y-90316373D01*
X52290568Y-90325500D01*
X52103432Y-90325500D01*
X52057548Y-90316373D01*
X51919895Y-90288992D01*
X51747006Y-90217379D01*
X51591410Y-90113413D01*
X51459087Y-89981090D01*
X51355121Y-89825494D01*
X51283508Y-89652605D01*
X51247000Y-89469067D01*
X51247000Y-89281933D01*
X51249374Y-89270000D01*
X51256127Y-89236049D01*
X51283508Y-89098395D01*
X51355121Y-88925506D01*
X51459087Y-88769910D01*
X51591410Y-88637587D01*
X51747006Y-88533621D01*
X51919895Y-88462008D01*
X52057549Y-88434627D01*
X52103432Y-88425500D01*
X52290568Y-88425500D01*
X52336451Y-88434627D01*
X52336451Y-88434627D01*
G37*
G36*
X73681378Y-84998308D02*
X73727302Y-85012239D01*
X73769615Y-85034855D01*
X73806705Y-85065295D01*
X73837145Y-85102385D01*
X73859761Y-85144698D01*
X73873692Y-85190622D01*
X73879000Y-85244511D01*
X73879000Y-88491489D01*
X73873692Y-88545378D01*
X73859761Y-88591302D01*
X73837145Y-88633615D01*
X73806705Y-88670705D01*
X73769615Y-88701145D01*
X73727302Y-88723761D01*
X73681378Y-88737692D01*
X73627489Y-88743000D01*
X72380511Y-88743000D01*
X72326622Y-88737692D01*
X72280698Y-88723761D01*
X72238385Y-88701145D01*
X72201295Y-88670705D01*
X72170855Y-88633615D01*
X72148239Y-88591302D01*
X72134308Y-88545378D01*
X72129000Y-88491489D01*
X72129000Y-85244511D01*
X72134308Y-85190622D01*
X72148239Y-85144698D01*
X72170855Y-85102385D01*
X72201295Y-85065295D01*
X72238385Y-85034855D01*
X72280698Y-85012239D01*
X72326622Y-84998308D01*
X72380511Y-84993000D01*
X73627489Y-84993000D01*
X73681378Y-84998308D01*
X73681378Y-84998308D01*
G37*
G36*
X67881378Y-84998308D02*
X67927302Y-85012239D01*
X67969615Y-85034855D01*
X68006705Y-85065295D01*
X68037145Y-85102385D01*
X68059761Y-85144698D01*
X68073692Y-85190622D01*
X68079000Y-85244511D01*
X68079000Y-88491489D01*
X68073692Y-88545378D01*
X68059761Y-88591302D01*
X68037145Y-88633615D01*
X68006705Y-88670705D01*
X67969615Y-88701145D01*
X67927302Y-88723761D01*
X67881378Y-88737692D01*
X67827489Y-88743000D01*
X66580511Y-88743000D01*
X66526622Y-88737692D01*
X66480698Y-88723761D01*
X66438385Y-88701145D01*
X66401295Y-88670705D01*
X66370855Y-88633615D01*
X66348239Y-88591302D01*
X66334308Y-88545378D01*
X66329000Y-88491489D01*
X66329000Y-85244511D01*
X66334308Y-85190622D01*
X66348239Y-85144698D01*
X66370855Y-85102385D01*
X66401295Y-85065295D01*
X66438385Y-85034855D01*
X66480698Y-85012239D01*
X66526622Y-84998308D01*
X66580511Y-84993000D01*
X67827489Y-84993000D01*
X67881378Y-84998308D01*
X67881378Y-84998308D01*
G37*
G36*
X118203558Y-86697088D02*
X118355522Y-86760033D01*
X118492284Y-86851415D01*
X118608585Y-86967716D01*
X118699967Y-87104478D01*
X118762912Y-87256442D01*
X118795000Y-87417758D01*
X118795000Y-87582242D01*
X118762912Y-87743558D01*
X118699967Y-87895522D01*
X118608585Y-88032284D01*
X118492284Y-88148585D01*
X118355522Y-88239967D01*
X118203558Y-88302912D01*
X118042242Y-88335000D01*
X117877758Y-88335000D01*
X117716442Y-88302912D01*
X117564478Y-88239967D01*
X117427716Y-88148585D01*
X117311415Y-88032284D01*
X117220033Y-87895522D01*
X117157088Y-87743558D01*
X117125000Y-87582242D01*
X117125000Y-87417758D01*
X117157088Y-87256442D01*
X117220033Y-87104478D01*
X117311415Y-86967716D01*
X117427716Y-86851415D01*
X117564478Y-86760033D01*
X117716442Y-86697088D01*
X117877758Y-86665000D01*
X118042242Y-86665000D01*
X118203558Y-86697088D01*
X118203558Y-86697088D01*
G37*
G36*
X76406997Y-85973997D02*
X76459653Y-85989970D01*
X76508165Y-86015900D01*
X76550696Y-86050804D01*
X76585600Y-86093335D01*
X76611530Y-86141847D01*
X76627503Y-86194503D01*
X76633500Y-86255390D01*
X76633500Y-87480610D01*
X76627503Y-87541497D01*
X76611530Y-87594153D01*
X76585600Y-87642665D01*
X76550696Y-87685196D01*
X76508165Y-87720100D01*
X76459653Y-87746030D01*
X76406997Y-87762003D01*
X76346110Y-87768000D01*
X75545890Y-87768000D01*
X75485003Y-87762003D01*
X75432347Y-87746030D01*
X75383835Y-87720100D01*
X75341304Y-87685196D01*
X75306400Y-87642665D01*
X75280470Y-87594153D01*
X75264497Y-87541497D01*
X75258500Y-87480610D01*
X75258500Y-86255390D01*
X75264497Y-86194503D01*
X75280470Y-86141847D01*
X75306400Y-86093335D01*
X75341304Y-86050804D01*
X75383835Y-86015900D01*
X75432347Y-85989970D01*
X75485003Y-85973997D01*
X75545890Y-85968000D01*
X76346110Y-85968000D01*
X76406997Y-85973997D01*
X76406997Y-85973997D01*
G37*
G36*
X78281997Y-85973997D02*
X78334653Y-85989970D01*
X78383165Y-86015900D01*
X78425696Y-86050804D01*
X78460600Y-86093335D01*
X78486530Y-86141847D01*
X78502503Y-86194503D01*
X78508500Y-86255390D01*
X78508500Y-87480610D01*
X78502503Y-87541497D01*
X78486530Y-87594153D01*
X78460600Y-87642665D01*
X78425696Y-87685196D01*
X78383165Y-87720100D01*
X78334653Y-87746030D01*
X78281997Y-87762003D01*
X78221110Y-87768000D01*
X77420890Y-87768000D01*
X77360003Y-87762003D01*
X77307347Y-87746030D01*
X77258835Y-87720100D01*
X77216304Y-87685196D01*
X77181400Y-87642665D01*
X77155470Y-87594153D01*
X77139497Y-87541497D01*
X77133500Y-87480610D01*
X77133500Y-86255390D01*
X77139497Y-86194503D01*
X77155470Y-86141847D01*
X77181400Y-86093335D01*
X77216304Y-86050804D01*
X77258835Y-86015900D01*
X77307347Y-85989970D01*
X77360003Y-85973997D01*
X77420890Y-85968000D01*
X78221110Y-85968000D01*
X78281997Y-85973997D01*
X78281997Y-85973997D01*
G37*
G36*
X48447793Y-83659437D02*
X48802670Y-83806432D01*
X49122055Y-84019838D01*
X49393662Y-84291445D01*
X49607068Y-84610830D01*
X49754063Y-84965707D01*
X49829000Y-85342440D01*
X49829000Y-85726560D01*
X49754063Y-86103293D01*
X49607068Y-86458170D01*
X49393662Y-86777555D01*
X49122055Y-87049162D01*
X48802670Y-87262568D01*
X48447793Y-87409563D01*
X48071060Y-87484500D01*
X47686940Y-87484500D01*
X47310207Y-87409563D01*
X46955330Y-87262568D01*
X46635945Y-87049162D01*
X46364338Y-86777555D01*
X46150932Y-86458170D01*
X46003937Y-86103293D01*
X45929000Y-85726560D01*
X45929000Y-85342440D01*
X46003937Y-84965707D01*
X46150932Y-84610830D01*
X46364338Y-84291445D01*
X46635945Y-84019838D01*
X46955330Y-83806432D01*
X47310207Y-83659437D01*
X47686940Y-83584500D01*
X48071060Y-83584500D01*
X48447793Y-83659437D01*
X48447793Y-83659437D01*
G37*
G36*
X52315689Y-85430497D02*
X52474105Y-85462008D01*
X52646994Y-85533621D01*
X52802590Y-85637587D01*
X52934913Y-85769910D01*
X53038879Y-85925506D01*
X53110492Y-86098395D01*
X53147000Y-86281933D01*
X53147000Y-86469067D01*
X53110492Y-86652605D01*
X53038879Y-86825494D01*
X52934913Y-86981090D01*
X52802590Y-87113413D01*
X52646994Y-87217379D01*
X52474105Y-87288992D01*
X52336451Y-87316373D01*
X52290568Y-87325500D01*
X52103432Y-87325500D01*
X52057549Y-87316373D01*
X51919895Y-87288992D01*
X51747006Y-87217379D01*
X51591410Y-87113413D01*
X51459087Y-86981090D01*
X51355121Y-86825494D01*
X51283508Y-86652605D01*
X51247000Y-86469067D01*
X51247000Y-86281933D01*
X51283508Y-86098395D01*
X51355121Y-85925506D01*
X51459087Y-85769910D01*
X51591410Y-85637587D01*
X51747006Y-85533621D01*
X51919895Y-85462008D01*
X52078311Y-85430497D01*
X52103432Y-85425500D01*
X52290568Y-85425500D01*
X52315689Y-85430497D01*
X52315689Y-85430497D01*
G37*
G36*
X116125888Y-83454470D02*
X116306274Y-83490350D01*
X116497362Y-83569502D01*
X116669336Y-83684411D01*
X116815589Y-83830664D01*
X116930498Y-84002638D01*
X117009650Y-84193726D01*
X117038877Y-84340665D01*
X117050000Y-84396583D01*
X117050000Y-84603417D01*
X117048525Y-84610830D01*
X117009650Y-84806274D01*
X116930498Y-84997362D01*
X116815589Y-85169336D01*
X116669336Y-85315589D01*
X116497362Y-85430498D01*
X116306274Y-85509650D01*
X116125888Y-85545530D01*
X116103417Y-85550000D01*
X115896583Y-85550000D01*
X115874112Y-85545530D01*
X115693726Y-85509650D01*
X115502638Y-85430498D01*
X115330664Y-85315589D01*
X115184411Y-85169336D01*
X115069502Y-84997362D01*
X114990350Y-84806274D01*
X114951475Y-84610830D01*
X114950000Y-84603417D01*
X114950000Y-84396583D01*
X114961123Y-84340665D01*
X114990350Y-84193726D01*
X115069502Y-84002638D01*
X115184411Y-83830664D01*
X115330664Y-83684411D01*
X115502638Y-83569502D01*
X115693726Y-83490350D01*
X115874112Y-83454470D01*
X115896583Y-83450000D01*
X116103417Y-83450000D01*
X116125888Y-83454470D01*
X116125888Y-83454470D01*
G37*
G36*
X65807378Y-81696308D02*
X65853302Y-81710239D01*
X65895615Y-81732855D01*
X65932705Y-81763295D01*
X65963145Y-81800385D01*
X65985761Y-81842698D01*
X65999692Y-81888622D01*
X66005000Y-81942511D01*
X66005000Y-85189489D01*
X65999692Y-85243378D01*
X65985761Y-85289302D01*
X65963145Y-85331615D01*
X65932705Y-85368705D01*
X65895615Y-85399145D01*
X65853302Y-85421761D01*
X65807378Y-85435692D01*
X65753489Y-85441000D01*
X64506511Y-85441000D01*
X64452622Y-85435692D01*
X64406698Y-85421761D01*
X64364385Y-85399145D01*
X64327295Y-85368705D01*
X64296855Y-85331615D01*
X64274239Y-85289302D01*
X64260308Y-85243378D01*
X64255000Y-85189489D01*
X64255000Y-81942511D01*
X64260308Y-81888622D01*
X64274239Y-81842698D01*
X64296855Y-81800385D01*
X64327295Y-81763295D01*
X64364385Y-81732855D01*
X64406698Y-81710239D01*
X64452622Y-81696308D01*
X64506511Y-81691000D01*
X65753489Y-81691000D01*
X65807378Y-81696308D01*
X65807378Y-81696308D01*
G37*
G36*
X60007378Y-81696308D02*
X60053302Y-81710239D01*
X60095615Y-81732855D01*
X60132705Y-81763295D01*
X60163145Y-81800385D01*
X60185761Y-81842698D01*
X60199692Y-81888622D01*
X60205000Y-81942511D01*
X60205000Y-85189489D01*
X60199692Y-85243378D01*
X60185761Y-85289302D01*
X60163145Y-85331615D01*
X60132705Y-85368705D01*
X60095615Y-85399145D01*
X60053302Y-85421761D01*
X60007378Y-85435692D01*
X59953489Y-85441000D01*
X58706511Y-85441000D01*
X58652622Y-85435692D01*
X58606698Y-85421761D01*
X58564385Y-85399145D01*
X58527295Y-85368705D01*
X58496855Y-85331615D01*
X58474239Y-85289302D01*
X58460308Y-85243378D01*
X58455000Y-85189489D01*
X58455000Y-81942511D01*
X58460308Y-81888622D01*
X58474239Y-81842698D01*
X58496855Y-81800385D01*
X58527295Y-81763295D01*
X58564385Y-81732855D01*
X58606698Y-81710239D01*
X58652622Y-81696308D01*
X58706511Y-81691000D01*
X59953489Y-81691000D01*
X60007378Y-81696308D01*
X60007378Y-81696308D01*
G37*
G36*
X78281997Y-82671997D02*
X78334653Y-82687970D01*
X78383165Y-82713900D01*
X78425696Y-82748804D01*
X78460600Y-82791335D01*
X78486530Y-82839847D01*
X78502503Y-82892503D01*
X78508500Y-82953390D01*
X78508500Y-84178610D01*
X78502503Y-84239497D01*
X78486530Y-84292153D01*
X78460600Y-84340665D01*
X78425696Y-84383196D01*
X78383165Y-84418100D01*
X78334653Y-84444030D01*
X78281997Y-84460003D01*
X78221110Y-84466000D01*
X77420890Y-84466000D01*
X77360003Y-84460003D01*
X77307347Y-84444030D01*
X77258835Y-84418100D01*
X77216304Y-84383196D01*
X77181400Y-84340665D01*
X77155470Y-84292153D01*
X77139497Y-84239497D01*
X77133500Y-84178610D01*
X77133500Y-82953390D01*
X77139497Y-82892503D01*
X77155470Y-82839847D01*
X77181400Y-82791335D01*
X77216304Y-82748804D01*
X77258835Y-82713900D01*
X77307347Y-82687970D01*
X77360003Y-82671997D01*
X77420890Y-82666000D01*
X78221110Y-82666000D01*
X78281997Y-82671997D01*
X78281997Y-82671997D01*
G37*
G36*
X76406997Y-82671997D02*
X76459653Y-82687970D01*
X76508165Y-82713900D01*
X76550696Y-82748804D01*
X76585600Y-82791335D01*
X76611530Y-82839847D01*
X76627503Y-82892503D01*
X76633500Y-82953390D01*
X76633500Y-84178610D01*
X76627503Y-84239497D01*
X76611530Y-84292153D01*
X76585600Y-84340665D01*
X76550696Y-84383196D01*
X76508165Y-84418100D01*
X76459653Y-84444030D01*
X76406997Y-84460003D01*
X76346110Y-84466000D01*
X75545890Y-84466000D01*
X75485003Y-84460003D01*
X75432347Y-84444030D01*
X75383835Y-84418100D01*
X75341304Y-84383196D01*
X75306400Y-84340665D01*
X75280470Y-84292153D01*
X75264497Y-84239497D01*
X75258500Y-84178610D01*
X75258500Y-82953390D01*
X75264497Y-82892503D01*
X75280470Y-82839847D01*
X75306400Y-82791335D01*
X75341304Y-82748804D01*
X75383835Y-82713900D01*
X75432347Y-82687970D01*
X75485003Y-82671997D01*
X75545890Y-82666000D01*
X76346110Y-82666000D01*
X76406997Y-82671997D01*
X76406997Y-82671997D01*
G37*
G36*
X52315689Y-82430497D02*
X52474105Y-82462008D01*
X52646994Y-82533621D01*
X52802590Y-82637587D01*
X52934913Y-82769910D01*
X53038879Y-82925506D01*
X53110492Y-83098395D01*
X53147000Y-83281933D01*
X53147000Y-83469067D01*
X53110492Y-83652605D01*
X53038879Y-83825494D01*
X52934913Y-83981090D01*
X52802590Y-84113413D01*
X52646994Y-84217379D01*
X52474105Y-84288992D01*
X52336451Y-84316373D01*
X52290568Y-84325500D01*
X52103432Y-84325500D01*
X52057549Y-84316373D01*
X51919895Y-84288992D01*
X51747006Y-84217379D01*
X51591410Y-84113413D01*
X51459087Y-83981090D01*
X51355121Y-83825494D01*
X51283508Y-83652605D01*
X51247000Y-83469067D01*
X51247000Y-83281933D01*
X51283508Y-83098395D01*
X51355121Y-82925506D01*
X51459087Y-82769910D01*
X51591410Y-82637587D01*
X51747006Y-82533621D01*
X51919895Y-82462008D01*
X52078311Y-82430497D01*
X52103432Y-82425500D01*
X52290568Y-82425500D01*
X52315689Y-82430497D01*
X52315689Y-82430497D01*
G37*
G36*
X116125888Y-80454470D02*
X116306274Y-80490350D01*
X116497362Y-80569502D01*
X116669336Y-80684411D01*
X116815589Y-80830664D01*
X116930498Y-81002638D01*
X117009650Y-81193726D01*
X117050000Y-81396584D01*
X117050000Y-81603416D01*
X117009650Y-81806274D01*
X116930498Y-81997362D01*
X116815589Y-82169336D01*
X116669336Y-82315589D01*
X116497362Y-82430498D01*
X116306274Y-82509650D01*
X116125888Y-82545530D01*
X116103417Y-82550000D01*
X115896583Y-82550000D01*
X115874112Y-82545530D01*
X115693726Y-82509650D01*
X115502638Y-82430498D01*
X115330664Y-82315589D01*
X115184411Y-82169336D01*
X115069502Y-81997362D01*
X114990350Y-81806274D01*
X114950000Y-81603416D01*
X114950000Y-81396584D01*
X114990350Y-81193726D01*
X115069502Y-81002638D01*
X115184411Y-80830664D01*
X115330664Y-80684411D01*
X115502638Y-80569502D01*
X115693726Y-80490350D01*
X115874112Y-80454470D01*
X115896583Y-80450000D01*
X116103417Y-80450000D01*
X116125888Y-80454470D01*
X116125888Y-80454470D01*
G37*
G36*
X73681378Y-78394308D02*
X73727302Y-78408239D01*
X73769615Y-78430855D01*
X73806705Y-78461295D01*
X73837145Y-78498385D01*
X73859761Y-78540698D01*
X73873692Y-78586622D01*
X73879000Y-78640511D01*
X73879000Y-81887489D01*
X73873692Y-81941378D01*
X73859761Y-81987302D01*
X73837145Y-82029615D01*
X73806705Y-82066705D01*
X73769615Y-82097145D01*
X73727302Y-82119761D01*
X73681378Y-82133692D01*
X73627489Y-82139000D01*
X72380511Y-82139000D01*
X72326622Y-82133692D01*
X72280698Y-82119761D01*
X72238385Y-82097145D01*
X72201295Y-82066705D01*
X72170855Y-82029615D01*
X72148239Y-81987302D01*
X72134308Y-81941378D01*
X72129000Y-81887489D01*
X72129000Y-78640511D01*
X72134308Y-78586622D01*
X72148239Y-78540698D01*
X72170855Y-78498385D01*
X72201295Y-78461295D01*
X72238385Y-78430855D01*
X72280698Y-78408239D01*
X72326622Y-78394308D01*
X72380511Y-78389000D01*
X73627489Y-78389000D01*
X73681378Y-78394308D01*
X73681378Y-78394308D01*
G37*
G36*
X67881378Y-78394308D02*
X67927302Y-78408239D01*
X67969615Y-78430855D01*
X68006705Y-78461295D01*
X68037145Y-78498385D01*
X68059761Y-78540698D01*
X68073692Y-78586622D01*
X68079000Y-78640511D01*
X68079000Y-81887489D01*
X68073692Y-81941378D01*
X68059761Y-81987302D01*
X68037145Y-82029615D01*
X68006705Y-82066705D01*
X67969615Y-82097145D01*
X67927302Y-82119761D01*
X67881378Y-82133692D01*
X67827489Y-82139000D01*
X66580511Y-82139000D01*
X66526622Y-82133692D01*
X66480698Y-82119761D01*
X66438385Y-82097145D01*
X66401295Y-82066705D01*
X66370855Y-82029615D01*
X66348239Y-81987302D01*
X66334308Y-81941378D01*
X66329000Y-81887489D01*
X66329000Y-78640511D01*
X66334308Y-78586622D01*
X66348239Y-78540698D01*
X66370855Y-78498385D01*
X66401295Y-78461295D01*
X66438385Y-78430855D01*
X66480698Y-78408239D01*
X66526622Y-78394308D01*
X66580511Y-78389000D01*
X67827489Y-78389000D01*
X67881378Y-78394308D01*
X67881378Y-78394308D01*
G37*
G36*
X76406997Y-79369997D02*
X76459653Y-79385970D01*
X76508165Y-79411900D01*
X76550696Y-79446804D01*
X76585600Y-79489335D01*
X76611530Y-79537847D01*
X76627503Y-79590503D01*
X76633500Y-79651390D01*
X76633500Y-80876610D01*
X76627503Y-80937497D01*
X76611530Y-80990153D01*
X76585600Y-81038665D01*
X76550696Y-81081196D01*
X76508165Y-81116100D01*
X76459653Y-81142030D01*
X76406997Y-81158003D01*
X76346110Y-81164000D01*
X75545890Y-81164000D01*
X75485003Y-81158003D01*
X75432347Y-81142030D01*
X75383835Y-81116100D01*
X75341304Y-81081196D01*
X75306400Y-81038665D01*
X75280470Y-80990153D01*
X75264497Y-80937497D01*
X75258500Y-80876610D01*
X75258500Y-79651390D01*
X75264497Y-79590503D01*
X75280470Y-79537847D01*
X75306400Y-79489335D01*
X75341304Y-79446804D01*
X75383835Y-79411900D01*
X75432347Y-79385970D01*
X75485003Y-79369997D01*
X75545890Y-79364000D01*
X76346110Y-79364000D01*
X76406997Y-79369997D01*
X76406997Y-79369997D01*
G37*
G36*
X78281997Y-79369997D02*
X78334653Y-79385970D01*
X78383165Y-79411900D01*
X78425696Y-79446804D01*
X78460600Y-79489335D01*
X78486530Y-79537847D01*
X78502503Y-79590503D01*
X78508500Y-79651390D01*
X78508500Y-80876610D01*
X78502503Y-80937497D01*
X78486530Y-80990153D01*
X78460600Y-81038665D01*
X78425696Y-81081196D01*
X78383165Y-81116100D01*
X78334653Y-81142030D01*
X78281997Y-81158003D01*
X78221110Y-81164000D01*
X77420890Y-81164000D01*
X77360003Y-81158003D01*
X77307347Y-81142030D01*
X77258835Y-81116100D01*
X77216304Y-81081196D01*
X77181400Y-81038665D01*
X77155470Y-80990153D01*
X77139497Y-80937497D01*
X77133500Y-80876610D01*
X77133500Y-79651390D01*
X77139497Y-79590503D01*
X77155470Y-79537847D01*
X77181400Y-79489335D01*
X77216304Y-79446804D01*
X77258835Y-79411900D01*
X77307347Y-79385970D01*
X77360003Y-79369997D01*
X77420890Y-79364000D01*
X78221110Y-79364000D01*
X78281997Y-79369997D01*
X78281997Y-79369997D01*
G37*
G36*
X118203558Y-77697088D02*
X118355522Y-77760033D01*
X118492284Y-77851415D01*
X118608585Y-77967716D01*
X118699967Y-78104478D01*
X118762912Y-78256442D01*
X118795000Y-78417758D01*
X118795000Y-78582242D01*
X118762912Y-78743558D01*
X118699967Y-78895522D01*
X118608585Y-79032284D01*
X118492284Y-79148585D01*
X118355522Y-79239967D01*
X118203558Y-79302912D01*
X118042242Y-79335000D01*
X117877758Y-79335000D01*
X117716442Y-79302912D01*
X117564478Y-79239967D01*
X117427716Y-79148585D01*
X117311415Y-79032284D01*
X117220033Y-78895522D01*
X117157088Y-78743558D01*
X117125000Y-78582242D01*
X117125000Y-78417758D01*
X117157088Y-78256442D01*
X117220033Y-78104478D01*
X117311415Y-77967716D01*
X117427716Y-77851415D01*
X117564478Y-77760033D01*
X117716442Y-77697088D01*
X117877758Y-77665000D01*
X118042242Y-77665000D01*
X118203558Y-77697088D01*
X118203558Y-77697088D01*
G37*
G36*
X65807378Y-75092308D02*
X65853302Y-75106239D01*
X65895615Y-75128855D01*
X65932705Y-75159295D01*
X65963145Y-75196385D01*
X65985761Y-75238698D01*
X65999692Y-75284622D01*
X66005000Y-75338511D01*
X66005000Y-78585489D01*
X65999692Y-78639378D01*
X65985761Y-78685302D01*
X65963145Y-78727615D01*
X65932705Y-78764705D01*
X65895615Y-78795145D01*
X65853302Y-78817761D01*
X65807378Y-78831692D01*
X65753489Y-78837000D01*
X64506511Y-78837000D01*
X64452622Y-78831692D01*
X64406698Y-78817761D01*
X64364385Y-78795145D01*
X64327295Y-78764705D01*
X64296855Y-78727615D01*
X64274239Y-78685302D01*
X64260308Y-78639378D01*
X64255000Y-78585489D01*
X64255000Y-75338511D01*
X64260308Y-75284622D01*
X64274239Y-75238698D01*
X64296855Y-75196385D01*
X64327295Y-75159295D01*
X64364385Y-75128855D01*
X64406698Y-75106239D01*
X64452622Y-75092308D01*
X64506511Y-75087000D01*
X65753489Y-75087000D01*
X65807378Y-75092308D01*
X65807378Y-75092308D01*
G37*
G36*
X60007378Y-75092308D02*
X60053302Y-75106239D01*
X60095615Y-75128855D01*
X60132705Y-75159295D01*
X60163145Y-75196385D01*
X60185761Y-75238698D01*
X60199692Y-75284622D01*
X60205000Y-75338511D01*
X60205000Y-78585489D01*
X60199692Y-78639378D01*
X60185761Y-78685302D01*
X60163145Y-78727615D01*
X60132705Y-78764705D01*
X60095615Y-78795145D01*
X60053302Y-78817761D01*
X60007378Y-78831692D01*
X59953489Y-78837000D01*
X58706511Y-78837000D01*
X58652622Y-78831692D01*
X58606698Y-78817761D01*
X58564385Y-78795145D01*
X58527295Y-78764705D01*
X58496855Y-78727615D01*
X58474239Y-78685302D01*
X58460308Y-78639378D01*
X58455000Y-78585489D01*
X58455000Y-75338511D01*
X58460308Y-75284622D01*
X58474239Y-75238698D01*
X58496855Y-75196385D01*
X58527295Y-75159295D01*
X58564385Y-75128855D01*
X58606698Y-75106239D01*
X58652622Y-75092308D01*
X58706511Y-75087000D01*
X59953489Y-75087000D01*
X60007378Y-75092308D01*
X60007378Y-75092308D01*
G37*
G36*
X78281997Y-76067997D02*
X78334653Y-76083970D01*
X78383165Y-76109900D01*
X78425696Y-76144804D01*
X78460600Y-76187335D01*
X78486530Y-76235847D01*
X78502503Y-76288503D01*
X78508500Y-76349390D01*
X78508500Y-77574610D01*
X78502503Y-77635497D01*
X78486530Y-77688153D01*
X78460600Y-77736665D01*
X78425696Y-77779196D01*
X78383165Y-77814100D01*
X78334653Y-77840030D01*
X78281997Y-77856003D01*
X78221110Y-77862000D01*
X77420890Y-77862000D01*
X77360003Y-77856003D01*
X77307347Y-77840030D01*
X77258835Y-77814100D01*
X77216304Y-77779196D01*
X77181400Y-77736665D01*
X77155470Y-77688153D01*
X77139497Y-77635497D01*
X77133500Y-77574610D01*
X77133500Y-76349390D01*
X77139497Y-76288503D01*
X77155470Y-76235847D01*
X77181400Y-76187335D01*
X77216304Y-76144804D01*
X77258835Y-76109900D01*
X77307347Y-76083970D01*
X77360003Y-76067997D01*
X77420890Y-76062000D01*
X78221110Y-76062000D01*
X78281997Y-76067997D01*
X78281997Y-76067997D01*
G37*
G36*
X76406997Y-76067997D02*
X76459653Y-76083970D01*
X76508165Y-76109900D01*
X76550696Y-76144804D01*
X76585600Y-76187335D01*
X76611530Y-76235847D01*
X76627503Y-76288503D01*
X76633500Y-76349390D01*
X76633500Y-77574610D01*
X76627503Y-77635497D01*
X76611530Y-77688153D01*
X76585600Y-77736665D01*
X76550696Y-77779196D01*
X76508165Y-77814100D01*
X76459653Y-77840030D01*
X76406997Y-77856003D01*
X76346110Y-77862000D01*
X75545890Y-77862000D01*
X75485003Y-77856003D01*
X75432347Y-77840030D01*
X75383835Y-77814100D01*
X75341304Y-77779196D01*
X75306400Y-77736665D01*
X75280470Y-77688153D01*
X75264497Y-77635497D01*
X75258500Y-77574610D01*
X75258500Y-76349390D01*
X75264497Y-76288503D01*
X75280470Y-76235847D01*
X75306400Y-76187335D01*
X75341304Y-76144804D01*
X75383835Y-76109900D01*
X75432347Y-76083970D01*
X75485003Y-76067997D01*
X75545890Y-76062000D01*
X76346110Y-76062000D01*
X76406997Y-76067997D01*
X76406997Y-76067997D01*
G37*
G36*
X110110707Y-75665597D02*
X110187836Y-75673193D01*
X110309173Y-75710000D01*
X110385763Y-75733233D01*
X110568172Y-75830733D01*
X110728054Y-75961946D01*
X110859267Y-76121828D01*
X110956767Y-76304237D01*
X110956767Y-76304238D01*
X111016807Y-76502164D01*
X111037080Y-76708000D01*
X111016807Y-76913836D01*
X110976780Y-77045787D01*
X110956767Y-77111763D01*
X110859267Y-77294172D01*
X110728054Y-77454054D01*
X110568172Y-77585267D01*
X110385763Y-77682767D01*
X110368007Y-77688153D01*
X110187836Y-77742807D01*
X110110707Y-77750404D01*
X110033580Y-77758000D01*
X109930420Y-77758000D01*
X109853293Y-77750404D01*
X109776164Y-77742807D01*
X109595993Y-77688153D01*
X109578237Y-77682767D01*
X109395828Y-77585267D01*
X109235946Y-77454054D01*
X109104733Y-77294172D01*
X109007233Y-77111763D01*
X108987220Y-77045787D01*
X108947193Y-76913836D01*
X108926920Y-76708000D01*
X108947193Y-76502164D01*
X109007233Y-76304238D01*
X109007233Y-76304237D01*
X109104733Y-76121828D01*
X109235946Y-75961946D01*
X109395828Y-75830733D01*
X109578237Y-75733233D01*
X109654827Y-75710000D01*
X109776164Y-75673193D01*
X109853293Y-75665597D01*
X109930420Y-75658000D01*
X110033580Y-75658000D01*
X110110707Y-75665597D01*
X110110707Y-75665597D01*
G37*
G36*
X52336451Y-75417127D02*
X52474105Y-75444508D01*
X52646994Y-75516121D01*
X52802590Y-75620087D01*
X52934913Y-75752410D01*
X53038879Y-75908006D01*
X53110492Y-76080895D01*
X53147000Y-76264433D01*
X53147000Y-76451567D01*
X53110492Y-76635105D01*
X53038879Y-76807994D01*
X52934913Y-76963590D01*
X52802590Y-77095913D01*
X52646994Y-77199879D01*
X52474105Y-77271492D01*
X52336452Y-77298873D01*
X52290568Y-77308000D01*
X52103432Y-77308000D01*
X52057548Y-77298873D01*
X51919895Y-77271492D01*
X51747006Y-77199879D01*
X51591410Y-77095913D01*
X51459087Y-76963590D01*
X51355121Y-76807994D01*
X51283508Y-76635105D01*
X51247000Y-76451567D01*
X51247000Y-76264433D01*
X51283508Y-76080895D01*
X51355121Y-75908006D01*
X51459087Y-75752410D01*
X51591410Y-75620087D01*
X51747006Y-75516121D01*
X51919895Y-75444508D01*
X52057549Y-75417127D01*
X52103432Y-75408000D01*
X52290568Y-75408000D01*
X52336451Y-75417127D01*
X52336451Y-75417127D01*
G37*
G36*
X48447793Y-72323937D02*
X48802670Y-72470932D01*
X49122055Y-72684338D01*
X49393662Y-72955945D01*
X49607068Y-73275330D01*
X49754063Y-73630207D01*
X49829000Y-74006940D01*
X49829000Y-74391060D01*
X49754063Y-74767793D01*
X49607068Y-75122670D01*
X49393662Y-75442055D01*
X49122055Y-75713662D01*
X48802670Y-75927068D01*
X48447793Y-76074063D01*
X48071060Y-76149000D01*
X47686940Y-76149000D01*
X47310207Y-76074063D01*
X46955330Y-75927068D01*
X46635945Y-75713662D01*
X46364338Y-75442055D01*
X46150932Y-75122670D01*
X46003937Y-74767793D01*
X45929000Y-74391060D01*
X45929000Y-74006940D01*
X46003937Y-73630207D01*
X46150932Y-73275330D01*
X46364338Y-72955945D01*
X46635945Y-72684338D01*
X46955330Y-72470932D01*
X47310207Y-72323937D01*
X47686940Y-72249000D01*
X48071060Y-72249000D01*
X48447793Y-72323937D01*
X48447793Y-72323937D01*
G37*
G36*
X118050000Y-75710000D02*
X115950000Y-75710000D01*
X115950000Y-73610000D01*
X118050000Y-73610000D01*
X118050000Y-75710000D01*
X118050000Y-75710000D01*
G37*
G36*
X73681378Y-71790308D02*
X73727302Y-71804239D01*
X73769615Y-71826855D01*
X73806705Y-71857295D01*
X73837145Y-71894385D01*
X73859761Y-71936698D01*
X73873692Y-71982622D01*
X73879000Y-72036511D01*
X73879000Y-75283489D01*
X73873692Y-75337378D01*
X73859761Y-75383302D01*
X73837145Y-75425615D01*
X73806705Y-75462705D01*
X73769615Y-75493145D01*
X73727302Y-75515761D01*
X73681378Y-75529692D01*
X73627489Y-75535000D01*
X72380511Y-75535000D01*
X72326622Y-75529692D01*
X72280698Y-75515761D01*
X72238385Y-75493145D01*
X72201295Y-75462705D01*
X72170855Y-75425615D01*
X72148239Y-75383302D01*
X72134308Y-75337378D01*
X72129000Y-75283489D01*
X72129000Y-72036511D01*
X72134308Y-71982622D01*
X72148239Y-71936698D01*
X72170855Y-71894385D01*
X72201295Y-71857295D01*
X72238385Y-71826855D01*
X72280698Y-71804239D01*
X72326622Y-71790308D01*
X72380511Y-71785000D01*
X73627489Y-71785000D01*
X73681378Y-71790308D01*
X73681378Y-71790308D01*
G37*
G36*
X67881378Y-71790308D02*
X67927302Y-71804239D01*
X67969615Y-71826855D01*
X68006705Y-71857295D01*
X68037145Y-71894385D01*
X68059761Y-71936698D01*
X68073692Y-71982622D01*
X68079000Y-72036511D01*
X68079000Y-75283489D01*
X68073692Y-75337378D01*
X68059761Y-75383302D01*
X68037145Y-75425615D01*
X68006705Y-75462705D01*
X67969615Y-75493145D01*
X67927302Y-75515761D01*
X67881378Y-75529692D01*
X67827489Y-75535000D01*
X66580511Y-75535000D01*
X66526622Y-75529692D01*
X66480698Y-75515761D01*
X66438385Y-75493145D01*
X66401295Y-75462705D01*
X66370855Y-75425615D01*
X66348239Y-75383302D01*
X66334308Y-75337378D01*
X66329000Y-75283489D01*
X66329000Y-72036511D01*
X66334308Y-71982622D01*
X66348239Y-71936698D01*
X66370855Y-71894385D01*
X66401295Y-71857295D01*
X66438385Y-71826855D01*
X66480698Y-71804239D01*
X66526622Y-71790308D01*
X66580511Y-71785000D01*
X67827489Y-71785000D01*
X67881378Y-71790308D01*
X67881378Y-71790308D01*
G37*
G36*
X110110707Y-73125597D02*
X110187836Y-73133193D01*
X110309173Y-73170000D01*
X110385763Y-73193233D01*
X110568172Y-73290733D01*
X110728054Y-73421946D01*
X110859267Y-73581828D01*
X110956767Y-73764237D01*
X110956767Y-73764238D01*
X111016807Y-73962164D01*
X111037080Y-74168000D01*
X111016807Y-74373836D01*
X110990876Y-74459318D01*
X110956767Y-74571763D01*
X110859267Y-74754172D01*
X110728054Y-74914054D01*
X110568172Y-75045267D01*
X110385763Y-75142767D01*
X110331276Y-75159295D01*
X110187836Y-75202807D01*
X110110707Y-75210404D01*
X110033580Y-75218000D01*
X109930420Y-75218000D01*
X109853293Y-75210404D01*
X109776164Y-75202807D01*
X109632724Y-75159295D01*
X109578237Y-75142767D01*
X109395828Y-75045267D01*
X109235946Y-74914054D01*
X109104733Y-74754172D01*
X109007233Y-74571763D01*
X108973124Y-74459318D01*
X108947193Y-74373836D01*
X108926920Y-74168000D01*
X108947193Y-73962164D01*
X109007233Y-73764238D01*
X109007233Y-73764237D01*
X109104733Y-73581828D01*
X109235946Y-73421946D01*
X109395828Y-73290733D01*
X109578237Y-73193233D01*
X109654827Y-73170000D01*
X109776164Y-73133193D01*
X109853293Y-73125597D01*
X109930420Y-73118000D01*
X110033580Y-73118000D01*
X110110707Y-73125597D01*
X110110707Y-73125597D01*
G37*
G36*
X76406997Y-72765997D02*
X76459653Y-72781970D01*
X76508165Y-72807900D01*
X76550696Y-72842804D01*
X76585600Y-72885335D01*
X76611530Y-72933847D01*
X76627503Y-72986503D01*
X76633500Y-73047390D01*
X76633500Y-74272610D01*
X76627503Y-74333497D01*
X76611530Y-74386153D01*
X76585600Y-74434665D01*
X76550696Y-74477196D01*
X76508165Y-74512100D01*
X76459653Y-74538030D01*
X76406997Y-74554003D01*
X76346110Y-74560000D01*
X75545890Y-74560000D01*
X75485003Y-74554003D01*
X75432347Y-74538030D01*
X75383835Y-74512100D01*
X75341304Y-74477196D01*
X75306400Y-74434665D01*
X75280470Y-74386153D01*
X75264497Y-74333497D01*
X75258500Y-74272610D01*
X75258500Y-73047390D01*
X75264497Y-72986503D01*
X75280470Y-72933847D01*
X75306400Y-72885335D01*
X75341304Y-72842804D01*
X75383835Y-72807900D01*
X75432347Y-72781970D01*
X75485003Y-72765997D01*
X75545890Y-72760000D01*
X76346110Y-72760000D01*
X76406997Y-72765997D01*
X76406997Y-72765997D01*
G37*
G36*
X78281997Y-72765997D02*
X78334653Y-72781970D01*
X78383165Y-72807900D01*
X78425696Y-72842804D01*
X78460600Y-72885335D01*
X78486530Y-72933847D01*
X78502503Y-72986503D01*
X78508500Y-73047390D01*
X78508500Y-74272610D01*
X78502503Y-74333497D01*
X78486530Y-74386153D01*
X78460600Y-74434665D01*
X78425696Y-74477196D01*
X78383165Y-74512100D01*
X78334653Y-74538030D01*
X78281997Y-74554003D01*
X78221110Y-74560000D01*
X77420890Y-74560000D01*
X77360003Y-74554003D01*
X77307347Y-74538030D01*
X77258835Y-74512100D01*
X77216304Y-74477196D01*
X77181400Y-74434665D01*
X77155470Y-74386153D01*
X77139497Y-74333497D01*
X77133500Y-74272610D01*
X77133500Y-73047390D01*
X77139497Y-72986503D01*
X77155470Y-72933847D01*
X77181400Y-72885335D01*
X77216304Y-72842804D01*
X77258835Y-72807900D01*
X77307347Y-72781970D01*
X77360003Y-72765997D01*
X77420890Y-72760000D01*
X78221110Y-72760000D01*
X78281997Y-72765997D01*
X78281997Y-72765997D01*
G37*
G36*
X52336452Y-72417127D02*
X52474105Y-72444508D01*
X52646994Y-72516121D01*
X52802590Y-72620087D01*
X52934913Y-72752410D01*
X53038879Y-72908006D01*
X53110492Y-73080895D01*
X53147000Y-73264433D01*
X53147000Y-73451567D01*
X53110492Y-73635105D01*
X53038879Y-73807994D01*
X52934913Y-73963590D01*
X52802590Y-74095913D01*
X52646994Y-74199879D01*
X52474105Y-74271492D01*
X52336451Y-74298873D01*
X52290568Y-74308000D01*
X52103432Y-74308000D01*
X52057549Y-74298873D01*
X51919895Y-74271492D01*
X51747006Y-74199879D01*
X51591410Y-74095913D01*
X51459087Y-73963590D01*
X51355121Y-73807994D01*
X51283508Y-73635105D01*
X51247000Y-73451567D01*
X51247000Y-73264433D01*
X51283508Y-73080895D01*
X51355121Y-72908006D01*
X51459087Y-72752410D01*
X51591410Y-72620087D01*
X51747006Y-72516121D01*
X51919895Y-72444508D01*
X52057548Y-72417127D01*
X52103432Y-72408000D01*
X52290568Y-72408000D01*
X52336452Y-72417127D01*
X52336452Y-72417127D01*
G37*
G36*
X117128707Y-71077597D02*
X117205836Y-71085193D01*
X117337787Y-71125220D01*
X117403763Y-71145233D01*
X117586172Y-71242733D01*
X117746054Y-71373946D01*
X117877267Y-71533828D01*
X117974767Y-71716237D01*
X117974767Y-71716238D01*
X118034807Y-71914164D01*
X118055080Y-72120000D01*
X118034807Y-72325836D01*
X118009883Y-72408000D01*
X117974767Y-72523763D01*
X117877267Y-72706172D01*
X117746054Y-72866054D01*
X117586172Y-72997267D01*
X117403763Y-73094767D01*
X117374149Y-73103750D01*
X117205836Y-73154807D01*
X117128707Y-73162404D01*
X117051580Y-73170000D01*
X116948420Y-73170000D01*
X116871293Y-73162404D01*
X116794164Y-73154807D01*
X116625851Y-73103750D01*
X116596237Y-73094767D01*
X116413828Y-72997267D01*
X116253946Y-72866054D01*
X116122733Y-72706172D01*
X116025233Y-72523763D01*
X115990117Y-72408000D01*
X115965193Y-72325836D01*
X115944920Y-72120000D01*
X115965193Y-71914164D01*
X116025233Y-71716238D01*
X116025233Y-71716237D01*
X116122733Y-71533828D01*
X116253946Y-71373946D01*
X116413828Y-71242733D01*
X116596237Y-71145233D01*
X116662213Y-71125220D01*
X116794164Y-71085193D01*
X116871293Y-71077597D01*
X116948420Y-71070000D01*
X117051580Y-71070000D01*
X117128707Y-71077597D01*
X117128707Y-71077597D01*
G37*
G36*
X111032000Y-72678000D02*
X108932000Y-72678000D01*
X108932000Y-70578000D01*
X111032000Y-70578000D01*
X111032000Y-72678000D01*
X111032000Y-72678000D01*
G37*
G36*
X60007378Y-68488308D02*
X60053302Y-68502239D01*
X60095615Y-68524855D01*
X60132705Y-68555295D01*
X60163145Y-68592385D01*
X60185761Y-68634698D01*
X60199692Y-68680622D01*
X60205000Y-68734511D01*
X60205000Y-71981489D01*
X60199692Y-72035378D01*
X60185761Y-72081302D01*
X60163145Y-72123615D01*
X60132705Y-72160705D01*
X60095615Y-72191145D01*
X60053302Y-72213761D01*
X60007378Y-72227692D01*
X59953489Y-72233000D01*
X58706511Y-72233000D01*
X58652622Y-72227692D01*
X58606698Y-72213761D01*
X58564385Y-72191145D01*
X58527295Y-72160705D01*
X58496855Y-72123615D01*
X58474239Y-72081302D01*
X58460308Y-72035378D01*
X58455000Y-71981489D01*
X58455000Y-68734511D01*
X58460308Y-68680622D01*
X58474239Y-68634698D01*
X58496855Y-68592385D01*
X58527295Y-68555295D01*
X58564385Y-68524855D01*
X58606698Y-68502239D01*
X58652622Y-68488308D01*
X58706511Y-68483000D01*
X59953489Y-68483000D01*
X60007378Y-68488308D01*
X60007378Y-68488308D01*
G37*
G36*
X65807378Y-68488308D02*
X65853302Y-68502239D01*
X65895615Y-68524855D01*
X65932705Y-68555295D01*
X65963145Y-68592385D01*
X65985761Y-68634698D01*
X65999692Y-68680622D01*
X66005000Y-68734511D01*
X66005000Y-71981489D01*
X65999692Y-72035378D01*
X65985761Y-72081302D01*
X65963145Y-72123615D01*
X65932705Y-72160705D01*
X65895615Y-72191145D01*
X65853302Y-72213761D01*
X65807378Y-72227692D01*
X65753489Y-72233000D01*
X64506511Y-72233000D01*
X64452622Y-72227692D01*
X64406698Y-72213761D01*
X64364385Y-72191145D01*
X64327295Y-72160705D01*
X64296855Y-72123615D01*
X64274239Y-72081302D01*
X64260308Y-72035378D01*
X64255000Y-71981489D01*
X64255000Y-68734511D01*
X64260308Y-68680622D01*
X64274239Y-68634698D01*
X64296855Y-68592385D01*
X64327295Y-68555295D01*
X64364385Y-68524855D01*
X64406698Y-68502239D01*
X64452622Y-68488308D01*
X64506511Y-68483000D01*
X65753489Y-68483000D01*
X65807378Y-68488308D01*
X65807378Y-68488308D01*
G37*
G36*
X52336452Y-69417127D02*
X52474105Y-69444508D01*
X52646994Y-69516121D01*
X52802590Y-69620087D01*
X52934913Y-69752410D01*
X53038879Y-69908006D01*
X53110492Y-70080895D01*
X53147000Y-70264433D01*
X53147000Y-70451567D01*
X53110492Y-70635105D01*
X53038879Y-70807994D01*
X52934913Y-70963590D01*
X52802590Y-71095913D01*
X52646994Y-71199879D01*
X52474105Y-71271492D01*
X52336451Y-71298873D01*
X52290568Y-71308000D01*
X52103432Y-71308000D01*
X52057549Y-71298873D01*
X51919895Y-71271492D01*
X51747006Y-71199879D01*
X51591410Y-71095913D01*
X51459087Y-70963590D01*
X51355121Y-70807994D01*
X51283508Y-70635105D01*
X51247000Y-70451567D01*
X51247000Y-70264433D01*
X51283508Y-70080895D01*
X51355121Y-69908006D01*
X51459087Y-69752410D01*
X51591410Y-69620087D01*
X51747006Y-69516121D01*
X51919895Y-69444508D01*
X52057548Y-69417127D01*
X52103432Y-69408000D01*
X52290568Y-69408000D01*
X52336452Y-69417127D01*
X52336452Y-69417127D01*
G37*
G36*
X78281997Y-69463997D02*
X78334653Y-69479970D01*
X78383165Y-69505900D01*
X78425696Y-69540804D01*
X78460600Y-69583335D01*
X78486530Y-69631847D01*
X78502503Y-69684503D01*
X78508500Y-69745390D01*
X78508500Y-70970610D01*
X78502503Y-71031497D01*
X78486530Y-71084153D01*
X78460600Y-71132665D01*
X78425696Y-71175196D01*
X78383165Y-71210100D01*
X78334653Y-71236030D01*
X78281997Y-71252003D01*
X78221110Y-71258000D01*
X77420890Y-71258000D01*
X77360003Y-71252003D01*
X77307347Y-71236030D01*
X77258835Y-71210100D01*
X77216304Y-71175196D01*
X77181400Y-71132665D01*
X77155470Y-71084153D01*
X77139497Y-71031497D01*
X77133500Y-70970610D01*
X77133500Y-69745390D01*
X77139497Y-69684503D01*
X77155470Y-69631847D01*
X77181400Y-69583335D01*
X77216304Y-69540804D01*
X77258835Y-69505900D01*
X77307347Y-69479970D01*
X77360003Y-69463997D01*
X77420890Y-69458000D01*
X78221110Y-69458000D01*
X78281997Y-69463997D01*
X78281997Y-69463997D01*
G37*
G36*
X76406997Y-69463997D02*
X76459653Y-69479970D01*
X76508165Y-69505900D01*
X76550696Y-69540804D01*
X76585600Y-69583335D01*
X76611530Y-69631847D01*
X76627503Y-69684503D01*
X76633500Y-69745390D01*
X76633500Y-70970610D01*
X76627503Y-71031497D01*
X76611530Y-71084153D01*
X76585600Y-71132665D01*
X76550696Y-71175196D01*
X76508165Y-71210100D01*
X76459653Y-71236030D01*
X76406997Y-71252003D01*
X76346110Y-71258000D01*
X75545890Y-71258000D01*
X75485003Y-71252003D01*
X75432347Y-71236030D01*
X75383835Y-71210100D01*
X75341304Y-71175196D01*
X75306400Y-71132665D01*
X75280470Y-71084153D01*
X75264497Y-71031497D01*
X75258500Y-70970610D01*
X75258500Y-69745390D01*
X75264497Y-69684503D01*
X75280470Y-69631847D01*
X75306400Y-69583335D01*
X75341304Y-69540804D01*
X75383835Y-69505900D01*
X75432347Y-69479970D01*
X75485003Y-69463997D01*
X75545890Y-69458000D01*
X76346110Y-69458000D01*
X76406997Y-69463997D01*
X76406997Y-69463997D01*
G37*
G36*
X117128707Y-68537596D02*
X117205836Y-68545193D01*
X117337787Y-68585220D01*
X117403763Y-68605233D01*
X117586172Y-68702733D01*
X117746054Y-68833946D01*
X117877267Y-68993828D01*
X117974767Y-69176237D01*
X117974767Y-69176238D01*
X118034807Y-69374164D01*
X118055080Y-69580000D01*
X118034807Y-69785836D01*
X117997747Y-69908006D01*
X117974767Y-69983763D01*
X117877267Y-70166172D01*
X117746054Y-70326054D01*
X117586172Y-70457267D01*
X117403763Y-70554767D01*
X117337787Y-70574780D01*
X117205836Y-70614807D01*
X117128707Y-70622404D01*
X117051580Y-70630000D01*
X116948420Y-70630000D01*
X116871293Y-70622404D01*
X116794164Y-70614807D01*
X116662213Y-70574780D01*
X116596237Y-70554767D01*
X116413828Y-70457267D01*
X116253946Y-70326054D01*
X116122733Y-70166172D01*
X116025233Y-69983763D01*
X116002253Y-69908006D01*
X115965193Y-69785836D01*
X115944920Y-69580000D01*
X115965193Y-69374164D01*
X116025233Y-69176238D01*
X116025233Y-69176237D01*
X116122733Y-68993828D01*
X116253946Y-68833946D01*
X116413828Y-68702733D01*
X116596237Y-68605233D01*
X116662213Y-68585220D01*
X116794164Y-68545193D01*
X116871293Y-68537596D01*
X116948420Y-68530000D01*
X117051580Y-68530000D01*
X117128707Y-68537596D01*
X117128707Y-68537596D01*
G37*
G36*
X67881378Y-65186308D02*
X67927302Y-65200239D01*
X67969615Y-65222855D01*
X68006705Y-65253295D01*
X68037145Y-65290385D01*
X68059761Y-65332698D01*
X68073692Y-65378622D01*
X68079000Y-65432511D01*
X68079000Y-68679489D01*
X68073692Y-68733378D01*
X68059761Y-68779302D01*
X68037145Y-68821615D01*
X68006705Y-68858705D01*
X67969615Y-68889145D01*
X67927302Y-68911761D01*
X67881378Y-68925692D01*
X67827489Y-68931000D01*
X66580511Y-68931000D01*
X66526622Y-68925692D01*
X66480698Y-68911761D01*
X66438385Y-68889145D01*
X66401295Y-68858705D01*
X66370855Y-68821615D01*
X66348239Y-68779302D01*
X66334308Y-68733378D01*
X66329000Y-68679489D01*
X66329000Y-65432511D01*
X66334308Y-65378622D01*
X66348239Y-65332698D01*
X66370855Y-65290385D01*
X66401295Y-65253295D01*
X66438385Y-65222855D01*
X66480698Y-65200239D01*
X66526622Y-65186308D01*
X66580511Y-65181000D01*
X67827489Y-65181000D01*
X67881378Y-65186308D01*
X67881378Y-65186308D01*
G37*
G36*
X73681378Y-65186308D02*
X73727302Y-65200239D01*
X73769615Y-65222855D01*
X73806705Y-65253295D01*
X73837145Y-65290385D01*
X73859761Y-65332698D01*
X73873692Y-65378622D01*
X73879000Y-65432511D01*
X73879000Y-68679489D01*
X73873692Y-68733378D01*
X73859761Y-68779302D01*
X73837145Y-68821615D01*
X73806705Y-68858705D01*
X73769615Y-68889145D01*
X73727302Y-68911761D01*
X73681378Y-68925692D01*
X73627489Y-68931000D01*
X72380511Y-68931000D01*
X72326622Y-68925692D01*
X72280698Y-68911761D01*
X72238385Y-68889145D01*
X72201295Y-68858705D01*
X72170855Y-68821615D01*
X72148239Y-68779302D01*
X72134308Y-68733378D01*
X72129000Y-68679489D01*
X72129000Y-65432511D01*
X72134308Y-65378622D01*
X72148239Y-65332698D01*
X72170855Y-65290385D01*
X72201295Y-65253295D01*
X72238385Y-65222855D01*
X72280698Y-65200239D01*
X72326622Y-65186308D01*
X72380511Y-65181000D01*
X73627489Y-65181000D01*
X73681378Y-65186308D01*
X73681378Y-65186308D01*
G37*
G36*
X52336451Y-66417127D02*
X52474105Y-66444508D01*
X52646994Y-66516121D01*
X52802590Y-66620087D01*
X52934913Y-66752410D01*
X53038879Y-66908006D01*
X53110492Y-67080895D01*
X53137873Y-67218549D01*
X53143301Y-67245834D01*
X53147000Y-67264433D01*
X53147000Y-67451567D01*
X53110492Y-67635105D01*
X53038879Y-67807994D01*
X52934913Y-67963590D01*
X52802590Y-68095913D01*
X52646994Y-68199879D01*
X52474105Y-68271492D01*
X52336452Y-68298873D01*
X52290568Y-68308000D01*
X52103432Y-68308000D01*
X52057548Y-68298873D01*
X51919895Y-68271492D01*
X51747006Y-68199879D01*
X51591410Y-68095913D01*
X51459087Y-67963590D01*
X51355121Y-67807994D01*
X51283508Y-67635105D01*
X51247000Y-67451567D01*
X51247000Y-67264433D01*
X51250700Y-67245834D01*
X51256127Y-67218549D01*
X51283508Y-67080895D01*
X51355121Y-66908006D01*
X51459087Y-66752410D01*
X51591410Y-66620087D01*
X51747006Y-66516121D01*
X51919895Y-66444508D01*
X52057549Y-66417127D01*
X52103432Y-66408000D01*
X52290568Y-66408000D01*
X52336451Y-66417127D01*
X52336451Y-66417127D01*
G37*
G36*
X117128707Y-65997596D02*
X117205836Y-66005193D01*
X117337787Y-66045220D01*
X117403763Y-66065233D01*
X117586172Y-66162733D01*
X117746054Y-66293946D01*
X117877267Y-66453828D01*
X117974767Y-66636237D01*
X117974767Y-66636238D01*
X118034807Y-66834164D01*
X118055080Y-67040000D01*
X118034807Y-67245836D01*
X117994780Y-67377787D01*
X117974767Y-67443763D01*
X117877267Y-67626172D01*
X117746054Y-67786054D01*
X117586172Y-67917267D01*
X117403763Y-68014767D01*
X117337787Y-68034780D01*
X117205836Y-68074807D01*
X117128707Y-68082404D01*
X117051580Y-68090000D01*
X116948420Y-68090000D01*
X116871293Y-68082404D01*
X116794164Y-68074807D01*
X116662213Y-68034780D01*
X116596237Y-68014767D01*
X116413828Y-67917267D01*
X116253946Y-67786054D01*
X116122733Y-67626172D01*
X116025233Y-67443763D01*
X116005220Y-67377787D01*
X115965193Y-67245836D01*
X115944920Y-67040000D01*
X115965193Y-66834164D01*
X116025233Y-66636238D01*
X116025233Y-66636237D01*
X116122733Y-66453828D01*
X116253946Y-66293946D01*
X116413828Y-66162733D01*
X116596237Y-66065233D01*
X116662213Y-66045220D01*
X116794164Y-66005193D01*
X116871293Y-65997596D01*
X116948420Y-65990000D01*
X117051580Y-65990000D01*
X117128707Y-65997596D01*
X117128707Y-65997596D01*
G37*
G36*
X78281997Y-66161997D02*
X78334653Y-66177970D01*
X78383165Y-66203900D01*
X78425696Y-66238804D01*
X78460600Y-66281335D01*
X78486530Y-66329847D01*
X78502503Y-66382503D01*
X78508500Y-66443390D01*
X78508500Y-67668610D01*
X78502503Y-67729497D01*
X78486530Y-67782153D01*
X78460600Y-67830665D01*
X78425696Y-67873196D01*
X78383165Y-67908100D01*
X78334653Y-67934030D01*
X78281997Y-67950003D01*
X78221110Y-67956000D01*
X77420890Y-67956000D01*
X77360003Y-67950003D01*
X77307347Y-67934030D01*
X77258835Y-67908100D01*
X77216304Y-67873196D01*
X77181400Y-67830665D01*
X77155470Y-67782153D01*
X77139497Y-67729497D01*
X77133500Y-67668610D01*
X77133500Y-66443390D01*
X77139497Y-66382503D01*
X77155470Y-66329847D01*
X77181400Y-66281335D01*
X77216304Y-66238804D01*
X77258835Y-66203900D01*
X77307347Y-66177970D01*
X77360003Y-66161997D01*
X77420890Y-66156000D01*
X78221110Y-66156000D01*
X78281997Y-66161997D01*
X78281997Y-66161997D01*
G37*
G36*
X76406997Y-66161997D02*
X76459653Y-66177970D01*
X76508165Y-66203900D01*
X76550696Y-66238804D01*
X76585600Y-66281335D01*
X76611530Y-66329847D01*
X76627503Y-66382503D01*
X76633500Y-66443390D01*
X76633500Y-67668610D01*
X76627503Y-67729497D01*
X76611530Y-67782153D01*
X76585600Y-67830665D01*
X76550696Y-67873196D01*
X76508165Y-67908100D01*
X76459653Y-67934030D01*
X76406997Y-67950003D01*
X76346110Y-67956000D01*
X75545890Y-67956000D01*
X75485003Y-67950003D01*
X75432347Y-67934030D01*
X75383835Y-67908100D01*
X75341304Y-67873196D01*
X75306400Y-67830665D01*
X75280470Y-67782153D01*
X75264497Y-67729497D01*
X75258500Y-67668610D01*
X75258500Y-66443390D01*
X75264497Y-66382503D01*
X75280470Y-66329847D01*
X75306400Y-66281335D01*
X75341304Y-66238804D01*
X75383835Y-66203900D01*
X75432347Y-66177970D01*
X75485003Y-66161997D01*
X75545890Y-66156000D01*
X76346110Y-66156000D01*
X76406997Y-66161997D01*
X76406997Y-66161997D01*
G37*
G36*
X65807378Y-61884308D02*
X65853302Y-61898239D01*
X65895615Y-61920855D01*
X65932705Y-61951295D01*
X65963145Y-61988385D01*
X65985761Y-62030698D01*
X65999692Y-62076622D01*
X66005000Y-62130511D01*
X66005000Y-65377489D01*
X65999692Y-65431378D01*
X65985761Y-65477302D01*
X65963145Y-65519615D01*
X65932705Y-65556705D01*
X65895615Y-65587145D01*
X65853302Y-65609761D01*
X65807378Y-65623692D01*
X65753489Y-65629000D01*
X64506511Y-65629000D01*
X64452622Y-65623692D01*
X64406698Y-65609761D01*
X64364385Y-65587145D01*
X64327295Y-65556705D01*
X64296855Y-65519615D01*
X64274239Y-65477302D01*
X64260308Y-65431378D01*
X64255000Y-65377489D01*
X64255000Y-62130511D01*
X64260308Y-62076622D01*
X64274239Y-62030698D01*
X64296855Y-61988385D01*
X64327295Y-61951295D01*
X64364385Y-61920855D01*
X64406698Y-61898239D01*
X64452622Y-61884308D01*
X64506511Y-61879000D01*
X65753489Y-61879000D01*
X65807378Y-61884308D01*
X65807378Y-61884308D01*
G37*
G36*
X60007378Y-61884308D02*
X60053302Y-61898239D01*
X60095615Y-61920855D01*
X60132705Y-61951295D01*
X60163145Y-61988385D01*
X60185761Y-62030698D01*
X60199692Y-62076622D01*
X60205000Y-62130511D01*
X60205000Y-65377489D01*
X60199692Y-65431378D01*
X60185761Y-65477302D01*
X60163145Y-65519615D01*
X60132705Y-65556705D01*
X60095615Y-65587145D01*
X60053302Y-65609761D01*
X60007378Y-65623692D01*
X59953489Y-65629000D01*
X58706511Y-65629000D01*
X58652622Y-65623692D01*
X58606698Y-65609761D01*
X58564385Y-65587145D01*
X58527295Y-65556705D01*
X58496855Y-65519615D01*
X58474239Y-65477302D01*
X58460308Y-65431378D01*
X58455000Y-65377489D01*
X58455000Y-62130511D01*
X58460308Y-62076622D01*
X58474239Y-62030698D01*
X58496855Y-61988385D01*
X58527295Y-61951295D01*
X58564385Y-61920855D01*
X58606698Y-61898239D01*
X58652622Y-61884308D01*
X58706511Y-61879000D01*
X59953489Y-61879000D01*
X60007378Y-61884308D01*
X60007378Y-61884308D01*
G37*
G36*
X117128707Y-63457596D02*
X117205836Y-63465193D01*
X117337787Y-63505220D01*
X117403763Y-63525233D01*
X117586172Y-63622733D01*
X117746054Y-63753946D01*
X117877267Y-63913828D01*
X117974767Y-64096237D01*
X117974767Y-64096238D01*
X118034807Y-64294164D01*
X118055080Y-64500000D01*
X118034807Y-64705836D01*
X118018360Y-64760055D01*
X117974767Y-64903763D01*
X117877267Y-65086172D01*
X117746054Y-65246054D01*
X117586172Y-65377267D01*
X117403763Y-65474767D01*
X117370121Y-65484972D01*
X117205836Y-65534807D01*
X117128707Y-65542404D01*
X117051580Y-65550000D01*
X116948420Y-65550000D01*
X116871293Y-65542404D01*
X116794164Y-65534807D01*
X116629879Y-65484972D01*
X116596237Y-65474767D01*
X116413828Y-65377267D01*
X116253946Y-65246054D01*
X116122733Y-65086172D01*
X116025233Y-64903763D01*
X115981640Y-64760055D01*
X115965193Y-64705836D01*
X115944920Y-64500000D01*
X115965193Y-64294164D01*
X116025233Y-64096238D01*
X116025233Y-64096237D01*
X116122733Y-63913828D01*
X116253946Y-63753946D01*
X116413828Y-63622733D01*
X116596237Y-63525233D01*
X116662213Y-63505220D01*
X116794164Y-63465193D01*
X116871293Y-63457596D01*
X116948420Y-63450000D01*
X117051580Y-63450000D01*
X117128707Y-63457596D01*
X117128707Y-63457596D01*
G37*
G36*
X48447793Y-61641937D02*
X48802670Y-61788932D01*
X49122055Y-62002338D01*
X49393662Y-62273945D01*
X49607068Y-62593330D01*
X49754063Y-62948207D01*
X49829000Y-63324940D01*
X49829000Y-63709060D01*
X49754063Y-64085793D01*
X49607068Y-64440670D01*
X49393662Y-64760055D01*
X49122055Y-65031662D01*
X48802670Y-65245068D01*
X48447793Y-65392063D01*
X48071060Y-65467000D01*
X47686940Y-65467000D01*
X47310207Y-65392063D01*
X46955330Y-65245068D01*
X46635945Y-65031662D01*
X46364338Y-64760055D01*
X46150932Y-64440670D01*
X46003937Y-64085793D01*
X45929000Y-63709060D01*
X45929000Y-63324940D01*
X46003937Y-62948207D01*
X46150932Y-62593330D01*
X46364338Y-62273945D01*
X46635945Y-62002338D01*
X46955330Y-61788932D01*
X47310207Y-61641937D01*
X47686940Y-61567000D01*
X48071060Y-61567000D01*
X48447793Y-61641937D01*
X48447793Y-61641937D01*
G37*
G36*
X52336451Y-63417127D02*
X52474105Y-63444508D01*
X52646994Y-63516121D01*
X52802590Y-63620087D01*
X52934913Y-63752410D01*
X53038879Y-63908006D01*
X53110492Y-64080895D01*
X53147000Y-64264433D01*
X53147000Y-64451567D01*
X53110492Y-64635105D01*
X53038879Y-64807994D01*
X52934913Y-64963590D01*
X52802590Y-65095913D01*
X52646994Y-65199879D01*
X52474105Y-65271492D01*
X52336452Y-65298873D01*
X52290568Y-65308000D01*
X52103432Y-65308000D01*
X52057548Y-65298873D01*
X51919895Y-65271492D01*
X51747006Y-65199879D01*
X51591410Y-65095913D01*
X51459087Y-64963590D01*
X51355121Y-64807994D01*
X51283508Y-64635105D01*
X51247000Y-64451567D01*
X51247000Y-64264433D01*
X51283508Y-64080895D01*
X51355121Y-63908006D01*
X51459087Y-63752410D01*
X51591410Y-63620087D01*
X51747006Y-63516121D01*
X51919895Y-63444508D01*
X52057549Y-63417127D01*
X52103432Y-63408000D01*
X52290568Y-63408000D01*
X52336451Y-63417127D01*
X52336451Y-63417127D01*
G37*
G36*
X76406997Y-62859997D02*
X76459653Y-62875970D01*
X76508165Y-62901900D01*
X76550696Y-62936804D01*
X76585600Y-62979335D01*
X76611530Y-63027847D01*
X76627503Y-63080503D01*
X76633500Y-63141390D01*
X76633500Y-64366610D01*
X76627503Y-64427497D01*
X76611530Y-64480153D01*
X76585600Y-64528665D01*
X76550696Y-64571196D01*
X76508165Y-64606100D01*
X76459653Y-64632030D01*
X76406997Y-64648003D01*
X76346110Y-64654000D01*
X75545890Y-64654000D01*
X75485003Y-64648003D01*
X75432347Y-64632030D01*
X75383835Y-64606100D01*
X75341304Y-64571196D01*
X75306400Y-64528665D01*
X75280470Y-64480153D01*
X75264497Y-64427497D01*
X75258500Y-64366610D01*
X75258500Y-63141390D01*
X75264497Y-63080503D01*
X75280470Y-63027847D01*
X75306400Y-62979335D01*
X75341304Y-62936804D01*
X75383835Y-62901900D01*
X75432347Y-62875970D01*
X75485003Y-62859997D01*
X75545890Y-62854000D01*
X76346110Y-62854000D01*
X76406997Y-62859997D01*
X76406997Y-62859997D01*
G37*
G36*
X78281997Y-62859997D02*
X78334653Y-62875970D01*
X78383165Y-62901900D01*
X78425696Y-62936804D01*
X78460600Y-62979335D01*
X78486530Y-63027847D01*
X78502503Y-63080503D01*
X78508500Y-63141390D01*
X78508500Y-64366610D01*
X78502503Y-64427497D01*
X78486530Y-64480153D01*
X78460600Y-64528665D01*
X78425696Y-64571196D01*
X78383165Y-64606100D01*
X78334653Y-64632030D01*
X78281997Y-64648003D01*
X78221110Y-64654000D01*
X77420890Y-64654000D01*
X77360003Y-64648003D01*
X77307347Y-64632030D01*
X77258835Y-64606100D01*
X77216304Y-64571196D01*
X77181400Y-64528665D01*
X77155470Y-64480153D01*
X77139497Y-64427497D01*
X77133500Y-64366610D01*
X77133500Y-63141390D01*
X77139497Y-63080503D01*
X77155470Y-63027847D01*
X77181400Y-62979335D01*
X77216304Y-62936804D01*
X77258835Y-62901900D01*
X77307347Y-62875970D01*
X77360003Y-62859997D01*
X77420890Y-62854000D01*
X78221110Y-62854000D01*
X78281997Y-62859997D01*
X78281997Y-62859997D01*
G37*
G36*
X83778703Y-59929486D02*
X84069883Y-60050097D01*
X84331944Y-60225201D01*
X84554799Y-60448056D01*
X84729903Y-60710117D01*
X84850514Y-61001297D01*
X84912000Y-61310412D01*
X84912000Y-61625588D01*
X84850514Y-61934703D01*
X84729903Y-62225883D01*
X84554799Y-62487944D01*
X84331944Y-62710799D01*
X84069883Y-62885903D01*
X83778703Y-63006514D01*
X83469588Y-63068000D01*
X83154412Y-63068000D01*
X82845297Y-63006514D01*
X82554117Y-62885903D01*
X82292056Y-62710799D01*
X82069201Y-62487944D01*
X81894097Y-62225883D01*
X81773486Y-61934703D01*
X81712000Y-61625588D01*
X81712000Y-61310412D01*
X81773486Y-61001297D01*
X81894097Y-60710117D01*
X82069201Y-60448056D01*
X82292056Y-60225201D01*
X82554117Y-60050097D01*
X82845297Y-59929486D01*
X83154412Y-59868000D01*
X83469588Y-59868000D01*
X83778703Y-59929486D01*
X83778703Y-59929486D01*
G37*
G36*
X52336451Y-60417127D02*
X52474105Y-60444508D01*
X52646994Y-60516121D01*
X52802590Y-60620087D01*
X52934913Y-60752410D01*
X53038879Y-60908006D01*
X53110492Y-61080895D01*
X53122208Y-61139797D01*
X53139488Y-61226665D01*
X53147000Y-61264433D01*
X53147000Y-61451567D01*
X53110492Y-61635105D01*
X53038879Y-61807994D01*
X52934913Y-61963590D01*
X52802590Y-62095913D01*
X52646994Y-62199879D01*
X52474105Y-62271492D01*
X52336451Y-62298873D01*
X52290568Y-62308000D01*
X52103432Y-62308000D01*
X52057549Y-62298873D01*
X51919895Y-62271492D01*
X51747006Y-62199879D01*
X51591410Y-62095913D01*
X51459087Y-61963590D01*
X51355121Y-61807994D01*
X51283508Y-61635105D01*
X51247000Y-61451567D01*
X51247000Y-61264433D01*
X51254513Y-61226665D01*
X51271792Y-61139797D01*
X51283508Y-61080895D01*
X51355121Y-60908006D01*
X51459087Y-60752410D01*
X51591410Y-60620087D01*
X51747006Y-60516121D01*
X51919895Y-60444508D01*
X52057549Y-60417127D01*
X52103432Y-60408000D01*
X52290568Y-60408000D01*
X52336451Y-60417127D01*
X52336451Y-60417127D01*
G37*
G36*
X109178703Y-59167486D02*
X109469883Y-59288097D01*
X109731944Y-59463201D01*
X109954799Y-59686056D01*
X110129903Y-59948117D01*
X110250514Y-60239297D01*
X110312000Y-60548412D01*
X110312000Y-60863588D01*
X110250514Y-61172703D01*
X110129903Y-61463883D01*
X109954799Y-61725944D01*
X109731944Y-61948799D01*
X109469883Y-62123903D01*
X109178703Y-62244514D01*
X108869588Y-62306000D01*
X108554412Y-62306000D01*
X108245297Y-62244514D01*
X107954117Y-62123903D01*
X107692056Y-61948799D01*
X107469201Y-61725944D01*
X107294097Y-61463883D01*
X107173486Y-61172703D01*
X107112000Y-60863588D01*
X107112000Y-60548412D01*
X107173486Y-60239297D01*
X107294097Y-59948117D01*
X107469201Y-59686056D01*
X107692056Y-59463201D01*
X107954117Y-59288097D01*
X108245297Y-59167486D01*
X108554412Y-59106000D01*
X108869588Y-59106000D01*
X109178703Y-59167486D01*
X109178703Y-59167486D01*
G37*
G36*
X78281997Y-59557997D02*
X78334653Y-59573970D01*
X78383165Y-59599900D01*
X78425696Y-59634804D01*
X78460600Y-59677335D01*
X78486530Y-59725847D01*
X78502503Y-59778503D01*
X78508500Y-59839390D01*
X78508500Y-61064610D01*
X78502503Y-61125497D01*
X78486530Y-61178153D01*
X78460600Y-61226665D01*
X78425696Y-61269196D01*
X78383165Y-61304100D01*
X78334653Y-61330030D01*
X78281997Y-61346003D01*
X78221110Y-61352000D01*
X77420890Y-61352000D01*
X77360003Y-61346003D01*
X77307347Y-61330030D01*
X77258835Y-61304100D01*
X77216304Y-61269196D01*
X77181400Y-61226665D01*
X77155470Y-61178153D01*
X77139497Y-61125497D01*
X77133500Y-61064610D01*
X77133500Y-59839390D01*
X77139497Y-59778503D01*
X77155470Y-59725847D01*
X77181400Y-59677335D01*
X77216304Y-59634804D01*
X77258835Y-59599900D01*
X77307347Y-59573970D01*
X77360003Y-59557997D01*
X77420890Y-59552000D01*
X78221110Y-59552000D01*
X78281997Y-59557997D01*
X78281997Y-59557997D01*
G37*
G36*
X76406997Y-59557997D02*
X76459653Y-59573970D01*
X76508165Y-59599900D01*
X76550696Y-59634804D01*
X76585600Y-59677335D01*
X76611530Y-59725847D01*
X76627503Y-59778503D01*
X76633500Y-59839390D01*
X76633500Y-61064610D01*
X76627503Y-61125497D01*
X76611530Y-61178153D01*
X76585600Y-61226665D01*
X76550696Y-61269196D01*
X76508165Y-61304100D01*
X76459653Y-61330030D01*
X76406997Y-61346003D01*
X76346110Y-61352000D01*
X75545890Y-61352000D01*
X75485003Y-61346003D01*
X75432347Y-61330030D01*
X75383835Y-61304100D01*
X75341304Y-61269196D01*
X75306400Y-61226665D01*
X75280470Y-61178153D01*
X75264497Y-61125497D01*
X75258500Y-61064610D01*
X75258500Y-59839390D01*
X75264497Y-59778503D01*
X75280470Y-59725847D01*
X75306400Y-59677335D01*
X75341304Y-59634804D01*
X75383835Y-59599900D01*
X75432347Y-59573970D01*
X75485003Y-59557997D01*
X75545890Y-59552000D01*
X76346110Y-59552000D01*
X76406997Y-59557997D01*
X76406997Y-59557997D01*
G37*
G36*
X100466703Y-54461486D02*
X100757883Y-54582097D01*
X101019944Y-54757201D01*
X101242799Y-54980056D01*
X101417903Y-55242117D01*
X101538514Y-55533297D01*
X101600000Y-55842412D01*
X101600000Y-56157588D01*
X101538514Y-56466703D01*
X101417903Y-56757883D01*
X101242799Y-57019944D01*
X101019944Y-57242799D01*
X100757883Y-57417903D01*
X100466703Y-57538514D01*
X100157588Y-57600000D01*
X99842412Y-57600000D01*
X99533297Y-57538514D01*
X99242117Y-57417903D01*
X98980056Y-57242799D01*
X98757201Y-57019944D01*
X98582097Y-56757883D01*
X98461486Y-56466703D01*
X98400000Y-56157588D01*
X98400000Y-55842412D01*
X98461486Y-55533297D01*
X98582097Y-55242117D01*
X98757201Y-54980056D01*
X98980056Y-54757201D01*
X99242117Y-54582097D01*
X99533297Y-54461486D01*
X99842412Y-54400000D01*
X100157588Y-54400000D01*
X100466703Y-54461486D01*
X100466703Y-54461486D01*
G37*
G36*
X117386393Y-51343553D02*
X117495872Y-51365330D01*
X117805252Y-51493479D01*
X118083687Y-51679523D01*
X118320477Y-51916313D01*
X118506521Y-52194748D01*
X118634670Y-52504128D01*
X118700000Y-52832565D01*
X118700000Y-53167435D01*
X118634670Y-53495872D01*
X118506521Y-53805252D01*
X118320477Y-54083687D01*
X118083687Y-54320477D01*
X117805252Y-54506521D01*
X117495872Y-54634670D01*
X117386393Y-54656447D01*
X117167437Y-54700000D01*
X116832563Y-54700000D01*
X116613607Y-54656447D01*
X116504128Y-54634670D01*
X116194748Y-54506521D01*
X115916313Y-54320477D01*
X115679523Y-54083687D01*
X115493479Y-53805252D01*
X115365330Y-53495872D01*
X115300000Y-53167435D01*
X115300000Y-52832565D01*
X115365330Y-52504128D01*
X115493479Y-52194748D01*
X115679523Y-51916313D01*
X115916313Y-51679523D01*
X116194748Y-51493479D01*
X116504128Y-51365330D01*
X116613607Y-51343553D01*
X116832563Y-51300000D01*
X117167437Y-51300000D01*
X117386393Y-51343553D01*
X117386393Y-51343553D01*
G37*
G36*
X48386393Y-51343553D02*
X48495872Y-51365330D01*
X48805252Y-51493479D01*
X49083687Y-51679523D01*
X49320477Y-51916313D01*
X49506521Y-52194748D01*
X49634670Y-52504128D01*
X49700000Y-52832565D01*
X49700000Y-53167435D01*
X49634670Y-53495872D01*
X49506521Y-53805252D01*
X49320477Y-54083687D01*
X49083687Y-54320477D01*
X48805252Y-54506521D01*
X48495872Y-54634670D01*
X48386393Y-54656447D01*
X48167437Y-54700000D01*
X47832563Y-54700000D01*
X47613607Y-54656447D01*
X47504128Y-54634670D01*
X47194748Y-54506521D01*
X46916313Y-54320477D01*
X46679523Y-54083687D01*
X46493479Y-53805252D01*
X46365330Y-53495872D01*
X46300000Y-53167435D01*
X46300000Y-52832565D01*
X46365330Y-52504128D01*
X46493479Y-52194748D01*
X46679523Y-51916313D01*
X46916313Y-51679523D01*
X47194748Y-51493479D01*
X47504128Y-51365330D01*
X47613607Y-51343553D01*
X47832563Y-51300000D01*
X48167437Y-51300000D01*
X48386393Y-51343553D01*
X48386393Y-51343553D01*
G37*
M02*
