M48
;DRILL file {KiCad (5.0.0)} date 02/02/19 21:12:52
;FORMAT={-:-/ absolute / inch / decimal}
FMAT,2
INCH,TZ
T1C0.0150
T2C0.0394
T3C0.0402
T4C0.0630
T5C0.1181
T6C0.0500
T7C0.1181
%
G90
G05
M72
T1
X2.2825Y-2.51
X2.2825Y-2.64
X2.2825Y-2.77
X2.2825Y-2.9
X2.2825Y-3.03
X2.2825Y-3.16
X2.2825Y-3.29
X2.2825Y-3.42
X2.2825Y-3.55
X2.2825Y-3.68
X2.2825Y-3.81
X2.2825Y-3.94
X2.77Y-2.38
X2.77Y-2.51
X2.77Y-2.77
X2.77Y-3.03
X2.77Y-3.29
X2.77Y-3.55
X2.77Y-3.81
X2.78Y-2.4301
X2.78Y-2.69
X2.78Y-2.95
X2.78Y-3.21
X2.78Y-3.47
X2.78Y-3.73
X2.93Y-2.54
X2.93Y-2.64
X2.93Y-2.82
X2.93Y-2.9112
X2.93Y-3.1
X2.93Y-3.94
X2.9311Y-3.7389
X2.938Y-3.4523
X2.94Y-3.1912
X2.94Y-3.66
X2.95Y-3.38
X3.11Y-2.73
X3.11Y-2.9949
X3.1129Y-2.3971
X3.12Y-2.48
X3.12Y-2.61
X3.12Y-2.89
X3.12Y-3.0477
X3.14Y-3.16
X3.14Y-3.29
X3.14Y-3.55
X3.14Y-3.68
X3.14Y-3.81
X3.15Y-3.42
X3.585Y-3.1
X3.585Y-3.145
X3.595Y-3.9175
X3.6075Y-3.73
X3.69Y-2.8075
X3.705Y-3.9525
X3.72Y-2.84
X3.748Y-2.87
X3.748Y-3.53
X3.7675Y-2.82
X3.79Y-2.9
X3.79Y-3.782
X3.79Y-3.8719
X3.83Y-4.0419
X3.8425Y-3.53
X3.8975Y-2.8925
X3.902Y-4.09
X3.9375Y-3.3125
X3.9575Y-2.92
X4.0125Y-3.3125
X4.07Y-2.89
X4.0825Y-3.3125
X4.155Y-3.3125
X4.175Y-2.985
X4.175Y-3.03
X4.225Y-3.3125
X4.2975Y-3.31
X4.36Y-3.2525
X4.365Y-2.505
X4.425Y-3.1875
X4.49Y-3.1225
X4.535Y-2.9875
X4.535Y-3.0575
T2
X4.33Y-2.82
X4.33Y-2.92
X4.33Y-3.02
X2.055Y-3.2825
X2.055Y-3.4006
X2.055Y-3.5187
X2.055Y-3.6368
X2.055Y-3.7549
X2.055Y-3.8731
X2.055Y-3.9912
X4.6063Y-2.5394
X4.6063Y-2.6394
X4.6063Y-2.7394
X4.6063Y-2.8394
X4.6063Y-2.9394
X3.5402Y-4.4094
X3.6402Y-4.4094
X3.7402Y-4.4094
X3.8402Y-4.4094
X3.9402Y-4.4094
X2.055Y-2.4157
X2.055Y-2.5338
X2.055Y-2.6519
X2.055Y-2.77
X2.055Y-2.8881
X2.055Y-3.0062
T3
X4.5669Y-3.7205
X4.5669Y-3.8386
X4.5669Y-3.2087
X4.5669Y-3.3268
T4
X3.937Y-2.2047
X4.28Y-2.39
X3.28Y-2.42
T5
X1.885Y-3.3675
X1.885Y-3.9062
X1.885Y-2.5007
X1.885Y-2.9212
T6
X4.6441Y-3.6024
X4.6441Y-3.9567
X4.6441Y-3.0906
X4.6441Y-3.4449
T7
X4.6063Y-4.4094
X1.8898Y-4.4094
X4.6063Y-2.0866
X1.8898Y-2.0866
T0
M30
