%TF.GenerationSoftware,KiCad,Pcbnew,(5.0.0)*%
%TF.CreationDate,2019-02-02T21:12:50-06:00*%
%TF.ProjectId,BPSVoltage,425053566F6C746167652E6B69636164,rev?*%
%TF.SameCoordinates,Original*%
%TF.FileFunction,Legend,Top*%
%TF.FilePolarity,Positive*%
%FSLAX46Y46*%
G04 Gerber Fmt 4.6, Leading zero omitted, Abs format (unit mm)*
G04 Created by KiCad (PCBNEW (5.0.0)) date 02/02/19 21:12:50*
%MOMM*%
%LPD*%
G01*
G04 APERTURE LIST*
%ADD10C,0.150000*%
%ADD11C,0.300000*%
%ADD12C,0.635000*%
%ADD13C,0.120000*%
%ADD14C,0.127000*%
%ADD15C,0.010000*%
G04 APERTURE END LIST*
D10*
X57485595Y-107467380D02*
X57485595Y-108276904D01*
X57533214Y-108372142D01*
X57580833Y-108419761D01*
X57676071Y-108467380D01*
X57866547Y-108467380D01*
X57961785Y-108419761D01*
X58009404Y-108372142D01*
X58057023Y-108276904D01*
X58057023Y-107467380D01*
X58390357Y-107467380D02*
X58961785Y-107467380D01*
X58676071Y-108467380D02*
X58676071Y-107467380D01*
X59247500Y-108419761D02*
X59390357Y-108467380D01*
X59628452Y-108467380D01*
X59723690Y-108419761D01*
X59771309Y-108372142D01*
X59818928Y-108276904D01*
X59818928Y-108181666D01*
X59771309Y-108086428D01*
X59723690Y-108038809D01*
X59628452Y-107991190D01*
X59437976Y-107943571D01*
X59342738Y-107895952D01*
X59295119Y-107848333D01*
X59247500Y-107753095D01*
X59247500Y-107657857D01*
X59295119Y-107562619D01*
X59342738Y-107515000D01*
X59437976Y-107467380D01*
X59676071Y-107467380D01*
X59818928Y-107515000D01*
X60104642Y-107467380D02*
X60437976Y-108467380D01*
X60771309Y-107467380D01*
X60961785Y-107467380D02*
X61533214Y-107467380D01*
X61247500Y-108467380D02*
X61247500Y-107467380D01*
X62628452Y-108086428D02*
X63390357Y-108086428D01*
X64961785Y-107943571D02*
X65104642Y-107991190D01*
X65152261Y-108038809D01*
X65199880Y-108134047D01*
X65199880Y-108276904D01*
X65152261Y-108372142D01*
X65104642Y-108419761D01*
X65009404Y-108467380D01*
X64628452Y-108467380D01*
X64628452Y-107467380D01*
X64961785Y-107467380D01*
X65057023Y-107515000D01*
X65104642Y-107562619D01*
X65152261Y-107657857D01*
X65152261Y-107753095D01*
X65104642Y-107848333D01*
X65057023Y-107895952D01*
X64961785Y-107943571D01*
X64628452Y-107943571D01*
X65628452Y-108467380D02*
X65628452Y-107467380D01*
X66009404Y-107467380D01*
X66104642Y-107515000D01*
X66152261Y-107562619D01*
X66199880Y-107657857D01*
X66199880Y-107800714D01*
X66152261Y-107895952D01*
X66104642Y-107943571D01*
X66009404Y-107991190D01*
X65628452Y-107991190D01*
X66580833Y-108419761D02*
X66723690Y-108467380D01*
X66961785Y-108467380D01*
X67057023Y-108419761D01*
X67104642Y-108372142D01*
X67152261Y-108276904D01*
X67152261Y-108181666D01*
X67104642Y-108086428D01*
X67057023Y-108038809D01*
X66961785Y-107991190D01*
X66771309Y-107943571D01*
X66676071Y-107895952D01*
X66628452Y-107848333D01*
X66580833Y-107753095D01*
X66580833Y-107657857D01*
X66628452Y-107562619D01*
X66676071Y-107515000D01*
X66771309Y-107467380D01*
X67009404Y-107467380D01*
X67152261Y-107515000D01*
X57342738Y-109117380D02*
X57676071Y-110117380D01*
X58009404Y-109117380D01*
X58485595Y-110117380D02*
X58390357Y-110069761D01*
X58342738Y-110022142D01*
X58295119Y-109926904D01*
X58295119Y-109641190D01*
X58342738Y-109545952D01*
X58390357Y-109498333D01*
X58485595Y-109450714D01*
X58628452Y-109450714D01*
X58723690Y-109498333D01*
X58771309Y-109545952D01*
X58818928Y-109641190D01*
X58818928Y-109926904D01*
X58771309Y-110022142D01*
X58723690Y-110069761D01*
X58628452Y-110117380D01*
X58485595Y-110117380D01*
X59390357Y-110117380D02*
X59295119Y-110069761D01*
X59247500Y-109974523D01*
X59247500Y-109117380D01*
X59628452Y-109450714D02*
X60009404Y-109450714D01*
X59771309Y-109117380D02*
X59771309Y-109974523D01*
X59818928Y-110069761D01*
X59914166Y-110117380D01*
X60009404Y-110117380D01*
X60771309Y-110117380D02*
X60771309Y-109593571D01*
X60723690Y-109498333D01*
X60628452Y-109450714D01*
X60437976Y-109450714D01*
X60342738Y-109498333D01*
X60771309Y-110069761D02*
X60676071Y-110117380D01*
X60437976Y-110117380D01*
X60342738Y-110069761D01*
X60295119Y-109974523D01*
X60295119Y-109879285D01*
X60342738Y-109784047D01*
X60437976Y-109736428D01*
X60676071Y-109736428D01*
X60771309Y-109688809D01*
X61676071Y-109450714D02*
X61676071Y-110260238D01*
X61628452Y-110355476D01*
X61580833Y-110403095D01*
X61485595Y-110450714D01*
X61342738Y-110450714D01*
X61247500Y-110403095D01*
X61676071Y-110069761D02*
X61580833Y-110117380D01*
X61390357Y-110117380D01*
X61295119Y-110069761D01*
X61247500Y-110022142D01*
X61199880Y-109926904D01*
X61199880Y-109641190D01*
X61247500Y-109545952D01*
X61295119Y-109498333D01*
X61390357Y-109450714D01*
X61580833Y-109450714D01*
X61676071Y-109498333D01*
X62533214Y-110069761D02*
X62437976Y-110117380D01*
X62247500Y-110117380D01*
X62152261Y-110069761D01*
X62104642Y-109974523D01*
X62104642Y-109593571D01*
X62152261Y-109498333D01*
X62247500Y-109450714D01*
X62437976Y-109450714D01*
X62533214Y-109498333D01*
X62580833Y-109593571D01*
X62580833Y-109688809D01*
X62104642Y-109784047D01*
X63676071Y-109450714D02*
X63914166Y-110117380D01*
X64152261Y-109450714D01*
X65057023Y-110117380D02*
X64485595Y-110117380D01*
X64771309Y-110117380D02*
X64771309Y-109117380D01*
X64676071Y-109260238D01*
X64580833Y-109355476D01*
X64485595Y-109403095D01*
X65485595Y-110022142D02*
X65533214Y-110069761D01*
X65485595Y-110117380D01*
X65437976Y-110069761D01*
X65485595Y-110022142D01*
X65485595Y-110117380D01*
X66152261Y-109117380D02*
X66247500Y-109117380D01*
X66342738Y-109165000D01*
X66390357Y-109212619D01*
X66437976Y-109307857D01*
X66485595Y-109498333D01*
X66485595Y-109736428D01*
X66437976Y-109926904D01*
X66390357Y-110022142D01*
X66342738Y-110069761D01*
X66247500Y-110117380D01*
X66152261Y-110117380D01*
X66057023Y-110069761D01*
X66009404Y-110022142D01*
X65961785Y-109926904D01*
X65914166Y-109736428D01*
X65914166Y-109498333D01*
X65961785Y-109307857D01*
X66009404Y-109212619D01*
X66057023Y-109165000D01*
X66152261Y-109117380D01*
X57437976Y-111719761D02*
X57580833Y-111767380D01*
X57818928Y-111767380D01*
X57914166Y-111719761D01*
X57961785Y-111672142D01*
X58009404Y-111576904D01*
X58009404Y-111481666D01*
X57961785Y-111386428D01*
X57914166Y-111338809D01*
X57818928Y-111291190D01*
X57628452Y-111243571D01*
X57533214Y-111195952D01*
X57485595Y-111148333D01*
X57437976Y-111053095D01*
X57437976Y-110957857D01*
X57485595Y-110862619D01*
X57533214Y-110815000D01*
X57628452Y-110767380D01*
X57866547Y-110767380D01*
X58009404Y-110815000D01*
X58437976Y-111100714D02*
X58437976Y-112100714D01*
X58437976Y-111148333D02*
X58533214Y-111100714D01*
X58723690Y-111100714D01*
X58818928Y-111148333D01*
X58866547Y-111195952D01*
X58914166Y-111291190D01*
X58914166Y-111576904D01*
X58866547Y-111672142D01*
X58818928Y-111719761D01*
X58723690Y-111767380D01*
X58533214Y-111767380D01*
X58437976Y-111719761D01*
X59342738Y-111767380D02*
X59342738Y-111100714D01*
X59342738Y-111291190D02*
X59390357Y-111195952D01*
X59437976Y-111148333D01*
X59533214Y-111100714D01*
X59628452Y-111100714D01*
X59961785Y-111767380D02*
X59961785Y-111100714D01*
X59961785Y-110767380D02*
X59914166Y-110815000D01*
X59961785Y-110862619D01*
X60009404Y-110815000D01*
X59961785Y-110767380D01*
X59961785Y-110862619D01*
X60437976Y-111100714D02*
X60437976Y-111767380D01*
X60437976Y-111195952D02*
X60485595Y-111148333D01*
X60580833Y-111100714D01*
X60723690Y-111100714D01*
X60818928Y-111148333D01*
X60866547Y-111243571D01*
X60866547Y-111767380D01*
X61771309Y-111100714D02*
X61771309Y-111910238D01*
X61723690Y-112005476D01*
X61676071Y-112053095D01*
X61580833Y-112100714D01*
X61437976Y-112100714D01*
X61342738Y-112053095D01*
X61771309Y-111719761D02*
X61676071Y-111767380D01*
X61485595Y-111767380D01*
X61390357Y-111719761D01*
X61342738Y-111672142D01*
X61295119Y-111576904D01*
X61295119Y-111291190D01*
X61342738Y-111195952D01*
X61390357Y-111148333D01*
X61485595Y-111100714D01*
X61676071Y-111100714D01*
X61771309Y-111148333D01*
X62961785Y-110862619D02*
X63009404Y-110815000D01*
X63104642Y-110767380D01*
X63342738Y-110767380D01*
X63437976Y-110815000D01*
X63485595Y-110862619D01*
X63533214Y-110957857D01*
X63533214Y-111053095D01*
X63485595Y-111195952D01*
X62914166Y-111767380D01*
X63533214Y-111767380D01*
X64152261Y-110767380D02*
X64247500Y-110767380D01*
X64342738Y-110815000D01*
X64390357Y-110862619D01*
X64437976Y-110957857D01*
X64485595Y-111148333D01*
X64485595Y-111386428D01*
X64437976Y-111576904D01*
X64390357Y-111672142D01*
X64342738Y-111719761D01*
X64247500Y-111767380D01*
X64152261Y-111767380D01*
X64057023Y-111719761D01*
X64009404Y-111672142D01*
X63961785Y-111576904D01*
X63914166Y-111386428D01*
X63914166Y-111148333D01*
X63961785Y-110957857D01*
X64009404Y-110862619D01*
X64057023Y-110815000D01*
X64152261Y-110767380D01*
X65437976Y-111767380D02*
X64866547Y-111767380D01*
X65152261Y-111767380D02*
X65152261Y-110767380D01*
X65057023Y-110910238D01*
X64961785Y-111005476D01*
X64866547Y-111053095D01*
X65914166Y-111767380D02*
X66104642Y-111767380D01*
X66199880Y-111719761D01*
X66247500Y-111672142D01*
X66342738Y-111529285D01*
X66390357Y-111338809D01*
X66390357Y-110957857D01*
X66342738Y-110862619D01*
X66295119Y-110815000D01*
X66199880Y-110767380D01*
X66009404Y-110767380D01*
X65914166Y-110815000D01*
X65866547Y-110862619D01*
X65818928Y-110957857D01*
X65818928Y-111195952D01*
X65866547Y-111291190D01*
X65914166Y-111338809D01*
X66009404Y-111386428D01*
X66199880Y-111386428D01*
X66295119Y-111338809D01*
X66342738Y-111291190D01*
X66390357Y-111195952D01*
X58057023Y-113322142D02*
X58009404Y-113369761D01*
X57866547Y-113417380D01*
X57771309Y-113417380D01*
X57628452Y-113369761D01*
X57533214Y-113274523D01*
X57485595Y-113179285D01*
X57437976Y-112988809D01*
X57437976Y-112845952D01*
X57485595Y-112655476D01*
X57533214Y-112560238D01*
X57628452Y-112465000D01*
X57771309Y-112417380D01*
X57866547Y-112417380D01*
X58009404Y-112465000D01*
X58057023Y-112512619D01*
X58485595Y-113417380D02*
X58485595Y-112417380D01*
X58914166Y-113417380D02*
X58914166Y-112893571D01*
X58866547Y-112798333D01*
X58771309Y-112750714D01*
X58628452Y-112750714D01*
X58533214Y-112798333D01*
X58485595Y-112845952D01*
X59818928Y-113417380D02*
X59818928Y-112893571D01*
X59771309Y-112798333D01*
X59676071Y-112750714D01*
X59485595Y-112750714D01*
X59390357Y-112798333D01*
X59818928Y-113369761D02*
X59723690Y-113417380D01*
X59485595Y-113417380D01*
X59390357Y-113369761D01*
X59342738Y-113274523D01*
X59342738Y-113179285D01*
X59390357Y-113084047D01*
X59485595Y-113036428D01*
X59723690Y-113036428D01*
X59818928Y-112988809D01*
X60247500Y-113369761D02*
X60342738Y-113417380D01*
X60533214Y-113417380D01*
X60628452Y-113369761D01*
X60676071Y-113274523D01*
X60676071Y-113226904D01*
X60628452Y-113131666D01*
X60533214Y-113084047D01*
X60390357Y-113084047D01*
X60295119Y-113036428D01*
X60247500Y-112941190D01*
X60247500Y-112893571D01*
X60295119Y-112798333D01*
X60390357Y-112750714D01*
X60533214Y-112750714D01*
X60628452Y-112798333D01*
X61485595Y-113369761D02*
X61390357Y-113417380D01*
X61199880Y-113417380D01*
X61104642Y-113369761D01*
X61057023Y-113274523D01*
X61057023Y-112893571D01*
X61104642Y-112798333D01*
X61199880Y-112750714D01*
X61390357Y-112750714D01*
X61485595Y-112798333D01*
X61533214Y-112893571D01*
X61533214Y-112988809D01*
X61057023Y-113084047D01*
X63057023Y-112893571D02*
X63199880Y-112941190D01*
X63247500Y-112988809D01*
X63295119Y-113084047D01*
X63295119Y-113226904D01*
X63247500Y-113322142D01*
X63199880Y-113369761D01*
X63104642Y-113417380D01*
X62723690Y-113417380D01*
X62723690Y-112417380D01*
X63057023Y-112417380D01*
X63152261Y-112465000D01*
X63199880Y-112512619D01*
X63247500Y-112607857D01*
X63247500Y-112703095D01*
X63199880Y-112798333D01*
X63152261Y-112845952D01*
X63057023Y-112893571D01*
X62723690Y-112893571D01*
X63866547Y-113417380D02*
X63771309Y-113369761D01*
X63723690Y-113274523D01*
X63723690Y-112417380D01*
X64390357Y-113417380D02*
X64295119Y-113369761D01*
X64247500Y-113322142D01*
X64199880Y-113226904D01*
X64199880Y-112941190D01*
X64247500Y-112845952D01*
X64295119Y-112798333D01*
X64390357Y-112750714D01*
X64533214Y-112750714D01*
X64628452Y-112798333D01*
X64676071Y-112845952D01*
X64723690Y-112941190D01*
X64723690Y-113226904D01*
X64676071Y-113322142D01*
X64628452Y-113369761D01*
X64533214Y-113417380D01*
X64390357Y-113417380D01*
X65580833Y-113369761D02*
X65485595Y-113417380D01*
X65295119Y-113417380D01*
X65199880Y-113369761D01*
X65152261Y-113322142D01*
X65104642Y-113226904D01*
X65104642Y-112941190D01*
X65152261Y-112845952D01*
X65199880Y-112798333D01*
X65295119Y-112750714D01*
X65485595Y-112750714D01*
X65580833Y-112798333D01*
X66009404Y-113417380D02*
X66009404Y-112417380D01*
X66104642Y-113036428D02*
X66390357Y-113417380D01*
X66390357Y-112750714D02*
X66009404Y-113131666D01*
X110760000Y-85542380D02*
X110760000Y-84542380D01*
X111236190Y-85542380D02*
X111236190Y-84542380D01*
X111569523Y-85256666D01*
X111902857Y-84542380D01*
X111902857Y-85542380D01*
X112331428Y-85256666D02*
X112807619Y-85256666D01*
X112236190Y-85542380D02*
X112569523Y-84542380D01*
X112902857Y-85542380D01*
X110831428Y-81732380D02*
X110831428Y-80732380D01*
X111307619Y-81732380D02*
X111307619Y-80732380D01*
X111688571Y-80732380D01*
X111783809Y-80780000D01*
X111831428Y-80827619D01*
X111879047Y-80922857D01*
X111879047Y-81065714D01*
X111831428Y-81160952D01*
X111783809Y-81208571D01*
X111688571Y-81256190D01*
X111307619Y-81256190D01*
X112260000Y-81446666D02*
X112736190Y-81446666D01*
X112164761Y-81732380D02*
X112498095Y-80732380D01*
X112831428Y-81732380D01*
X110688571Y-99512380D02*
X110688571Y-98512380D01*
X111164761Y-99512380D02*
X111164761Y-98512380D01*
X111498095Y-99226666D01*
X111831428Y-98512380D01*
X111831428Y-99512380D01*
X112640952Y-98988571D02*
X112783809Y-99036190D01*
X112831428Y-99083809D01*
X112879047Y-99179047D01*
X112879047Y-99321904D01*
X112831428Y-99417142D01*
X112783809Y-99464761D01*
X112688571Y-99512380D01*
X112307619Y-99512380D01*
X112307619Y-98512380D01*
X112640952Y-98512380D01*
X112736190Y-98560000D01*
X112783809Y-98607619D01*
X112831428Y-98702857D01*
X112831428Y-98798095D01*
X112783809Y-98893333D01*
X112736190Y-98940952D01*
X112640952Y-98988571D01*
X112307619Y-98988571D01*
X110760000Y-94432380D02*
X110760000Y-93432380D01*
X111236190Y-94432380D02*
X111236190Y-93432380D01*
X111617142Y-93432380D01*
X111712380Y-93480000D01*
X111760000Y-93527619D01*
X111807619Y-93622857D01*
X111807619Y-93765714D01*
X111760000Y-93860952D01*
X111712380Y-93908571D01*
X111617142Y-93956190D01*
X111236190Y-93956190D01*
X112569523Y-93908571D02*
X112712380Y-93956190D01*
X112760000Y-94003809D01*
X112807619Y-94099047D01*
X112807619Y-94241904D01*
X112760000Y-94337142D01*
X112712380Y-94384761D01*
X112617142Y-94432380D01*
X112236190Y-94432380D01*
X112236190Y-93432380D01*
X112569523Y-93432380D01*
X112664761Y-93480000D01*
X112712380Y-93527619D01*
X112760000Y-93622857D01*
X112760000Y-93718095D01*
X112712380Y-93813333D01*
X112664761Y-93860952D01*
X112569523Y-93908571D01*
X112236190Y-93908571D01*
X105402285Y-62952380D02*
X105735619Y-63952380D01*
X106068952Y-62952380D01*
X106973714Y-63952380D02*
X106640380Y-63476190D01*
X106402285Y-63952380D02*
X106402285Y-62952380D01*
X106783238Y-62952380D01*
X106878476Y-63000000D01*
X106926095Y-63047619D01*
X106973714Y-63142857D01*
X106973714Y-63285714D01*
X106926095Y-63380952D01*
X106878476Y-63428571D01*
X106783238Y-63476190D01*
X106402285Y-63476190D01*
X107402285Y-63428571D02*
X107735619Y-63428571D01*
X107878476Y-63952380D02*
X107402285Y-63952380D01*
X107402285Y-62952380D01*
X107878476Y-62952380D01*
X108830857Y-63000000D02*
X108735619Y-62952380D01*
X108592761Y-62952380D01*
X108449904Y-63000000D01*
X108354666Y-63095238D01*
X108307047Y-63190476D01*
X108259428Y-63380952D01*
X108259428Y-63523809D01*
X108307047Y-63714285D01*
X108354666Y-63809523D01*
X108449904Y-63904761D01*
X108592761Y-63952380D01*
X108687999Y-63952380D01*
X108830857Y-63904761D01*
X108878476Y-63857142D01*
X108878476Y-63523809D01*
X108687999Y-63523809D01*
X95250095Y-55380000D02*
X95154857Y-55332380D01*
X95012000Y-55332380D01*
X94869142Y-55380000D01*
X94773904Y-55475238D01*
X94726285Y-55570476D01*
X94678666Y-55760952D01*
X94678666Y-55903809D01*
X94726285Y-56094285D01*
X94773904Y-56189523D01*
X94869142Y-56284761D01*
X95012000Y-56332380D01*
X95107238Y-56332380D01*
X95250095Y-56284761D01*
X95297714Y-56237142D01*
X95297714Y-55903809D01*
X95107238Y-55903809D01*
X95726285Y-56332380D02*
X95726285Y-55332380D01*
X96297714Y-56332380D01*
X96297714Y-55332380D01*
X96773904Y-56332380D02*
X96773904Y-55332380D01*
X97012000Y-55332380D01*
X97154857Y-55380000D01*
X97250095Y-55475238D01*
X97297714Y-55570476D01*
X97345333Y-55760952D01*
X97345333Y-55903809D01*
X97297714Y-56094285D01*
X97250095Y-56189523D01*
X97154857Y-56284761D01*
X97012000Y-56332380D01*
X96773904Y-56332380D01*
X82502476Y-64587428D02*
X83264380Y-64587428D01*
X82883428Y-64968380D02*
X82883428Y-64206476D01*
X83597714Y-63968380D02*
X83931047Y-64968380D01*
X84264380Y-63968380D01*
X108053142Y-75461714D02*
X108100761Y-75509333D01*
X108148380Y-75652190D01*
X108148380Y-75747428D01*
X108100761Y-75890285D01*
X108005523Y-75985523D01*
X107910285Y-76033142D01*
X107719809Y-76080761D01*
X107576952Y-76080761D01*
X107386476Y-76033142D01*
X107291238Y-75985523D01*
X107196000Y-75890285D01*
X107148380Y-75747428D01*
X107148380Y-75652190D01*
X107196000Y-75509333D01*
X107243619Y-75461714D01*
X107148380Y-74842666D02*
X107148380Y-74652190D01*
X107196000Y-74556952D01*
X107291238Y-74461714D01*
X107481714Y-74414095D01*
X107815047Y-74414095D01*
X108005523Y-74461714D01*
X108100761Y-74556952D01*
X108148380Y-74652190D01*
X108148380Y-74842666D01*
X108100761Y-74937904D01*
X108005523Y-75033142D01*
X107815047Y-75080761D01*
X107481714Y-75080761D01*
X107291238Y-75033142D01*
X107196000Y-74937904D01*
X107148380Y-74842666D01*
X108148380Y-73985523D02*
X107148380Y-73985523D01*
X107862666Y-73652190D01*
X107148380Y-73318857D01*
X108148380Y-73318857D01*
X111029714Y-69540380D02*
X110458285Y-69540380D01*
X110744000Y-69540380D02*
X110744000Y-68540380D01*
X110648761Y-68683238D01*
X110553523Y-68778476D01*
X110458285Y-68826095D01*
X110696380Y-78700380D02*
X110791619Y-78700380D01*
X110886857Y-78748000D01*
X110934476Y-78795619D01*
X110982095Y-78890857D01*
X111029714Y-79081333D01*
X111029714Y-79319428D01*
X110982095Y-79509904D01*
X110934476Y-79605142D01*
X110886857Y-79652761D01*
X110791619Y-79700380D01*
X110696380Y-79700380D01*
X110601142Y-79652761D01*
X110553523Y-79605142D01*
X110505904Y-79509904D01*
X110458285Y-79319428D01*
X110458285Y-79081333D01*
X110505904Y-78890857D01*
X110553523Y-78795619D01*
X110601142Y-78748000D01*
X110696380Y-78700380D01*
X116848000Y-59928000D02*
X116800380Y-60023238D01*
X116800380Y-60166095D01*
X116848000Y-60308952D01*
X116943238Y-60404190D01*
X117038476Y-60451809D01*
X117228952Y-60499428D01*
X117371809Y-60499428D01*
X117562285Y-60451809D01*
X117657523Y-60404190D01*
X117752761Y-60308952D01*
X117800380Y-60166095D01*
X117800380Y-60070857D01*
X117752761Y-59928000D01*
X117705142Y-59880380D01*
X117371809Y-59880380D01*
X117371809Y-60070857D01*
X117800380Y-59451809D02*
X116800380Y-59451809D01*
X116800380Y-59070857D01*
X116848000Y-58975619D01*
X116895619Y-58928000D01*
X116990857Y-58880380D01*
X117133714Y-58880380D01*
X117228952Y-58928000D01*
X117276571Y-58975619D01*
X117324190Y-59070857D01*
X117324190Y-59451809D01*
X117800380Y-58451809D02*
X116800380Y-58451809D01*
X116800380Y-57785142D02*
X116800380Y-57594666D01*
X116848000Y-57499428D01*
X116943238Y-57404190D01*
X117133714Y-57356571D01*
X117467047Y-57356571D01*
X117657523Y-57404190D01*
X117752761Y-57499428D01*
X117800380Y-57594666D01*
X117800380Y-57785142D01*
X117752761Y-57880380D01*
X117657523Y-57975619D01*
X117467047Y-58023238D01*
X117133714Y-58023238D01*
X116943238Y-57975619D01*
X116848000Y-57880380D01*
X116800380Y-57785142D01*
X114538095Y-63968380D02*
X114061904Y-63968380D01*
X114014285Y-64444571D01*
X114061904Y-64396952D01*
X114157142Y-64349333D01*
X114395238Y-64349333D01*
X114490476Y-64396952D01*
X114538095Y-64444571D01*
X114585714Y-64539809D01*
X114585714Y-64777904D01*
X114538095Y-64873142D01*
X114490476Y-64920761D01*
X114395238Y-64968380D01*
X114157142Y-64968380D01*
X114061904Y-64920761D01*
X114014285Y-64873142D01*
X114490476Y-66841714D02*
X114490476Y-67508380D01*
X114252380Y-66460761D02*
X114014285Y-67175047D01*
X114633333Y-67175047D01*
X113966666Y-69048380D02*
X114585714Y-69048380D01*
X114252380Y-69429333D01*
X114395238Y-69429333D01*
X114490476Y-69476952D01*
X114538095Y-69524571D01*
X114585714Y-69619809D01*
X114585714Y-69857904D01*
X114538095Y-69953142D01*
X114490476Y-70000761D01*
X114395238Y-70048380D01*
X114109523Y-70048380D01*
X114014285Y-70000761D01*
X113966666Y-69953142D01*
X114014285Y-71683619D02*
X114061904Y-71636000D01*
X114157142Y-71588380D01*
X114395238Y-71588380D01*
X114490476Y-71636000D01*
X114538095Y-71683619D01*
X114585714Y-71778857D01*
X114585714Y-71874095D01*
X114538095Y-72016952D01*
X113966666Y-72588380D01*
X114585714Y-72588380D01*
X114585714Y-75128380D02*
X114014285Y-75128380D01*
X114300000Y-75128380D02*
X114300000Y-74128380D01*
X114204761Y-74271238D01*
X114109523Y-74366476D01*
X114014285Y-74414095D01*
X100480761Y-109489714D02*
X100528380Y-109346857D01*
X100528380Y-109108761D01*
X100480761Y-109013523D01*
X100433142Y-108965904D01*
X100337904Y-108918285D01*
X100242666Y-108918285D01*
X100147428Y-108965904D01*
X100099809Y-109013523D01*
X100052190Y-109108761D01*
X100004571Y-109299238D01*
X99956952Y-109394476D01*
X99909333Y-109442095D01*
X99814095Y-109489714D01*
X99718857Y-109489714D01*
X99623619Y-109442095D01*
X99576000Y-109394476D01*
X99528380Y-109299238D01*
X99528380Y-109061142D01*
X99576000Y-108918285D01*
X100433142Y-107918285D02*
X100480761Y-107965904D01*
X100528380Y-108108761D01*
X100528380Y-108204000D01*
X100480761Y-108346857D01*
X100385523Y-108442095D01*
X100290285Y-108489714D01*
X100099809Y-108537333D01*
X99956952Y-108537333D01*
X99766476Y-108489714D01*
X99671238Y-108442095D01*
X99576000Y-108346857D01*
X99528380Y-108204000D01*
X99528380Y-108108761D01*
X99576000Y-107965904D01*
X99623619Y-107918285D01*
X100528380Y-107489714D02*
X99528380Y-107489714D01*
X100528380Y-106918285D02*
X99956952Y-107346857D01*
X99528380Y-106918285D02*
X100099809Y-107489714D01*
X97893142Y-108870666D02*
X97940761Y-108918285D01*
X97988380Y-109061142D01*
X97988380Y-109156380D01*
X97940761Y-109299238D01*
X97845523Y-109394476D01*
X97750285Y-109442095D01*
X97559809Y-109489714D01*
X97416952Y-109489714D01*
X97226476Y-109442095D01*
X97131238Y-109394476D01*
X97036000Y-109299238D01*
X96988380Y-109156380D01*
X96988380Y-109061142D01*
X97036000Y-108918285D01*
X97083619Y-108870666D01*
X97940761Y-108489714D02*
X97988380Y-108346857D01*
X97988380Y-108108761D01*
X97940761Y-108013523D01*
X97893142Y-107965904D01*
X97797904Y-107918285D01*
X97702666Y-107918285D01*
X97607428Y-107965904D01*
X97559809Y-108013523D01*
X97512190Y-108108761D01*
X97464571Y-108299238D01*
X97416952Y-108394476D01*
X97369333Y-108442095D01*
X97274095Y-108489714D01*
X97178857Y-108489714D01*
X97083619Y-108442095D01*
X97036000Y-108394476D01*
X96988380Y-108299238D01*
X96988380Y-108061142D01*
X97036000Y-107918285D01*
X97464571Y-107156380D02*
X97512190Y-107013523D01*
X97559809Y-106965904D01*
X97655047Y-106918285D01*
X97797904Y-106918285D01*
X97893142Y-106965904D01*
X97940761Y-107013523D01*
X97988380Y-107108761D01*
X97988380Y-107489714D01*
X96988380Y-107489714D01*
X96988380Y-107156380D01*
X97036000Y-107061142D01*
X97083619Y-107013523D01*
X97178857Y-106965904D01*
X97274095Y-106965904D01*
X97369333Y-107013523D01*
X97416952Y-107061142D01*
X97464571Y-107156380D01*
X97464571Y-107489714D01*
X95448380Y-109775428D02*
X94448380Y-109775428D01*
X95162666Y-109442095D01*
X94448380Y-109108761D01*
X95448380Y-109108761D01*
X94448380Y-108442095D02*
X94448380Y-108251619D01*
X94496000Y-108156380D01*
X94591238Y-108061142D01*
X94781714Y-108013523D01*
X95115047Y-108013523D01*
X95305523Y-108061142D01*
X95400761Y-108156380D01*
X95448380Y-108251619D01*
X95448380Y-108442095D01*
X95400761Y-108537333D01*
X95305523Y-108632571D01*
X95115047Y-108680190D01*
X94781714Y-108680190D01*
X94591238Y-108632571D01*
X94496000Y-108537333D01*
X94448380Y-108442095D01*
X95400761Y-107632571D02*
X95448380Y-107489714D01*
X95448380Y-107251619D01*
X95400761Y-107156380D01*
X95353142Y-107108761D01*
X95257904Y-107061142D01*
X95162666Y-107061142D01*
X95067428Y-107108761D01*
X95019809Y-107156380D01*
X94972190Y-107251619D01*
X94924571Y-107442095D01*
X94876952Y-107537333D01*
X94829333Y-107584952D01*
X94734095Y-107632571D01*
X94638857Y-107632571D01*
X94543619Y-107584952D01*
X94496000Y-107537333D01*
X94448380Y-107442095D01*
X94448380Y-107204000D01*
X94496000Y-107061142D01*
X95448380Y-106632571D02*
X94448380Y-106632571D01*
X92908380Y-109775428D02*
X91908380Y-109775428D01*
X92622666Y-109442095D01*
X91908380Y-109108761D01*
X92908380Y-109108761D01*
X92908380Y-108632571D02*
X91908380Y-108632571D01*
X92860761Y-108204000D02*
X92908380Y-108061142D01*
X92908380Y-107823047D01*
X92860761Y-107727809D01*
X92813142Y-107680190D01*
X92717904Y-107632571D01*
X92622666Y-107632571D01*
X92527428Y-107680190D01*
X92479809Y-107727809D01*
X92432190Y-107823047D01*
X92384571Y-108013523D01*
X92336952Y-108108761D01*
X92289333Y-108156380D01*
X92194095Y-108204000D01*
X92098857Y-108204000D01*
X92003619Y-108156380D01*
X91956000Y-108108761D01*
X91908380Y-108013523D01*
X91908380Y-107775428D01*
X91956000Y-107632571D01*
X91908380Y-107013523D02*
X91908380Y-106823047D01*
X91956000Y-106727809D01*
X92051238Y-106632571D01*
X92241714Y-106584952D01*
X92575047Y-106584952D01*
X92765523Y-106632571D01*
X92860761Y-106727809D01*
X92908380Y-106823047D01*
X92908380Y-107013523D01*
X92860761Y-107108761D01*
X92765523Y-107204000D01*
X92575047Y-107251619D01*
X92241714Y-107251619D01*
X92051238Y-107204000D01*
X91956000Y-107108761D01*
X91908380Y-107013523D01*
X89416000Y-108965904D02*
X89368380Y-109061142D01*
X89368380Y-109204000D01*
X89416000Y-109346857D01*
X89511238Y-109442095D01*
X89606476Y-109489714D01*
X89796952Y-109537333D01*
X89939809Y-109537333D01*
X90130285Y-109489714D01*
X90225523Y-109442095D01*
X90320761Y-109346857D01*
X90368380Y-109204000D01*
X90368380Y-109108761D01*
X90320761Y-108965904D01*
X90273142Y-108918285D01*
X89939809Y-108918285D01*
X89939809Y-109108761D01*
X90368380Y-108489714D02*
X89368380Y-108489714D01*
X90368380Y-107918285D01*
X89368380Y-107918285D01*
X90368380Y-107442095D02*
X89368380Y-107442095D01*
X89368380Y-107204000D01*
X89416000Y-107061142D01*
X89511238Y-106965904D01*
X89606476Y-106918285D01*
X89796952Y-106870666D01*
X89939809Y-106870666D01*
X90130285Y-106918285D01*
X90225523Y-106965904D01*
X90320761Y-107061142D01*
X90368380Y-107204000D01*
X90368380Y-107442095D01*
D11*
X110260000Y-103318571D02*
X110545714Y-103318571D01*
X110688571Y-103390000D01*
X110831428Y-103532857D01*
X110902857Y-103818571D01*
X110902857Y-104318571D01*
X110831428Y-104604285D01*
X110688571Y-104747142D01*
X110545714Y-104818571D01*
X110260000Y-104818571D01*
X110117142Y-104747142D01*
X109974285Y-104604285D01*
X109902857Y-104318571D01*
X109902857Y-103818571D01*
X109974285Y-103532857D01*
X110117142Y-103390000D01*
X110260000Y-103318571D01*
X111545714Y-103318571D02*
X111545714Y-104532857D01*
X111617142Y-104675714D01*
X111688571Y-104747142D01*
X111831428Y-104818571D01*
X112117142Y-104818571D01*
X112260000Y-104747142D01*
X112331428Y-104675714D01*
X112402857Y-104532857D01*
X112402857Y-103318571D01*
X112902857Y-103318571D02*
X113760000Y-103318571D01*
X113331428Y-104818571D02*
X113331428Y-103318571D01*
X110974285Y-88308571D02*
X110974285Y-86808571D01*
X111688571Y-88308571D02*
X111688571Y-86808571D01*
X112545714Y-88308571D01*
X112545714Y-86808571D01*
X54324285Y-56558571D02*
X53467142Y-56558571D01*
X53895714Y-56558571D02*
X53895714Y-55058571D01*
X53752857Y-55272857D01*
X53610000Y-55415714D01*
X53467142Y-55487142D01*
X54895714Y-55201428D02*
X54967142Y-55130000D01*
X55110000Y-55058571D01*
X55467142Y-55058571D01*
X55610000Y-55130000D01*
X55681428Y-55201428D01*
X55752857Y-55344285D01*
X55752857Y-55487142D01*
X55681428Y-55701428D01*
X54824285Y-56558571D01*
X55752857Y-56558571D01*
X55038571Y-108628571D02*
X54181428Y-108628571D01*
X54610000Y-108628571D02*
X54610000Y-107128571D01*
X54467142Y-107342857D01*
X54324285Y-107485714D01*
X54181428Y-107557142D01*
D12*
X51102380Y-54791428D02*
X53037619Y-54791428D01*
X52070000Y-55759047D02*
X52070000Y-53823809D01*
X51102380Y-109401428D02*
X53037619Y-109401428D01*
D13*
X75382000Y-67832000D02*
X75382000Y-66372000D01*
X78542000Y-67832000D02*
X78542000Y-65672000D01*
X78542000Y-67832000D02*
X77612000Y-67832000D01*
X75382000Y-67832000D02*
X76312000Y-67832000D01*
X93555078Y-62282000D02*
X93037922Y-62282000D01*
X93555078Y-63702000D02*
X93037922Y-63702000D01*
X89070922Y-66346000D02*
X89588078Y-66346000D01*
X89070922Y-67766000D02*
X89588078Y-67766000D01*
X101516922Y-79300000D02*
X102034078Y-79300000D01*
X101516922Y-80720000D02*
X102034078Y-80720000D01*
X101516922Y-78688000D02*
X102034078Y-78688000D01*
X101516922Y-77268000D02*
X102034078Y-77268000D01*
X101516922Y-75236000D02*
X102034078Y-75236000D01*
X101516922Y-76656000D02*
X102034078Y-76656000D01*
X96748078Y-94738000D02*
X96230922Y-94738000D01*
X96748078Y-93318000D02*
X96230922Y-93318000D01*
X87827078Y-96770000D02*
X87309922Y-96770000D01*
X87827078Y-95350000D02*
X87309922Y-95350000D01*
X96748078Y-99668000D02*
X96230922Y-99668000D01*
X96748078Y-101088000D02*
X96230922Y-101088000D01*
X87827078Y-99056000D02*
X87309922Y-99056000D01*
X87827078Y-97636000D02*
X87309922Y-97636000D01*
X112838500Y-65080000D02*
X110153500Y-65080000D01*
X110153500Y-65080000D02*
X110153500Y-67000000D01*
X110153500Y-67000000D02*
X112838500Y-67000000D01*
X61373500Y-62794000D02*
X58688500Y-62794000D01*
X58688500Y-62794000D02*
X58688500Y-64714000D01*
X58688500Y-64714000D02*
X61373500Y-64714000D01*
X61373500Y-66096000D02*
X58688500Y-66096000D01*
X58688500Y-66096000D02*
X58688500Y-68016000D01*
X58688500Y-68016000D02*
X61373500Y-68016000D01*
X61373500Y-69398000D02*
X58688500Y-69398000D01*
X58688500Y-69398000D02*
X58688500Y-71318000D01*
X58688500Y-71318000D02*
X61373500Y-71318000D01*
X58688500Y-74620000D02*
X61373500Y-74620000D01*
X58688500Y-72700000D02*
X58688500Y-74620000D01*
X61373500Y-72700000D02*
X58688500Y-72700000D01*
X58688500Y-77922000D02*
X61373500Y-77922000D01*
X58688500Y-76002000D02*
X58688500Y-77922000D01*
X61373500Y-76002000D02*
X58688500Y-76002000D01*
X61373500Y-79304000D02*
X58688500Y-79304000D01*
X58688500Y-79304000D02*
X58688500Y-81224000D01*
X58688500Y-81224000D02*
X61373500Y-81224000D01*
X58688500Y-84526000D02*
X61373500Y-84526000D01*
X58688500Y-82606000D02*
X58688500Y-84526000D01*
X61373500Y-82606000D02*
X58688500Y-82606000D01*
X61373500Y-85908000D02*
X58688500Y-85908000D01*
X58688500Y-85908000D02*
X58688500Y-87828000D01*
X58688500Y-87828000D02*
X61373500Y-87828000D01*
X61373500Y-89210000D02*
X58688500Y-89210000D01*
X58688500Y-89210000D02*
X58688500Y-91130000D01*
X58688500Y-91130000D02*
X61373500Y-91130000D01*
X58688500Y-94432000D02*
X61373500Y-94432000D01*
X58688500Y-92512000D02*
X58688500Y-94432000D01*
X61373500Y-92512000D02*
X58688500Y-92512000D01*
X61373500Y-95814000D02*
X58688500Y-95814000D01*
X58688500Y-95814000D02*
X58688500Y-97734000D01*
X58688500Y-97734000D02*
X61373500Y-97734000D01*
X58688500Y-101036000D02*
X61373500Y-101036000D01*
X58688500Y-99116000D02*
X58688500Y-101036000D01*
X61373500Y-99116000D02*
X58688500Y-99116000D01*
D10*
X114100000Y-77000000D02*
X119000000Y-77000000D01*
X114100000Y-89000000D02*
X114100000Y-77000000D01*
X119000000Y-89000000D02*
X114100000Y-89000000D01*
X119000000Y-86000000D02*
X119000000Y-89000000D01*
X118000000Y-86000000D02*
X119000000Y-86000000D01*
X118000000Y-80000000D02*
X118000000Y-86000000D01*
X119000000Y-80000000D02*
X118000000Y-80000000D01*
X119000000Y-77000000D02*
X119000000Y-80000000D01*
X119000000Y-90000000D02*
X119000000Y-93000000D01*
X119000000Y-93000000D02*
X118000000Y-93000000D01*
X118000000Y-93000000D02*
X118000000Y-99000000D01*
X118000000Y-99000000D02*
X119000000Y-99000000D01*
X119000000Y-99000000D02*
X119000000Y-102000000D01*
X119000000Y-102000000D02*
X114100000Y-102000000D01*
X114100000Y-102000000D02*
X114100000Y-90000000D01*
X114100000Y-90000000D02*
X119000000Y-90000000D01*
D13*
X108652000Y-78038000D02*
X111312000Y-78038000D01*
X108652000Y-72898000D02*
X108652000Y-78038000D01*
X111312000Y-72898000D02*
X111312000Y-78038000D01*
X108652000Y-72898000D02*
X111312000Y-72898000D01*
X108652000Y-71628000D02*
X108652000Y-70298000D01*
X108652000Y-70298000D02*
X109982000Y-70298000D01*
X118330000Y-63170000D02*
X115670000Y-63170000D01*
X118330000Y-73390000D02*
X118330000Y-63170000D01*
X115670000Y-73390000D02*
X115670000Y-63170000D01*
X118330000Y-73390000D02*
X115670000Y-73390000D01*
X118330000Y-74660000D02*
X118330000Y-75990000D01*
X118330000Y-75990000D02*
X117000000Y-75990000D01*
X56153578Y-61162000D02*
X55636422Y-61162000D01*
X56153578Y-59742000D02*
X55636422Y-59742000D01*
X56153578Y-63044000D02*
X55636422Y-63044000D01*
X56153578Y-64464000D02*
X55636422Y-64464000D01*
X56153578Y-67766000D02*
X55636422Y-67766000D01*
X56153578Y-66346000D02*
X55636422Y-66346000D01*
X56153578Y-69648000D02*
X55636422Y-69648000D01*
X56153578Y-71068000D02*
X55636422Y-71068000D01*
X56153578Y-74370000D02*
X55636422Y-74370000D01*
X56153578Y-72950000D02*
X55636422Y-72950000D01*
X56153578Y-76252000D02*
X55636422Y-76252000D01*
X56153578Y-77672000D02*
X55636422Y-77672000D01*
X56153578Y-80974000D02*
X55636422Y-80974000D01*
X56153578Y-79554000D02*
X55636422Y-79554000D01*
X56153578Y-82856000D02*
X55636422Y-82856000D01*
X56153578Y-84276000D02*
X55636422Y-84276000D01*
X56153578Y-87578000D02*
X55636422Y-87578000D01*
X56153578Y-86158000D02*
X55636422Y-86158000D01*
X56153578Y-89460000D02*
X55636422Y-89460000D01*
X56153578Y-90880000D02*
X55636422Y-90880000D01*
X56153578Y-92762000D02*
X55636422Y-92762000D01*
X56153578Y-94182000D02*
X55636422Y-94182000D01*
X56153578Y-96064000D02*
X55636422Y-96064000D01*
X56153578Y-97484000D02*
X55636422Y-97484000D01*
X56153578Y-100786000D02*
X55636422Y-100786000D01*
X56153578Y-99366000D02*
X55636422Y-99366000D01*
X56153578Y-104088000D02*
X55636422Y-104088000D01*
X56153578Y-102668000D02*
X55636422Y-102668000D01*
X75382000Y-60688000D02*
X76312000Y-60688000D01*
X78542000Y-60688000D02*
X77612000Y-60688000D01*
X78542000Y-60688000D02*
X78542000Y-58528000D01*
X75382000Y-60688000D02*
X75382000Y-59228000D01*
X75382000Y-64276000D02*
X75382000Y-62816000D01*
X78542000Y-64276000D02*
X78542000Y-62116000D01*
X78542000Y-64276000D02*
X77612000Y-64276000D01*
X75382000Y-64276000D02*
X76312000Y-64276000D01*
X75382000Y-71388000D02*
X76312000Y-71388000D01*
X78542000Y-71388000D02*
X77612000Y-71388000D01*
X78542000Y-71388000D02*
X78542000Y-69228000D01*
X75382000Y-71388000D02*
X75382000Y-69928000D01*
X98014000Y-59582000D02*
X98014000Y-60842000D01*
X98014000Y-66402000D02*
X98014000Y-65142000D01*
X101774000Y-59582000D02*
X98014000Y-59582000D01*
X104024000Y-66402000D02*
X98014000Y-66402000D01*
X75382000Y-74944000D02*
X75382000Y-73484000D01*
X78542000Y-74944000D02*
X78542000Y-72784000D01*
X78542000Y-74944000D02*
X77612000Y-74944000D01*
X75382000Y-74944000D02*
X76312000Y-74944000D01*
X75382000Y-78500000D02*
X76312000Y-78500000D01*
X78542000Y-78500000D02*
X77612000Y-78500000D01*
X78542000Y-78500000D02*
X78542000Y-76340000D01*
X75382000Y-78500000D02*
X75382000Y-77040000D01*
X75382000Y-82056000D02*
X75382000Y-80596000D01*
X78542000Y-82056000D02*
X78542000Y-79896000D01*
X78542000Y-82056000D02*
X77612000Y-82056000D01*
X75382000Y-82056000D02*
X76312000Y-82056000D01*
X75382000Y-85612000D02*
X76312000Y-85612000D01*
X78542000Y-85612000D02*
X77612000Y-85612000D01*
X78542000Y-85612000D02*
X78542000Y-83452000D01*
X75382000Y-85612000D02*
X75382000Y-84152000D01*
X75382000Y-89168000D02*
X75382000Y-87708000D01*
X78542000Y-89168000D02*
X78542000Y-87008000D01*
X78542000Y-89168000D02*
X77612000Y-89168000D01*
X75382000Y-89168000D02*
X76312000Y-89168000D01*
X75382000Y-92724000D02*
X76312000Y-92724000D01*
X78542000Y-92724000D02*
X77612000Y-92724000D01*
X78542000Y-92724000D02*
X78542000Y-90564000D01*
X75382000Y-92724000D02*
X75382000Y-91264000D01*
X75382000Y-96280000D02*
X75382000Y-94820000D01*
X78542000Y-96280000D02*
X78542000Y-94120000D01*
X78542000Y-96280000D02*
X77612000Y-96280000D01*
X75382000Y-96280000D02*
X76312000Y-96280000D01*
X75382000Y-99836000D02*
X76312000Y-99836000D01*
X78542000Y-99836000D02*
X77612000Y-99836000D01*
X78542000Y-99836000D02*
X78542000Y-97676000D01*
X75382000Y-99836000D02*
X75382000Y-98376000D01*
X93555078Y-60400000D02*
X93037922Y-60400000D01*
X93555078Y-58980000D02*
X93037922Y-58980000D01*
X68506078Y-61162000D02*
X67988922Y-61162000D01*
X68506078Y-59742000D02*
X67988922Y-59742000D01*
X87682000Y-62146922D02*
X87682000Y-62664078D01*
X89102000Y-62146922D02*
X89102000Y-62664078D01*
X68506078Y-64464000D02*
X67988922Y-64464000D01*
X68506078Y-63044000D02*
X67988922Y-63044000D01*
X68506078Y-66346000D02*
X67988922Y-66346000D01*
X68506078Y-67766000D02*
X67988922Y-67766000D01*
X68506078Y-69648000D02*
X67988922Y-69648000D01*
X68506078Y-71068000D02*
X67988922Y-71068000D01*
X68506078Y-74370000D02*
X67988922Y-74370000D01*
X68506078Y-72950000D02*
X67988922Y-72950000D01*
X68506078Y-76252000D02*
X67988922Y-76252000D01*
X68506078Y-77672000D02*
X67988922Y-77672000D01*
X68506078Y-80974000D02*
X67988922Y-80974000D01*
X68506078Y-79554000D02*
X67988922Y-79554000D01*
X102310000Y-71290922D02*
X102310000Y-71808078D01*
X100890000Y-71290922D02*
X100890000Y-71808078D01*
X106882000Y-71808078D02*
X106882000Y-71290922D01*
X105462000Y-71808078D02*
X105462000Y-71290922D01*
X68506078Y-84276000D02*
X67988922Y-84276000D01*
X68506078Y-82856000D02*
X67988922Y-82856000D01*
X94528078Y-92452000D02*
X94010922Y-92452000D01*
X94528078Y-91032000D02*
X94010922Y-91032000D01*
X68506078Y-86158000D02*
X67988922Y-86158000D01*
X68506078Y-87578000D02*
X67988922Y-87578000D01*
X94528078Y-95350000D02*
X94010922Y-95350000D01*
X94528078Y-96770000D02*
X94010922Y-96770000D01*
X94528078Y-99056000D02*
X94010922Y-99056000D01*
X94528078Y-97636000D02*
X94010922Y-97636000D01*
X68506078Y-89460000D02*
X67988922Y-89460000D01*
X68506078Y-90880000D02*
X67988922Y-90880000D01*
X94528078Y-101954000D02*
X94010922Y-101954000D01*
X94528078Y-103374000D02*
X94010922Y-103374000D01*
X68506078Y-92762000D02*
X67988922Y-92762000D01*
X68506078Y-94182000D02*
X67988922Y-94182000D01*
X68506078Y-97484000D02*
X67988922Y-97484000D01*
X68506078Y-96064000D02*
X67988922Y-96064000D01*
X112066000Y-61384922D02*
X112066000Y-61902078D01*
X113486000Y-61384922D02*
X113486000Y-61902078D01*
X64599078Y-63044000D02*
X64081922Y-63044000D01*
X64599078Y-64464000D02*
X64081922Y-64464000D01*
X64599078Y-67766000D02*
X64081922Y-67766000D01*
X64599078Y-66346000D02*
X64081922Y-66346000D01*
X64599078Y-71068000D02*
X64081922Y-71068000D01*
X64599078Y-69648000D02*
X64081922Y-69648000D01*
X64599078Y-74370000D02*
X64081922Y-74370000D01*
X64599078Y-72950000D02*
X64081922Y-72950000D01*
X64599078Y-77672000D02*
X64081922Y-77672000D01*
X64599078Y-76252000D02*
X64081922Y-76252000D01*
X64599078Y-79554000D02*
X64081922Y-79554000D01*
X64599078Y-80974000D02*
X64081922Y-80974000D01*
X64599078Y-84276000D02*
X64081922Y-84276000D01*
X64599078Y-82856000D02*
X64081922Y-82856000D01*
X64599078Y-87578000D02*
X64081922Y-87578000D01*
X64599078Y-86158000D02*
X64081922Y-86158000D01*
X64599078Y-90880000D02*
X64081922Y-90880000D01*
X64599078Y-89460000D02*
X64081922Y-89460000D01*
X64599078Y-92762000D02*
X64081922Y-92762000D01*
X64599078Y-94182000D02*
X64081922Y-94182000D01*
X64599078Y-96064000D02*
X64081922Y-96064000D01*
X64599078Y-97484000D02*
X64081922Y-97484000D01*
X64599078Y-99366000D02*
X64081922Y-99366000D01*
X64599078Y-100786000D02*
X64081922Y-100786000D01*
D10*
X85062000Y-61468000D02*
G75*
G03X85062000Y-61468000I-1750000J0D01*
G01*
X110462000Y-60706000D02*
G75*
G03X110462000Y-60706000I-1750000J0D01*
G01*
X101750000Y-56000000D02*
G75*
G03X101750000Y-56000000I-1750000J0D01*
G01*
X89217000Y-68315500D02*
X89217000Y-68565500D01*
X96967000Y-68315500D02*
X96967000Y-68663000D01*
X96967000Y-84465500D02*
X96967000Y-84118000D01*
X89217000Y-84465500D02*
X89217000Y-84118000D01*
X89217000Y-68315500D02*
X96967000Y-68315500D01*
X89217000Y-84465500D02*
X96967000Y-84465500D01*
X89217000Y-68565500D02*
X87792000Y-68565500D01*
D14*
X102031500Y-91805500D02*
G75*
G03X102031500Y-91805500I-317500J0D01*
G01*
D10*
X43561000Y-78510000D02*
X44831000Y-79780000D01*
X44831000Y-79780000D02*
X53467000Y-79780000D01*
X48387000Y-57936000D02*
X44831000Y-57936000D01*
X44831000Y-57936000D02*
X43561000Y-59206000D01*
X48387000Y-57936000D02*
X53467000Y-57936000D01*
X43561000Y-59206000D02*
X43561000Y-78510000D01*
X53467000Y-79780000D02*
X53467000Y-57936000D01*
X44577000Y-104694500D02*
X43307000Y-103424500D01*
X53467000Y-104694500D02*
X44577000Y-104694500D01*
X50419000Y-80056500D02*
X53467000Y-80056500D01*
X43307000Y-81326500D02*
X44577000Y-80056500D01*
X53467000Y-80056500D02*
X53467000Y-104694500D01*
X50419000Y-80056500D02*
X44577000Y-80056500D01*
X43307000Y-81326500D02*
X43307000Y-103424500D01*
D13*
X88590000Y-110670000D02*
X88590000Y-113330000D01*
X98810000Y-110670000D02*
X88590000Y-110670000D01*
X98810000Y-113330000D02*
X88590000Y-113330000D01*
X98810000Y-110670000D02*
X98810000Y-113330000D01*
X100080000Y-110670000D02*
X101410000Y-110670000D01*
X101410000Y-110670000D02*
X101410000Y-112000000D01*
D15*
G36*
X80491022Y-106789539D02*
X80798668Y-106871818D01*
X81425242Y-107145982D01*
X82029510Y-107565775D01*
X82578345Y-108107841D01*
X82617770Y-108154475D01*
X82830432Y-108419821D01*
X83000812Y-108651725D01*
X83108543Y-108820353D01*
X83133260Y-108895870D01*
X83124479Y-108896802D01*
X83053298Y-108843487D01*
X82884916Y-108706539D01*
X82651169Y-108511979D01*
X82565559Y-108439942D01*
X81853133Y-107911373D01*
X81135895Y-107530933D01*
X80399426Y-107297338D01*
X79629309Y-107209307D01*
X78811127Y-107265557D01*
X77930463Y-107464808D01*
X76972897Y-107805776D01*
X76706314Y-107918900D01*
X76337517Y-108073873D01*
X76112415Y-108155057D01*
X76024855Y-108167523D01*
X76068683Y-108116342D01*
X76237746Y-108006585D01*
X76525890Y-107843324D01*
X76926962Y-107631630D01*
X77258334Y-107463958D01*
X78037464Y-107107103D01*
X78723658Y-106865689D01*
X79343555Y-106735260D01*
X79923797Y-106711363D01*
X80491022Y-106789539D01*
X80491022Y-106789539D01*
G37*
X80491022Y-106789539D02*
X80798668Y-106871818D01*
X81425242Y-107145982D01*
X82029510Y-107565775D01*
X82578345Y-108107841D01*
X82617770Y-108154475D01*
X82830432Y-108419821D01*
X83000812Y-108651725D01*
X83108543Y-108820353D01*
X83133260Y-108895870D01*
X83124479Y-108896802D01*
X83053298Y-108843487D01*
X82884916Y-108706539D01*
X82651169Y-108511979D01*
X82565559Y-108439942D01*
X81853133Y-107911373D01*
X81135895Y-107530933D01*
X80399426Y-107297338D01*
X79629309Y-107209307D01*
X78811127Y-107265557D01*
X77930463Y-107464808D01*
X76972897Y-107805776D01*
X76706314Y-107918900D01*
X76337517Y-108073873D01*
X76112415Y-108155057D01*
X76024855Y-108167523D01*
X76068683Y-108116342D01*
X76237746Y-108006585D01*
X76525890Y-107843324D01*
X76926962Y-107631630D01*
X77258334Y-107463958D01*
X78037464Y-107107103D01*
X78723658Y-106865689D01*
X79343555Y-106735260D01*
X79923797Y-106711363D01*
X80491022Y-106789539D01*
G36*
X76604000Y-110180671D02*
X76794544Y-110207724D01*
X76858975Y-110257473D01*
X76856591Y-110278334D01*
X76753889Y-110374347D01*
X76637868Y-110411222D01*
X76494364Y-110483316D01*
X76452844Y-110665222D01*
X76423513Y-110980087D01*
X76347073Y-111193792D01*
X76235432Y-111273163D01*
X76234575Y-111273167D01*
X76174213Y-111248120D01*
X76152959Y-111152918D01*
X76171037Y-110957473D01*
X76228673Y-110631693D01*
X76239775Y-110574667D01*
X76207544Y-110450242D01*
X76114463Y-110426500D01*
X75968358Y-110381315D01*
X75928284Y-110331017D01*
X75877169Y-110351027D01*
X75772145Y-110492776D01*
X75634902Y-110726484D01*
X75619930Y-110754351D01*
X75466318Y-111013306D01*
X75326268Y-111199260D01*
X75229380Y-111273093D01*
X75227376Y-111273167D01*
X75137830Y-111196415D01*
X75037428Y-110991796D01*
X74978341Y-110815636D01*
X74889659Y-110493351D01*
X74854360Y-110300002D01*
X74872067Y-110203949D01*
X74942406Y-110173554D01*
X74970720Y-110172500D01*
X75077642Y-110245443D01*
X75147125Y-110405334D01*
X75213921Y-110675498D01*
X75273097Y-110786536D01*
X75344480Y-110746414D01*
X75447897Y-110563099D01*
X75463167Y-110532334D01*
X75640694Y-110172500D01*
X76266069Y-110172500D01*
X76604000Y-110180671D01*
X76604000Y-110180671D01*
G37*
X76604000Y-110180671D02*
X76794544Y-110207724D01*
X76858975Y-110257473D01*
X76856591Y-110278334D01*
X76753889Y-110374347D01*
X76637868Y-110411222D01*
X76494364Y-110483316D01*
X76452844Y-110665222D01*
X76423513Y-110980087D01*
X76347073Y-111193792D01*
X76235432Y-111273163D01*
X76234575Y-111273167D01*
X76174213Y-111248120D01*
X76152959Y-111152918D01*
X76171037Y-110957473D01*
X76228673Y-110631693D01*
X76239775Y-110574667D01*
X76207544Y-110450242D01*
X76114463Y-110426500D01*
X75968358Y-110381315D01*
X75928284Y-110331017D01*
X75877169Y-110351027D01*
X75772145Y-110492776D01*
X75634902Y-110726484D01*
X75619930Y-110754351D01*
X75466318Y-111013306D01*
X75326268Y-111199260D01*
X75229380Y-111273093D01*
X75227376Y-111273167D01*
X75137830Y-111196415D01*
X75037428Y-110991796D01*
X74978341Y-110815636D01*
X74889659Y-110493351D01*
X74854360Y-110300002D01*
X74872067Y-110203949D01*
X74942406Y-110173554D01*
X74970720Y-110172500D01*
X75077642Y-110245443D01*
X75147125Y-110405334D01*
X75213921Y-110675498D01*
X75273097Y-110786536D01*
X75344480Y-110746414D01*
X75447897Y-110563099D01*
X75463167Y-110532334D01*
X75640694Y-110172500D01*
X76266069Y-110172500D01*
X76604000Y-110180671D01*
G36*
X73672219Y-110186096D02*
X73802244Y-110233168D01*
X73829334Y-110299500D01*
X73759050Y-110403009D01*
X73662916Y-110426500D01*
X73557195Y-110457675D01*
X73490996Y-110577176D01*
X73443834Y-110823965D01*
X73440342Y-110849834D01*
X73380866Y-111135675D01*
X73297182Y-111263710D01*
X73260148Y-111273167D01*
X73189253Y-111241198D01*
X73168093Y-111120718D01*
X73190936Y-110874866D01*
X73194334Y-110849834D01*
X73220950Y-110595701D01*
X73205181Y-110468007D01*
X73139926Y-110427576D01*
X73117612Y-110426500D01*
X73000343Y-110362144D01*
X72982667Y-110299500D01*
X73027986Y-110219635D01*
X73184894Y-110180627D01*
X73406000Y-110172500D01*
X73672219Y-110186096D01*
X73672219Y-110186096D01*
G37*
X73672219Y-110186096D02*
X73802244Y-110233168D01*
X73829334Y-110299500D01*
X73759050Y-110403009D01*
X73662916Y-110426500D01*
X73557195Y-110457675D01*
X73490996Y-110577176D01*
X73443834Y-110823965D01*
X73440342Y-110849834D01*
X73380866Y-111135675D01*
X73297182Y-111263710D01*
X73260148Y-111273167D01*
X73189253Y-111241198D01*
X73168093Y-111120718D01*
X73190936Y-110874866D01*
X73194334Y-110849834D01*
X73220950Y-110595701D01*
X73205181Y-110468007D01*
X73139926Y-110427576D01*
X73117612Y-110426500D01*
X73000343Y-110362144D01*
X72982667Y-110299500D01*
X73027986Y-110219635D01*
X73184894Y-110180627D01*
X73406000Y-110172500D01*
X73672219Y-110186096D01*
G36*
X74633135Y-110216196D02*
X74654412Y-110278334D01*
X74551971Y-110361119D01*
X74422000Y-110384167D01*
X74239919Y-110424482D01*
X74205271Y-110520927D01*
X74323901Y-110636747D01*
X74377474Y-110664096D01*
X74551609Y-110811819D01*
X74576343Y-111000990D01*
X74449769Y-111189872D01*
X74403161Y-111226033D01*
X74192083Y-111340044D01*
X74020919Y-111331770D01*
X73924320Y-111281336D01*
X73843683Y-111179947D01*
X73898926Y-111099910D01*
X74056992Y-111074165D01*
X74123646Y-111082725D01*
X74291718Y-111073131D01*
X74337882Y-110987669D01*
X74258230Y-110871920D01*
X74147328Y-110806410D01*
X73971049Y-110657440D01*
X73928433Y-110456811D01*
X74002042Y-110295433D01*
X74130838Y-110217272D01*
X74317927Y-110176991D01*
X74504847Y-110176121D01*
X74633135Y-110216196D01*
X74633135Y-110216196D01*
G37*
X74633135Y-110216196D02*
X74654412Y-110278334D01*
X74551971Y-110361119D01*
X74422000Y-110384167D01*
X74239919Y-110424482D01*
X74205271Y-110520927D01*
X74323901Y-110636747D01*
X74377474Y-110664096D01*
X74551609Y-110811819D01*
X74576343Y-111000990D01*
X74449769Y-111189872D01*
X74403161Y-111226033D01*
X74192083Y-111340044D01*
X74020919Y-111331770D01*
X73924320Y-111281336D01*
X73843683Y-111179947D01*
X73898926Y-111099910D01*
X74056992Y-111074165D01*
X74123646Y-111082725D01*
X74291718Y-111073131D01*
X74337882Y-110987669D01*
X74258230Y-110871920D01*
X74147328Y-110806410D01*
X73971049Y-110657440D01*
X73928433Y-110456811D01*
X74002042Y-110295433D01*
X74130838Y-110217272D01*
X74317927Y-110176991D01*
X74504847Y-110176121D01*
X74633135Y-110216196D01*
G36*
X72794617Y-110241815D02*
X72811314Y-110320667D01*
X72787556Y-110535294D01*
X72732406Y-110794971D01*
X72663108Y-111032623D01*
X72596907Y-111181176D01*
X72587082Y-111192861D01*
X72397009Y-111287501D01*
X72148331Y-111316177D01*
X71945500Y-111268432D01*
X71846859Y-111133085D01*
X71796401Y-110909312D01*
X71791347Y-110649311D01*
X71828919Y-110405282D01*
X71906335Y-110229423D01*
X72003858Y-110172500D01*
X72063526Y-110230609D01*
X72080710Y-110418593D01*
X72068373Y-110645509D01*
X72050174Y-110913289D01*
X72062265Y-111050948D01*
X72118683Y-111096915D01*
X72230740Y-111090009D01*
X72354993Y-111047783D01*
X72433221Y-110936262D01*
X72490798Y-110712113D01*
X72507741Y-110617000D01*
X72577395Y-110330655D01*
X72661765Y-110186190D01*
X72698241Y-110172500D01*
X72794617Y-110241815D01*
X72794617Y-110241815D01*
G37*
X72794617Y-110241815D02*
X72811314Y-110320667D01*
X72787556Y-110535294D01*
X72732406Y-110794971D01*
X72663108Y-111032623D01*
X72596907Y-111181176D01*
X72587082Y-111192861D01*
X72397009Y-111287501D01*
X72148331Y-111316177D01*
X71945500Y-111268432D01*
X71846859Y-111133085D01*
X71796401Y-110909312D01*
X71791347Y-110649311D01*
X71828919Y-110405282D01*
X71906335Y-110229423D01*
X72003858Y-110172500D01*
X72063526Y-110230609D01*
X72080710Y-110418593D01*
X72068373Y-110645509D01*
X72050174Y-110913289D01*
X72062265Y-111050948D01*
X72118683Y-111096915D01*
X72230740Y-111090009D01*
X72354993Y-111047783D01*
X72433221Y-110936262D01*
X72490798Y-110712113D01*
X72507741Y-110617000D01*
X72577395Y-110330655D01*
X72661765Y-110186190D01*
X72698241Y-110172500D01*
X72794617Y-110241815D01*
G36*
X76219943Y-108928162D02*
X77834301Y-108982337D01*
X79602221Y-109068313D01*
X81522529Y-109186173D01*
X81788000Y-109204163D01*
X82440946Y-109250180D01*
X83131556Y-109301102D01*
X83809333Y-109353053D01*
X84423778Y-109402155D01*
X84924393Y-109444530D01*
X84963000Y-109447958D01*
X86233000Y-109561301D01*
X84328000Y-109507067D01*
X83511080Y-109487232D01*
X82625053Y-109471824D01*
X81689882Y-109460734D01*
X80725527Y-109453857D01*
X79751950Y-109451085D01*
X78789113Y-109452311D01*
X77856978Y-109457427D01*
X76975507Y-109466328D01*
X76164660Y-109478904D01*
X75444401Y-109495051D01*
X74834690Y-109514659D01*
X74355489Y-109537623D01*
X74041000Y-109562267D01*
X73066440Y-109681925D01*
X72253746Y-109814704D01*
X71595780Y-109963144D01*
X71085406Y-110129783D01*
X70715487Y-110317161D01*
X70478886Y-110527818D01*
X70368467Y-110764293D01*
X70358000Y-110872689D01*
X70407925Y-111115324D01*
X70528500Y-111359387D01*
X70533099Y-111365930D01*
X70631263Y-111518054D01*
X70641725Y-111586134D01*
X70551276Y-111567503D01*
X70346705Y-111459497D01*
X70019334Y-111262245D01*
X69590626Y-110972438D01*
X69226792Y-110677682D01*
X68954285Y-110402432D01*
X68799559Y-110171143D01*
X68780892Y-110117378D01*
X68794979Y-109858070D01*
X68974382Y-109629740D01*
X69317926Y-109432468D01*
X69824435Y-109266339D01*
X70492734Y-109131434D01*
X71321647Y-109027836D01*
X72310000Y-108955627D01*
X73456618Y-108914890D01*
X74760323Y-108905708D01*
X76219943Y-108928162D01*
X76219943Y-108928162D01*
G37*
X76219943Y-108928162D02*
X77834301Y-108982337D01*
X79602221Y-109068313D01*
X81522529Y-109186173D01*
X81788000Y-109204163D01*
X82440946Y-109250180D01*
X83131556Y-109301102D01*
X83809333Y-109353053D01*
X84423778Y-109402155D01*
X84924393Y-109444530D01*
X84963000Y-109447958D01*
X86233000Y-109561301D01*
X84328000Y-109507067D01*
X83511080Y-109487232D01*
X82625053Y-109471824D01*
X81689882Y-109460734D01*
X80725527Y-109453857D01*
X79751950Y-109451085D01*
X78789113Y-109452311D01*
X77856978Y-109457427D01*
X76975507Y-109466328D01*
X76164660Y-109478904D01*
X75444401Y-109495051D01*
X74834690Y-109514659D01*
X74355489Y-109537623D01*
X74041000Y-109562267D01*
X73066440Y-109681925D01*
X72253746Y-109814704D01*
X71595780Y-109963144D01*
X71085406Y-110129783D01*
X70715487Y-110317161D01*
X70478886Y-110527818D01*
X70368467Y-110764293D01*
X70358000Y-110872689D01*
X70407925Y-111115324D01*
X70528500Y-111359387D01*
X70533099Y-111365930D01*
X70631263Y-111518054D01*
X70641725Y-111586134D01*
X70551276Y-111567503D01*
X70346705Y-111459497D01*
X70019334Y-111262245D01*
X69590626Y-110972438D01*
X69226792Y-110677682D01*
X68954285Y-110402432D01*
X68799559Y-110171143D01*
X68780892Y-110117378D01*
X68794979Y-109858070D01*
X68974382Y-109629740D01*
X69317926Y-109432468D01*
X69824435Y-109266339D01*
X70492734Y-109131434D01*
X71321647Y-109027836D01*
X72310000Y-108955627D01*
X73456618Y-108914890D01*
X74760323Y-108905708D01*
X76219943Y-108928162D01*
G36*
X81442616Y-109767384D02*
X82209095Y-109849199D01*
X82880321Y-109993639D01*
X83015667Y-110035489D01*
X83652279Y-110292473D01*
X84147666Y-110590475D01*
X84497375Y-110920864D01*
X84696952Y-111275011D01*
X84741944Y-111644286D01*
X84627897Y-112020060D01*
X84350357Y-112393703D01*
X84272059Y-112470001D01*
X83812706Y-112792300D01*
X83230328Y-113034245D01*
X82554434Y-113189018D01*
X81814531Y-113249805D01*
X81059722Y-113212077D01*
X80667259Y-113148119D01*
X80261114Y-113052650D01*
X79989042Y-112967226D01*
X79620244Y-112803408D01*
X79218742Y-112584085D01*
X78835164Y-112340794D01*
X78520138Y-112105070D01*
X78359000Y-111951858D01*
X78189667Y-111758001D01*
X78443667Y-111887186D01*
X79098755Y-112149912D01*
X79842130Y-112329803D01*
X80631448Y-112425079D01*
X81424366Y-112433959D01*
X82178542Y-112354663D01*
X82851632Y-112185409D01*
X83108139Y-112083370D01*
X83534518Y-111840559D01*
X83796214Y-111580725D01*
X83896009Y-111311925D01*
X83836686Y-111042217D01*
X83621027Y-110779660D01*
X83251815Y-110532310D01*
X82731831Y-110308226D01*
X82465334Y-110221850D01*
X81649203Y-110047729D01*
X80746398Y-109975243D01*
X79804694Y-110003087D01*
X78871866Y-110129953D01*
X78030889Y-110343101D01*
X77698610Y-110446453D01*
X77433131Y-110522413D01*
X77270974Y-110560882D01*
X77238758Y-110562147D01*
X77281005Y-110507950D01*
X77454575Y-110421237D01*
X77727235Y-110313344D01*
X78066752Y-110195611D01*
X78440894Y-110079376D01*
X78817428Y-109975978D01*
X79082657Y-109913534D01*
X79828297Y-109797967D01*
X80631983Y-109749779D01*
X81442616Y-109767384D01*
X81442616Y-109767384D01*
G37*
X81442616Y-109767384D02*
X82209095Y-109849199D01*
X82880321Y-109993639D01*
X83015667Y-110035489D01*
X83652279Y-110292473D01*
X84147666Y-110590475D01*
X84497375Y-110920864D01*
X84696952Y-111275011D01*
X84741944Y-111644286D01*
X84627897Y-112020060D01*
X84350357Y-112393703D01*
X84272059Y-112470001D01*
X83812706Y-112792300D01*
X83230328Y-113034245D01*
X82554434Y-113189018D01*
X81814531Y-113249805D01*
X81059722Y-113212077D01*
X80667259Y-113148119D01*
X80261114Y-113052650D01*
X79989042Y-112967226D01*
X79620244Y-112803408D01*
X79218742Y-112584085D01*
X78835164Y-112340794D01*
X78520138Y-112105070D01*
X78359000Y-111951858D01*
X78189667Y-111758001D01*
X78443667Y-111887186D01*
X79098755Y-112149912D01*
X79842130Y-112329803D01*
X80631448Y-112425079D01*
X81424366Y-112433959D01*
X82178542Y-112354663D01*
X82851632Y-112185409D01*
X83108139Y-112083370D01*
X83534518Y-111840559D01*
X83796214Y-111580725D01*
X83896009Y-111311925D01*
X83836686Y-111042217D01*
X83621027Y-110779660D01*
X83251815Y-110532310D01*
X82731831Y-110308226D01*
X82465334Y-110221850D01*
X81649203Y-110047729D01*
X80746398Y-109975243D01*
X79804694Y-110003087D01*
X78871866Y-110129953D01*
X78030889Y-110343101D01*
X77698610Y-110446453D01*
X77433131Y-110522413D01*
X77270974Y-110560882D01*
X77238758Y-110562147D01*
X77281005Y-110507950D01*
X77454575Y-110421237D01*
X77727235Y-110313344D01*
X78066752Y-110195611D01*
X78440894Y-110079376D01*
X78817428Y-109975978D01*
X79082657Y-109913534D01*
X79828297Y-109797967D01*
X80631983Y-109749779D01*
X81442616Y-109767384D01*
G36*
X78164417Y-111131813D02*
X77980990Y-111266127D01*
X77710708Y-111450548D01*
X77382558Y-111666260D01*
X77025526Y-111894448D01*
X76668599Y-112116295D01*
X76340765Y-112312986D01*
X76103621Y-112447989D01*
X75356408Y-112815140D01*
X74626966Y-113093538D01*
X73938950Y-113277644D01*
X73316012Y-113361924D01*
X72781807Y-113340839D01*
X72536343Y-113282969D01*
X72052869Y-113036777D01*
X71651459Y-112644705D01*
X71365551Y-112172929D01*
X71250503Y-111905920D01*
X71167827Y-111670345D01*
X71121925Y-111491473D01*
X71117199Y-111394574D01*
X71158050Y-111404918D01*
X71248879Y-111547774D01*
X71260449Y-111569500D01*
X71593640Y-112033342D01*
X72042388Y-112407430D01*
X72178334Y-112487421D01*
X72351425Y-112568948D01*
X72536015Y-112621918D01*
X72773005Y-112651876D01*
X73103296Y-112664369D01*
X73490667Y-112665387D01*
X73952913Y-112657570D01*
X74308277Y-112633014D01*
X74619059Y-112582161D01*
X74947558Y-112495455D01*
X75268667Y-112392625D01*
X75661692Y-112247284D01*
X76143735Y-112047441D01*
X76654793Y-111819011D01*
X77134863Y-111587908D01*
X77152500Y-111579012D01*
X77536340Y-111387171D01*
X77860034Y-111229528D01*
X78096927Y-111118740D01*
X78220364Y-111067464D01*
X78232000Y-111066423D01*
X78164417Y-111131813D01*
X78164417Y-111131813D01*
G37*
X78164417Y-111131813D02*
X77980990Y-111266127D01*
X77710708Y-111450548D01*
X77382558Y-111666260D01*
X77025526Y-111894448D01*
X76668599Y-112116295D01*
X76340765Y-112312986D01*
X76103621Y-112447989D01*
X75356408Y-112815140D01*
X74626966Y-113093538D01*
X73938950Y-113277644D01*
X73316012Y-113361924D01*
X72781807Y-113340839D01*
X72536343Y-113282969D01*
X72052869Y-113036777D01*
X71651459Y-112644705D01*
X71365551Y-112172929D01*
X71250503Y-111905920D01*
X71167827Y-111670345D01*
X71121925Y-111491473D01*
X71117199Y-111394574D01*
X71158050Y-111404918D01*
X71248879Y-111547774D01*
X71260449Y-111569500D01*
X71593640Y-112033342D01*
X72042388Y-112407430D01*
X72178334Y-112487421D01*
X72351425Y-112568948D01*
X72536015Y-112621918D01*
X72773005Y-112651876D01*
X73103296Y-112664369D01*
X73490667Y-112665387D01*
X73952913Y-112657570D01*
X74308277Y-112633014D01*
X74619059Y-112582161D01*
X74947558Y-112495455D01*
X75268667Y-112392625D01*
X75661692Y-112247284D01*
X76143735Y-112047441D01*
X76654793Y-111819011D01*
X77134863Y-111587908D01*
X77152500Y-111579012D01*
X77536340Y-111387171D01*
X77860034Y-111229528D01*
X78096927Y-111118740D01*
X78220364Y-111067464D01*
X78232000Y-111066423D01*
X78164417Y-111131813D01*
D10*
X80009619Y-67167238D02*
X79962000Y-67262476D01*
X79866761Y-67357714D01*
X79723904Y-67500571D01*
X79676285Y-67595809D01*
X79676285Y-67691047D01*
X79914380Y-67643428D02*
X79866761Y-67738666D01*
X79771523Y-67833904D01*
X79581047Y-67881523D01*
X79247714Y-67881523D01*
X79057238Y-67833904D01*
X78962000Y-67738666D01*
X78914380Y-67643428D01*
X78914380Y-67452952D01*
X78962000Y-67357714D01*
X79057238Y-67262476D01*
X79247714Y-67214857D01*
X79581047Y-67214857D01*
X79771523Y-67262476D01*
X79866761Y-67357714D01*
X79914380Y-67452952D01*
X79914380Y-67643428D01*
X78914380Y-66881523D02*
X78914380Y-66262476D01*
X79295333Y-66595809D01*
X79295333Y-66452952D01*
X79342952Y-66357714D01*
X79390571Y-66310095D01*
X79485809Y-66262476D01*
X79723904Y-66262476D01*
X79819142Y-66310095D01*
X79866761Y-66357714D01*
X79914380Y-66452952D01*
X79914380Y-66738666D01*
X79866761Y-66833904D01*
X79819142Y-66881523D01*
X93129833Y-64999142D02*
X93082214Y-65046761D01*
X92939357Y-65094380D01*
X92844119Y-65094380D01*
X92701261Y-65046761D01*
X92606023Y-64951523D01*
X92558404Y-64856285D01*
X92510785Y-64665809D01*
X92510785Y-64522952D01*
X92558404Y-64332476D01*
X92606023Y-64237238D01*
X92701261Y-64142000D01*
X92844119Y-64094380D01*
X92939357Y-64094380D01*
X93082214Y-64142000D01*
X93129833Y-64189619D01*
X94082214Y-65094380D02*
X93510785Y-65094380D01*
X93796500Y-65094380D02*
X93796500Y-64094380D01*
X93701261Y-64237238D01*
X93606023Y-64332476D01*
X93510785Y-64380095D01*
X89162833Y-65763142D02*
X89115214Y-65810761D01*
X88972357Y-65858380D01*
X88877119Y-65858380D01*
X88734261Y-65810761D01*
X88639023Y-65715523D01*
X88591404Y-65620285D01*
X88543785Y-65429809D01*
X88543785Y-65286952D01*
X88591404Y-65096476D01*
X88639023Y-65001238D01*
X88734261Y-64906000D01*
X88877119Y-64858380D01*
X88972357Y-64858380D01*
X89115214Y-64906000D01*
X89162833Y-64953619D01*
X89496166Y-64858380D02*
X90115214Y-64858380D01*
X89781880Y-65239333D01*
X89924738Y-65239333D01*
X90019976Y-65286952D01*
X90067595Y-65334571D01*
X90115214Y-65429809D01*
X90115214Y-65667904D01*
X90067595Y-65763142D01*
X90019976Y-65810761D01*
X89924738Y-65858380D01*
X89639023Y-65858380D01*
X89543785Y-65810761D01*
X89496166Y-65763142D01*
X104227333Y-80367142D02*
X104179714Y-80414761D01*
X104036857Y-80462380D01*
X103941619Y-80462380D01*
X103798761Y-80414761D01*
X103703523Y-80319523D01*
X103655904Y-80224285D01*
X103608285Y-80033809D01*
X103608285Y-79890952D01*
X103655904Y-79700476D01*
X103703523Y-79605238D01*
X103798761Y-79510000D01*
X103941619Y-79462380D01*
X104036857Y-79462380D01*
X104179714Y-79510000D01*
X104227333Y-79557619D01*
X104798761Y-79890952D02*
X104703523Y-79843333D01*
X104655904Y-79795714D01*
X104608285Y-79700476D01*
X104608285Y-79652857D01*
X104655904Y-79557619D01*
X104703523Y-79510000D01*
X104798761Y-79462380D01*
X104989238Y-79462380D01*
X105084476Y-79510000D01*
X105132095Y-79557619D01*
X105179714Y-79652857D01*
X105179714Y-79700476D01*
X105132095Y-79795714D01*
X105084476Y-79843333D01*
X104989238Y-79890952D01*
X104798761Y-79890952D01*
X104703523Y-79938571D01*
X104655904Y-79986190D01*
X104608285Y-80081428D01*
X104608285Y-80271904D01*
X104655904Y-80367142D01*
X104703523Y-80414761D01*
X104798761Y-80462380D01*
X104989238Y-80462380D01*
X105084476Y-80414761D01*
X105132095Y-80367142D01*
X105179714Y-80271904D01*
X105179714Y-80081428D01*
X105132095Y-79986190D01*
X105084476Y-79938571D01*
X104989238Y-79890952D01*
X104227333Y-78335142D02*
X104179714Y-78382761D01*
X104036857Y-78430380D01*
X103941619Y-78430380D01*
X103798761Y-78382761D01*
X103703523Y-78287523D01*
X103655904Y-78192285D01*
X103608285Y-78001809D01*
X103608285Y-77858952D01*
X103655904Y-77668476D01*
X103703523Y-77573238D01*
X103798761Y-77478000D01*
X103941619Y-77430380D01*
X104036857Y-77430380D01*
X104179714Y-77478000D01*
X104227333Y-77525619D01*
X104703523Y-78430380D02*
X104894000Y-78430380D01*
X104989238Y-78382761D01*
X105036857Y-78335142D01*
X105132095Y-78192285D01*
X105179714Y-78001809D01*
X105179714Y-77620857D01*
X105132095Y-77525619D01*
X105084476Y-77478000D01*
X104989238Y-77430380D01*
X104798761Y-77430380D01*
X104703523Y-77478000D01*
X104655904Y-77525619D01*
X104608285Y-77620857D01*
X104608285Y-77858952D01*
X104655904Y-77954190D01*
X104703523Y-78001809D01*
X104798761Y-78049428D01*
X104989238Y-78049428D01*
X105084476Y-78001809D01*
X105132095Y-77954190D01*
X105179714Y-77858952D01*
X104259142Y-76303142D02*
X104211523Y-76350761D01*
X104068666Y-76398380D01*
X103973428Y-76398380D01*
X103830571Y-76350761D01*
X103735333Y-76255523D01*
X103687714Y-76160285D01*
X103640095Y-75969809D01*
X103640095Y-75826952D01*
X103687714Y-75636476D01*
X103735333Y-75541238D01*
X103830571Y-75446000D01*
X103973428Y-75398380D01*
X104068666Y-75398380D01*
X104211523Y-75446000D01*
X104259142Y-75493619D01*
X105211523Y-76398380D02*
X104640095Y-76398380D01*
X104925809Y-76398380D02*
X104925809Y-75398380D01*
X104830571Y-75541238D01*
X104735333Y-75636476D01*
X104640095Y-75684095D01*
X105830571Y-75398380D02*
X105925809Y-75398380D01*
X106021047Y-75446000D01*
X106068666Y-75493619D01*
X106116285Y-75588857D01*
X106163904Y-75779333D01*
X106163904Y-76017428D01*
X106116285Y-76207904D01*
X106068666Y-76303142D01*
X106021047Y-76350761D01*
X105925809Y-76398380D01*
X105830571Y-76398380D01*
X105735333Y-76350761D01*
X105687714Y-76303142D01*
X105640095Y-76207904D01*
X105592476Y-76017428D01*
X105592476Y-75779333D01*
X105640095Y-75588857D01*
X105687714Y-75493619D01*
X105735333Y-75446000D01*
X105830571Y-75398380D01*
X92623142Y-94385142D02*
X92575523Y-94432761D01*
X92432666Y-94480380D01*
X92337428Y-94480380D01*
X92194571Y-94432761D01*
X92099333Y-94337523D01*
X92051714Y-94242285D01*
X92004095Y-94051809D01*
X92004095Y-93908952D01*
X92051714Y-93718476D01*
X92099333Y-93623238D01*
X92194571Y-93528000D01*
X92337428Y-93480380D01*
X92432666Y-93480380D01*
X92575523Y-93528000D01*
X92623142Y-93575619D01*
X93575523Y-94480380D02*
X93004095Y-94480380D01*
X93289809Y-94480380D02*
X93289809Y-93480380D01*
X93194571Y-93623238D01*
X93099333Y-93718476D01*
X93004095Y-93766095D01*
X94432666Y-93813714D02*
X94432666Y-94480380D01*
X94194571Y-93432761D02*
X93956476Y-94147047D01*
X94575523Y-94147047D01*
X83545142Y-96417142D02*
X83497523Y-96464761D01*
X83354666Y-96512380D01*
X83259428Y-96512380D01*
X83116571Y-96464761D01*
X83021333Y-96369523D01*
X82973714Y-96274285D01*
X82926095Y-96083809D01*
X82926095Y-95940952D01*
X82973714Y-95750476D01*
X83021333Y-95655238D01*
X83116571Y-95560000D01*
X83259428Y-95512380D01*
X83354666Y-95512380D01*
X83497523Y-95560000D01*
X83545142Y-95607619D01*
X84497523Y-96512380D02*
X83926095Y-96512380D01*
X84211809Y-96512380D02*
X84211809Y-95512380D01*
X84116571Y-95655238D01*
X84021333Y-95750476D01*
X83926095Y-95798095D01*
X85402285Y-95512380D02*
X84926095Y-95512380D01*
X84878476Y-95988571D01*
X84926095Y-95940952D01*
X85021333Y-95893333D01*
X85259428Y-95893333D01*
X85354666Y-95940952D01*
X85402285Y-95988571D01*
X85449904Y-96083809D01*
X85449904Y-96321904D01*
X85402285Y-96417142D01*
X85354666Y-96464761D01*
X85259428Y-96512380D01*
X85021333Y-96512380D01*
X84926095Y-96464761D01*
X84878476Y-96417142D01*
X92623142Y-100735142D02*
X92575523Y-100782761D01*
X92432666Y-100830380D01*
X92337428Y-100830380D01*
X92194571Y-100782761D01*
X92099333Y-100687523D01*
X92051714Y-100592285D01*
X92004095Y-100401809D01*
X92004095Y-100258952D01*
X92051714Y-100068476D01*
X92099333Y-99973238D01*
X92194571Y-99878000D01*
X92337428Y-99830380D01*
X92432666Y-99830380D01*
X92575523Y-99878000D01*
X92623142Y-99925619D01*
X93575523Y-100830380D02*
X93004095Y-100830380D01*
X93289809Y-100830380D02*
X93289809Y-99830380D01*
X93194571Y-99973238D01*
X93099333Y-100068476D01*
X93004095Y-100116095D01*
X93908857Y-99830380D02*
X94575523Y-99830380D01*
X94146952Y-100830380D01*
X83545142Y-98703142D02*
X83497523Y-98750761D01*
X83354666Y-98798380D01*
X83259428Y-98798380D01*
X83116571Y-98750761D01*
X83021333Y-98655523D01*
X82973714Y-98560285D01*
X82926095Y-98369809D01*
X82926095Y-98226952D01*
X82973714Y-98036476D01*
X83021333Y-97941238D01*
X83116571Y-97846000D01*
X83259428Y-97798380D01*
X83354666Y-97798380D01*
X83497523Y-97846000D01*
X83545142Y-97893619D01*
X84497523Y-98798380D02*
X83926095Y-98798380D01*
X84211809Y-98798380D02*
X84211809Y-97798380D01*
X84116571Y-97941238D01*
X84021333Y-98036476D01*
X83926095Y-98084095D01*
X85068952Y-98226952D02*
X84973714Y-98179333D01*
X84926095Y-98131714D01*
X84878476Y-98036476D01*
X84878476Y-97988857D01*
X84926095Y-97893619D01*
X84973714Y-97846000D01*
X85068952Y-97798380D01*
X85259428Y-97798380D01*
X85354666Y-97846000D01*
X85402285Y-97893619D01*
X85449904Y-97988857D01*
X85449904Y-98036476D01*
X85402285Y-98131714D01*
X85354666Y-98179333D01*
X85259428Y-98226952D01*
X85068952Y-98226952D01*
X84973714Y-98274571D01*
X84926095Y-98322190D01*
X84878476Y-98417428D01*
X84878476Y-98607904D01*
X84926095Y-98703142D01*
X84973714Y-98750761D01*
X85068952Y-98798380D01*
X85259428Y-98798380D01*
X85354666Y-98750761D01*
X85402285Y-98703142D01*
X85449904Y-98607904D01*
X85449904Y-98417428D01*
X85402285Y-98322190D01*
X85354666Y-98274571D01*
X85259428Y-98226952D01*
X111100404Y-64842380D02*
X111100404Y-63842380D01*
X111338500Y-63842380D01*
X111481357Y-63890000D01*
X111576595Y-63985238D01*
X111624214Y-64080476D01*
X111671833Y-64270952D01*
X111671833Y-64413809D01*
X111624214Y-64604285D01*
X111576595Y-64699523D01*
X111481357Y-64794761D01*
X111338500Y-64842380D01*
X111100404Y-64842380D01*
X112624214Y-64842380D02*
X112052785Y-64842380D01*
X112338500Y-64842380D02*
X112338500Y-63842380D01*
X112243261Y-63985238D01*
X112148023Y-64080476D01*
X112052785Y-64128095D01*
X59635404Y-62556380D02*
X59635404Y-61556380D01*
X59873500Y-61556380D01*
X60016357Y-61604000D01*
X60111595Y-61699238D01*
X60159214Y-61794476D01*
X60206833Y-61984952D01*
X60206833Y-62127809D01*
X60159214Y-62318285D01*
X60111595Y-62413523D01*
X60016357Y-62508761D01*
X59873500Y-62556380D01*
X59635404Y-62556380D01*
X60587785Y-61651619D02*
X60635404Y-61604000D01*
X60730642Y-61556380D01*
X60968738Y-61556380D01*
X61063976Y-61604000D01*
X61111595Y-61651619D01*
X61159214Y-61746857D01*
X61159214Y-61842095D01*
X61111595Y-61984952D01*
X60540166Y-62556380D01*
X61159214Y-62556380D01*
X59635404Y-65858380D02*
X59635404Y-64858380D01*
X59873500Y-64858380D01*
X60016357Y-64906000D01*
X60111595Y-65001238D01*
X60159214Y-65096476D01*
X60206833Y-65286952D01*
X60206833Y-65429809D01*
X60159214Y-65620285D01*
X60111595Y-65715523D01*
X60016357Y-65810761D01*
X59873500Y-65858380D01*
X59635404Y-65858380D01*
X60540166Y-64858380D02*
X61159214Y-64858380D01*
X60825880Y-65239333D01*
X60968738Y-65239333D01*
X61063976Y-65286952D01*
X61111595Y-65334571D01*
X61159214Y-65429809D01*
X61159214Y-65667904D01*
X61111595Y-65763142D01*
X61063976Y-65810761D01*
X60968738Y-65858380D01*
X60683023Y-65858380D01*
X60587785Y-65810761D01*
X60540166Y-65763142D01*
X59635404Y-69160380D02*
X59635404Y-68160380D01*
X59873500Y-68160380D01*
X60016357Y-68208000D01*
X60111595Y-68303238D01*
X60159214Y-68398476D01*
X60206833Y-68588952D01*
X60206833Y-68731809D01*
X60159214Y-68922285D01*
X60111595Y-69017523D01*
X60016357Y-69112761D01*
X59873500Y-69160380D01*
X59635404Y-69160380D01*
X61063976Y-68493714D02*
X61063976Y-69160380D01*
X60825880Y-68112761D02*
X60587785Y-68827047D01*
X61206833Y-68827047D01*
X59635404Y-72462380D02*
X59635404Y-71462380D01*
X59873500Y-71462380D01*
X60016357Y-71510000D01*
X60111595Y-71605238D01*
X60159214Y-71700476D01*
X60206833Y-71890952D01*
X60206833Y-72033809D01*
X60159214Y-72224285D01*
X60111595Y-72319523D01*
X60016357Y-72414761D01*
X59873500Y-72462380D01*
X59635404Y-72462380D01*
X61111595Y-71462380D02*
X60635404Y-71462380D01*
X60587785Y-71938571D01*
X60635404Y-71890952D01*
X60730642Y-71843333D01*
X60968738Y-71843333D01*
X61063976Y-71890952D01*
X61111595Y-71938571D01*
X61159214Y-72033809D01*
X61159214Y-72271904D01*
X61111595Y-72367142D01*
X61063976Y-72414761D01*
X60968738Y-72462380D01*
X60730642Y-72462380D01*
X60635404Y-72414761D01*
X60587785Y-72367142D01*
X59635404Y-75764380D02*
X59635404Y-74764380D01*
X59873500Y-74764380D01*
X60016357Y-74812000D01*
X60111595Y-74907238D01*
X60159214Y-75002476D01*
X60206833Y-75192952D01*
X60206833Y-75335809D01*
X60159214Y-75526285D01*
X60111595Y-75621523D01*
X60016357Y-75716761D01*
X59873500Y-75764380D01*
X59635404Y-75764380D01*
X61063976Y-74764380D02*
X60873500Y-74764380D01*
X60778261Y-74812000D01*
X60730642Y-74859619D01*
X60635404Y-75002476D01*
X60587785Y-75192952D01*
X60587785Y-75573904D01*
X60635404Y-75669142D01*
X60683023Y-75716761D01*
X60778261Y-75764380D01*
X60968738Y-75764380D01*
X61063976Y-75716761D01*
X61111595Y-75669142D01*
X61159214Y-75573904D01*
X61159214Y-75335809D01*
X61111595Y-75240571D01*
X61063976Y-75192952D01*
X60968738Y-75145333D01*
X60778261Y-75145333D01*
X60683023Y-75192952D01*
X60635404Y-75240571D01*
X60587785Y-75335809D01*
X59635404Y-79066380D02*
X59635404Y-78066380D01*
X59873500Y-78066380D01*
X60016357Y-78114000D01*
X60111595Y-78209238D01*
X60159214Y-78304476D01*
X60206833Y-78494952D01*
X60206833Y-78637809D01*
X60159214Y-78828285D01*
X60111595Y-78923523D01*
X60016357Y-79018761D01*
X59873500Y-79066380D01*
X59635404Y-79066380D01*
X60540166Y-78066380D02*
X61206833Y-78066380D01*
X60778261Y-79066380D01*
X59635404Y-82368380D02*
X59635404Y-81368380D01*
X59873500Y-81368380D01*
X60016357Y-81416000D01*
X60111595Y-81511238D01*
X60159214Y-81606476D01*
X60206833Y-81796952D01*
X60206833Y-81939809D01*
X60159214Y-82130285D01*
X60111595Y-82225523D01*
X60016357Y-82320761D01*
X59873500Y-82368380D01*
X59635404Y-82368380D01*
X60778261Y-81796952D02*
X60683023Y-81749333D01*
X60635404Y-81701714D01*
X60587785Y-81606476D01*
X60587785Y-81558857D01*
X60635404Y-81463619D01*
X60683023Y-81416000D01*
X60778261Y-81368380D01*
X60968738Y-81368380D01*
X61063976Y-81416000D01*
X61111595Y-81463619D01*
X61159214Y-81558857D01*
X61159214Y-81606476D01*
X61111595Y-81701714D01*
X61063976Y-81749333D01*
X60968738Y-81796952D01*
X60778261Y-81796952D01*
X60683023Y-81844571D01*
X60635404Y-81892190D01*
X60587785Y-81987428D01*
X60587785Y-82177904D01*
X60635404Y-82273142D01*
X60683023Y-82320761D01*
X60778261Y-82368380D01*
X60968738Y-82368380D01*
X61063976Y-82320761D01*
X61111595Y-82273142D01*
X61159214Y-82177904D01*
X61159214Y-81987428D01*
X61111595Y-81892190D01*
X61063976Y-81844571D01*
X60968738Y-81796952D01*
X59635404Y-85670380D02*
X59635404Y-84670380D01*
X59873500Y-84670380D01*
X60016357Y-84718000D01*
X60111595Y-84813238D01*
X60159214Y-84908476D01*
X60206833Y-85098952D01*
X60206833Y-85241809D01*
X60159214Y-85432285D01*
X60111595Y-85527523D01*
X60016357Y-85622761D01*
X59873500Y-85670380D01*
X59635404Y-85670380D01*
X60683023Y-85670380D02*
X60873500Y-85670380D01*
X60968738Y-85622761D01*
X61016357Y-85575142D01*
X61111595Y-85432285D01*
X61159214Y-85241809D01*
X61159214Y-84860857D01*
X61111595Y-84765619D01*
X61063976Y-84718000D01*
X60968738Y-84670380D01*
X60778261Y-84670380D01*
X60683023Y-84718000D01*
X60635404Y-84765619D01*
X60587785Y-84860857D01*
X60587785Y-85098952D01*
X60635404Y-85194190D01*
X60683023Y-85241809D01*
X60778261Y-85289428D01*
X60968738Y-85289428D01*
X61063976Y-85241809D01*
X61111595Y-85194190D01*
X61159214Y-85098952D01*
X59159214Y-88972380D02*
X59159214Y-87972380D01*
X59397309Y-87972380D01*
X59540166Y-88020000D01*
X59635404Y-88115238D01*
X59683023Y-88210476D01*
X59730642Y-88400952D01*
X59730642Y-88543809D01*
X59683023Y-88734285D01*
X59635404Y-88829523D01*
X59540166Y-88924761D01*
X59397309Y-88972380D01*
X59159214Y-88972380D01*
X60683023Y-88972380D02*
X60111595Y-88972380D01*
X60397309Y-88972380D02*
X60397309Y-87972380D01*
X60302071Y-88115238D01*
X60206833Y-88210476D01*
X60111595Y-88258095D01*
X61302071Y-87972380D02*
X61397309Y-87972380D01*
X61492547Y-88020000D01*
X61540166Y-88067619D01*
X61587785Y-88162857D01*
X61635404Y-88353333D01*
X61635404Y-88591428D01*
X61587785Y-88781904D01*
X61540166Y-88877142D01*
X61492547Y-88924761D01*
X61397309Y-88972380D01*
X61302071Y-88972380D01*
X61206833Y-88924761D01*
X61159214Y-88877142D01*
X61111595Y-88781904D01*
X61063976Y-88591428D01*
X61063976Y-88353333D01*
X61111595Y-88162857D01*
X61159214Y-88067619D01*
X61206833Y-88020000D01*
X61302071Y-87972380D01*
X59159214Y-92274380D02*
X59159214Y-91274380D01*
X59397309Y-91274380D01*
X59540166Y-91322000D01*
X59635404Y-91417238D01*
X59683023Y-91512476D01*
X59730642Y-91702952D01*
X59730642Y-91845809D01*
X59683023Y-92036285D01*
X59635404Y-92131523D01*
X59540166Y-92226761D01*
X59397309Y-92274380D01*
X59159214Y-92274380D01*
X60683023Y-92274380D02*
X60111595Y-92274380D01*
X60397309Y-92274380D02*
X60397309Y-91274380D01*
X60302071Y-91417238D01*
X60206833Y-91512476D01*
X60111595Y-91560095D01*
X61635404Y-92274380D02*
X61063976Y-92274380D01*
X61349690Y-92274380D02*
X61349690Y-91274380D01*
X61254452Y-91417238D01*
X61159214Y-91512476D01*
X61063976Y-91560095D01*
X59159214Y-95576380D02*
X59159214Y-94576380D01*
X59397309Y-94576380D01*
X59540166Y-94624000D01*
X59635404Y-94719238D01*
X59683023Y-94814476D01*
X59730642Y-95004952D01*
X59730642Y-95147809D01*
X59683023Y-95338285D01*
X59635404Y-95433523D01*
X59540166Y-95528761D01*
X59397309Y-95576380D01*
X59159214Y-95576380D01*
X60683023Y-95576380D02*
X60111595Y-95576380D01*
X60397309Y-95576380D02*
X60397309Y-94576380D01*
X60302071Y-94719238D01*
X60206833Y-94814476D01*
X60111595Y-94862095D01*
X61063976Y-94671619D02*
X61111595Y-94624000D01*
X61206833Y-94576380D01*
X61444928Y-94576380D01*
X61540166Y-94624000D01*
X61587785Y-94671619D01*
X61635404Y-94766857D01*
X61635404Y-94862095D01*
X61587785Y-95004952D01*
X61016357Y-95576380D01*
X61635404Y-95576380D01*
X59159214Y-98878380D02*
X59159214Y-97878380D01*
X59397309Y-97878380D01*
X59540166Y-97926000D01*
X59635404Y-98021238D01*
X59683023Y-98116476D01*
X59730642Y-98306952D01*
X59730642Y-98449809D01*
X59683023Y-98640285D01*
X59635404Y-98735523D01*
X59540166Y-98830761D01*
X59397309Y-98878380D01*
X59159214Y-98878380D01*
X60683023Y-98878380D02*
X60111595Y-98878380D01*
X60397309Y-98878380D02*
X60397309Y-97878380D01*
X60302071Y-98021238D01*
X60206833Y-98116476D01*
X60111595Y-98164095D01*
X61016357Y-97878380D02*
X61635404Y-97878380D01*
X61302071Y-98259333D01*
X61444928Y-98259333D01*
X61540166Y-98306952D01*
X61587785Y-98354571D01*
X61635404Y-98449809D01*
X61635404Y-98687904D01*
X61587785Y-98783142D01*
X61540166Y-98830761D01*
X61444928Y-98878380D01*
X61159214Y-98878380D01*
X61063976Y-98830761D01*
X61016357Y-98783142D01*
X111148880Y-83333333D02*
X111863166Y-83333333D01*
X112006023Y-83380952D01*
X112101261Y-83476190D01*
X112148880Y-83619047D01*
X112148880Y-83714285D01*
X112148880Y-82333333D02*
X112148880Y-82904761D01*
X112148880Y-82619047D02*
X111148880Y-82619047D01*
X111291738Y-82714285D01*
X111386976Y-82809523D01*
X111434595Y-82904761D01*
X111212380Y-96345333D02*
X111926666Y-96345333D01*
X112069523Y-96392952D01*
X112164761Y-96488190D01*
X112212380Y-96631047D01*
X112212380Y-96726285D01*
X111307619Y-95916761D02*
X111260000Y-95869142D01*
X111212380Y-95773904D01*
X111212380Y-95535809D01*
X111260000Y-95440571D01*
X111307619Y-95392952D01*
X111402857Y-95345333D01*
X111498095Y-95345333D01*
X111640952Y-95392952D01*
X112212380Y-95964380D01*
X112212380Y-95345333D01*
X107870666Y-68750380D02*
X107870666Y-69464666D01*
X107823047Y-69607523D01*
X107727809Y-69702761D01*
X107584952Y-69750380D01*
X107489714Y-69750380D01*
X108823047Y-68750380D02*
X108346857Y-68750380D01*
X108299238Y-69226571D01*
X108346857Y-69178952D01*
X108442095Y-69131333D01*
X108680190Y-69131333D01*
X108775428Y-69178952D01*
X108823047Y-69226571D01*
X108870666Y-69321809D01*
X108870666Y-69559904D01*
X108823047Y-69655142D01*
X108775428Y-69702761D01*
X108680190Y-69750380D01*
X108442095Y-69750380D01*
X108346857Y-69702761D01*
X108299238Y-69655142D01*
X116666666Y-76442380D02*
X116666666Y-77156666D01*
X116619047Y-77299523D01*
X116523809Y-77394761D01*
X116380952Y-77442380D01*
X116285714Y-77442380D01*
X117571428Y-76442380D02*
X117380952Y-76442380D01*
X117285714Y-76490000D01*
X117238095Y-76537619D01*
X117142857Y-76680476D01*
X117095238Y-76870952D01*
X117095238Y-77251904D01*
X117142857Y-77347142D01*
X117190476Y-77394761D01*
X117285714Y-77442380D01*
X117476190Y-77442380D01*
X117571428Y-77394761D01*
X117619047Y-77347142D01*
X117666666Y-77251904D01*
X117666666Y-77013809D01*
X117619047Y-76918571D01*
X117571428Y-76870952D01*
X117476190Y-76823333D01*
X117285714Y-76823333D01*
X117190476Y-76870952D01*
X117142857Y-76918571D01*
X117095238Y-77013809D01*
X55728333Y-62554380D02*
X55252142Y-62554380D01*
X55252142Y-61554380D01*
X56585476Y-62554380D02*
X56014047Y-62554380D01*
X56299761Y-62554380D02*
X56299761Y-61554380D01*
X56204523Y-61697238D01*
X56109285Y-61792476D01*
X56014047Y-61840095D01*
X55728333Y-65856380D02*
X55252142Y-65856380D01*
X55252142Y-64856380D01*
X56014047Y-64951619D02*
X56061666Y-64904000D01*
X56156904Y-64856380D01*
X56395000Y-64856380D01*
X56490238Y-64904000D01*
X56537857Y-64951619D01*
X56585476Y-65046857D01*
X56585476Y-65142095D01*
X56537857Y-65284952D01*
X55966428Y-65856380D01*
X56585476Y-65856380D01*
X55728333Y-69158380D02*
X55252142Y-69158380D01*
X55252142Y-68158380D01*
X55966428Y-68158380D02*
X56585476Y-68158380D01*
X56252142Y-68539333D01*
X56395000Y-68539333D01*
X56490238Y-68586952D01*
X56537857Y-68634571D01*
X56585476Y-68729809D01*
X56585476Y-68967904D01*
X56537857Y-69063142D01*
X56490238Y-69110761D01*
X56395000Y-69158380D01*
X56109285Y-69158380D01*
X56014047Y-69110761D01*
X55966428Y-69063142D01*
X55728333Y-72460380D02*
X55252142Y-72460380D01*
X55252142Y-71460380D01*
X56490238Y-71793714D02*
X56490238Y-72460380D01*
X56252142Y-71412761D02*
X56014047Y-72127047D01*
X56633095Y-72127047D01*
X55728333Y-75762380D02*
X55252142Y-75762380D01*
X55252142Y-74762380D01*
X56537857Y-74762380D02*
X56061666Y-74762380D01*
X56014047Y-75238571D01*
X56061666Y-75190952D01*
X56156904Y-75143333D01*
X56395000Y-75143333D01*
X56490238Y-75190952D01*
X56537857Y-75238571D01*
X56585476Y-75333809D01*
X56585476Y-75571904D01*
X56537857Y-75667142D01*
X56490238Y-75714761D01*
X56395000Y-75762380D01*
X56156904Y-75762380D01*
X56061666Y-75714761D01*
X56014047Y-75667142D01*
X55728333Y-79064380D02*
X55252142Y-79064380D01*
X55252142Y-78064380D01*
X56490238Y-78064380D02*
X56299761Y-78064380D01*
X56204523Y-78112000D01*
X56156904Y-78159619D01*
X56061666Y-78302476D01*
X56014047Y-78492952D01*
X56014047Y-78873904D01*
X56061666Y-78969142D01*
X56109285Y-79016761D01*
X56204523Y-79064380D01*
X56395000Y-79064380D01*
X56490238Y-79016761D01*
X56537857Y-78969142D01*
X56585476Y-78873904D01*
X56585476Y-78635809D01*
X56537857Y-78540571D01*
X56490238Y-78492952D01*
X56395000Y-78445333D01*
X56204523Y-78445333D01*
X56109285Y-78492952D01*
X56061666Y-78540571D01*
X56014047Y-78635809D01*
X55728333Y-82366380D02*
X55252142Y-82366380D01*
X55252142Y-81366380D01*
X55966428Y-81366380D02*
X56633095Y-81366380D01*
X56204523Y-82366380D01*
X55728333Y-85668380D02*
X55252142Y-85668380D01*
X55252142Y-84668380D01*
X56204523Y-85096952D02*
X56109285Y-85049333D01*
X56061666Y-85001714D01*
X56014047Y-84906476D01*
X56014047Y-84858857D01*
X56061666Y-84763619D01*
X56109285Y-84716000D01*
X56204523Y-84668380D01*
X56395000Y-84668380D01*
X56490238Y-84716000D01*
X56537857Y-84763619D01*
X56585476Y-84858857D01*
X56585476Y-84906476D01*
X56537857Y-85001714D01*
X56490238Y-85049333D01*
X56395000Y-85096952D01*
X56204523Y-85096952D01*
X56109285Y-85144571D01*
X56061666Y-85192190D01*
X56014047Y-85287428D01*
X56014047Y-85477904D01*
X56061666Y-85573142D01*
X56109285Y-85620761D01*
X56204523Y-85668380D01*
X56395000Y-85668380D01*
X56490238Y-85620761D01*
X56537857Y-85573142D01*
X56585476Y-85477904D01*
X56585476Y-85287428D01*
X56537857Y-85192190D01*
X56490238Y-85144571D01*
X56395000Y-85096952D01*
X55728333Y-88970380D02*
X55252142Y-88970380D01*
X55252142Y-87970380D01*
X56109285Y-88970380D02*
X56299761Y-88970380D01*
X56395000Y-88922761D01*
X56442619Y-88875142D01*
X56537857Y-88732285D01*
X56585476Y-88541809D01*
X56585476Y-88160857D01*
X56537857Y-88065619D01*
X56490238Y-88018000D01*
X56395000Y-87970380D01*
X56204523Y-87970380D01*
X56109285Y-88018000D01*
X56061666Y-88065619D01*
X56014047Y-88160857D01*
X56014047Y-88398952D01*
X56061666Y-88494190D01*
X56109285Y-88541809D01*
X56204523Y-88589428D01*
X56395000Y-88589428D01*
X56490238Y-88541809D01*
X56537857Y-88494190D01*
X56585476Y-88398952D01*
X55252142Y-92272380D02*
X54775952Y-92272380D01*
X54775952Y-91272380D01*
X56109285Y-92272380D02*
X55537857Y-92272380D01*
X55823571Y-92272380D02*
X55823571Y-91272380D01*
X55728333Y-91415238D01*
X55633095Y-91510476D01*
X55537857Y-91558095D01*
X56728333Y-91272380D02*
X56823571Y-91272380D01*
X56918809Y-91320000D01*
X56966428Y-91367619D01*
X57014047Y-91462857D01*
X57061666Y-91653333D01*
X57061666Y-91891428D01*
X57014047Y-92081904D01*
X56966428Y-92177142D01*
X56918809Y-92224761D01*
X56823571Y-92272380D01*
X56728333Y-92272380D01*
X56633095Y-92224761D01*
X56585476Y-92177142D01*
X56537857Y-92081904D01*
X56490238Y-91891428D01*
X56490238Y-91653333D01*
X56537857Y-91462857D01*
X56585476Y-91367619D01*
X56633095Y-91320000D01*
X56728333Y-91272380D01*
X55252142Y-95574380D02*
X54775952Y-95574380D01*
X54775952Y-94574380D01*
X56109285Y-95574380D02*
X55537857Y-95574380D01*
X55823571Y-95574380D02*
X55823571Y-94574380D01*
X55728333Y-94717238D01*
X55633095Y-94812476D01*
X55537857Y-94860095D01*
X57061666Y-95574380D02*
X56490238Y-95574380D01*
X56775952Y-95574380D02*
X56775952Y-94574380D01*
X56680714Y-94717238D01*
X56585476Y-94812476D01*
X56490238Y-94860095D01*
X55252142Y-98876380D02*
X54775952Y-98876380D01*
X54775952Y-97876380D01*
X56109285Y-98876380D02*
X55537857Y-98876380D01*
X55823571Y-98876380D02*
X55823571Y-97876380D01*
X55728333Y-98019238D01*
X55633095Y-98114476D01*
X55537857Y-98162095D01*
X56490238Y-97971619D02*
X56537857Y-97924000D01*
X56633095Y-97876380D01*
X56871190Y-97876380D01*
X56966428Y-97924000D01*
X57014047Y-97971619D01*
X57061666Y-98066857D01*
X57061666Y-98162095D01*
X57014047Y-98304952D01*
X56442619Y-98876380D01*
X57061666Y-98876380D01*
X55252142Y-102178380D02*
X54775952Y-102178380D01*
X54775952Y-101178380D01*
X56109285Y-102178380D02*
X55537857Y-102178380D01*
X55823571Y-102178380D02*
X55823571Y-101178380D01*
X55728333Y-101321238D01*
X55633095Y-101416476D01*
X55537857Y-101464095D01*
X56442619Y-101178380D02*
X57061666Y-101178380D01*
X56728333Y-101559333D01*
X56871190Y-101559333D01*
X56966428Y-101606952D01*
X57014047Y-101654571D01*
X57061666Y-101749809D01*
X57061666Y-101987904D01*
X57014047Y-102083142D01*
X56966428Y-102130761D01*
X56871190Y-102178380D01*
X56585476Y-102178380D01*
X56490238Y-102130761D01*
X56442619Y-102083142D01*
X55252142Y-105480380D02*
X54775952Y-105480380D01*
X54775952Y-104480380D01*
X56109285Y-105480380D02*
X55537857Y-105480380D01*
X55823571Y-105480380D02*
X55823571Y-104480380D01*
X55728333Y-104623238D01*
X55633095Y-104718476D01*
X55537857Y-104766095D01*
X56966428Y-104813714D02*
X56966428Y-105480380D01*
X56728333Y-104432761D02*
X56490238Y-105147047D01*
X57109285Y-105147047D01*
X80009619Y-60023238D02*
X79962000Y-60118476D01*
X79866761Y-60213714D01*
X79723904Y-60356571D01*
X79676285Y-60451809D01*
X79676285Y-60547047D01*
X79914380Y-60499428D02*
X79866761Y-60594666D01*
X79771523Y-60689904D01*
X79581047Y-60737523D01*
X79247714Y-60737523D01*
X79057238Y-60689904D01*
X78962000Y-60594666D01*
X78914380Y-60499428D01*
X78914380Y-60308952D01*
X78962000Y-60213714D01*
X79057238Y-60118476D01*
X79247714Y-60070857D01*
X79581047Y-60070857D01*
X79771523Y-60118476D01*
X79866761Y-60213714D01*
X79914380Y-60308952D01*
X79914380Y-60499428D01*
X79914380Y-59118476D02*
X79914380Y-59689904D01*
X79914380Y-59404190D02*
X78914380Y-59404190D01*
X79057238Y-59499428D01*
X79152476Y-59594666D01*
X79200095Y-59689904D01*
X80009619Y-63611238D02*
X79962000Y-63706476D01*
X79866761Y-63801714D01*
X79723904Y-63944571D01*
X79676285Y-64039809D01*
X79676285Y-64135047D01*
X79914380Y-64087428D02*
X79866761Y-64182666D01*
X79771523Y-64277904D01*
X79581047Y-64325523D01*
X79247714Y-64325523D01*
X79057238Y-64277904D01*
X78962000Y-64182666D01*
X78914380Y-64087428D01*
X78914380Y-63896952D01*
X78962000Y-63801714D01*
X79057238Y-63706476D01*
X79247714Y-63658857D01*
X79581047Y-63658857D01*
X79771523Y-63706476D01*
X79866761Y-63801714D01*
X79914380Y-63896952D01*
X79914380Y-64087428D01*
X79009619Y-63277904D02*
X78962000Y-63230285D01*
X78914380Y-63135047D01*
X78914380Y-62896952D01*
X78962000Y-62801714D01*
X79009619Y-62754095D01*
X79104857Y-62706476D01*
X79200095Y-62706476D01*
X79342952Y-62754095D01*
X79914380Y-63325523D01*
X79914380Y-62706476D01*
X80009619Y-70723238D02*
X79962000Y-70818476D01*
X79866761Y-70913714D01*
X79723904Y-71056571D01*
X79676285Y-71151809D01*
X79676285Y-71247047D01*
X79914380Y-71199428D02*
X79866761Y-71294666D01*
X79771523Y-71389904D01*
X79581047Y-71437523D01*
X79247714Y-71437523D01*
X79057238Y-71389904D01*
X78962000Y-71294666D01*
X78914380Y-71199428D01*
X78914380Y-71008952D01*
X78962000Y-70913714D01*
X79057238Y-70818476D01*
X79247714Y-70770857D01*
X79581047Y-70770857D01*
X79771523Y-70818476D01*
X79866761Y-70913714D01*
X79914380Y-71008952D01*
X79914380Y-71199428D01*
X79247714Y-69913714D02*
X79914380Y-69913714D01*
X78866761Y-70151809D02*
X79581047Y-70389904D01*
X79581047Y-69770857D01*
X99828761Y-68039619D02*
X99733523Y-67992000D01*
X99638285Y-67896761D01*
X99495428Y-67753904D01*
X99400190Y-67706285D01*
X99304952Y-67706285D01*
X99352571Y-67944380D02*
X99257333Y-67896761D01*
X99162095Y-67801523D01*
X99114476Y-67611047D01*
X99114476Y-67277714D01*
X99162095Y-67087238D01*
X99257333Y-66992000D01*
X99352571Y-66944380D01*
X99543047Y-66944380D01*
X99638285Y-66992000D01*
X99733523Y-67087238D01*
X99781142Y-67277714D01*
X99781142Y-67611047D01*
X99733523Y-67801523D01*
X99638285Y-67896761D01*
X99543047Y-67944380D01*
X99352571Y-67944380D01*
X100685904Y-66944380D02*
X100209714Y-66944380D01*
X100162095Y-67420571D01*
X100209714Y-67372952D01*
X100304952Y-67325333D01*
X100543047Y-67325333D01*
X100638285Y-67372952D01*
X100685904Y-67420571D01*
X100733523Y-67515809D01*
X100733523Y-67753904D01*
X100685904Y-67849142D01*
X100638285Y-67896761D01*
X100543047Y-67944380D01*
X100304952Y-67944380D01*
X100209714Y-67896761D01*
X100162095Y-67849142D01*
X80009619Y-74279238D02*
X79962000Y-74374476D01*
X79866761Y-74469714D01*
X79723904Y-74612571D01*
X79676285Y-74707809D01*
X79676285Y-74803047D01*
X79914380Y-74755428D02*
X79866761Y-74850666D01*
X79771523Y-74945904D01*
X79581047Y-74993523D01*
X79247714Y-74993523D01*
X79057238Y-74945904D01*
X78962000Y-74850666D01*
X78914380Y-74755428D01*
X78914380Y-74564952D01*
X78962000Y-74469714D01*
X79057238Y-74374476D01*
X79247714Y-74326857D01*
X79581047Y-74326857D01*
X79771523Y-74374476D01*
X79866761Y-74469714D01*
X79914380Y-74564952D01*
X79914380Y-74755428D01*
X78914380Y-73469714D02*
X78914380Y-73660190D01*
X78962000Y-73755428D01*
X79009619Y-73803047D01*
X79152476Y-73898285D01*
X79342952Y-73945904D01*
X79723904Y-73945904D01*
X79819142Y-73898285D01*
X79866761Y-73850666D01*
X79914380Y-73755428D01*
X79914380Y-73564952D01*
X79866761Y-73469714D01*
X79819142Y-73422095D01*
X79723904Y-73374476D01*
X79485809Y-73374476D01*
X79390571Y-73422095D01*
X79342952Y-73469714D01*
X79295333Y-73564952D01*
X79295333Y-73755428D01*
X79342952Y-73850666D01*
X79390571Y-73898285D01*
X79485809Y-73945904D01*
X80009619Y-77835238D02*
X79962000Y-77930476D01*
X79866761Y-78025714D01*
X79723904Y-78168571D01*
X79676285Y-78263809D01*
X79676285Y-78359047D01*
X79914380Y-78311428D02*
X79866761Y-78406666D01*
X79771523Y-78501904D01*
X79581047Y-78549523D01*
X79247714Y-78549523D01*
X79057238Y-78501904D01*
X78962000Y-78406666D01*
X78914380Y-78311428D01*
X78914380Y-78120952D01*
X78962000Y-78025714D01*
X79057238Y-77930476D01*
X79247714Y-77882857D01*
X79581047Y-77882857D01*
X79771523Y-77930476D01*
X79866761Y-78025714D01*
X79914380Y-78120952D01*
X79914380Y-78311428D01*
X78914380Y-77549523D02*
X78914380Y-76882857D01*
X79914380Y-77311428D01*
X80009619Y-81391238D02*
X79962000Y-81486476D01*
X79866761Y-81581714D01*
X79723904Y-81724571D01*
X79676285Y-81819809D01*
X79676285Y-81915047D01*
X79914380Y-81867428D02*
X79866761Y-81962666D01*
X79771523Y-82057904D01*
X79581047Y-82105523D01*
X79247714Y-82105523D01*
X79057238Y-82057904D01*
X78962000Y-81962666D01*
X78914380Y-81867428D01*
X78914380Y-81676952D01*
X78962000Y-81581714D01*
X79057238Y-81486476D01*
X79247714Y-81438857D01*
X79581047Y-81438857D01*
X79771523Y-81486476D01*
X79866761Y-81581714D01*
X79914380Y-81676952D01*
X79914380Y-81867428D01*
X79342952Y-80867428D02*
X79295333Y-80962666D01*
X79247714Y-81010285D01*
X79152476Y-81057904D01*
X79104857Y-81057904D01*
X79009619Y-81010285D01*
X78962000Y-80962666D01*
X78914380Y-80867428D01*
X78914380Y-80676952D01*
X78962000Y-80581714D01*
X79009619Y-80534095D01*
X79104857Y-80486476D01*
X79152476Y-80486476D01*
X79247714Y-80534095D01*
X79295333Y-80581714D01*
X79342952Y-80676952D01*
X79342952Y-80867428D01*
X79390571Y-80962666D01*
X79438190Y-81010285D01*
X79533428Y-81057904D01*
X79723904Y-81057904D01*
X79819142Y-81010285D01*
X79866761Y-80962666D01*
X79914380Y-80867428D01*
X79914380Y-80676952D01*
X79866761Y-80581714D01*
X79819142Y-80534095D01*
X79723904Y-80486476D01*
X79533428Y-80486476D01*
X79438190Y-80534095D01*
X79390571Y-80581714D01*
X79342952Y-80676952D01*
X80009619Y-84947238D02*
X79962000Y-85042476D01*
X79866761Y-85137714D01*
X79723904Y-85280571D01*
X79676285Y-85375809D01*
X79676285Y-85471047D01*
X79914380Y-85423428D02*
X79866761Y-85518666D01*
X79771523Y-85613904D01*
X79581047Y-85661523D01*
X79247714Y-85661523D01*
X79057238Y-85613904D01*
X78962000Y-85518666D01*
X78914380Y-85423428D01*
X78914380Y-85232952D01*
X78962000Y-85137714D01*
X79057238Y-85042476D01*
X79247714Y-84994857D01*
X79581047Y-84994857D01*
X79771523Y-85042476D01*
X79866761Y-85137714D01*
X79914380Y-85232952D01*
X79914380Y-85423428D01*
X79914380Y-84518666D02*
X79914380Y-84328190D01*
X79866761Y-84232952D01*
X79819142Y-84185333D01*
X79676285Y-84090095D01*
X79485809Y-84042476D01*
X79104857Y-84042476D01*
X79009619Y-84090095D01*
X78962000Y-84137714D01*
X78914380Y-84232952D01*
X78914380Y-84423428D01*
X78962000Y-84518666D01*
X79009619Y-84566285D01*
X79104857Y-84613904D01*
X79342952Y-84613904D01*
X79438190Y-84566285D01*
X79485809Y-84518666D01*
X79533428Y-84423428D01*
X79533428Y-84232952D01*
X79485809Y-84137714D01*
X79438190Y-84090095D01*
X79342952Y-84042476D01*
X80009619Y-88979428D02*
X79962000Y-89074666D01*
X79866761Y-89169904D01*
X79723904Y-89312761D01*
X79676285Y-89408000D01*
X79676285Y-89503238D01*
X79914380Y-89455619D02*
X79866761Y-89550857D01*
X79771523Y-89646095D01*
X79581047Y-89693714D01*
X79247714Y-89693714D01*
X79057238Y-89646095D01*
X78962000Y-89550857D01*
X78914380Y-89455619D01*
X78914380Y-89265142D01*
X78962000Y-89169904D01*
X79057238Y-89074666D01*
X79247714Y-89027047D01*
X79581047Y-89027047D01*
X79771523Y-89074666D01*
X79866761Y-89169904D01*
X79914380Y-89265142D01*
X79914380Y-89455619D01*
X79914380Y-88074666D02*
X79914380Y-88646095D01*
X79914380Y-88360380D02*
X78914380Y-88360380D01*
X79057238Y-88455619D01*
X79152476Y-88550857D01*
X79200095Y-88646095D01*
X78914380Y-87455619D02*
X78914380Y-87360380D01*
X78962000Y-87265142D01*
X79009619Y-87217523D01*
X79104857Y-87169904D01*
X79295333Y-87122285D01*
X79533428Y-87122285D01*
X79723904Y-87169904D01*
X79819142Y-87217523D01*
X79866761Y-87265142D01*
X79914380Y-87360380D01*
X79914380Y-87455619D01*
X79866761Y-87550857D01*
X79819142Y-87598476D01*
X79723904Y-87646095D01*
X79533428Y-87693714D01*
X79295333Y-87693714D01*
X79104857Y-87646095D01*
X79009619Y-87598476D01*
X78962000Y-87550857D01*
X78914380Y-87455619D01*
X80009619Y-92535428D02*
X79962000Y-92630666D01*
X79866761Y-92725904D01*
X79723904Y-92868761D01*
X79676285Y-92964000D01*
X79676285Y-93059238D01*
X79914380Y-93011619D02*
X79866761Y-93106857D01*
X79771523Y-93202095D01*
X79581047Y-93249714D01*
X79247714Y-93249714D01*
X79057238Y-93202095D01*
X78962000Y-93106857D01*
X78914380Y-93011619D01*
X78914380Y-92821142D01*
X78962000Y-92725904D01*
X79057238Y-92630666D01*
X79247714Y-92583047D01*
X79581047Y-92583047D01*
X79771523Y-92630666D01*
X79866761Y-92725904D01*
X79914380Y-92821142D01*
X79914380Y-93011619D01*
X79914380Y-91630666D02*
X79914380Y-92202095D01*
X79914380Y-91916380D02*
X78914380Y-91916380D01*
X79057238Y-92011619D01*
X79152476Y-92106857D01*
X79200095Y-92202095D01*
X79914380Y-90678285D02*
X79914380Y-91249714D01*
X79914380Y-90964000D02*
X78914380Y-90964000D01*
X79057238Y-91059238D01*
X79152476Y-91154476D01*
X79200095Y-91249714D01*
X80009619Y-96091428D02*
X79962000Y-96186666D01*
X79866761Y-96281904D01*
X79723904Y-96424761D01*
X79676285Y-96520000D01*
X79676285Y-96615238D01*
X79914380Y-96567619D02*
X79866761Y-96662857D01*
X79771523Y-96758095D01*
X79581047Y-96805714D01*
X79247714Y-96805714D01*
X79057238Y-96758095D01*
X78962000Y-96662857D01*
X78914380Y-96567619D01*
X78914380Y-96377142D01*
X78962000Y-96281904D01*
X79057238Y-96186666D01*
X79247714Y-96139047D01*
X79581047Y-96139047D01*
X79771523Y-96186666D01*
X79866761Y-96281904D01*
X79914380Y-96377142D01*
X79914380Y-96567619D01*
X79914380Y-95186666D02*
X79914380Y-95758095D01*
X79914380Y-95472380D02*
X78914380Y-95472380D01*
X79057238Y-95567619D01*
X79152476Y-95662857D01*
X79200095Y-95758095D01*
X79009619Y-94805714D02*
X78962000Y-94758095D01*
X78914380Y-94662857D01*
X78914380Y-94424761D01*
X78962000Y-94329523D01*
X79009619Y-94281904D01*
X79104857Y-94234285D01*
X79200095Y-94234285D01*
X79342952Y-94281904D01*
X79914380Y-94853333D01*
X79914380Y-94234285D01*
X80009619Y-99647428D02*
X79962000Y-99742666D01*
X79866761Y-99837904D01*
X79723904Y-99980761D01*
X79676285Y-100076000D01*
X79676285Y-100171238D01*
X79914380Y-100123619D02*
X79866761Y-100218857D01*
X79771523Y-100314095D01*
X79581047Y-100361714D01*
X79247714Y-100361714D01*
X79057238Y-100314095D01*
X78962000Y-100218857D01*
X78914380Y-100123619D01*
X78914380Y-99933142D01*
X78962000Y-99837904D01*
X79057238Y-99742666D01*
X79247714Y-99695047D01*
X79581047Y-99695047D01*
X79771523Y-99742666D01*
X79866761Y-99837904D01*
X79914380Y-99933142D01*
X79914380Y-100123619D01*
X79914380Y-98742666D02*
X79914380Y-99314095D01*
X79914380Y-99028380D02*
X78914380Y-99028380D01*
X79057238Y-99123619D01*
X79152476Y-99218857D01*
X79200095Y-99314095D01*
X78914380Y-98409333D02*
X78914380Y-97790285D01*
X79295333Y-98123619D01*
X79295333Y-97980761D01*
X79342952Y-97885523D01*
X79390571Y-97837904D01*
X79485809Y-97790285D01*
X79723904Y-97790285D01*
X79819142Y-97837904D01*
X79866761Y-97885523D01*
X79914380Y-97980761D01*
X79914380Y-98266476D01*
X79866761Y-98361714D01*
X79819142Y-98409333D01*
X93129833Y-61792380D02*
X92796500Y-61316190D01*
X92558404Y-61792380D02*
X92558404Y-60792380D01*
X92939357Y-60792380D01*
X93034595Y-60840000D01*
X93082214Y-60887619D01*
X93129833Y-60982857D01*
X93129833Y-61125714D01*
X93082214Y-61220952D01*
X93034595Y-61268571D01*
X92939357Y-61316190D01*
X92558404Y-61316190D01*
X94082214Y-61792380D02*
X93510785Y-61792380D01*
X93796500Y-61792380D02*
X93796500Y-60792380D01*
X93701261Y-60935238D01*
X93606023Y-61030476D01*
X93510785Y-61078095D01*
X68080833Y-59380380D02*
X67747500Y-58904190D01*
X67509404Y-59380380D02*
X67509404Y-58380380D01*
X67890357Y-58380380D01*
X67985595Y-58428000D01*
X68033214Y-58475619D01*
X68080833Y-58570857D01*
X68080833Y-58713714D01*
X68033214Y-58808952D01*
X67985595Y-58856571D01*
X67890357Y-58904190D01*
X67509404Y-58904190D01*
X68461785Y-58475619D02*
X68509404Y-58428000D01*
X68604642Y-58380380D01*
X68842738Y-58380380D01*
X68937976Y-58428000D01*
X68985595Y-58475619D01*
X69033214Y-58570857D01*
X69033214Y-58666095D01*
X68985595Y-58808952D01*
X68414166Y-59380380D01*
X69033214Y-59380380D01*
X90494380Y-62572166D02*
X90018190Y-62905500D01*
X90494380Y-63143595D02*
X89494380Y-63143595D01*
X89494380Y-62762642D01*
X89542000Y-62667404D01*
X89589619Y-62619785D01*
X89684857Y-62572166D01*
X89827714Y-62572166D01*
X89922952Y-62619785D01*
X89970571Y-62667404D01*
X90018190Y-62762642D01*
X90018190Y-63143595D01*
X89494380Y-62238833D02*
X89494380Y-61619785D01*
X89875333Y-61953119D01*
X89875333Y-61810261D01*
X89922952Y-61715023D01*
X89970571Y-61667404D01*
X90065809Y-61619785D01*
X90303904Y-61619785D01*
X90399142Y-61667404D01*
X90446761Y-61715023D01*
X90494380Y-61810261D01*
X90494380Y-62095976D01*
X90446761Y-62191214D01*
X90399142Y-62238833D01*
X68080833Y-65856380D02*
X67747500Y-65380190D01*
X67509404Y-65856380D02*
X67509404Y-64856380D01*
X67890357Y-64856380D01*
X67985595Y-64904000D01*
X68033214Y-64951619D01*
X68080833Y-65046857D01*
X68080833Y-65189714D01*
X68033214Y-65284952D01*
X67985595Y-65332571D01*
X67890357Y-65380190D01*
X67509404Y-65380190D01*
X68985595Y-64856380D02*
X68509404Y-64856380D01*
X68461785Y-65332571D01*
X68509404Y-65284952D01*
X68604642Y-65237333D01*
X68842738Y-65237333D01*
X68937976Y-65284952D01*
X68985595Y-65332571D01*
X69033214Y-65427809D01*
X69033214Y-65665904D01*
X68985595Y-65761142D01*
X68937976Y-65808761D01*
X68842738Y-65856380D01*
X68604642Y-65856380D01*
X68509404Y-65808761D01*
X68461785Y-65761142D01*
X68080833Y-69158380D02*
X67747500Y-68682190D01*
X67509404Y-69158380D02*
X67509404Y-68158380D01*
X67890357Y-68158380D01*
X67985595Y-68206000D01*
X68033214Y-68253619D01*
X68080833Y-68348857D01*
X68080833Y-68491714D01*
X68033214Y-68586952D01*
X67985595Y-68634571D01*
X67890357Y-68682190D01*
X67509404Y-68682190D01*
X68414166Y-68158380D02*
X69080833Y-68158380D01*
X68652261Y-69158380D01*
X68080833Y-72460380D02*
X67747500Y-71984190D01*
X67509404Y-72460380D02*
X67509404Y-71460380D01*
X67890357Y-71460380D01*
X67985595Y-71508000D01*
X68033214Y-71555619D01*
X68080833Y-71650857D01*
X68080833Y-71793714D01*
X68033214Y-71888952D01*
X67985595Y-71936571D01*
X67890357Y-71984190D01*
X67509404Y-71984190D01*
X68557023Y-72460380D02*
X68747500Y-72460380D01*
X68842738Y-72412761D01*
X68890357Y-72365142D01*
X68985595Y-72222285D01*
X69033214Y-72031809D01*
X69033214Y-71650857D01*
X68985595Y-71555619D01*
X68937976Y-71508000D01*
X68842738Y-71460380D01*
X68652261Y-71460380D01*
X68557023Y-71508000D01*
X68509404Y-71555619D01*
X68461785Y-71650857D01*
X68461785Y-71888952D01*
X68509404Y-71984190D01*
X68557023Y-72031809D01*
X68652261Y-72079428D01*
X68842738Y-72079428D01*
X68937976Y-72031809D01*
X68985595Y-71984190D01*
X69033214Y-71888952D01*
X67604642Y-75762380D02*
X67271309Y-75286190D01*
X67033214Y-75762380D02*
X67033214Y-74762380D01*
X67414166Y-74762380D01*
X67509404Y-74810000D01*
X67557023Y-74857619D01*
X67604642Y-74952857D01*
X67604642Y-75095714D01*
X67557023Y-75190952D01*
X67509404Y-75238571D01*
X67414166Y-75286190D01*
X67033214Y-75286190D01*
X68557023Y-75762380D02*
X67985595Y-75762380D01*
X68271309Y-75762380D02*
X68271309Y-74762380D01*
X68176071Y-74905238D01*
X68080833Y-75000476D01*
X67985595Y-75048095D01*
X69509404Y-75762380D02*
X68937976Y-75762380D01*
X69223690Y-75762380D02*
X69223690Y-74762380D01*
X69128452Y-74905238D01*
X69033214Y-75000476D01*
X68937976Y-75048095D01*
X67604642Y-79064380D02*
X67271309Y-78588190D01*
X67033214Y-79064380D02*
X67033214Y-78064380D01*
X67414166Y-78064380D01*
X67509404Y-78112000D01*
X67557023Y-78159619D01*
X67604642Y-78254857D01*
X67604642Y-78397714D01*
X67557023Y-78492952D01*
X67509404Y-78540571D01*
X67414166Y-78588190D01*
X67033214Y-78588190D01*
X68557023Y-79064380D02*
X67985595Y-79064380D01*
X68271309Y-79064380D02*
X68271309Y-78064380D01*
X68176071Y-78207238D01*
X68080833Y-78302476D01*
X67985595Y-78350095D01*
X68890357Y-78064380D02*
X69509404Y-78064380D01*
X69176071Y-78445333D01*
X69318928Y-78445333D01*
X69414166Y-78492952D01*
X69461785Y-78540571D01*
X69509404Y-78635809D01*
X69509404Y-78873904D01*
X69461785Y-78969142D01*
X69414166Y-79016761D01*
X69318928Y-79064380D01*
X69033214Y-79064380D01*
X68937976Y-79016761D01*
X68890357Y-78969142D01*
X67604642Y-82366380D02*
X67271309Y-81890190D01*
X67033214Y-82366380D02*
X67033214Y-81366380D01*
X67414166Y-81366380D01*
X67509404Y-81414000D01*
X67557023Y-81461619D01*
X67604642Y-81556857D01*
X67604642Y-81699714D01*
X67557023Y-81794952D01*
X67509404Y-81842571D01*
X67414166Y-81890190D01*
X67033214Y-81890190D01*
X68557023Y-82366380D02*
X67985595Y-82366380D01*
X68271309Y-82366380D02*
X68271309Y-81366380D01*
X68176071Y-81509238D01*
X68080833Y-81604476D01*
X67985595Y-81652095D01*
X69461785Y-81366380D02*
X68985595Y-81366380D01*
X68937976Y-81842571D01*
X68985595Y-81794952D01*
X69080833Y-81747333D01*
X69318928Y-81747333D01*
X69414166Y-81794952D01*
X69461785Y-81842571D01*
X69509404Y-81937809D01*
X69509404Y-82175904D01*
X69461785Y-82271142D01*
X69414166Y-82318761D01*
X69318928Y-82366380D01*
X69080833Y-82366380D01*
X68985595Y-82318761D01*
X68937976Y-82271142D01*
X103576380Y-72192357D02*
X103100190Y-72525690D01*
X103576380Y-72763785D02*
X102576380Y-72763785D01*
X102576380Y-72382833D01*
X102624000Y-72287595D01*
X102671619Y-72239976D01*
X102766857Y-72192357D01*
X102909714Y-72192357D01*
X103004952Y-72239976D01*
X103052571Y-72287595D01*
X103100190Y-72382833D01*
X103100190Y-72763785D01*
X103576380Y-71239976D02*
X103576380Y-71811404D01*
X103576380Y-71525690D02*
X102576380Y-71525690D01*
X102719238Y-71620928D01*
X102814476Y-71716166D01*
X102862095Y-71811404D01*
X102576380Y-70382833D02*
X102576380Y-70573309D01*
X102624000Y-70668547D01*
X102671619Y-70716166D01*
X102814476Y-70811404D01*
X103004952Y-70859023D01*
X103385904Y-70859023D01*
X103481142Y-70811404D01*
X103528761Y-70763785D01*
X103576380Y-70668547D01*
X103576380Y-70478071D01*
X103528761Y-70382833D01*
X103481142Y-70335214D01*
X103385904Y-70287595D01*
X103147809Y-70287595D01*
X103052571Y-70335214D01*
X103004952Y-70382833D01*
X102957333Y-70478071D01*
X102957333Y-70668547D01*
X103004952Y-70763785D01*
X103052571Y-70811404D01*
X103147809Y-70859023D01*
X104974380Y-72192357D02*
X104498190Y-72525690D01*
X104974380Y-72763785D02*
X103974380Y-72763785D01*
X103974380Y-72382833D01*
X104022000Y-72287595D01*
X104069619Y-72239976D01*
X104164857Y-72192357D01*
X104307714Y-72192357D01*
X104402952Y-72239976D01*
X104450571Y-72287595D01*
X104498190Y-72382833D01*
X104498190Y-72763785D01*
X104974380Y-71239976D02*
X104974380Y-71811404D01*
X104974380Y-71525690D02*
X103974380Y-71525690D01*
X104117238Y-71620928D01*
X104212476Y-71716166D01*
X104260095Y-71811404D01*
X103974380Y-70906642D02*
X103974380Y-70239976D01*
X104974380Y-70668547D01*
X67604642Y-85668380D02*
X67271309Y-85192190D01*
X67033214Y-85668380D02*
X67033214Y-84668380D01*
X67414166Y-84668380D01*
X67509404Y-84716000D01*
X67557023Y-84763619D01*
X67604642Y-84858857D01*
X67604642Y-85001714D01*
X67557023Y-85096952D01*
X67509404Y-85144571D01*
X67414166Y-85192190D01*
X67033214Y-85192190D01*
X68557023Y-85668380D02*
X67985595Y-85668380D01*
X68271309Y-85668380D02*
X68271309Y-84668380D01*
X68176071Y-84811238D01*
X68080833Y-84906476D01*
X67985595Y-84954095D01*
X69033214Y-85668380D02*
X69223690Y-85668380D01*
X69318928Y-85620761D01*
X69366547Y-85573142D01*
X69461785Y-85430285D01*
X69509404Y-85239809D01*
X69509404Y-84858857D01*
X69461785Y-84763619D01*
X69414166Y-84716000D01*
X69318928Y-84668380D01*
X69128452Y-84668380D01*
X69033214Y-84716000D01*
X68985595Y-84763619D01*
X68937976Y-84858857D01*
X68937976Y-85096952D01*
X68985595Y-85192190D01*
X69033214Y-85239809D01*
X69128452Y-85287428D01*
X69318928Y-85287428D01*
X69414166Y-85239809D01*
X69461785Y-85192190D01*
X69509404Y-85096952D01*
X90324642Y-92194380D02*
X89991309Y-91718190D01*
X89753214Y-92194380D02*
X89753214Y-91194380D01*
X90134166Y-91194380D01*
X90229404Y-91242000D01*
X90277023Y-91289619D01*
X90324642Y-91384857D01*
X90324642Y-91527714D01*
X90277023Y-91622952D01*
X90229404Y-91670571D01*
X90134166Y-91718190D01*
X89753214Y-91718190D01*
X90705595Y-91289619D02*
X90753214Y-91242000D01*
X90848452Y-91194380D01*
X91086547Y-91194380D01*
X91181785Y-91242000D01*
X91229404Y-91289619D01*
X91277023Y-91384857D01*
X91277023Y-91480095D01*
X91229404Y-91622952D01*
X90657976Y-92194380D01*
X91277023Y-92194380D01*
X91896071Y-91194380D02*
X91991309Y-91194380D01*
X92086547Y-91242000D01*
X92134166Y-91289619D01*
X92181785Y-91384857D01*
X92229404Y-91575333D01*
X92229404Y-91813428D01*
X92181785Y-92003904D01*
X92134166Y-92099142D01*
X92086547Y-92146761D01*
X91991309Y-92194380D01*
X91896071Y-92194380D01*
X91800833Y-92146761D01*
X91753214Y-92099142D01*
X91705595Y-92003904D01*
X91657976Y-91813428D01*
X91657976Y-91575333D01*
X91705595Y-91384857D01*
X91753214Y-91289619D01*
X91800833Y-91242000D01*
X91896071Y-91194380D01*
X67604642Y-88970380D02*
X67271309Y-88494190D01*
X67033214Y-88970380D02*
X67033214Y-87970380D01*
X67414166Y-87970380D01*
X67509404Y-88018000D01*
X67557023Y-88065619D01*
X67604642Y-88160857D01*
X67604642Y-88303714D01*
X67557023Y-88398952D01*
X67509404Y-88446571D01*
X67414166Y-88494190D01*
X67033214Y-88494190D01*
X67985595Y-88065619D02*
X68033214Y-88018000D01*
X68128452Y-87970380D01*
X68366547Y-87970380D01*
X68461785Y-88018000D01*
X68509404Y-88065619D01*
X68557023Y-88160857D01*
X68557023Y-88256095D01*
X68509404Y-88398952D01*
X67937976Y-88970380D01*
X68557023Y-88970380D01*
X68937976Y-88065619D02*
X68985595Y-88018000D01*
X69080833Y-87970380D01*
X69318928Y-87970380D01*
X69414166Y-88018000D01*
X69461785Y-88065619D01*
X69509404Y-88160857D01*
X69509404Y-88256095D01*
X69461785Y-88398952D01*
X68890357Y-88970380D01*
X69509404Y-88970380D01*
X90403142Y-96512380D02*
X90069809Y-96036190D01*
X89831714Y-96512380D02*
X89831714Y-95512380D01*
X90212666Y-95512380D01*
X90307904Y-95560000D01*
X90355523Y-95607619D01*
X90403142Y-95702857D01*
X90403142Y-95845714D01*
X90355523Y-95940952D01*
X90307904Y-95988571D01*
X90212666Y-96036190D01*
X89831714Y-96036190D01*
X90784095Y-95607619D02*
X90831714Y-95560000D01*
X90926952Y-95512380D01*
X91165047Y-95512380D01*
X91260285Y-95560000D01*
X91307904Y-95607619D01*
X91355523Y-95702857D01*
X91355523Y-95798095D01*
X91307904Y-95940952D01*
X90736476Y-96512380D01*
X91355523Y-96512380D01*
X91688857Y-95512380D02*
X92307904Y-95512380D01*
X91974571Y-95893333D01*
X92117428Y-95893333D01*
X92212666Y-95940952D01*
X92260285Y-95988571D01*
X92307904Y-96083809D01*
X92307904Y-96321904D01*
X92260285Y-96417142D01*
X92212666Y-96464761D01*
X92117428Y-96512380D01*
X91831714Y-96512380D01*
X91736476Y-96464761D01*
X91688857Y-96417142D01*
X90403142Y-98798380D02*
X90069809Y-98322190D01*
X89831714Y-98798380D02*
X89831714Y-97798380D01*
X90212666Y-97798380D01*
X90307904Y-97846000D01*
X90355523Y-97893619D01*
X90403142Y-97988857D01*
X90403142Y-98131714D01*
X90355523Y-98226952D01*
X90307904Y-98274571D01*
X90212666Y-98322190D01*
X89831714Y-98322190D01*
X90784095Y-97893619D02*
X90831714Y-97846000D01*
X90926952Y-97798380D01*
X91165047Y-97798380D01*
X91260285Y-97846000D01*
X91307904Y-97893619D01*
X91355523Y-97988857D01*
X91355523Y-98084095D01*
X91307904Y-98226952D01*
X90736476Y-98798380D01*
X91355523Y-98798380D01*
X92212666Y-98131714D02*
X92212666Y-98798380D01*
X91974571Y-97750761D02*
X91736476Y-98465047D01*
X92355523Y-98465047D01*
X67604642Y-92272380D02*
X67271309Y-91796190D01*
X67033214Y-92272380D02*
X67033214Y-91272380D01*
X67414166Y-91272380D01*
X67509404Y-91320000D01*
X67557023Y-91367619D01*
X67604642Y-91462857D01*
X67604642Y-91605714D01*
X67557023Y-91700952D01*
X67509404Y-91748571D01*
X67414166Y-91796190D01*
X67033214Y-91796190D01*
X67985595Y-91367619D02*
X68033214Y-91320000D01*
X68128452Y-91272380D01*
X68366547Y-91272380D01*
X68461785Y-91320000D01*
X68509404Y-91367619D01*
X68557023Y-91462857D01*
X68557023Y-91558095D01*
X68509404Y-91700952D01*
X67937976Y-92272380D01*
X68557023Y-92272380D01*
X69414166Y-91272380D02*
X69223690Y-91272380D01*
X69128452Y-91320000D01*
X69080833Y-91367619D01*
X68985595Y-91510476D01*
X68937976Y-91700952D01*
X68937976Y-92081904D01*
X68985595Y-92177142D01*
X69033214Y-92224761D01*
X69128452Y-92272380D01*
X69318928Y-92272380D01*
X69414166Y-92224761D01*
X69461785Y-92177142D01*
X69509404Y-92081904D01*
X69509404Y-91843809D01*
X69461785Y-91748571D01*
X69414166Y-91700952D01*
X69318928Y-91653333D01*
X69128452Y-91653333D01*
X69033214Y-91700952D01*
X68985595Y-91748571D01*
X68937976Y-91843809D01*
X93626642Y-104766380D02*
X93293309Y-104290190D01*
X93055214Y-104766380D02*
X93055214Y-103766380D01*
X93436166Y-103766380D01*
X93531404Y-103814000D01*
X93579023Y-103861619D01*
X93626642Y-103956857D01*
X93626642Y-104099714D01*
X93579023Y-104194952D01*
X93531404Y-104242571D01*
X93436166Y-104290190D01*
X93055214Y-104290190D01*
X94007595Y-103861619D02*
X94055214Y-103814000D01*
X94150452Y-103766380D01*
X94388547Y-103766380D01*
X94483785Y-103814000D01*
X94531404Y-103861619D01*
X94579023Y-103956857D01*
X94579023Y-104052095D01*
X94531404Y-104194952D01*
X93959976Y-104766380D01*
X94579023Y-104766380D01*
X94912357Y-103766380D02*
X95579023Y-103766380D01*
X95150452Y-104766380D01*
X67604642Y-95574380D02*
X67271309Y-95098190D01*
X67033214Y-95574380D02*
X67033214Y-94574380D01*
X67414166Y-94574380D01*
X67509404Y-94622000D01*
X67557023Y-94669619D01*
X67604642Y-94764857D01*
X67604642Y-94907714D01*
X67557023Y-95002952D01*
X67509404Y-95050571D01*
X67414166Y-95098190D01*
X67033214Y-95098190D01*
X67985595Y-94669619D02*
X68033214Y-94622000D01*
X68128452Y-94574380D01*
X68366547Y-94574380D01*
X68461785Y-94622000D01*
X68509404Y-94669619D01*
X68557023Y-94764857D01*
X68557023Y-94860095D01*
X68509404Y-95002952D01*
X67937976Y-95574380D01*
X68557023Y-95574380D01*
X69033214Y-95574380D02*
X69223690Y-95574380D01*
X69318928Y-95526761D01*
X69366547Y-95479142D01*
X69461785Y-95336285D01*
X69509404Y-95145809D01*
X69509404Y-94764857D01*
X69461785Y-94669619D01*
X69414166Y-94622000D01*
X69318928Y-94574380D01*
X69128452Y-94574380D01*
X69033214Y-94622000D01*
X68985595Y-94669619D01*
X68937976Y-94764857D01*
X68937976Y-95002952D01*
X68985595Y-95098190D01*
X69033214Y-95145809D01*
X69128452Y-95193428D01*
X69318928Y-95193428D01*
X69414166Y-95145809D01*
X69461785Y-95098190D01*
X69509404Y-95002952D01*
X67604642Y-98876380D02*
X67271309Y-98400190D01*
X67033214Y-98876380D02*
X67033214Y-97876380D01*
X67414166Y-97876380D01*
X67509404Y-97924000D01*
X67557023Y-97971619D01*
X67604642Y-98066857D01*
X67604642Y-98209714D01*
X67557023Y-98304952D01*
X67509404Y-98352571D01*
X67414166Y-98400190D01*
X67033214Y-98400190D01*
X67937976Y-97876380D02*
X68557023Y-97876380D01*
X68223690Y-98257333D01*
X68366547Y-98257333D01*
X68461785Y-98304952D01*
X68509404Y-98352571D01*
X68557023Y-98447809D01*
X68557023Y-98685904D01*
X68509404Y-98781142D01*
X68461785Y-98828761D01*
X68366547Y-98876380D01*
X68080833Y-98876380D01*
X67985595Y-98828761D01*
X67937976Y-98781142D01*
X69509404Y-98876380D02*
X68937976Y-98876380D01*
X69223690Y-98876380D02*
X69223690Y-97876380D01*
X69128452Y-98019238D01*
X69033214Y-98114476D01*
X68937976Y-98162095D01*
X114878380Y-62286357D02*
X114402190Y-62619690D01*
X114878380Y-62857785D02*
X113878380Y-62857785D01*
X113878380Y-62476833D01*
X113926000Y-62381595D01*
X113973619Y-62333976D01*
X114068857Y-62286357D01*
X114211714Y-62286357D01*
X114306952Y-62333976D01*
X114354571Y-62381595D01*
X114402190Y-62476833D01*
X114402190Y-62857785D01*
X113878380Y-61953023D02*
X113878380Y-61333976D01*
X114259333Y-61667309D01*
X114259333Y-61524452D01*
X114306952Y-61429214D01*
X114354571Y-61381595D01*
X114449809Y-61333976D01*
X114687904Y-61333976D01*
X114783142Y-61381595D01*
X114830761Y-61429214D01*
X114878380Y-61524452D01*
X114878380Y-61810166D01*
X114830761Y-61905404D01*
X114783142Y-61953023D01*
X113878380Y-61000642D02*
X113878380Y-60381595D01*
X114259333Y-60714928D01*
X114259333Y-60572071D01*
X114306952Y-60476833D01*
X114354571Y-60429214D01*
X114449809Y-60381595D01*
X114687904Y-60381595D01*
X114783142Y-60429214D01*
X114830761Y-60476833D01*
X114878380Y-60572071D01*
X114878380Y-60857785D01*
X114830761Y-60953023D01*
X114783142Y-61000642D01*
X63697642Y-65856380D02*
X63364309Y-65380190D01*
X63126214Y-65856380D02*
X63126214Y-64856380D01*
X63507166Y-64856380D01*
X63602404Y-64904000D01*
X63650023Y-64951619D01*
X63697642Y-65046857D01*
X63697642Y-65189714D01*
X63650023Y-65284952D01*
X63602404Y-65332571D01*
X63507166Y-65380190D01*
X63126214Y-65380190D01*
X64030976Y-64856380D02*
X64650023Y-64856380D01*
X64316690Y-65237333D01*
X64459547Y-65237333D01*
X64554785Y-65284952D01*
X64602404Y-65332571D01*
X64650023Y-65427809D01*
X64650023Y-65665904D01*
X64602404Y-65761142D01*
X64554785Y-65808761D01*
X64459547Y-65856380D01*
X64173833Y-65856380D01*
X64078595Y-65808761D01*
X64030976Y-65761142D01*
X65507166Y-65189714D02*
X65507166Y-65856380D01*
X65269071Y-64808761D02*
X65030976Y-65523047D01*
X65650023Y-65523047D01*
X63697642Y-69158380D02*
X63364309Y-68682190D01*
X63126214Y-69158380D02*
X63126214Y-68158380D01*
X63507166Y-68158380D01*
X63602404Y-68206000D01*
X63650023Y-68253619D01*
X63697642Y-68348857D01*
X63697642Y-68491714D01*
X63650023Y-68586952D01*
X63602404Y-68634571D01*
X63507166Y-68682190D01*
X63126214Y-68682190D01*
X64030976Y-68158380D02*
X64650023Y-68158380D01*
X64316690Y-68539333D01*
X64459547Y-68539333D01*
X64554785Y-68586952D01*
X64602404Y-68634571D01*
X64650023Y-68729809D01*
X64650023Y-68967904D01*
X64602404Y-69063142D01*
X64554785Y-69110761D01*
X64459547Y-69158380D01*
X64173833Y-69158380D01*
X64078595Y-69110761D01*
X64030976Y-69063142D01*
X65554785Y-68158380D02*
X65078595Y-68158380D01*
X65030976Y-68634571D01*
X65078595Y-68586952D01*
X65173833Y-68539333D01*
X65411928Y-68539333D01*
X65507166Y-68586952D01*
X65554785Y-68634571D01*
X65602404Y-68729809D01*
X65602404Y-68967904D01*
X65554785Y-69063142D01*
X65507166Y-69110761D01*
X65411928Y-69158380D01*
X65173833Y-69158380D01*
X65078595Y-69110761D01*
X65030976Y-69063142D01*
X63697642Y-72460380D02*
X63364309Y-71984190D01*
X63126214Y-72460380D02*
X63126214Y-71460380D01*
X63507166Y-71460380D01*
X63602404Y-71508000D01*
X63650023Y-71555619D01*
X63697642Y-71650857D01*
X63697642Y-71793714D01*
X63650023Y-71888952D01*
X63602404Y-71936571D01*
X63507166Y-71984190D01*
X63126214Y-71984190D01*
X64030976Y-71460380D02*
X64650023Y-71460380D01*
X64316690Y-71841333D01*
X64459547Y-71841333D01*
X64554785Y-71888952D01*
X64602404Y-71936571D01*
X64650023Y-72031809D01*
X64650023Y-72269904D01*
X64602404Y-72365142D01*
X64554785Y-72412761D01*
X64459547Y-72460380D01*
X64173833Y-72460380D01*
X64078595Y-72412761D01*
X64030976Y-72365142D01*
X65507166Y-71460380D02*
X65316690Y-71460380D01*
X65221452Y-71508000D01*
X65173833Y-71555619D01*
X65078595Y-71698476D01*
X65030976Y-71888952D01*
X65030976Y-72269904D01*
X65078595Y-72365142D01*
X65126214Y-72412761D01*
X65221452Y-72460380D01*
X65411928Y-72460380D01*
X65507166Y-72412761D01*
X65554785Y-72365142D01*
X65602404Y-72269904D01*
X65602404Y-72031809D01*
X65554785Y-71936571D01*
X65507166Y-71888952D01*
X65411928Y-71841333D01*
X65221452Y-71841333D01*
X65126214Y-71888952D01*
X65078595Y-71936571D01*
X65030976Y-72031809D01*
X63697642Y-75762380D02*
X63364309Y-75286190D01*
X63126214Y-75762380D02*
X63126214Y-74762380D01*
X63507166Y-74762380D01*
X63602404Y-74810000D01*
X63650023Y-74857619D01*
X63697642Y-74952857D01*
X63697642Y-75095714D01*
X63650023Y-75190952D01*
X63602404Y-75238571D01*
X63507166Y-75286190D01*
X63126214Y-75286190D01*
X64030976Y-74762380D02*
X64650023Y-74762380D01*
X64316690Y-75143333D01*
X64459547Y-75143333D01*
X64554785Y-75190952D01*
X64602404Y-75238571D01*
X64650023Y-75333809D01*
X64650023Y-75571904D01*
X64602404Y-75667142D01*
X64554785Y-75714761D01*
X64459547Y-75762380D01*
X64173833Y-75762380D01*
X64078595Y-75714761D01*
X64030976Y-75667142D01*
X64983357Y-74762380D02*
X65650023Y-74762380D01*
X65221452Y-75762380D01*
X63697642Y-79064380D02*
X63364309Y-78588190D01*
X63126214Y-79064380D02*
X63126214Y-78064380D01*
X63507166Y-78064380D01*
X63602404Y-78112000D01*
X63650023Y-78159619D01*
X63697642Y-78254857D01*
X63697642Y-78397714D01*
X63650023Y-78492952D01*
X63602404Y-78540571D01*
X63507166Y-78588190D01*
X63126214Y-78588190D01*
X64030976Y-78064380D02*
X64650023Y-78064380D01*
X64316690Y-78445333D01*
X64459547Y-78445333D01*
X64554785Y-78492952D01*
X64602404Y-78540571D01*
X64650023Y-78635809D01*
X64650023Y-78873904D01*
X64602404Y-78969142D01*
X64554785Y-79016761D01*
X64459547Y-79064380D01*
X64173833Y-79064380D01*
X64078595Y-79016761D01*
X64030976Y-78969142D01*
X65221452Y-78492952D02*
X65126214Y-78445333D01*
X65078595Y-78397714D01*
X65030976Y-78302476D01*
X65030976Y-78254857D01*
X65078595Y-78159619D01*
X65126214Y-78112000D01*
X65221452Y-78064380D01*
X65411928Y-78064380D01*
X65507166Y-78112000D01*
X65554785Y-78159619D01*
X65602404Y-78254857D01*
X65602404Y-78302476D01*
X65554785Y-78397714D01*
X65507166Y-78445333D01*
X65411928Y-78492952D01*
X65221452Y-78492952D01*
X65126214Y-78540571D01*
X65078595Y-78588190D01*
X65030976Y-78683428D01*
X65030976Y-78873904D01*
X65078595Y-78969142D01*
X65126214Y-79016761D01*
X65221452Y-79064380D01*
X65411928Y-79064380D01*
X65507166Y-79016761D01*
X65554785Y-78969142D01*
X65602404Y-78873904D01*
X65602404Y-78683428D01*
X65554785Y-78588190D01*
X65507166Y-78540571D01*
X65411928Y-78492952D01*
X63697642Y-82366380D02*
X63364309Y-81890190D01*
X63126214Y-82366380D02*
X63126214Y-81366380D01*
X63507166Y-81366380D01*
X63602404Y-81414000D01*
X63650023Y-81461619D01*
X63697642Y-81556857D01*
X63697642Y-81699714D01*
X63650023Y-81794952D01*
X63602404Y-81842571D01*
X63507166Y-81890190D01*
X63126214Y-81890190D01*
X64030976Y-81366380D02*
X64650023Y-81366380D01*
X64316690Y-81747333D01*
X64459547Y-81747333D01*
X64554785Y-81794952D01*
X64602404Y-81842571D01*
X64650023Y-81937809D01*
X64650023Y-82175904D01*
X64602404Y-82271142D01*
X64554785Y-82318761D01*
X64459547Y-82366380D01*
X64173833Y-82366380D01*
X64078595Y-82318761D01*
X64030976Y-82271142D01*
X65126214Y-82366380D02*
X65316690Y-82366380D01*
X65411928Y-82318761D01*
X65459547Y-82271142D01*
X65554785Y-82128285D01*
X65602404Y-81937809D01*
X65602404Y-81556857D01*
X65554785Y-81461619D01*
X65507166Y-81414000D01*
X65411928Y-81366380D01*
X65221452Y-81366380D01*
X65126214Y-81414000D01*
X65078595Y-81461619D01*
X65030976Y-81556857D01*
X65030976Y-81794952D01*
X65078595Y-81890190D01*
X65126214Y-81937809D01*
X65221452Y-81985428D01*
X65411928Y-81985428D01*
X65507166Y-81937809D01*
X65554785Y-81890190D01*
X65602404Y-81794952D01*
X63697642Y-85668380D02*
X63364309Y-85192190D01*
X63126214Y-85668380D02*
X63126214Y-84668380D01*
X63507166Y-84668380D01*
X63602404Y-84716000D01*
X63650023Y-84763619D01*
X63697642Y-84858857D01*
X63697642Y-85001714D01*
X63650023Y-85096952D01*
X63602404Y-85144571D01*
X63507166Y-85192190D01*
X63126214Y-85192190D01*
X64554785Y-85001714D02*
X64554785Y-85668380D01*
X64316690Y-84620761D02*
X64078595Y-85335047D01*
X64697642Y-85335047D01*
X65269071Y-84668380D02*
X65364309Y-84668380D01*
X65459547Y-84716000D01*
X65507166Y-84763619D01*
X65554785Y-84858857D01*
X65602404Y-85049333D01*
X65602404Y-85287428D01*
X65554785Y-85477904D01*
X65507166Y-85573142D01*
X65459547Y-85620761D01*
X65364309Y-85668380D01*
X65269071Y-85668380D01*
X65173833Y-85620761D01*
X65126214Y-85573142D01*
X65078595Y-85477904D01*
X65030976Y-85287428D01*
X65030976Y-85049333D01*
X65078595Y-84858857D01*
X65126214Y-84763619D01*
X65173833Y-84716000D01*
X65269071Y-84668380D01*
X63697642Y-88970380D02*
X63364309Y-88494190D01*
X63126214Y-88970380D02*
X63126214Y-87970380D01*
X63507166Y-87970380D01*
X63602404Y-88018000D01*
X63650023Y-88065619D01*
X63697642Y-88160857D01*
X63697642Y-88303714D01*
X63650023Y-88398952D01*
X63602404Y-88446571D01*
X63507166Y-88494190D01*
X63126214Y-88494190D01*
X64554785Y-88303714D02*
X64554785Y-88970380D01*
X64316690Y-87922761D02*
X64078595Y-88637047D01*
X64697642Y-88637047D01*
X65602404Y-88970380D02*
X65030976Y-88970380D01*
X65316690Y-88970380D02*
X65316690Y-87970380D01*
X65221452Y-88113238D01*
X65126214Y-88208476D01*
X65030976Y-88256095D01*
X63697642Y-92272380D02*
X63364309Y-91796190D01*
X63126214Y-92272380D02*
X63126214Y-91272380D01*
X63507166Y-91272380D01*
X63602404Y-91320000D01*
X63650023Y-91367619D01*
X63697642Y-91462857D01*
X63697642Y-91605714D01*
X63650023Y-91700952D01*
X63602404Y-91748571D01*
X63507166Y-91796190D01*
X63126214Y-91796190D01*
X64554785Y-91605714D02*
X64554785Y-92272380D01*
X64316690Y-91224761D02*
X64078595Y-91939047D01*
X64697642Y-91939047D01*
X65030976Y-91367619D02*
X65078595Y-91320000D01*
X65173833Y-91272380D01*
X65411928Y-91272380D01*
X65507166Y-91320000D01*
X65554785Y-91367619D01*
X65602404Y-91462857D01*
X65602404Y-91558095D01*
X65554785Y-91700952D01*
X64983357Y-92272380D01*
X65602404Y-92272380D01*
X63697642Y-95574380D02*
X63364309Y-95098190D01*
X63126214Y-95574380D02*
X63126214Y-94574380D01*
X63507166Y-94574380D01*
X63602404Y-94622000D01*
X63650023Y-94669619D01*
X63697642Y-94764857D01*
X63697642Y-94907714D01*
X63650023Y-95002952D01*
X63602404Y-95050571D01*
X63507166Y-95098190D01*
X63126214Y-95098190D01*
X64554785Y-94907714D02*
X64554785Y-95574380D01*
X64316690Y-94526761D02*
X64078595Y-95241047D01*
X64697642Y-95241047D01*
X64983357Y-94574380D02*
X65602404Y-94574380D01*
X65269071Y-94955333D01*
X65411928Y-94955333D01*
X65507166Y-95002952D01*
X65554785Y-95050571D01*
X65602404Y-95145809D01*
X65602404Y-95383904D01*
X65554785Y-95479142D01*
X65507166Y-95526761D01*
X65411928Y-95574380D01*
X65126214Y-95574380D01*
X65030976Y-95526761D01*
X64983357Y-95479142D01*
X63697642Y-98876380D02*
X63364309Y-98400190D01*
X63126214Y-98876380D02*
X63126214Y-97876380D01*
X63507166Y-97876380D01*
X63602404Y-97924000D01*
X63650023Y-97971619D01*
X63697642Y-98066857D01*
X63697642Y-98209714D01*
X63650023Y-98304952D01*
X63602404Y-98352571D01*
X63507166Y-98400190D01*
X63126214Y-98400190D01*
X64554785Y-98209714D02*
X64554785Y-98876380D01*
X64316690Y-97828761D02*
X64078595Y-98543047D01*
X64697642Y-98543047D01*
X65507166Y-98209714D02*
X65507166Y-98876380D01*
X65269071Y-97828761D02*
X65030976Y-98543047D01*
X65650023Y-98543047D01*
X63697642Y-102178380D02*
X63364309Y-101702190D01*
X63126214Y-102178380D02*
X63126214Y-101178380D01*
X63507166Y-101178380D01*
X63602404Y-101226000D01*
X63650023Y-101273619D01*
X63697642Y-101368857D01*
X63697642Y-101511714D01*
X63650023Y-101606952D01*
X63602404Y-101654571D01*
X63507166Y-101702190D01*
X63126214Y-101702190D01*
X64554785Y-101511714D02*
X64554785Y-102178380D01*
X64316690Y-101130761D02*
X64078595Y-101845047D01*
X64697642Y-101845047D01*
X65554785Y-101178380D02*
X65078595Y-101178380D01*
X65030976Y-101654571D01*
X65078595Y-101606952D01*
X65173833Y-101559333D01*
X65411928Y-101559333D01*
X65507166Y-101606952D01*
X65554785Y-101654571D01*
X65602404Y-101749809D01*
X65602404Y-101987904D01*
X65554785Y-102083142D01*
X65507166Y-102130761D01*
X65411928Y-102178380D01*
X65173833Y-102178380D01*
X65078595Y-102130761D01*
X65030976Y-102083142D01*
X82050095Y-58170380D02*
X82621523Y-58170380D01*
X82335809Y-59170380D02*
X82335809Y-58170380D01*
X82954857Y-59170380D02*
X82954857Y-58170380D01*
X83335809Y-58170380D01*
X83431047Y-58218000D01*
X83478666Y-58265619D01*
X83526285Y-58360857D01*
X83526285Y-58503714D01*
X83478666Y-58598952D01*
X83431047Y-58646571D01*
X83335809Y-58694190D01*
X82954857Y-58694190D01*
X84478666Y-59170380D02*
X83907238Y-59170380D01*
X84192952Y-59170380D02*
X84192952Y-58170380D01*
X84097714Y-58313238D01*
X84002476Y-58408476D01*
X83907238Y-58456095D01*
X107450095Y-57408380D02*
X108021523Y-57408380D01*
X107735809Y-58408380D02*
X107735809Y-57408380D01*
X108354857Y-58408380D02*
X108354857Y-57408380D01*
X108735809Y-57408380D01*
X108831047Y-57456000D01*
X108878666Y-57503619D01*
X108926285Y-57598857D01*
X108926285Y-57741714D01*
X108878666Y-57836952D01*
X108831047Y-57884571D01*
X108735809Y-57932190D01*
X108354857Y-57932190D01*
X109307238Y-57503619D02*
X109354857Y-57456000D01*
X109450095Y-57408380D01*
X109688190Y-57408380D01*
X109783428Y-57456000D01*
X109831047Y-57503619D01*
X109878666Y-57598857D01*
X109878666Y-57694095D01*
X109831047Y-57836952D01*
X109259619Y-58408380D01*
X109878666Y-58408380D01*
X98738095Y-52702380D02*
X99309523Y-52702380D01*
X99023809Y-53702380D02*
X99023809Y-52702380D01*
X99642857Y-53702380D02*
X99642857Y-52702380D01*
X100023809Y-52702380D01*
X100119047Y-52750000D01*
X100166666Y-52797619D01*
X100214285Y-52892857D01*
X100214285Y-53035714D01*
X100166666Y-53130952D01*
X100119047Y-53178571D01*
X100023809Y-53226190D01*
X99642857Y-53226190D01*
X100547619Y-52702380D02*
X101166666Y-52702380D01*
X100833333Y-53083333D01*
X100976190Y-53083333D01*
X101071428Y-53130952D01*
X101119047Y-53178571D01*
X101166666Y-53273809D01*
X101166666Y-53511904D01*
X101119047Y-53607142D01*
X101071428Y-53654761D01*
X100976190Y-53702380D01*
X100690476Y-53702380D01*
X100595238Y-53654761D01*
X100547619Y-53607142D01*
X92330095Y-66842880D02*
X92330095Y-67652404D01*
X92377714Y-67747642D01*
X92425333Y-67795261D01*
X92520571Y-67842880D01*
X92711047Y-67842880D01*
X92806285Y-67795261D01*
X92853904Y-67747642D01*
X92901523Y-67652404D01*
X92901523Y-66842880D01*
X93901523Y-67842880D02*
X93330095Y-67842880D01*
X93615809Y-67842880D02*
X93615809Y-66842880D01*
X93520571Y-66985738D01*
X93425333Y-67080976D01*
X93330095Y-67128595D01*
X101915935Y-89217430D02*
X101915935Y-90026954D01*
X101963554Y-90122192D01*
X102011173Y-90169811D01*
X102106411Y-90217430D01*
X102296887Y-90217430D01*
X102392125Y-90169811D01*
X102439744Y-90122192D01*
X102487363Y-90026954D01*
X102487363Y-89217430D01*
X102915935Y-89312669D02*
X102963554Y-89265050D01*
X103058792Y-89217430D01*
X103296887Y-89217430D01*
X103392125Y-89265050D01*
X103439744Y-89312669D01*
X103487363Y-89407907D01*
X103487363Y-89503145D01*
X103439744Y-89646002D01*
X102868316Y-90217430D01*
X103487363Y-90217430D01*
X65649380Y-69191333D02*
X66363666Y-69191333D01*
X66506523Y-69238952D01*
X66601761Y-69334190D01*
X66649380Y-69477047D01*
X66649380Y-69572285D01*
X65649380Y-68810380D02*
X65649380Y-68191333D01*
X66030333Y-68524666D01*
X66030333Y-68381809D01*
X66077952Y-68286571D01*
X66125571Y-68238952D01*
X66220809Y-68191333D01*
X66458904Y-68191333D01*
X66554142Y-68238952D01*
X66601761Y-68286571D01*
X66649380Y-68381809D01*
X66649380Y-68667523D01*
X66601761Y-68762761D01*
X66554142Y-68810380D01*
X65649380Y-92708833D02*
X66363666Y-92708833D01*
X66506523Y-92756452D01*
X66601761Y-92851690D01*
X66649380Y-92994547D01*
X66649380Y-93089785D01*
X65982714Y-91804071D02*
X66649380Y-91804071D01*
X65601761Y-92042166D02*
X66316047Y-92280261D01*
X66316047Y-91661214D01*
X101862380Y-112333333D02*
X102576666Y-112333333D01*
X102719523Y-112380952D01*
X102814761Y-112476190D01*
X102862380Y-112619047D01*
X102862380Y-112714285D01*
X101862380Y-111952380D02*
X101862380Y-111285714D01*
X102862380Y-111714285D01*
M02*
