M48
;DRILL file {KiCad (5.0.0)} date 02/02/19 21:11:39
;FORMAT={-:-/ absolute / inch / decimal}
FMAT,2
INCH,TZ
T1C0.0150
T2C0.0252
T3C0.0394
T4C0.0630
T5C0.0394
T6C0.1181
%
G90
G05
M72
T1
X2.48Y-3.6475
X2.515Y-3.47
X2.5925Y-4.365
X2.635Y-4.5625
X2.6625Y-4.66
X2.6975Y-4.7575
X2.73Y-4.8525
X2.7675Y-4.95
X2.815Y-5.03
X3.21Y-4.6375
X3.295Y-3.6775
X3.2975Y-3.56
X3.2975Y-4.3175
X3.3Y-3.825
X3.3Y-4.2175
X3.3025Y-3.4275
X3.3025Y-4.075
X3.3025Y-4.4425
X3.305Y-3.9425
X3.5025Y-3.5725
X3.5725Y-4.3425
X3.65Y-3.495
X3.6625Y-4.445
X3.6875Y-4.7175
X3.73Y-3.3725
X3.7402Y-4.06
X3.805Y-4.2975
X3.815Y-4.1398
X3.8233Y-3.9161
X3.8425Y-3.275
X3.85Y-4.6325
X3.915Y-4.1375
X3.95Y-4.7375
X3.9525Y-3.175
X4.07Y-4.84
X4.0827Y-3.9626
X4.115Y-3.755
X4.1375Y-4.3
X4.16Y-4.065
X4.215Y-4.9
X4.465Y-4.8
X4.475Y-4.925
X4.5Y-4.625
X4.6Y-4.545
X4.7925Y-4.555
X4.7925Y-4.925
X4.8Y-4.385
X4.915Y-3.8625
X4.945Y-3.74
X5.1189Y-3.38
X5.2133Y-3.4042
X5.23Y-3.105
X5.24Y-4.4425
X5.28Y-3.505
T2
X2.4643Y-3.4782
X2.4643Y-3.5971
X2.4643Y-3.7152
X2.4643Y-3.8333
X2.4643Y-3.9514
X2.4643Y-4.0695
X2.4643Y-4.1877
X2.4643Y-4.3058
X2.4643Y-4.4239
X2.4643Y-4.542
X2.5824Y-3.4782
X2.5824Y-3.5971
X2.5824Y-3.7152
X2.5824Y-3.8333
X2.5824Y-3.9514
X2.5824Y-4.0695
X2.5824Y-4.1877
X2.5824Y-4.3058
X2.5824Y-4.4239
X2.5824Y-4.542
X4.4222Y-3.111
X4.5404Y-3.111
T3
X5.0544Y-3.21
X5.0544Y-3.3281
X5.0544Y-3.4462
X5.0544Y-3.5643
X5.0544Y-3.6824
X5.0544Y-3.8006
X5.1725Y-3.21
X5.1725Y-3.3281
X5.1725Y-3.4462
X5.1725Y-3.5643
X5.1725Y-3.6824
X5.1725Y-3.8006
X5.0525Y-4.2032
X5.0525Y-4.3213
X5.0525Y-4.4394
X5.0525Y-4.5575
X5.0525Y-4.6756
X5.0525Y-4.7937
X5.1706Y-4.2032
X5.1706Y-4.3213
X5.1706Y-4.4394
X5.1706Y-4.5575
X5.1706Y-4.6756
X5.1706Y-4.7937
X4.4675Y-5.145
X4.5675Y-5.145
X4.6675Y-5.145
X4.7675Y-5.145
X4.8675Y-5.145
T4
X4.0342Y-5.1722
X3.855Y-5.1722
T5
X5.0174Y-3.0919
X5.0174Y-3.9187
X5.0155Y-4.0851
X5.0155Y-4.9118
T6
X2.2047Y-5.1969
X2.2942Y-3.5632
X2.2942Y-4.4569
X5.1969Y-2.874
X4.4813Y-2.9409
X2.2047Y-2.874
X5.1969Y-5.1969
T0
M30
