%TF.GenerationSoftware,KiCad,Pcbnew,(5.0.0)*%
%TF.CreationDate,2019-02-02T21:11:36-06:00*%
%TF.ProjectId,BPSTemperature,42505354656D70657261747572652E6B,rev?*%
%TF.SameCoordinates,Original*%
%TF.FileFunction,Soldermask,Bot*%
%TF.FilePolarity,Negative*%
%FSLAX46Y46*%
G04 Gerber Fmt 4.6, Leading zero omitted, Abs format (unit mm)*
G04 Created by KiCad (PCBNEW (5.0.0)) date 02/02/19 21:11:36*
%MOMM*%
%LPD*%
G01*
G04 APERTURE LIST*
%ADD10C,2.800000*%
%ADD11C,3.000000*%
%ADD12R,1.020000X1.020000*%
%ADD13C,1.020000*%
%ADD14R,1.700000X1.700000*%
%ADD15O,1.700000X1.700000*%
%ADD16C,1.500000*%
%ADD17R,1.500000X1.500000*%
%ADD18C,1.000000*%
%ADD19R,1.000000X1.000000*%
G04 APERTURE END LIST*
D10*
X102468001Y-131374501D03*
X97917000Y-131374501D03*
D11*
X58273000Y-113206500D03*
X58273000Y-90506500D03*
D12*
X62593000Y-115366500D03*
D13*
X62593000Y-88346500D03*
X62593000Y-112366500D03*
X62593000Y-109366500D03*
X62593000Y-106366500D03*
X62593000Y-103366500D03*
X62593000Y-100366500D03*
X62593000Y-97366500D03*
X62593000Y-94366500D03*
X62593000Y-91366500D03*
X65593000Y-91366500D03*
X65593000Y-97366500D03*
X65593000Y-94366500D03*
X65593000Y-100366500D03*
X65593000Y-88346500D03*
X65593000Y-106366500D03*
X65593000Y-103366500D03*
X65593000Y-109366500D03*
X65593000Y-112366500D03*
X65593000Y-115366500D03*
D14*
X113474500Y-130683000D03*
D15*
X116014500Y-130683000D03*
X118554500Y-130683000D03*
X121094500Y-130683000D03*
X123634500Y-130683000D03*
D16*
X128333500Y-121760500D03*
X128333500Y-118760500D03*
X128333500Y-115760500D03*
X128333500Y-112760500D03*
X128333500Y-109760500D03*
X128333500Y-106760500D03*
X131333500Y-121760500D03*
X131333500Y-118760500D03*
X131333500Y-115760500D03*
X131333500Y-112760500D03*
X131333500Y-109760500D03*
D17*
X131333500Y-106760500D03*
D18*
X127393500Y-124760500D03*
X127393500Y-103760500D03*
X127441500Y-78534000D03*
X127441500Y-99534000D03*
D17*
X131381500Y-81534000D03*
D16*
X131381500Y-84534000D03*
X131381500Y-87534000D03*
X131381500Y-90534000D03*
X131381500Y-93534000D03*
X131381500Y-96534000D03*
X128381500Y-81534000D03*
X128381500Y-84534000D03*
X128381500Y-87534000D03*
X128381500Y-90534000D03*
X128381500Y-93534000D03*
X128381500Y-96534000D03*
D11*
X56000000Y-73000000D03*
X56000000Y-132000000D03*
X132000000Y-132000000D03*
X132000000Y-73000000D03*
X113825000Y-74700000D03*
D19*
X115325000Y-79020000D03*
X112325000Y-79020000D03*
M02*
