%TF.GenerationSoftware,KiCad,Pcbnew,(5.0.0)*%
%TF.CreationDate,2019-02-02T21:11:36-06:00*%
%TF.ProjectId,BPSTemperature,42505354656D70657261747572652E6B,rev?*%
%TF.SameCoordinates,Original*%
%TF.FileFunction,Legend,Bot*%
%TF.FilePolarity,Positive*%
%FSLAX46Y46*%
G04 Gerber Fmt 4.6, Leading zero omitted, Abs format (unit mm)*
G04 Created by KiCad (PCBNEW (5.0.0)) date 02/02/19 21:11:36*
%MOMM*%
%LPD*%
G01*
G04 APERTURE LIST*
%ADD10C,0.300000*%
%ADD11C,0.150000*%
%ADD12C,0.200000*%
%ADD13C,0.010000*%
G04 APERTURE END LIST*
D10*
X91425000Y-119478571D02*
X91425000Y-117978571D01*
X91067857Y-117978571D01*
X90853571Y-118050000D01*
X90710714Y-118192857D01*
X90639285Y-118335714D01*
X90567857Y-118621428D01*
X90567857Y-118835714D01*
X90639285Y-119121428D01*
X90710714Y-119264285D01*
X90853571Y-119407142D01*
X91067857Y-119478571D01*
X91425000Y-119478571D01*
X89925000Y-119478571D02*
X89925000Y-118478571D01*
X89925000Y-118764285D02*
X89853571Y-118621428D01*
X89782142Y-118550000D01*
X89639285Y-118478571D01*
X89496428Y-118478571D01*
X88996428Y-119335714D02*
X88925000Y-119407142D01*
X88996428Y-119478571D01*
X89067857Y-119407142D01*
X88996428Y-119335714D01*
X88996428Y-119478571D01*
X86353571Y-118050000D02*
X86496428Y-117978571D01*
X86710714Y-117978571D01*
X86925000Y-118050000D01*
X87067857Y-118192857D01*
X87139285Y-118335714D01*
X87210714Y-118621428D01*
X87210714Y-118835714D01*
X87139285Y-119121428D01*
X87067857Y-119264285D01*
X86925000Y-119407142D01*
X86710714Y-119478571D01*
X86567857Y-119478571D01*
X86353571Y-119407142D01*
X86282142Y-119335714D01*
X86282142Y-118835714D01*
X86567857Y-118835714D01*
X84996428Y-119478571D02*
X84996428Y-118692857D01*
X85067857Y-118550000D01*
X85210714Y-118478571D01*
X85496428Y-118478571D01*
X85639285Y-118550000D01*
X84996428Y-119407142D02*
X85139285Y-119478571D01*
X85496428Y-119478571D01*
X85639285Y-119407142D01*
X85710714Y-119264285D01*
X85710714Y-119121428D01*
X85639285Y-118978571D01*
X85496428Y-118907142D01*
X85139285Y-118907142D01*
X84996428Y-118835714D01*
X84282142Y-119478571D02*
X84282142Y-118478571D01*
X84282142Y-118764285D02*
X84210714Y-118621428D01*
X84139285Y-118550000D01*
X83996428Y-118478571D01*
X83853571Y-118478571D01*
X83496428Y-118478571D02*
X83139285Y-119478571D01*
X82782142Y-118478571D02*
X83139285Y-119478571D01*
X83282142Y-119835714D01*
X83353571Y-119907142D01*
X83496428Y-119978571D01*
X81067857Y-119478571D02*
X81067857Y-117978571D01*
X81067857Y-118692857D02*
X80210714Y-118692857D01*
X80210714Y-119478571D02*
X80210714Y-117978571D01*
X78853571Y-119478571D02*
X78853571Y-118692857D01*
X78925000Y-118550000D01*
X79067857Y-118478571D01*
X79353571Y-118478571D01*
X79496428Y-118550000D01*
X78853571Y-119407142D02*
X78996428Y-119478571D01*
X79353571Y-119478571D01*
X79496428Y-119407142D01*
X79567857Y-119264285D01*
X79567857Y-119121428D01*
X79496428Y-118978571D01*
X79353571Y-118907142D01*
X78996428Y-118907142D01*
X78853571Y-118835714D01*
X77925000Y-119478571D02*
X78067857Y-119407142D01*
X78139285Y-119264285D01*
X78139285Y-117978571D01*
X77139285Y-119478571D02*
X77282142Y-119407142D01*
X77353571Y-119264285D01*
X77353571Y-117978571D01*
X76353571Y-119478571D02*
X76496428Y-119407142D01*
X76567857Y-119335714D01*
X76639285Y-119192857D01*
X76639285Y-118764285D01*
X76567857Y-118621428D01*
X76496428Y-118550000D01*
X76353571Y-118478571D01*
X76139285Y-118478571D01*
X75996428Y-118550000D01*
X75925000Y-118621428D01*
X75853571Y-118764285D01*
X75853571Y-119192857D01*
X75925000Y-119335714D01*
X75996428Y-119407142D01*
X76139285Y-119478571D01*
X76353571Y-119478571D01*
X74567857Y-119407142D02*
X74710714Y-119478571D01*
X74996428Y-119478571D01*
X75139285Y-119407142D01*
X75210714Y-119335714D01*
X75282142Y-119192857D01*
X75282142Y-118764285D01*
X75210714Y-118621428D01*
X75139285Y-118550000D01*
X74996428Y-118478571D01*
X74710714Y-118478571D01*
X74567857Y-118550000D01*
X73925000Y-119478571D02*
X73925000Y-117978571D01*
X73782142Y-118907142D02*
X73353571Y-119478571D01*
X73353571Y-118478571D02*
X73925000Y-119050000D01*
D11*
X132720000Y-94268095D02*
X132672380Y-94172857D01*
X132672380Y-94030000D01*
X132720000Y-93887142D01*
X132815238Y-93791904D01*
X132910476Y-93744285D01*
X133100952Y-93696666D01*
X133243809Y-93696666D01*
X133434285Y-93744285D01*
X133529523Y-93791904D01*
X133624761Y-93887142D01*
X133672380Y-94030000D01*
X133672380Y-94125238D01*
X133624761Y-94268095D01*
X133577142Y-94315714D01*
X133243809Y-94315714D01*
X133243809Y-94125238D01*
X133672380Y-94744285D02*
X132672380Y-94744285D01*
X133672380Y-95315714D01*
X132672380Y-95315714D01*
X133672380Y-95791904D02*
X132672380Y-95791904D01*
X132672380Y-96030000D01*
X132720000Y-96172857D01*
X132815238Y-96268095D01*
X132910476Y-96315714D01*
X133100952Y-96363333D01*
X133243809Y-96363333D01*
X133434285Y-96315714D01*
X133529523Y-96268095D01*
X133624761Y-96172857D01*
X133672380Y-96030000D01*
X133672380Y-95791904D01*
X133512380Y-89058571D02*
X132512380Y-89058571D01*
X133226666Y-89391904D01*
X132512380Y-89725238D01*
X133512380Y-89725238D01*
X133512380Y-90201428D02*
X132512380Y-90201428D01*
X133464761Y-90630000D02*
X133512380Y-90772857D01*
X133512380Y-91010952D01*
X133464761Y-91106190D01*
X133417142Y-91153809D01*
X133321904Y-91201428D01*
X133226666Y-91201428D01*
X133131428Y-91153809D01*
X133083809Y-91106190D01*
X133036190Y-91010952D01*
X132988571Y-90820476D01*
X132940952Y-90725238D01*
X132893333Y-90677619D01*
X132798095Y-90630000D01*
X132702857Y-90630000D01*
X132607619Y-90677619D01*
X132560000Y-90725238D01*
X132512380Y-90820476D01*
X132512380Y-91058571D01*
X132560000Y-91201428D01*
X132512380Y-91820476D02*
X132512380Y-92010952D01*
X132560000Y-92106190D01*
X132655238Y-92201428D01*
X132845714Y-92249047D01*
X133179047Y-92249047D01*
X133369523Y-92201428D01*
X133464761Y-92106190D01*
X133512380Y-92010952D01*
X133512380Y-91820476D01*
X133464761Y-91725238D01*
X133369523Y-91630000D01*
X133179047Y-91582380D01*
X132845714Y-91582380D01*
X132655238Y-91630000D01*
X132560000Y-91725238D01*
X132512380Y-91820476D01*
X126609523Y-87285714D02*
X126609523Y-87952380D01*
X126847619Y-86904761D02*
X127085714Y-87619047D01*
X126466666Y-87619047D01*
X126561904Y-83972380D02*
X127038095Y-83972380D01*
X127085714Y-84448571D01*
X127038095Y-84400952D01*
X126942857Y-84353333D01*
X126704761Y-84353333D01*
X126609523Y-84400952D01*
X126561904Y-84448571D01*
X126514285Y-84543809D01*
X126514285Y-84781904D01*
X126561904Y-84877142D01*
X126609523Y-84924761D01*
X126704761Y-84972380D01*
X126942857Y-84972380D01*
X127038095Y-84924761D01*
X127085714Y-84877142D01*
X133474761Y-83284285D02*
X133522380Y-83427142D01*
X133522380Y-83665238D01*
X133474761Y-83760476D01*
X133427142Y-83808095D01*
X133331904Y-83855714D01*
X133236666Y-83855714D01*
X133141428Y-83808095D01*
X133093809Y-83760476D01*
X133046190Y-83665238D01*
X132998571Y-83474761D01*
X132950952Y-83379523D01*
X132903333Y-83331904D01*
X132808095Y-83284285D01*
X132712857Y-83284285D01*
X132617619Y-83331904D01*
X132570000Y-83379523D01*
X132522380Y-83474761D01*
X132522380Y-83712857D01*
X132570000Y-83855714D01*
X133427142Y-84855714D02*
X133474761Y-84808095D01*
X133522380Y-84665238D01*
X133522380Y-84570000D01*
X133474761Y-84427142D01*
X133379523Y-84331904D01*
X133284285Y-84284285D01*
X133093809Y-84236666D01*
X132950952Y-84236666D01*
X132760476Y-84284285D01*
X132665238Y-84331904D01*
X132570000Y-84427142D01*
X132522380Y-84570000D01*
X132522380Y-84665238D01*
X132570000Y-84808095D01*
X132617619Y-84855714D01*
X133522380Y-85284285D02*
X132522380Y-85284285D01*
X133522380Y-85855714D02*
X132950952Y-85427142D01*
X132522380Y-85855714D02*
X133093809Y-85284285D01*
X127123333Y-89972380D02*
X126504285Y-89972380D01*
X126837619Y-90353333D01*
X126694761Y-90353333D01*
X126599523Y-90400952D01*
X126551904Y-90448571D01*
X126504285Y-90543809D01*
X126504285Y-90781904D01*
X126551904Y-90877142D01*
X126599523Y-90924761D01*
X126694761Y-90972380D01*
X126980476Y-90972380D01*
X127075714Y-90924761D01*
X127123333Y-90877142D01*
X134732380Y-85948571D02*
X133732380Y-85948571D01*
X134446666Y-86281904D01*
X133732380Y-86615238D01*
X134732380Y-86615238D01*
X133732380Y-87281904D02*
X133732380Y-87472380D01*
X133780000Y-87567619D01*
X133875238Y-87662857D01*
X134065714Y-87710476D01*
X134399047Y-87710476D01*
X134589523Y-87662857D01*
X134684761Y-87567619D01*
X134732380Y-87472380D01*
X134732380Y-87281904D01*
X134684761Y-87186666D01*
X134589523Y-87091428D01*
X134399047Y-87043809D01*
X134065714Y-87043809D01*
X133875238Y-87091428D01*
X133780000Y-87186666D01*
X133732380Y-87281904D01*
X134684761Y-88091428D02*
X134732380Y-88234285D01*
X134732380Y-88472380D01*
X134684761Y-88567619D01*
X134637142Y-88615238D01*
X134541904Y-88662857D01*
X134446666Y-88662857D01*
X134351428Y-88615238D01*
X134303809Y-88567619D01*
X134256190Y-88472380D01*
X134208571Y-88281904D01*
X134160952Y-88186666D01*
X134113333Y-88139047D01*
X134018095Y-88091428D01*
X133922857Y-88091428D01*
X133827619Y-88139047D01*
X133780000Y-88186666D01*
X133732380Y-88281904D01*
X133732380Y-88520000D01*
X133780000Y-88662857D01*
X134732380Y-89091428D02*
X133732380Y-89091428D01*
X126504285Y-96982380D02*
X127075714Y-96982380D01*
X126790000Y-96982380D02*
X126790000Y-95982380D01*
X126885238Y-96125238D01*
X126980476Y-96220476D01*
X127075714Y-96268095D01*
D12*
X132570000Y-87500000D02*
X133460000Y-87500000D01*
D11*
X127075714Y-93047619D02*
X127028095Y-93000000D01*
X126932857Y-92952380D01*
X126694761Y-92952380D01*
X126599523Y-93000000D01*
X126551904Y-93047619D01*
X126504285Y-93142857D01*
X126504285Y-93238095D01*
X126551904Y-93380952D01*
X127123333Y-93952380D01*
X126504285Y-93952380D01*
X126609523Y-80932380D02*
X126800000Y-80932380D01*
X126895238Y-80980000D01*
X126942857Y-81027619D01*
X127038095Y-81170476D01*
X127085714Y-81360952D01*
X127085714Y-81741904D01*
X127038095Y-81837142D01*
X126990476Y-81884761D01*
X126895238Y-81932380D01*
X126704761Y-81932380D01*
X126609523Y-81884761D01*
X126561904Y-81837142D01*
X126514285Y-81741904D01*
X126514285Y-81503809D01*
X126561904Y-81408571D01*
X126609523Y-81360952D01*
X126704761Y-81313333D01*
X126895238Y-81313333D01*
X126990476Y-81360952D01*
X127038095Y-81408571D01*
X127085714Y-81503809D01*
X132745714Y-79921428D02*
X131983809Y-79921428D01*
X132364761Y-80302380D02*
X132364761Y-79540476D01*
X131031428Y-79302380D02*
X131507619Y-79302380D01*
X131555238Y-79778571D01*
X131507619Y-79730952D01*
X131412380Y-79683333D01*
X131174285Y-79683333D01*
X131079047Y-79730952D01*
X131031428Y-79778571D01*
X130983809Y-79873809D01*
X130983809Y-80111904D01*
X131031428Y-80207142D01*
X131079047Y-80254761D01*
X131174285Y-80302380D01*
X131412380Y-80302380D01*
X131507619Y-80254761D01*
X131555238Y-80207142D01*
X130698095Y-79302380D02*
X130364761Y-80302380D01*
X130031428Y-79302380D01*
X132625714Y-105131428D02*
X131863809Y-105131428D01*
X132244761Y-105512380D02*
X132244761Y-104750476D01*
X130911428Y-104512380D02*
X131387619Y-104512380D01*
X131435238Y-104988571D01*
X131387619Y-104940952D01*
X131292380Y-104893333D01*
X131054285Y-104893333D01*
X130959047Y-104940952D01*
X130911428Y-104988571D01*
X130863809Y-105083809D01*
X130863809Y-105321904D01*
X130911428Y-105417142D01*
X130959047Y-105464761D01*
X131054285Y-105512380D01*
X131292380Y-105512380D01*
X131387619Y-105464761D01*
X131435238Y-105417142D01*
X130578095Y-104512380D02*
X130244761Y-105512380D01*
X129911428Y-104512380D01*
D12*
X132420000Y-112740000D02*
X133310000Y-112740000D01*
D11*
X133324761Y-108524285D02*
X133372380Y-108667142D01*
X133372380Y-108905238D01*
X133324761Y-109000476D01*
X133277142Y-109048095D01*
X133181904Y-109095714D01*
X133086666Y-109095714D01*
X132991428Y-109048095D01*
X132943809Y-109000476D01*
X132896190Y-108905238D01*
X132848571Y-108714761D01*
X132800952Y-108619523D01*
X132753333Y-108571904D01*
X132658095Y-108524285D01*
X132562857Y-108524285D01*
X132467619Y-108571904D01*
X132420000Y-108619523D01*
X132372380Y-108714761D01*
X132372380Y-108952857D01*
X132420000Y-109095714D01*
X133277142Y-110095714D02*
X133324761Y-110048095D01*
X133372380Y-109905238D01*
X133372380Y-109810000D01*
X133324761Y-109667142D01*
X133229523Y-109571904D01*
X133134285Y-109524285D01*
X132943809Y-109476666D01*
X132800952Y-109476666D01*
X132610476Y-109524285D01*
X132515238Y-109571904D01*
X132420000Y-109667142D01*
X132372380Y-109810000D01*
X132372380Y-109905238D01*
X132420000Y-110048095D01*
X132467619Y-110095714D01*
X133372380Y-110524285D02*
X132372380Y-110524285D01*
X133372380Y-111095714D02*
X132800952Y-110667142D01*
X132372380Y-111095714D02*
X132943809Y-110524285D01*
X134582380Y-111188571D02*
X133582380Y-111188571D01*
X134296666Y-111521904D01*
X133582380Y-111855238D01*
X134582380Y-111855238D01*
X133582380Y-112521904D02*
X133582380Y-112712380D01*
X133630000Y-112807619D01*
X133725238Y-112902857D01*
X133915714Y-112950476D01*
X134249047Y-112950476D01*
X134439523Y-112902857D01*
X134534761Y-112807619D01*
X134582380Y-112712380D01*
X134582380Y-112521904D01*
X134534761Y-112426666D01*
X134439523Y-112331428D01*
X134249047Y-112283809D01*
X133915714Y-112283809D01*
X133725238Y-112331428D01*
X133630000Y-112426666D01*
X133582380Y-112521904D01*
X134534761Y-113331428D02*
X134582380Y-113474285D01*
X134582380Y-113712380D01*
X134534761Y-113807619D01*
X134487142Y-113855238D01*
X134391904Y-113902857D01*
X134296666Y-113902857D01*
X134201428Y-113855238D01*
X134153809Y-113807619D01*
X134106190Y-113712380D01*
X134058571Y-113521904D01*
X134010952Y-113426666D01*
X133963333Y-113379047D01*
X133868095Y-113331428D01*
X133772857Y-113331428D01*
X133677619Y-113379047D01*
X133630000Y-113426666D01*
X133582380Y-113521904D01*
X133582380Y-113760000D01*
X133630000Y-113902857D01*
X134582380Y-114331428D02*
X133582380Y-114331428D01*
X133362380Y-114298571D02*
X132362380Y-114298571D01*
X133076666Y-114631904D01*
X132362380Y-114965238D01*
X133362380Y-114965238D01*
X133362380Y-115441428D02*
X132362380Y-115441428D01*
X133314761Y-115870000D02*
X133362380Y-116012857D01*
X133362380Y-116250952D01*
X133314761Y-116346190D01*
X133267142Y-116393809D01*
X133171904Y-116441428D01*
X133076666Y-116441428D01*
X132981428Y-116393809D01*
X132933809Y-116346190D01*
X132886190Y-116250952D01*
X132838571Y-116060476D01*
X132790952Y-115965238D01*
X132743333Y-115917619D01*
X132648095Y-115870000D01*
X132552857Y-115870000D01*
X132457619Y-115917619D01*
X132410000Y-115965238D01*
X132362380Y-116060476D01*
X132362380Y-116298571D01*
X132410000Y-116441428D01*
X132362380Y-117060476D02*
X132362380Y-117250952D01*
X132410000Y-117346190D01*
X132505238Y-117441428D01*
X132695714Y-117489047D01*
X133029047Y-117489047D01*
X133219523Y-117441428D01*
X133314761Y-117346190D01*
X133362380Y-117250952D01*
X133362380Y-117060476D01*
X133314761Y-116965238D01*
X133219523Y-116870000D01*
X133029047Y-116822380D01*
X132695714Y-116822380D01*
X132505238Y-116870000D01*
X132410000Y-116965238D01*
X132362380Y-117060476D01*
X132570000Y-119508095D02*
X132522380Y-119412857D01*
X132522380Y-119270000D01*
X132570000Y-119127142D01*
X132665238Y-119031904D01*
X132760476Y-118984285D01*
X132950952Y-118936666D01*
X133093809Y-118936666D01*
X133284285Y-118984285D01*
X133379523Y-119031904D01*
X133474761Y-119127142D01*
X133522380Y-119270000D01*
X133522380Y-119365238D01*
X133474761Y-119508095D01*
X133427142Y-119555714D01*
X133093809Y-119555714D01*
X133093809Y-119365238D01*
X133522380Y-119984285D02*
X132522380Y-119984285D01*
X133522380Y-120555714D01*
X132522380Y-120555714D01*
X133522380Y-121031904D02*
X132522380Y-121031904D01*
X132522380Y-121270000D01*
X132570000Y-121412857D01*
X132665238Y-121508095D01*
X132760476Y-121555714D01*
X132950952Y-121603333D01*
X133093809Y-121603333D01*
X133284285Y-121555714D01*
X133379523Y-121508095D01*
X133474761Y-121412857D01*
X133522380Y-121270000D01*
X133522380Y-121031904D01*
X126459523Y-106172380D02*
X126650000Y-106172380D01*
X126745238Y-106220000D01*
X126792857Y-106267619D01*
X126888095Y-106410476D01*
X126935714Y-106600952D01*
X126935714Y-106981904D01*
X126888095Y-107077142D01*
X126840476Y-107124761D01*
X126745238Y-107172380D01*
X126554761Y-107172380D01*
X126459523Y-107124761D01*
X126411904Y-107077142D01*
X126364285Y-106981904D01*
X126364285Y-106743809D01*
X126411904Y-106648571D01*
X126459523Y-106600952D01*
X126554761Y-106553333D01*
X126745238Y-106553333D01*
X126840476Y-106600952D01*
X126888095Y-106648571D01*
X126935714Y-106743809D01*
X126411904Y-109212380D02*
X126888095Y-109212380D01*
X126935714Y-109688571D01*
X126888095Y-109640952D01*
X126792857Y-109593333D01*
X126554761Y-109593333D01*
X126459523Y-109640952D01*
X126411904Y-109688571D01*
X126364285Y-109783809D01*
X126364285Y-110021904D01*
X126411904Y-110117142D01*
X126459523Y-110164761D01*
X126554761Y-110212380D01*
X126792857Y-110212380D01*
X126888095Y-110164761D01*
X126935714Y-110117142D01*
X126459523Y-112525714D02*
X126459523Y-113192380D01*
X126697619Y-112144761D02*
X126935714Y-112859047D01*
X126316666Y-112859047D01*
X126973333Y-115212380D02*
X126354285Y-115212380D01*
X126687619Y-115593333D01*
X126544761Y-115593333D01*
X126449523Y-115640952D01*
X126401904Y-115688571D01*
X126354285Y-115783809D01*
X126354285Y-116021904D01*
X126401904Y-116117142D01*
X126449523Y-116164761D01*
X126544761Y-116212380D01*
X126830476Y-116212380D01*
X126925714Y-116164761D01*
X126973333Y-116117142D01*
X126925714Y-118287619D02*
X126878095Y-118240000D01*
X126782857Y-118192380D01*
X126544761Y-118192380D01*
X126449523Y-118240000D01*
X126401904Y-118287619D01*
X126354285Y-118382857D01*
X126354285Y-118478095D01*
X126401904Y-118620952D01*
X126973333Y-119192380D01*
X126354285Y-119192380D01*
X126354285Y-122222380D02*
X126925714Y-122222380D01*
X126640000Y-122222380D02*
X126640000Y-121222380D01*
X126735238Y-121365238D01*
X126830476Y-121460476D01*
X126925714Y-121508095D01*
D10*
X120819285Y-91582142D02*
X120605000Y-91653571D01*
X120247857Y-91653571D01*
X120105000Y-91582142D01*
X120033571Y-91510714D01*
X119962142Y-91367857D01*
X119962142Y-91225000D01*
X120033571Y-91082142D01*
X120105000Y-91010714D01*
X120247857Y-90939285D01*
X120533571Y-90867857D01*
X120676428Y-90796428D01*
X120747857Y-90725000D01*
X120819285Y-90582142D01*
X120819285Y-90439285D01*
X120747857Y-90296428D01*
X120676428Y-90225000D01*
X120533571Y-90153571D01*
X120176428Y-90153571D01*
X119962142Y-90225000D01*
X119319285Y-90653571D02*
X119319285Y-92153571D01*
X119319285Y-90725000D02*
X119176428Y-90653571D01*
X118890714Y-90653571D01*
X118747857Y-90725000D01*
X118676428Y-90796428D01*
X118605000Y-90939285D01*
X118605000Y-91367857D01*
X118676428Y-91510714D01*
X118747857Y-91582142D01*
X118890714Y-91653571D01*
X119176428Y-91653571D01*
X119319285Y-91582142D01*
X117962142Y-91653571D02*
X117962142Y-90653571D01*
X117962142Y-90939285D02*
X117890714Y-90796428D01*
X117819285Y-90725000D01*
X117676428Y-90653571D01*
X117533571Y-90653571D01*
X117033571Y-91653571D02*
X117033571Y-90653571D01*
X117033571Y-90153571D02*
X117105000Y-90225000D01*
X117033571Y-90296428D01*
X116962142Y-90225000D01*
X117033571Y-90153571D01*
X117033571Y-90296428D01*
X116319285Y-90653571D02*
X116319285Y-91653571D01*
X116319285Y-90796428D02*
X116247857Y-90725000D01*
X116105000Y-90653571D01*
X115890714Y-90653571D01*
X115747857Y-90725000D01*
X115676428Y-90867857D01*
X115676428Y-91653571D01*
X114319285Y-90653571D02*
X114319285Y-91867857D01*
X114390714Y-92010714D01*
X114462142Y-92082142D01*
X114605000Y-92153571D01*
X114819285Y-92153571D01*
X114962142Y-92082142D01*
X114319285Y-91582142D02*
X114462142Y-91653571D01*
X114747857Y-91653571D01*
X114890714Y-91582142D01*
X114962142Y-91510714D01*
X115033571Y-91367857D01*
X115033571Y-90939285D01*
X114962142Y-90796428D01*
X114890714Y-90725000D01*
X114747857Y-90653571D01*
X114462142Y-90653571D01*
X114319285Y-90725000D01*
X112533571Y-90296428D02*
X112462142Y-90225000D01*
X112319285Y-90153571D01*
X111962142Y-90153571D01*
X111819285Y-90225000D01*
X111747857Y-90296428D01*
X111676428Y-90439285D01*
X111676428Y-90582142D01*
X111747857Y-90796428D01*
X112605000Y-91653571D01*
X111676428Y-91653571D01*
X110747857Y-90153571D02*
X110605000Y-90153571D01*
X110462142Y-90225000D01*
X110390714Y-90296428D01*
X110319285Y-90439285D01*
X110247857Y-90725000D01*
X110247857Y-91082142D01*
X110319285Y-91367857D01*
X110390714Y-91510714D01*
X110462142Y-91582142D01*
X110605000Y-91653571D01*
X110747857Y-91653571D01*
X110890714Y-91582142D01*
X110962142Y-91510714D01*
X111033571Y-91367857D01*
X111105000Y-91082142D01*
X111105000Y-90725000D01*
X111033571Y-90439285D01*
X110962142Y-90296428D01*
X110890714Y-90225000D01*
X110747857Y-90153571D01*
X108819285Y-91653571D02*
X109676428Y-91653571D01*
X109247857Y-91653571D02*
X109247857Y-90153571D01*
X109390714Y-90367857D01*
X109533571Y-90510714D01*
X109676428Y-90582142D01*
X108105000Y-91653571D02*
X107819285Y-91653571D01*
X107676428Y-91582142D01*
X107605000Y-91510714D01*
X107462142Y-91296428D01*
X107390714Y-91010714D01*
X107390714Y-90439285D01*
X107462142Y-90296428D01*
X107533571Y-90225000D01*
X107676428Y-90153571D01*
X107962142Y-90153571D01*
X108105000Y-90225000D01*
X108176428Y-90296428D01*
X108247857Y-90439285D01*
X108247857Y-90796428D01*
X108176428Y-90939285D01*
X108105000Y-91010714D01*
X107962142Y-91082142D01*
X107676428Y-91082142D01*
X107533571Y-91010714D01*
X107462142Y-90939285D01*
X107390714Y-90796428D01*
X106747857Y-91510714D02*
X106676428Y-91582142D01*
X106747857Y-91653571D01*
X106819285Y-91582142D01*
X106747857Y-91510714D01*
X106747857Y-91653571D01*
X106747857Y-90725000D02*
X106676428Y-90796428D01*
X106747857Y-90867857D01*
X106819285Y-90796428D01*
X106747857Y-90725000D01*
X106747857Y-90867857D01*
X120747857Y-94203571D02*
X120747857Y-92703571D01*
X120247857Y-93775000D01*
X119747857Y-92703571D01*
X119747857Y-94203571D01*
X118819285Y-94203571D02*
X118962142Y-94132142D01*
X119033571Y-94060714D01*
X119105000Y-93917857D01*
X119105000Y-93489285D01*
X119033571Y-93346428D01*
X118962142Y-93275000D01*
X118819285Y-93203571D01*
X118605000Y-93203571D01*
X118462142Y-93275000D01*
X118390714Y-93346428D01*
X118319285Y-93489285D01*
X118319285Y-93917857D01*
X118390714Y-94060714D01*
X118462142Y-94132142D01*
X118605000Y-94203571D01*
X118819285Y-94203571D01*
X117676428Y-93203571D02*
X117676428Y-94203571D01*
X117676428Y-93346428D02*
X117605000Y-93275000D01*
X117462142Y-93203571D01*
X117247857Y-93203571D01*
X117105000Y-93275000D01*
X117033571Y-93417857D01*
X117033571Y-94203571D01*
X116105000Y-94203571D02*
X116247857Y-94132142D01*
X116319285Y-94060714D01*
X116390714Y-93917857D01*
X116390714Y-93489285D01*
X116319285Y-93346428D01*
X116247857Y-93275000D01*
X116105000Y-93203571D01*
X115890714Y-93203571D01*
X115747857Y-93275000D01*
X115676428Y-93346428D01*
X115605000Y-93489285D01*
X115605000Y-93917857D01*
X115676428Y-94060714D01*
X115747857Y-94132142D01*
X115890714Y-94203571D01*
X116105000Y-94203571D01*
X114747857Y-94203571D02*
X114890714Y-94132142D01*
X114962142Y-93989285D01*
X114962142Y-92703571D01*
X113962142Y-94203571D02*
X114105000Y-94132142D01*
X114176428Y-94060714D01*
X114247857Y-93917857D01*
X114247857Y-93489285D01*
X114176428Y-93346428D01*
X114105000Y-93275000D01*
X113962142Y-93203571D01*
X113747857Y-93203571D01*
X113605000Y-93275000D01*
X113533571Y-93346428D01*
X113462142Y-93489285D01*
X113462142Y-93917857D01*
X113533571Y-94060714D01*
X113605000Y-94132142D01*
X113747857Y-94203571D01*
X113962142Y-94203571D01*
X111747857Y-93775000D02*
X111033571Y-93775000D01*
X111890714Y-94203571D02*
X111390714Y-92703571D01*
X110890714Y-94203571D01*
X110176428Y-94203571D02*
X110319285Y-94132142D01*
X110390714Y-93989285D01*
X110390714Y-92703571D01*
X109747857Y-93203571D02*
X109390714Y-94203571D01*
X109033571Y-93203571D01*
X107819285Y-94203571D02*
X107819285Y-93417857D01*
X107890714Y-93275000D01*
X108033571Y-93203571D01*
X108319285Y-93203571D01*
X108462142Y-93275000D01*
X107819285Y-94132142D02*
X107962142Y-94203571D01*
X108319285Y-94203571D01*
X108462142Y-94132142D01*
X108533571Y-93989285D01*
X108533571Y-93846428D01*
X108462142Y-93703571D01*
X108319285Y-93632142D01*
X107962142Y-93632142D01*
X107819285Y-93560714D01*
X107105000Y-94203571D02*
X107105000Y-93203571D01*
X107105000Y-93489285D02*
X107033571Y-93346428D01*
X106962142Y-93275000D01*
X106819285Y-93203571D01*
X106676428Y-93203571D01*
X105605000Y-94132142D02*
X105747857Y-94203571D01*
X106033571Y-94203571D01*
X106176428Y-94132142D01*
X106247857Y-93989285D01*
X106247857Y-93417857D01*
X106176428Y-93275000D01*
X106033571Y-93203571D01*
X105747857Y-93203571D01*
X105605000Y-93275000D01*
X105533571Y-93417857D01*
X105533571Y-93560714D01*
X106247857Y-93703571D01*
X105033571Y-93203571D02*
X104247857Y-93203571D01*
X105033571Y-94203571D01*
X104247857Y-94203571D01*
X119890714Y-96610714D02*
X119962142Y-96682142D01*
X120176428Y-96753571D01*
X120319285Y-96753571D01*
X120533571Y-96682142D01*
X120676428Y-96539285D01*
X120747857Y-96396428D01*
X120819285Y-96110714D01*
X120819285Y-95896428D01*
X120747857Y-95610714D01*
X120676428Y-95467857D01*
X120533571Y-95325000D01*
X120319285Y-95253571D01*
X120176428Y-95253571D01*
X119962142Y-95325000D01*
X119890714Y-95396428D01*
X119247857Y-96753571D02*
X119247857Y-95253571D01*
X118605000Y-96753571D02*
X118605000Y-95967857D01*
X118676428Y-95825000D01*
X118819285Y-95753571D01*
X119033571Y-95753571D01*
X119176428Y-95825000D01*
X119247857Y-95896428D01*
X117247857Y-96753571D02*
X117247857Y-95967857D01*
X117319285Y-95825000D01*
X117462142Y-95753571D01*
X117747857Y-95753571D01*
X117890714Y-95825000D01*
X117247857Y-96682142D02*
X117390714Y-96753571D01*
X117747857Y-96753571D01*
X117890714Y-96682142D01*
X117962142Y-96539285D01*
X117962142Y-96396428D01*
X117890714Y-96253571D01*
X117747857Y-96182142D01*
X117390714Y-96182142D01*
X117247857Y-96110714D01*
X116605000Y-96682142D02*
X116462142Y-96753571D01*
X116176428Y-96753571D01*
X116033571Y-96682142D01*
X115962142Y-96539285D01*
X115962142Y-96467857D01*
X116033571Y-96325000D01*
X116176428Y-96253571D01*
X116390714Y-96253571D01*
X116533571Y-96182142D01*
X116605000Y-96039285D01*
X116605000Y-95967857D01*
X116533571Y-95825000D01*
X116390714Y-95753571D01*
X116176428Y-95753571D01*
X116033571Y-95825000D01*
X114747857Y-96682142D02*
X114890714Y-96753571D01*
X115176428Y-96753571D01*
X115319285Y-96682142D01*
X115390714Y-96539285D01*
X115390714Y-95967857D01*
X115319285Y-95825000D01*
X115176428Y-95753571D01*
X114890714Y-95753571D01*
X114747857Y-95825000D01*
X114676428Y-95967857D01*
X114676428Y-96110714D01*
X115390714Y-96253571D01*
X112390714Y-95967857D02*
X112176428Y-96039285D01*
X112105000Y-96110714D01*
X112033571Y-96253571D01*
X112033571Y-96467857D01*
X112105000Y-96610714D01*
X112176428Y-96682142D01*
X112319285Y-96753571D01*
X112890714Y-96753571D01*
X112890714Y-95253571D01*
X112390714Y-95253571D01*
X112247857Y-95325000D01*
X112176428Y-95396428D01*
X112105000Y-95539285D01*
X112105000Y-95682142D01*
X112176428Y-95825000D01*
X112247857Y-95896428D01*
X112390714Y-95967857D01*
X112890714Y-95967857D01*
X111176428Y-96753571D02*
X111319285Y-96682142D01*
X111390714Y-96539285D01*
X111390714Y-95253571D01*
X110390714Y-96753571D02*
X110533571Y-96682142D01*
X110605000Y-96610714D01*
X110676428Y-96467857D01*
X110676428Y-96039285D01*
X110605000Y-95896428D01*
X110533571Y-95825000D01*
X110390714Y-95753571D01*
X110176428Y-95753571D01*
X110033571Y-95825000D01*
X109962142Y-95896428D01*
X109890714Y-96039285D01*
X109890714Y-96467857D01*
X109962142Y-96610714D01*
X110033571Y-96682142D01*
X110176428Y-96753571D01*
X110390714Y-96753571D01*
X108605000Y-96682142D02*
X108747857Y-96753571D01*
X109033571Y-96753571D01*
X109176428Y-96682142D01*
X109247857Y-96610714D01*
X109319285Y-96467857D01*
X109319285Y-96039285D01*
X109247857Y-95896428D01*
X109176428Y-95825000D01*
X109033571Y-95753571D01*
X108747857Y-95753571D01*
X108605000Y-95825000D01*
X107962142Y-96753571D02*
X107962142Y-95253571D01*
X107819285Y-96182142D02*
X107390714Y-96753571D01*
X107390714Y-95753571D02*
X107962142Y-96325000D01*
X119890714Y-99160714D02*
X119962142Y-99232142D01*
X120176428Y-99303571D01*
X120319285Y-99303571D01*
X120533571Y-99232142D01*
X120676428Y-99089285D01*
X120747857Y-98946428D01*
X120819285Y-98660714D01*
X120819285Y-98446428D01*
X120747857Y-98160714D01*
X120676428Y-98017857D01*
X120533571Y-97875000D01*
X120319285Y-97803571D01*
X120176428Y-97803571D01*
X119962142Y-97875000D01*
X119890714Y-97946428D01*
X119033571Y-99303571D02*
X119176428Y-99232142D01*
X119247857Y-99160714D01*
X119319285Y-99017857D01*
X119319285Y-98589285D01*
X119247857Y-98446428D01*
X119176428Y-98375000D01*
X119033571Y-98303571D01*
X118819285Y-98303571D01*
X118676428Y-98375000D01*
X118605000Y-98446428D01*
X118533571Y-98589285D01*
X118533571Y-99017857D01*
X118605000Y-99160714D01*
X118676428Y-99232142D01*
X118819285Y-99303571D01*
X119033571Y-99303571D01*
X117890714Y-99303571D02*
X117890714Y-98303571D01*
X117890714Y-98589285D02*
X117819285Y-98446428D01*
X117747857Y-98375000D01*
X117605000Y-98303571D01*
X117462142Y-98303571D01*
X116962142Y-99303571D02*
X116962142Y-97803571D01*
X116962142Y-98375000D02*
X116819285Y-98303571D01*
X116533571Y-98303571D01*
X116390714Y-98375000D01*
X116319285Y-98446428D01*
X116247857Y-98589285D01*
X116247857Y-99017857D01*
X116319285Y-99160714D01*
X116390714Y-99232142D01*
X116533571Y-99303571D01*
X116819285Y-99303571D01*
X116962142Y-99232142D01*
X115605000Y-99303571D02*
X115605000Y-98303571D01*
X115605000Y-97803571D02*
X115676428Y-97875000D01*
X115605000Y-97946428D01*
X115533571Y-97875000D01*
X115605000Y-97803571D01*
X115605000Y-97946428D01*
X114890714Y-98303571D02*
X114890714Y-99303571D01*
X114890714Y-98446428D02*
X114819285Y-98375000D01*
X114676428Y-98303571D01*
X114462142Y-98303571D01*
X114319285Y-98375000D01*
X114247857Y-98517857D01*
X114247857Y-99303571D01*
X111533571Y-99160714D02*
X111605000Y-99232142D01*
X111819285Y-99303571D01*
X111962142Y-99303571D01*
X112176428Y-99232142D01*
X112319285Y-99089285D01*
X112390714Y-98946428D01*
X112462142Y-98660714D01*
X112462142Y-98446428D01*
X112390714Y-98160714D01*
X112319285Y-98017857D01*
X112176428Y-97875000D01*
X111962142Y-97803571D01*
X111819285Y-97803571D01*
X111605000Y-97875000D01*
X111533571Y-97946428D01*
X110247857Y-99303571D02*
X110247857Y-98517857D01*
X110319285Y-98375000D01*
X110462142Y-98303571D01*
X110747857Y-98303571D01*
X110890714Y-98375000D01*
X110247857Y-99232142D02*
X110390714Y-99303571D01*
X110747857Y-99303571D01*
X110890714Y-99232142D01*
X110962142Y-99089285D01*
X110962142Y-98946428D01*
X110890714Y-98803571D01*
X110747857Y-98732142D01*
X110390714Y-98732142D01*
X110247857Y-98660714D01*
X109533571Y-98303571D02*
X109533571Y-99803571D01*
X109533571Y-98375000D02*
X109390714Y-98303571D01*
X109105000Y-98303571D01*
X108962142Y-98375000D01*
X108890714Y-98446428D01*
X108819285Y-98589285D01*
X108819285Y-99017857D01*
X108890714Y-99160714D01*
X108962142Y-99232142D01*
X109105000Y-99303571D01*
X109390714Y-99303571D01*
X109533571Y-99232142D01*
X107962142Y-99303571D02*
X108105000Y-99232142D01*
X108176428Y-99160714D01*
X108247857Y-99017857D01*
X108247857Y-98589285D01*
X108176428Y-98446428D01*
X108105000Y-98375000D01*
X107962142Y-98303571D01*
X107747857Y-98303571D01*
X107605000Y-98375000D01*
X107533571Y-98446428D01*
X107462142Y-98589285D01*
X107462142Y-99017857D01*
X107533571Y-99160714D01*
X107605000Y-99232142D01*
X107747857Y-99303571D01*
X107962142Y-99303571D01*
X119890714Y-101853571D02*
X120390714Y-101139285D01*
X120747857Y-101853571D02*
X120747857Y-100353571D01*
X120176428Y-100353571D01*
X120033571Y-100425000D01*
X119962142Y-100496428D01*
X119890714Y-100639285D01*
X119890714Y-100853571D01*
X119962142Y-100996428D01*
X120033571Y-101067857D01*
X120176428Y-101139285D01*
X120747857Y-101139285D01*
X119247857Y-101853571D02*
X119247857Y-100853571D01*
X119247857Y-100353571D02*
X119319285Y-100425000D01*
X119247857Y-100496428D01*
X119176428Y-100425000D01*
X119247857Y-100353571D01*
X119247857Y-100496428D01*
X117890714Y-101782142D02*
X118033571Y-101853571D01*
X118319285Y-101853571D01*
X118462142Y-101782142D01*
X118533571Y-101710714D01*
X118605000Y-101567857D01*
X118605000Y-101139285D01*
X118533571Y-100996428D01*
X118462142Y-100925000D01*
X118319285Y-100853571D01*
X118033571Y-100853571D01*
X117890714Y-100925000D01*
X117247857Y-101853571D02*
X117247857Y-100353571D01*
X116605000Y-101853571D02*
X116605000Y-101067857D01*
X116676428Y-100925000D01*
X116819285Y-100853571D01*
X117033571Y-100853571D01*
X117176428Y-100925000D01*
X117247857Y-100996428D01*
X115247857Y-101853571D02*
X115247857Y-101067857D01*
X115319285Y-100925000D01*
X115462142Y-100853571D01*
X115747857Y-100853571D01*
X115890714Y-100925000D01*
X115247857Y-101782142D02*
X115390714Y-101853571D01*
X115747857Y-101853571D01*
X115890714Y-101782142D01*
X115962142Y-101639285D01*
X115962142Y-101496428D01*
X115890714Y-101353571D01*
X115747857Y-101282142D01*
X115390714Y-101282142D01*
X115247857Y-101210714D01*
X114533571Y-101853571D02*
X114533571Y-100853571D01*
X114533571Y-101139285D02*
X114462142Y-100996428D01*
X114390714Y-100925000D01*
X114247857Y-100853571D01*
X114105000Y-100853571D01*
X112962142Y-101853571D02*
X112962142Y-100353571D01*
X112962142Y-101782142D02*
X113105000Y-101853571D01*
X113390714Y-101853571D01*
X113533571Y-101782142D01*
X113605000Y-101710714D01*
X113676428Y-101567857D01*
X113676428Y-101139285D01*
X113605000Y-100996428D01*
X113533571Y-100925000D01*
X113390714Y-100853571D01*
X113105000Y-100853571D01*
X112962142Y-100925000D01*
X110390714Y-101853571D02*
X111105000Y-101853571D01*
X111105000Y-100353571D01*
X109890714Y-101853571D02*
X109890714Y-100853571D01*
X109890714Y-100353571D02*
X109962142Y-100425000D01*
X109890714Y-100496428D01*
X109819285Y-100425000D01*
X109890714Y-100353571D01*
X109890714Y-100496428D01*
X120819285Y-103975000D02*
X120105000Y-103975000D01*
X120962142Y-104403571D02*
X120462142Y-102903571D01*
X119962142Y-104403571D01*
X118819285Y-103403571D02*
X118819285Y-104403571D01*
X119462142Y-103403571D02*
X119462142Y-104189285D01*
X119390714Y-104332142D01*
X119247857Y-104403571D01*
X119033571Y-104403571D01*
X118890714Y-104332142D01*
X118819285Y-104260714D01*
X118176428Y-104332142D02*
X118033571Y-104403571D01*
X117747857Y-104403571D01*
X117605000Y-104332142D01*
X117533571Y-104189285D01*
X117533571Y-104117857D01*
X117605000Y-103975000D01*
X117747857Y-103903571D01*
X117962142Y-103903571D01*
X118105000Y-103832142D01*
X118176428Y-103689285D01*
X118176428Y-103617857D01*
X118105000Y-103475000D01*
X117962142Y-103403571D01*
X117747857Y-103403571D01*
X117605000Y-103475000D01*
X117105000Y-103403571D02*
X116533571Y-103403571D01*
X116890714Y-102903571D02*
X116890714Y-104189285D01*
X116819285Y-104332142D01*
X116676428Y-104403571D01*
X116533571Y-104403571D01*
X116033571Y-104403571D02*
X116033571Y-103403571D01*
X116033571Y-102903571D02*
X116105000Y-102975000D01*
X116033571Y-103046428D01*
X115962142Y-102975000D01*
X116033571Y-102903571D01*
X116033571Y-103046428D01*
X115319285Y-103403571D02*
X115319285Y-104403571D01*
X115319285Y-103546428D02*
X115247857Y-103475000D01*
X115105000Y-103403571D01*
X114890714Y-103403571D01*
X114747857Y-103475000D01*
X114676428Y-103617857D01*
X114676428Y-104403571D01*
X113033571Y-102903571D02*
X112176428Y-102903571D01*
X112605000Y-104403571D02*
X112605000Y-102903571D01*
X111747857Y-104332142D02*
X111605000Y-104403571D01*
X111319285Y-104403571D01*
X111176428Y-104332142D01*
X111105000Y-104189285D01*
X111105000Y-104117857D01*
X111176428Y-103975000D01*
X111319285Y-103903571D01*
X111533571Y-103903571D01*
X111676428Y-103832142D01*
X111747857Y-103689285D01*
X111747857Y-103617857D01*
X111676428Y-103475000D01*
X111533571Y-103403571D01*
X111319285Y-103403571D01*
X111176428Y-103475000D01*
X109819285Y-104403571D02*
X109819285Y-103617857D01*
X109890714Y-103475000D01*
X110033571Y-103403571D01*
X110319285Y-103403571D01*
X110462142Y-103475000D01*
X109819285Y-104332142D02*
X109962142Y-104403571D01*
X110319285Y-104403571D01*
X110462142Y-104332142D01*
X110533571Y-104189285D01*
X110533571Y-104046428D01*
X110462142Y-103903571D01*
X110319285Y-103832142D01*
X109962142Y-103832142D01*
X109819285Y-103760714D01*
X108890714Y-104403571D02*
X109033571Y-104332142D01*
X109105000Y-104260714D01*
X109176428Y-104117857D01*
X109176428Y-103689285D01*
X109105000Y-103546428D01*
X109033571Y-103475000D01*
X108890714Y-103403571D01*
X108676428Y-103403571D01*
X108533571Y-103475000D01*
X108462142Y-103546428D01*
X108390714Y-103689285D01*
X108390714Y-104117857D01*
X108462142Y-104260714D01*
X108533571Y-104332142D01*
X108676428Y-104403571D01*
X108890714Y-104403571D01*
X119962142Y-105525000D02*
X120105000Y-105453571D01*
X120319285Y-105453571D01*
X120533571Y-105525000D01*
X120676428Y-105667857D01*
X120747857Y-105810714D01*
X120819285Y-106096428D01*
X120819285Y-106310714D01*
X120747857Y-106596428D01*
X120676428Y-106739285D01*
X120533571Y-106882142D01*
X120319285Y-106953571D01*
X120176428Y-106953571D01*
X119962142Y-106882142D01*
X119890714Y-106810714D01*
X119890714Y-106310714D01*
X120176428Y-106310714D01*
X118605000Y-106953571D02*
X118605000Y-106167857D01*
X118676428Y-106025000D01*
X118819285Y-105953571D01*
X119105000Y-105953571D01*
X119247857Y-106025000D01*
X118605000Y-106882142D02*
X118747857Y-106953571D01*
X119105000Y-106953571D01*
X119247857Y-106882142D01*
X119319285Y-106739285D01*
X119319285Y-106596428D01*
X119247857Y-106453571D01*
X119105000Y-106382142D01*
X118747857Y-106382142D01*
X118605000Y-106310714D01*
X117890714Y-106953571D02*
X117890714Y-105953571D01*
X117890714Y-106239285D02*
X117819285Y-106096428D01*
X117747857Y-106025000D01*
X117605000Y-105953571D01*
X117462142Y-105953571D01*
X116962142Y-106953571D02*
X116962142Y-105953571D01*
X116962142Y-106239285D02*
X116890714Y-106096428D01*
X116819285Y-106025000D01*
X116676428Y-105953571D01*
X116533571Y-105953571D01*
X115462142Y-106882142D02*
X115605000Y-106953571D01*
X115890714Y-106953571D01*
X116033571Y-106882142D01*
X116105000Y-106739285D01*
X116105000Y-106167857D01*
X116033571Y-106025000D01*
X115890714Y-105953571D01*
X115605000Y-105953571D01*
X115462142Y-106025000D01*
X115390714Y-106167857D01*
X115390714Y-106310714D01*
X116105000Y-106453571D01*
X114962142Y-105953571D02*
X114390714Y-105953571D01*
X114747857Y-105453571D02*
X114747857Y-106739285D01*
X114676428Y-106882142D01*
X114533571Y-106953571D01*
X114390714Y-106953571D01*
X114105000Y-105953571D02*
X113533571Y-105953571D01*
X113890714Y-105453571D02*
X113890714Y-106739285D01*
X113819285Y-106882142D01*
X113676428Y-106953571D01*
X113533571Y-106953571D01*
X112033571Y-105453571D02*
X111676428Y-106953571D01*
X111390714Y-105882142D01*
X111105000Y-106953571D01*
X110747857Y-105453571D01*
X109962142Y-106953571D02*
X110105000Y-106882142D01*
X110176428Y-106810714D01*
X110247857Y-106667857D01*
X110247857Y-106239285D01*
X110176428Y-106096428D01*
X110105000Y-106025000D01*
X109962142Y-105953571D01*
X109747857Y-105953571D01*
X109605000Y-106025000D01*
X109533571Y-106096428D01*
X109462142Y-106239285D01*
X109462142Y-106667857D01*
X109533571Y-106810714D01*
X109605000Y-106882142D01*
X109747857Y-106953571D01*
X109962142Y-106953571D01*
X108819285Y-105953571D02*
X108819285Y-106953571D01*
X108819285Y-106096428D02*
X108747857Y-106025000D01*
X108605000Y-105953571D01*
X108390714Y-105953571D01*
X108247857Y-106025000D01*
X108176428Y-106167857D01*
X108176428Y-106953571D01*
X106819285Y-105953571D02*
X106819285Y-107167857D01*
X106890714Y-107310714D01*
X106962142Y-107382142D01*
X107105000Y-107453571D01*
X107319285Y-107453571D01*
X107462142Y-107382142D01*
X106819285Y-106882142D02*
X106962142Y-106953571D01*
X107247857Y-106953571D01*
X107390714Y-106882142D01*
X107462142Y-106810714D01*
X107533571Y-106667857D01*
X107533571Y-106239285D01*
X107462142Y-106096428D01*
X107390714Y-106025000D01*
X107247857Y-105953571D01*
X106962142Y-105953571D01*
X106819285Y-106025000D01*
X120819285Y-109432142D02*
X120605000Y-109503571D01*
X120247857Y-109503571D01*
X120105000Y-109432142D01*
X120033571Y-109360714D01*
X119962142Y-109217857D01*
X119962142Y-109075000D01*
X120033571Y-108932142D01*
X120105000Y-108860714D01*
X120247857Y-108789285D01*
X120533571Y-108717857D01*
X120676428Y-108646428D01*
X120747857Y-108575000D01*
X120819285Y-108432142D01*
X120819285Y-108289285D01*
X120747857Y-108146428D01*
X120676428Y-108075000D01*
X120533571Y-108003571D01*
X120176428Y-108003571D01*
X119962142Y-108075000D01*
X119319285Y-109503571D02*
X119319285Y-108503571D01*
X119319285Y-108003571D02*
X119390714Y-108075000D01*
X119319285Y-108146428D01*
X119247857Y-108075000D01*
X119319285Y-108003571D01*
X119319285Y-108146428D01*
X118605000Y-109503571D02*
X118605000Y-108003571D01*
X117962142Y-109503571D02*
X117962142Y-108717857D01*
X118033571Y-108575000D01*
X118176428Y-108503571D01*
X118390714Y-108503571D01*
X118533571Y-108575000D01*
X118605000Y-108646428D01*
X117390714Y-108503571D02*
X117033571Y-109503571D01*
X116676428Y-108503571D02*
X117033571Y-109503571D01*
X117176428Y-109860714D01*
X117247857Y-109932142D01*
X117390714Y-110003571D01*
X115462142Y-108503571D02*
X115462142Y-109503571D01*
X116105000Y-108503571D02*
X116105000Y-109289285D01*
X116033571Y-109432142D01*
X115890714Y-109503571D01*
X115676428Y-109503571D01*
X115533571Y-109432142D01*
X115462142Y-109360714D01*
X114747857Y-108503571D02*
X114747857Y-109503571D01*
X114747857Y-108646428D02*
X114676428Y-108575000D01*
X114533571Y-108503571D01*
X114319285Y-108503571D01*
X114176428Y-108575000D01*
X114105000Y-108717857D01*
X114105000Y-109503571D01*
X112747857Y-108503571D02*
X112747857Y-109717857D01*
X112819285Y-109860714D01*
X112890714Y-109932142D01*
X113033571Y-110003571D01*
X113247857Y-110003571D01*
X113390714Y-109932142D01*
X112747857Y-109432142D02*
X112890714Y-109503571D01*
X113176428Y-109503571D01*
X113319285Y-109432142D01*
X113390714Y-109360714D01*
X113462142Y-109217857D01*
X113462142Y-108789285D01*
X113390714Y-108646428D01*
X113319285Y-108575000D01*
X113176428Y-108503571D01*
X112890714Y-108503571D01*
X112747857Y-108575000D01*
X111033571Y-108003571D02*
X110676428Y-109503571D01*
X110390714Y-108432142D01*
X110105000Y-109503571D01*
X109747857Y-108003571D01*
X108962142Y-109503571D02*
X109105000Y-109432142D01*
X109176428Y-109360714D01*
X109247857Y-109217857D01*
X109247857Y-108789285D01*
X109176428Y-108646428D01*
X109105000Y-108575000D01*
X108962142Y-108503571D01*
X108747857Y-108503571D01*
X108605000Y-108575000D01*
X108533571Y-108646428D01*
X108462142Y-108789285D01*
X108462142Y-109217857D01*
X108533571Y-109360714D01*
X108605000Y-109432142D01*
X108747857Y-109503571D01*
X108962142Y-109503571D01*
X107605000Y-109503571D02*
X107747857Y-109432142D01*
X107819285Y-109360714D01*
X107890714Y-109217857D01*
X107890714Y-108789285D01*
X107819285Y-108646428D01*
X107747857Y-108575000D01*
X107605000Y-108503571D01*
X107390714Y-108503571D01*
X107247857Y-108575000D01*
X107176428Y-108646428D01*
X107105000Y-108789285D01*
X107105000Y-109217857D01*
X107176428Y-109360714D01*
X107247857Y-109432142D01*
X107390714Y-109503571D01*
X107605000Y-109503571D01*
X120819285Y-111982142D02*
X120605000Y-112053571D01*
X120247857Y-112053571D01*
X120105000Y-111982142D01*
X120033571Y-111910714D01*
X119962142Y-111767857D01*
X119962142Y-111625000D01*
X120033571Y-111482142D01*
X120105000Y-111410714D01*
X120247857Y-111339285D01*
X120533571Y-111267857D01*
X120676428Y-111196428D01*
X120747857Y-111125000D01*
X120819285Y-110982142D01*
X120819285Y-110839285D01*
X120747857Y-110696428D01*
X120676428Y-110625000D01*
X120533571Y-110553571D01*
X120176428Y-110553571D01*
X119962142Y-110625000D01*
X119319285Y-112053571D02*
X119319285Y-111053571D01*
X119319285Y-110553571D02*
X119390714Y-110625000D01*
X119319285Y-110696428D01*
X119247857Y-110625000D01*
X119319285Y-110553571D01*
X119319285Y-110696428D01*
X118605000Y-111053571D02*
X118605000Y-112339285D01*
X118676428Y-112482142D01*
X118819285Y-112553571D01*
X118890714Y-112553571D01*
X118605000Y-110553571D02*
X118676428Y-110625000D01*
X118605000Y-110696428D01*
X118533571Y-110625000D01*
X118605000Y-110553571D01*
X118605000Y-110696428D01*
X117890714Y-112053571D02*
X117890714Y-111053571D01*
X117890714Y-110553571D02*
X117962142Y-110625000D01*
X117890714Y-110696428D01*
X117819285Y-110625000D01*
X117890714Y-110553571D01*
X117890714Y-110696428D01*
X117176428Y-111053571D02*
X117176428Y-112053571D01*
X117176428Y-111196428D02*
X117105000Y-111125000D01*
X116962142Y-111053571D01*
X116747857Y-111053571D01*
X116605000Y-111125000D01*
X116533571Y-111267857D01*
X116533571Y-112053571D01*
X114819285Y-110553571D02*
X114462142Y-112053571D01*
X114176428Y-110982142D01*
X113890714Y-112053571D01*
X113533571Y-110553571D01*
X112747857Y-112053571D02*
X112890714Y-111982142D01*
X112962142Y-111910714D01*
X113033571Y-111767857D01*
X113033571Y-111339285D01*
X112962142Y-111196428D01*
X112890714Y-111125000D01*
X112747857Y-111053571D01*
X112533571Y-111053571D01*
X112390714Y-111125000D01*
X112319285Y-111196428D01*
X112247857Y-111339285D01*
X112247857Y-111767857D01*
X112319285Y-111910714D01*
X112390714Y-111982142D01*
X112533571Y-112053571D01*
X112747857Y-112053571D01*
X111390714Y-112053571D02*
X111533571Y-111982142D01*
X111605000Y-111910714D01*
X111676428Y-111767857D01*
X111676428Y-111339285D01*
X111605000Y-111196428D01*
X111533571Y-111125000D01*
X111390714Y-111053571D01*
X111176428Y-111053571D01*
X111033571Y-111125000D01*
X110962142Y-111196428D01*
X110890714Y-111339285D01*
X110890714Y-111767857D01*
X110962142Y-111910714D01*
X111033571Y-111982142D01*
X111176428Y-112053571D01*
X111390714Y-112053571D01*
D13*
G36*
X76045624Y-94321559D02*
X75935592Y-94596611D01*
X75883716Y-95025435D01*
X75878667Y-95257512D01*
X75894394Y-95605866D01*
X75939634Y-95798929D01*
X76011479Y-95832885D01*
X76107018Y-95703916D01*
X76148749Y-95611834D01*
X76200575Y-95395563D01*
X76229037Y-95092822D01*
X76230680Y-94892167D01*
X76228604Y-94616423D01*
X76252047Y-94469914D01*
X76313648Y-94413033D01*
X76386027Y-94405334D01*
X76527797Y-94364514D01*
X76544949Y-94279282D01*
X76450167Y-94214502D01*
X76216315Y-94195711D01*
X76045624Y-94321559D01*
X76045624Y-94321559D01*
G37*
X76045624Y-94321559D02*
X75935592Y-94596611D01*
X75883716Y-95025435D01*
X75878667Y-95257512D01*
X75894394Y-95605866D01*
X75939634Y-95798929D01*
X76011479Y-95832885D01*
X76107018Y-95703916D01*
X76148749Y-95611834D01*
X76200575Y-95395563D01*
X76229037Y-95092822D01*
X76230680Y-94892167D01*
X76228604Y-94616423D01*
X76252047Y-94469914D01*
X76313648Y-94413033D01*
X76386027Y-94405334D01*
X76527797Y-94364514D01*
X76544949Y-94279282D01*
X76450167Y-94214502D01*
X76216315Y-94195711D01*
X76045624Y-94321559D01*
G36*
X77169191Y-95640656D02*
X77005260Y-95756380D01*
X76864213Y-95886473D01*
X76810000Y-95974965D01*
X76812652Y-96001681D01*
X76850088Y-95997841D01*
X76966532Y-95950196D01*
X77127500Y-95879851D01*
X77316908Y-95769882D01*
X77401072Y-95666746D01*
X77362915Y-95600529D01*
X77291632Y-95590667D01*
X77169191Y-95640656D01*
X77169191Y-95640656D01*
G37*
X77169191Y-95640656D02*
X77005260Y-95756380D01*
X76864213Y-95886473D01*
X76810000Y-95974965D01*
X76812652Y-96001681D01*
X76850088Y-95997841D01*
X76966532Y-95950196D01*
X77127500Y-95879851D01*
X77316908Y-95769882D01*
X77401072Y-95666746D01*
X77362915Y-95600529D01*
X77291632Y-95590667D01*
X77169191Y-95640656D01*
G36*
X78369596Y-95900024D02*
X78357023Y-95950500D01*
X78345076Y-96166534D01*
X78357023Y-96246834D01*
X78391350Y-96350640D01*
X78434484Y-96297309D01*
X78456956Y-96246834D01*
X78480477Y-96044325D01*
X78456956Y-95950500D01*
X78402272Y-95846694D01*
X78369596Y-95900024D01*
X78369596Y-95900024D01*
G37*
X78369596Y-95900024D02*
X78357023Y-95950500D01*
X78345076Y-96166534D01*
X78357023Y-96246834D01*
X78391350Y-96350640D01*
X78434484Y-96297309D01*
X78456956Y-96246834D01*
X78480477Y-96044325D01*
X78456956Y-95950500D01*
X78402272Y-95846694D01*
X78369596Y-95900024D01*
G36*
X76525785Y-96063399D02*
X76408365Y-96183044D01*
X76386667Y-96277059D01*
X76398670Y-96408897D01*
X76454579Y-96411498D01*
X76584246Y-96283516D01*
X76598804Y-96267481D01*
X76703482Y-96111114D01*
X76675046Y-96037652D01*
X76525785Y-96063399D01*
X76525785Y-96063399D01*
G37*
X76525785Y-96063399D02*
X76408365Y-96183044D01*
X76386667Y-96277059D01*
X76398670Y-96408897D01*
X76454579Y-96411498D01*
X76584246Y-96283516D01*
X76598804Y-96267481D01*
X76703482Y-96111114D01*
X76675046Y-96037652D01*
X76525785Y-96063399D01*
G36*
X78418667Y-96649000D02*
X78461000Y-96691334D01*
X78503334Y-96649000D01*
X78461000Y-96606667D01*
X78418667Y-96649000D01*
X78418667Y-96649000D01*
G37*
X78418667Y-96649000D02*
X78461000Y-96691334D01*
X78503334Y-96649000D01*
X78461000Y-96606667D01*
X78418667Y-96649000D01*
G36*
X76922889Y-96973556D02*
X76934512Y-97023890D01*
X76979334Y-97030000D01*
X77049024Y-96999022D01*
X77035778Y-96973556D01*
X76935299Y-96963423D01*
X76922889Y-96973556D01*
X76922889Y-96973556D01*
G37*
X76922889Y-96973556D02*
X76934512Y-97023890D01*
X76979334Y-97030000D01*
X77049024Y-96999022D01*
X77035778Y-96973556D01*
X76935299Y-96963423D01*
X76922889Y-96973556D01*
G36*
X77272954Y-97288070D02*
X77253087Y-97407972D01*
X77271108Y-97445956D01*
X77378342Y-97516436D01*
X77528620Y-97535855D01*
X77640506Y-97500466D01*
X77656667Y-97463700D01*
X77598671Y-97353891D01*
X77526079Y-97281022D01*
X77384267Y-97232611D01*
X77272954Y-97288070D01*
X77272954Y-97288070D01*
G37*
X77272954Y-97288070D02*
X77253087Y-97407972D01*
X77271108Y-97445956D01*
X77378342Y-97516436D01*
X77528620Y-97535855D01*
X77640506Y-97500466D01*
X77656667Y-97463700D01*
X77598671Y-97353891D01*
X77526079Y-97281022D01*
X77384267Y-97232611D01*
X77272954Y-97288070D01*
G36*
X77816512Y-98638530D02*
X77792079Y-98647153D01*
X77596082Y-98739518D01*
X77492296Y-98830331D01*
X77487334Y-98848503D01*
X77539981Y-98998142D01*
X77665289Y-99195009D01*
X77814314Y-99368496D01*
X77889794Y-99429064D01*
X78016280Y-99560128D01*
X78087792Y-99683064D01*
X78147563Y-99811516D01*
X78152625Y-99782999D01*
X78132649Y-99675834D01*
X78124622Y-99528582D01*
X78151427Y-99485334D01*
X78197185Y-99413701D01*
X78230560Y-99192084D01*
X78251220Y-98858878D01*
X78213260Y-98661552D01*
X78071399Y-98589505D01*
X77816512Y-98638530D01*
X77816512Y-98638530D01*
G37*
X77816512Y-98638530D02*
X77792079Y-98647153D01*
X77596082Y-98739518D01*
X77492296Y-98830331D01*
X77487334Y-98848503D01*
X77539981Y-98998142D01*
X77665289Y-99195009D01*
X77814314Y-99368496D01*
X77889794Y-99429064D01*
X78016280Y-99560128D01*
X78087792Y-99683064D01*
X78147563Y-99811516D01*
X78152625Y-99782999D01*
X78132649Y-99675834D01*
X78124622Y-99528582D01*
X78151427Y-99485334D01*
X78197185Y-99413701D01*
X78230560Y-99192084D01*
X78251220Y-98858878D01*
X78213260Y-98661552D01*
X78071399Y-98589505D01*
X77816512Y-98638530D01*
G36*
X78842000Y-100120334D02*
X78884334Y-100162667D01*
X78926667Y-100120334D01*
X78884334Y-100078000D01*
X78842000Y-100120334D01*
X78842000Y-100120334D01*
G37*
X78842000Y-100120334D02*
X78884334Y-100162667D01*
X78926667Y-100120334D01*
X78884334Y-100078000D01*
X78842000Y-100120334D01*
G36*
X78189539Y-99988640D02*
X78178511Y-100137979D01*
X78174684Y-100268500D01*
X78184809Y-100502808D01*
X78221810Y-100647773D01*
X78249334Y-100670667D01*
X78316213Y-100601448D01*
X78323983Y-100522500D01*
X78296073Y-100333357D01*
X78249334Y-100120334D01*
X78210759Y-99987498D01*
X78189539Y-99988640D01*
X78189539Y-99988640D01*
G37*
X78189539Y-99988640D02*
X78178511Y-100137979D01*
X78174684Y-100268500D01*
X78184809Y-100502808D01*
X78221810Y-100647773D01*
X78249334Y-100670667D01*
X78316213Y-100601448D01*
X78323983Y-100522500D01*
X78296073Y-100333357D01*
X78249334Y-100120334D01*
X78210759Y-99987498D01*
X78189539Y-99988640D01*
G36*
X79393392Y-100784641D02*
X79411226Y-100878823D01*
X79434712Y-100924750D01*
X79568039Y-101063683D01*
X79720745Y-101086219D01*
X79812051Y-101015184D01*
X79796170Y-100911553D01*
X79652025Y-100820036D01*
X79495233Y-100779033D01*
X79393392Y-100784641D01*
X79393392Y-100784641D01*
G37*
X79393392Y-100784641D02*
X79411226Y-100878823D01*
X79434712Y-100924750D01*
X79568039Y-101063683D01*
X79720745Y-101086219D01*
X79812051Y-101015184D01*
X79796170Y-100911553D01*
X79652025Y-100820036D01*
X79495233Y-100779033D01*
X79393392Y-100784641D01*
G36*
X78170821Y-100843542D02*
X78232415Y-100974981D01*
X78288974Y-101056651D01*
X78384839Y-101149242D01*
X78415974Y-101109119D01*
X78362970Y-100961730D01*
X78291667Y-100870238D01*
X78190723Y-100798147D01*
X78170821Y-100843542D01*
X78170821Y-100843542D01*
G37*
X78170821Y-100843542D02*
X78232415Y-100974981D01*
X78288974Y-101056651D01*
X78384839Y-101149242D01*
X78415974Y-101109119D01*
X78362970Y-100961730D01*
X78291667Y-100870238D01*
X78190723Y-100798147D01*
X78170821Y-100843542D01*
G36*
X79982147Y-101774845D02*
X79992121Y-101801691D01*
X80068267Y-101905730D01*
X80158441Y-101949819D01*
X80196667Y-101908700D01*
X80140499Y-101835734D01*
X80067729Y-101769725D01*
X79975938Y-101707951D01*
X79982147Y-101774845D01*
X79982147Y-101774845D01*
G37*
X79982147Y-101774845D02*
X79992121Y-101801691D01*
X80068267Y-101905730D01*
X80158441Y-101949819D01*
X80196667Y-101908700D01*
X80140499Y-101835734D01*
X80067729Y-101769725D01*
X79975938Y-101707951D01*
X79982147Y-101774845D01*
G36*
X80224889Y-102053556D02*
X80236512Y-102103890D01*
X80281334Y-102110000D01*
X80351024Y-102079022D01*
X80337778Y-102053556D01*
X80237299Y-102043423D01*
X80224889Y-102053556D01*
X80224889Y-102053556D01*
G37*
X80224889Y-102053556D02*
X80236512Y-102103890D01*
X80281334Y-102110000D01*
X80351024Y-102079022D01*
X80337778Y-102053556D01*
X80237299Y-102043423D01*
X80224889Y-102053556D01*
G36*
X80196667Y-102829667D02*
X80239000Y-102872000D01*
X80281334Y-102829667D01*
X80239000Y-102787334D01*
X80196667Y-102829667D01*
X80196667Y-102829667D01*
G37*
X80196667Y-102829667D02*
X80239000Y-102872000D01*
X80281334Y-102829667D01*
X80239000Y-102787334D01*
X80196667Y-102829667D01*
G36*
X84588719Y-102321211D02*
X84465639Y-102417815D01*
X84339834Y-102583793D01*
X84247574Y-102759597D01*
X84225130Y-102885682D01*
X84234676Y-102902453D01*
X84325806Y-102950823D01*
X84449473Y-102909771D01*
X84645322Y-102764290D01*
X84683270Y-102732623D01*
X84846042Y-102580283D01*
X84888309Y-102480066D01*
X84831798Y-102390845D01*
X84676880Y-102314248D01*
X84588719Y-102321211D01*
X84588719Y-102321211D01*
G37*
X84588719Y-102321211D02*
X84465639Y-102417815D01*
X84339834Y-102583793D01*
X84247574Y-102759597D01*
X84225130Y-102885682D01*
X84234676Y-102902453D01*
X84325806Y-102950823D01*
X84449473Y-102909771D01*
X84645322Y-102764290D01*
X84683270Y-102732623D01*
X84846042Y-102580283D01*
X84888309Y-102480066D01*
X84831798Y-102390845D01*
X84676880Y-102314248D01*
X84588719Y-102321211D01*
G36*
X78842000Y-103083667D02*
X78884334Y-103126000D01*
X78926667Y-103083667D01*
X78884334Y-103041334D01*
X78842000Y-103083667D01*
X78842000Y-103083667D01*
G37*
X78842000Y-103083667D02*
X78884334Y-103126000D01*
X78926667Y-103083667D01*
X78884334Y-103041334D01*
X78842000Y-103083667D01*
G36*
X80874018Y-103535221D02*
X80874000Y-103536617D01*
X80941395Y-103638644D01*
X81099112Y-103759863D01*
X81280457Y-103856077D01*
X81400188Y-103885307D01*
X81429678Y-103843738D01*
X81339667Y-103752104D01*
X81097567Y-103583628D01*
X80934751Y-103507817D01*
X80874018Y-103535221D01*
X80874018Y-103535221D01*
G37*
X80874018Y-103535221D02*
X80874000Y-103536617D01*
X80941395Y-103638644D01*
X81099112Y-103759863D01*
X81280457Y-103856077D01*
X81400188Y-103885307D01*
X81429678Y-103843738D01*
X81339667Y-103752104D01*
X81097567Y-103583628D01*
X80934751Y-103507817D01*
X80874018Y-103535221D01*
G36*
X77601104Y-104617203D02*
X77614334Y-104650000D01*
X77690416Y-104730771D01*
X77703997Y-104734667D01*
X77740363Y-104669161D01*
X77741334Y-104650000D01*
X77676246Y-104568587D01*
X77651670Y-104565334D01*
X77601104Y-104617203D01*
X77601104Y-104617203D01*
G37*
X77601104Y-104617203D02*
X77614334Y-104650000D01*
X77690416Y-104730771D01*
X77703997Y-104734667D01*
X77740363Y-104669161D01*
X77741334Y-104650000D01*
X77676246Y-104568587D01*
X77651670Y-104565334D01*
X77601104Y-104617203D01*
G36*
X82059334Y-105454334D02*
X82101667Y-105496667D01*
X82144000Y-105454334D01*
X82101667Y-105412000D01*
X82059334Y-105454334D01*
X82059334Y-105454334D01*
G37*
X82059334Y-105454334D02*
X82101667Y-105496667D01*
X82144000Y-105454334D01*
X82101667Y-105412000D01*
X82059334Y-105454334D01*
G36*
X82228667Y-105539000D02*
X82271000Y-105581334D01*
X82313334Y-105539000D01*
X82271000Y-105496667D01*
X82228667Y-105539000D01*
X82228667Y-105539000D01*
G37*
X82228667Y-105539000D02*
X82271000Y-105581334D01*
X82313334Y-105539000D01*
X82271000Y-105496667D01*
X82228667Y-105539000D01*
G36*
X71268533Y-108156318D02*
X71110619Y-108212376D01*
X71052667Y-108292280D01*
X71123594Y-108359765D01*
X71222000Y-108375334D01*
X71359518Y-108336133D01*
X71391334Y-108281608D01*
X71454041Y-108227450D01*
X71539500Y-108244291D01*
X71634937Y-108267775D01*
X71590967Y-108203250D01*
X71588033Y-108200282D01*
X71452601Y-108148003D01*
X71268533Y-108156318D01*
X71268533Y-108156318D01*
G37*
X71268533Y-108156318D02*
X71110619Y-108212376D01*
X71052667Y-108292280D01*
X71123594Y-108359765D01*
X71222000Y-108375334D01*
X71359518Y-108336133D01*
X71391334Y-108281608D01*
X71454041Y-108227450D01*
X71539500Y-108244291D01*
X71634937Y-108267775D01*
X71590967Y-108203250D01*
X71588033Y-108200282D01*
X71452601Y-108148003D01*
X71268533Y-108156318D01*
G36*
X70802113Y-108436794D02*
X70798667Y-108460000D01*
X70827554Y-108542466D01*
X70836004Y-108544667D01*
X70908290Y-108485338D01*
X70925667Y-108460000D01*
X70918954Y-108381981D01*
X70888331Y-108375334D01*
X70802113Y-108436794D01*
X70802113Y-108436794D01*
G37*
X70802113Y-108436794D02*
X70798667Y-108460000D01*
X70827554Y-108542466D01*
X70836004Y-108544667D01*
X70908290Y-108485338D01*
X70925667Y-108460000D01*
X70918954Y-108381981D01*
X70888331Y-108375334D01*
X70802113Y-108436794D01*
G36*
X71764369Y-108416379D02*
X71772334Y-108460000D01*
X71880577Y-108541437D01*
X71904331Y-108544667D01*
X71981720Y-108480088D01*
X71984000Y-108460000D01*
X71915085Y-108385696D01*
X71852004Y-108375334D01*
X71764369Y-108416379D01*
X71764369Y-108416379D01*
G37*
X71764369Y-108416379D02*
X71772334Y-108460000D01*
X71880577Y-108541437D01*
X71904331Y-108544667D01*
X71981720Y-108480088D01*
X71984000Y-108460000D01*
X71915085Y-108385696D01*
X71852004Y-108375334D01*
X71764369Y-108416379D01*
G36*
X71306667Y-108485917D02*
X71131648Y-108567626D01*
X71053000Y-108635264D01*
X71052667Y-108638286D01*
X71126105Y-108688701D01*
X71303097Y-108731531D01*
X71306667Y-108732060D01*
X71486092Y-108740031D01*
X71553317Y-108669837D01*
X71560667Y-108579691D01*
X71545786Y-108455099D01*
X71468589Y-108433190D01*
X71306667Y-108485917D01*
X71306667Y-108485917D01*
G37*
X71306667Y-108485917D02*
X71131648Y-108567626D01*
X71053000Y-108635264D01*
X71052667Y-108638286D01*
X71126105Y-108688701D01*
X71303097Y-108731531D01*
X71306667Y-108732060D01*
X71486092Y-108740031D01*
X71553317Y-108669837D01*
X71560667Y-108579691D01*
X71545786Y-108455099D01*
X71468589Y-108433190D01*
X71306667Y-108485917D01*
G36*
X82045387Y-85337891D02*
X81600694Y-85385539D01*
X81141214Y-85464268D01*
X80716107Y-85568299D01*
X80597111Y-85605407D01*
X79849415Y-85927188D01*
X79123083Y-86376703D01*
X78478000Y-86916791D01*
X78468114Y-86926510D01*
X78135121Y-87280288D01*
X77849822Y-87631780D01*
X77633968Y-87950212D01*
X77509308Y-88204809D01*
X77487334Y-88314278D01*
X77431557Y-88430398D01*
X77280617Y-88635003D01*
X77059098Y-88896851D01*
X76850779Y-89123202D01*
X76519606Y-89494447D01*
X76261450Y-89849745D01*
X76070278Y-90214954D01*
X75940059Y-90615933D01*
X75864761Y-91078539D01*
X75838351Y-91628630D01*
X75854797Y-92292064D01*
X75908067Y-93094700D01*
X75912204Y-93146618D01*
X75977655Y-93962236D01*
X76315083Y-93966893D01*
X76526989Y-93991294D01*
X76728453Y-94074749D01*
X76969576Y-94242315D01*
X77133423Y-94376186D01*
X77484660Y-94673570D01*
X77729939Y-94888843D01*
X77893874Y-95047710D01*
X78001079Y-95175878D01*
X78076167Y-95299054D01*
X78134154Y-95421334D01*
X78222962Y-95604991D01*
X78279155Y-95649519D01*
X78334204Y-95572528D01*
X78349030Y-95541577D01*
X78479988Y-95373792D01*
X78674023Y-95222334D01*
X78859903Y-95072944D01*
X78969055Y-94913137D01*
X78969554Y-94911590D01*
X79086101Y-94780394D01*
X79278789Y-94746744D01*
X79481967Y-94815620D01*
X79546418Y-94867847D01*
X79635505Y-95018169D01*
X79728168Y-95267524D01*
X79774900Y-95439347D01*
X79977764Y-96093406D01*
X80250925Y-96598258D01*
X80604295Y-96962895D01*
X81047787Y-97196312D01*
X81591314Y-97307500D01*
X81847667Y-97319872D01*
X82411007Y-97307680D01*
X82842826Y-97251715D01*
X83177147Y-97143837D01*
X83447990Y-96975908D01*
X83511790Y-96921782D01*
X83697752Y-96726485D01*
X83912223Y-96458576D01*
X84128157Y-96157815D01*
X84318507Y-95863959D01*
X84456228Y-95616764D01*
X84514274Y-95455989D01*
X84514667Y-95447562D01*
X84569951Y-95256821D01*
X84701944Y-95064492D01*
X84859856Y-94934763D01*
X84937371Y-94913334D01*
X85063904Y-94937741D01*
X85167213Y-95029016D01*
X85262795Y-95214235D01*
X85366148Y-95520475D01*
X85446227Y-95802334D01*
X85548348Y-96150423D01*
X85651541Y-96460784D01*
X85736536Y-96676272D01*
X85750415Y-96704397D01*
X85862410Y-97051839D01*
X85828297Y-97353690D01*
X85669517Y-97588866D01*
X85407515Y-97736280D01*
X85063731Y-97774845D01*
X84729469Y-97708368D01*
X84471318Y-97651579D01*
X84213105Y-97673887D01*
X84043742Y-97718025D01*
X83827845Y-97800247D01*
X83707061Y-97882821D01*
X83696922Y-97916558D01*
X83741083Y-97969363D01*
X83849067Y-97990576D01*
X84057010Y-97982210D01*
X84345334Y-97952665D01*
X84641667Y-97919000D01*
X84633794Y-98286492D01*
X84635535Y-98514021D01*
X84673852Y-98614438D01*
X84778771Y-98629835D01*
X84870355Y-98618109D01*
X85059168Y-98613914D01*
X85158392Y-98652783D01*
X85270144Y-98712980D01*
X85357272Y-98723334D01*
X85512843Y-98784027D01*
X85561285Y-98850333D01*
X85674436Y-98962964D01*
X85739677Y-98977334D01*
X85855009Y-99025159D01*
X85852640Y-99142428D01*
X85744663Y-99289826D01*
X85612803Y-99389828D01*
X85499576Y-99448458D01*
X85365604Y-99488866D01*
X85181755Y-99513193D01*
X84918900Y-99523581D01*
X84547907Y-99522171D01*
X84039646Y-99511103D01*
X83982970Y-99509622D01*
X83506164Y-99498107D01*
X83079512Y-99489780D01*
X82735954Y-99485130D01*
X82508431Y-99484649D01*
X82440334Y-99486640D01*
X82210254Y-99503848D01*
X82112812Y-99510745D01*
X81966476Y-99593931D01*
X81835427Y-99780439D01*
X81752633Y-100005184D01*
X81751060Y-100203080D01*
X81755544Y-100216098D01*
X81817258Y-100314116D01*
X81883118Y-100258470D01*
X82008049Y-100136763D01*
X82153730Y-100045079D01*
X82329806Y-99988954D01*
X82508272Y-100032360D01*
X82609667Y-100084700D01*
X82799665Y-100164095D01*
X83070175Y-100245996D01*
X83372441Y-100319697D01*
X83657708Y-100374491D01*
X83877222Y-100399673D01*
X83981043Y-100385846D01*
X83991560Y-100289705D01*
X83905421Y-100204979D01*
X83792627Y-100194195D01*
X83657881Y-100184754D01*
X83555316Y-100091702D01*
X83530029Y-99974287D01*
X83577854Y-99912053D01*
X83766172Y-99857751D01*
X84040697Y-99841379D01*
X84322803Y-99862094D01*
X84533864Y-99919053D01*
X84540283Y-99922376D01*
X84760781Y-100003515D01*
X84912133Y-100033287D01*
X85136739Y-100100553D01*
X85246409Y-100212772D01*
X85236875Y-100327993D01*
X85103873Y-100404268D01*
X84950771Y-100413196D01*
X84597654Y-100403746D01*
X84374000Y-100427080D01*
X84296287Y-100480956D01*
X84303000Y-100501334D01*
X84282895Y-100573063D01*
X84218334Y-100586000D01*
X84126886Y-100625824D01*
X84133667Y-100670667D01*
X84247114Y-100729332D01*
X84448837Y-100754041D01*
X84456164Y-100754037D01*
X84624227Y-100741973D01*
X84640072Y-100701931D01*
X84599334Y-100670667D01*
X84532202Y-100608686D01*
X84616055Y-100588185D01*
X84660177Y-100587297D01*
X84795796Y-100617723D01*
X84797951Y-100731240D01*
X84796953Y-100734167D01*
X84773885Y-100824334D01*
X84823778Y-100780948D01*
X84872033Y-100720410D01*
X85021041Y-100614281D01*
X85163560Y-100626385D01*
X85240665Y-100741799D01*
X85239984Y-100813596D01*
X85158521Y-100932326D01*
X85035040Y-100940512D01*
X84883912Y-100965453D01*
X84853334Y-101046345D01*
X84781646Y-101155041D01*
X84669501Y-101178667D01*
X84462362Y-101234285D01*
X84328833Y-101320600D01*
X84185717Y-101410934D01*
X84075389Y-101365885D01*
X84072400Y-101362933D01*
X83897020Y-101263485D01*
X83731629Y-101277106D01*
X83627551Y-101381947D01*
X83633577Y-101549750D01*
X83742102Y-101664251D01*
X83960342Y-101802360D01*
X84235863Y-101938897D01*
X84516227Y-102048681D01*
X84748999Y-102106533D01*
X84800246Y-102110000D01*
X85152871Y-102163778D01*
X85392610Y-102309715D01*
X85503925Y-102524719D01*
X85471275Y-102785694D01*
X85372222Y-102960048D01*
X85252041Y-103139532D01*
X85192763Y-103261239D01*
X85191465Y-103270738D01*
X85124848Y-103353442D01*
X84962637Y-103467244D01*
X84937465Y-103481896D01*
X84765472Y-103557405D01*
X84685550Y-103545436D01*
X84684000Y-103535521D01*
X84617263Y-103479975D01*
X84521002Y-103487542D01*
X84402071Y-103489168D01*
X84401700Y-103391584D01*
X84380987Y-103364434D01*
X84279405Y-103450179D01*
X84199019Y-103538002D01*
X84007409Y-103725861D01*
X83813472Y-103808193D01*
X83577488Y-103825585D01*
X83291016Y-103817463D01*
X83041252Y-103794062D01*
X82990667Y-103785480D01*
X82748821Y-103709561D01*
X82487353Y-103587539D01*
X82254310Y-103447325D01*
X82097739Y-103316829D01*
X82059334Y-103244452D01*
X81988669Y-103148892D01*
X81887343Y-103126000D01*
X81724538Y-103070829D01*
X81666618Y-102999000D01*
X81541449Y-102902779D01*
X81293272Y-102872000D01*
X81068443Y-102848554D01*
X80922867Y-102790551D01*
X80908249Y-102774252D01*
X80898270Y-102716315D01*
X80945585Y-102736915D01*
X81032590Y-102740318D01*
X81043334Y-102705006D01*
X80974568Y-102601787D01*
X80895167Y-102558019D01*
X80736656Y-102465373D01*
X80687026Y-102413217D01*
X80595745Y-102372675D01*
X80529559Y-102420575D01*
X80509180Y-102504450D01*
X80584613Y-102643216D01*
X80769810Y-102858493D01*
X80897865Y-102991367D01*
X81134701Y-103216170D01*
X81340321Y-103383142D01*
X81476782Y-103462094D01*
X81492777Y-103464667D01*
X81624070Y-103511028D01*
X81650112Y-103548052D01*
X81742065Y-103606239D01*
X81952547Y-103673287D01*
X82186334Y-103724866D01*
X82489033Y-103786503D01*
X82743929Y-103848803D01*
X82863667Y-103886525D01*
X83343846Y-104065293D01*
X83736278Y-104181452D01*
X84011540Y-104226404D01*
X84027792Y-104226667D01*
X84244397Y-104259996D01*
X84488061Y-104343202D01*
X84703486Y-104451116D01*
X84835374Y-104558568D01*
X84852776Y-104602181D01*
X84809104Y-104729387D01*
X84703586Y-104917560D01*
X84692409Y-104934732D01*
X84601507Y-105142513D01*
X84542512Y-105412251D01*
X84517272Y-105696968D01*
X84527637Y-105949685D01*
X84575458Y-106123422D01*
X84643617Y-106174000D01*
X84744639Y-106201455D01*
X84754071Y-106303751D01*
X84671492Y-106510783D01*
X84637901Y-106579444D01*
X84557410Y-106785039D01*
X84572959Y-106935291D01*
X84615934Y-107015785D01*
X84743790Y-107167718D01*
X84848999Y-107160957D01*
X84901254Y-107096294D01*
X84977687Y-107057651D01*
X85031954Y-107117461D01*
X85086577Y-107158682D01*
X85106904Y-107042545D01*
X85107334Y-107020667D01*
X85121208Y-106884350D01*
X85168248Y-106900619D01*
X85193297Y-106936000D01*
X85273226Y-107020376D01*
X85351330Y-106954695D01*
X85364475Y-106936000D01*
X85412082Y-106908108D01*
X85416777Y-107007666D01*
X85385233Y-107200216D01*
X85324121Y-107451296D01*
X85240114Y-107726447D01*
X85178514Y-107896443D01*
X85066052Y-108146820D01*
X84947625Y-108352697D01*
X84845094Y-108483787D01*
X84780321Y-108509805D01*
X84778411Y-108502334D01*
X84599334Y-108502334D01*
X84557000Y-108544667D01*
X84514667Y-108502334D01*
X84557000Y-108460000D01*
X84599334Y-108502334D01*
X84778411Y-108502334D01*
X84768667Y-108464233D01*
X84699433Y-108367331D01*
X84536995Y-108267685D01*
X84318169Y-108146971D01*
X84170507Y-108036667D01*
X83885124Y-107782597D01*
X83655265Y-107606834D01*
X83508770Y-107530305D01*
X83494650Y-107528667D01*
X83334346Y-107483027D01*
X83090860Y-107365561D01*
X82816917Y-107205449D01*
X82565244Y-107031874D01*
X82493973Y-106974854D01*
X82303663Y-106825455D01*
X82219065Y-106782053D01*
X82228738Y-106828379D01*
X82321239Y-106948167D01*
X82485125Y-107125149D01*
X82708955Y-107343056D01*
X82831804Y-107455159D01*
X83138277Y-107729347D01*
X83436170Y-107996227D01*
X83676058Y-108211505D01*
X83741971Y-108270789D01*
X83978511Y-108461606D01*
X84209995Y-108614299D01*
X84281834Y-108651290D01*
X84446433Y-108741250D01*
X84514667Y-108811052D01*
X84585629Y-108873983D01*
X84758057Y-108951509D01*
X84774044Y-108957188D01*
X84949372Y-109004828D01*
X85049664Y-108963702D01*
X85136012Y-108801635D01*
X85155044Y-108756523D01*
X85235974Y-108533408D01*
X85275806Y-108365881D01*
X85276667Y-108350113D01*
X85312415Y-108229052D01*
X85408757Y-107995239D01*
X85549344Y-107686763D01*
X85658471Y-107460680D01*
X85830702Y-107105940D01*
X85938870Y-106852555D01*
X85994751Y-106650479D01*
X86010117Y-106449665D01*
X85996745Y-106200066D01*
X85985551Y-106070453D01*
X85948364Y-105745302D01*
X85902379Y-105473408D01*
X85857226Y-105311140D01*
X85855043Y-105306681D01*
X85824774Y-105135634D01*
X85829569Y-104851718D01*
X85862643Y-104506142D01*
X85917210Y-104150117D01*
X85986484Y-103834853D01*
X86063679Y-103611560D01*
X86084601Y-103574289D01*
X86207732Y-103374496D01*
X86359578Y-103112953D01*
X86413463Y-103016683D01*
X86833742Y-102249824D01*
X87176008Y-101607760D01*
X87449057Y-101069895D01*
X87661682Y-100615634D01*
X87822678Y-100224383D01*
X87940842Y-99875546D01*
X88024966Y-99548527D01*
X88083847Y-99222733D01*
X88106909Y-99051070D01*
X88179784Y-98691645D01*
X88304495Y-98451929D01*
X88365483Y-98386093D01*
X88506926Y-98188590D01*
X88628626Y-97911383D01*
X88663359Y-97791893D01*
X88742827Y-97536065D01*
X88769959Y-97495667D01*
X87732000Y-97495667D01*
X87689667Y-97538000D01*
X87647334Y-97495667D01*
X87689667Y-97453334D01*
X87732000Y-97495667D01*
X88769959Y-97495667D01*
X88862071Y-97358522D01*
X89069958Y-97195443D01*
X89167822Y-97133003D01*
X89375617Y-96992076D01*
X89523733Y-96847828D01*
X89644888Y-96654553D01*
X89771801Y-96366544D01*
X89838799Y-96195697D01*
X89958846Y-95871509D01*
X90050318Y-95599939D01*
X90098640Y-95425241D01*
X90102667Y-95394435D01*
X90149564Y-95262147D01*
X90269151Y-95054785D01*
X90356667Y-94926770D01*
X90559446Y-94554663D01*
X90610667Y-94280680D01*
X90609739Y-94271278D01*
X79258650Y-94271278D01*
X79243083Y-94381092D01*
X79214181Y-94382403D01*
X79195620Y-94278334D01*
X78249334Y-94278334D01*
X78207000Y-94320667D01*
X78164667Y-94278334D01*
X78207000Y-94236000D01*
X78249334Y-94278334D01*
X79195620Y-94278334D01*
X79193970Y-94269086D01*
X79207497Y-94220125D01*
X79245092Y-94188055D01*
X79258650Y-94271278D01*
X90609739Y-94271278D01*
X90590154Y-94072962D01*
X90501680Y-93971829D01*
X90377834Y-93932098D01*
X89927918Y-93826039D01*
X89621227Y-93743759D01*
X89434739Y-93676845D01*
X89345434Y-93616887D01*
X89330291Y-93555470D01*
X89331713Y-93549817D01*
X89373024Y-93405517D01*
X89443002Y-93162760D01*
X89494773Y-92983715D01*
X89547011Y-92768458D01*
X87727000Y-92768458D01*
X87700590Y-92897375D01*
X87624420Y-93001009D01*
X87291405Y-93221815D01*
X86900062Y-93304622D01*
X86890900Y-93304667D01*
X86710095Y-93323476D01*
X86631443Y-93368924D01*
X86631334Y-93370849D01*
X86557815Y-93431521D01*
X86371217Y-93510401D01*
X86250334Y-93549528D01*
X86025988Y-93629111D01*
X85889076Y-93703397D01*
X85869334Y-93731137D01*
X85823706Y-93797485D01*
X85673104Y-93843253D01*
X85396949Y-93871820D01*
X84974665Y-93886565D01*
X84916834Y-93887512D01*
X84555872Y-93881700D01*
X84331882Y-93852893D01*
X84260667Y-93806961D01*
X84194967Y-93754947D01*
X84095341Y-93769062D01*
X83972542Y-93779157D01*
X83959389Y-93669926D01*
X83962375Y-93653503D01*
X83955769Y-93548390D01*
X83862721Y-93474834D01*
X83647694Y-93409671D01*
X83556201Y-93388763D01*
X83177526Y-93315482D01*
X82732935Y-93244773D01*
X82279864Y-93184276D01*
X81875749Y-93141635D01*
X81578026Y-93124491D01*
X81569616Y-93124445D01*
X81281481Y-93190189D01*
X81146283Y-93299098D01*
X80980193Y-93421843D01*
X80690065Y-93529067D01*
X80259928Y-93625478D01*
X79781815Y-93701120D01*
X79556221Y-93724319D01*
X79466163Y-93705158D01*
X79481646Y-93636958D01*
X79483101Y-93634608D01*
X79558755Y-93461998D01*
X79620864Y-93232368D01*
X79662795Y-92992376D01*
X79677915Y-92788681D01*
X79659590Y-92667940D01*
X79621853Y-92658634D01*
X79575123Y-92638188D01*
X79582414Y-92519833D01*
X79632289Y-92361830D01*
X79705591Y-92232001D01*
X79718608Y-92115512D01*
X79656468Y-92062346D01*
X79613556Y-92012866D01*
X79580116Y-91904935D01*
X79554538Y-91718423D01*
X79535212Y-91433199D01*
X79520529Y-91029133D01*
X79508880Y-90486096D01*
X79503606Y-90150423D01*
X79497687Y-89612262D01*
X79495999Y-89135673D01*
X79498335Y-88745045D01*
X79504486Y-88464766D01*
X79514245Y-88319223D01*
X79519334Y-88304144D01*
X79621559Y-88293566D01*
X79833290Y-88272373D01*
X79965101Y-88259322D01*
X80260358Y-88216886D01*
X80521190Y-88157756D01*
X80590677Y-88135054D01*
X80774096Y-88090681D01*
X80869939Y-88111889D01*
X80845806Y-88183337D01*
X80786882Y-88227974D01*
X80723268Y-88287719D01*
X80812023Y-88307385D01*
X80847837Y-88308037D01*
X81018683Y-88343730D01*
X81085667Y-88394000D01*
X81065562Y-88465729D01*
X81001000Y-88478667D01*
X80911205Y-88520891D01*
X80919901Y-88569106D01*
X81035453Y-88624406D01*
X81096152Y-88613359D01*
X81238225Y-88633615D01*
X81385442Y-88736108D01*
X81592692Y-88884242D01*
X81915493Y-89021845D01*
X82371989Y-89155283D01*
X82948334Y-89284459D01*
X83548254Y-89418769D01*
X83992409Y-89547679D01*
X84294089Y-89675462D01*
X84415614Y-89756166D01*
X84560050Y-89851736D01*
X84806258Y-89991263D01*
X85103128Y-90145899D01*
X85128171Y-90158374D01*
X85466955Y-90345847D01*
X85729638Y-90548991D01*
X85978433Y-90820831D01*
X86121544Y-91005040D01*
X86338330Y-91303788D01*
X86528630Y-91584124D01*
X86657221Y-91793772D01*
X86672627Y-91823000D01*
X86840134Y-92120118D01*
X86996210Y-92288757D01*
X87181127Y-92361685D01*
X87349042Y-92373334D01*
X87554790Y-92385219D01*
X87631739Y-92437296D01*
X87622802Y-92542667D01*
X87618053Y-92677675D01*
X87655260Y-92712000D01*
X87727000Y-92768458D01*
X89547011Y-92768458D01*
X89548605Y-92761892D01*
X89578713Y-92526585D01*
X89586333Y-92237975D01*
X89572706Y-91856246D01*
X89543814Y-91407371D01*
X89509222Y-90947130D01*
X89475751Y-90615731D01*
X89433508Y-90373040D01*
X89372601Y-90178925D01*
X89283136Y-89993251D01*
X89155221Y-89775886D01*
X89132466Y-89738656D01*
X88478312Y-88775000D01*
X81720667Y-88775000D01*
X81678334Y-88817334D01*
X81636000Y-88775000D01*
X81678334Y-88732667D01*
X81720667Y-88775000D01*
X88478312Y-88775000D01*
X88403947Y-88665451D01*
X88060626Y-88248936D01*
X83569686Y-88248936D01*
X83549085Y-88296252D01*
X83463835Y-88387145D01*
X83414825Y-88368500D01*
X83414000Y-88356664D01*
X83474137Y-88285051D01*
X83511749Y-88258915D01*
X83569686Y-88248936D01*
X88060626Y-88248936D01*
X87880297Y-88030163D01*
X83615137Y-88030163D01*
X83498667Y-88041965D01*
X83378472Y-88028660D01*
X83392834Y-87999260D01*
X83566176Y-87988078D01*
X83604500Y-87999260D01*
X83615137Y-88030163D01*
X87880297Y-88030163D01*
X87714941Y-87829556D01*
X84571112Y-87829556D01*
X84559489Y-87879890D01*
X84514667Y-87886000D01*
X84444977Y-87855022D01*
X84458223Y-87829556D01*
X84558702Y-87819423D01*
X84571112Y-87829556D01*
X87714941Y-87829556D01*
X87658083Y-87760576D01*
X84209143Y-87760576D01*
X84187875Y-87782278D01*
X84013153Y-87792130D01*
X83985500Y-87792894D01*
X83781542Y-87778408D01*
X83673289Y-87731911D01*
X83668000Y-87716667D01*
X83720668Y-87648889D01*
X83891084Y-87660720D01*
X84091334Y-87716667D01*
X84209143Y-87760576D01*
X87658083Y-87760576D01*
X87606975Y-87698574D01*
X84866486Y-87698574D01*
X84756678Y-87689536D01*
X84562056Y-87636791D01*
X84430000Y-87589667D01*
X84266220Y-87514213D01*
X84262383Y-87476669D01*
X84303000Y-87472927D01*
X84499507Y-87505859D01*
X84726334Y-87586609D01*
X84865149Y-87664174D01*
X84866486Y-87698574D01*
X87606975Y-87698574D01*
X87593443Y-87682158D01*
X87322157Y-87394026D01*
X87049167Y-87123623D01*
X86916254Y-87008652D01*
X84301085Y-87008652D01*
X84260667Y-87039334D01*
X84167259Y-87095658D01*
X84082329Y-87112760D01*
X83952628Y-87086562D01*
X83724909Y-87012982D01*
X83668000Y-86993922D01*
X83464410Y-86922580D01*
X83415612Y-86894012D01*
X83514348Y-86901864D01*
X83572750Y-86910540D01*
X83864774Y-86943102D01*
X84123084Y-86955963D01*
X84288172Y-86968111D01*
X84301085Y-87008652D01*
X86916254Y-87008652D01*
X86806314Y-86913554D01*
X86550184Y-86734438D01*
X86515820Y-86714934D01*
X85006209Y-86714934D01*
X84983604Y-86756155D01*
X84895667Y-86793926D01*
X84675067Y-86830948D01*
X84557000Y-86817981D01*
X84365286Y-86769089D01*
X84106209Y-86704242D01*
X84049000Y-86690061D01*
X83815427Y-86618553D01*
X83652926Y-86544192D01*
X83629900Y-86526478D01*
X83571563Y-86499611D01*
X82663750Y-86499611D01*
X82551293Y-86514269D01*
X82525000Y-86514828D01*
X82380405Y-86505676D01*
X82367674Y-86479172D01*
X82375222Y-86475798D01*
X82543302Y-86459049D01*
X82629222Y-86472660D01*
X82663750Y-86499611D01*
X83571563Y-86499611D01*
X83489122Y-86461643D01*
X83333567Y-86437600D01*
X83248801Y-86421420D01*
X83326614Y-86385497D01*
X83480985Y-86347261D01*
X83788387Y-86309126D01*
X84076118Y-86359103D01*
X84215312Y-86407680D01*
X84457351Y-86479397D01*
X84642480Y-86497683D01*
X84690576Y-86484936D01*
X84755581Y-86468652D01*
X84738186Y-86512156D01*
X84761727Y-86603512D01*
X84873271Y-86664765D01*
X85006209Y-86714934D01*
X86515820Y-86714934D01*
X86237361Y-86556893D01*
X85824430Y-86351535D01*
X85680238Y-86282812D01*
X85032517Y-85991789D01*
X85005414Y-85981000D01*
X82398000Y-85981000D01*
X82355667Y-86023334D01*
X82313334Y-85981000D01*
X82355667Y-85938667D01*
X82398000Y-85981000D01*
X85005414Y-85981000D01*
X84430967Y-85752330D01*
X83901289Y-85573223D01*
X83469184Y-85463260D01*
X83188631Y-85430667D01*
X82920241Y-85406094D01*
X82693775Y-85358952D01*
X82426133Y-85327103D01*
X82045387Y-85337891D01*
X82045387Y-85337891D01*
G37*
X82045387Y-85337891D02*
X81600694Y-85385539D01*
X81141214Y-85464268D01*
X80716107Y-85568299D01*
X80597111Y-85605407D01*
X79849415Y-85927188D01*
X79123083Y-86376703D01*
X78478000Y-86916791D01*
X78468114Y-86926510D01*
X78135121Y-87280288D01*
X77849822Y-87631780D01*
X77633968Y-87950212D01*
X77509308Y-88204809D01*
X77487334Y-88314278D01*
X77431557Y-88430398D01*
X77280617Y-88635003D01*
X77059098Y-88896851D01*
X76850779Y-89123202D01*
X76519606Y-89494447D01*
X76261450Y-89849745D01*
X76070278Y-90214954D01*
X75940059Y-90615933D01*
X75864761Y-91078539D01*
X75838351Y-91628630D01*
X75854797Y-92292064D01*
X75908067Y-93094700D01*
X75912204Y-93146618D01*
X75977655Y-93962236D01*
X76315083Y-93966893D01*
X76526989Y-93991294D01*
X76728453Y-94074749D01*
X76969576Y-94242315D01*
X77133423Y-94376186D01*
X77484660Y-94673570D01*
X77729939Y-94888843D01*
X77893874Y-95047710D01*
X78001079Y-95175878D01*
X78076167Y-95299054D01*
X78134154Y-95421334D01*
X78222962Y-95604991D01*
X78279155Y-95649519D01*
X78334204Y-95572528D01*
X78349030Y-95541577D01*
X78479988Y-95373792D01*
X78674023Y-95222334D01*
X78859903Y-95072944D01*
X78969055Y-94913137D01*
X78969554Y-94911590D01*
X79086101Y-94780394D01*
X79278789Y-94746744D01*
X79481967Y-94815620D01*
X79546418Y-94867847D01*
X79635505Y-95018169D01*
X79728168Y-95267524D01*
X79774900Y-95439347D01*
X79977764Y-96093406D01*
X80250925Y-96598258D01*
X80604295Y-96962895D01*
X81047787Y-97196312D01*
X81591314Y-97307500D01*
X81847667Y-97319872D01*
X82411007Y-97307680D01*
X82842826Y-97251715D01*
X83177147Y-97143837D01*
X83447990Y-96975908D01*
X83511790Y-96921782D01*
X83697752Y-96726485D01*
X83912223Y-96458576D01*
X84128157Y-96157815D01*
X84318507Y-95863959D01*
X84456228Y-95616764D01*
X84514274Y-95455989D01*
X84514667Y-95447562D01*
X84569951Y-95256821D01*
X84701944Y-95064492D01*
X84859856Y-94934763D01*
X84937371Y-94913334D01*
X85063904Y-94937741D01*
X85167213Y-95029016D01*
X85262795Y-95214235D01*
X85366148Y-95520475D01*
X85446227Y-95802334D01*
X85548348Y-96150423D01*
X85651541Y-96460784D01*
X85736536Y-96676272D01*
X85750415Y-96704397D01*
X85862410Y-97051839D01*
X85828297Y-97353690D01*
X85669517Y-97588866D01*
X85407515Y-97736280D01*
X85063731Y-97774845D01*
X84729469Y-97708368D01*
X84471318Y-97651579D01*
X84213105Y-97673887D01*
X84043742Y-97718025D01*
X83827845Y-97800247D01*
X83707061Y-97882821D01*
X83696922Y-97916558D01*
X83741083Y-97969363D01*
X83849067Y-97990576D01*
X84057010Y-97982210D01*
X84345334Y-97952665D01*
X84641667Y-97919000D01*
X84633794Y-98286492D01*
X84635535Y-98514021D01*
X84673852Y-98614438D01*
X84778771Y-98629835D01*
X84870355Y-98618109D01*
X85059168Y-98613914D01*
X85158392Y-98652783D01*
X85270144Y-98712980D01*
X85357272Y-98723334D01*
X85512843Y-98784027D01*
X85561285Y-98850333D01*
X85674436Y-98962964D01*
X85739677Y-98977334D01*
X85855009Y-99025159D01*
X85852640Y-99142428D01*
X85744663Y-99289826D01*
X85612803Y-99389828D01*
X85499576Y-99448458D01*
X85365604Y-99488866D01*
X85181755Y-99513193D01*
X84918900Y-99523581D01*
X84547907Y-99522171D01*
X84039646Y-99511103D01*
X83982970Y-99509622D01*
X83506164Y-99498107D01*
X83079512Y-99489780D01*
X82735954Y-99485130D01*
X82508431Y-99484649D01*
X82440334Y-99486640D01*
X82210254Y-99503848D01*
X82112812Y-99510745D01*
X81966476Y-99593931D01*
X81835427Y-99780439D01*
X81752633Y-100005184D01*
X81751060Y-100203080D01*
X81755544Y-100216098D01*
X81817258Y-100314116D01*
X81883118Y-100258470D01*
X82008049Y-100136763D01*
X82153730Y-100045079D01*
X82329806Y-99988954D01*
X82508272Y-100032360D01*
X82609667Y-100084700D01*
X82799665Y-100164095D01*
X83070175Y-100245996D01*
X83372441Y-100319697D01*
X83657708Y-100374491D01*
X83877222Y-100399673D01*
X83981043Y-100385846D01*
X83991560Y-100289705D01*
X83905421Y-100204979D01*
X83792627Y-100194195D01*
X83657881Y-100184754D01*
X83555316Y-100091702D01*
X83530029Y-99974287D01*
X83577854Y-99912053D01*
X83766172Y-99857751D01*
X84040697Y-99841379D01*
X84322803Y-99862094D01*
X84533864Y-99919053D01*
X84540283Y-99922376D01*
X84760781Y-100003515D01*
X84912133Y-100033287D01*
X85136739Y-100100553D01*
X85246409Y-100212772D01*
X85236875Y-100327993D01*
X85103873Y-100404268D01*
X84950771Y-100413196D01*
X84597654Y-100403746D01*
X84374000Y-100427080D01*
X84296287Y-100480956D01*
X84303000Y-100501334D01*
X84282895Y-100573063D01*
X84218334Y-100586000D01*
X84126886Y-100625824D01*
X84133667Y-100670667D01*
X84247114Y-100729332D01*
X84448837Y-100754041D01*
X84456164Y-100754037D01*
X84624227Y-100741973D01*
X84640072Y-100701931D01*
X84599334Y-100670667D01*
X84532202Y-100608686D01*
X84616055Y-100588185D01*
X84660177Y-100587297D01*
X84795796Y-100617723D01*
X84797951Y-100731240D01*
X84796953Y-100734167D01*
X84773885Y-100824334D01*
X84823778Y-100780948D01*
X84872033Y-100720410D01*
X85021041Y-100614281D01*
X85163560Y-100626385D01*
X85240665Y-100741799D01*
X85239984Y-100813596D01*
X85158521Y-100932326D01*
X85035040Y-100940512D01*
X84883912Y-100965453D01*
X84853334Y-101046345D01*
X84781646Y-101155041D01*
X84669501Y-101178667D01*
X84462362Y-101234285D01*
X84328833Y-101320600D01*
X84185717Y-101410934D01*
X84075389Y-101365885D01*
X84072400Y-101362933D01*
X83897020Y-101263485D01*
X83731629Y-101277106D01*
X83627551Y-101381947D01*
X83633577Y-101549750D01*
X83742102Y-101664251D01*
X83960342Y-101802360D01*
X84235863Y-101938897D01*
X84516227Y-102048681D01*
X84748999Y-102106533D01*
X84800246Y-102110000D01*
X85152871Y-102163778D01*
X85392610Y-102309715D01*
X85503925Y-102524719D01*
X85471275Y-102785694D01*
X85372222Y-102960048D01*
X85252041Y-103139532D01*
X85192763Y-103261239D01*
X85191465Y-103270738D01*
X85124848Y-103353442D01*
X84962637Y-103467244D01*
X84937465Y-103481896D01*
X84765472Y-103557405D01*
X84685550Y-103545436D01*
X84684000Y-103535521D01*
X84617263Y-103479975D01*
X84521002Y-103487542D01*
X84402071Y-103489168D01*
X84401700Y-103391584D01*
X84380987Y-103364434D01*
X84279405Y-103450179D01*
X84199019Y-103538002D01*
X84007409Y-103725861D01*
X83813472Y-103808193D01*
X83577488Y-103825585D01*
X83291016Y-103817463D01*
X83041252Y-103794062D01*
X82990667Y-103785480D01*
X82748821Y-103709561D01*
X82487353Y-103587539D01*
X82254310Y-103447325D01*
X82097739Y-103316829D01*
X82059334Y-103244452D01*
X81988669Y-103148892D01*
X81887343Y-103126000D01*
X81724538Y-103070829D01*
X81666618Y-102999000D01*
X81541449Y-102902779D01*
X81293272Y-102872000D01*
X81068443Y-102848554D01*
X80922867Y-102790551D01*
X80908249Y-102774252D01*
X80898270Y-102716315D01*
X80945585Y-102736915D01*
X81032590Y-102740318D01*
X81043334Y-102705006D01*
X80974568Y-102601787D01*
X80895167Y-102558019D01*
X80736656Y-102465373D01*
X80687026Y-102413217D01*
X80595745Y-102372675D01*
X80529559Y-102420575D01*
X80509180Y-102504450D01*
X80584613Y-102643216D01*
X80769810Y-102858493D01*
X80897865Y-102991367D01*
X81134701Y-103216170D01*
X81340321Y-103383142D01*
X81476782Y-103462094D01*
X81492777Y-103464667D01*
X81624070Y-103511028D01*
X81650112Y-103548052D01*
X81742065Y-103606239D01*
X81952547Y-103673287D01*
X82186334Y-103724866D01*
X82489033Y-103786503D01*
X82743929Y-103848803D01*
X82863667Y-103886525D01*
X83343846Y-104065293D01*
X83736278Y-104181452D01*
X84011540Y-104226404D01*
X84027792Y-104226667D01*
X84244397Y-104259996D01*
X84488061Y-104343202D01*
X84703486Y-104451116D01*
X84835374Y-104558568D01*
X84852776Y-104602181D01*
X84809104Y-104729387D01*
X84703586Y-104917560D01*
X84692409Y-104934732D01*
X84601507Y-105142513D01*
X84542512Y-105412251D01*
X84517272Y-105696968D01*
X84527637Y-105949685D01*
X84575458Y-106123422D01*
X84643617Y-106174000D01*
X84744639Y-106201455D01*
X84754071Y-106303751D01*
X84671492Y-106510783D01*
X84637901Y-106579444D01*
X84557410Y-106785039D01*
X84572959Y-106935291D01*
X84615934Y-107015785D01*
X84743790Y-107167718D01*
X84848999Y-107160957D01*
X84901254Y-107096294D01*
X84977687Y-107057651D01*
X85031954Y-107117461D01*
X85086577Y-107158682D01*
X85106904Y-107042545D01*
X85107334Y-107020667D01*
X85121208Y-106884350D01*
X85168248Y-106900619D01*
X85193297Y-106936000D01*
X85273226Y-107020376D01*
X85351330Y-106954695D01*
X85364475Y-106936000D01*
X85412082Y-106908108D01*
X85416777Y-107007666D01*
X85385233Y-107200216D01*
X85324121Y-107451296D01*
X85240114Y-107726447D01*
X85178514Y-107896443D01*
X85066052Y-108146820D01*
X84947625Y-108352697D01*
X84845094Y-108483787D01*
X84780321Y-108509805D01*
X84778411Y-108502334D01*
X84599334Y-108502334D01*
X84557000Y-108544667D01*
X84514667Y-108502334D01*
X84557000Y-108460000D01*
X84599334Y-108502334D01*
X84778411Y-108502334D01*
X84768667Y-108464233D01*
X84699433Y-108367331D01*
X84536995Y-108267685D01*
X84318169Y-108146971D01*
X84170507Y-108036667D01*
X83885124Y-107782597D01*
X83655265Y-107606834D01*
X83508770Y-107530305D01*
X83494650Y-107528667D01*
X83334346Y-107483027D01*
X83090860Y-107365561D01*
X82816917Y-107205449D01*
X82565244Y-107031874D01*
X82493973Y-106974854D01*
X82303663Y-106825455D01*
X82219065Y-106782053D01*
X82228738Y-106828379D01*
X82321239Y-106948167D01*
X82485125Y-107125149D01*
X82708955Y-107343056D01*
X82831804Y-107455159D01*
X83138277Y-107729347D01*
X83436170Y-107996227D01*
X83676058Y-108211505D01*
X83741971Y-108270789D01*
X83978511Y-108461606D01*
X84209995Y-108614299D01*
X84281834Y-108651290D01*
X84446433Y-108741250D01*
X84514667Y-108811052D01*
X84585629Y-108873983D01*
X84758057Y-108951509D01*
X84774044Y-108957188D01*
X84949372Y-109004828D01*
X85049664Y-108963702D01*
X85136012Y-108801635D01*
X85155044Y-108756523D01*
X85235974Y-108533408D01*
X85275806Y-108365881D01*
X85276667Y-108350113D01*
X85312415Y-108229052D01*
X85408757Y-107995239D01*
X85549344Y-107686763D01*
X85658471Y-107460680D01*
X85830702Y-107105940D01*
X85938870Y-106852555D01*
X85994751Y-106650479D01*
X86010117Y-106449665D01*
X85996745Y-106200066D01*
X85985551Y-106070453D01*
X85948364Y-105745302D01*
X85902379Y-105473408D01*
X85857226Y-105311140D01*
X85855043Y-105306681D01*
X85824774Y-105135634D01*
X85829569Y-104851718D01*
X85862643Y-104506142D01*
X85917210Y-104150117D01*
X85986484Y-103834853D01*
X86063679Y-103611560D01*
X86084601Y-103574289D01*
X86207732Y-103374496D01*
X86359578Y-103112953D01*
X86413463Y-103016683D01*
X86833742Y-102249824D01*
X87176008Y-101607760D01*
X87449057Y-101069895D01*
X87661682Y-100615634D01*
X87822678Y-100224383D01*
X87940842Y-99875546D01*
X88024966Y-99548527D01*
X88083847Y-99222733D01*
X88106909Y-99051070D01*
X88179784Y-98691645D01*
X88304495Y-98451929D01*
X88365483Y-98386093D01*
X88506926Y-98188590D01*
X88628626Y-97911383D01*
X88663359Y-97791893D01*
X88742827Y-97536065D01*
X88769959Y-97495667D01*
X87732000Y-97495667D01*
X87689667Y-97538000D01*
X87647334Y-97495667D01*
X87689667Y-97453334D01*
X87732000Y-97495667D01*
X88769959Y-97495667D01*
X88862071Y-97358522D01*
X89069958Y-97195443D01*
X89167822Y-97133003D01*
X89375617Y-96992076D01*
X89523733Y-96847828D01*
X89644888Y-96654553D01*
X89771801Y-96366544D01*
X89838799Y-96195697D01*
X89958846Y-95871509D01*
X90050318Y-95599939D01*
X90098640Y-95425241D01*
X90102667Y-95394435D01*
X90149564Y-95262147D01*
X90269151Y-95054785D01*
X90356667Y-94926770D01*
X90559446Y-94554663D01*
X90610667Y-94280680D01*
X90609739Y-94271278D01*
X79258650Y-94271278D01*
X79243083Y-94381092D01*
X79214181Y-94382403D01*
X79195620Y-94278334D01*
X78249334Y-94278334D01*
X78207000Y-94320667D01*
X78164667Y-94278334D01*
X78207000Y-94236000D01*
X78249334Y-94278334D01*
X79195620Y-94278334D01*
X79193970Y-94269086D01*
X79207497Y-94220125D01*
X79245092Y-94188055D01*
X79258650Y-94271278D01*
X90609739Y-94271278D01*
X90590154Y-94072962D01*
X90501680Y-93971829D01*
X90377834Y-93932098D01*
X89927918Y-93826039D01*
X89621227Y-93743759D01*
X89434739Y-93676845D01*
X89345434Y-93616887D01*
X89330291Y-93555470D01*
X89331713Y-93549817D01*
X89373024Y-93405517D01*
X89443002Y-93162760D01*
X89494773Y-92983715D01*
X89547011Y-92768458D01*
X87727000Y-92768458D01*
X87700590Y-92897375D01*
X87624420Y-93001009D01*
X87291405Y-93221815D01*
X86900062Y-93304622D01*
X86890900Y-93304667D01*
X86710095Y-93323476D01*
X86631443Y-93368924D01*
X86631334Y-93370849D01*
X86557815Y-93431521D01*
X86371217Y-93510401D01*
X86250334Y-93549528D01*
X86025988Y-93629111D01*
X85889076Y-93703397D01*
X85869334Y-93731137D01*
X85823706Y-93797485D01*
X85673104Y-93843253D01*
X85396949Y-93871820D01*
X84974665Y-93886565D01*
X84916834Y-93887512D01*
X84555872Y-93881700D01*
X84331882Y-93852893D01*
X84260667Y-93806961D01*
X84194967Y-93754947D01*
X84095341Y-93769062D01*
X83972542Y-93779157D01*
X83959389Y-93669926D01*
X83962375Y-93653503D01*
X83955769Y-93548390D01*
X83862721Y-93474834D01*
X83647694Y-93409671D01*
X83556201Y-93388763D01*
X83177526Y-93315482D01*
X82732935Y-93244773D01*
X82279864Y-93184276D01*
X81875749Y-93141635D01*
X81578026Y-93124491D01*
X81569616Y-93124445D01*
X81281481Y-93190189D01*
X81146283Y-93299098D01*
X80980193Y-93421843D01*
X80690065Y-93529067D01*
X80259928Y-93625478D01*
X79781815Y-93701120D01*
X79556221Y-93724319D01*
X79466163Y-93705158D01*
X79481646Y-93636958D01*
X79483101Y-93634608D01*
X79558755Y-93461998D01*
X79620864Y-93232368D01*
X79662795Y-92992376D01*
X79677915Y-92788681D01*
X79659590Y-92667940D01*
X79621853Y-92658634D01*
X79575123Y-92638188D01*
X79582414Y-92519833D01*
X79632289Y-92361830D01*
X79705591Y-92232001D01*
X79718608Y-92115512D01*
X79656468Y-92062346D01*
X79613556Y-92012866D01*
X79580116Y-91904935D01*
X79554538Y-91718423D01*
X79535212Y-91433199D01*
X79520529Y-91029133D01*
X79508880Y-90486096D01*
X79503606Y-90150423D01*
X79497687Y-89612262D01*
X79495999Y-89135673D01*
X79498335Y-88745045D01*
X79504486Y-88464766D01*
X79514245Y-88319223D01*
X79519334Y-88304144D01*
X79621559Y-88293566D01*
X79833290Y-88272373D01*
X79965101Y-88259322D01*
X80260358Y-88216886D01*
X80521190Y-88157756D01*
X80590677Y-88135054D01*
X80774096Y-88090681D01*
X80869939Y-88111889D01*
X80845806Y-88183337D01*
X80786882Y-88227974D01*
X80723268Y-88287719D01*
X80812023Y-88307385D01*
X80847837Y-88308037D01*
X81018683Y-88343730D01*
X81085667Y-88394000D01*
X81065562Y-88465729D01*
X81001000Y-88478667D01*
X80911205Y-88520891D01*
X80919901Y-88569106D01*
X81035453Y-88624406D01*
X81096152Y-88613359D01*
X81238225Y-88633615D01*
X81385442Y-88736108D01*
X81592692Y-88884242D01*
X81915493Y-89021845D01*
X82371989Y-89155283D01*
X82948334Y-89284459D01*
X83548254Y-89418769D01*
X83992409Y-89547679D01*
X84294089Y-89675462D01*
X84415614Y-89756166D01*
X84560050Y-89851736D01*
X84806258Y-89991263D01*
X85103128Y-90145899D01*
X85128171Y-90158374D01*
X85466955Y-90345847D01*
X85729638Y-90548991D01*
X85978433Y-90820831D01*
X86121544Y-91005040D01*
X86338330Y-91303788D01*
X86528630Y-91584124D01*
X86657221Y-91793772D01*
X86672627Y-91823000D01*
X86840134Y-92120118D01*
X86996210Y-92288757D01*
X87181127Y-92361685D01*
X87349042Y-92373334D01*
X87554790Y-92385219D01*
X87631739Y-92437296D01*
X87622802Y-92542667D01*
X87618053Y-92677675D01*
X87655260Y-92712000D01*
X87727000Y-92768458D01*
X89547011Y-92768458D01*
X89548605Y-92761892D01*
X89578713Y-92526585D01*
X89586333Y-92237975D01*
X89572706Y-91856246D01*
X89543814Y-91407371D01*
X89509222Y-90947130D01*
X89475751Y-90615731D01*
X89433508Y-90373040D01*
X89372601Y-90178925D01*
X89283136Y-89993251D01*
X89155221Y-89775886D01*
X89132466Y-89738656D01*
X88478312Y-88775000D01*
X81720667Y-88775000D01*
X81678334Y-88817334D01*
X81636000Y-88775000D01*
X81678334Y-88732667D01*
X81720667Y-88775000D01*
X88478312Y-88775000D01*
X88403947Y-88665451D01*
X88060626Y-88248936D01*
X83569686Y-88248936D01*
X83549085Y-88296252D01*
X83463835Y-88387145D01*
X83414825Y-88368500D01*
X83414000Y-88356664D01*
X83474137Y-88285051D01*
X83511749Y-88258915D01*
X83569686Y-88248936D01*
X88060626Y-88248936D01*
X87880297Y-88030163D01*
X83615137Y-88030163D01*
X83498667Y-88041965D01*
X83378472Y-88028660D01*
X83392834Y-87999260D01*
X83566176Y-87988078D01*
X83604500Y-87999260D01*
X83615137Y-88030163D01*
X87880297Y-88030163D01*
X87714941Y-87829556D01*
X84571112Y-87829556D01*
X84559489Y-87879890D01*
X84514667Y-87886000D01*
X84444977Y-87855022D01*
X84458223Y-87829556D01*
X84558702Y-87819423D01*
X84571112Y-87829556D01*
X87714941Y-87829556D01*
X87658083Y-87760576D01*
X84209143Y-87760576D01*
X84187875Y-87782278D01*
X84013153Y-87792130D01*
X83985500Y-87792894D01*
X83781542Y-87778408D01*
X83673289Y-87731911D01*
X83668000Y-87716667D01*
X83720668Y-87648889D01*
X83891084Y-87660720D01*
X84091334Y-87716667D01*
X84209143Y-87760576D01*
X87658083Y-87760576D01*
X87606975Y-87698574D01*
X84866486Y-87698574D01*
X84756678Y-87689536D01*
X84562056Y-87636791D01*
X84430000Y-87589667D01*
X84266220Y-87514213D01*
X84262383Y-87476669D01*
X84303000Y-87472927D01*
X84499507Y-87505859D01*
X84726334Y-87586609D01*
X84865149Y-87664174D01*
X84866486Y-87698574D01*
X87606975Y-87698574D01*
X87593443Y-87682158D01*
X87322157Y-87394026D01*
X87049167Y-87123623D01*
X86916254Y-87008652D01*
X84301085Y-87008652D01*
X84260667Y-87039334D01*
X84167259Y-87095658D01*
X84082329Y-87112760D01*
X83952628Y-87086562D01*
X83724909Y-87012982D01*
X83668000Y-86993922D01*
X83464410Y-86922580D01*
X83415612Y-86894012D01*
X83514348Y-86901864D01*
X83572750Y-86910540D01*
X83864774Y-86943102D01*
X84123084Y-86955963D01*
X84288172Y-86968111D01*
X84301085Y-87008652D01*
X86916254Y-87008652D01*
X86806314Y-86913554D01*
X86550184Y-86734438D01*
X86515820Y-86714934D01*
X85006209Y-86714934D01*
X84983604Y-86756155D01*
X84895667Y-86793926D01*
X84675067Y-86830948D01*
X84557000Y-86817981D01*
X84365286Y-86769089D01*
X84106209Y-86704242D01*
X84049000Y-86690061D01*
X83815427Y-86618553D01*
X83652926Y-86544192D01*
X83629900Y-86526478D01*
X83571563Y-86499611D01*
X82663750Y-86499611D01*
X82551293Y-86514269D01*
X82525000Y-86514828D01*
X82380405Y-86505676D01*
X82367674Y-86479172D01*
X82375222Y-86475798D01*
X82543302Y-86459049D01*
X82629222Y-86472660D01*
X82663750Y-86499611D01*
X83571563Y-86499611D01*
X83489122Y-86461643D01*
X83333567Y-86437600D01*
X83248801Y-86421420D01*
X83326614Y-86385497D01*
X83480985Y-86347261D01*
X83788387Y-86309126D01*
X84076118Y-86359103D01*
X84215312Y-86407680D01*
X84457351Y-86479397D01*
X84642480Y-86497683D01*
X84690576Y-86484936D01*
X84755581Y-86468652D01*
X84738186Y-86512156D01*
X84761727Y-86603512D01*
X84873271Y-86664765D01*
X85006209Y-86714934D01*
X86515820Y-86714934D01*
X86237361Y-86556893D01*
X85824430Y-86351535D01*
X85680238Y-86282812D01*
X85032517Y-85991789D01*
X85005414Y-85981000D01*
X82398000Y-85981000D01*
X82355667Y-86023334D01*
X82313334Y-85981000D01*
X82355667Y-85938667D01*
X82398000Y-85981000D01*
X85005414Y-85981000D01*
X84430967Y-85752330D01*
X83901289Y-85573223D01*
X83469184Y-85463260D01*
X83188631Y-85430667D01*
X82920241Y-85406094D01*
X82693775Y-85358952D01*
X82426133Y-85327103D01*
X82045387Y-85337891D01*
G36*
X69985350Y-108883378D02*
X69867334Y-108938357D01*
X69668521Y-109054517D01*
X69628202Y-109119637D01*
X69741509Y-109127249D01*
X69973167Y-109078971D01*
X70098969Y-108991993D01*
X70121334Y-108925948D01*
X70093856Y-108861023D01*
X69985350Y-108883378D01*
X69985350Y-108883378D01*
G37*
X69985350Y-108883378D02*
X69867334Y-108938357D01*
X69668521Y-109054517D01*
X69628202Y-109119637D01*
X69741509Y-109127249D01*
X69973167Y-109078971D01*
X70098969Y-108991993D01*
X70121334Y-108925948D01*
X70093856Y-108861023D01*
X69985350Y-108883378D01*
G36*
X70396046Y-108639271D02*
X70390705Y-108642949D01*
X70277247Y-108779062D01*
X70299383Y-108946834D01*
X70386120Y-109086090D01*
X70483854Y-109140470D01*
X70542143Y-109087181D01*
X70544667Y-109057664D01*
X70483050Y-108943203D01*
X70458619Y-108924813D01*
X70401945Y-108836372D01*
X70465874Y-108763732D01*
X70603944Y-108750320D01*
X70636459Y-108758595D01*
X70768467Y-108762995D01*
X70798667Y-108717048D01*
X70732673Y-108603643D01*
X70577207Y-108573856D01*
X70396046Y-108639271D01*
X70396046Y-108639271D01*
G37*
X70396046Y-108639271D02*
X70390705Y-108642949D01*
X70277247Y-108779062D01*
X70299383Y-108946834D01*
X70386120Y-109086090D01*
X70483854Y-109140470D01*
X70542143Y-109087181D01*
X70544667Y-109057664D01*
X70483050Y-108943203D01*
X70458619Y-108924813D01*
X70401945Y-108836372D01*
X70465874Y-108763732D01*
X70603944Y-108750320D01*
X70636459Y-108758595D01*
X70768467Y-108762995D01*
X70798667Y-108717048D01*
X70732673Y-108603643D01*
X70577207Y-108573856D01*
X70396046Y-108639271D01*
G36*
X70650532Y-109271229D02*
X70648737Y-109322542D01*
X70733009Y-109434350D01*
X70834463Y-109448566D01*
X70883334Y-109356056D01*
X70815164Y-109239424D01*
X70749278Y-109222000D01*
X70650532Y-109271229D01*
X70650532Y-109271229D01*
G37*
X70650532Y-109271229D02*
X70648737Y-109322542D01*
X70733009Y-109434350D01*
X70834463Y-109448566D01*
X70883334Y-109356056D01*
X70815164Y-109239424D01*
X70749278Y-109222000D01*
X70650532Y-109271229D01*
G36*
X84882104Y-109443499D02*
X84895667Y-109476000D01*
X85007826Y-109557506D01*
X85032661Y-109560667D01*
X85078564Y-109508501D01*
X85065000Y-109476000D01*
X84952841Y-109394494D01*
X84928007Y-109391334D01*
X84882104Y-109443499D01*
X84882104Y-109443499D01*
G37*
X84882104Y-109443499D02*
X84895667Y-109476000D01*
X85007826Y-109557506D01*
X85032661Y-109560667D01*
X85078564Y-109508501D01*
X85065000Y-109476000D01*
X84952841Y-109394494D01*
X84928007Y-109391334D01*
X84882104Y-109443499D01*
G36*
X69782667Y-109518334D02*
X69701897Y-109594416D01*
X69698000Y-109607997D01*
X69763506Y-109644363D01*
X69782667Y-109645334D01*
X69864080Y-109580246D01*
X69867334Y-109555670D01*
X69815464Y-109505104D01*
X69782667Y-109518334D01*
X69782667Y-109518334D01*
G37*
X69782667Y-109518334D02*
X69701897Y-109594416D01*
X69698000Y-109607997D01*
X69763506Y-109644363D01*
X69782667Y-109645334D01*
X69864080Y-109580246D01*
X69867334Y-109555670D01*
X69815464Y-109505104D01*
X69782667Y-109518334D01*
G36*
X69500316Y-109235716D02*
X69403246Y-109279841D01*
X69410560Y-109321055D01*
X69414661Y-109384655D01*
X69331093Y-109366124D01*
X69170374Y-109372186D01*
X68948610Y-109456891D01*
X68893871Y-109487099D01*
X68674476Y-109631247D01*
X68597783Y-109714138D01*
X68663804Y-109726062D01*
X68872552Y-109657312D01*
X68893667Y-109648754D01*
X69104708Y-109611677D01*
X69299614Y-109623711D01*
X69473175Y-109632101D01*
X69511971Y-109561196D01*
X69511280Y-109557977D01*
X69567623Y-109464167D01*
X69752353Y-109390152D01*
X69765797Y-109387119D01*
X70009544Y-109320884D01*
X70084812Y-109268154D01*
X69992068Y-109233635D01*
X69749448Y-109222000D01*
X69500316Y-109235716D01*
X69500316Y-109235716D01*
G37*
X69500316Y-109235716D02*
X69403246Y-109279841D01*
X69410560Y-109321055D01*
X69414661Y-109384655D01*
X69331093Y-109366124D01*
X69170374Y-109372186D01*
X68948610Y-109456891D01*
X68893871Y-109487099D01*
X68674476Y-109631247D01*
X68597783Y-109714138D01*
X68663804Y-109726062D01*
X68872552Y-109657312D01*
X68893667Y-109648754D01*
X69104708Y-109611677D01*
X69299614Y-109623711D01*
X69473175Y-109632101D01*
X69511971Y-109561196D01*
X69511280Y-109557977D01*
X69567623Y-109464167D01*
X69752353Y-109390152D01*
X69765797Y-109387119D01*
X70009544Y-109320884D01*
X70084812Y-109268154D01*
X69992068Y-109233635D01*
X69749448Y-109222000D01*
X69500316Y-109235716D01*
G36*
X85642960Y-109335485D02*
X85644947Y-109433491D01*
X85690709Y-109507138D01*
X85822117Y-109610995D01*
X85978707Y-109674281D01*
X86097015Y-109677601D01*
X86123334Y-109639359D01*
X86060972Y-109542796D01*
X85917593Y-109431471D01*
X85758758Y-109346856D01*
X85650025Y-109330422D01*
X85642960Y-109335485D01*
X85642960Y-109335485D01*
G37*
X85642960Y-109335485D02*
X85644947Y-109433491D01*
X85690709Y-109507138D01*
X85822117Y-109610995D01*
X85978707Y-109674281D01*
X86097015Y-109677601D01*
X86123334Y-109639359D01*
X86060972Y-109542796D01*
X85917593Y-109431471D01*
X85758758Y-109346856D01*
X85650025Y-109330422D01*
X85642960Y-109335485D01*
G36*
X69698000Y-109857000D02*
X69740334Y-109899334D01*
X69782667Y-109857000D01*
X69740334Y-109814667D01*
X69698000Y-109857000D01*
X69698000Y-109857000D01*
G37*
X69698000Y-109857000D02*
X69740334Y-109899334D01*
X69782667Y-109857000D01*
X69740334Y-109814667D01*
X69698000Y-109857000D01*
G36*
X70036667Y-109857000D02*
X70079000Y-109899334D01*
X70121334Y-109857000D01*
X70079000Y-109814667D01*
X70036667Y-109857000D01*
X70036667Y-109857000D01*
G37*
X70036667Y-109857000D02*
X70079000Y-109899334D01*
X70121334Y-109857000D01*
X70079000Y-109814667D01*
X70036667Y-109857000D01*
G36*
X86292667Y-110026334D02*
X86335000Y-110068667D01*
X86377334Y-110026334D01*
X86335000Y-109984000D01*
X86292667Y-110026334D01*
X86292667Y-110026334D01*
G37*
X86292667Y-110026334D02*
X86335000Y-110068667D01*
X86377334Y-110026334D01*
X86335000Y-109984000D01*
X86292667Y-110026334D01*
G36*
X69782667Y-110111000D02*
X69825000Y-110153334D01*
X69867334Y-110111000D01*
X69825000Y-110068667D01*
X69782667Y-110111000D01*
X69782667Y-110111000D01*
G37*
X69782667Y-110111000D02*
X69825000Y-110153334D01*
X69867334Y-110111000D01*
X69825000Y-110068667D01*
X69782667Y-110111000D01*
G36*
X68905501Y-109843452D02*
X68901910Y-109912670D01*
X68899137Y-109976720D01*
X68779907Y-109962930D01*
X68637274Y-109959025D01*
X68597355Y-110071884D01*
X68597334Y-110076593D01*
X68606540Y-110205811D01*
X68618500Y-110229357D01*
X68704825Y-110200364D01*
X68887142Y-110141179D01*
X68909936Y-110133847D01*
X69122362Y-110035845D01*
X69224804Y-109930433D01*
X69203895Y-109846949D01*
X69055346Y-109814667D01*
X68905501Y-109843452D01*
X68905501Y-109843452D01*
G37*
X68905501Y-109843452D02*
X68901910Y-109912670D01*
X68899137Y-109976720D01*
X68779907Y-109962930D01*
X68637274Y-109959025D01*
X68597355Y-110071884D01*
X68597334Y-110076593D01*
X68606540Y-110205811D01*
X68618500Y-110229357D01*
X68704825Y-110200364D01*
X68887142Y-110141179D01*
X68909936Y-110133847D01*
X69122362Y-110035845D01*
X69224804Y-109930433D01*
X69203895Y-109846949D01*
X69055346Y-109814667D01*
X68905501Y-109843452D01*
G36*
X70063230Y-110123357D02*
X70079000Y-110153334D01*
X70158775Y-110234190D01*
X70173661Y-110238000D01*
X70179437Y-110183310D01*
X70163667Y-110153334D01*
X70083893Y-110072477D01*
X70069007Y-110068667D01*
X70063230Y-110123357D01*
X70063230Y-110123357D01*
G37*
X70063230Y-110123357D02*
X70079000Y-110153334D01*
X70158775Y-110234190D01*
X70173661Y-110238000D01*
X70179437Y-110183310D01*
X70163667Y-110153334D01*
X70083893Y-110072477D01*
X70069007Y-110068667D01*
X70063230Y-110123357D01*
G36*
X68454304Y-110005167D02*
X68441137Y-110219901D01*
X68454304Y-110301500D01*
X68478845Y-110327851D01*
X68492205Y-110210778D01*
X68493024Y-110153334D01*
X68484197Y-109999298D01*
X68462220Y-109981144D01*
X68454304Y-110005167D01*
X68454304Y-110005167D01*
G37*
X68454304Y-110005167D02*
X68441137Y-110219901D01*
X68454304Y-110301500D01*
X68478845Y-110327851D01*
X68492205Y-110210778D01*
X68493024Y-110153334D01*
X68484197Y-109999298D01*
X68462220Y-109981144D01*
X68454304Y-110005167D01*
G36*
X68625556Y-110689556D02*
X68637178Y-110739890D01*
X68682000Y-110746000D01*
X68751691Y-110715022D01*
X68738445Y-110689556D01*
X68637965Y-110679423D01*
X68625556Y-110689556D01*
X68625556Y-110689556D01*
G37*
X68625556Y-110689556D02*
X68637178Y-110739890D01*
X68682000Y-110746000D01*
X68751691Y-110715022D01*
X68738445Y-110689556D01*
X68637965Y-110679423D01*
X68625556Y-110689556D01*
G36*
X68428697Y-110863890D02*
X68428000Y-110904967D01*
X68478557Y-111050951D01*
X68555000Y-111084667D01*
X68667751Y-111044459D01*
X68682000Y-111010367D01*
X68624075Y-110900025D01*
X68555000Y-110830667D01*
X68457687Y-110776133D01*
X68428697Y-110863890D01*
X68428697Y-110863890D01*
G37*
X68428697Y-110863890D02*
X68428000Y-110904967D01*
X68478557Y-111050951D01*
X68555000Y-111084667D01*
X68667751Y-111044459D01*
X68682000Y-111010367D01*
X68624075Y-110900025D01*
X68555000Y-110830667D01*
X68457687Y-110776133D01*
X68428697Y-110863890D01*
G36*
X68625556Y-111536222D02*
X68637178Y-111586557D01*
X68682000Y-111592667D01*
X68751691Y-111561689D01*
X68738445Y-111536222D01*
X68637965Y-111526089D01*
X68625556Y-111536222D01*
X68625556Y-111536222D01*
G37*
X68625556Y-111536222D02*
X68637178Y-111586557D01*
X68682000Y-111592667D01*
X68751691Y-111561689D01*
X68738445Y-111536222D01*
X68637965Y-111526089D01*
X68625556Y-111536222D01*
G36*
X86551077Y-110277339D02*
X86546667Y-110317413D01*
X86565199Y-110438319D01*
X86614159Y-110679126D01*
X86683598Y-110995286D01*
X86763567Y-111342251D01*
X86844113Y-111675474D01*
X86891791Y-111862551D01*
X87028993Y-112148630D01*
X87225841Y-112300561D01*
X87402807Y-112373527D01*
X87472709Y-112353222D01*
X87478000Y-112319394D01*
X87449793Y-112184586D01*
X87375152Y-111934903D01*
X87269048Y-111613278D01*
X87146451Y-111262646D01*
X87022332Y-110925939D01*
X86911661Y-110646091D01*
X86836244Y-110478935D01*
X86720211Y-110310021D01*
X86613093Y-110236094D01*
X86551077Y-110277339D01*
X86551077Y-110277339D01*
G37*
X86551077Y-110277339D02*
X86546667Y-110317413D01*
X86565199Y-110438319D01*
X86614159Y-110679126D01*
X86683598Y-110995286D01*
X86763567Y-111342251D01*
X86844113Y-111675474D01*
X86891791Y-111862551D01*
X87028993Y-112148630D01*
X87225841Y-112300561D01*
X87402807Y-112373527D01*
X87472709Y-112353222D01*
X87478000Y-112319394D01*
X87449793Y-112184586D01*
X87375152Y-111934903D01*
X87269048Y-111613278D01*
X87146451Y-111262646D01*
X87022332Y-110925939D01*
X86911661Y-110646091D01*
X86836244Y-110478935D01*
X86720211Y-110310021D01*
X86613093Y-110236094D01*
X86551077Y-110277339D01*
G36*
X84499924Y-110613633D02*
X84393988Y-110797657D01*
X84271088Y-111062334D01*
X84261672Y-111084667D01*
X84031259Y-111635000D01*
X84225852Y-112016000D01*
X84404879Y-112332309D01*
X84583037Y-112589522D01*
X84738454Y-112761361D01*
X84849256Y-112821549D01*
X84880518Y-112802513D01*
X84889929Y-112675908D01*
X84853509Y-112450672D01*
X84815256Y-112301615D01*
X84692441Y-111743643D01*
X84668204Y-111219157D01*
X84671233Y-111156093D01*
X84707163Y-110995163D01*
X84809513Y-110965444D01*
X84842600Y-110972661D01*
X84985410Y-111044520D01*
X85224235Y-111199362D01*
X85525156Y-111411587D01*
X85854251Y-111655595D01*
X86177599Y-111905785D01*
X86461280Y-112136558D01*
X86671373Y-112322313D01*
X86765512Y-112423888D01*
X86906126Y-112563175D01*
X87019839Y-112608667D01*
X87092449Y-112558947D01*
X87048946Y-112425105D01*
X86904378Y-112230117D01*
X86673795Y-111996959D01*
X86546667Y-111886279D01*
X86340777Y-111725723D01*
X86057749Y-111519564D01*
X85730045Y-111289731D01*
X85390129Y-111058152D01*
X85070463Y-110846757D01*
X84803510Y-110677475D01*
X84621734Y-110572234D01*
X84566876Y-110548916D01*
X84499924Y-110613633D01*
X84499924Y-110613633D01*
G37*
X84499924Y-110613633D02*
X84393988Y-110797657D01*
X84271088Y-111062334D01*
X84261672Y-111084667D01*
X84031259Y-111635000D01*
X84225852Y-112016000D01*
X84404879Y-112332309D01*
X84583037Y-112589522D01*
X84738454Y-112761361D01*
X84849256Y-112821549D01*
X84880518Y-112802513D01*
X84889929Y-112675908D01*
X84853509Y-112450672D01*
X84815256Y-112301615D01*
X84692441Y-111743643D01*
X84668204Y-111219157D01*
X84671233Y-111156093D01*
X84707163Y-110995163D01*
X84809513Y-110965444D01*
X84842600Y-110972661D01*
X84985410Y-111044520D01*
X85224235Y-111199362D01*
X85525156Y-111411587D01*
X85854251Y-111655595D01*
X86177599Y-111905785D01*
X86461280Y-112136558D01*
X86671373Y-112322313D01*
X86765512Y-112423888D01*
X86906126Y-112563175D01*
X87019839Y-112608667D01*
X87092449Y-112558947D01*
X87048946Y-112425105D01*
X86904378Y-112230117D01*
X86673795Y-111996959D01*
X86546667Y-111886279D01*
X86340777Y-111725723D01*
X86057749Y-111519564D01*
X85730045Y-111289731D01*
X85390129Y-111058152D01*
X85070463Y-110846757D01*
X84803510Y-110677475D01*
X84621734Y-110572234D01*
X84566876Y-110548916D01*
X84499924Y-110613633D01*
G36*
X86730010Y-112767550D02*
X86683405Y-112831817D01*
X86791397Y-112885625D01*
X86814677Y-112892098D01*
X87023693Y-112938693D01*
X87117008Y-112921016D01*
X87139281Y-112829197D01*
X87139334Y-112820334D01*
X87073151Y-112719685D01*
X86915743Y-112699691D01*
X86730010Y-112767550D01*
X86730010Y-112767550D01*
G37*
X86730010Y-112767550D02*
X86683405Y-112831817D01*
X86791397Y-112885625D01*
X86814677Y-112892098D01*
X87023693Y-112938693D01*
X87117008Y-112921016D01*
X87139281Y-112829197D01*
X87139334Y-112820334D01*
X87073151Y-112719685D01*
X86915743Y-112699691D01*
X86730010Y-112767550D01*
G36*
X87096487Y-113196375D02*
X87104580Y-113381018D01*
X87107010Y-113395591D01*
X87169569Y-113670897D01*
X87239297Y-113894723D01*
X87285312Y-114087452D01*
X87273108Y-114206373D01*
X87280661Y-114319779D01*
X87307286Y-114343480D01*
X87380346Y-114464057D01*
X87393334Y-114556000D01*
X87430395Y-114716119D01*
X87511881Y-114767157D01*
X87593240Y-114682841D01*
X87596129Y-114675589D01*
X87642444Y-114458299D01*
X87617926Y-114193804D01*
X87516919Y-113838929D01*
X87468651Y-113702330D01*
X87347132Y-113416477D01*
X87233864Y-113227762D01*
X87144948Y-113149842D01*
X87096487Y-113196375D01*
X87096487Y-113196375D01*
G37*
X87096487Y-113196375D02*
X87104580Y-113381018D01*
X87107010Y-113395591D01*
X87169569Y-113670897D01*
X87239297Y-113894723D01*
X87285312Y-114087452D01*
X87273108Y-114206373D01*
X87280661Y-114319779D01*
X87307286Y-114343480D01*
X87380346Y-114464057D01*
X87393334Y-114556000D01*
X87430395Y-114716119D01*
X87511881Y-114767157D01*
X87593240Y-114682841D01*
X87596129Y-114675589D01*
X87642444Y-114458299D01*
X87617926Y-114193804D01*
X87516919Y-113838929D01*
X87468651Y-113702330D01*
X87347132Y-113416477D01*
X87233864Y-113227762D01*
X87144948Y-113149842D01*
X87096487Y-113196375D01*
G36*
X86061847Y-112857322D02*
X85894805Y-113058753D01*
X85708132Y-113354353D01*
X85537094Y-113685292D01*
X85389527Y-113951417D01*
X85183905Y-114264338D01*
X85026908Y-114476062D01*
X84816079Y-114769572D01*
X84700677Y-114990143D01*
X84688394Y-115119343D01*
X84747500Y-115145454D01*
X84828346Y-115080008D01*
X84965882Y-114916043D01*
X85061885Y-114785620D01*
X85227062Y-114543516D01*
X85428083Y-114238064D01*
X85645216Y-113900652D01*
X85858729Y-113562671D01*
X86048889Y-113255509D01*
X86195965Y-113010556D01*
X86280225Y-112859200D01*
X86292667Y-112827727D01*
X86225434Y-112783516D01*
X86186834Y-112781262D01*
X86061847Y-112857322D01*
X86061847Y-112857322D01*
G37*
X86061847Y-112857322D02*
X85894805Y-113058753D01*
X85708132Y-113354353D01*
X85537094Y-113685292D01*
X85389527Y-113951417D01*
X85183905Y-114264338D01*
X85026908Y-114476062D01*
X84816079Y-114769572D01*
X84700677Y-114990143D01*
X84688394Y-115119343D01*
X84747500Y-115145454D01*
X84828346Y-115080008D01*
X84965882Y-114916043D01*
X85061885Y-114785620D01*
X85227062Y-114543516D01*
X85428083Y-114238064D01*
X85645216Y-113900652D01*
X85858729Y-113562671D01*
X86048889Y-113255509D01*
X86195965Y-113010556D01*
X86280225Y-112859200D01*
X86292667Y-112827727D01*
X86225434Y-112783516D01*
X86186834Y-112781262D01*
X86061847Y-112857322D01*
G36*
X88166777Y-115196786D02*
X88160627Y-115202402D01*
X88093332Y-115353997D01*
X88094302Y-115498735D01*
X88125433Y-115599710D01*
X88143804Y-115557758D01*
X88182330Y-115353596D01*
X88210128Y-115261425D01*
X88231993Y-115159966D01*
X88166777Y-115196786D01*
X88166777Y-115196786D01*
G37*
X88166777Y-115196786D02*
X88160627Y-115202402D01*
X88093332Y-115353997D01*
X88094302Y-115498735D01*
X88125433Y-115599710D01*
X88143804Y-115557758D01*
X88182330Y-115353596D01*
X88210128Y-115261425D01*
X88231993Y-115159966D01*
X88166777Y-115196786D01*
G36*
X77419939Y-103323783D02*
X77260142Y-103506847D01*
X77071413Y-103766011D01*
X76914573Y-104010657D01*
X76559133Y-104580830D01*
X76266189Y-105012486D01*
X76024494Y-105319541D01*
X75822801Y-105515912D01*
X75649864Y-105615515D01*
X75608110Y-105627303D01*
X75324003Y-105739040D01*
X74974328Y-105952277D01*
X74605495Y-106238262D01*
X74366936Y-106435054D01*
X74103557Y-106639314D01*
X73853197Y-106823333D01*
X73653694Y-106959403D01*
X73542886Y-107019815D01*
X73537083Y-107020667D01*
X73432227Y-107064674D01*
X73235507Y-107178799D01*
X73041204Y-107304118D01*
X72748019Y-107481867D01*
X72452371Y-107631412D01*
X72300721Y-107691941D01*
X72112319Y-107774424D01*
X72027939Y-107853825D01*
X72030551Y-107874157D01*
X71995279Y-107930220D01*
X71851630Y-107952000D01*
X71699463Y-107965477D01*
X71690059Y-108024605D01*
X71732595Y-108082126D01*
X71885246Y-108185474D01*
X71975795Y-108199377D01*
X72278455Y-108192808D01*
X72443263Y-108250205D01*
X72492000Y-108375334D01*
X72436392Y-108515360D01*
X72358953Y-108544667D01*
X72185981Y-108600998D01*
X72117663Y-108652909D01*
X72052540Y-108765816D01*
X72120137Y-108864576D01*
X72261083Y-108954460D01*
X72319094Y-108968000D01*
X72385418Y-109040434D01*
X72407334Y-109179667D01*
X72361030Y-109352661D01*
X72271275Y-109391334D01*
X72174916Y-109338772D01*
X72182297Y-109268645D01*
X72178540Y-109182736D01*
X72106689Y-109193037D01*
X72002576Y-109175059D01*
X71984000Y-109097003D01*
X71935091Y-108992809D01*
X71878167Y-108989167D01*
X71781100Y-109093105D01*
X71772334Y-109143230D01*
X71711659Y-109252712D01*
X71585670Y-109290347D01*
X71478417Y-109239880D01*
X71461973Y-109203243D01*
X71409665Y-109150540D01*
X71294390Y-109231987D01*
X71272129Y-109254115D01*
X71164059Y-109370407D01*
X71180978Y-109396281D01*
X71293296Y-109370298D01*
X71435394Y-109359195D01*
X71476000Y-109392335D01*
X71499875Y-109525246D01*
X71526321Y-109617242D01*
X71551149Y-109717708D01*
X71502274Y-109668653D01*
X71485284Y-109645334D01*
X71409783Y-109575114D01*
X71392630Y-109624167D01*
X71323670Y-109719407D01*
X71271389Y-109730000D01*
X71138151Y-109666405D01*
X71112639Y-109624167D01*
X71054798Y-109564951D01*
X70957417Y-109634750D01*
X70887233Y-109737779D01*
X70946834Y-109789972D01*
X71043627Y-109891962D01*
X71021377Y-110026377D01*
X70932239Y-110096763D01*
X70849389Y-110206601D01*
X70854949Y-110307932D01*
X70854100Y-110458563D01*
X70790059Y-110534265D01*
X70708355Y-110497595D01*
X70683196Y-110449181D01*
X70570838Y-110349528D01*
X70399057Y-110325808D01*
X70261336Y-110388359D01*
X70251950Y-110401483D01*
X70262567Y-110510223D01*
X70289286Y-110533480D01*
X70373248Y-110643556D01*
X70311382Y-110730552D01*
X70224817Y-110746000D01*
X70057913Y-110685489D01*
X69929312Y-110576667D01*
X69784854Y-110448627D01*
X69684071Y-110407334D01*
X69667109Y-110458999D01*
X69753299Y-110586496D01*
X69782354Y-110618666D01*
X69900167Y-110774349D01*
X69928986Y-110879252D01*
X69923778Y-110887111D01*
X69831401Y-110874239D01*
X69829635Y-110873000D01*
X69528667Y-110873000D01*
X69486334Y-110915334D01*
X69444000Y-110873000D01*
X69486334Y-110830667D01*
X69528667Y-110873000D01*
X69829635Y-110873000D01*
X69679726Y-110767886D01*
X69655333Y-110745687D01*
X69517093Y-110641269D01*
X69446454Y-110637923D01*
X69444000Y-110651572D01*
X69394663Y-110715976D01*
X69359508Y-110703774D01*
X69239944Y-110709813D01*
X69057229Y-110784539D01*
X68879264Y-110891692D01*
X68773948Y-110995012D01*
X68766667Y-111020372D01*
X68839893Y-111082507D01*
X69017152Y-111138944D01*
X69027496Y-111141066D01*
X69192370Y-111190923D01*
X69200603Y-111248793D01*
X69175663Y-111268521D01*
X69149110Y-111310380D01*
X69276335Y-111294343D01*
X69288497Y-111291568D01*
X69520666Y-111297205D01*
X69687840Y-111413173D01*
X69861687Y-111587020D01*
X69688959Y-111708004D01*
X69580395Y-111822789D01*
X69610824Y-111887449D01*
X69749109Y-111891766D01*
X69815858Y-111854255D01*
X69936775Y-111817675D01*
X70053271Y-111910466D01*
X70162714Y-112052244D01*
X70247395Y-112184184D01*
X70282011Y-112262346D01*
X70248531Y-112249568D01*
X70133536Y-112239239D01*
X70076355Y-112272195D01*
X69918238Y-112316996D01*
X69893000Y-112312334D01*
X69528667Y-112312334D01*
X69486334Y-112354667D01*
X69444000Y-112312334D01*
X69486334Y-112270000D01*
X69528667Y-112312334D01*
X69893000Y-112312334D01*
X69820756Y-112298989D01*
X69716479Y-112247717D01*
X69766775Y-112202720D01*
X69831191Y-112176479D01*
X69923163Y-112129750D01*
X69867116Y-112105711D01*
X69761500Y-112096034D01*
X69567274Y-112076428D01*
X69465167Y-112057527D01*
X69341168Y-112016145D01*
X69211167Y-111973569D01*
X69063673Y-111897985D01*
X69020667Y-111836792D01*
X69072883Y-111765767D01*
X69193895Y-111807860D01*
X69248178Y-111854044D01*
X69351682Y-111896242D01*
X69405046Y-111841200D01*
X69397944Y-111721126D01*
X69284318Y-111602247D01*
X69120900Y-111530722D01*
X69022305Y-111529789D01*
X68921768Y-111620900D01*
X68915952Y-111690275D01*
X68875974Y-111852650D01*
X68813528Y-111927576D01*
X68723464Y-111981008D01*
X68715224Y-111897524D01*
X68722882Y-111854204D01*
X68707264Y-111708216D01*
X68641861Y-111677334D01*
X68509071Y-111610986D01*
X68485205Y-111571500D01*
X68475117Y-111627097D01*
X68465470Y-111833343D01*
X68456604Y-112171553D01*
X68448856Y-112623045D01*
X68442565Y-113169133D01*
X68438070Y-113791134D01*
X68436121Y-114280834D01*
X68428611Y-117096000D01*
X69592472Y-117097949D01*
X69942760Y-117098883D01*
X70435543Y-117100696D01*
X71043987Y-117103265D01*
X71741258Y-117106466D01*
X72500521Y-117110176D01*
X73294941Y-117114270D01*
X74097684Y-117118626D01*
X74185334Y-117119116D01*
X75106781Y-117123101D01*
X76126253Y-117125468D01*
X77196056Y-117126240D01*
X78268496Y-117125439D01*
X79295877Y-117123086D01*
X80230505Y-117119203D01*
X80731206Y-117116118D01*
X83848079Y-117093903D01*
X83810419Y-116969000D01*
X70206000Y-116969000D01*
X70163667Y-117011334D01*
X70121334Y-116969000D01*
X70163667Y-116926667D01*
X70206000Y-116969000D01*
X83810419Y-116969000D01*
X83790956Y-116904451D01*
X83715793Y-116686187D01*
X83627678Y-116461000D01*
X83557220Y-116291667D01*
X69698000Y-116291667D01*
X69655667Y-116334000D01*
X69613334Y-116291667D01*
X69655667Y-116249334D01*
X69698000Y-116291667D01*
X83557220Y-116291667D01*
X83456789Y-116050299D01*
X69613334Y-116050299D01*
X69567009Y-116129228D01*
X69472316Y-116249431D01*
X69395676Y-116327692D01*
X69389457Y-116330780D01*
X69384486Y-116261259D01*
X69389457Y-116133134D01*
X69435065Y-115988063D01*
X69507500Y-115972859D01*
X69605159Y-116033001D01*
X69613334Y-116050299D01*
X83456789Y-116050299D01*
X83317962Y-115716655D01*
X69578890Y-115716655D01*
X69567385Y-115747184D01*
X69485651Y-115822258D01*
X69445657Y-115736751D01*
X69444000Y-115694003D01*
X69485657Y-115606801D01*
X69530048Y-115615187D01*
X69578890Y-115716655D01*
X83317962Y-115716655D01*
X83293523Y-115657923D01*
X83258223Y-115572000D01*
X69274667Y-115572000D01*
X69243689Y-115641690D01*
X69218223Y-115628445D01*
X69208090Y-115527965D01*
X69218223Y-115515556D01*
X69268557Y-115527178D01*
X69274667Y-115572000D01*
X83258223Y-115572000D01*
X83023017Y-114999499D01*
X82827601Y-114513667D01*
X68851334Y-114513667D01*
X68809000Y-114556000D01*
X68766667Y-114513667D01*
X68809000Y-114471334D01*
X68851334Y-114513667D01*
X82827601Y-114513667D01*
X82812115Y-114475167D01*
X82777815Y-114386667D01*
X70883334Y-114386667D01*
X70852356Y-114456357D01*
X70826889Y-114443111D01*
X70816756Y-114342632D01*
X70826889Y-114330222D01*
X70877224Y-114341845D01*
X70883334Y-114386667D01*
X82777815Y-114386667D01*
X82682712Y-114141286D01*
X68651950Y-114141286D01*
X68622995Y-114268715D01*
X68571036Y-114380494D01*
X68541871Y-114335198D01*
X68528851Y-114274207D01*
X68525892Y-114119629D01*
X68547516Y-114069596D01*
X68625383Y-114047173D01*
X68651950Y-114141286D01*
X82682712Y-114141286D01*
X82656774Y-114074363D01*
X82568371Y-113829278D01*
X68590650Y-113829278D01*
X68575083Y-113939092D01*
X68546181Y-113940403D01*
X68525970Y-113827086D01*
X68539497Y-113778125D01*
X68577092Y-113746055D01*
X68590650Y-113829278D01*
X82568371Y-113829278D01*
X82552950Y-113786527D01*
X82496598Y-113601097D01*
X82483674Y-113507512D01*
X82491043Y-113492491D01*
X82501516Y-113398889D01*
X71024445Y-113398889D01*
X71012823Y-113449223D01*
X70968000Y-113455334D01*
X70898310Y-113424355D01*
X70911556Y-113398889D01*
X71012036Y-113388756D01*
X71024445Y-113398889D01*
X82501516Y-113398889D01*
X82501910Y-113395373D01*
X82488133Y-113365670D01*
X70460000Y-113365670D01*
X70398540Y-113451888D01*
X70375334Y-113455334D01*
X70292868Y-113426447D01*
X70290667Y-113417997D01*
X70349996Y-113345711D01*
X70375334Y-113328334D01*
X70453353Y-113335046D01*
X70460000Y-113365670D01*
X82488133Y-113365670D01*
X82424996Y-113229556D01*
X70093112Y-113229556D01*
X70081489Y-113279890D01*
X70036667Y-113286000D01*
X69966977Y-113255022D01*
X69980223Y-113229556D01*
X70080702Y-113219423D01*
X70093112Y-113229556D01*
X82424996Y-113229556D01*
X82414442Y-113206804D01*
X82295853Y-113032000D01*
X71222000Y-113032000D01*
X71191022Y-113101690D01*
X71165556Y-113088445D01*
X71155423Y-112987965D01*
X71165556Y-112975556D01*
X71215890Y-112987178D01*
X71222000Y-113032000D01*
X82295853Y-113032000D01*
X82246191Y-112958798D01*
X82217454Y-112923420D01*
X70826149Y-112923420D01*
X70825608Y-112999250D01*
X70736653Y-113091330D01*
X70616885Y-113114847D01*
X70546122Y-113057688D01*
X70544667Y-113041875D01*
X70614915Y-112962092D01*
X70707666Y-112924458D01*
X70826149Y-112923420D01*
X82217454Y-112923420D01*
X82099328Y-112778000D01*
X82077806Y-112747371D01*
X70536454Y-112747371D01*
X70454834Y-112877012D01*
X70432427Y-112903470D01*
X70263452Y-113068068D01*
X70160690Y-113109066D01*
X70140786Y-113020284D01*
X70142500Y-113011140D01*
X70239385Y-112852832D01*
X70410846Y-112726017D01*
X70517094Y-112696026D01*
X70536454Y-112747371D01*
X82077806Y-112747371D01*
X81969192Y-112592800D01*
X81893945Y-112463603D01*
X70869686Y-112463603D01*
X70849085Y-112510918D01*
X70763835Y-112601812D01*
X70714825Y-112583166D01*
X70714000Y-112571330D01*
X70774137Y-112499718D01*
X70811749Y-112473582D01*
X70869686Y-112463603D01*
X81893945Y-112463603D01*
X81806948Y-112314232D01*
X81774941Y-112251693D01*
X70654420Y-112251693D01*
X70560215Y-112336087D01*
X70534502Y-112354667D01*
X70362124Y-112495910D01*
X70150073Y-112691103D01*
X70091637Y-112748540D01*
X69879848Y-112943940D01*
X69756671Y-113020313D01*
X69730788Y-112973189D01*
X69746536Y-112926167D01*
X69834428Y-112819265D01*
X70014746Y-112656495D01*
X70128212Y-112566334D01*
X69782667Y-112566334D01*
X69740334Y-112608667D01*
X69698000Y-112566334D01*
X69740334Y-112524000D01*
X69782667Y-112566334D01*
X70128212Y-112566334D01*
X70169675Y-112533388D01*
X70382258Y-112367425D01*
X70478312Y-112262161D01*
X70477647Y-112177865D01*
X70400071Y-112074808D01*
X70398963Y-112073535D01*
X70248334Y-111900628D01*
X70479532Y-112064148D01*
X70630982Y-112179315D01*
X70654420Y-112251693D01*
X81774941Y-112251693D01*
X81654314Y-112016000D01*
X81613934Y-111931334D01*
X76457965Y-111931334D01*
X76444660Y-112051529D01*
X76415261Y-112037167D01*
X76404078Y-111863825D01*
X76412168Y-111836097D01*
X70184001Y-111836097D01*
X70121979Y-111795517D01*
X70110828Y-111784578D01*
X70043951Y-111673570D01*
X70053019Y-111632760D01*
X70116000Y-111658168D01*
X70158224Y-111737182D01*
X70184001Y-111836097D01*
X76412168Y-111836097D01*
X76415261Y-111825500D01*
X76446163Y-111814864D01*
X76457965Y-111931334D01*
X81613934Y-111931334D01*
X81425487Y-111536222D01*
X78983112Y-111536222D01*
X78971489Y-111586557D01*
X78926667Y-111592667D01*
X78856977Y-111561689D01*
X78870223Y-111536222D01*
X78970702Y-111526089D01*
X78983112Y-111536222D01*
X81425487Y-111536222D01*
X81322023Y-111319293D01*
X81297516Y-111268320D01*
X70121334Y-111268320D01*
X70064445Y-111279959D01*
X69926614Y-111201174D01*
X69917504Y-111194453D01*
X69798837Y-111081155D01*
X69789988Y-111014619D01*
X69793350Y-111013162D01*
X69920749Y-111039157D01*
X70057185Y-111145087D01*
X70121331Y-111267684D01*
X70121334Y-111268320D01*
X81297516Y-111268320D01*
X81229568Y-111127000D01*
X71137334Y-111127000D01*
X71095000Y-111169334D01*
X71052667Y-111127000D01*
X71095000Y-111084667D01*
X71137334Y-111127000D01*
X81229568Y-111127000D01*
X81048969Y-110751384D01*
X80822747Y-110287640D01*
X80819100Y-110280334D01*
X71476000Y-110280334D01*
X71433667Y-110322667D01*
X71391334Y-110280334D01*
X71433667Y-110238000D01*
X71476000Y-110280334D01*
X80819100Y-110280334D01*
X80755704Y-110153334D01*
X71264334Y-110153334D01*
X71257621Y-110231352D01*
X71226997Y-110238000D01*
X71140779Y-110176540D01*
X71137334Y-110153334D01*
X71166221Y-110070868D01*
X71174670Y-110068667D01*
X71246956Y-110127996D01*
X71264334Y-110153334D01*
X80755704Y-110153334D01*
X80630954Y-109903427D01*
X80516088Y-109680611D01*
X76464650Y-109680611D01*
X76449083Y-109790425D01*
X76420181Y-109791736D01*
X76399970Y-109678419D01*
X76413497Y-109629459D01*
X76451092Y-109597388D01*
X76464650Y-109680611D01*
X80516088Y-109680611D01*
X80487466Y-109625091D01*
X77958612Y-109625091D01*
X77875389Y-109638649D01*
X77765575Y-109623083D01*
X77764264Y-109594181D01*
X77877581Y-109573969D01*
X77926542Y-109587497D01*
X77958612Y-109625091D01*
X80487466Y-109625091D01*
X80461185Y-109574112D01*
X80301036Y-109275063D01*
X80248063Y-109179667D01*
X79011334Y-109179667D01*
X78969000Y-109222000D01*
X78926667Y-109179667D01*
X78969000Y-109137334D01*
X79011334Y-109179667D01*
X80248063Y-109179667D01*
X80138101Y-108981644D01*
X80106315Y-108925667D01*
X79011334Y-108925667D01*
X78969000Y-108968000D01*
X78926667Y-108925667D01*
X76894667Y-108925667D01*
X76852334Y-108968000D01*
X76810000Y-108925667D01*
X76852334Y-108883334D01*
X76894667Y-108925667D01*
X78926667Y-108925667D01*
X78969000Y-108883334D01*
X79011334Y-108925667D01*
X80106315Y-108925667D01*
X80034198Y-108798667D01*
X79962009Y-108671667D01*
X78926667Y-108671667D01*
X78884334Y-108714000D01*
X78842000Y-108671667D01*
X78884334Y-108629334D01*
X78926667Y-108671667D01*
X79962009Y-108671667D01*
X79831275Y-108441671D01*
X79774167Y-108340056D01*
X77572000Y-108340056D01*
X77522647Y-108432774D01*
X77421097Y-108417989D01*
X77337403Y-108306542D01*
X77362237Y-108248334D01*
X76725334Y-108248334D01*
X76683000Y-108290667D01*
X76640667Y-108248334D01*
X76683000Y-108206000D01*
X76725334Y-108248334D01*
X77362237Y-108248334D01*
X77374252Y-108220175D01*
X77437945Y-108206000D01*
X77554577Y-108274170D01*
X77572000Y-108340056D01*
X79774167Y-108340056D01*
X79735033Y-108270425D01*
X78805279Y-108270425D01*
X78722056Y-108283983D01*
X78612242Y-108268416D01*
X78611332Y-108248334D01*
X78334000Y-108248334D01*
X78291667Y-108290667D01*
X78249334Y-108248334D01*
X78291667Y-108206000D01*
X78334000Y-108248334D01*
X78611332Y-108248334D01*
X78610931Y-108239514D01*
X78724248Y-108219303D01*
X78773209Y-108232830D01*
X78805279Y-108270425D01*
X79735033Y-108270425D01*
X79672480Y-108159122D01*
X76972563Y-108159122D01*
X76883879Y-108169648D01*
X76852334Y-108161010D01*
X76801193Y-108144881D01*
X76195139Y-108144881D01*
X76179560Y-108198623D01*
X76095811Y-108285521D01*
X76075453Y-108248334D01*
X73000000Y-108248334D01*
X72957667Y-108290667D01*
X72915334Y-108248334D01*
X72957667Y-108206000D01*
X73000000Y-108248334D01*
X76075453Y-108248334D01*
X76053541Y-108208312D01*
X76049909Y-108140194D01*
X72830667Y-108140194D01*
X72810299Y-108241579D01*
X72718949Y-108220607D01*
X72661334Y-108186351D01*
X72529887Y-108087119D01*
X72492000Y-108034443D01*
X72563190Y-107996887D01*
X72661334Y-107988286D01*
X72804126Y-108048734D01*
X72830667Y-108140194D01*
X76049909Y-108140194D01*
X76048000Y-108104400D01*
X76068743Y-107981567D01*
X76140258Y-108010405D01*
X76142223Y-108012356D01*
X76195139Y-108144881D01*
X76801193Y-108144881D01*
X76655440Y-108098913D01*
X76584176Y-108076225D01*
X76495239Y-108009604D01*
X76531861Y-107942273D01*
X76663943Y-107904456D01*
X76800018Y-107965415D01*
X76941646Y-108079965D01*
X76972563Y-108159122D01*
X79672480Y-108159122D01*
X79656438Y-108130579D01*
X79627931Y-108079000D01*
X78672667Y-108079000D01*
X78630334Y-108121334D01*
X78588000Y-108079000D01*
X78630334Y-108036667D01*
X78672667Y-108079000D01*
X79627931Y-108079000D01*
X79593109Y-108015996D01*
X77268963Y-108015996D01*
X77217516Y-108017283D01*
X77097389Y-107913686D01*
X77089070Y-107895556D01*
X73649112Y-107895556D01*
X73637489Y-107945890D01*
X73592667Y-107952000D01*
X73522977Y-107921022D01*
X73536223Y-107895556D01*
X73636702Y-107885423D01*
X73649112Y-107895556D01*
X77089070Y-107895556D01*
X77083403Y-107883209D01*
X77088460Y-107825000D01*
X76048000Y-107825000D01*
X76005667Y-107867334D01*
X75963334Y-107825000D01*
X76005667Y-107782667D01*
X72746000Y-107782667D01*
X72677085Y-107856971D01*
X72614004Y-107867334D01*
X72526369Y-107826288D01*
X72534334Y-107782667D01*
X72642577Y-107701230D01*
X72666331Y-107698000D01*
X72743720Y-107762579D01*
X72746000Y-107782667D01*
X76005667Y-107782667D01*
X76048000Y-107825000D01*
X77088460Y-107825000D01*
X77091272Y-107792640D01*
X77168534Y-107797883D01*
X77253427Y-107887637D01*
X77266666Y-107916742D01*
X77268963Y-108015996D01*
X79593109Y-108015996D01*
X79534341Y-107909667D01*
X78249334Y-107909667D01*
X78207000Y-107952000D01*
X78164667Y-107909667D01*
X78207000Y-107867334D01*
X78249334Y-107909667D01*
X79534341Y-107909667D01*
X79528589Y-107899261D01*
X79467132Y-107782667D01*
X79449982Y-107749574D01*
X77730943Y-107749574D01*
X77709923Y-107866668D01*
X77684889Y-107895556D01*
X77560966Y-107949487D01*
X77490173Y-107861365D01*
X77487334Y-107825000D01*
X77555107Y-107712752D01*
X77614334Y-107698000D01*
X77730943Y-107749574D01*
X79449982Y-107749574D01*
X79404540Y-107661890D01*
X79347886Y-107556889D01*
X78729112Y-107556889D01*
X78717489Y-107607223D01*
X78672667Y-107613334D01*
X78602977Y-107582355D01*
X78616223Y-107556889D01*
X78716702Y-107546756D01*
X78729112Y-107556889D01*
X79347886Y-107556889D01*
X79277900Y-107427180D01*
X79254760Y-107384896D01*
X78373477Y-107384896D01*
X78354640Y-107415582D01*
X78285945Y-107498824D01*
X78296136Y-107535898D01*
X78320811Y-107610086D01*
X78259398Y-107582545D01*
X78206349Y-107528667D01*
X77275667Y-107528667D01*
X77271797Y-107606810D01*
X77243327Y-107613334D01*
X77123636Y-107551548D01*
X77106334Y-107528667D01*
X77108430Y-107486334D01*
X76894667Y-107486334D01*
X76852334Y-107528667D01*
X76810000Y-107486334D01*
X76824112Y-107472222D01*
X76527778Y-107472222D01*
X76516156Y-107522557D01*
X76471334Y-107528667D01*
X76401644Y-107497689D01*
X76414889Y-107472222D01*
X76515369Y-107462089D01*
X76527778Y-107472222D01*
X76824112Y-107472222D01*
X76852334Y-107444000D01*
X76894667Y-107486334D01*
X77108430Y-107486334D01*
X77110204Y-107450523D01*
X77138674Y-107444000D01*
X77258365Y-107505786D01*
X77275667Y-107528667D01*
X78206349Y-107528667D01*
X78164667Y-107486334D01*
X78111603Y-107392733D01*
X78127256Y-107387556D01*
X77967112Y-107387556D01*
X77955489Y-107437890D01*
X77910667Y-107444000D01*
X77840977Y-107413022D01*
X77854223Y-107387556D01*
X77954702Y-107377423D01*
X77967112Y-107387556D01*
X78127256Y-107387556D01*
X78194386Y-107365355D01*
X78260134Y-107366018D01*
X78373477Y-107384896D01*
X79254760Y-107384896D01*
X79187082Y-107261230D01*
X77962547Y-107261230D01*
X77838021Y-107252975D01*
X77796295Y-107243068D01*
X77633800Y-107222623D01*
X77571621Y-107251887D01*
X77496788Y-107298804D01*
X77313354Y-107329660D01*
X77275288Y-107332148D01*
X77079886Y-107322446D01*
X76985458Y-107280541D01*
X76634783Y-107280541D01*
X76584354Y-107356714D01*
X76556000Y-107359334D01*
X76490421Y-107287625D01*
X76488481Y-107274667D01*
X76302000Y-107274667D01*
X76271022Y-107344357D01*
X76245556Y-107331111D01*
X76244666Y-107322279D01*
X76034920Y-107322279D01*
X76013986Y-107426120D01*
X75950253Y-107425529D01*
X75923680Y-107401667D01*
X73338667Y-107401667D01*
X73296334Y-107444000D01*
X73254000Y-107401667D01*
X73296334Y-107359334D01*
X73338667Y-107401667D01*
X75923680Y-107401667D01*
X75846148Y-107332046D01*
X75836334Y-107288778D01*
X75866023Y-107226636D01*
X74853694Y-107226636D01*
X74804420Y-107266754D01*
X74688337Y-107274667D01*
X74570292Y-107243408D01*
X74564049Y-107193698D01*
X74674191Y-107147573D01*
X74738379Y-107160423D01*
X74853694Y-107226636D01*
X75866023Y-107226636D01*
X75881853Y-107193504D01*
X75971854Y-107211370D01*
X76034920Y-107322279D01*
X76244666Y-107322279D01*
X76235423Y-107230632D01*
X76245556Y-107218222D01*
X76295890Y-107229845D01*
X76302000Y-107274667D01*
X76488481Y-107274667D01*
X76472630Y-107168834D01*
X76484065Y-107063000D01*
X74270000Y-107063000D01*
X74227667Y-107105334D01*
X74185334Y-107063000D01*
X74227667Y-107020667D01*
X74270000Y-107063000D01*
X76484065Y-107063000D01*
X76485998Y-107045119D01*
X76535800Y-107075535D01*
X76556000Y-107105334D01*
X76634783Y-107280541D01*
X76985458Y-107280541D01*
X76981969Y-107278993D01*
X76979334Y-107268648D01*
X77045827Y-107194728D01*
X77080183Y-107190000D01*
X77100966Y-107149518D01*
X77016683Y-107065693D01*
X76918130Y-106980841D01*
X76948307Y-106946482D01*
X77124843Y-106938693D01*
X77309185Y-106954504D01*
X77358922Y-107019651D01*
X77346329Y-107068965D01*
X77338529Y-107152635D01*
X77430997Y-107170411D01*
X77593290Y-107146029D01*
X77849140Y-107132895D01*
X77955933Y-107194745D01*
X77962547Y-107261230D01*
X79187082Y-107261230D01*
X79117209Y-107133556D01*
X78390445Y-107133556D01*
X78378823Y-107183890D01*
X78334000Y-107190000D01*
X78264310Y-107159022D01*
X78277556Y-107133556D01*
X78378036Y-107123423D01*
X78390445Y-107133556D01*
X79117209Y-107133556D01*
X79105671Y-107112475D01*
X78949996Y-106830748D01*
X78455138Y-106830748D01*
X78345565Y-106925539D01*
X78157727Y-106990673D01*
X77995334Y-107003897D01*
X77699000Y-106993567D01*
X77821748Y-106978334D01*
X77656667Y-106978334D01*
X77614334Y-107020667D01*
X77572000Y-106978334D01*
X77614334Y-106936000D01*
X77656667Y-106978334D01*
X77821748Y-106978334D01*
X77974167Y-106959419D01*
X78176880Y-106899973D01*
X78249334Y-106803636D01*
X78253472Y-106794889D01*
X77713112Y-106794889D01*
X77701489Y-106845223D01*
X77656667Y-106851334D01*
X77586977Y-106820355D01*
X77590409Y-106813756D01*
X77300438Y-106813756D01*
X77198674Y-106827786D01*
X77106334Y-106829982D01*
X76932083Y-106823167D01*
X76887108Y-106803980D01*
X76914847Y-106793161D01*
X77118168Y-106777390D01*
X77253513Y-106791452D01*
X77300438Y-106813756D01*
X77590409Y-106813756D01*
X77600223Y-106794889D01*
X77700702Y-106784756D01*
X77713112Y-106794889D01*
X78253472Y-106794889D01*
X78293532Y-106710222D01*
X77967112Y-106710222D01*
X77955489Y-106760557D01*
X77910667Y-106766667D01*
X77840977Y-106735689D01*
X77854223Y-106710222D01*
X77954702Y-106700089D01*
X77967112Y-106710222D01*
X78293532Y-106710222D01*
X78302509Y-106691251D01*
X78419206Y-106713454D01*
X78441800Y-106733355D01*
X78455138Y-106830748D01*
X78949996Y-106830748D01*
X78908040Y-106754820D01*
X78842837Y-106639667D01*
X78588000Y-106639667D01*
X78545667Y-106682000D01*
X78525425Y-106661758D01*
X77535279Y-106661758D01*
X77452056Y-106675316D01*
X77342242Y-106659749D01*
X77341719Y-106648204D01*
X76680170Y-106648204D01*
X76618833Y-106672252D01*
X76471334Y-106682000D01*
X76291803Y-106696168D01*
X76265102Y-106724988D01*
X76344334Y-106766667D01*
X76456553Y-106822586D01*
X76415268Y-106842388D01*
X76360504Y-106845383D01*
X76257321Y-106886709D01*
X76259667Y-106936000D01*
X76269701Y-107011705D01*
X76187544Y-107004419D01*
X76065445Y-106919533D01*
X76061408Y-106915541D01*
X75957348Y-106855623D01*
X75884608Y-106926388D01*
X75783146Y-107003975D01*
X75697328Y-106945136D01*
X75665267Y-106781283D01*
X75666302Y-106766667D01*
X74481667Y-106766667D01*
X74477797Y-106844810D01*
X74449327Y-106851334D01*
X74329636Y-106789548D01*
X74312334Y-106766667D01*
X74316204Y-106688523D01*
X74344674Y-106682000D01*
X74464365Y-106743786D01*
X74481667Y-106766667D01*
X75666302Y-106766667D01*
X75667655Y-106747586D01*
X75689642Y-106496117D01*
X75691382Y-106470334D01*
X74693334Y-106470334D01*
X74651000Y-106512667D01*
X74608667Y-106470334D01*
X74651000Y-106428000D01*
X74693334Y-106470334D01*
X75691382Y-106470334D01*
X75698528Y-106364500D01*
X75718117Y-106301000D01*
X74947334Y-106301000D01*
X74905000Y-106343334D01*
X74862667Y-106301000D01*
X74905000Y-106258667D01*
X74947334Y-106301000D01*
X75718117Y-106301000D01*
X75747513Y-106205712D01*
X75860279Y-106197854D01*
X76025455Y-106340116D01*
X76067175Y-106390814D01*
X76210520Y-106529844D01*
X76327461Y-106573589D01*
X76333361Y-106571864D01*
X76484367Y-106571283D01*
X76598334Y-106603099D01*
X76680170Y-106648204D01*
X77341719Y-106648204D01*
X77340931Y-106630847D01*
X77454248Y-106610636D01*
X77503209Y-106624163D01*
X77535279Y-106661758D01*
X78525425Y-106661758D01*
X78503334Y-106639667D01*
X78545667Y-106597334D01*
X78588000Y-106639667D01*
X78842837Y-106639667D01*
X78699013Y-106385667D01*
X77572000Y-106385667D01*
X77529667Y-106428000D01*
X77487334Y-106385667D01*
X77529667Y-106343334D01*
X77572000Y-106385667D01*
X78699013Y-106385667D01*
X78690278Y-106370242D01*
X78647403Y-106301000D01*
X78249334Y-106301000D01*
X78207000Y-106343334D01*
X78164667Y-106301000D01*
X78207000Y-106258667D01*
X78249334Y-106301000D01*
X78647403Y-106301000D01*
X78594976Y-106216334D01*
X77995334Y-106216334D01*
X77953000Y-106258667D01*
X77910667Y-106216334D01*
X77953000Y-106174000D01*
X77995334Y-106216334D01*
X78594976Y-106216334D01*
X78550777Y-106144956D01*
X77502347Y-106144956D01*
X77444777Y-106227658D01*
X77417480Y-106257965D01*
X77188858Y-106384242D01*
X76937000Y-106408930D01*
X76598334Y-106403971D01*
X76937000Y-106343334D01*
X77111722Y-106303816D01*
X77127644Y-106277774D01*
X77071056Y-106270681D01*
X76920063Y-106249856D01*
X76934161Y-106216575D01*
X77109763Y-106173282D01*
X77248146Y-106150005D01*
X77445549Y-106124647D01*
X77502347Y-106144956D01*
X78550777Y-106144956D01*
X78531504Y-106113832D01*
X78446361Y-106004667D01*
X77191000Y-106004667D01*
X77165077Y-106071307D01*
X77068997Y-106089334D01*
X76928726Y-106054790D01*
X76894667Y-106004667D01*
X76962882Y-105928728D01*
X77016670Y-105920000D01*
X77160819Y-105971600D01*
X77191000Y-106004667D01*
X78446361Y-106004667D01*
X78413787Y-105962904D01*
X78319196Y-105894769D01*
X78229798Y-105886743D01*
X78222839Y-105887925D01*
X78119954Y-105896251D01*
X78143500Y-105871550D01*
X78244667Y-105763128D01*
X78205724Y-105638761D01*
X78042769Y-105547876D01*
X78037667Y-105546566D01*
X77989616Y-105524889D01*
X77374445Y-105524889D01*
X77362823Y-105575223D01*
X77318000Y-105581334D01*
X77248310Y-105550355D01*
X77254216Y-105539000D01*
X76979334Y-105539000D01*
X76937000Y-105581334D01*
X76894667Y-105539000D01*
X76937000Y-105496667D01*
X76979334Y-105539000D01*
X77254216Y-105539000D01*
X77261556Y-105524889D01*
X77362036Y-105514756D01*
X77374445Y-105524889D01*
X77989616Y-105524889D01*
X77878996Y-105474986D01*
X77864397Y-105454334D01*
X76640667Y-105454334D01*
X76598334Y-105496667D01*
X76556000Y-105454334D01*
X76598334Y-105412000D01*
X76640667Y-105454334D01*
X77864397Y-105454334D01*
X77826000Y-105400020D01*
X77858797Y-105369667D01*
X76894667Y-105369667D01*
X76852334Y-105412000D01*
X76810000Y-105369667D01*
X76852334Y-105327334D01*
X76894667Y-105369667D01*
X77858797Y-105369667D01*
X77870541Y-105358799D01*
X77953000Y-105412000D01*
X78053340Y-105473682D01*
X78077401Y-105406270D01*
X78077308Y-105401200D01*
X78023257Y-105234973D01*
X77904858Y-105073545D01*
X77777714Y-104989997D01*
X77763438Y-104988667D01*
X77671822Y-104922753D01*
X77583831Y-104768272D01*
X77524187Y-104590115D01*
X77517612Y-104453170D01*
X77546283Y-104418684D01*
X77603398Y-104324603D01*
X77595720Y-104223560D01*
X77528186Y-104112295D01*
X77470818Y-104109874D01*
X77415407Y-104086138D01*
X77414831Y-104003088D01*
X77403865Y-103813590D01*
X77373989Y-103739184D01*
X77372856Y-103597473D01*
X77439602Y-103500303D01*
X77546532Y-103355567D01*
X77572000Y-103276164D01*
X77530621Y-103239371D01*
X77419939Y-103323783D01*
X77419939Y-103323783D01*
G37*
X77419939Y-103323783D02*
X77260142Y-103506847D01*
X77071413Y-103766011D01*
X76914573Y-104010657D01*
X76559133Y-104580830D01*
X76266189Y-105012486D01*
X76024494Y-105319541D01*
X75822801Y-105515912D01*
X75649864Y-105615515D01*
X75608110Y-105627303D01*
X75324003Y-105739040D01*
X74974328Y-105952277D01*
X74605495Y-106238262D01*
X74366936Y-106435054D01*
X74103557Y-106639314D01*
X73853197Y-106823333D01*
X73653694Y-106959403D01*
X73542886Y-107019815D01*
X73537083Y-107020667D01*
X73432227Y-107064674D01*
X73235507Y-107178799D01*
X73041204Y-107304118D01*
X72748019Y-107481867D01*
X72452371Y-107631412D01*
X72300721Y-107691941D01*
X72112319Y-107774424D01*
X72027939Y-107853825D01*
X72030551Y-107874157D01*
X71995279Y-107930220D01*
X71851630Y-107952000D01*
X71699463Y-107965477D01*
X71690059Y-108024605D01*
X71732595Y-108082126D01*
X71885246Y-108185474D01*
X71975795Y-108199377D01*
X72278455Y-108192808D01*
X72443263Y-108250205D01*
X72492000Y-108375334D01*
X72436392Y-108515360D01*
X72358953Y-108544667D01*
X72185981Y-108600998D01*
X72117663Y-108652909D01*
X72052540Y-108765816D01*
X72120137Y-108864576D01*
X72261083Y-108954460D01*
X72319094Y-108968000D01*
X72385418Y-109040434D01*
X72407334Y-109179667D01*
X72361030Y-109352661D01*
X72271275Y-109391334D01*
X72174916Y-109338772D01*
X72182297Y-109268645D01*
X72178540Y-109182736D01*
X72106689Y-109193037D01*
X72002576Y-109175059D01*
X71984000Y-109097003D01*
X71935091Y-108992809D01*
X71878167Y-108989167D01*
X71781100Y-109093105D01*
X71772334Y-109143230D01*
X71711659Y-109252712D01*
X71585670Y-109290347D01*
X71478417Y-109239880D01*
X71461973Y-109203243D01*
X71409665Y-109150540D01*
X71294390Y-109231987D01*
X71272129Y-109254115D01*
X71164059Y-109370407D01*
X71180978Y-109396281D01*
X71293296Y-109370298D01*
X71435394Y-109359195D01*
X71476000Y-109392335D01*
X71499875Y-109525246D01*
X71526321Y-109617242D01*
X71551149Y-109717708D01*
X71502274Y-109668653D01*
X71485284Y-109645334D01*
X71409783Y-109575114D01*
X71392630Y-109624167D01*
X71323670Y-109719407D01*
X71271389Y-109730000D01*
X71138151Y-109666405D01*
X71112639Y-109624167D01*
X71054798Y-109564951D01*
X70957417Y-109634750D01*
X70887233Y-109737779D01*
X70946834Y-109789972D01*
X71043627Y-109891962D01*
X71021377Y-110026377D01*
X70932239Y-110096763D01*
X70849389Y-110206601D01*
X70854949Y-110307932D01*
X70854100Y-110458563D01*
X70790059Y-110534265D01*
X70708355Y-110497595D01*
X70683196Y-110449181D01*
X70570838Y-110349528D01*
X70399057Y-110325808D01*
X70261336Y-110388359D01*
X70251950Y-110401483D01*
X70262567Y-110510223D01*
X70289286Y-110533480D01*
X70373248Y-110643556D01*
X70311382Y-110730552D01*
X70224817Y-110746000D01*
X70057913Y-110685489D01*
X69929312Y-110576667D01*
X69784854Y-110448627D01*
X69684071Y-110407334D01*
X69667109Y-110458999D01*
X69753299Y-110586496D01*
X69782354Y-110618666D01*
X69900167Y-110774349D01*
X69928986Y-110879252D01*
X69923778Y-110887111D01*
X69831401Y-110874239D01*
X69829635Y-110873000D01*
X69528667Y-110873000D01*
X69486334Y-110915334D01*
X69444000Y-110873000D01*
X69486334Y-110830667D01*
X69528667Y-110873000D01*
X69829635Y-110873000D01*
X69679726Y-110767886D01*
X69655333Y-110745687D01*
X69517093Y-110641269D01*
X69446454Y-110637923D01*
X69444000Y-110651572D01*
X69394663Y-110715976D01*
X69359508Y-110703774D01*
X69239944Y-110709813D01*
X69057229Y-110784539D01*
X68879264Y-110891692D01*
X68773948Y-110995012D01*
X68766667Y-111020372D01*
X68839893Y-111082507D01*
X69017152Y-111138944D01*
X69027496Y-111141066D01*
X69192370Y-111190923D01*
X69200603Y-111248793D01*
X69175663Y-111268521D01*
X69149110Y-111310380D01*
X69276335Y-111294343D01*
X69288497Y-111291568D01*
X69520666Y-111297205D01*
X69687840Y-111413173D01*
X69861687Y-111587020D01*
X69688959Y-111708004D01*
X69580395Y-111822789D01*
X69610824Y-111887449D01*
X69749109Y-111891766D01*
X69815858Y-111854255D01*
X69936775Y-111817675D01*
X70053271Y-111910466D01*
X70162714Y-112052244D01*
X70247395Y-112184184D01*
X70282011Y-112262346D01*
X70248531Y-112249568D01*
X70133536Y-112239239D01*
X70076355Y-112272195D01*
X69918238Y-112316996D01*
X69893000Y-112312334D01*
X69528667Y-112312334D01*
X69486334Y-112354667D01*
X69444000Y-112312334D01*
X69486334Y-112270000D01*
X69528667Y-112312334D01*
X69893000Y-112312334D01*
X69820756Y-112298989D01*
X69716479Y-112247717D01*
X69766775Y-112202720D01*
X69831191Y-112176479D01*
X69923163Y-112129750D01*
X69867116Y-112105711D01*
X69761500Y-112096034D01*
X69567274Y-112076428D01*
X69465167Y-112057527D01*
X69341168Y-112016145D01*
X69211167Y-111973569D01*
X69063673Y-111897985D01*
X69020667Y-111836792D01*
X69072883Y-111765767D01*
X69193895Y-111807860D01*
X69248178Y-111854044D01*
X69351682Y-111896242D01*
X69405046Y-111841200D01*
X69397944Y-111721126D01*
X69284318Y-111602247D01*
X69120900Y-111530722D01*
X69022305Y-111529789D01*
X68921768Y-111620900D01*
X68915952Y-111690275D01*
X68875974Y-111852650D01*
X68813528Y-111927576D01*
X68723464Y-111981008D01*
X68715224Y-111897524D01*
X68722882Y-111854204D01*
X68707264Y-111708216D01*
X68641861Y-111677334D01*
X68509071Y-111610986D01*
X68485205Y-111571500D01*
X68475117Y-111627097D01*
X68465470Y-111833343D01*
X68456604Y-112171553D01*
X68448856Y-112623045D01*
X68442565Y-113169133D01*
X68438070Y-113791134D01*
X68436121Y-114280834D01*
X68428611Y-117096000D01*
X69592472Y-117097949D01*
X69942760Y-117098883D01*
X70435543Y-117100696D01*
X71043987Y-117103265D01*
X71741258Y-117106466D01*
X72500521Y-117110176D01*
X73294941Y-117114270D01*
X74097684Y-117118626D01*
X74185334Y-117119116D01*
X75106781Y-117123101D01*
X76126253Y-117125468D01*
X77196056Y-117126240D01*
X78268496Y-117125439D01*
X79295877Y-117123086D01*
X80230505Y-117119203D01*
X80731206Y-117116118D01*
X83848079Y-117093903D01*
X83810419Y-116969000D01*
X70206000Y-116969000D01*
X70163667Y-117011334D01*
X70121334Y-116969000D01*
X70163667Y-116926667D01*
X70206000Y-116969000D01*
X83810419Y-116969000D01*
X83790956Y-116904451D01*
X83715793Y-116686187D01*
X83627678Y-116461000D01*
X83557220Y-116291667D01*
X69698000Y-116291667D01*
X69655667Y-116334000D01*
X69613334Y-116291667D01*
X69655667Y-116249334D01*
X69698000Y-116291667D01*
X83557220Y-116291667D01*
X83456789Y-116050299D01*
X69613334Y-116050299D01*
X69567009Y-116129228D01*
X69472316Y-116249431D01*
X69395676Y-116327692D01*
X69389457Y-116330780D01*
X69384486Y-116261259D01*
X69389457Y-116133134D01*
X69435065Y-115988063D01*
X69507500Y-115972859D01*
X69605159Y-116033001D01*
X69613334Y-116050299D01*
X83456789Y-116050299D01*
X83317962Y-115716655D01*
X69578890Y-115716655D01*
X69567385Y-115747184D01*
X69485651Y-115822258D01*
X69445657Y-115736751D01*
X69444000Y-115694003D01*
X69485657Y-115606801D01*
X69530048Y-115615187D01*
X69578890Y-115716655D01*
X83317962Y-115716655D01*
X83293523Y-115657923D01*
X83258223Y-115572000D01*
X69274667Y-115572000D01*
X69243689Y-115641690D01*
X69218223Y-115628445D01*
X69208090Y-115527965D01*
X69218223Y-115515556D01*
X69268557Y-115527178D01*
X69274667Y-115572000D01*
X83258223Y-115572000D01*
X83023017Y-114999499D01*
X82827601Y-114513667D01*
X68851334Y-114513667D01*
X68809000Y-114556000D01*
X68766667Y-114513667D01*
X68809000Y-114471334D01*
X68851334Y-114513667D01*
X82827601Y-114513667D01*
X82812115Y-114475167D01*
X82777815Y-114386667D01*
X70883334Y-114386667D01*
X70852356Y-114456357D01*
X70826889Y-114443111D01*
X70816756Y-114342632D01*
X70826889Y-114330222D01*
X70877224Y-114341845D01*
X70883334Y-114386667D01*
X82777815Y-114386667D01*
X82682712Y-114141286D01*
X68651950Y-114141286D01*
X68622995Y-114268715D01*
X68571036Y-114380494D01*
X68541871Y-114335198D01*
X68528851Y-114274207D01*
X68525892Y-114119629D01*
X68547516Y-114069596D01*
X68625383Y-114047173D01*
X68651950Y-114141286D01*
X82682712Y-114141286D01*
X82656774Y-114074363D01*
X82568371Y-113829278D01*
X68590650Y-113829278D01*
X68575083Y-113939092D01*
X68546181Y-113940403D01*
X68525970Y-113827086D01*
X68539497Y-113778125D01*
X68577092Y-113746055D01*
X68590650Y-113829278D01*
X82568371Y-113829278D01*
X82552950Y-113786527D01*
X82496598Y-113601097D01*
X82483674Y-113507512D01*
X82491043Y-113492491D01*
X82501516Y-113398889D01*
X71024445Y-113398889D01*
X71012823Y-113449223D01*
X70968000Y-113455334D01*
X70898310Y-113424355D01*
X70911556Y-113398889D01*
X71012036Y-113388756D01*
X71024445Y-113398889D01*
X82501516Y-113398889D01*
X82501910Y-113395373D01*
X82488133Y-113365670D01*
X70460000Y-113365670D01*
X70398540Y-113451888D01*
X70375334Y-113455334D01*
X70292868Y-113426447D01*
X70290667Y-113417997D01*
X70349996Y-113345711D01*
X70375334Y-113328334D01*
X70453353Y-113335046D01*
X70460000Y-113365670D01*
X82488133Y-113365670D01*
X82424996Y-113229556D01*
X70093112Y-113229556D01*
X70081489Y-113279890D01*
X70036667Y-113286000D01*
X69966977Y-113255022D01*
X69980223Y-113229556D01*
X70080702Y-113219423D01*
X70093112Y-113229556D01*
X82424996Y-113229556D01*
X82414442Y-113206804D01*
X82295853Y-113032000D01*
X71222000Y-113032000D01*
X71191022Y-113101690D01*
X71165556Y-113088445D01*
X71155423Y-112987965D01*
X71165556Y-112975556D01*
X71215890Y-112987178D01*
X71222000Y-113032000D01*
X82295853Y-113032000D01*
X82246191Y-112958798D01*
X82217454Y-112923420D01*
X70826149Y-112923420D01*
X70825608Y-112999250D01*
X70736653Y-113091330D01*
X70616885Y-113114847D01*
X70546122Y-113057688D01*
X70544667Y-113041875D01*
X70614915Y-112962092D01*
X70707666Y-112924458D01*
X70826149Y-112923420D01*
X82217454Y-112923420D01*
X82099328Y-112778000D01*
X82077806Y-112747371D01*
X70536454Y-112747371D01*
X70454834Y-112877012D01*
X70432427Y-112903470D01*
X70263452Y-113068068D01*
X70160690Y-113109066D01*
X70140786Y-113020284D01*
X70142500Y-113011140D01*
X70239385Y-112852832D01*
X70410846Y-112726017D01*
X70517094Y-112696026D01*
X70536454Y-112747371D01*
X82077806Y-112747371D01*
X81969192Y-112592800D01*
X81893945Y-112463603D01*
X70869686Y-112463603D01*
X70849085Y-112510918D01*
X70763835Y-112601812D01*
X70714825Y-112583166D01*
X70714000Y-112571330D01*
X70774137Y-112499718D01*
X70811749Y-112473582D01*
X70869686Y-112463603D01*
X81893945Y-112463603D01*
X81806948Y-112314232D01*
X81774941Y-112251693D01*
X70654420Y-112251693D01*
X70560215Y-112336087D01*
X70534502Y-112354667D01*
X70362124Y-112495910D01*
X70150073Y-112691103D01*
X70091637Y-112748540D01*
X69879848Y-112943940D01*
X69756671Y-113020313D01*
X69730788Y-112973189D01*
X69746536Y-112926167D01*
X69834428Y-112819265D01*
X70014746Y-112656495D01*
X70128212Y-112566334D01*
X69782667Y-112566334D01*
X69740334Y-112608667D01*
X69698000Y-112566334D01*
X69740334Y-112524000D01*
X69782667Y-112566334D01*
X70128212Y-112566334D01*
X70169675Y-112533388D01*
X70382258Y-112367425D01*
X70478312Y-112262161D01*
X70477647Y-112177865D01*
X70400071Y-112074808D01*
X70398963Y-112073535D01*
X70248334Y-111900628D01*
X70479532Y-112064148D01*
X70630982Y-112179315D01*
X70654420Y-112251693D01*
X81774941Y-112251693D01*
X81654314Y-112016000D01*
X81613934Y-111931334D01*
X76457965Y-111931334D01*
X76444660Y-112051529D01*
X76415261Y-112037167D01*
X76404078Y-111863825D01*
X76412168Y-111836097D01*
X70184001Y-111836097D01*
X70121979Y-111795517D01*
X70110828Y-111784578D01*
X70043951Y-111673570D01*
X70053019Y-111632760D01*
X70116000Y-111658168D01*
X70158224Y-111737182D01*
X70184001Y-111836097D01*
X76412168Y-111836097D01*
X76415261Y-111825500D01*
X76446163Y-111814864D01*
X76457965Y-111931334D01*
X81613934Y-111931334D01*
X81425487Y-111536222D01*
X78983112Y-111536222D01*
X78971489Y-111586557D01*
X78926667Y-111592667D01*
X78856977Y-111561689D01*
X78870223Y-111536222D01*
X78970702Y-111526089D01*
X78983112Y-111536222D01*
X81425487Y-111536222D01*
X81322023Y-111319293D01*
X81297516Y-111268320D01*
X70121334Y-111268320D01*
X70064445Y-111279959D01*
X69926614Y-111201174D01*
X69917504Y-111194453D01*
X69798837Y-111081155D01*
X69789988Y-111014619D01*
X69793350Y-111013162D01*
X69920749Y-111039157D01*
X70057185Y-111145087D01*
X70121331Y-111267684D01*
X70121334Y-111268320D01*
X81297516Y-111268320D01*
X81229568Y-111127000D01*
X71137334Y-111127000D01*
X71095000Y-111169334D01*
X71052667Y-111127000D01*
X71095000Y-111084667D01*
X71137334Y-111127000D01*
X81229568Y-111127000D01*
X81048969Y-110751384D01*
X80822747Y-110287640D01*
X80819100Y-110280334D01*
X71476000Y-110280334D01*
X71433667Y-110322667D01*
X71391334Y-110280334D01*
X71433667Y-110238000D01*
X71476000Y-110280334D01*
X80819100Y-110280334D01*
X80755704Y-110153334D01*
X71264334Y-110153334D01*
X71257621Y-110231352D01*
X71226997Y-110238000D01*
X71140779Y-110176540D01*
X71137334Y-110153334D01*
X71166221Y-110070868D01*
X71174670Y-110068667D01*
X71246956Y-110127996D01*
X71264334Y-110153334D01*
X80755704Y-110153334D01*
X80630954Y-109903427D01*
X80516088Y-109680611D01*
X76464650Y-109680611D01*
X76449083Y-109790425D01*
X76420181Y-109791736D01*
X76399970Y-109678419D01*
X76413497Y-109629459D01*
X76451092Y-109597388D01*
X76464650Y-109680611D01*
X80516088Y-109680611D01*
X80487466Y-109625091D01*
X77958612Y-109625091D01*
X77875389Y-109638649D01*
X77765575Y-109623083D01*
X77764264Y-109594181D01*
X77877581Y-109573969D01*
X77926542Y-109587497D01*
X77958612Y-109625091D01*
X80487466Y-109625091D01*
X80461185Y-109574112D01*
X80301036Y-109275063D01*
X80248063Y-109179667D01*
X79011334Y-109179667D01*
X78969000Y-109222000D01*
X78926667Y-109179667D01*
X78969000Y-109137334D01*
X79011334Y-109179667D01*
X80248063Y-109179667D01*
X80138101Y-108981644D01*
X80106315Y-108925667D01*
X79011334Y-108925667D01*
X78969000Y-108968000D01*
X78926667Y-108925667D01*
X76894667Y-108925667D01*
X76852334Y-108968000D01*
X76810000Y-108925667D01*
X76852334Y-108883334D01*
X76894667Y-108925667D01*
X78926667Y-108925667D01*
X78969000Y-108883334D01*
X79011334Y-108925667D01*
X80106315Y-108925667D01*
X80034198Y-108798667D01*
X79962009Y-108671667D01*
X78926667Y-108671667D01*
X78884334Y-108714000D01*
X78842000Y-108671667D01*
X78884334Y-108629334D01*
X78926667Y-108671667D01*
X79962009Y-108671667D01*
X79831275Y-108441671D01*
X79774167Y-108340056D01*
X77572000Y-108340056D01*
X77522647Y-108432774D01*
X77421097Y-108417989D01*
X77337403Y-108306542D01*
X77362237Y-108248334D01*
X76725334Y-108248334D01*
X76683000Y-108290667D01*
X76640667Y-108248334D01*
X76683000Y-108206000D01*
X76725334Y-108248334D01*
X77362237Y-108248334D01*
X77374252Y-108220175D01*
X77437945Y-108206000D01*
X77554577Y-108274170D01*
X77572000Y-108340056D01*
X79774167Y-108340056D01*
X79735033Y-108270425D01*
X78805279Y-108270425D01*
X78722056Y-108283983D01*
X78612242Y-108268416D01*
X78611332Y-108248334D01*
X78334000Y-108248334D01*
X78291667Y-108290667D01*
X78249334Y-108248334D01*
X78291667Y-108206000D01*
X78334000Y-108248334D01*
X78611332Y-108248334D01*
X78610931Y-108239514D01*
X78724248Y-108219303D01*
X78773209Y-108232830D01*
X78805279Y-108270425D01*
X79735033Y-108270425D01*
X79672480Y-108159122D01*
X76972563Y-108159122D01*
X76883879Y-108169648D01*
X76852334Y-108161010D01*
X76801193Y-108144881D01*
X76195139Y-108144881D01*
X76179560Y-108198623D01*
X76095811Y-108285521D01*
X76075453Y-108248334D01*
X73000000Y-108248334D01*
X72957667Y-108290667D01*
X72915334Y-108248334D01*
X72957667Y-108206000D01*
X73000000Y-108248334D01*
X76075453Y-108248334D01*
X76053541Y-108208312D01*
X76049909Y-108140194D01*
X72830667Y-108140194D01*
X72810299Y-108241579D01*
X72718949Y-108220607D01*
X72661334Y-108186351D01*
X72529887Y-108087119D01*
X72492000Y-108034443D01*
X72563190Y-107996887D01*
X72661334Y-107988286D01*
X72804126Y-108048734D01*
X72830667Y-108140194D01*
X76049909Y-108140194D01*
X76048000Y-108104400D01*
X76068743Y-107981567D01*
X76140258Y-108010405D01*
X76142223Y-108012356D01*
X76195139Y-108144881D01*
X76801193Y-108144881D01*
X76655440Y-108098913D01*
X76584176Y-108076225D01*
X76495239Y-108009604D01*
X76531861Y-107942273D01*
X76663943Y-107904456D01*
X76800018Y-107965415D01*
X76941646Y-108079965D01*
X76972563Y-108159122D01*
X79672480Y-108159122D01*
X79656438Y-108130579D01*
X79627931Y-108079000D01*
X78672667Y-108079000D01*
X78630334Y-108121334D01*
X78588000Y-108079000D01*
X78630334Y-108036667D01*
X78672667Y-108079000D01*
X79627931Y-108079000D01*
X79593109Y-108015996D01*
X77268963Y-108015996D01*
X77217516Y-108017283D01*
X77097389Y-107913686D01*
X77089070Y-107895556D01*
X73649112Y-107895556D01*
X73637489Y-107945890D01*
X73592667Y-107952000D01*
X73522977Y-107921022D01*
X73536223Y-107895556D01*
X73636702Y-107885423D01*
X73649112Y-107895556D01*
X77089070Y-107895556D01*
X77083403Y-107883209D01*
X77088460Y-107825000D01*
X76048000Y-107825000D01*
X76005667Y-107867334D01*
X75963334Y-107825000D01*
X76005667Y-107782667D01*
X72746000Y-107782667D01*
X72677085Y-107856971D01*
X72614004Y-107867334D01*
X72526369Y-107826288D01*
X72534334Y-107782667D01*
X72642577Y-107701230D01*
X72666331Y-107698000D01*
X72743720Y-107762579D01*
X72746000Y-107782667D01*
X76005667Y-107782667D01*
X76048000Y-107825000D01*
X77088460Y-107825000D01*
X77091272Y-107792640D01*
X77168534Y-107797883D01*
X77253427Y-107887637D01*
X77266666Y-107916742D01*
X77268963Y-108015996D01*
X79593109Y-108015996D01*
X79534341Y-107909667D01*
X78249334Y-107909667D01*
X78207000Y-107952000D01*
X78164667Y-107909667D01*
X78207000Y-107867334D01*
X78249334Y-107909667D01*
X79534341Y-107909667D01*
X79528589Y-107899261D01*
X79467132Y-107782667D01*
X79449982Y-107749574D01*
X77730943Y-107749574D01*
X77709923Y-107866668D01*
X77684889Y-107895556D01*
X77560966Y-107949487D01*
X77490173Y-107861365D01*
X77487334Y-107825000D01*
X77555107Y-107712752D01*
X77614334Y-107698000D01*
X77730943Y-107749574D01*
X79449982Y-107749574D01*
X79404540Y-107661890D01*
X79347886Y-107556889D01*
X78729112Y-107556889D01*
X78717489Y-107607223D01*
X78672667Y-107613334D01*
X78602977Y-107582355D01*
X78616223Y-107556889D01*
X78716702Y-107546756D01*
X78729112Y-107556889D01*
X79347886Y-107556889D01*
X79277900Y-107427180D01*
X79254760Y-107384896D01*
X78373477Y-107384896D01*
X78354640Y-107415582D01*
X78285945Y-107498824D01*
X78296136Y-107535898D01*
X78320811Y-107610086D01*
X78259398Y-107582545D01*
X78206349Y-107528667D01*
X77275667Y-107528667D01*
X77271797Y-107606810D01*
X77243327Y-107613334D01*
X77123636Y-107551548D01*
X77106334Y-107528667D01*
X77108430Y-107486334D01*
X76894667Y-107486334D01*
X76852334Y-107528667D01*
X76810000Y-107486334D01*
X76824112Y-107472222D01*
X76527778Y-107472222D01*
X76516156Y-107522557D01*
X76471334Y-107528667D01*
X76401644Y-107497689D01*
X76414889Y-107472222D01*
X76515369Y-107462089D01*
X76527778Y-107472222D01*
X76824112Y-107472222D01*
X76852334Y-107444000D01*
X76894667Y-107486334D01*
X77108430Y-107486334D01*
X77110204Y-107450523D01*
X77138674Y-107444000D01*
X77258365Y-107505786D01*
X77275667Y-107528667D01*
X78206349Y-107528667D01*
X78164667Y-107486334D01*
X78111603Y-107392733D01*
X78127256Y-107387556D01*
X77967112Y-107387556D01*
X77955489Y-107437890D01*
X77910667Y-107444000D01*
X77840977Y-107413022D01*
X77854223Y-107387556D01*
X77954702Y-107377423D01*
X77967112Y-107387556D01*
X78127256Y-107387556D01*
X78194386Y-107365355D01*
X78260134Y-107366018D01*
X78373477Y-107384896D01*
X79254760Y-107384896D01*
X79187082Y-107261230D01*
X77962547Y-107261230D01*
X77838021Y-107252975D01*
X77796295Y-107243068D01*
X77633800Y-107222623D01*
X77571621Y-107251887D01*
X77496788Y-107298804D01*
X77313354Y-107329660D01*
X77275288Y-107332148D01*
X77079886Y-107322446D01*
X76985458Y-107280541D01*
X76634783Y-107280541D01*
X76584354Y-107356714D01*
X76556000Y-107359334D01*
X76490421Y-107287625D01*
X76488481Y-107274667D01*
X76302000Y-107274667D01*
X76271022Y-107344357D01*
X76245556Y-107331111D01*
X76244666Y-107322279D01*
X76034920Y-107322279D01*
X76013986Y-107426120D01*
X75950253Y-107425529D01*
X75923680Y-107401667D01*
X73338667Y-107401667D01*
X73296334Y-107444000D01*
X73254000Y-107401667D01*
X73296334Y-107359334D01*
X73338667Y-107401667D01*
X75923680Y-107401667D01*
X75846148Y-107332046D01*
X75836334Y-107288778D01*
X75866023Y-107226636D01*
X74853694Y-107226636D01*
X74804420Y-107266754D01*
X74688337Y-107274667D01*
X74570292Y-107243408D01*
X74564049Y-107193698D01*
X74674191Y-107147573D01*
X74738379Y-107160423D01*
X74853694Y-107226636D01*
X75866023Y-107226636D01*
X75881853Y-107193504D01*
X75971854Y-107211370D01*
X76034920Y-107322279D01*
X76244666Y-107322279D01*
X76235423Y-107230632D01*
X76245556Y-107218222D01*
X76295890Y-107229845D01*
X76302000Y-107274667D01*
X76488481Y-107274667D01*
X76472630Y-107168834D01*
X76484065Y-107063000D01*
X74270000Y-107063000D01*
X74227667Y-107105334D01*
X74185334Y-107063000D01*
X74227667Y-107020667D01*
X74270000Y-107063000D01*
X76484065Y-107063000D01*
X76485998Y-107045119D01*
X76535800Y-107075535D01*
X76556000Y-107105334D01*
X76634783Y-107280541D01*
X76985458Y-107280541D01*
X76981969Y-107278993D01*
X76979334Y-107268648D01*
X77045827Y-107194728D01*
X77080183Y-107190000D01*
X77100966Y-107149518D01*
X77016683Y-107065693D01*
X76918130Y-106980841D01*
X76948307Y-106946482D01*
X77124843Y-106938693D01*
X77309185Y-106954504D01*
X77358922Y-107019651D01*
X77346329Y-107068965D01*
X77338529Y-107152635D01*
X77430997Y-107170411D01*
X77593290Y-107146029D01*
X77849140Y-107132895D01*
X77955933Y-107194745D01*
X77962547Y-107261230D01*
X79187082Y-107261230D01*
X79117209Y-107133556D01*
X78390445Y-107133556D01*
X78378823Y-107183890D01*
X78334000Y-107190000D01*
X78264310Y-107159022D01*
X78277556Y-107133556D01*
X78378036Y-107123423D01*
X78390445Y-107133556D01*
X79117209Y-107133556D01*
X79105671Y-107112475D01*
X78949996Y-106830748D01*
X78455138Y-106830748D01*
X78345565Y-106925539D01*
X78157727Y-106990673D01*
X77995334Y-107003897D01*
X77699000Y-106993567D01*
X77821748Y-106978334D01*
X77656667Y-106978334D01*
X77614334Y-107020667D01*
X77572000Y-106978334D01*
X77614334Y-106936000D01*
X77656667Y-106978334D01*
X77821748Y-106978334D01*
X77974167Y-106959419D01*
X78176880Y-106899973D01*
X78249334Y-106803636D01*
X78253472Y-106794889D01*
X77713112Y-106794889D01*
X77701489Y-106845223D01*
X77656667Y-106851334D01*
X77586977Y-106820355D01*
X77590409Y-106813756D01*
X77300438Y-106813756D01*
X77198674Y-106827786D01*
X77106334Y-106829982D01*
X76932083Y-106823167D01*
X76887108Y-106803980D01*
X76914847Y-106793161D01*
X77118168Y-106777390D01*
X77253513Y-106791452D01*
X77300438Y-106813756D01*
X77590409Y-106813756D01*
X77600223Y-106794889D01*
X77700702Y-106784756D01*
X77713112Y-106794889D01*
X78253472Y-106794889D01*
X78293532Y-106710222D01*
X77967112Y-106710222D01*
X77955489Y-106760557D01*
X77910667Y-106766667D01*
X77840977Y-106735689D01*
X77854223Y-106710222D01*
X77954702Y-106700089D01*
X77967112Y-106710222D01*
X78293532Y-106710222D01*
X78302509Y-106691251D01*
X78419206Y-106713454D01*
X78441800Y-106733355D01*
X78455138Y-106830748D01*
X78949996Y-106830748D01*
X78908040Y-106754820D01*
X78842837Y-106639667D01*
X78588000Y-106639667D01*
X78545667Y-106682000D01*
X78525425Y-106661758D01*
X77535279Y-106661758D01*
X77452056Y-106675316D01*
X77342242Y-106659749D01*
X77341719Y-106648204D01*
X76680170Y-106648204D01*
X76618833Y-106672252D01*
X76471334Y-106682000D01*
X76291803Y-106696168D01*
X76265102Y-106724988D01*
X76344334Y-106766667D01*
X76456553Y-106822586D01*
X76415268Y-106842388D01*
X76360504Y-106845383D01*
X76257321Y-106886709D01*
X76259667Y-106936000D01*
X76269701Y-107011705D01*
X76187544Y-107004419D01*
X76065445Y-106919533D01*
X76061408Y-106915541D01*
X75957348Y-106855623D01*
X75884608Y-106926388D01*
X75783146Y-107003975D01*
X75697328Y-106945136D01*
X75665267Y-106781283D01*
X75666302Y-106766667D01*
X74481667Y-106766667D01*
X74477797Y-106844810D01*
X74449327Y-106851334D01*
X74329636Y-106789548D01*
X74312334Y-106766667D01*
X74316204Y-106688523D01*
X74344674Y-106682000D01*
X74464365Y-106743786D01*
X74481667Y-106766667D01*
X75666302Y-106766667D01*
X75667655Y-106747586D01*
X75689642Y-106496117D01*
X75691382Y-106470334D01*
X74693334Y-106470334D01*
X74651000Y-106512667D01*
X74608667Y-106470334D01*
X74651000Y-106428000D01*
X74693334Y-106470334D01*
X75691382Y-106470334D01*
X75698528Y-106364500D01*
X75718117Y-106301000D01*
X74947334Y-106301000D01*
X74905000Y-106343334D01*
X74862667Y-106301000D01*
X74905000Y-106258667D01*
X74947334Y-106301000D01*
X75718117Y-106301000D01*
X75747513Y-106205712D01*
X75860279Y-106197854D01*
X76025455Y-106340116D01*
X76067175Y-106390814D01*
X76210520Y-106529844D01*
X76327461Y-106573589D01*
X76333361Y-106571864D01*
X76484367Y-106571283D01*
X76598334Y-106603099D01*
X76680170Y-106648204D01*
X77341719Y-106648204D01*
X77340931Y-106630847D01*
X77454248Y-106610636D01*
X77503209Y-106624163D01*
X77535279Y-106661758D01*
X78525425Y-106661758D01*
X78503334Y-106639667D01*
X78545667Y-106597334D01*
X78588000Y-106639667D01*
X78842837Y-106639667D01*
X78699013Y-106385667D01*
X77572000Y-106385667D01*
X77529667Y-106428000D01*
X77487334Y-106385667D01*
X77529667Y-106343334D01*
X77572000Y-106385667D01*
X78699013Y-106385667D01*
X78690278Y-106370242D01*
X78647403Y-106301000D01*
X78249334Y-106301000D01*
X78207000Y-106343334D01*
X78164667Y-106301000D01*
X78207000Y-106258667D01*
X78249334Y-106301000D01*
X78647403Y-106301000D01*
X78594976Y-106216334D01*
X77995334Y-106216334D01*
X77953000Y-106258667D01*
X77910667Y-106216334D01*
X77953000Y-106174000D01*
X77995334Y-106216334D01*
X78594976Y-106216334D01*
X78550777Y-106144956D01*
X77502347Y-106144956D01*
X77444777Y-106227658D01*
X77417480Y-106257965D01*
X77188858Y-106384242D01*
X76937000Y-106408930D01*
X76598334Y-106403971D01*
X76937000Y-106343334D01*
X77111722Y-106303816D01*
X77127644Y-106277774D01*
X77071056Y-106270681D01*
X76920063Y-106249856D01*
X76934161Y-106216575D01*
X77109763Y-106173282D01*
X77248146Y-106150005D01*
X77445549Y-106124647D01*
X77502347Y-106144956D01*
X78550777Y-106144956D01*
X78531504Y-106113832D01*
X78446361Y-106004667D01*
X77191000Y-106004667D01*
X77165077Y-106071307D01*
X77068997Y-106089334D01*
X76928726Y-106054790D01*
X76894667Y-106004667D01*
X76962882Y-105928728D01*
X77016670Y-105920000D01*
X77160819Y-105971600D01*
X77191000Y-106004667D01*
X78446361Y-106004667D01*
X78413787Y-105962904D01*
X78319196Y-105894769D01*
X78229798Y-105886743D01*
X78222839Y-105887925D01*
X78119954Y-105896251D01*
X78143500Y-105871550D01*
X78244667Y-105763128D01*
X78205724Y-105638761D01*
X78042769Y-105547876D01*
X78037667Y-105546566D01*
X77989616Y-105524889D01*
X77374445Y-105524889D01*
X77362823Y-105575223D01*
X77318000Y-105581334D01*
X77248310Y-105550355D01*
X77254216Y-105539000D01*
X76979334Y-105539000D01*
X76937000Y-105581334D01*
X76894667Y-105539000D01*
X76937000Y-105496667D01*
X76979334Y-105539000D01*
X77254216Y-105539000D01*
X77261556Y-105524889D01*
X77362036Y-105514756D01*
X77374445Y-105524889D01*
X77989616Y-105524889D01*
X77878996Y-105474986D01*
X77864397Y-105454334D01*
X76640667Y-105454334D01*
X76598334Y-105496667D01*
X76556000Y-105454334D01*
X76598334Y-105412000D01*
X76640667Y-105454334D01*
X77864397Y-105454334D01*
X77826000Y-105400020D01*
X77858797Y-105369667D01*
X76894667Y-105369667D01*
X76852334Y-105412000D01*
X76810000Y-105369667D01*
X76852334Y-105327334D01*
X76894667Y-105369667D01*
X77858797Y-105369667D01*
X77870541Y-105358799D01*
X77953000Y-105412000D01*
X78053340Y-105473682D01*
X78077401Y-105406270D01*
X78077308Y-105401200D01*
X78023257Y-105234973D01*
X77904858Y-105073545D01*
X77777714Y-104989997D01*
X77763438Y-104988667D01*
X77671822Y-104922753D01*
X77583831Y-104768272D01*
X77524187Y-104590115D01*
X77517612Y-104453170D01*
X77546283Y-104418684D01*
X77603398Y-104324603D01*
X77595720Y-104223560D01*
X77528186Y-104112295D01*
X77470818Y-104109874D01*
X77415407Y-104086138D01*
X77414831Y-104003088D01*
X77403865Y-103813590D01*
X77373989Y-103739184D01*
X77372856Y-103597473D01*
X77439602Y-103500303D01*
X77546532Y-103355567D01*
X77572000Y-103276164D01*
X77530621Y-103239371D01*
X77419939Y-103323783D01*
G36*
X86568236Y-106486283D02*
X86570449Y-106675303D01*
X86581069Y-106745500D01*
X86635438Y-107030914D01*
X86723850Y-107449212D01*
X86839170Y-107969027D01*
X86974263Y-108558994D01*
X87121995Y-109187744D01*
X87275230Y-109823912D01*
X87356230Y-110153334D01*
X87478189Y-110645772D01*
X87603005Y-111150249D01*
X87716319Y-111608702D01*
X87803771Y-111963064D01*
X87806383Y-111973667D01*
X87905205Y-112405689D01*
X88002304Y-112880847D01*
X88074915Y-113286000D01*
X88135044Y-113606205D01*
X88228531Y-114038305D01*
X88343687Y-114530960D01*
X88468825Y-115032833D01*
X88498970Y-115148667D01*
X88618124Y-115608954D01*
X88725723Y-116036784D01*
X88812206Y-116393246D01*
X88868009Y-116639433D01*
X88878963Y-116694769D01*
X88934559Y-116912705D01*
X88999076Y-117048032D01*
X89012273Y-117060015D01*
X89110651Y-117070782D01*
X89355230Y-117081237D01*
X89722876Y-117091181D01*
X90190457Y-117100419D01*
X90734839Y-117108753D01*
X91332890Y-117115986D01*
X91961476Y-117121920D01*
X92597465Y-117126359D01*
X93217723Y-117129105D01*
X93799119Y-117129961D01*
X94318518Y-117128730D01*
X94752787Y-117125214D01*
X95078795Y-117119217D01*
X95236561Y-117113075D01*
X95671455Y-117087817D01*
X95510882Y-116393409D01*
X95435011Y-116059974D01*
X95334504Y-115610675D01*
X95220387Y-115095183D01*
X95103686Y-114563169D01*
X95056029Y-114344334D01*
X94817820Y-113281287D01*
X94596813Y-112370892D01*
X94387617Y-111597984D01*
X94184834Y-110947395D01*
X93983073Y-110403959D01*
X93776937Y-109952510D01*
X93561034Y-109577882D01*
X93329969Y-109264908D01*
X93196246Y-109115420D01*
X93015444Y-108939376D01*
X92831531Y-108799323D01*
X92608535Y-108676855D01*
X92310484Y-108553568D01*
X91901408Y-108411055D01*
X91674092Y-108336583D01*
X91328040Y-108218016D01*
X90860898Y-108048644D01*
X90308262Y-107841879D01*
X89705727Y-107611134D01*
X89088888Y-107369822D01*
X88744253Y-107232575D01*
X88194763Y-107013780D01*
X87694475Y-106817614D01*
X87265636Y-106652555D01*
X86930496Y-106527082D01*
X86711303Y-106449675D01*
X86633034Y-106428000D01*
X86568236Y-106486283D01*
X86568236Y-106486283D01*
G37*
X86568236Y-106486283D02*
X86570449Y-106675303D01*
X86581069Y-106745500D01*
X86635438Y-107030914D01*
X86723850Y-107449212D01*
X86839170Y-107969027D01*
X86974263Y-108558994D01*
X87121995Y-109187744D01*
X87275230Y-109823912D01*
X87356230Y-110153334D01*
X87478189Y-110645772D01*
X87603005Y-111150249D01*
X87716319Y-111608702D01*
X87803771Y-111963064D01*
X87806383Y-111973667D01*
X87905205Y-112405689D01*
X88002304Y-112880847D01*
X88074915Y-113286000D01*
X88135044Y-113606205D01*
X88228531Y-114038305D01*
X88343687Y-114530960D01*
X88468825Y-115032833D01*
X88498970Y-115148667D01*
X88618124Y-115608954D01*
X88725723Y-116036784D01*
X88812206Y-116393246D01*
X88868009Y-116639433D01*
X88878963Y-116694769D01*
X88934559Y-116912705D01*
X88999076Y-117048032D01*
X89012273Y-117060015D01*
X89110651Y-117070782D01*
X89355230Y-117081237D01*
X89722876Y-117091181D01*
X90190457Y-117100419D01*
X90734839Y-117108753D01*
X91332890Y-117115986D01*
X91961476Y-117121920D01*
X92597465Y-117126359D01*
X93217723Y-117129105D01*
X93799119Y-117129961D01*
X94318518Y-117128730D01*
X94752787Y-117125214D01*
X95078795Y-117119217D01*
X95236561Y-117113075D01*
X95671455Y-117087817D01*
X95510882Y-116393409D01*
X95435011Y-116059974D01*
X95334504Y-115610675D01*
X95220387Y-115095183D01*
X95103686Y-114563169D01*
X95056029Y-114344334D01*
X94817820Y-113281287D01*
X94596813Y-112370892D01*
X94387617Y-111597984D01*
X94184834Y-110947395D01*
X93983073Y-110403959D01*
X93776937Y-109952510D01*
X93561034Y-109577882D01*
X93329969Y-109264908D01*
X93196246Y-109115420D01*
X93015444Y-108939376D01*
X92831531Y-108799323D01*
X92608535Y-108676855D01*
X92310484Y-108553568D01*
X91901408Y-108411055D01*
X91674092Y-108336583D01*
X91328040Y-108218016D01*
X90860898Y-108048644D01*
X90308262Y-107841879D01*
X89705727Y-107611134D01*
X89088888Y-107369822D01*
X88744253Y-107232575D01*
X88194763Y-107013780D01*
X87694475Y-106817614D01*
X87265636Y-106652555D01*
X86930496Y-106527082D01*
X86711303Y-106449675D01*
X86633034Y-106428000D01*
X86568236Y-106486283D01*
M02*
